<svg width="20" height="21" viewBox="0 0 20 21" fill="none" xmlns="http://www.w3.org/2000/svg">
<circle cx="10" cy="10.0039" r="10" fill="#3D54FE"/>
<path d="M6.4394 11.5039C5.95754 11.5039 5.48649 11.6359 5.08584 11.8831C4.68518 12.1303 4.3729 12.4817 4.1885 12.8929C4.0041 13.304 3.95585 13.7564 4.04986 14.1929C4.14387 14.6293 4.37591 15.0302 4.71664 15.3449C5.05737 15.6596 5.49149 15.8739 5.96409 15.9607C6.4367 16.0475 6.92657 16.0029 7.37176 15.8326C7.81694 15.6623 8.19745 15.374 8.46516 15.0039C8.73287 14.6339 8.87576 14.1989 8.87576 13.7539C8.87576 13.1572 8.61907 12.5849 8.16217 12.1629C7.70526 11.741 7.08557 11.5039 6.4394 11.5039ZM6.4394 15.0039C6.1717 15.0039 5.91001 14.9306 5.68742 14.7932C5.46483 14.6559 5.29135 14.4607 5.1889 14.2323C5.08646 14.0039 5.05965 13.7525 5.11188 13.51C5.16411 13.2676 5.29302 13.0448 5.48231 12.87C5.67161 12.6952 5.91278 12.5762 6.17534 12.5279C6.4379 12.4797 6.71005 12.5044 6.95738 12.5991C7.2047 12.6937 7.4161 12.8539 7.56482 13.0594C7.71355 13.265 7.79294 13.5067 7.79294 13.7539C7.79116 14.0849 7.64798 14.4019 7.39453 14.636C7.14108 14.87 6.79783 15.0023 6.4394 15.0039ZM4.1587 8.64766L5.13324 7.75391L4.1587 6.86016C4.07237 6.76301 4.02825 6.63968 4.03492 6.51415C4.0416 6.38862 4.09859 6.26988 4.19482 6.18101C4.29105 6.09214 4.41963 6.03951 4.55555 6.03334C4.69147 6.02718 4.82502 6.06792 4.93022 6.14766L5.89799 7.04766L6.86577 6.14766C6.97096 6.06792 7.10451 6.02718 7.24043 6.03334C7.37635 6.03951 7.50493 6.09214 7.60116 6.18101C7.69739 6.26988 7.75438 6.38862 7.76106 6.51415C7.76774 6.63968 7.72361 6.76301 7.63728 6.86016L6.66274 7.75391L7.63728 8.64766C7.73895 8.74245 7.79598 8.87048 7.79598 9.00391C7.79598 9.13733 7.73895 9.26536 7.63728 9.36016C7.53379 9.45257 7.39547 9.50422 7.25152 9.50422C7.10757 9.50422 6.96925 9.45257 6.86577 9.36016L5.89799 8.46016L4.93022 9.36016C4.82673 9.45257 4.68841 9.50422 4.54446 9.50422C4.40051 9.50422 4.26219 9.45257 4.1587 9.36016C4.05703 9.26536 4 9.13733 4 9.00391C4 8.87048 4.05703 8.74245 4.1587 8.64766ZM16.8413 14.6477C16.943 14.7425 17 14.8705 17 15.0039C17 15.1373 16.943 15.2654 16.8413 15.3602C16.7378 15.4526 16.5995 15.5042 16.4555 15.5042C16.3116 15.5042 16.1733 15.4526 16.0698 15.3602L15.102 14.4602L14.1342 15.3602C14.0307 15.4526 13.8924 15.5042 13.7485 15.5042C13.6045 15.5042 13.4662 15.4526 13.3627 15.3602C13.2611 15.2654 13.204 15.1373 13.204 15.0039C13.204 14.8705 13.2611 14.7425 13.3627 14.6477L14.3373 13.7539L13.3627 12.8602C13.2764 12.763 13.2323 12.6397 13.2389 12.5141C13.2456 12.3886 13.3026 12.2699 13.3988 12.181C13.4951 12.0921 13.6236 12.0395 13.7596 12.0333C13.8955 12.0272 14.029 12.0679 14.1342 12.1477L15.102 13.0477L16.0698 12.1477C16.175 12.0679 16.3085 12.0272 16.4444 12.0333C16.5804 12.0395 16.709 12.0921 16.8052 12.181C16.9014 12.2699 16.9584 12.3886 16.9651 12.5141C16.9718 12.6397 16.9276 12.763 16.8413 12.8602L15.8668 13.7539L16.8413 14.6477ZM13.7823 9.05391C13.3627 10.4539 12.0701 11.6602 10.6286 11.9914L10.5 12.0039C10.3784 12.0043 10.2603 11.9669 10.1645 11.8978C10.0688 11.8286 10.001 11.7317 9.97212 11.6227C9.93935 11.4934 9.96283 11.3575 10.0375 11.2441C10.1122 11.1307 10.2321 11.049 10.3714 11.0164C11.4272 10.7727 12.422 9.83516 12.7401 8.79141C12.9499 8.07266 12.9567 6.97891 11.7385 5.86016L11.5828 5.71016V7.00391C11.5828 7.13651 11.5258 7.26369 11.4243 7.35746C11.3227 7.45123 11.185 7.50391 11.0414 7.50391C10.8978 7.50391 10.7601 7.45123 10.6586 7.35746C10.557 7.26369 10.5 7.13651 10.5 7.00391V4.50391C10.5 4.3713 10.557 4.24412 10.6586 4.15035C10.7601 4.05658 10.8978 4.00391 11.0414 4.00391H13.7485C13.8921 4.00391 14.0298 4.05658 14.1313 4.15035C14.2328 4.24412 14.2899 4.3713 14.2899 4.50391C14.2899 4.63651 14.2328 4.76369 14.1313 4.85746C14.0298 4.95123 13.8921 5.00391 13.7485 5.00391H12.3476L12.51 5.14766C13.7417 6.29141 14.1951 7.67891 13.7823 9.05391Z" fill="white"/>
</svg>
