<svg width="142" height="8" viewBox="0 0 142 8" fill="none" xmlns="http://www.w3.org/2000/svg">
<path d="M91.1667 0.794263C91.2646 0.726662 91.3966 0.737448 91.4822 0.820051C91.6816 1.01233 91.8627 1.22318 92.023 1.4498C92.0291 1.45841 92.0347 1.4674 92.0396 1.47672C92.5174 2.37413 93.0185 3.27572 93.5374 4.20937C93.7616 4.61269 93.9891 5.02198 94.2195 5.43951C94.9699 4.06657 95.6774 2.77346 96.4037 1.48657C96.4064 1.48184 96.4092 1.4772 96.4122 1.47266C96.5654 1.23821 96.7423 1.02051 96.94 0.823091C97.014 0.749295 97.1259 0.729219 97.2209 0.772747L97.4535 0.8794C97.5424 0.920136 97.5993 1.00891 97.5993 1.10665V3.5292V3.5346V3.54V3.5454V3.5508V3.5562V3.56161V3.56701V3.57241V3.57781V3.58321V3.58861V3.59401V3.59941V3.60481V3.61022V3.61562V3.62102V3.62642V3.63182V3.63722V3.64262V3.64802V3.65342V3.65883V3.66423V3.66963V3.67503V3.68043V3.68583V3.69123V3.69663V3.70204V3.70744V3.71284V3.71824V3.72364V3.72904V3.73444V3.73984V3.74525V3.75065V3.75605V3.76145V3.76685V3.77225V3.77765V3.78306V3.78846V3.79386V3.79926V3.80466V3.81006V3.81547V3.82087V3.82627V3.83167V3.83707V3.84247V3.84787V3.85328V3.85868V3.86408V3.86948V3.87488V3.88029V3.88569V3.89109V3.89649V3.90189V3.90729V3.9127V3.9181V3.9235V3.9289V3.9343V3.93971V3.94511V3.95051V3.95591V3.96132V3.96672V3.97212V3.97752V3.98292V3.98833V3.99373V3.99913V4.00453V4.00994V4.01534V4.02074V4.02614V4.03155V4.03695V4.04235V4.04775V4.05316V4.05856V4.06396V4.06936V4.07477V4.08017V4.08557V4.09098V4.09638V4.10178V4.10719V4.11259V4.11799V4.12339V4.1288V4.1342V4.1396V4.14501V4.15041V4.15581V4.16122V4.16662V4.17202V4.17743V4.18283V4.18824V4.19364V4.19904V4.20445V4.20985V4.21525V4.22066V4.22606V4.23147V4.23687V4.24227V4.24768V4.25308V4.25849V4.26389V4.26929V4.2747V4.2801V4.28551V4.29091V4.29632V4.30172V4.30713V4.31253V4.31793V4.32334V4.32874V4.33415V4.33955V4.34496V4.35036V4.35577V4.36117V4.36658V4.37198V4.37739V4.3828V4.3882V4.39361V4.39901V4.40442V4.40982V4.41523V4.42063V4.42604V4.43145V4.43685V4.44226V4.44766V4.45307V4.45848V4.46388V4.46929V4.47469V4.4801V4.48551V4.49091V4.49632V4.50173V4.50713V4.51254V4.51795V4.52335V4.52876V4.53417V4.53957V4.54498V4.55039V4.5558V4.5612V4.56661V4.57202V4.57743V4.58283V4.58824V4.59365V4.59906V4.60446V4.60987V4.61528V4.62069V4.6261V4.6315V4.63691V4.64232V4.64773V4.65314V4.65855V4.66395V4.66936V4.67477V4.68018V4.68559V4.691V4.69641V4.70182V4.70723V4.71263V4.71804V4.72345V4.72886V4.73427V4.73968V4.74509V4.7505V4.75591V4.76132V4.76673V4.77214V4.77755V4.78296V4.78837V4.79378V4.79919V4.8046V4.81001V4.81542V4.82083V4.82625V4.83166V4.83707V4.84248V4.84789V4.8533V4.85871V4.86412V4.86954V4.87495V4.88036V4.88577V4.89118V4.89659V4.90201V4.90742V4.91283V4.91824V4.92366V4.92907V4.93448V4.93989V4.94531V4.95072V4.95613V4.96154V4.96696V4.97237V4.97778V4.9832V4.98861V4.99402V4.99944V5.00485V5.01027V5.01568V5.02109V5.02651V5.03192V5.03734V5.04275V5.04817V5.05358V5.05899V5.06441V5.06982V5.07524V5.08065V5.08607V5.09148V5.0969V5.10232V5.10773V5.11315V5.11856V5.12398V5.12939V5.13481V5.14023V5.14564V5.15106V5.15648V5.16189V5.16731V5.17273V5.17814V5.18356V5.18898V5.19439V5.19981V5.20523V5.21065V5.21606V5.22148V5.2269V5.23232V5.23773V5.24315V5.24857V5.25399V5.25941V5.26483V5.27025V5.27566V5.28108V5.2865V5.29192V5.29734V5.30276V5.30818V5.3136V5.31902V5.32444V5.32986V5.33528V5.3407V5.34612V5.35154V5.35696V5.36238V5.3678V5.37322V5.37864V5.38406V5.38948V5.39491V5.40033V5.40575V5.41117V5.41659V5.42201V5.42744V5.43286V5.43828V5.4437V5.44913V5.45455V5.45997V5.46539V5.47082V5.47624V5.48166V5.48709V5.49251V5.49793V5.50336V5.50878V5.51421V5.51963V5.52505V5.53048V5.5359V5.54133V5.54675V5.55218V5.5576V5.56303V5.56845V5.57388V5.5793V5.58473V5.59015V5.59558V5.60101V5.60643V5.61186V5.61728V5.62271V5.62814V5.63356V5.63899V5.64442V5.64985V5.65527V5.6607V5.66613V5.67156V5.67698V5.68241V5.68784V5.69327V5.6987V5.70413V5.70955V5.71498V5.72041V5.72584V5.73127V5.7367V5.74213V5.74756V5.75299V5.75842V5.76385V5.76928V5.77471V5.78014V5.78557V5.791V5.79643V5.80186V5.80729V5.81273V5.81816V5.82359V5.82902V5.83445V5.83988V5.84532V5.85075V5.85618V5.86161V5.86705V5.87248V5.87791V5.88335V5.88878V5.89421V5.89965V5.90508V5.91051V5.91595V5.92138V5.92682V5.93225V5.93769V5.94312V5.94856V5.95399V5.95943V5.96486V5.9703V5.97573V5.98117V5.98661V5.99204V5.99748V6.00292V6.00835V6.01379V6.01923V6.02466V6.0301V6.03554V6.04098V6.04641V6.05185V6.05729V6.06273V6.06817V6.07361V6.07904V6.08448V6.08992V6.09536V6.1008V6.10624V6.11168V6.11712V6.12256V6.128V6.13344V6.13888V6.14432V6.14976V6.1552V6.16065V6.16609V6.17153V6.17697V6.18241V6.18785V6.1933V6.19874V6.20418V6.20962V6.21507V6.22051V6.22595V6.2314V6.23684V6.24228V6.24773V6.25317V6.25862V6.26406V6.2695V6.27495V6.28039V6.28584V6.29129V6.29673V6.30218C97.5993 6.44155 97.5396 6.56355 97.4974 6.64218C97.4754 6.6832 97.4573 6.71463 97.4415 6.74195C97.4184 6.78202 97.4004 6.81325 97.3828 6.85295C97.3444 6.93941 97.2606 6.99685 97.1661 7.00136C97.0717 7.00587 96.9827 6.95669 96.9364 6.87427C96.9126 6.83208 96.8899 6.80035 96.8613 6.7604C96.8406 6.73141 96.8167 6.69808 96.7871 6.65329C96.7327 6.57094 96.6565 6.44379 96.6494 6.29104L96.6488 6.27932H96.6491C96.6491 5.24009 96.6489 4.20532 96.5763 3.14513C96.4895 3.29792 96.4032 3.45293 96.3172 3.61563L96.3145 3.62056L96.3145 3.62053C96.0749 4.05005 95.837 4.4835 95.5987 4.91786L95.5985 4.91822C95.3604 5.3522 95.1218 5.78709 94.8812 6.21829L94.8809 6.21884C94.7885 6.38359 94.7019 6.52493 94.6162 6.62689C94.5377 6.72037 94.4123 6.83932 94.2343 6.8407C94.0542 6.8421 93.9278 6.72268 93.8491 6.62801C93.764 6.52562 93.6789 6.38334 93.5884 6.21685M91.1667 0.794263L93.8075 6.09649M91.1667 0.794263L90.9791 0.923771C90.9115 0.970444 90.8711 1.04735 90.8711 1.12951V1.14V1.15049V1.16097V1.17146V1.18195V1.19244V1.20293V1.21341V1.2239V1.23439V1.24487V1.25536V1.26584V1.27633V1.28681V1.2973V1.30778V1.31827V1.32875V1.33923V1.34971V1.3602V1.37068V1.38116V1.39164V1.40212V1.4126V1.42308V1.43356V1.44404V1.45452V1.465V1.47548V1.48596V1.49644V1.50691V1.51739V1.52787V1.53834V1.54882V1.5593V1.56977V1.58025V1.59072V1.6012V1.61167V1.62214V1.63262V1.64309V1.65356V1.66404V1.67451V1.68498V1.69545V1.70592V1.71639V1.72687V1.73734V1.74781V1.75828V1.76874V1.77921V1.78968V1.80015V1.81062V1.82109V1.83155V1.84202V1.85249V1.86295V1.87342V1.88388V1.89435V1.90481V1.91528V1.92574V1.93621V1.94667V1.95714V1.9676V1.97806V1.98852V1.99899V2.00945V2.01991V2.03037V2.04083V2.05129V2.06175V2.07221V2.08267V2.09313V2.10359V2.11405V2.12451V2.13496V2.14542V2.15588V2.16634V2.17679V2.18725V2.19771V2.20816V2.21862V2.22907V2.23953V2.24998V2.26044V2.27089V2.28134V2.2918V2.30225V2.3127V2.32315V2.33361V2.34406V2.35451V2.36496V2.37541V2.38586V2.39631V2.40676V2.41721V2.42766V2.43811V2.44856V2.45901V2.46945V2.4799V2.49035V2.5008V2.51124V2.52169V2.53214V2.54258V2.55303V2.56347V2.57392V2.58436V2.59481V2.60525V2.61569V2.62614V2.63658V2.64702V2.65747V2.66791V2.67835V2.68879V2.69923V2.70968V2.72012V2.73056V2.741V2.75144V2.76188V2.77232V2.78275V2.79319V2.80363V2.81407V2.82451V2.83495V2.84538V2.85582V2.86626V2.87669V2.88713V2.89756V2.908V2.91844V2.92887V2.9393V2.94974V2.96017V2.97061V2.98104V2.99147V3.00191V3.01234V3.02277V3.0332V3.04364V3.05407V3.0645V3.07493V3.08536V3.09579V3.10622V3.11665V3.12708V3.13751V3.14794V3.15837V3.16879V3.17922V3.18965V3.20008V3.2105V3.22093V3.23136V3.24178V3.25221V3.26264V3.27306V3.28349V3.29391V3.30434V3.31476V3.32519V3.33561V3.34603V3.35646V3.36688V3.3773V3.38772V3.39815V3.40857V3.41899V3.42941V3.43983V3.45025V3.46067V3.47109V3.48151V3.49193V3.50235V3.51277V3.52319V3.53361V3.54403V3.55445V3.56486V3.57528V3.5857V3.59612V3.60653V3.61695V3.62737V3.63778V3.6482V3.65861V3.66903V3.67944V3.68986V3.70027V3.71069V3.7211V3.73151V3.74193V3.75234V3.76275V3.77317V3.78358V3.79399V3.8044V3.81481V3.82522V3.83564V3.84605V3.85646V3.86687V3.87728V3.88769V3.8981V3.9085V3.91891V3.92932V3.93973V3.95014V3.96055V3.97095V3.98136V3.99177V4.00218V4.01258V4.02299V4.03339V4.0438V4.05421V4.06461V4.07502V4.08542V4.09583V4.10623V4.11663V4.12704V4.13744V4.14784V4.15825V4.16865V4.17905V4.18946V4.19986V4.21026V4.22066V4.23106V4.24146V4.25186V4.26226V4.27266V4.28306V4.29346V4.30386V4.31426V4.32466V4.33506V4.34546V4.35586V4.36626V4.37665V4.38705V4.39745V4.40785V4.41824V4.42864V4.43904V4.44943V4.45983V4.47022V4.48062V4.49101V4.50141V4.5118V4.5222V4.53259V4.54299V4.55338V4.56377V4.57417V4.58456V4.59495V4.60535V4.61574V4.62613V4.63652V4.64691V4.65731V4.6677V4.67809V4.68848V4.69887V4.70926V4.71965V4.73004V4.74043V4.75082V4.76121V4.7716V4.78198V4.79237V4.80276V4.81315V4.82354V4.83392V4.84431V4.8547V4.86509V4.87547V4.88586V4.89624V4.90663V4.91702V4.9274V4.93779V4.94817V4.95856V4.96894V4.97933V4.98971V5.00009V5.01048V5.02086V5.03124V5.04163V5.05201V5.06239V5.07277V5.08316V5.09354V5.10392V5.1143V5.12468V5.13506V5.14544V5.15583V5.16621V5.17659V5.18697V5.19735V5.20773V5.2181V5.22848V5.23886V5.24924V5.25962V5.27V5.28038V5.29075V5.30113V5.31151V5.32189V5.33226V5.34264V5.35302V5.36339V5.37377V5.38414V5.39452V5.4049V5.41527V5.42565V5.43602V5.44639V5.45677V5.46714V5.47752V5.48789V5.49827V5.50864V5.51901V5.52938V5.53976V5.55013V5.5605V5.57087V5.58125V5.59162V5.60199V5.61236V5.62273V5.6331V5.64347V5.65384V5.66422V5.67459V5.68496V5.69532V5.70569V5.71606V5.72643V5.7368V5.74717V5.75754V5.76791V5.77828V5.78864V5.79901V5.80938V5.81975V5.83011V5.84048V5.85085V5.86121V5.87158V5.88195V5.89231V5.90268V5.91304V5.92341V5.93377V5.94414V5.9545V5.96487V5.97523V5.9856V5.99596V6.00633V6.01669V6.02705V6.03742V6.04778V6.05814V6.06851V6.07887V6.08923V6.09959V6.10995V6.12032V6.13068V6.14104V6.1514V6.16176V6.17212V6.18248V6.19284V6.2032V6.21356V6.22393V6.23428V6.24464V6.255V6.26536V6.27572V6.28608V6.29644V6.3068V6.31716V6.32752V6.33787V6.34823V6.35859V6.36895V6.3793V6.38966V6.40002V6.41037V6.42073V6.43109V6.44144V6.4518V6.46216C90.8711 6.54719 90.9015 6.61634 90.9292 6.66336C90.957 6.71049 90.991 6.75017 91.0184 6.77972C91.0411 6.80416 91.0661 6.82877 91.0858 6.84824C91.0898 6.85219 91.0936 6.85592 91.0971 6.8594C91.1211 6.88316 91.1358 6.89843 91.1455 6.91026C91.1959 6.97172 91.2726 7.00551 91.352 7.00129C91.4314 6.99707 91.504 6.95533 91.5477 6.88887C91.5588 6.87193 91.5746 6.8515 91.5983 6.8224C91.6022 6.81756 91.6065 6.81238 91.6109 6.80691C91.6304 6.78316 91.6542 6.75411 91.6756 6.72554C91.7219 6.66379 91.8063 6.5442 91.8063 6.39359V6.38792V6.38226V6.37659V6.37092V6.36525V6.35958V6.35391V6.34824V6.34257V6.3369V6.33123V6.32557V6.3199V6.31423V6.30856V6.30289V6.29722V6.29155V6.28588V6.28021V6.27455V6.26888V6.26321V6.25754V6.25187V6.2462V6.24053V6.23486V6.22919V6.22352V6.21785V6.21219V6.20652V6.20085V6.19518V6.18951V6.18384V6.17817V6.1725V6.16683V6.16116V6.15549V6.14983V6.14416V6.13849V6.13282V6.12715V6.12148V6.11581V6.11014V6.10447V6.0988V6.09313V6.08746V6.08179V6.07612V6.07045V6.06478V6.05911V6.05345V6.04778V6.04211V6.03644V6.03077V6.0251V6.01943V6.01376V6.00809V6.00242V5.99675V5.99108V5.98541V5.97974V5.97407V5.9684V5.96273V5.95706V5.95139V5.94572V5.94005V5.93438V5.92871V5.92304V5.91737V5.9117V5.90603V5.90036V5.89469V5.88902V5.88335V5.87768V5.87201V5.86634V5.86067V5.855V5.84933V5.84366V5.83799V5.83231V5.82664V5.82097V5.8153V5.80963V5.80396V5.79829V5.79262V5.78695V5.78128V5.77561V5.76994V5.76427V5.75859V5.75292V5.74725V5.74158V5.73591V5.73024V5.72457V5.7189V5.71322V5.70755V5.70188V5.69621V5.69054V5.68487V5.6792V5.67352V5.66785V5.66218V5.65651V5.65084V5.64517V5.63949V5.63382V5.62815V5.62248V5.61681V5.61113V5.60546V5.59979V5.59412V5.58844V5.58277V5.5771V5.57143V5.56575V5.56008V5.55441V5.54874V5.54306V5.53739V5.53172V5.52605V5.52037V5.5147V5.50903V5.50335V5.49768V5.49201V5.48633V5.48066V5.47499V5.46931V5.46364V5.45797V5.45229V5.44662V5.44095V5.43527V5.4296V5.42392V5.41825V5.41258V5.4069V5.40123V5.39555V5.38988V5.38421V5.37853V5.37286V5.36718V5.36151V5.35583V5.35016V5.34448V5.33881V5.33313V5.32746V5.32178V5.31611V5.31043V5.30476V5.29908V5.29341V5.28773V5.28206V5.27638V5.27071V5.26503V5.25936V5.25368V5.248V5.24233V5.23665V5.23098V5.2253V5.21962V5.21395V5.20827V5.2026V5.19692V5.19124V5.18557V5.17989V5.17421V5.16854V5.16286V5.15718V5.1515V5.14583V5.14015V5.13447V5.1288V5.12312V5.11744V5.11176V5.10609V5.10041V5.09473V5.08905V5.08337V5.0777V5.07202V5.06634V5.06066V5.05498V5.0493V5.04363V5.03795V5.03227V5.02659V5.02091V5.01523V5.00955V5.00387V4.99819V4.99252V4.98684V4.98116V4.97548V4.9698V4.96412V4.95844V4.95276V4.94708V4.9414V4.93572V4.93004V4.92436V4.91868V4.913V4.90732V4.90164V4.89596V4.89027V4.88459V4.87891V4.87323V4.86755V4.86187V4.85619V4.85051V4.84482V4.83914V4.83346V4.82778V4.8221V4.81642V4.81073V4.80505V4.79937V4.79369V4.788V4.78232V4.77664V4.77096V4.76527V4.75959V4.75391V4.74822V4.74254V4.73686V4.73117V4.72549V4.71981V4.71412V4.70844V4.70275V4.69707V4.69139V4.6857V4.68002V4.67433V4.66865V4.66296V4.65728V4.65159V4.64591V4.64022V4.63454V4.62885V4.62317V4.61748V4.6118V4.60611V4.60042V4.59474V4.58905V4.58337V4.57768V4.57199V4.56631V4.56062V4.55493V4.54925V4.54356V4.53787V4.53219V4.5265V4.52081V4.51512V4.50944V4.50375V4.49806V4.49237V4.48668V4.481V4.47531V4.46962V4.46393V4.45824V4.45255V4.44686V4.44118V4.43549V4.4298V4.42411V4.41842V4.41273V4.40704V4.40135V4.39566V4.38997V4.38428V4.37859V4.3729V4.36721V4.36152V4.35583V4.35014V4.34444V4.33875V4.33306V4.32737V4.32168V4.31599V4.3103V4.3046V4.29891V4.29322V4.28753V4.28183V4.27614V4.27045V4.26476V4.25906V4.25337V4.24768V4.24198V4.23629V4.2306V4.2249V4.21921V4.21352V4.20782V4.20213V4.19643V4.19074V4.18504V4.17935V4.17365V4.16796V4.16226V4.15657V4.15087V4.14518V4.13948V4.13379V4.12809V4.12239V4.1167V4.111V4.10531V4.09961V4.09391V4.08821V4.08252V4.07682V4.07112V4.06543V4.05973V4.05403V4.04833V4.04263V4.03694V4.03124V4.02554V4.01984V4.01414V4.00844V4.00274V3.99705V3.99135V3.98565V3.97995V3.97425V3.96855V3.96285V3.95715V3.95145V3.94575V3.94005V3.93435V3.92864V3.92294V3.91724V3.91154V3.90584V3.90014V3.89444V3.88873V3.88303V3.87733V3.87163V3.86592V3.86022V3.85452V3.84882V3.84311V3.83741V3.83171V3.826V3.8203V3.81459V3.80889V3.80319V3.79748V3.79178V3.78607V3.78037V3.77466V3.76896V3.76325V3.75755V3.75184V3.74613V3.74043V3.73472V3.72902V3.72331V3.7176V3.7119V3.70619V3.70048V3.69478V3.68907V3.68336V3.67765V3.67194V3.66624V3.66053V3.65482V3.64911V3.6434V3.63769V3.63198V3.62628V3.62057V3.61486V3.60915V3.60344V3.59773V3.59202V3.58631V3.5806V3.57489V3.56917V3.56346V3.55775V3.55204V3.54633V3.54062V3.53491V3.52919V3.52348V3.51777V3.51206V3.50634V3.50063V3.49492V3.4892V3.48349V3.15498M91.1667 0.794263L91.5563 2.77569M93.5884 6.21685C93.5882 6.21652 93.588 6.21619 93.5878 6.21586L93.8075 6.09649M93.5884 6.21685C93.5885 6.21718 93.5887 6.21751 93.5889 6.21784L93.8075 6.09649M93.5884 6.21685C93.5382 6.12647 93.4881 6.03617 93.4381 5.94595C92.9183 5.0083 92.4032 4.07905 91.8063 3.15498M93.8075 6.09649C93.7568 6.00528 93.7063 5.91407 93.6557 5.82287C93.0776 4.77996 92.4997 3.73744 91.8063 2.69964V3.15498M91.8063 3.15498C91.7246 3.02846 91.6413 2.90203 91.5563 2.77569M97.1542 6.75164L96.9257 6.65033C96.9476 6.60093 96.973 6.5544 96.9953 6.5149C97.0141 6.54331 97.0342 6.57173 97.0544 6.60023C97.0898 6.65026 97.1255 6.70056 97.1542 6.75164ZM97.1542 6.75164L97.3721 6.62902C97.3495 6.58886 97.3191 6.5429 97.2896 6.50016C97.2723 6.53397 97.2529 6.56801 97.2333 6.60217C97.2049 6.65181 97.1763 6.70173 97.1542 6.75164ZM91.3387 6.75164C91.3165 6.72463 91.2885 6.69695 91.2599 6.6688C91.2256 6.63493 91.1905 6.60039 91.1643 6.56552C91.1526 6.5811 91.1408 6.59753 91.1297 6.61442L91.3387 6.75164ZM91.3387 6.75164L91.5319 6.59303C91.5197 6.57808 91.5067 6.56362 91.494 6.55009C91.4715 6.58258 91.4451 6.61484 91.419 6.6467C91.3899 6.68223 91.3613 6.71728 91.3387 6.75164ZM91.5563 2.77569V2.33316V2.77569ZM96.7565 2.32554C96.6855 2.45224 96.6138 2.57731 96.5418 2.70261L96.7976 2.75925C96.7854 2.61526 96.7718 2.47071 96.7565 2.32554Z" fill="#0E054D" stroke="#2B2B2B" stroke-width="0.5" stroke-linejoin="round"/>
<path d="M36.7628 0.918989C36.6306 0.926671 36.5273 1.03613 36.5273 1.16857V6.69934C36.5273 6.83741 36.6393 6.94934 36.7773 6.94934C37.0963 6.94934 37.4197 6.95937 37.7441 6.96943C38.3994 6.98975 39.059 7.0102 39.6953 6.94844C40.4219 6.89392 41.0981 6.55388 41.5805 6.00182C42.0591 5.45396 42.3096 4.74014 42.2807 4.01024C42.3175 3.64794 42.2846 3.28175 42.1838 2.93198C42.0812 2.57602 41.9103 2.24394 41.6807 1.95487C41.4511 1.6658 41.1672 1.42543 40.8454 1.24774C40.5235 1.07005 40.17 0.958606 39.8053 0.919959L39.8053 0.919679L39.7935 0.918989C38.7841 0.860337 37.7722 0.860337 36.7628 0.918989ZM39.4136 6.08399L39.4136 6.08396L39.4098 6.08422C38.9638 6.11374 38.5232 6.10434 38.0549 6.09435C37.8866 6.09076 37.7147 6.08709 37.5376 6.08513V1.82613C38.2177 1.79851 38.8988 1.80713 39.5781 1.85198C39.831 1.87761 40.0767 1.95353 40.301 2.07556C40.5265 2.19823 40.7262 2.36512 40.8883 2.5668C41.0505 2.76849 41.1719 3.00095 41.2454 3.25087C41.3189 3.50079 41.343 3.76309 41.3162 4.0226C41.3153 4.03121 41.3149 4.03987 41.3149 4.04853C41.3156 4.57235 41.1177 5.07566 40.7633 5.45437C40.409 5.83295 39.9256 6.05797 39.4136 6.08399Z" fill="#0E054D" stroke="#2B2B2B" stroke-width="0.5" stroke-linejoin="round"/>
<path d="M56.7089 3.87118C56.7073 3.88449 56.7067 3.89791 56.7072 3.91132C56.7239 4.35163 56.826 4.78438 57.0079 5.18475C57.1898 5.58513 57.4479 5.94534 57.7676 6.24462C58.0873 6.5439 58.4622 6.77634 58.871 6.9284C59.2761 7.07905 59.7063 7.14783 60.1374 7.13081C61.0123 7.17473 61.8688 6.86771 62.5219 6.27677C63.1779 5.68322 63.5757 4.85144 63.63 3.9628C63.6308 3.94864 63.6305 3.93443 63.629 3.92032C63.5348 3.06149 63.1335 2.2668 62.5 1.68723C61.8665 1.10758 61.0447 0.783509 60.1905 0.777431C59.3363 0.771352 58.5102 1.0837 57.8686 1.65431C57.2272 2.22483 56.8149 3.01376 56.7089 3.87118ZM61.887 2.33301C62.3324 2.75101 62.6004 3.3291 62.6337 3.9447C62.557 4.55337 62.2661 5.11295 61.8152 5.52011C61.358 5.93294 60.768 6.16047 60.1575 6.16047C59.5469 6.16047 58.957 5.93294 58.4998 5.52011C58.0478 5.11198 57.7565 4.5507 57.6807 3.94034C57.7012 3.6312 57.7804 3.32904 57.9138 3.05052C58.0503 2.76553 58.2409 2.51103 58.4744 2.30155C58.7078 2.09207 58.9796 1.93173 59.274 1.82957C59.5683 1.72742 59.8795 1.68541 60.1898 1.7059C60.1985 1.70647 60.2073 1.70659 60.2161 1.70625C60.8321 1.6821 61.4332 1.9071 61.887 2.33301Z" fill="#0E054D" stroke="#2B2B2B" stroke-width="0.5" stroke-linejoin="round"/>
<path d="M83.7573 7.00008C83.8029 7.05277 83.8685 7.08399 83.9382 7.08621C84.0079 7.08843 84.0754 7.06144 84.1243 7.01177L84.3194 6.8137C84.3946 6.73736 84.4128 6.62159 84.3646 6.52588L81.7323 1.29528C81.6187 1.05373 81.4328 0.819683 81.1568 0.801799C80.8686 0.783118 80.6632 1.00805 80.5358 1.25002L80.5358 1.25L80.5343 1.25301C79.8511 2.59429 79.1848 3.92723 78.5168 5.26353C78.2964 5.70426 78.0759 6.14536 77.8546 6.58724C77.8231 6.65007 77.8196 6.72324 77.8447 6.78883C77.8699 6.85443 77.9216 6.9064 77.987 6.93201C78.1685 7.00306 78.3384 7.03164 78.495 7.00264C78.6585 6.97234 78.7779 6.88478 78.8625 6.78028C78.9422 6.68168 78.9917 6.56734 79.0267 6.47399C79.043 6.4303 79.0579 6.38634 79.0709 6.34766C79.0721 6.34414 79.0733 6.34067 79.0744 6.33725C79.089 6.29428 79.1012 6.25866 79.1136 6.2271C79.1172 6.21805 79.1202 6.2088 79.1227 6.1994C79.1636 6.04476 79.2601 5.91242 79.3918 5.82797C79.5234 5.7436 79.6809 5.71287 79.8332 5.74129C79.8422 5.74298 79.8514 5.74416 79.8605 5.74484C80.6397 5.80282 81.4221 5.80282 82.2013 5.74484C82.2145 5.74387 82.2276 5.74184 82.2404 5.7388C82.4452 5.69029 82.6607 5.7235 82.8425 5.83208C83.0244 5.94074 83.1592 6.11695 83.2178 6.32503C83.2194 6.33085 83.2212 6.3366 83.2233 6.34228C83.2836 6.50931 83.3963 6.63817 83.4932 6.73656C83.5387 6.78274 83.5778 6.81993 83.6134 6.85375C83.666 6.9038 83.7108 6.9465 83.7573 7.00008ZM79.846 4.77321L81.1237 2.18474L82.39 4.77321H79.846Z" fill="#0E054D" stroke="#2B2B2B" stroke-width="0.5" stroke-linejoin="round"/>
<path d="M5.36104 2.77519C5.46432 2.84595 5.60401 2.82942 5.68791 2.7365L5.853 2.55366C5.91599 2.4839 5.93453 2.38469 5.90098 2.29689C5.8048 2.04519 5.68005 1.80564 5.52921 1.58309C5.52457 1.57624 5.5196 1.56964 5.51431 1.56329C5.07565 1.03698 4.24302 0.786928 3.45948 0.760248C2.67857 0.733658 1.83175 0.924905 1.34626 1.41175C1.18704 1.55266 1.06201 1.72852 0.980561 1.92566C0.897905 2.12571 0.862301 2.34239 0.87644 2.55859C0.890579 2.77481 0.954094 2.9849 1.06217 3.17227C1.17025 3.35966 1.32002 3.51929 1.49988 3.6383C1.50603 3.64236 1.51235 3.64616 1.51883 3.64966C1.99573 3.9078 2.49582 4.11922 3.01231 4.28105C3.26661 4.39472 3.52785 4.48284 3.77606 4.56656C3.80058 4.57483 3.82497 4.58306 3.84921 4.59126C4.12804 4.68562 4.39081 4.77799 4.64008 4.90274C4.6512 4.9083 4.66272 4.91303 4.67454 4.91688C4.76265 4.94558 4.84163 4.99882 4.90235 5.07114C4.9631 5.14349 5.00307 5.232 5.01731 5.32683C5.03156 5.42167 5.01944 5.51859 4.98248 5.60658C4.94553 5.69455 4.88537 5.76977 4.80925 5.82416C4.79884 5.83159 4.78902 5.83981 4.77987 5.84875C4.46043 6.16081 3.86095 6.29109 3.22831 6.20821C2.59692 6.12551 2.03616 5.84368 1.78804 5.45807L1.7881 5.45803L1.7848 5.45317C1.7098 5.34241 1.60118 5.27326 1.5241 5.22855C1.48443 5.20554 1.45314 5.18865 1.42592 5.17396C1.38653 5.1527 1.35566 5.13604 1.32022 5.11206C1.21727 5.04238 1.07876 5.05893 0.995123 5.15091L0.815029 5.34898C0.740801 5.43062 0.728869 5.55126 0.78567 5.64586C0.974833 5.9609 1.20181 6.25099 1.46145 6.50947C1.47484 6.5228 1.48969 6.53456 1.50572 6.54454C2.06469 6.89247 2.70353 7.08688 3.35941 7.10836C4.0153 7.12984 4.66522 6.97763 5.24521 6.66695L5.24524 6.667L5.24995 6.66434C5.46342 6.54399 5.64169 6.36928 5.76739 6.15795C5.89308 5.94665 5.96197 5.70593 5.96748 5.45968C5.97299 5.21344 5.91495 4.96983 5.79888 4.75302C5.6828 4.53619 5.5126 4.35351 5.30481 4.22347L5.30501 4.22315L5.29297 4.21651C4.8 3.94449 4.28343 3.71898 3.74976 3.54283L3.74976 3.54282L3.74748 3.5421C3.20453 3.36863 2.67343 3.15895 2.15765 2.91442L2.15732 2.91426C2.07833 2.87696 2.00989 2.81906 1.95911 2.74595C1.90832 2.6728 1.87709 2.5871 1.86887 2.49735C1.86064 2.40759 1.87576 2.31732 1.91252 2.23563C1.94883 2.15495 2.00487 2.08566 2.07479 2.03419C2.51413 1.73455 3.04505 1.60702 3.56931 1.67464C4.09483 1.74243 4.57898 2.00186 4.93126 2.40572L4.93112 2.40584L4.93776 2.41288C5.06568 2.54855 5.20757 2.67002 5.36104 2.77519Z" fill="#0E054D" stroke="#2B2B2B" stroke-width="0.5" stroke-linejoin="round"/>
<path d="M134.698 6.57069C134.667 6.63239 134.663 6.70412 134.687 6.76889C134.711 6.83367 134.761 6.88572 134.824 6.91273C134.987 6.98207 135.143 7.01516 135.289 6.99695C135.443 6.97784 135.562 6.90533 135.65 6.80997C135.732 6.72024 135.784 6.61358 135.821 6.52291C135.847 6.45662 135.871 6.38341 135.891 6.32272C135.898 6.3026 135.904 6.28386 135.909 6.2672C135.911 6.26133 135.913 6.25539 135.915 6.24939C135.96 6.07286 136.069 5.92125 136.219 5.82434C136.368 5.72751 136.548 5.69214 136.722 5.72473C136.73 5.72628 136.738 5.72741 136.747 5.72812C137.525 5.79407 138.307 5.79407 139.085 5.72812C139.096 5.72718 139.107 5.7255 139.118 5.72308C139.313 5.67987 139.517 5.71533 139.687 5.82256C139.857 5.92987 139.981 6.10099 140.03 6.30038C140.031 6.30813 140.034 6.31578 140.036 6.32331C140.099 6.50161 140.225 6.6353 140.331 6.73443C140.378 6.77896 140.42 6.81555 140.458 6.84893C140.518 6.90219 140.569 6.94725 140.62 7.00322C140.71 7.1017 140.861 7.11275 140.964 7.02836L141.159 6.86838C141.249 6.7942 141.276 6.66719 141.224 6.56268C140.982 6.08294 140.741 5.60235 140.5 5.12148C139.858 3.84153 139.215 2.55955 138.561 1.28609C138.445 1.03713 138.251 0.804532 137.963 0.808643C137.683 0.812648 137.486 1.04183 137.363 1.28183C136.589 2.79497 135.831 4.30814 135.072 5.82501C134.947 6.07346 134.823 6.32202 134.698 6.57069ZM139.254 4.76431H136.696L137.97 2.16722L139.254 4.76431Z" fill="#0E054D" stroke="#2B2B2B" stroke-width="0.5" stroke-linejoin="round"/>
<path d="M105.68 6.1439V4.4448C105.786 4.44671 105.892 4.44948 105.999 4.45227C106.391 4.46246 106.787 4.47276 107.148 4.44135C107.256 4.43188 107.372 4.43781 107.501 4.44928C107.534 4.45225 107.569 4.45571 107.606 4.45929C107.702 4.46874 107.807 4.479 107.906 4.48303C108.189 4.4946 108.515 4.46116 108.796 4.20064C108.848 4.15332 108.877 4.08678 108.877 4.01707V3.79615C108.877 3.65808 108.765 3.54615 108.627 3.54615H105.771L105.777 1.71503H109.28C109.381 1.71503 109.472 1.65401 109.511 1.56047C109.549 1.46693 109.528 1.35933 109.456 1.2879C109.365 1.19765 109.235 1.13771 109.111 1.09422C108.979 1.04818 108.822 1.00972 108.649 0.977518C108.303 0.913005 107.875 0.869543 107.428 0.84683C106.537 0.801648 105.533 0.836766 104.913 0.96914C104.797 0.993758 104.715 1.09567 104.715 1.21364V6.66053C104.715 6.7986 104.827 6.91053 104.965 6.91053H109.182C109.32 6.91053 109.432 6.7986 109.432 6.66053V6.3939C109.432 6.25583 109.32 6.1439 109.182 6.1439H105.68Z" fill="#0E054D" stroke="#2B2B2B" stroke-width="0.5" stroke-linejoin="round"/>
<path d="M27.7949 6.94303L27.7949 6.9431L27.8008 6.94173C28.2881 6.8294 28.7191 6.54451 29.0169 6.13931C29.313 5.73642 29.4583 5.24062 29.4279 4.74007V4.73852V4.7354V4.73227V4.72915V4.72604V4.72292V4.7198V4.71668V4.71357V4.71045V4.70734V4.70423V4.70111V4.698V4.69489V4.69178V4.68867V4.68557V4.68246V4.67935V4.67625V4.67314V4.67004V4.66694V4.66383V4.66073V4.65763V4.65453V4.65143V4.64834V4.64524V4.64214V4.63905V4.63595V4.63286V4.62977V4.62667V4.62358V4.62049V4.6174V4.61431V4.61122V4.60814V4.60505V4.60196V4.59888V4.59579V4.59271V4.58963V4.58655V4.58347V4.58038V4.57731V4.57423V4.57115V4.56807V4.56499V4.56192V4.55884V4.55577V4.5527V4.54962V4.54655V4.54348V4.54041V4.53734V4.53427V4.5312V4.52814V4.52507V4.522V4.51894V4.51587V4.51281V4.50975V4.50669V4.50362V4.50056V4.4975V4.49444V4.49139V4.48833V4.48527V4.48221V4.47916V4.4761V4.47305V4.47V4.46694V4.46389V4.46084V4.45779V4.45474V4.45169V4.44864V4.44559V4.44255V4.4395V4.43646V4.43341V4.43037V4.42732V4.42428V4.42124V4.4182V4.41516V4.41212V4.40908V4.40604V4.403V4.39996V4.39693V4.39389V4.39086V4.38782V4.38479V4.38175V4.37872V4.37569V4.37266V4.36963V4.3666V4.36357V4.36054V4.35751V4.35448V4.35146V4.34843V4.34541V4.34238V4.33936V4.33633V4.33331V4.33029V4.32727V4.32425V4.32123V4.31821V4.31519V4.31217V4.30915V4.30614V4.30312V4.3001V4.29709V4.29407V4.29106V4.28805V4.28503V4.28202V4.27901V4.276V4.27299V4.26998V4.26697V4.26396V4.26095V4.25795V4.25494V4.25193V4.24893V4.24592V4.24292V4.23992V4.23691V4.23391V4.23091V4.22791V4.22491V4.22191V4.21891V4.21591V4.21291V4.20991V4.20691V4.20392V4.20092V4.19793V4.19493V4.19194V4.18894V4.18595V4.18296V4.17996V4.17697V4.17398V4.17099V4.168V4.16501V4.16202V4.15903V4.15605V4.15306V4.15007V4.14709V4.1441V4.14112V4.13813V4.13515V4.13216V4.12918V4.1262V4.12322V4.12024V4.11725V4.11427V4.11129V4.10831V4.10534V4.10236V4.09938V4.0964V4.09343V4.09045V4.08747V4.0845V4.08152V4.07855V4.07558V4.0726V4.06963V4.06666V4.06369V4.06071V4.05774V4.05477V4.0518V4.04883V4.04587V4.0429V4.03993V4.03696V4.03399V4.03103V4.02806V4.0251V4.02213V4.01917V4.0162V4.01324V4.01028V4.00731V4.00435V4.00139V3.99843V3.99547V3.99251V3.98955V3.98659V3.98363V3.98067V3.97771V3.97475V3.97179V3.96884V3.96588V3.96292V3.95997V3.95701V3.95406V3.9511V3.94815V3.9452V3.94224V3.93929V3.93634V3.93339V3.93044V3.92748V3.92453V3.92158V3.91863V3.91568V3.91273V3.90979V3.90684V3.90389V3.90094V3.898V3.89505V3.8921V3.88916V3.88621V3.88327V3.88032V3.87738V3.87443V3.87149V3.86855V3.8656V3.86266V3.85972V3.85678V3.85384V3.8509V3.84795V3.84501V3.84207V3.83913V3.8362V3.83326V3.83032V3.82738V3.82444V3.82151V3.81857V3.81563V3.8127V3.80976V3.80682V3.80389V3.80095V3.79802V3.79508V3.79215V3.78922V3.78628V3.78335V3.78042V3.77749V3.77455V3.77162V3.76869V3.76576V3.76283V3.7599V3.75697V3.75404V3.75111V3.74818V3.74525V3.74232V3.73939V3.73647V3.73354V3.73061V3.72768V3.72476V3.72183V3.7189V3.71598V3.71305V3.71013V3.7072V3.70428V3.70135V3.69843V3.69551V3.69258V3.68966V3.68674V3.68381V3.68089V3.67797V3.67505V3.67212V3.6692V3.66628V3.66336V3.66044V3.65752V3.6546V3.65168V3.64876V3.64584V3.64292V3.64V3.63708V3.63417V3.63125V3.62833V3.62541V3.62249V3.61958V3.61666V3.61374V3.61083V3.60791V3.60499V3.60208V3.59916V3.59625V3.59333V3.59042V3.5875V3.58459V3.58167V3.57876V3.57584V3.57293V3.57002V3.5671V3.56419V3.56128V3.55836V3.55545V3.55254V3.54963V3.54672V3.5438V3.54089V3.53798V3.53507V3.53216V3.52925V3.52634V3.52343V3.52052V3.51761V3.5147V3.51179V3.50888V3.50597V3.50306V3.50015V3.49724V3.49433V3.49142V3.48851V3.4856V3.4827V3.47979V3.47688V3.47397V3.47106V3.46816V3.46525V3.46234V3.45944V3.45653V3.45362V3.45071V3.44781V3.4449V3.442V3.43909V3.43618V3.43328V3.43037V3.42747V3.42456V3.42166V3.41875V3.41584V3.41294V3.41003V3.40713V3.40423V3.40132V3.39842V3.39551V3.39261V3.3897V3.3868V3.38389V3.38099V3.37809V3.37518V3.37228V3.36938V3.36647V3.36357V3.36067V3.35776V3.35486V3.35196V3.34905V3.34615V3.34325V3.34034V3.33744V3.33454V3.33164V3.32873V3.32583V3.32293V3.32003V3.31712V3.31422V3.31132V3.30842V3.30552V3.30261V3.29971V3.29681V3.29391V3.29101V3.2881V3.2852V3.2823V3.2794V3.2765V3.27359V3.27069V3.26779V3.26489V3.26199V3.25909V3.25619V3.25328V3.25038V3.24748V3.24458V3.24168V3.23878V3.23588V3.23297V3.23007V3.22717V3.22427C29.4279 3.1477 29.4282 3.07058 29.4286 2.99304C29.4305 2.52973 29.4325 2.05178 29.3668 1.59116C29.3562 1.44802 29.2878 1.32794 29.2373 1.24803C29.2166 1.21534 29.1936 1.18154 29.1737 1.15228C29.1675 1.14325 29.1617 1.13466 29.1563 1.12666C29.1312 1.08949 29.1121 1.05982 29.0976 1.03306C29.0522 0.949266 28.9631 0.89857 28.8679 0.902346C28.7726 0.906122 28.6878 0.963713 28.6492 1.05084C28.6319 1.08986 28.6153 1.1182 28.5935 1.15529C28.5775 1.1827 28.5586 1.21489 28.5346 1.2597C28.4899 1.34307 28.4327 1.46486 28.4327 1.60923V1.61504V1.62084V1.62664V1.63245V1.63825V1.64405V1.64985V1.65566V1.66146V1.66726V1.67307V1.67887V1.68467V1.69047V1.69628V1.70208V1.70788V1.71369V1.71949V1.72529V1.73109V1.7369V1.7427V1.7485V1.75431V1.76011V1.76591V1.77172V1.77752V1.78332V1.78912V1.79493V1.80073V1.80653V1.81234V1.81814V1.82394V1.82975V1.83555V1.84135V1.84715V1.85296V1.85876V1.86456V1.87037V1.87617V1.88197V1.88778V1.89358V1.89938V1.90519V1.91099V1.91679V1.9226V1.9284V1.9342V1.94001V1.94581V1.95161V1.95742V1.96322V1.96902V1.97483V1.98063V1.98643V1.99224V1.99804V2.00385V2.00965V2.01545V2.02126V2.02706V2.03286V2.03867V2.04447V2.05028V2.05608V2.06188V2.06769V2.07349V2.07929V2.0851V2.0909V2.09671V2.10251V2.10831V2.11412V2.11992V2.12573V2.13153V2.13734V2.14314V2.14894V2.15475V2.16055V2.16636V2.17216V2.17797V2.18377V2.18958V2.19538V2.20118V2.20699V2.21279V2.2186V2.2244V2.23021V2.23601V2.24182V2.24762V2.25343V2.25923V2.26504V2.27084V2.27665V2.28245V2.28826V2.29406V2.29987V2.30567V2.31148V2.31728V2.32309V2.3289V2.3347V2.34051V2.34631V2.35212V2.35792V2.36373V2.36953V2.37534V2.38115V2.38695V2.39276V2.39856V2.40437V2.41018V2.41598V2.42179V2.42759V2.4334V2.43921V2.44501V2.45082V2.45663V2.46243V2.46824V2.47405V2.47985V2.48566V2.49147V2.49727V2.50308V2.50889V2.51469V2.5205V2.52631V2.53211V2.53792V2.54373V2.54954V2.55534V2.56115V2.56696V2.57277V2.57857V2.58438V2.59019V2.596V2.6018V2.60761V2.61342V2.61923V2.62504V2.63084V2.63665V2.64246V2.64827V2.65408V2.65989V2.66569V2.6715V2.67731V2.68312V2.68893V2.69474V2.70055V2.70635V2.71216V2.71797V2.72378V2.72959V2.7354V2.74121V2.74702V2.75283V2.75864V2.76445V2.77026V2.77607V2.78188V2.78769V2.7935V2.79931V2.80512V2.81093V2.81674V2.82255V2.82836V2.83417V2.83998V2.84579V2.8516V2.85741V2.86322V2.86903V2.87484V2.88065V2.88646V2.89227V2.89809V2.9039V2.90971V2.91552V2.92133V2.92714V2.93295V2.93877V2.94458V2.95039V2.9562V2.96201V2.96783V2.97364V2.97945V2.98526V2.99108V2.99689V3.0027V3.00851V3.01433V3.02014V3.02595V3.03177V3.03758V3.04339V3.0492V3.05502V3.06083V3.06665V3.07246V3.07827V3.08409V3.0899V3.09571V3.10153V3.10734V3.11316V3.11897V3.12479V3.1306V3.13641V3.14223V3.14804V3.15386V3.15967V3.16549V3.1713V3.17712V3.18293V3.18875V3.19456V3.20038V3.2062V3.21201V3.21783V3.22364V3.22946V3.23528V3.24109V3.24691V3.25272V3.25854V3.26436V3.27017V3.27599V3.28181V3.28763V3.29344V3.29926V3.30508V3.31089V3.31671V3.32253V3.32835V3.33417V3.33998V3.3458V3.35162V3.35744V3.36326V3.36907V3.37489V3.38071V3.38653V3.39235V3.39817V3.40399V3.40981V3.41563V3.42144V3.42726V3.43308V3.4389V3.44472V3.45054V3.45636V3.46218V3.468V3.47382V3.47964V3.48546V3.49129V3.49711V3.50293V3.50875V3.51457V3.52039V3.52621V3.53203V3.53785V3.54368V3.5495V3.55532V3.56114V3.56696V3.57279V3.57861V3.58443V3.59025V3.59608V3.6019V3.60772V3.61355V3.61937V3.62519V3.63102V3.63684V3.64266V3.64849V3.65431V3.66013V3.66596V3.67178V3.67761V3.68343V3.68926V3.69508V3.70091V3.70673V3.71256V3.71838V3.72421V3.73003V3.73586V3.74168V3.74751V3.75333V3.75916V3.76499V3.77081V3.77664V3.78247V3.78829V3.79412V3.79995V3.80577V3.8116V3.81743V3.82326V3.82908V3.83491V3.84074V3.84657V3.8524V3.85822V3.86405V3.86988V3.87571V3.88154V3.88737V3.8932V3.89903V3.90485V3.91068V3.91651V3.92234V3.92817V3.934V3.93983V3.94566V3.95149V3.95732V3.96316V3.96899V3.97482V3.98065V3.98648V3.99231V3.99814V4.00397V4.00981V4.01564V4.02147V4.0273V4.03313V4.03897V4.0448V4.05063V4.05647V4.0623V4.06813V4.07397V4.0798V4.08563V4.09147V4.0973V4.10313V4.10897V4.1148V4.12064V4.12647V4.13231V4.13814V4.14398V4.14981V4.15565V4.16148V4.16732V4.17316V4.17899V4.18483V4.19066V4.1965V4.20234V4.20817V4.21401V4.21985V4.22569V4.23152V4.23736V4.2432V4.24904V4.25487V4.26071V4.26655V4.27239V4.27823V4.28407V4.2899V4.29574V4.30158V4.30742V4.31326V4.3191V4.32494V4.33078V4.33662V4.34246V4.3483V4.35414V4.35998V4.36583V4.37167V4.37751V4.38335V4.38919V4.39503V4.40088V4.40672V4.41256V4.4184V4.42424V4.43009V4.43593V4.44177V4.44762V4.45346V4.4593V4.46515V4.47099V4.47684V4.48268V4.48852V4.49437V4.50021V4.50606V4.5119V4.51775V4.5236V4.52944V4.53529V4.54113V4.54698V4.55283V4.55867V4.56452V4.57037V4.57621V4.58206V4.58554C28.422 5.13175 28.2347 5.53345 27.9268 5.8009C27.6146 6.07214 27.1488 6.23076 26.538 6.2272C25.927 6.22363 25.4801 6.0601 25.1881 5.79139C24.8992 5.52553 24.7304 5.1278 24.7304 4.58791V4.5821V4.5763V4.5705V4.56469V4.55889V4.55309V4.54728V4.54148V4.53567V4.52987V4.52407V4.51826V4.51246V4.50665V4.50085V4.49504V4.48923V4.48343V4.47762V4.47182V4.46601V4.4602V4.4544V4.44859V4.44278V4.43698V4.43117V4.42536V4.41955V4.41375V4.40794V4.40213V4.39632V4.39051V4.38471V4.3789V4.37309V4.36728V4.36147V4.35566V4.34985V4.34404V4.33823V4.33242V4.32661V4.3208V4.31499V4.30918V4.30337V4.29756V4.29175V4.28594V4.28013V4.27432V4.26851V4.26269V4.25688V4.25107V4.24526V4.23945V4.23364V4.22782V4.22201V4.2162V4.21039V4.20457V4.19876V4.19295V4.18713V4.18132V4.17551V4.16969V4.16388V4.15807V4.15225V4.14644V4.14062V4.13481V4.12899V4.12318V4.11737V4.11155V4.10574V4.09992V4.09411V4.08829V4.08247V4.07666V4.07084V4.06503V4.05921V4.0534V4.04758V4.04176V4.03595V4.03013V4.02431V4.0185V4.01268V4.00686V4.00105V3.99523V3.98941V3.9836V3.97778V3.97196V3.96614V3.96033V3.95451V3.94869V3.94287V3.93705V3.93124V3.92542V3.9196V3.91378V3.90796V3.90214V3.89633V3.89051V3.88469V3.87887V3.87305V3.86723V3.86141V3.85559V3.84977V3.84395V3.83813V3.83231V3.82649V3.82067V3.81485V3.80903V3.80321V3.79739V3.79157V3.78575V3.77993V3.77411V3.76829V3.76247V3.75665V3.75083V3.74501V3.73919V3.73337V3.72755V3.72172V3.7159V3.71008V3.70426V3.69844V3.69262V3.68679V3.68097V3.67515V3.66933V3.66351V3.65769V3.65186V3.64604V3.64022V3.6344V3.62857V3.62275V3.61693V3.61111V3.60528V3.59946V3.59364V3.58782V3.58199V3.57617V3.57035V3.56453V3.5587V3.55288V3.54706V3.54123V3.53541V3.52959V3.52376V3.51794V3.51212V3.50629V3.50047V3.49465V3.48882V3.483V3.47717V3.47135V3.46553V3.4597V3.45388V3.44806V3.44223V3.43641V3.43058V3.42476V3.41894V3.41311V3.40729V3.40146V3.39564V3.38981V3.38399V3.37817V3.37234V3.36652V3.36069V3.35487V3.34904V3.34322V3.33739V3.33157V3.32575V3.31992V3.3141V3.30827V3.30245V3.29662V3.2908V3.28497V3.27915V3.27332V3.2675V3.26167V3.25585V3.25002V3.2442V3.23837V3.23255V3.22672V3.2209V3.21507V3.20925V3.20342V3.1976V3.19177V3.18595V3.18012V3.1743V3.16847V3.16265V3.15682V3.151V3.14517V3.13935V3.13352V3.1277V3.12187V3.11605V3.11022V3.1044V3.09857V3.09275V3.08692V3.0811V3.07527V3.06945V3.06362V3.05779V3.05197V3.04614V3.04032V3.03449V3.02867V3.02284V3.01702V3.01119V3.00537V2.99954V2.99372V2.98789V2.98207V2.97624V2.97042V2.96459V2.95877V2.95294V2.94712V2.94129V2.93547V2.92964V2.92382V2.91799V2.91217V2.90634V2.90052V2.8947V2.88887V2.88305V2.87722V2.8714V2.86557V2.85975V2.85392V2.8481V2.84227V2.83645V2.83062V2.8248V2.81898V2.81315V2.80733V2.8015V2.79568V2.78985V2.78403V2.77821V2.77238V2.76656V2.76073V2.75491V2.74909V2.74326V2.73744V2.73161V2.72579V2.71997V2.71414V2.70832V2.7025V2.69667V2.69085V2.68503V2.6792V2.67338V2.66756V2.66173V2.65591V2.65009V2.64426V2.63844V2.63262V2.62679V2.62097V2.61515V2.60932V2.6035V2.59768V2.59186V2.58603V2.58021V2.57439V2.56857V2.56274V2.55692V2.5511V2.54528V2.53946V2.53363V2.52781V2.52199V2.51617V2.51035V2.50453V2.4987V2.49288V2.48706V2.48124V2.47542V2.4696V2.46378V2.45795V2.45213V2.44631V2.44049V2.43467V2.42885V2.42303V2.41721V2.41139V2.40557V2.39975V2.39393V2.38811V2.38229V2.37647V2.37065V2.36483V2.35901V2.35319V2.34737V2.34155V2.33573V2.32991V2.32409V2.31827V2.31245V2.30663V2.30082V2.295V2.28918V2.28336V2.27754V2.27172V2.26591V2.26009V2.25427V2.24845V2.24263V2.23682V2.231V2.22518V2.21936V2.21355V2.20773V2.20191V2.19609V2.19028V2.18446V2.17864V2.17283V2.16701V2.16119V2.15538V2.14956V2.14375V2.13793V2.13211V2.1263V2.12048V2.11467V2.10885V2.10304V2.09722V2.09141V2.08559V2.07978V2.07396V2.06815V2.06233V2.05652V2.0507V2.04489V2.03908V2.03326V2.02745V2.02164V2.01582V2.01001V2.0042V1.99838V1.99257V1.98676V1.98094V1.97513V1.96932V1.96351V1.95769V1.95188V1.94607V1.94026V1.93445V1.92864V1.92282V1.91701V1.9112V1.90539V1.89958V1.89377V1.88796V1.88215V1.87634V1.87053V1.86472V1.85891V1.8531V1.84729V1.84148V1.83567V1.82986V1.82405V1.81824V1.81244V1.80663V1.80082V1.79501V1.7892V1.7834V1.77759V1.77178V1.76597V1.76017V1.75436V1.74855V1.74274V1.73694V1.73113V1.72533V1.71952V1.71371V1.70791V1.7021V1.6963V1.69049V1.68469V1.67888V1.67308V1.66727V1.66147V1.65566V1.64986V1.64405V1.63825V1.63245V1.62664V1.62084V1.61504V1.60923H24.7307L24.7302 1.59752C24.7228 1.44144 24.6417 1.3127 24.5855 1.2316C24.563 1.1991 24.5379 1.16542 24.5161 1.1363C24.5093 1.12711 24.5028 1.11837 24.4968 1.11027C24.4693 1.0731 24.4486 1.04367 24.433 1.01733C24.3868 0.939089 24.3017 0.892106 24.2109 0.894627C24.12 0.897149 24.0377 0.948779 23.9958 1.02947C23.9775 1.0649 23.9584 1.09223 23.9323 1.12957C23.9146 1.15504 23.8936 1.18516 23.8673 1.22569C23.8191 1.3001 23.7427 1.42683 23.7427 1.57876C23.7427 1.92695 23.7377 2.27808 23.7328 2.63096C23.7228 3.34041 23.7127 4.05697 23.7425 4.77108C23.7239 5.27668 23.8833 5.77307 24.1932 6.17101C24.5051 6.57156 24.9489 6.84594 25.4443 6.94324C26.22 7.10207 27.0192 7.102 27.7949 6.94303Z" fill="#0E054D" stroke="#2B2B2B" stroke-width="0.5" stroke-linejoin="round"/>
<path d="M15.1386 1.72895H17.1022C17.2216 1.72895 17.3244 1.64446 17.3475 1.52727L17.385 1.33682C17.4061 1.22943 17.355 1.12077 17.2587 1.06866C17.2416 1.05938 17.2212 1.04643 17.193 1.02758C17.1879 1.02412 17.1823 1.02034 17.1763 1.01635C17.1535 1.00101 17.1259 0.982406 17.0992 0.965773C17.0383 0.927904 16.9274 0.863281 16.7945 0.863281H16.7862H16.7779H16.7696H16.7613H16.753H16.7447H16.7363H16.728H16.7197H16.7114H16.7031H16.6948H16.6865H16.6782H16.6698H16.6615H16.6532H16.6449H16.6366H16.6283H16.62H16.6117H16.6033H16.595H16.5867H16.5784H16.5701H16.5618H16.5535H16.5451H16.5368H16.5285H16.5202H16.5119H16.5036H16.4953H16.4869H16.4786H16.4703H16.462H16.4537H16.4454H16.437H16.4287H16.4204H16.4121H16.4038H16.3955H16.3871H16.3788H16.3705H16.3622H16.3539H16.3456H16.3372H16.3289H16.3206H16.3123H16.304H16.2956H16.2873H16.279H16.2707H16.2624H16.254H16.2457H16.2374H16.2291H16.2208H16.2124H16.2041H16.1958H16.1875H16.1792H16.1708H16.1625H16.1542H16.1459H16.1376H16.1292H16.1209H16.1126H16.1043H16.0959H16.0876H16.0793H16.071H16.0627H16.0543H16.046H16.0377H16.0294H16.021H16.0127H16.0044H15.9961H15.9878H15.9794H15.9711H15.9628H15.9545H15.9461H15.9378H15.9295H15.9212H15.9128H15.9045H15.8962H15.8879H15.8795H15.8712H15.8629H15.8546H15.8462H15.8379H15.8296H15.8213H15.8129H15.8046H15.7963H15.788H15.7796H15.7713H15.763H15.7547H15.7463H15.738H15.7297H15.7214H15.713H15.7047H15.6964H15.688H15.6797H15.6714H15.6631H15.6547H15.6464H15.6381H15.6298H15.6214H15.6131H15.6048H15.5965H15.5881H15.5798H15.5715H15.5631H15.5548H15.5465H15.5382H15.5298H15.5215H15.5132H15.5048H15.4965H15.4882H15.4799H15.4715H15.4632H15.4549H15.4465H15.4382H15.4299H15.4216H15.4132H15.4049H15.3966H15.3882H15.3799H15.3716H15.3632H15.3549H15.3466H15.3383H15.3299H15.3216H15.3133H15.3049H15.2966H15.2883H15.28H15.2716H15.2633H15.255H15.2466H15.2383H15.23H15.2216H15.2133H15.205H15.1966H15.1883H15.18H15.1717H15.1633H15.155H15.1467H15.1383H15.13H15.1217H15.1133H15.105H15.0967H15.0884H15.08H15.0717H15.0634H15.055H15.0467H15.0384H15.03H15.0217H15.0134H15.005H14.9967H14.9884H14.98H14.9717H14.9634H14.9551H14.9467H14.9384H14.9301H14.9217H14.9134H14.9051H14.8967H14.8884H14.8801H14.8717H14.8634H14.8551H14.8467H14.8384H14.8301H14.8217H14.8134H14.8051H14.7968H14.7884H14.7801H14.7718H14.7634H14.7551H14.7468H14.7384H14.7301H14.7218H14.7134H14.7051H14.6968H14.6884H14.6801H14.6718H14.6634H14.6551H14.6468H14.6384H14.6301H14.6218H14.6135H14.6051H14.5968H14.5885H14.5801H14.5718H14.5635H14.5551H14.5468H14.5385H14.5301H14.5218H14.5135H14.5051H14.4968H14.4885H14.4801H14.4718H14.4635H14.4551H14.4468H14.4385H14.4302H14.4218H14.4135H14.4052H14.3968H14.3885H14.3802H14.3718H14.3635H14.3552H14.3468H14.3385H14.3302H14.3218H14.3135H14.3052H14.2968H14.2885H14.2802H14.2719H14.2635H14.2552H14.2469H14.2385H14.2302H14.2219H14.2135H14.2052H14.1969H14.1885H14.1802H14.1719H14.1636H14.1552H14.1469H14.1386H14.1302H14.1219H14.1136H14.1052H14.0969H14.0886H14.0803H14.0719H14.0636H14.0553H14.0469H14.0386H14.0303H14.0219H14.0136H14.0053H13.997H13.9886H13.9803H13.972H13.9636H13.9553H13.947H13.9386H13.9303H13.922H13.9137H13.9053H13.897H13.8887H13.8803H13.872H13.8637H13.8554H13.847H13.8387H13.8304H13.822H13.8137H13.8054H13.7971H13.7887H13.7804H13.7721H13.7637H13.7554H13.7471H13.7388H13.7304H13.7221H13.7138H13.7054H13.6971H13.6888H13.6805H13.6721H13.6638H13.6555H13.6472H13.6388H13.6305H13.6222H13.6139H13.6055H13.5972H13.5889H13.5805H13.5722H13.5639H13.5556H13.5472H13.5389H13.5306H13.5223H13.5139H13.5056H13.4973H13.489H13.4806H13.4723H13.464H13.4557H13.4473H13.439H13.4307H13.4224H13.414H13.4057H13.3974H13.3891H13.3807H13.3724H13.3641H13.3558H13.3475H13.3391H13.3308H13.3225H13.3142H13.3058H13.2975H13.2892H13.2809H13.2725H13.2642H13.2559H13.2476H13.2393H13.2309H13.2226H13.2143H13.206H13.1976H13.1893H13.181H13.1727H13.1644H13.156H13.1477H13.1394H13.1311H13.1228H13.1144H13.1061H13.0978H13.0895H13.0812H13.0728H13.0645H13.0562H13.0479H13.0396H13.0312H13.0229H13.0146H13.0063H12.998H12.9896H12.9813H12.973H12.9647H12.9564H12.9481H12.9397H12.9314H12.9231H12.9148H12.9065H12.8982H12.8898H12.8815H12.8732H12.8649H12.8566H12.8483H12.8399H12.8316H12.8233H12.815H12.8067H12.7984H12.7901H12.7817H12.7734H12.7651H12.7568H12.7485H12.7402H12.7319H12.7235H12.7152H12.7069H12.6986H12.6903H12.682H12.6737H12.6653H12.657H12.6487H12.6404H12.6321H12.6238H12.6155H12.6072H12.5989H12.5905H12.5822H12.5739H12.5656H12.5573H12.549H12.5407H12.5324C12.5271 0.863281 12.5218 0.863449 12.5165 0.863783C12.3701 0.873072 12.257 0.960785 12.1996 1.00685C12.1665 1.03337 12.1426 1.05389 12.1228 1.0708C12.0931 1.09622 12.0729 1.11349 12.0457 1.13073C11.9409 1.19726 11.9008 1.33066 11.9515 1.44398L12.0266 1.61158C12.0668 1.70153 12.1562 1.75942 12.2547 1.75942H14.1727C14.185 1.83259 14.1953 1.90612 14.2033 1.97993V1.98338V1.99182V2.00026V2.00869V2.01713V2.02557V2.034V2.04244V2.05088V2.05931V2.06775V2.07618V2.08462V2.09306V2.10149V2.10993V2.11837V2.1268V2.13524V2.14368V2.15211V2.16055V2.16899V2.17742V2.18586V2.1943V2.20273V2.21117V2.2196V2.22804V2.23648V2.24491V2.25335V2.26179V2.27022V2.27866V2.2871V2.29553V2.30397V2.31241V2.32084V2.32928V2.33772V2.34615V2.35459V2.36302V2.37146V2.3799V2.38833V2.39677V2.40521V2.41364V2.42208V2.43052V2.43895V2.44739V2.45583V2.46426V2.4727V2.48114V2.48957V2.49801V2.50644V2.51488V2.52332V2.53175V2.54019V2.54863V2.55706V2.5655V2.57394V2.58237V2.59081V2.59925V2.60768V2.61612V2.62456V2.63299V2.64143V2.64987V2.6583V2.66674V2.67517V2.68361V2.69205V2.70048V2.70892V2.71736V2.72579V2.73423V2.74267V2.7511V2.75954V2.76798V2.77641V2.78485V2.79329V2.80172V2.81016V2.81859V2.82703V2.83547V2.8439V2.85234V2.86078V2.86921V2.87765V2.88609V2.89452V2.90296V2.9114V2.91983V2.92827V2.93671V2.94514V2.95358V2.96201V2.97045V2.97889V2.98732V2.99576V3.0042V3.01263V3.02107V3.02951V3.03794V3.04638V3.05482V3.06325V3.07169V3.08013V3.08856V3.097V3.10543V3.11387V3.12231V3.13074V3.13918V3.14762V3.15605V3.16449V3.17293V3.18136V3.1898V3.19824V3.20667V3.21511V3.22355V3.23198V3.24042V3.24885V3.25729V3.26573V3.27416V3.2826V3.29104V3.29947V3.30791V3.31635V3.32478V3.33322V3.34166V3.35009V3.35853V3.36697V3.3754V3.38384V3.39227V3.40071V3.40915V3.41758V3.42602V3.43446V3.44289V3.45133V3.45977V3.4682V3.47664V3.48508V3.49351V3.50195V3.51039V3.51882V3.52726V3.53569V3.54413V3.55257V3.561V3.56944V3.57788V3.58631V3.59475V3.60319V3.61162V3.62006V3.6285V3.63693V3.64537V3.65381V3.66224V3.67068V3.67911V3.68755V3.69599V3.70442V3.71286V3.7213V3.72973V3.73817V3.74661V3.75504V3.76348V3.77192V3.78035V3.78879V3.79723V3.80566V3.8141V3.82253V3.83097V3.83941V3.84784V3.85628V3.86472V3.87315V3.88159V3.89003V3.89846V3.9069V3.91534V3.92377V3.93221V3.94065V3.94908V3.95752V3.96595V3.97439V3.98283V3.99126V3.9997V4.00814V4.01657V4.02501V4.03345V4.04188V4.05032V4.05876V4.06719V4.07563V4.08407V4.0925V4.10094V4.10937V4.11781V4.12625V4.13468V4.14312V4.15156V4.15999V4.16843V4.17687V4.1853V4.19374V4.20218V4.21061V4.21905V4.22749V4.23592V4.24436V4.25279V4.26123V4.26967V4.2781V4.28654V4.29498V4.30341V4.31185V4.32029V4.32872V4.33716V4.3456V4.35403V4.36247V4.37091V4.37934V4.38778V4.39621V4.40465V4.41309V4.42152V4.42996V4.4384V4.44683V4.45527V4.46371V4.47214V4.48058V4.48902V4.49745V4.50589V4.51433V4.52276V4.5312V4.53963V4.54807V4.55651V4.56494V4.57338V4.58182V4.59025V4.59869V4.60713V4.61556V4.624V4.63244V4.64087V4.64931V4.65775V4.66618V4.67462V4.68305V4.69149V4.69993V4.70836V4.7168V4.72524V4.73367V4.74211V4.75055V4.75898V4.76742V4.77586V4.78429V4.79273V4.80117V4.8096V4.81804V4.82648V4.83491V4.84335V4.85178V4.86022V4.86866V4.87709V4.88553V4.89397V4.9024V4.91084V4.91928V4.92771V4.93615V4.94459V4.95302V4.96146V4.9699V4.97833V4.98677V4.9952V5.00364V5.01208V5.02051V5.02895V5.03739V5.04582V5.05426V5.0627V5.07113V5.07957V5.08801V5.09644V5.10488V5.11332V5.12175V5.13019V5.13862V5.14706V5.1555V5.16393V5.17237V5.18081V5.18924V5.19768V5.20612V5.21455V5.22299V5.23143V5.23986V5.2483V5.25674V5.26517V5.27361V5.28204V5.29048V5.29892V5.30735V5.31579V5.32423V5.33266V5.3411V5.34954V5.35797V5.36641V5.37485V5.38328V5.39172V5.40016V5.40859V5.41703V5.42546V5.4339V5.44234V5.45077V5.45921V5.46765V5.47608V5.48452V5.49296V5.50139V5.50983V5.51827V5.5267V5.53514V5.54358V5.55201V5.56045V5.56888V5.57732V5.58576V5.59419V5.60263V5.61107V5.6195V5.62794V5.63638V5.64481V5.65325V5.66169V5.67012V5.67856V5.687V5.69543V5.70387V5.7123V5.72074V5.72918V5.73761V5.74605V5.75449V5.76292V5.77136V5.7798V5.78823V5.79667V5.80511V5.81354V5.82198V5.83042V5.83885V5.84729V5.85572V5.86416V5.8726V5.88103V5.88947V5.89791V5.90634V5.91478V5.92322V5.93165V5.94009V5.94853V5.95696V5.9654V5.97384V5.98227V5.99071V5.99915V6.00758V6.01602V6.02445V6.03289V6.04133V6.04976V6.0582V6.06664V6.07507V6.08351V6.09195V6.10038V6.10882V6.11726V6.12569V6.13413V6.14256V6.151V6.15944V6.16787V6.17631V6.18475V6.19318V6.20162V6.21006V6.21849V6.22693V6.23537V6.2438V6.25224V6.26068V6.26911V6.27755V6.28598C14.2033 6.30513 14.2055 6.32421 14.2099 6.34285C14.254 6.53177 14.327 6.71264 14.4263 6.87888C14.472 6.95541 14.555 7.00182 14.6441 7.00067C14.7333 6.99952 14.8151 6.951 14.8588 6.87331C14.875 6.84458 14.8958 6.81338 14.9224 6.77546C14.9283 6.767 14.9347 6.75788 14.9415 6.74831C14.9624 6.7188 14.9863 6.68498 15.0075 6.6527C15.0601 6.57263 15.1386 6.4421 15.1386 6.28598V6.28027V6.27456V6.26885V6.26313V6.25742V6.25171V6.24599V6.24028V6.23457V6.22886V6.22315V6.21743V6.21172V6.20601V6.2003V6.19459V6.18888V6.18317V6.17746V6.17175V6.16604V6.16033V6.15462V6.14891V6.1432V6.13749V6.13178V6.12607V6.12036V6.11465V6.10895V6.10324V6.09753V6.09182V6.08611V6.08041V6.0747V6.06899V6.06328V6.05758V6.05187V6.04616V6.04046V6.03475V6.02904V6.02334V6.01763V6.01193V6.00622V6.00052V5.99481V5.98911V5.9834V5.9777V5.97199V5.96629V5.96058V5.95488V5.94917V5.94347V5.93777V5.93206V5.92636V5.92066V5.91495V5.90925V5.90355V5.89785V5.89214V5.88644V5.88074V5.87504V5.86934V5.86363V5.85793V5.85223V5.84653V5.84083V5.83513V5.82943V5.82373V5.81803V5.81233V5.80662V5.80092V5.79522V5.78953V5.78383V5.77813V5.77243V5.76673V5.76103V5.75533V5.74963V5.74393V5.73823V5.73254V5.72684V5.72114V5.71544V5.70974V5.70405V5.69835V5.69265V5.68695V5.68126V5.67556V5.66986V5.66417V5.65847V5.65277V5.64708V5.64138V5.63568V5.62999V5.62429V5.6186V5.6129V5.60721V5.60151V5.59582V5.59012V5.58443V5.57873V5.57304V5.56734V5.56165V5.55595V5.55026V5.54457V5.53887V5.53318V5.52749V5.52179V5.5161V5.51041V5.50471V5.49902V5.49333V5.48764V5.48194V5.47625V5.47056V5.46487V5.45917V5.45348V5.44779V5.4421V5.43641V5.43072V5.42502V5.41933V5.41364V5.40795V5.40226V5.39657V5.39088V5.38519V5.3795V5.37381V5.36812V5.36243V5.35674V5.35105V5.34536V5.33967V5.33398V5.32829V5.3226V5.31692V5.31123V5.30554V5.29985V5.29416V5.28847V5.28278V5.2771V5.27141V5.26572V5.26003V5.25434V5.24866V5.24297V5.23728V5.2316V5.22591V5.22022V5.21453V5.20885V5.20316V5.19747V5.19179V5.1861V5.18042V5.17473V5.16904V5.16336V5.15767V5.15199V5.1463V5.14061V5.13493V5.12924V5.12356V5.11787V5.11219V5.1065V5.10082V5.09513V5.08945V5.08377V5.07808V5.0724V5.06671V5.06103V5.05534V5.04966V5.04398V5.03829V5.03261V5.02693V5.02124V5.01556V5.00988V5.00419V4.99851V4.99283V4.98715V4.98146V4.97578V4.9701V4.96442V4.95873V4.95305V4.94737V4.94169V4.93601V4.93032V4.92464V4.91896V4.91328V4.9076V4.90192V4.89623V4.89055V4.88487V4.87919V4.87351V4.86783V4.86215V4.85647V4.85079V4.84511V4.83943V4.83375V4.82807V4.82239V4.81671V4.81103V4.80535V4.79967V4.79399V4.78831V4.78263V4.77695V4.77127V4.76559V4.75991V4.75423V4.74855V4.74287V4.7372V4.73152V4.72584V4.72016V4.71448V4.7088V4.70312V4.69745V4.69177V4.68609V4.68041V4.67473V4.66906V4.66338V4.6577V4.65202V4.64635V4.64067V4.63499V4.62931V4.62364V4.61796V4.61228V4.60661V4.60093V4.59525V4.58958V4.5839V4.57822V4.57255V4.56687V4.56119V4.55552V4.54984V4.54416V4.53849V4.53281V4.52714V4.52146V4.51578V4.51011V4.50443V4.49876V4.49308V4.4874V4.48173V4.47605V4.47038V4.4647V4.45903V4.45335V4.44768V4.442V4.43633V4.43065V4.42498V4.4193V4.41363V4.40795V4.40228V4.39661V4.39093V4.38526V4.37958V4.37391V4.36823V4.36256V4.35689V4.35121V4.34554V4.33986V4.33419V4.32852V4.32284V4.31717V4.3115V4.30582V4.30015V4.29447V4.2888V4.28313V4.27745V4.27178V4.26611V4.26043V4.25476V4.24909V4.24342V4.23774V4.23207V4.2264V4.22072V4.21505V4.20938V4.20371V4.19803V4.19236V4.18669V4.18102V4.17534V4.16967V4.164V4.15833V4.15266V4.14698V4.14131V4.13564V4.12997V4.12429V4.11862V4.11295V4.10728V4.10161V4.09594V4.09026V4.08459V4.07892V4.07325V4.06758V4.06191V4.05624V4.05056V4.04489V4.03922V4.03355V4.02788V4.02221V4.01654V4.01087V4.00519V3.99952V3.99385V3.98818V3.98251V3.97684V3.97117V3.9655V3.95983V3.95416V3.94849V3.94281V3.93714V3.93147V3.9258V3.92013V3.91446V3.90879V3.90312V3.89745V3.89178V3.88611V3.88044V3.87477V3.8691V3.86343V3.85776V3.85209V3.84642V3.84075V3.83508V3.82941V3.82374V3.81807V3.8124V3.80673V3.80106V3.79539V3.78972V3.78405V3.77838V3.77271V3.76704V3.76137V3.7557V3.75003V3.74436V3.73869V3.73302V3.72735V3.72168V3.71601V3.71034V3.70467V3.699V3.69333V3.68766V3.682V3.67633V3.67066V3.66499V3.65932V3.65365V3.64798V3.64231V3.63664V3.63097V3.6253V3.61963V3.61396V3.60829V3.60262V3.59696V3.59129V3.58562V3.57995V3.57428V3.56861V3.56294V3.55727V3.5516V3.54593V3.54026V3.53459V3.52893V3.52326V3.51759V3.51192V3.50625V3.50058V3.49491V3.48924V3.48357V3.4779V3.47224V3.46657V3.4609V3.45523V3.44956V3.44389V3.43822V3.43255V3.42688V3.42121V3.41555V3.40988V3.40421V3.39854V3.39287V3.3872V3.38153V3.37586V1.72895Z" fill="#0E054D" stroke="#2B2B2B" stroke-width="0.5" stroke-linejoin="round"/>
<path d="M116.234 6.68236C116.234 6.80615 116.325 6.9113 116.447 6.92961C117.307 7.05813 118.282 7.08734 119.073 7.02491C119.468 6.99376 119.826 6.93907 120.105 6.85817C120.244 6.81784 120.372 6.76837 120.478 6.70634C120.58 6.64655 120.687 6.55953 120.743 6.43183C120.777 6.35455 120.769 6.26548 120.723 6.19495C120.677 6.12442 120.598 6.08192 120.514 6.08192H117.185V5.5244V5.51663V5.50886V5.5011V5.49333V5.48556V5.4778V5.47003V5.46226V5.45449V5.44673V5.43896V5.43119V5.42343V5.41566V5.40789V5.40013V5.39236V5.38459V5.37682V5.36906V5.36129V5.35352V5.34576V5.33799V5.33022V5.32246V5.31469V5.30692V5.29915V5.29139V5.28362V5.27585V5.26809V5.26032V5.25255V5.24479V5.23702V5.22925V5.22149V5.21372V5.20595V5.19818V5.19042V5.18265V5.17488V5.16712V5.15935V5.15158V5.14382V5.13605V5.12828V5.12051V5.11275V5.10498V5.09721V5.08945V5.08168V5.07391V5.06615V5.05838V5.05061V5.04285V5.03508V5.02731V5.01954V5.01178V5.00401V4.99624V4.98848V4.98071V4.97294V4.96518V4.95741V4.94964V4.94187V4.93411V4.92634V4.91857V4.91081V4.90304V4.89527V4.88751V4.87974V4.87197V4.8642V4.85644V4.84867V4.8409V4.83314V4.82537V4.8176V4.80984V4.80207V4.7943V4.78654V4.77877V4.771V4.76323V4.75547V4.7477V4.73993V4.73217V4.7244V4.71663V4.70887V4.7011V4.69333V4.68556V4.6778V4.67003V4.66226V4.6545V4.64673V4.63896V4.6312V4.62343V4.61566V4.6079V4.60013V4.59236V4.58459V4.57683V4.56906V4.56129V4.55353V4.54576V4.53799V4.53023V4.52246V4.51469V4.50692V4.49916V4.49139V4.48362V4.47586V4.46809V4.46032V4.45256V4.44479V4.43702V4.42926V4.42149V4.41372V4.40595V4.39819V4.39042V4.38265V4.37489V4.36712V4.35935V4.35159V4.34382V4.33605V4.32828V4.32052V4.31275V4.30498V4.29722V4.28945V4.28168V4.27392V4.26615V4.25838V4.25061V4.24285V4.23508V4.22731V4.21955V4.21178V4.20401V4.19625V4.18848V4.18071V4.17295V4.16518V4.15741V4.14964V4.14188V4.13411V4.12634V4.11858V4.11081V4.10304V4.09528V4.08751V4.07974V4.07197V4.06421V4.05644V4.04867V4.04091V4.03314V4.02537V4.01761V4.00984V4.00207V3.99431V3.98654V3.97877V3.971V3.96324V3.95547V3.9477V3.93994V3.93217V3.9244V3.91664V3.90887V3.9011V3.89333V3.88557V3.8778V3.87003V3.86227V3.8545V3.84673V3.83897V3.8312V3.82343V3.81566V3.8079V3.80013V3.79236V3.7846V3.77683V3.76906V3.7613V3.75353V3.74576V3.738V3.73023V3.72246V3.71469V3.70693V3.69916V3.69139V3.68363V3.67586V3.66809V3.66033V3.65256V3.64479V3.63702V3.62926V3.62149V3.61372V3.60596V3.59819V3.59042V3.58266V3.57489V3.56712V3.55936V3.55159V3.54382V3.53605V3.52829V3.52052V3.51275V3.50499V3.49722V3.48945V3.48169V3.47392V3.46615V3.45838V3.45062V3.44285V3.43508V3.42732V3.41955V3.41178V3.40402V3.39625V3.38848V3.38071V3.37295V3.36518V3.35741V3.34965V3.34188V3.33411V3.32635V3.31858V3.31081V3.30305V3.29528V3.28751V3.27974V3.27198V3.26421V3.25644V3.24868V3.24091V3.23314V3.22538V3.21761V3.20984V3.20207V3.19431V3.18654V3.17877V3.17101V3.16324V3.15547V3.14771V3.13994V3.13217V3.12441V3.11664V3.10887V3.1011V3.09334V3.08557V3.0778V3.07004V3.06227V3.0545V3.04674V3.03897V3.0312V3.02343V3.01567V3.0079V3.00013V2.99237V2.9846V2.97683V2.96907V2.9613V2.95353V2.94576V2.938V2.93023V2.92246V2.9147V2.90693V2.89916V2.8914V2.88363V2.87586V2.8681V2.86033V2.85256V2.84479V2.83703V2.82926V2.82149V2.81373V2.80596V2.79819V2.79043V2.78266V2.77489V2.76712V2.75936V2.75159V2.74382V2.73606V2.72829V2.72052V2.71276V2.70499V2.69722V2.68946V2.68169V2.67392V2.66615V2.65839V2.65062V2.64285V2.63509V2.62732V2.61955V2.61179V2.60402V2.59625V2.58848V2.58072V2.57295V2.56518V2.55742V2.54965V2.54188V2.53412V2.52635V2.51858V2.51081V2.50305V2.49528V2.48751V2.47975V2.47198V2.46421V2.45645V2.44868V2.44091V2.43315V2.42538V2.41761V2.40984V2.40208V2.39431V2.38654V2.37878V2.37101V2.36324V2.35548V2.34771V2.33994V2.33217V2.32441V2.31664V2.30887V2.30111V2.29334V2.28557V2.27781V2.27004V2.26227V2.25451V2.24674V2.23897V2.2312V2.22344V2.21567V2.2079V2.20014V2.19237V2.1846V2.17684V2.16907V2.1613V2.15353V2.14577V2.138V2.13023V2.12247V2.1147V2.10693V2.09917V2.0914V2.08363V2.07586V2.0681V2.06033V2.05256V2.0448V2.03703V2.02926V2.0215V2.01373V2.00596V1.9982V1.99043V1.98266V1.97489V1.96713V1.95936V1.95159V1.94383V1.93606V1.92829V1.92053V1.91276V1.90499V1.89722V1.88946V1.88169V1.87392V1.86616V1.85839V1.85062V1.84286V1.83509V1.82732V1.81956V1.81179V1.80402V1.79625V1.78849V1.78072V1.77295V1.76519V1.75742V1.74965V1.74189V1.73412V1.72635V1.71858V1.71082V1.70305V1.69528V1.68752V1.67975V1.67198V1.66422V1.65645V1.64868V1.64091V1.63315V1.62538V1.61761V1.60985V1.60208V1.59431V1.58655V1.57878V1.57101V1.56325V1.55548V1.54771H117.185L117.184 1.53477C117.177 1.39176 117.106 1.27139 117.058 1.19626C117.038 1.16615 117.017 1.13485 116.998 1.10806C116.992 1.09954 116.987 1.09147 116.982 1.08404C116.958 1.04989 116.941 1.02375 116.929 1.00108C116.885 0.920935 116.801 0.871094 116.709 0.871094C116.618 0.871094 116.534 0.920935 116.49 1.00108C116.478 1.02242 116.462 1.04764 116.438 1.08172C116.433 1.08912 116.427 1.09725 116.421 1.10588C116.402 1.13257 116.38 1.16414 116.36 1.19432C116.311 1.26897 116.234 1.39556 116.234 1.54771V1.55767V1.56762V1.57757V1.58753V1.59748V1.60744V1.61739V1.62735V1.6373V1.64725V1.65721V1.66716V1.67712V1.68707V1.69703V1.70698V1.71693V1.72689V1.73684V1.7468V1.75675V1.76671V1.77666V1.78662V1.79657V1.80653V1.81648V1.82644V1.83639V1.84635V1.8563V1.86626V1.87621V1.88617V1.89612V1.90608V1.91603V1.92599V1.93594V1.9459V1.95585V1.96581V1.97577V1.98572V1.99568V2.00563V2.01559V2.02555V2.0355V2.04546V2.05541V2.06537V2.07533V2.08528V2.09524V2.1052V2.11515V2.12511V2.13507V2.14503V2.15498V2.16494V2.1749V2.18486V2.19481V2.20477V2.21473V2.22469V2.23465V2.2446V2.25456V2.26452V2.27448V2.28444V2.2944V2.30436V2.31432V2.32427V2.33423V2.34419V2.35415V2.36411V2.37407V2.38403V2.39399V2.40395V2.41391V2.42388V2.43384V2.4438V2.45376V2.46372V2.47368V2.48364V2.4936V2.50357V2.51353V2.52349V2.53345V2.54342V2.55338V2.56334V2.57331V2.58327V2.59323V2.6032V2.61316V2.62312V2.63309V2.64305V2.65302V2.66298V2.67295V2.68291V2.69288V2.70284V2.71281V2.72277V2.73274V2.74271V2.75267V2.76264V2.77261V2.78257V2.79254V2.80251V2.81248V2.82245V2.83241V2.84238V2.85235V2.86232V2.87229V2.88226V2.89223V2.9022V2.91217V2.92214V2.93211V2.94208V2.95205V2.96202V2.97199V2.98197V2.99194V3.00191V3.01188V3.02185V3.03183V3.0418V3.05177V3.06175V3.07172V3.0817V3.09167V3.10165V3.11162V3.1216V3.13157V3.14155V3.15152V3.1615V3.17148V3.18145V3.19143V3.20141V3.21139V3.22136V3.23134V3.24132V3.2513V3.26128V3.27126V3.28124V3.29122V3.3012V3.31118V3.32116V3.33114V3.34112V3.35111V3.36109V3.37107V3.38105V3.39104V3.40102V3.41101V3.42099V3.43097V3.44096V3.45094V3.46093V3.47091V3.4809V3.49089V3.50087V3.51086V3.52085V3.53084V3.54082V3.55081V3.5608V3.57079V3.58078V3.59077V3.60076V3.61075V3.62074V3.63073V3.64072V3.65072V3.66071V3.6707V3.68069V3.69069V3.70068V3.71068V3.72067V3.73066V3.74066V3.75066V3.76065V3.77065V3.78064V3.79064V3.80064V3.81064V3.82064V3.83063V3.84063V3.85063V3.86063V3.87063V3.88063V3.89063V3.90064V3.91064V3.92064V3.93064V3.94065V3.95065V3.96065V3.97066V3.98066V3.99067V4.00067V4.01068V4.02068V4.03069V4.0407V4.05071V4.06071V4.07072V4.08073V4.09074V4.10075V4.11076V4.12077V4.13078V4.14079V4.15081V4.16082V4.17083V4.18085V4.19086V4.20087V4.21089V4.2209V4.23092V4.24093V4.25095V4.26097V4.27099V4.281V4.29102V4.30104V4.31106V4.32108V4.3311V4.34112V4.35114V4.36116V4.37119V4.38121V4.39123V4.40126V4.41128V4.4213V4.43133V4.44135V4.45138V4.46141V4.47143V4.48146V4.49149V4.50152V4.51155V4.52158V4.53161V4.54164V4.55167V4.5617V4.57173V4.58177V4.5918V4.60183V4.61187V4.6219V4.63194V4.64197V4.65201V4.66205V4.67208V4.68212V4.69216V4.7022V4.71224V4.72228V4.73232V4.74236V4.7524V4.76244V4.77249V4.78253V4.79257V4.80262V4.81266V4.82271V4.83275V4.8428V4.85285V4.8629V4.87294V4.88299V4.89304V4.90309V4.91314V4.92319V4.93325V4.9433V4.95335V4.9634V4.97346V4.98351V4.99357V5.00362V5.01368V5.02374V5.0338V5.04385V5.05391V5.06397V5.07403V5.08409V5.09415V5.10422V5.11428V5.12434V5.1344V5.14447V5.15453V5.1646V5.17467V5.18473V5.1948V5.20487V5.21494V5.22501V5.23507V5.24515V5.25522V5.26529V5.27536V5.28543V5.29551V5.30558V5.31566V5.32573V5.33581V5.34588V5.35596V5.36604V5.37612V5.3862V5.39628V5.40636V5.41644V5.42652V5.43661V5.44669V5.45677V5.46686V5.47694V5.48703V5.49712V5.5072V5.51729V5.52738V5.53747V5.54756V5.55765V5.56774V5.57783V5.58793V5.59802V5.60811V5.61821V5.6283V5.6384V5.6485V5.6586V5.66869V5.67879V5.68889V5.69899V5.7091V5.7192V5.7293V5.7394V5.74951V5.75961V5.76972V5.77982V5.78993V5.80004V5.81015V5.82026V5.83037V5.84048V5.85059V5.8607V5.87081V5.88093V5.89104V5.90115V5.91127V5.92139V5.9315V5.94162V5.95174V5.96186V5.97198V5.9821V5.99222V6.00234V6.01247V6.02259V6.03272V6.04284V6.05297V6.0631V6.07322V6.08335V6.09348V6.10361V6.11374V6.12387V6.13401V6.14414V6.15427V6.16441V6.17454V6.18468V6.19482V6.20495V6.21509V6.22523V6.23537V6.24551V6.25566V6.2658V6.27594V6.28609V6.29623V6.30638V6.31652V6.32667V6.33682V6.34697V6.35712V6.36727V6.37742V6.38757V6.39773V6.40788V6.41804V6.42819V6.43835V6.44851V6.45866V6.46882V6.47898V6.48914V6.49931V6.50947V6.51963V6.5298V6.53996V6.55013V6.56029V6.57046V6.58063V6.5908V6.60097V6.61114V6.62131V6.63148V6.64166V6.65183V6.66201V6.67218V6.68236Z" fill="#0E054D" stroke="#2B2B2B" stroke-width="0.5" stroke-linejoin="round"/>
<path d="M127.995 0.989436C127.951 0.912351 127.87 0.864345 127.781 0.863299C127.692 0.862252 127.61 0.908322 127.564 0.98435C127.551 1.00576 127.533 1.03068 127.508 1.06366C127.502 1.0713 127.495 1.07979 127.488 1.08886C127.468 1.11427 127.445 1.14417 127.425 1.17222C127.374 1.24146 127.288 1.36823 127.288 1.52466V1.52939V1.53412V1.53885V1.54358V1.5483V1.55303V1.55776V1.56248V1.5672V1.57192V1.57664V1.58136V1.58608V1.5908V1.59552V1.60023V1.60495V1.60966V1.61437V1.61908V1.6238V1.6285V1.63321V1.63792V1.64263V1.64733V1.65204V1.65674V1.66144V1.66615V1.67085V1.67555V1.68024V1.68494V1.68964V1.69433V1.69903V1.70372V1.70842V1.71311V1.7178V1.72249V1.72718V1.73186V1.73655V1.74124V1.74592V1.75061V1.75529V1.75997V1.76465V1.76933V1.77401V1.77869V1.78337V1.78805V1.79272V1.7974V1.80207V1.80674V1.81142V1.81609V1.82076V1.82543V1.83009V1.83476V1.83943V1.84409V1.84876V1.85342V1.85809V1.86275V1.86741V1.87207V1.87673V1.88139V1.88604V1.8907V1.89536V1.90001V1.90467V1.90932V1.91397V1.91862V1.92327V1.92792V1.93257V1.93722V1.94187V1.94651V1.95116V1.9558V1.96045V1.96509V1.96973V1.97437V1.97901V1.98365V1.98829V1.99293V1.99756V2.0022V2.00683V2.01147V2.0161V2.02073V2.02537V2.03V2.03463V2.03926V2.04388V2.04851V2.05314V2.05776V2.06239V2.06701V2.07164V2.07626V2.08088V2.0855V2.09012V2.09474V2.09936V2.10398V2.1086V2.11321V2.11783V2.12244V2.12706V2.13167V2.13628V2.1409V2.14551V2.15012V2.15473V2.15933V2.16394V2.16855V2.17316V2.17776V2.18237V2.18697V2.19157V2.19618V2.20078V2.20538V2.20998V2.21458V2.21918V2.22377V2.22837V2.23297V2.23756V2.24216V2.24675V2.25135V2.25594V2.26053V2.26512V2.26971V2.2743V2.27889V2.28348V2.28807V2.29266V2.29724V2.30183V2.30641V2.311V2.31558V2.32016V2.32475V2.32933V2.33391V2.33849V2.34307V2.34765V2.35223V2.3568V2.36138V2.36596V2.37053V2.37511V2.37968V2.38425V2.38883V2.3934V2.39797V2.40254V2.40711V2.41168V2.41625V2.42082V2.42538V2.42995V2.43452V2.43908V2.44365V2.44821V2.45277V2.45734V2.4619V2.46646V2.47102V2.47558V2.48014V2.4847V2.48926V2.49382V2.49837V2.50293V2.50749V2.51204V2.5166V2.52115V2.5257V2.53026V2.53481V2.53936V2.54391V2.54846V2.55301V2.55756V2.56211V2.56666V2.57121V2.57575V2.5803V2.58485V2.58939V2.59394V2.59848V2.60302V2.60757V2.61211V2.61665V2.62119V2.62573V2.63027V2.63481V2.63935V2.64389V2.64843V2.65297V2.6575V2.66204V2.66658V2.67111V2.67564V2.68018V2.68471V2.68925V2.69378V2.69831V2.70284V2.70737V2.7119V2.71643V2.72096V2.72549V2.73002V2.73455V2.73908V2.7436V2.74813V2.75265V2.75718V2.7617V2.76623V2.77075V2.77528V2.7798V2.78432V2.78884V2.79336V2.79788V2.80241V2.80693V2.81144V2.81596V2.82048V2.825V2.82952V2.83403V2.83855V2.84307V2.84758V2.8521V2.85661V2.86113V2.86564V2.87015V2.87467V2.87918V2.88369V2.8882V2.89272V2.89723V2.90174V2.90625V2.91076V2.91526V2.91977V2.92428V2.92879V2.9333V2.9378V2.94231V2.94682V2.95132V2.95583V2.96033V2.96484V2.96934V2.97384V2.97835V2.98285V2.98735V2.99185V2.99636V3.00086V3.00536V3.00986V3.01436V3.01886V3.02336V3.02786V3.03235V3.03685V3.04135V3.04585V3.05034V3.05484V3.05934V3.06383V3.06833V3.07282V3.07732V3.08181V3.08631V3.0908V3.0953V3.09979V3.10428V3.10877V3.11327V3.11776V3.12225V3.12674V3.13123V3.13572V3.14021V3.1447V3.14919V3.15368V3.15817V3.16266V3.16714V3.17163V3.17612V3.18061V3.18509V3.18958V3.19407V3.19855V3.20304V3.20752V3.21201V3.21649V3.22098V3.22546V3.22995V3.23443V3.23891V3.2434V3.24788V3.25236V3.25684V3.26133V3.26581V3.27029V3.27477V3.27925V3.28373V3.28821V3.29269V3.29717V3.30165V3.30613V3.31061V3.31509V3.31957V3.32405V3.32852V3.333V3.33748V3.34196V3.34643V3.35091V3.35539V3.35986V3.36434V3.36882V3.37329V3.37777V3.38224V3.38672V3.39119V3.39567V3.40014V3.40462V3.40909V3.41356V3.41804V3.42251V3.42698V3.43146V3.43593V3.4404V3.44488V3.44935V3.45382V3.45829V3.46276V3.46723V3.47171V3.47618V3.48065V3.48512V3.48959V3.49406V3.49853V3.503V3.50747V3.51194V3.51641V3.52088V3.52535V3.52982V3.53429V3.53876V3.54323V3.54769V3.55216V3.55663V3.5611V3.56557V3.57004V3.5745V3.57897V3.58344V3.58791V3.59237V3.59684V3.60131V3.60578V3.61024V3.61471V3.61918V3.62364V3.62811V3.63257V3.63704V3.64151V3.64597V3.65044V3.65491V3.65937V3.66384V3.6683V3.67277V3.67723V3.6817V3.68616V3.69063V3.69509V3.69956V3.70402V3.70849V3.71295V3.71742V3.72188V3.72635V3.73081V3.73528V3.73974V3.74421V3.74867V3.75313V3.7576V3.76206V3.76653V3.77099V3.77545V3.77992V3.78438V3.78885V3.79331V3.79778V3.80224V3.8067V3.81117V3.81563V3.82009V3.82456V3.82902V3.83349V3.83795V3.84241V3.84688V3.85134V3.8558C127.288 4.12987 127.286 4.40473 127.285 4.67992C127.281 5.23201 127.278 5.7854 127.288 6.33625L127.288 6.33626L127.288 6.34464C127.296 6.48914 127.368 6.60823 127.417 6.68192C127.444 6.72318 127.465 6.75281 127.483 6.7777C127.507 6.81169 127.525 6.83684 127.544 6.8707C127.585 6.94667 127.663 6.99571 127.75 7.00033C127.836 7.00496 127.919 6.96451 127.968 6.89341C127.984 6.87066 128.005 6.84509 128.032 6.81194C128.036 6.80745 128.04 6.80278 128.044 6.79795C128.067 6.77005 128.095 6.73691 128.12 6.70387C128.17 6.63699 128.261 6.51069 128.261 6.35455V6.34511V6.33568V6.32625V6.31682V6.30738V6.29795V6.28852V6.27908V6.26965V6.26022V6.25079V6.24136V6.23192V6.22249V6.21306V6.20363V6.1942V6.18477V6.17533V6.1659V6.15647V6.14704V6.13761V6.12818V6.11875V6.10932V6.09989V6.09046V6.08103V6.0716V6.06217V6.05274V6.04331V6.03388V6.02445V6.01502V6.00559V5.99616V5.98673V5.97731V5.96788V5.95845V5.94902V5.93959V5.93016V5.92074V5.91131V5.90188V5.89245V5.88302V5.8736V5.86417V5.85474V5.84532V5.83589V5.82646V5.81703V5.80761V5.79818V5.78875V5.77933V5.7699V5.76048V5.75105V5.74162V5.7322V5.72277V5.71335V5.70392V5.6945V5.68507V5.67565V5.66622V5.6568V5.64737V5.63795V5.62852V5.6191V5.60967V5.60025V5.59083V5.5814V5.57198V5.56255V5.55313V5.54371V5.53428V5.52486V5.51544V5.50602V5.49659V5.48717V5.47775V5.46832V5.4589V5.44948V5.44006V5.43064V5.42121V5.41179V5.40237V5.39295V5.38353V5.37411V5.36468V5.35526V5.34584V5.33642V5.327V5.31758V5.30816V5.29874V5.28932V5.2799V5.27048V5.26106V5.25164V5.24222V5.2328V5.22338V5.21396V5.20454V5.19512V5.1857V5.17628V5.16687V5.15745V5.14803V5.13861V5.12919V5.11977V5.11036V5.10094V5.09152V5.0821V5.07268V5.06327V5.05385V5.04443V5.03501V5.0256V5.01618V5.00676V4.99735V4.98793V4.97851V4.9691V4.95968V4.95027V4.94085V4.93143V4.92202V4.9126V4.90319V4.89377V4.88436V4.87494V4.86553V4.85611V4.8467V4.83728V4.82787V4.81845V4.80904V4.79962V4.79021V4.7808V4.77138V4.76197V4.75255V4.74314V4.73373V4.72431V4.7149V4.70549V4.69607V4.68666V4.67725V4.66784V4.65842V4.64901V4.6396V4.63019V4.62077V4.61136V4.60195V4.59254V4.58313V4.57372V4.5643V4.55489V4.54548V4.53607V4.52666V4.51725V4.50784V4.49843V4.48902V4.47961V4.4702V4.46079V4.45138V4.44197V4.43256V4.42315V4.41374V4.40433V4.39492V4.38551V4.3761V4.36669V4.35728V4.34788V4.33847V4.32906V4.31965V4.31024V4.30083V4.29143V4.28202V4.27261V4.2632V4.2538V4.24439V4.23498V4.22557V4.21617V4.20676V4.19735V4.18795V4.17854V4.16913V4.15973V4.15032V4.14091V4.13151V4.1221V4.1127V4.10329V4.09389V4.08448V4.07507V4.06567V4.05626V4.04686V4.03746V4.02805V4.01865V4.00924V3.99984V3.99043V3.98103V3.97162V3.96222V3.95282V3.94341V3.93401V3.92461V3.9152V3.9058V3.8964V3.88699V3.87759V3.86819V3.85879V3.84938V3.83998V3.83058V3.82118V3.81177V3.80237V3.79297V3.78357V3.77417V3.76477V3.75536V3.74596V3.73656V3.72716V3.71776V3.70836V3.69896V3.68956V3.68016V3.67076V3.66136V3.65196V3.64256V3.63316V3.62376V3.61436V3.60496V3.59556V3.58616V3.57676V3.56736V3.55796V3.54856V3.53916V3.52977V3.52037V3.51097V3.50157V3.49217V3.48278V3.47338V3.46398V3.45458V3.44518V3.43579V3.42639V3.41699V3.4076V3.3982V3.3888V3.37941V3.37001V3.36061V3.35122V3.34182V3.33242V3.32303V3.31363V3.30424V3.29484V3.28544V3.27605V3.26665V3.25726V3.24786V3.23847V3.22907V3.21968V3.21028V3.20089V3.1915V3.1821V3.17271V3.16331V3.15392V3.14453V3.13513V3.12574V3.11634V3.10695V3.09756V3.08817V3.07877V3.06938V3.05999V3.05059V3.0412V3.03181V3.02242V3.01302V3.00363V2.99424V2.98485V2.97546V2.96607V2.95667V2.94728V2.93789V2.9285V2.91911V2.90972V2.90033V2.89094V2.88155V2.87216V2.86277V2.85338V2.84399V2.8346V2.82521V2.81582V2.80643V2.79704V2.78765V2.77826V2.76887V2.75948V2.75009V2.7407V2.73131V2.72192V2.71254V2.70315V2.69376V2.68437V2.67498V2.6656V2.65621V2.64682V2.63743V2.62805V2.61866V2.60927V2.59988V2.5905V2.58111V2.57172V2.56234V2.55295V2.54356V2.53418V2.52479V2.51541V2.50602V2.49663V2.48725V2.47786V2.46848V2.45909V2.44971V2.44032V2.43094V2.42155V2.41217V2.40278V2.3934V2.38401V2.37463V2.36525V2.35586V2.34648V2.33709V2.32771V2.31833V2.30894V2.29956V2.29018V2.28079V2.27141V2.26203V2.25264V2.24326V2.23388V2.2245V2.21512V2.20573V2.19635V2.18697V2.17759V2.16821V2.15882V2.14944V2.14006V2.13068V2.1213V2.11192V2.10254V2.09316V2.08378V2.07439V2.06501V2.05563V2.04625V2.03687V2.02749V2.01811V2.00873V1.99935V1.98998V1.9806V1.97122V1.96184V1.95246V1.94308V1.9337V1.92432V1.91494V1.90556V1.89619V1.88681V1.87743V1.86805V1.85867V1.8493V1.83992V1.83054V1.82116V1.81179V1.80241V1.79303V1.78366V1.77428V1.7649V1.75553V1.74615V1.73677V1.7274V1.71802V1.70864V1.69927V1.68989V1.68052V1.67114V1.66177V1.65239V1.64302V1.63364V1.62427V1.61489V1.60552V1.59614V1.58677V1.57739V1.56802V1.55864V1.54927V1.5399C128.261 1.38593 128.183 1.26055 128.132 1.18617C128.112 1.15677 128.089 1.12567 128.07 1.09917C128.063 1.09019 128.057 1.08174 128.052 1.07406C128.027 1.03998 128.009 1.0133 127.995 0.989436Z" fill="#0E054D" stroke="#2B2B2B" stroke-width="0.5" stroke-linejoin="round"/>
<path d="M49.3188 6.98039C49.3573 7.06108 49.4359 7.1151 49.525 7.12207C49.6142 7.12903 49.7002 7.08788 49.7507 7.01414C49.8066 6.93263 49.8509 6.8757 49.88 6.84047C49.8945 6.82285 49.9052 6.81065 49.9117 6.8035L49.9181 6.79653C49.9186 6.79598 49.9188 6.79574 49.9188 6.7958L49.9185 6.7961L49.9181 6.79643L49.9179 6.79663L49.9178 6.79674C49.9638 6.74998 49.9896 6.68702 49.9896 6.62143V6.61137V6.60131V6.59125V6.58119V6.57113V6.56107V6.55101V6.54095V6.53089V6.52083V6.51077V6.50071V6.49065V6.48059V6.47053V6.46047V6.45041V6.44035V6.43028V6.42022V6.41016V6.4001V6.39004V6.37997V6.36991V6.35985V6.34979V6.33972V6.32966V6.3196V6.30953V6.29947V6.2894V6.27934V6.26928V6.25921V6.24915V6.23908V6.22902V6.21895V6.20889V6.19882V6.18875V6.17869V6.16862V6.15856V6.14849V6.13842V6.12836V6.11829V6.10822V6.09815V6.08809V6.07802V6.06795V6.05788V6.04781V6.03775V6.02768V6.01761V6.00754V5.99747V5.9874V5.97733V5.96726V5.95719V5.94712V5.93705V5.92698V5.91691V5.90684V5.89677V5.8867V5.87663V5.86656V5.85648V5.84641V5.83634V5.82627V5.8162V5.80612V5.79605V5.78598V5.77591V5.76583V5.75576V5.74569V5.73561V5.72554V5.71546V5.70539V5.69532V5.68524V5.67517V5.66509V5.65502V5.64494V5.63487V5.62479V5.61471V5.60464V5.59456V5.58449V5.57441V5.56433V5.55426V5.54418V5.5341V5.52403V5.51395V5.50387V5.49379V5.48371V5.47364V5.46356V5.45348V5.4434V5.43332V5.42324V5.41316V5.40308V5.393V5.38292V5.37284V5.36276V5.35268V5.3426V5.33252V5.32244V5.31236V5.30228V5.2922V5.28212V5.27204V5.26195V5.25187V5.24179V5.23171V5.22162V5.21154V5.20146V5.19138V5.18129V5.17121V5.16113V5.15104V5.14096V5.13087V5.12079V5.11071V5.10062V5.09054V5.08045V5.07037V5.06028V5.0502V5.04011V5.03002V5.01994V5.00985V4.99976V4.98968V4.97959V4.9695V4.95942V4.94933V4.93924V4.92916V4.91907V4.90898V4.89889V4.8888V4.87872V4.86863V4.85854V4.84845V4.83836V4.82827V4.81818V4.80809V4.798V4.78791V4.77782V4.76773V4.75764V4.74755V4.73746V4.72737V4.71728V4.70718V4.69709V4.687V4.67691V4.66682V4.65672V4.64663V4.63654V4.62645V4.61635V4.60626V4.59617V4.58607V4.57598V4.56589V4.55579V4.5457V4.5356V4.52551V4.51541V4.50532V4.49522V4.48513V4.47503V4.46494V4.45484V4.44475V4.43465V4.42455V4.41446V4.40436V4.39426V4.38417V4.37407V4.36397V4.35387V4.34378V4.33368V4.32358V4.31348V4.30338V4.29329V4.28319V4.27309V4.26299V4.25289V4.24279V4.23269V4.22259V4.21249V4.20239V4.19229V4.18219V4.17209V4.16199V4.15189V4.14179V4.13168V4.12158V4.11148V4.10138V4.09128V4.08118V4.07107V4.06097V4.05087V4.04076V4.03066V4.02056V4.01045V4.00035V3.99025V3.98014V3.97004V3.95993V3.94983V3.93973V3.92962V3.91952V3.90941V3.8993V3.8892V3.87909V3.86899V3.85888V3.84878V3.83867V3.82856V3.81846V3.80835V3.79824V3.78813V3.77803V3.76792V3.75781V3.7477V3.7376V3.72749V3.71738V3.70727V3.69716V3.68705V3.67694V3.66683V3.65672V3.64661V3.6365V3.62639V3.61628V3.60617V3.59606V3.58595V3.57584V3.56573V3.55562V3.54551V3.53539V3.52528V3.51517V3.50506V3.49495V3.48483V3.47472V3.46461V3.4545V3.44438V3.43427V3.42416V3.41404V3.40393V3.39381V3.3837V3.37358V3.36347V3.35336V3.34324V3.33313V3.32301V3.31289V3.30278V3.29266V3.28255V3.27243V3.26231V3.2522V3.24208V3.23196V3.22185V3.21173V3.20161V3.19149V3.18138V3.17126V3.16114V3.15102V3.1409V3.13079V3.12067V3.11055V3.10043V3.09031V3.08019V3.07007V3.05995V3.04983V3.03971V3.02959V3.01947V3.00935V2.99923V2.98911V2.97899V2.96886V2.95874V2.94862V2.9385V2.92838V2.91825V2.90813V2.89801V2.88789V2.87776V2.86764V2.85752V2.84739V2.83727V2.82715V2.81702V2.8069V2.79677V2.78665V2.77652V2.7664V2.75627V2.74615V2.73602V2.7259V2.71577V2.70565V2.69552V2.68539V2.67527V2.66514V2.65501V2.64489V2.63476V2.62463V2.6145V2.60438V2.59425V2.58412V2.57399V2.56386V2.55374V2.54361V2.53348V2.52335V2.51322V2.50309V2.49296V2.48283V2.4727V2.46257V2.45244V2.44231V2.43218V2.42205V2.41192V2.40179V2.39165V2.38152V2.37139V2.36126V2.35113V2.341V2.33086V2.32073V2.3106V2.30046V2.29033V2.2802V2.27006V2.25993V2.2498V2.23966V2.22953V2.21939V2.20926V2.19913V2.18899V2.17886V2.16872V2.15859V2.14845V2.13831V2.12818V2.11804V2.10791V2.09777V2.08763V2.0775V2.06736V2.05722V2.04708V2.03695V2.02681V2.01667V2.00653V1.9964V1.98626V1.97612V1.96598V1.95584V1.9457V1.93556V1.92542V1.91528V1.90514V1.895V1.88486V1.87472V1.86458V1.85444V1.8443V1.83416V1.82402V1.81388V1.80374V1.7936V1.78345V1.77331V1.76317V1.75303V1.74288V1.73274V1.7226V1.71246V1.70231V1.69217V1.68203V1.67188V1.66174V1.65159V1.64145V1.63131V1.62116V1.61102V1.60087V1.59073V1.58058V1.57044V1.56029V1.55014V1.54V1.52985V1.51971V1.50956V1.49941V1.48927V1.47912V1.46897V1.45882V1.44868C49.9896 1.44282 49.9894 1.43697 49.989 1.43113C49.9833 1.35061 49.9524 1.28472 49.9249 1.23894C49.897 1.19235 49.8634 1.1515 49.8351 1.1194C49.8131 1.09452 49.7887 1.0688 49.7683 1.04731C49.7628 1.04147 49.7575 1.03595 49.7527 1.03084C49.7273 1.0039 49.7098 0.984356 49.6972 0.968082C49.647 0.903185 49.5681 0.86707 49.4861 0.87145C49.4042 0.875831 49.3296 0.920149 49.2866 0.990031C49.2739 1.01068 49.2574 1.03372 49.2351 1.06396C49.2319 1.06832 49.2285 1.07289 49.2249 1.07766C49.2062 1.10296 49.1835 1.13348 49.163 1.16375C49.1189 1.22898 49.0469 1.34461 49.0469 1.48677V1.49619V1.5056V1.51502V1.52444V1.53386V1.54328V1.5527V1.56212V1.57153V1.58095V1.59037V1.59979V1.60921V1.61863V1.62805V1.63746V1.64688V1.6563V1.66572V1.67514V1.68456V1.69398V1.70339V1.71281V1.72223V1.73165V1.74107V1.75049V1.75991V1.76932V1.77874V1.78816V1.79758V1.807V1.81642V1.82584V1.83525V1.84467V1.85409V1.86351V1.87293V1.88235V1.89177V1.90118V1.9106V1.92002V1.92944V1.93886V1.94828V1.9577V1.96711V1.97653V1.98595V1.99537V2.00479V2.01421V2.02363V2.03304V2.04246V2.05188V2.0613V2.07072V2.08014V2.08956V2.09897V2.10839V2.11781V2.12723V2.13665V2.14607V2.15549V2.1649V2.17432V2.18374V2.19316V2.20258V2.212V2.22142V2.23083V2.24025V2.24967V2.25909V2.26851V2.27793V2.28735V2.29676V2.30618V2.3156V2.32502V2.33444V2.34386V2.35328V2.36269V2.37211V2.38153V2.39095V2.40037V2.40979V2.41921V2.42862V2.43804V2.44746V2.45688V2.4663V2.47572V2.48514V2.49455V2.50397V2.51339V2.52281V2.53223V2.54165V2.55107V2.56048V2.5699V2.57932V2.58874V2.59816V2.60758V2.617V2.62641V2.63583V2.64525V2.65467V2.66409V2.67351V2.68293V2.69234V2.70176V2.71118V2.7206V2.73002V2.73944V2.74886V2.75828V2.76769V2.77711V2.78653V2.79595V2.80537V2.81479V2.82421V2.83362V2.84304V2.85246V2.86188V2.8713V2.88072V2.89014V2.89955V2.90897V2.91839V2.92781V2.93723V2.94665V2.95607V2.96548V2.9749V2.98432V2.99374V3.00316V3.01258V3.022V3.03141V3.04083V3.05025V3.05967V3.06909V3.07851V3.08793V3.09734V3.10676V3.11618V3.1256V3.13502V3.14444V3.15386V3.16327V3.17269V3.18211V3.19153V3.20095V3.21037V3.21979V3.2292V3.23862V3.24804V3.25746V3.26688V3.2763V3.28572V3.29513V3.30455V3.31397V3.32339V3.33281V3.34223V3.35165V3.36106V3.37048V3.3799V3.38932V3.39874V3.40816V3.41758V3.42699V3.43641V3.44583V3.45525V3.46467V3.47409V3.48351V3.49292V3.50234V3.51176V3.52118V3.5306V3.54002V3.54944V3.55885V3.56827V3.57769V3.58711V3.59653V3.60595V3.61537V3.62478V3.6342V3.64362V3.65304V3.66246V3.67188V3.6813V3.69071V3.70013V3.70955V3.71897V3.72839V3.73781V3.74723V3.75664V3.76606V3.77548V3.7849V3.79432V3.80374V3.81316V3.82257V3.83199V3.84141V3.85083V3.86025V3.86967V3.87909V3.8885V3.89792V3.90734V3.91676V3.92618V3.9356V3.94502V3.95443V3.96385V3.97327V3.98269V3.99211V4.00153V4.01095V4.02036V4.02978V4.0392V4.04862V4.05804V4.06746V4.07688V4.08629V4.09571V4.10513V4.11455V4.12397V4.13339V4.14281V4.15222V4.16164V4.17106V4.18048V4.1899V4.19932V4.20874V4.21815V4.22757V4.23699V4.24641V4.25583V4.26525V4.27467V4.28409V4.2935V4.30292V4.31234V4.32176V4.33118V4.3406V4.35001V4.35943V4.36885V4.37827V4.38769V4.39711V4.40653V4.41595V4.42536V4.43478V4.4442V4.45362V4.46304V4.47246V4.48188V4.49129V4.50071V4.51013V4.51955V4.52897V4.53839V4.54781V4.55722V4.56664V4.57606V4.58548V4.5949V4.60432V4.61374V4.62315V4.63257V4.64199V4.65141V4.66083V4.67025V4.67967V4.68908V4.6985V4.70792V4.71734V4.72676V4.73618V4.7456V4.75501V4.76443V4.77385V4.78327V4.79269V4.80211V4.81153V4.82094V4.83036V4.83978V4.8492V4.85862V4.86804V4.87746V4.88687V4.89629V4.90571V4.91513V4.92455V4.93397V4.94339V4.9528V4.96222V4.97164V4.98106V4.99048V4.9999V5.00932V5.01873V5.02815V5.03757V5.04699V5.05641V5.06583V5.07525V5.08466V5.09408V5.1035V5.11292V5.12234V5.13176V5.14118V5.15059V5.16001V5.16943V5.17885V5.18827V5.19769V5.20711V5.21652V5.22594V5.23536V5.24478V5.2542V5.26362V5.27304V5.28245V5.29187V5.30129V5.31071V5.32013V5.32955V5.33897V5.34838V5.3578V5.36722V5.37664V5.38606V5.39548V5.4049V5.41431V5.42373V5.43315V5.44257V5.45199V5.46141V5.47083V5.48024V5.48966V5.49908V5.5085V5.51792V5.52734V5.53676V5.54617V5.55559V5.56501V5.57443V5.58385V5.59327V5.60269V5.6121V5.62152V5.63094V5.64036V5.64978V5.6592V5.66862V5.67803V5.68745V5.69687V5.70629V5.71571V5.72513V5.73455V5.74396V5.75338V5.7628V5.77222V5.78164V5.79106V5.80048V5.8099V5.81931V5.82873V5.83815V5.84757V5.85699V5.86641V5.87582V5.88524V5.89466V5.90408V5.9135V5.92292V5.93234V5.94175V5.95117V5.96059V5.97001V5.97943V5.98885V5.99827V6.00769V6.0171V6.02652V6.03594V6.04536V6.05478V6.0642V6.07362V6.08303V6.09245V6.10187V6.11129V6.12071V6.13013V6.13955V6.14896V6.15838V6.1678V6.17722V6.18664V6.19606V6.20548V6.21489V6.22431V6.23373V6.24315V6.25257V6.26199V6.27141V6.28082V6.29024V6.29966V6.30908C49.0469 6.45793 49.1067 6.5861 49.1575 6.68211C49.1816 6.72777 49.2033 6.76583 49.224 6.80237C49.2557 6.85808 49.2854 6.91024 49.3188 6.98039Z" fill="#0E054D" stroke="#2B2B2B" stroke-width="0.5" stroke-linejoin="round"/>
</svg>
