<svg width="96" height="36" viewBox="0 0 96 36" fill="none" xmlns="http://www.w3.org/2000/svg">
<g clip-path="url(#clip0_9879_18448)">
<path d="M48.479 9.10171H46.6053L46.4618 8.33357C46.1347 8.7211 45.7021 9.00538 45.2166 9.15193C44.7311 9.29847 44.2135 9.30098 43.7266 9.15914C43.1131 8.98108 42.5728 8.61096 42.1852 8.10316C41.7975 7.59535 41.583 6.97662 41.573 6.33785C41.5058 5.64866 41.6603 4.95602 42.0141 4.36077C42.3679 3.76552 42.9025 3.29875 43.54 3.02839C44.0782 2.76147 44.6772 2.64085 45.2768 2.67866C45.8765 2.71647 46.4556 2.91138 46.956 3.2438C47.4565 3.57623 47.8607 4.03448 48.128 4.57253C48.3953 5.11058 48.5164 5.70949 48.479 6.30913C48.4862 7.20649 48.479 8.13256 48.479 9.10171ZM45.026 4.42109C44.8231 4.41426 44.6211 4.45052 44.4333 4.52747C44.2455 4.60443 44.0761 4.72033 43.9364 4.86754C43.7966 5.01475 43.6897 5.18992 43.6226 5.38149C43.5555 5.57306 43.5298 5.77667 43.5472 5.97891C43.5317 6.18124 43.5594 6.38455 43.6283 6.57541C43.6972 6.76628 43.8058 6.94038 43.9469 7.08622C44.088 7.23206 44.2584 7.34634 44.4469 7.42151C44.6353 7.49669 44.8376 7.53106 45.0404 7.52236C45.2414 7.52056 45.4401 7.47855 45.6247 7.39882C45.8093 7.31908 45.976 7.20322 46.1152 7.05806C46.2543 6.9129 46.363 6.74138 46.4349 6.55358C46.5067 6.36578 46.5403 6.16551 46.5336 5.96455C46.5374 5.76383 46.5012 5.56435 46.4273 5.37772C46.3533 5.19109 46.243 5.02102 46.1027 4.87741C45.9624 4.73379 45.795 4.61949 45.6102 4.54116C45.4253 4.46282 45.2267 4.42201 45.026 4.42109Z" fill="black"/>
<path d="M67.3378 2.83458L67.4455 3.65297C67.5389 3.56682 67.6178 3.51657 67.6752 3.45914C67.9969 3.09672 68.4216 2.84129 68.8925 2.72709C69.3634 2.61289 69.858 2.64539 70.3099 2.82022C70.7554 2.95685 71.1468 3.22988 71.4289 3.60083C71.711 3.97177 71.8695 4.4219 71.8821 4.88773C71.961 6.26608 71.8821 7.65877 71.8821 9.08019H69.9653C69.9653 7.93875 69.9653 6.81167 69.9653 5.68459C69.9975 5.43134 69.9444 5.17459 69.8144 4.95489C69.6844 4.73519 69.4849 4.56505 69.2474 4.47136C68.9968 4.36016 68.7147 4.3417 68.4517 4.41929C68.1887 4.49688 67.9618 4.66546 67.8116 4.89491C67.5799 5.2469 67.4416 5.65205 67.4096 6.07225C67.3522 7.06293 67.4096 8.06079 67.4096 9.09455H65.4785V2.83458H67.3378Z" fill="black"/>
<path d="M60.1372 6.61823C60.1929 6.82453 60.2909 7.01702 60.4249 7.1835C60.5589 7.34997 60.726 7.48681 60.9156 7.58534C61.1052 7.68387 61.3133 7.74194 61.5265 7.75589C61.7398 7.76983 61.9536 7.73934 62.1544 7.66634C63.1379 7.41508 63.2815 7.44379 64.2148 8.02528C63.5543 9.16672 61.4365 9.58309 59.9074 8.86521C59.1716 8.49911 58.6043 7.86465 58.3225 7.09262C58.0407 6.3206 58.0658 5.46987 58.3927 4.71583C58.7132 3.91508 59.3342 3.27151 60.1231 2.92271C60.9119 2.57391 61.8059 2.54757 62.6139 2.84933C63.3848 3.07906 64.0338 3.60395 64.4196 4.30978C64.8055 5.01562 64.897 5.84527 64.6742 6.61823H60.1372ZM62.8077 5.35475C62.8175 5.17988 62.7879 5.00504 62.7212 4.84312C62.6544 4.68121 62.5521 4.53634 62.4219 4.41922C62.2917 4.30209 62.1368 4.21569 61.9688 4.16639C61.8007 4.11708 61.6238 4.10613 61.4509 4.13434C61.2859 4.12068 61.1198 4.14264 60.964 4.19874C60.8082 4.25483 60.6663 4.34375 60.5478 4.45948C60.4294 4.5752 60.3372 4.71503 60.2775 4.86949C60.2178 5.02395 60.192 5.18944 60.2018 5.35475H62.8077Z" fill="black"/>
<path d="M93.361 6.61918H88.8957C88.8842 6.86303 88.9639 7.10245 89.1191 7.29086C89.2743 7.47927 89.4941 7.60321 89.7357 7.63857C90.0873 7.75676 90.468 7.75676 90.8197 7.63857C91.6883 7.13605 92.2555 7.72472 92.9733 7.99752C92.0975 9.26818 89.8721 9.60558 88.3717 8.7154C87.6922 8.27477 87.1997 7.5984 86.989 6.81646C86.7783 6.03452 86.8642 5.20227 87.2302 4.47988C87.6212 3.71194 88.2912 3.12272 89.1028 2.83305C89.9144 2.54338 90.8061 2.57523 91.595 2.92206C92.2978 3.2066 92.8687 3.74375 93.1955 4.4279C93.5223 5.11205 93.5813 5.8937 93.361 6.61918ZM88.9029 5.33416H91.5017C91.5182 5.172 91.4987 5.0082 91.4445 4.85447C91.3903 4.70075 91.3028 4.5609 91.1882 4.44496C91.0736 4.32902 90.9348 4.23985 90.7818 4.18383C90.6287 4.12781 90.4651 4.10633 90.3028 4.12093C90.1259 4.09196 89.9448 4.10278 89.7726 4.1526C89.6004 4.20242 89.4415 4.29 89.3075 4.40895C89.1734 4.5279 89.0675 4.67524 88.9975 4.84025C88.9275 5.00527 88.8952 5.1838 88.9029 5.36288V5.33416Z" fill="black"/>
<path d="M80.0879 2.82168H82.1913L83.6271 6.82031C83.9716 5.83681 84.2803 4.98252 84.5747 4.12824C85.0341 2.79297 85.027 2.79297 86.4196 2.79297H87.1375C87.1146 2.92875 87.0835 3.06301 87.0442 3.19499C86.3263 5.01842 85.5438 6.83467 84.8188 8.66528C84.7845 8.81408 84.697 8.94518 84.5726 9.03381C84.4483 9.12243 84.2958 9.16244 84.1439 9.14626C82.7082 9.14626 82.7082 9.14626 82.1411 7.78946C81.538 6.31061 80.9278 4.83177 80.3248 3.34574C80.2028 3.18781 80.1597 3.02987 80.0879 2.82168Z" fill="black"/>
<path d="M51.3075 4.38008C51.3075 5.26308 51.3075 6.04558 51.3075 6.82089C51.3063 6.9352 51.3307 7.04833 51.3788 7.15202C51.427 7.25572 51.4976 7.34736 51.5857 7.42028C51.6737 7.49319 51.7769 7.54553 51.8878 7.57348C51.9986 7.60143 52.1143 7.60429 52.2264 7.58185C52.5135 7.58185 52.8007 7.49571 53.1524 7.43828C53.1524 7.86901 53.1524 8.2782 53.1524 8.68022C53.1342 8.75793 53.0972 8.82998 53.0446 8.89005C52.992 8.95013 52.9255 8.9964 52.8509 9.0248C52.2247 9.1483 51.5866 9.20127 50.9485 9.18274C50.5207 9.1419 50.1231 8.9439 49.8327 8.627C49.5423 8.3101 49.3798 7.8968 49.3764 7.46699C49.3118 5.31333 49.3764 3.15967 49.3764 0.941406H51.3075V2.76484H53.0735V4.38008H51.3075Z" fill="black"/>
<path d="M55.2768 17.0202L55.3414 16.4603H56.2029V17.3863C56.2029 18.9944 56.2029 20.5977 56.2029 22.1962C56.2214 22.799 56.0207 23.3881 55.6378 23.8542C55.2549 24.3202 54.716 24.6315 54.121 24.7303C52.5201 25.0677 51.0915 24.4503 50.5316 23.1366L51.1633 22.7848C52.2401 24.034 53.2595 24.3642 54.3507 23.8258C54.7447 23.6263 55.0537 23.2916 55.2211 22.8829C55.3886 22.4742 55.4032 22.0189 55.2624 21.6003C53.518 22.6413 51.8238 22.5695 50.79 21.3993C50.3229 20.8423 50.0568 20.1442 50.0347 19.4176C50.0126 18.6909 50.2356 17.978 50.668 17.3935C51.7376 16.0726 53.2811 15.9506 55.2768 17.0202ZM55.2768 19.339C55.4419 17.6448 54.2071 17.0489 53.1231 17.0202C52.8244 17.0098 52.5268 17.0617 52.2492 17.1726C51.9716 17.2835 51.7202 17.451 51.5108 17.6644C51.3015 17.8778 51.1389 18.1324 51.0333 18.412C50.9278 18.6917 50.8816 18.9903 50.8977 19.2887C50.8664 19.5925 50.9021 19.8995 51.0023 20.188C51.1025 20.4766 51.2648 20.7396 51.4777 20.9586C51.6905 21.1776 51.9488 21.3473 52.2344 21.4557C52.5199 21.5641 52.8257 21.6086 53.1303 21.586C54.5589 21.586 55.3342 20.7819 55.3342 19.339H55.2768Z" fill="black"/>
<path d="M72.8363 0.945312H74.7459V2.76874H76.5406V4.38399H74.8105C74.8105 5.28134 74.8105 6.11409 74.8105 6.93966C74.8105 7.39911 75.2125 7.59294 75.6576 7.57858C75.9447 7.57858 76.2319 7.49243 76.6124 7.435C76.6376 7.84141 76.6376 8.249 76.6124 8.65541C76.5938 8.74044 76.5546 8.81961 76.4983 8.88595C76.442 8.9523 76.3702 9.00378 76.2893 9.03589C75.697 9.15958 75.0922 9.2126 74.4874 9.19382C74.0607 9.16117 73.6604 8.974 73.3617 8.6674C73.0631 8.3608 72.8865 7.95582 72.865 7.52833C72.8076 5.34595 72.8363 3.1564 72.8363 0.945312Z" fill="black"/>
<path d="M57.768 7.43764C57.768 7.58122 57.768 7.68172 57.768 7.77505C57.768 9.0816 57.6962 9.21082 56.3323 9.21082C54.8032 9.26825 53.9848 8.56472 53.9561 7.05716C53.9561 5.03272 53.9561 3.00111 53.9561 0.933594H55.8943V2.77138H57.6891V4.37945H55.9948C55.9948 5.25527 55.959 6.07366 55.9948 6.88487C55.9948 7.37303 56.3897 7.60276 56.8635 7.55968C57.1669 7.53443 57.4688 7.4937 57.768 7.43764Z" fill="black"/>
<path d="M43.4178 32.27V35.199H42.542V27.6899C44.1142 27.6899 45.6792 27.5966 47.2226 27.6899C47.4969 27.7253 47.7614 27.8145 48.0011 27.9526C48.2407 28.0906 48.4506 28.2747 48.6188 28.4943C48.7869 28.7138 48.91 28.9645 48.9808 29.2318C49.0517 29.4991 49.069 29.7778 49.0317 30.0518C49.0168 30.6245 48.7803 31.169 48.3718 31.5708C47.9634 31.9725 47.415 32.2 46.8421 32.2054C45.9376 32.2485 45.0402 32.2054 44.1357 32.2054L43.4178 32.27ZM43.4537 31.3583C44.6957 31.3583 45.8873 31.4301 47.0431 31.3583C47.761 31.3009 48.1271 30.6404 48.0841 29.9225C48.041 29.2047 47.6605 28.6088 46.9642 28.5657C45.8012 28.5083 44.631 28.5657 43.4322 28.5657L43.4537 31.3583Z" fill="black"/>
<path d="M41.6377 22.1173C42.2264 20.8179 42.8078 19.5186 43.3965 18.2264C43.899 17.1065 44.3944 15.9794 44.9256 14.8738C44.9932 14.7814 45.0818 14.7064 45.1842 14.6552C45.2866 14.604 45.3998 14.5781 45.5143 14.5795C45.6287 14.5724 45.7432 14.5928 45.8481 14.639C45.953 14.6852 46.0453 14.7559 46.1173 14.8451C47.2372 17.25 48.3212 19.6693 49.4124 22.0886C48.594 22.3255 48.515 22.2896 48.2207 21.6148C48.1346 21.4138 48.0269 21.2271 47.9623 21.0261C47.928 20.885 47.8415 20.7622 47.7203 20.6823C47.5991 20.6024 47.4522 20.5713 47.309 20.5954C46.1317 20.5954 44.9543 20.5954 43.7842 20.5954C43.4037 20.5954 43.1955 20.7031 43.0663 21.062C43.016 21.2271 42.9012 21.3779 42.8581 21.543C42.7361 22.2035 42.3125 22.3327 41.6377 22.1173ZM45.5358 15.5199L43.6693 19.7626H47.3808L47.1726 19.2314C46.6629 18.0397 46.146 16.848 45.5574 15.5199H45.5358Z" fill="black"/>
<path d="M79.6851 32.6576H74.6599C74.6342 33.0431 74.7325 33.4266 74.9405 33.7521C75.1485 34.0777 75.4552 34.3281 75.8157 34.4667C76.9356 34.9333 77.9694 34.6103 78.9385 33.4545L79.5487 33.8493C78.8954 35.2851 76.9069 35.7015 75.5645 35.1989C74.8381 34.9097 74.2521 34.3503 73.9295 33.6382C73.6068 32.926 73.5728 32.1165 73.8344 31.3798C74.0671 30.6444 74.5722 30.0259 75.2462 29.6509C75.9202 29.2758 76.7121 29.1727 77.4597 29.3625C78.1841 29.5185 78.8202 29.9485 79.235 30.5626C79.6497 31.1767 79.811 31.9274 79.6851 32.6576ZM78.7878 31.9397C78.7674 31.4293 78.5507 30.9464 78.1828 30.592C77.815 30.2375 77.3244 30.0388 76.8136 30.0373C76.5491 30.0188 76.2836 30.0525 76.0322 30.1367C75.7807 30.2208 75.5484 30.3537 75.3484 30.5277C75.1483 30.7018 74.9846 30.9135 74.8664 31.1509C74.7483 31.3882 74.6781 31.6465 74.6599 31.911L78.7878 31.9397Z" fill="black"/>
<path d="M63.7696 19.6423H58.6727C58.6638 20.0554 58.7911 20.4599 59.035 20.7934C59.279 21.1268 59.6259 21.3707 60.0223 21.4873C61.1278 21.8606 62.0252 21.5519 62.9871 20.4248L63.583 20.8125C62.9943 22.1406 61.1853 22.7292 59.5628 22.1477C58.8495 21.8549 58.2766 21.2981 57.9636 20.5932C57.6507 19.8884 57.6218 19.0901 57.883 18.3645C58.1068 17.6299 58.6037 17.0091 59.2714 16.6298C59.9392 16.2505 60.7269 16.1417 61.4724 16.3257C62.2101 16.4739 62.8615 16.9022 63.2899 17.5207C63.7183 18.1392 63.8903 18.8997 63.7696 19.6423ZM58.687 18.867H62.8938C62.8445 18.3383 62.593 17.8491 62.1918 17.5013C61.7905 17.1536 61.2705 16.9742 60.7402 17.0005C60.2236 16.9881 59.7222 17.1751 59.3399 17.5227C58.9576 17.8702 58.7238 18.3516 58.687 18.867Z" fill="black"/>
<path d="M50.9698 31.4429L50.2519 31.2634C50.2888 30.9015 50.4213 30.5559 50.6358 30.2619C50.8502 29.968 51.1389 29.7364 51.4723 29.5907C51.8915 29.3934 52.3469 29.2846 52.8101 29.271C53.2733 29.2574 53.7342 29.3394 54.1643 29.5117C54.4584 29.5851 54.7228 29.747 54.9219 29.9755C55.1209 30.2041 55.2449 30.4882 55.2771 30.7896C55.3417 32.2254 55.2771 33.7114 55.2771 35.2046H54.5592L54.4443 34.6159C54.0532 34.9703 53.5799 35.2216 53.0672 35.3469C52.5545 35.4723 52.0187 35.4678 51.5082 35.3338C51.1466 35.2746 50.8158 35.0949 50.5694 34.8238C50.3231 34.5526 50.1757 34.2061 50.1514 33.8406C50.1141 33.4845 50.2112 33.1273 50.4237 32.8391C50.6362 32.5509 50.9488 32.3525 51.3 32.2828C51.9317 32.0746 52.5922 31.9885 53.2311 31.809C53.7192 31.6726 54.3582 31.6798 54.3653 30.9403C54.3653 30.4737 53.8987 30.1794 53.1162 30.0932C52.1327 29.9568 51.4866 30.3589 50.9698 31.4429ZM54.3869 32.1607C53.9274 32.2971 53.468 32.4407 53.0014 32.5699C52.5347 32.6992 52.1543 32.7351 51.7522 32.8715C51.3502 33.0079 50.9841 33.2735 51.0344 33.8119C51.0846 34.3503 51.4938 34.5298 51.9317 34.5872C53.6762 34.8959 54.6884 33.898 54.4012 32.1607H54.3869Z" fill="black"/>
<path d="M85.3499 16.4679C85.2709 16.6546 85.2063 16.8341 85.1202 16.9992C83.9716 19.3108 82.7942 21.6152 81.6743 23.9411C81.3943 24.5226 81.0785 24.8241 80.3606 24.5729C80.5692 24.042 80.8238 23.5303 81.1215 23.0438C81.4219 22.6553 81.5849 22.1781 81.5849 21.687C81.5849 21.1959 81.4219 20.7187 81.1215 20.3302C80.4037 19.1098 79.8293 17.796 79.1904 16.5182C80.0663 16.31 80.1022 16.3387 80.4539 17.071C81.0426 18.2842 81.6312 19.4902 82.2773 20.804L84.0792 17.1212C84.4454 16.3674 84.4454 16.3746 85.3499 16.4679Z" fill="black"/>
<path d="M65.4428 16.4542H66.1607L66.2612 17.0716C66.5692 16.7952 66.9288 16.5826 67.3194 16.4458C67.71 16.309 68.1237 16.2509 68.5369 16.2747C68.8709 16.2608 69.2043 16.3158 69.5162 16.4364C69.828 16.557 70.1117 16.7405 70.3495 16.9756C70.5873 17.2107 70.7741 17.4923 70.8982 17.8028C71.0223 18.1132 71.0812 18.4459 71.071 18.7802C71.071 19.8929 71.071 21.0056 71.071 22.1542H70.2095C70.2095 21.1205 70.2095 20.0867 70.2095 19.053C70.2407 18.6941 70.1701 18.3337 70.0059 18.0131C69.8416 17.6925 69.5904 17.4246 69.2809 17.2403C68.9714 17.0559 68.6162 16.9625 68.256 16.9708C67.8959 16.979 67.5454 17.0886 67.2447 17.287C66.919 17.4525 66.6493 17.7103 66.4693 18.0282C66.2893 18.3462 66.2069 18.7101 66.2325 19.0745C66.2325 20.0867 66.2325 21.1061 66.2325 22.1542H65.4141L65.4428 16.4542Z" fill="black"/>
<path d="M78.5869 18.3372L77.869 18.5238C77.774 18.2365 77.6212 17.9716 77.42 17.7455C77.2189 17.5193 76.9735 17.3368 76.6992 17.209C76.4248 17.0812 76.1272 17.011 75.8247 17.0025C75.5221 16.9941 75.2211 17.0476 74.94 17.1599C74.4616 17.3226 74.0557 17.6483 73.7932 18.0801C73.5308 18.5118 73.4285 19.0221 73.5042 19.5217C73.5196 20.0038 73.6963 20.4667 74.0061 20.8364C74.3159 21.2061 74.7408 21.4611 75.2128 21.5605C76.3829 21.7831 77.2085 21.338 77.8331 20.1247L78.5869 20.3186C78.391 20.9898 77.957 21.5666 77.3662 21.9407C76.7754 22.3147 76.0684 22.4603 75.3779 22.3502C74.617 22.2845 73.91 21.9306 73.4015 21.3607C72.8931 20.7909 72.6216 20.0482 72.6427 19.2848C72.6402 18.5431 72.9125 17.8268 73.4069 17.274C73.9014 16.7212 74.5831 16.3711 75.3205 16.2912C76.9573 16.1405 78.3141 16.9589 78.5869 18.3372Z" fill="black"/>
<path d="M67.3666 30.0922C67.7794 29.7209 68.2834 29.466 68.8272 29.3537C69.3709 29.2415 69.9347 29.2758 70.4607 29.4533C70.9342 29.5635 71.3564 29.8306 71.6588 30.2112C71.9612 30.5918 72.1259 31.0634 72.1262 31.5495C72.1765 32.7412 72.1262 33.9329 72.1262 35.1964L71.2791 35.2323V33.897C71.2791 33.2725 71.2791 32.6479 71.2791 32.0233C71.3043 31.768 71.274 31.5103 71.1904 31.2678C71.1067 31.0253 70.9716 30.8038 70.7943 30.6183C70.6171 30.4329 70.4018 30.2879 70.1634 30.1934C69.9249 30.0989 69.6688 30.057 69.4126 30.0707C69.1507 30.0522 68.8877 30.0869 68.6395 30.1728C68.3913 30.2586 68.1631 30.3938 67.9686 30.5702C67.774 30.7466 67.6173 30.9606 67.5076 31.1992C67.398 31.4379 67.3378 31.6962 67.3307 31.9587C67.2949 32.7628 67.3307 33.5668 67.3307 34.3636C67.3307 34.6364 67.3307 34.9021 67.3307 35.2036H66.5195V29.4605L67.2374 29.4246L67.3666 30.0922Z" fill="black"/>
<path d="M77.5312 3.03125H79.4193V9.11174H77.5312V3.03125Z" fill="black"/>
<path d="M61.0635 30.1519V29.4842L62.2911 29.4268V28.1992H63.1741V29.434H65.019V30.1878H63.1741C63.1741 31.5015 63.1741 32.7291 63.1741 33.9495C63.1741 34.129 63.5115 34.3802 63.7412 34.4592C64.0387 34.5029 64.341 34.5029 64.6386 34.4592V35.2489C64.1487 35.2424 63.6596 35.2064 63.1741 35.1412C62.9295 35.0972 62.7111 34.9609 62.5642 34.7605C62.4172 34.5601 62.3528 34.3109 62.3844 34.0643C62.3844 33.0091 62.3413 31.9538 62.3844 30.9056C62.3844 30.3529 62.2623 30.0944 61.6665 30.1878C61.4648 30.1932 61.2631 30.1812 61.0635 30.1519Z" fill="black"/>
<path d="M81.3721 29.4991C81.7741 29.4417 82.1761 29.2909 82.2479 29.894C82.5633 29.631 82.9432 29.4571 83.3483 29.3902C83.7535 29.3233 84.1691 29.3658 84.5523 29.5135L84.3944 30.2314C84.1933 30.2314 84.0282 30.2314 83.8559 30.2314C83.6498 30.1899 83.4368 30.1966 83.2337 30.251C83.0306 30.3055 82.8428 30.4061 82.6851 30.5451C82.5273 30.6841 82.4038 30.8577 82.3242 31.0524C82.2446 31.247 82.2112 31.4574 82.2264 31.6672C82.2264 32.6435 82.2264 33.6198 82.2264 34.5961V35.1848H81.3792L81.3721 29.4991Z" fill="black"/>
<path d="M57.0938 29.4835H57.8475L57.9265 29.9645C58.2327 29.6784 58.6132 29.4843 59.0245 29.4043C59.4358 29.3243 59.8614 29.3617 60.2524 29.5122L60.1017 30.2301C59.9868 30.2301 59.8863 30.2301 59.793 30.2301C58.4936 30.1224 57.9409 30.6106 57.9193 31.9171C57.9193 32.9868 57.9193 34.0708 57.9193 35.1692H57.0938V29.4835Z" fill="black"/>
<path d="M78.5222 0.00122044C78.6785 -0.00457283 78.8344 0.0212263 78.9805 0.0770719C79.1266 0.132918 79.26 0.217664 79.3726 0.326239C79.4852 0.434813 79.5747 0.564984 79.6358 0.708966C79.6969 0.852947 79.7284 1.00778 79.7283 1.1642C79.7044 1.46883 79.5645 1.75268 79.3374 1.95709C79.1103 2.1615 78.8133 2.27086 78.5079 2.26256C78.3513 2.27231 78.1945 2.25011 78.0468 2.19731C77.8992 2.14451 77.7638 2.06221 77.649 1.95543C77.5341 1.84865 77.4422 1.71962 77.3788 1.57619C77.3155 1.43276 77.2819 1.27793 77.2803 1.12112C77.2816 0.963871 77.3155 0.808602 77.38 0.665177C77.4445 0.521752 77.5381 0.393305 77.6549 0.287993C77.7717 0.18268 77.9091 0.102804 78.0584 0.0534358C78.2077 0.00406761 78.3657 -0.0137144 78.5222 0.00122044Z" fill="black"/>
<path d="M35.3051 28.5987C35.3051 30.1431 34.7906 31.6434 33.8429 32.8628C32.8952 34.0822 31.5683 34.9512 30.0717 35.3325C28.5509 35.7131 26.9463 35.5727 25.5147 34.9337C24.0831 34.2947 22.9071 33.194 22.175 31.8077L14.4362 17.2705C14.0878 16.6214 13.6102 16.0505 13.0329 15.5929C12.4555 15.1353 11.7906 14.8007 11.0792 14.6097C10.3677 14.4187 9.62459 14.3754 8.89571 14.4823C8.16683 14.5893 7.46756 14.8443 6.84093 15.2317C6.61189 15.3244 6.36958 15.3801 6.12305 15.3968C6.14935 15.1511 6.20726 14.9098 6.29534 14.6789C8.14749 11.4987 9.97092 8.30408 11.8661 5.15974C12.4902 4.12735 13.3728 3.27561 14.4268 2.68866C15.4807 2.10171 16.6696 1.79986 17.8758 1.81291C19.0821 1.82595 20.2642 2.15346 21.3052 2.76307C22.3462 3.37268 23.2102 4.24331 23.8118 5.28896C25.9654 9.11529 27.9683 13.0278 30.0358 16.9044L34.458 25.2821C35.0183 26.2974 35.3099 27.4391 35.3051 28.5987Z" fill="black"/>
<path d="M15.3412 27.7946C15.3478 28.8016 15.1555 29.8001 14.7751 30.7325C14.3947 31.665 13.8339 32.5131 13.1248 33.2282C12.4157 33.9433 11.5724 34.5113 10.6431 34.8995C9.71392 35.2877 8.71715 35.4885 7.7101 35.4904C5.67763 35.4904 3.72734 34.688 2.28346 33.2576C0.839586 31.8271 0.0189243 29.8844 0 27.852C0.00559921 25.8202 0.812298 23.8725 2.24502 22.4317C3.67773 20.9909 5.62086 20.1733 7.65267 20.1563C8.65918 20.1525 9.65656 20.3472 10.5878 20.7291C11.5191 21.111 12.3659 21.6727 13.08 22.382C13.794 23.0914 14.3612 23.9346 14.7492 24.8633C15.1372 25.792 15.3384 26.7881 15.3412 27.7946Z" fill="black"/>
<path d="M94.9904 3.031H94.7607L94.4736 2.70077H94.2941V3.031H94.1074V2.04031H94.574C94.6198 2.03632 94.6658 2.0419 94.7093 2.0567C94.7527 2.0715 94.7926 2.0952 94.8264 2.12627C94.8601 2.15734 94.887 2.19511 94.9054 2.23717C94.9238 2.27923 94.9332 2.32465 94.933 2.37054C94.9374 2.44411 94.914 2.51664 94.8675 2.5738C94.8209 2.63095 94.7547 2.66858 94.6817 2.67923L94.9832 3.01664L94.9904 3.031ZM94.2725 2.21261V2.52848H94.5525C94.5744 2.53048 94.5965 2.52788 94.6174 2.52084C94.6382 2.51381 94.6574 2.50249 94.6736 2.48762C94.6898 2.47275 94.7027 2.45465 94.7116 2.43449C94.7204 2.41433 94.7249 2.39255 94.7248 2.37054C94.7249 2.34854 94.7204 2.32675 94.7116 2.30659C94.7027 2.28643 94.6898 2.26834 94.6736 2.25347C94.6574 2.2386 94.6382 2.22728 94.6174 2.22024C94.5965 2.21321 94.5744 2.21061 94.5525 2.21261H94.2725Z" fill="black"/>
<path d="M94.4884 3.38699C94.2599 3.38699 94.0408 3.29623 93.8793 3.13467C93.7177 2.97312 93.627 2.754 93.627 2.52553C93.627 2.29705 93.7177 2.07794 93.8793 1.91638C94.0408 1.75483 94.2599 1.66406 94.4884 1.66406C94.7169 1.66406 94.936 1.75483 95.0976 1.91638C95.2591 2.07794 95.3499 2.29705 95.3499 2.52553C95.3499 2.754 95.2591 2.97312 95.0976 3.13467C94.936 3.29623 94.7169 3.38699 94.4884 3.38699ZM94.4884 1.7861C94.298 1.7861 94.1154 1.86174 93.9808 1.99637C93.8462 2.131 93.7705 2.3136 93.7705 2.50399C93.7705 2.69439 93.8462 2.87698 93.9808 3.01161C94.1154 3.14624 94.298 3.22188 94.4884 3.22188C94.6788 3.22188 94.8614 3.14624 94.996 3.01161C95.1307 2.87698 95.2063 2.69439 95.2063 2.50399C95.2063 2.3136 95.1307 2.131 94.996 1.99637C94.8614 1.86174 94.6788 1.7861 94.4884 1.7861Z" fill="black"/>
</g>
<defs>
<clipPath id="clip0_9879_18448">
<rect width="95.3496" height="35.5569" fill="white"/>
</clipPath>
</defs>
</svg>
