<svg width="97" height="36" viewBox="0 0 97 36" fill="none" xmlns="http://www.w3.org/2000/svg">
<g clip-path="url(#clip0_11476_524)">
<path d="M49.2925 9.45327H47.4188L47.2752 8.68514C46.9481 9.07267 46.5156 9.35695 46.0301 9.50349C45.5446 9.65003 45.027 9.65254 44.5401 9.51071C43.9266 9.33264 43.3863 8.96252 42.9987 8.45472C42.611 7.94691 42.3964 7.32818 42.3864 6.68941C42.3193 6.00023 42.4738 5.30759 42.8276 4.71234C43.1814 4.11709 43.7159 3.65031 44.3534 3.37996C44.8917 3.11303 45.4907 2.99242 46.0903 3.03023C46.6899 3.06804 47.269 3.26294 47.7695 3.59537C48.27 3.92779 48.6741 4.38604 48.9415 4.92409C49.2088 5.46214 49.3299 6.06106 49.2925 6.6607C49.2997 7.55805 49.2925 8.48413 49.2925 9.45327ZM45.8395 4.77266C45.6366 4.76582 45.4346 4.80208 45.2468 4.87904C45.059 4.95599 44.8896 5.0719 44.7498 5.2191C44.6101 5.36631 44.5031 5.54148 44.4361 5.73305C44.369 5.92462 44.3433 6.12824 44.3606 6.33047C44.3452 6.53281 44.3729 6.73611 44.4418 6.92698C44.5107 7.11784 44.6193 7.29194 44.7604 7.43778C44.9014 7.58362 45.0718 7.6979 45.2603 7.77308C45.4488 7.84826 45.6511 7.88263 45.8538 7.87392C46.0549 7.87212 46.2536 7.83012 46.4382 7.75038C46.6227 7.67064 46.7895 7.55478 46.9286 7.40962C47.0678 7.26447 47.1765 7.09294 47.2483 6.90514C47.3202 6.71735 47.3537 6.51707 47.347 6.31611C47.3508 6.11539 47.3147 5.91592 47.2407 5.72929C47.1668 5.54265 47.0564 5.37259 46.9162 5.22897C46.7759 5.08536 46.6085 4.97106 46.4236 4.89272C46.2388 4.81438 46.0402 4.77357 45.8395 4.77266Z" fill="white"/>
<path d="M68.1523 3.18614L68.26 4.00453C68.3533 3.91839 68.4323 3.86813 68.4897 3.8107C68.8113 3.44828 69.2361 3.19285 69.707 3.07865C70.1779 2.96446 70.6724 2.99695 71.1244 3.17178C71.5699 3.30841 71.9613 3.58145 72.2434 3.95239C72.5254 4.32333 72.6839 4.77346 72.6965 5.2393C72.7755 6.61764 72.6965 8.01034 72.6965 9.43175H70.7798C70.7798 8.29031 70.7798 7.16323 70.7798 6.03615C70.8119 5.7829 70.7588 5.52616 70.6288 5.30645C70.4988 5.08675 70.2993 4.91662 70.0619 4.82292C69.8112 4.71172 69.5292 4.69327 69.2662 4.77086C69.0031 4.84845 68.7763 5.01703 68.6261 5.24647C68.3944 5.59846 68.256 6.00362 68.2241 6.42381C68.1667 7.41449 68.2241 8.41235 68.2241 9.44611H66.293V3.18614H68.1523Z" fill="white"/>
<path d="M60.9526 6.96979C61.0083 7.1761 61.1063 7.36858 61.2403 7.53506C61.3743 7.70154 61.5414 7.83837 61.731 7.9369C61.9207 8.03543 62.1287 8.0935 62.3419 8.10745C62.5552 8.12139 62.769 8.0909 62.9698 8.0179C63.9533 7.76664 64.0969 7.79536 65.0302 8.37684C64.3697 9.51828 62.252 9.93466 60.7229 9.21677C59.9871 8.85067 59.4198 8.21621 59.1379 7.44419C58.8561 6.67216 58.8812 5.82143 59.2081 5.06739C59.5286 4.26665 60.1497 3.62307 60.9385 3.27427C61.7273 2.92547 62.6213 2.89913 63.4293 3.20089C64.2002 3.43062 64.8492 3.95551 65.2351 4.66135C65.6209 5.36718 65.7124 6.19684 65.4896 6.96979H60.9526ZM63.6231 5.70631C63.6329 5.53144 63.6034 5.3566 63.5366 5.19468C63.4698 5.03277 63.3676 4.8879 63.2373 4.77078C63.1071 4.65365 62.9523 4.56725 62.7842 4.51795C62.6162 4.46864 62.4392 4.45769 62.2663 4.4859C62.1013 4.47224 61.9353 4.4942 61.7794 4.5503C61.6236 4.60639 61.4817 4.69531 61.3633 4.81104C61.2448 4.92677 61.1526 5.0666 61.0929 5.22106C61.0332 5.37552 61.0074 5.541 61.0172 5.70631H63.6231Z" fill="white"/>
<path d="M94.1764 6.97074H89.7112C89.6997 7.2146 89.7793 7.45401 89.9345 7.64242C90.0898 7.83083 90.3095 7.95477 90.5511 7.99014C90.9028 8.10832 91.2834 8.10832 91.6351 7.99014C92.5038 7.48762 93.0709 8.07628 93.7888 8.34908C92.9129 9.61974 90.6875 9.95714 89.1871 9.06697C88.5076 8.62634 88.0152 7.94997 87.8044 7.16802C87.5937 6.38608 87.6796 5.55383 88.0457 4.83144C88.4367 4.06351 89.1067 3.47428 89.9183 3.18461C90.7299 2.89495 91.6216 2.92679 92.4104 3.27363C93.1132 3.55817 93.6841 4.09532 94.0109 4.77947C94.3377 5.46361 94.3967 6.24526 94.1764 6.97074ZM89.7183 5.68572H92.3171C92.3336 5.52357 92.3141 5.35976 92.2599 5.20603C92.2057 5.05231 92.1182 4.91247 92.0036 4.79653C91.8891 4.68059 91.7503 4.59141 91.5972 4.53539C91.4441 4.47937 91.2806 4.4579 91.1182 4.4725C90.9413 4.44353 90.7602 4.45434 90.5881 4.50416C90.4159 4.55399 90.257 4.64156 90.1229 4.76051C89.9888 4.87946 89.8829 5.0268 89.8129 5.19181C89.743 5.35683 89.7107 5.53537 89.7183 5.71444V5.68572Z" fill="white"/>
<path d="M80.9023 3.17325H83.0057L84.4415 7.17187C84.7861 6.18837 85.0948 5.33408 85.3891 4.4798C85.8486 3.14453 85.8414 3.14453 87.2341 3.14453H87.952C87.9291 3.28031 87.8979 3.41457 87.8587 3.54655C87.1408 5.36998 86.3583 7.18623 85.6332 9.01684C85.599 9.16564 85.5114 9.29675 85.3871 9.38537C85.2627 9.47399 85.1102 9.514 84.9584 9.49783C83.5226 9.49783 83.5226 9.49783 82.9555 8.14102C82.3525 6.66218 81.7423 5.18333 81.1393 3.6973C81.0172 3.53937 80.9741 3.38143 80.9023 3.17325Z" fill="white"/>
<path d="M52.1219 4.73164C52.1219 5.61464 52.1219 6.39714 52.1219 7.17246C52.1208 7.28677 52.1452 7.39989 52.1933 7.50359C52.2414 7.60728 52.3121 7.69893 52.4001 7.77184C52.4882 7.84475 52.5914 7.89709 52.7022 7.92504C52.8131 7.953 52.9287 7.95586 53.0408 7.93342C53.328 7.93342 53.6151 7.84727 53.9669 7.78984C53.9669 8.22057 53.9669 8.62976 53.9669 9.03178C53.9486 9.10949 53.9116 9.18154 53.8591 9.24162C53.8065 9.30169 53.74 9.34796 53.6654 9.37637C53.0391 9.49986 52.401 9.55283 51.763 9.5343C51.3351 9.49346 50.9376 9.29546 50.6472 8.97856C50.3568 8.66166 50.1942 8.24836 50.1908 7.81855C50.1262 5.6649 50.1908 3.51124 50.1908 1.29297H52.1219V3.1164H53.8879V4.73164H52.1219Z" fill="white"/>
<path d="M56.0913 17.3718L56.1559 16.8118H57.0173V17.7379C57.0173 19.346 57.0173 20.9492 57.0173 22.5477C57.0359 23.1506 56.8351 23.7397 56.4523 24.2057C56.0694 24.6718 55.5304 24.9831 54.9355 25.0819C53.3346 25.4193 51.906 24.8019 51.346 23.4882L51.9778 23.1364C53.0546 24.3855 54.074 24.7158 55.1652 24.1773C55.5592 23.9778 55.8682 23.6431 56.0356 23.2345C56.203 22.8258 56.2177 22.3705 56.0769 21.9519C54.3324 22.9928 52.6382 22.921 51.6045 21.7509C51.1373 21.1938 50.8713 20.4958 50.8492 19.7691C50.827 19.0425 51.0501 18.3295 51.4824 17.7451C52.5521 16.4242 54.0955 16.3021 56.0913 17.3718ZM56.0913 19.6905C56.2564 17.9963 55.0216 17.4005 53.9376 17.3718C53.6389 17.3614 53.3412 17.4133 53.0636 17.5242C52.7861 17.6351 52.5346 17.8025 52.3253 18.0159C52.1159 18.2293 51.9533 18.4839 51.8478 18.7636C51.7422 19.0432 51.696 19.3418 51.7121 19.6403C51.6809 19.9441 51.7166 20.2511 51.8168 20.5396C51.917 20.8281 52.0793 21.0911 52.2921 21.3102C52.505 21.5292 52.7633 21.6989 53.0488 21.8073C53.3344 21.9157 53.6402 21.9601 53.9448 21.9375C55.3734 21.9375 56.1487 21.1335 56.1487 19.6905H56.0913Z" fill="white"/>
<path d="M73.6517 1.30078H75.5613V3.12421H77.356V4.73946H75.6259C75.6259 5.63681 75.6259 6.46956 75.6259 7.29513C75.6259 7.75458 76.0279 7.94841 76.473 7.93405C76.7602 7.93405 77.0473 7.8479 77.4278 7.79047C77.453 8.19688 77.453 8.60447 77.4278 9.01088C77.4092 9.09591 77.3701 9.17508 77.3137 9.24142C77.2574 9.30776 77.1856 9.35925 77.1047 9.39136C76.5125 9.51505 75.9076 9.56807 75.3029 9.54929C74.8761 9.51664 74.4758 9.32947 74.1772 9.02287C73.8785 8.71627 73.7019 8.31129 73.6804 7.8838C73.623 5.70142 73.6517 3.51187 73.6517 1.30078Z" fill="white"/>
<path d="M58.5835 7.7892C58.5835 7.93278 58.5835 8.03329 58.5835 8.12661C58.5835 9.43316 58.5117 9.56238 57.1477 9.56238C55.6186 9.61981 54.8002 8.91629 54.7715 7.40872C54.7715 5.38429 54.7715 3.35267 54.7715 1.28516H56.7098V3.12294H58.5045V4.73101H56.8103C56.8103 5.60683 56.7744 6.42522 56.8103 7.23643C56.8103 7.72459 57.2051 7.95432 57.6789 7.91124C57.9823 7.886 58.2842 7.84526 58.5835 7.7892Z" fill="white"/>
<path d="M44.2313 32.6216V35.5506H43.3555V28.0415C44.9276 28.0415 46.4926 27.9482 48.0361 28.0415C48.3104 28.0768 48.5749 28.1661 48.8145 28.3042C49.0542 28.4422 49.2641 28.6263 49.4322 28.8458C49.6004 29.0654 49.7235 29.316 49.7943 29.5833C49.8652 29.8506 49.8825 30.1293 49.8452 30.4033C49.8303 30.976 49.5937 31.5206 49.1853 31.9223C48.7769 32.3241 48.2285 32.5516 47.6556 32.557C46.7511 32.6001 45.8537 32.557 44.9492 32.557L44.2313 32.6216ZM44.2672 31.7099C45.5091 31.7099 46.7008 31.7817 47.8566 31.7099C48.5745 31.6524 48.9406 30.992 48.8975 30.2741C48.8545 29.5562 48.474 28.9604 47.7776 28.9173C46.6147 28.8599 45.4445 28.9173 44.2457 28.9173L44.2672 31.7099Z" fill="white"/>
<path d="M42.4512 22.4689C43.0398 21.1695 43.6213 19.8701 44.21 18.5779C44.7125 17.458 45.2079 16.3309 45.7391 15.2254C45.8066 15.1329 45.8953 15.058 45.9977 15.0068C46.1001 14.9556 46.2133 14.9296 46.3278 14.9311C46.4422 14.924 46.5566 14.9444 46.6615 14.9906C46.7665 15.0368 46.8588 15.1075 46.9308 15.1967C48.0507 17.6016 49.1347 20.0209 50.2259 22.4402C49.4075 22.6771 49.3285 22.6412 49.0342 21.9663C48.948 21.7653 48.8404 21.5787 48.7757 21.3777C48.7415 21.2366 48.655 21.1138 48.5338 21.0338C48.4126 20.9539 48.2656 20.9229 48.1225 20.9469C46.9451 20.9469 45.7678 20.9469 44.5977 20.9469C44.2172 20.9469 44.009 21.0546 43.8798 21.4136C43.8295 21.5787 43.7146 21.7294 43.6716 21.8946C43.5495 22.555 43.126 22.6842 42.4512 22.4689ZM46.3493 15.8715L44.4828 20.1142H48.1943L47.9861 19.583C47.4764 18.3913 46.9595 17.1996 46.3708 15.8715H46.3493Z" fill="white"/>
<path d="M80.4996 33.0092H75.4744C75.4486 33.3946 75.547 33.7782 75.7549 34.1037C75.9629 34.4292 76.2696 34.6796 76.6302 34.8183C77.7501 35.2849 78.7838 34.9618 79.753 33.806L80.3632 34.2009C79.7099 35.6366 77.7214 36.053 76.3789 35.5505C75.6526 35.2613 75.0665 34.7019 74.7439 33.9897C74.4213 33.2776 74.3872 32.4681 74.6488 31.7313C74.8816 30.996 75.3867 30.3775 76.0607 30.0024C76.7347 29.6274 77.5265 29.5242 78.2741 29.7141C78.9986 29.87 79.6347 30.3 80.0494 30.9141C80.4642 31.5282 80.6255 32.2789 80.4996 33.0092ZM79.6022 32.2913C79.5819 31.7809 79.3651 31.298 78.9973 30.9435C78.6294 30.589 78.1389 30.3903 77.628 30.3889C77.3636 30.3703 77.098 30.4041 76.8466 30.4883C76.5952 30.5724 76.3628 30.7053 76.1628 30.8793C75.9628 31.0533 75.799 31.2651 75.6809 31.5024C75.5628 31.7398 75.4926 31.9981 75.4744 32.2626L79.6022 32.2913Z" fill="white"/>
<path d="M64.5851 19.9939H59.4881C59.4792 20.4069 59.6065 20.8115 59.8505 21.1449C60.0944 21.4784 60.4414 21.7223 60.8377 21.8388C61.9433 22.2122 62.8406 21.9035 63.8026 20.7764L64.3984 21.164C63.8098 22.4921 62.0007 23.0808 60.3783 22.4993C59.6649 22.2065 59.092 21.6496 58.7791 20.9448C58.4661 20.24 58.4372 19.4416 58.6984 18.716C58.9222 17.9815 59.4191 17.3606 60.0869 16.9814C60.7546 16.6021 61.5423 16.4933 62.2879 16.6772C63.0255 16.8254 63.677 17.2538 64.1053 17.8723C64.5337 18.4908 64.7057 19.2512 64.5851 19.9939ZM59.5025 19.2186H63.7092C63.66 18.6899 63.4085 18.2006 63.0072 17.8529C62.6059 17.5051 62.0859 17.3257 61.5556 17.3521C61.0391 17.3397 60.5376 17.5267 60.1553 17.8742C59.773 18.2218 59.5392 18.7032 59.5025 19.2186Z" fill="white"/>
<path d="M51.7852 31.7944L51.0673 31.615C51.1043 31.253 51.2368 30.9074 51.4512 30.6135C51.6656 30.3196 51.9543 30.088 52.2877 29.9423C52.707 29.745 53.1624 29.6361 53.6255 29.6225C54.0887 29.609 54.5497 29.6909 54.9798 29.8633C55.2738 29.9366 55.5383 30.0985 55.7373 30.3271C55.9363 30.5556 56.0603 30.8398 56.0925 31.1411C56.1571 32.5769 56.0925 34.0629 56.0925 35.5561H55.3746L55.2597 34.9675C54.8687 35.3219 54.3953 35.5732 53.8826 35.6985C53.37 35.8239 52.8341 35.8193 52.3236 35.6854C51.9621 35.6262 51.6312 35.4464 51.3849 35.1753C51.1385 34.9042 50.9912 34.5577 50.9668 34.1922C50.9295 33.836 51.0267 33.4788 51.2392 33.1906C51.4517 32.9024 51.7642 32.704 52.1154 32.6344C52.7472 32.4262 53.4076 32.34 54.0465 32.1605C54.5347 32.0241 55.1736 32.0313 55.1808 31.2919C55.1808 30.8253 54.7142 30.5309 53.9317 30.4448C52.9482 30.3084 52.3021 30.7104 51.7852 31.7944ZM55.2023 32.5123C54.7429 32.6487 54.2834 32.7923 53.8168 32.9215C53.3502 33.0507 52.9697 33.0866 52.5677 33.223C52.1657 33.3594 51.7995 33.625 51.8498 34.1634C51.9 34.7019 52.3092 34.8813 52.7471 34.9388C54.4916 35.2475 55.5038 34.2496 55.2167 32.5123H55.2023Z" fill="white"/>
<path d="M86.1634 16.8195C86.0844 17.0062 86.0198 17.1856 85.9337 17.3507C84.785 19.6623 83.6077 21.9667 82.4878 24.2927C82.2078 24.8742 81.892 25.1757 81.1741 24.9244C81.3827 24.3935 81.6373 23.8819 81.935 23.3953C82.2354 23.0068 82.3984 22.5296 82.3984 22.0385C82.3984 21.5474 82.2354 21.0702 81.935 20.6817C81.2171 19.4613 80.6428 18.1476 80.0039 16.8698C80.8797 16.6616 80.9156 16.6903 81.2674 17.4225C81.8561 18.6358 82.4447 19.8418 83.0908 21.1555L84.8927 17.4728C85.2588 16.719 85.2588 16.7262 86.1634 16.8195Z" fill="white"/>
<path d="M66.2572 16.8058H66.9751L67.0756 17.4232C67.3836 17.1468 67.7433 16.9341 68.1339 16.7974C68.5244 16.6606 68.9382 16.6025 69.3513 16.6263C69.6854 16.6123 70.0188 16.6674 70.3306 16.788C70.6425 16.9085 70.9262 17.0921 71.164 17.3272C71.4017 17.5623 71.5885 17.8438 71.7126 18.1543C71.8368 18.4648 71.8956 18.7975 71.8855 19.1317C71.8855 20.2444 71.8855 21.3572 71.8855 22.5058H71.024C71.024 21.472 71.024 20.4383 71.024 19.4045C71.0552 19.0456 70.9846 18.6852 70.8203 18.3646C70.6561 18.044 70.4048 17.7762 70.0953 17.5918C69.7858 17.4075 69.4306 17.3141 69.0705 17.3224C68.7104 17.3306 68.3599 17.4402 68.0591 17.6385C67.7335 17.8041 67.4638 18.0619 67.2837 18.3798C67.1037 18.6977 67.0214 19.0616 67.0469 19.4261C67.0469 20.4383 67.0469 21.4577 67.0469 22.5058H66.2285L66.2572 16.8058Z" fill="white"/>
<path d="M79.4023 18.6849L78.6844 18.8715C78.5894 18.5841 78.4366 18.3192 78.2355 18.0931C78.0343 17.867 77.789 17.6844 77.5146 17.5567C77.2402 17.4289 76.9426 17.3586 76.6401 17.3502C76.3376 17.3417 76.0365 17.3953 75.7554 17.5075C75.2771 17.6702 74.8711 17.996 74.6087 18.4277C74.3462 18.8595 74.2439 19.3698 74.3197 19.8694C74.335 20.3514 74.5118 20.8144 74.8215 21.1841C75.1313 21.5537 75.5562 21.8087 76.0282 21.9082C77.1984 22.1307 78.0239 21.6856 78.6485 20.4724L79.4023 20.6662C79.2065 21.3375 78.7725 21.9143 78.1816 22.2883C77.5908 22.6624 76.8839 22.808 76.1933 22.6978C75.4324 22.6322 74.7254 22.2782 74.2169 21.7084C73.7085 21.1385 73.437 20.3959 73.4582 19.6325C73.4556 18.8908 73.7279 18.1744 74.2224 17.6216C74.7168 17.0688 75.3985 16.7187 76.1359 16.6389C77.7727 16.4881 79.1295 17.3065 79.4023 18.6849Z" fill="white"/>
<path d="M68.1811 30.4438C68.5938 30.0725 69.0979 29.8176 69.6416 29.7053C70.1853 29.593 70.7491 29.6274 71.2752 29.8049C71.7486 29.9151 72.1709 30.1822 72.4732 30.5627C72.7756 30.9433 72.9404 31.415 72.9407 31.9011C72.9909 33.0928 72.9407 34.2845 72.9407 35.548L72.0936 35.5839V34.2486C72.0936 33.624 72.0936 32.9995 72.0936 32.3749C72.1188 32.1196 72.0885 31.8619 72.0048 31.6194C71.9211 31.3769 71.7861 31.1553 71.6088 30.9699C71.4315 30.7845 71.2163 30.6395 70.9778 30.545C70.7393 30.4505 70.4832 30.4086 70.2271 30.4223C69.9651 30.4037 69.7021 30.4385 69.4539 30.5243C69.2058 30.6102 68.9775 30.7454 68.783 30.9218C68.5885 31.0982 68.4317 31.3122 68.3221 31.5508C68.2125 31.7894 68.1523 32.0478 68.1452 32.3103C68.1093 33.1143 68.1452 33.9184 68.1452 34.7152C68.1452 34.988 68.1452 35.2536 68.1452 35.5551H67.334V29.812L68.0519 29.7762L68.1811 30.4438Z" fill="white"/>
<path d="M78.3457 3.38281H80.2337V9.46331H78.3457V3.38281Z" fill="white"/>
<path d="M61.877 30.5034V29.8358L63.1045 29.7784V28.5508H63.9875V29.7855H65.8325V30.5393H63.9875C63.9875 31.8531 63.9875 33.0806 63.9875 34.301C63.9875 34.4805 64.3249 34.7318 64.5547 34.8107C64.8522 34.8545 65.1545 34.8545 65.452 34.8107V35.6004C64.9621 35.594 64.4731 35.558 63.9875 35.4927C63.7429 35.4487 63.5246 35.3124 63.3776 35.112C63.2307 34.9116 63.1663 34.6624 63.1979 34.4159C63.1979 33.3606 63.1548 32.3053 63.1979 31.2572C63.1979 30.7044 63.0758 30.446 62.48 30.5393C62.2783 30.5447 62.0766 30.5327 61.877 30.5034Z" fill="white"/>
<path d="M82.1875 29.8507C82.5895 29.7933 82.9915 29.6425 83.0633 30.2455C83.3787 29.9826 83.7586 29.8086 84.1637 29.7417C84.5689 29.6748 84.9846 29.7174 85.3677 29.8651L85.2098 30.5829C85.0088 30.5829 84.8437 30.5829 84.6714 30.5829C84.4652 30.5414 84.2523 30.5482 84.0492 30.6026C83.846 30.657 83.6583 30.7577 83.5005 30.8967C83.3427 31.0357 83.2192 31.2093 83.1396 31.4039C83.0601 31.5986 83.0266 31.809 83.0418 32.0187C83.0418 32.995 83.0418 33.9714 83.0418 34.9477V35.5364H82.1947L82.1875 29.8507Z" fill="white"/>
<path d="M57.9082 29.8351H58.662L58.741 30.316C59.0471 30.03 59.4277 29.8359 59.839 29.7559C60.2503 29.6759 60.6758 29.7133 61.0669 29.8638L60.9161 30.5817C60.8013 30.5817 60.7008 30.5817 60.6075 30.5817C59.3081 30.474 58.7553 30.9621 58.7338 32.2687C58.7338 33.3383 58.7338 34.4224 58.7338 35.5207H57.9082V29.8351Z" fill="white"/>
<path d="M79.3377 0.352783C79.494 0.34699 79.6498 0.372789 79.7959 0.428634C79.9421 0.48448 80.0754 0.569226 80.188 0.677801C80.3006 0.786376 80.3901 0.916547 80.4512 1.06053C80.5124 1.20451 80.5438 1.35934 80.5437 1.51576C80.5199 1.82039 80.38 2.10424 80.1528 2.30865C79.9257 2.51306 79.6287 2.62242 79.3233 2.61413C79.1668 2.62387 79.0099 2.60167 78.8623 2.54887C78.7146 2.49607 78.5793 2.41378 78.4644 2.30699C78.3496 2.20021 78.2577 2.07118 78.1943 1.92775C78.1309 1.78432 78.0973 1.62949 78.0957 1.47269C78.097 1.31543 78.131 1.16016 78.1955 1.01674C78.2599 0.873314 78.3535 0.744867 78.4703 0.639555C78.5871 0.534243 78.7245 0.454366 78.8739 0.404998C79.0232 0.35563 79.1811 0.337848 79.3377 0.352783Z" fill="white"/>
<path d="M36.1196 28.9503C36.1195 30.4946 35.605 31.995 34.6573 33.2144C33.7096 34.4338 32.3827 35.3027 30.8862 35.6841C29.3653 36.0647 27.7608 35.9243 26.3291 35.2853C24.8975 34.6462 23.7216 33.5455 22.9894 32.1592L15.2506 17.622C14.9022 16.9729 14.4247 16.402 13.8473 15.9444C13.27 15.4868 12.6051 15.1523 11.8936 14.9613C11.1821 14.7703 10.439 14.7269 9.71016 14.8339C8.98128 14.9409 8.28201 15.1959 7.65539 15.5832C7.42634 15.6759 7.18403 15.7317 6.9375 15.7484C6.9638 15.5026 7.02172 15.2614 7.1098 15.0305C8.96194 11.8502 10.7854 8.65564 12.6806 5.5113C13.3047 4.47891 14.1873 3.62717 15.2412 3.04022C16.2952 2.45328 17.484 2.15142 18.6903 2.16447C19.8966 2.17752 21.0786 2.50502 22.1196 3.11463C23.1606 3.72424 24.0246 4.59487 24.6262 5.64052C26.7799 9.46685 28.7828 13.3793 30.8503 17.2559L35.2725 25.6336C35.8328 26.649 36.1244 27.7906 36.1196 28.9503Z" fill="white"/>
<path d="M16.1557 28.1462C16.1623 29.1532 15.9699 30.1516 15.5895 31.0841C15.2092 32.0166 14.6484 32.8647 13.9393 33.5798C13.2302 34.2949 12.3868 34.8628 11.4576 35.251C10.5284 35.6392 9.53161 35.84 8.52455 35.8419C6.49209 35.842 4.54179 35.0396 3.09792 33.6091C1.65404 32.1787 0.833377 30.236 0.814453 28.2036C0.820052 26.1717 1.62675 24.2241 3.05947 22.7833C4.49219 21.3425 6.43531 20.5249 8.46712 20.5079C9.47363 20.5041 10.471 20.6987 11.4023 21.0806C12.3335 21.4625 13.1804 22.0242 13.8944 22.7336C14.6084 23.443 15.1757 24.2861 15.5637 25.2149C15.9517 26.1436 16.1529 27.1397 16.1557 28.1462Z" fill="white"/>
<path d="M95.8049 3.38256H95.5752L95.288 3.05233H95.1085V3.38256H94.9219V2.39188H95.3885C95.4342 2.38789 95.4803 2.39347 95.5237 2.40827C95.5672 2.42307 95.607 2.44676 95.6408 2.47783C95.6746 2.5089 95.7015 2.54667 95.7199 2.58873C95.7382 2.63079 95.7476 2.67621 95.7474 2.72211C95.7518 2.79567 95.7284 2.8682 95.6819 2.92536C95.6354 2.98252 95.5691 3.02014 95.4962 3.03079L95.7977 3.3682L95.8049 3.38256ZM95.087 2.56417V2.88004H95.367C95.3889 2.88204 95.411 2.87944 95.4318 2.8724C95.4527 2.86537 95.4718 2.85405 95.488 2.83918C95.5043 2.82431 95.5172 2.80621 95.526 2.78605C95.5348 2.76589 95.5394 2.74411 95.5393 2.72211C95.5394 2.7001 95.5348 2.67832 95.526 2.65816C95.5172 2.63799 95.5043 2.6199 95.488 2.60503C95.4718 2.59016 95.4527 2.57884 95.4318 2.5718C95.411 2.56477 95.3889 2.56217 95.367 2.56417H95.087Z" fill="white"/>
<path d="M95.3029 3.73855C95.0744 3.73855 94.8553 3.64779 94.6937 3.48624C94.5322 3.32468 94.4414 3.10556 94.4414 2.87709C94.4414 2.64861 94.5322 2.4295 94.6937 2.26794C94.8553 2.10639 95.0744 2.01563 95.3029 2.01562C95.5313 2.01563 95.7505 2.10639 95.912 2.26794C96.0736 2.4295 96.1643 2.64861 96.1643 2.87709C96.1643 3.10556 96.0736 3.32468 95.912 3.48624C95.7505 3.64779 95.5313 3.73855 95.3029 3.73855ZM95.3029 2.13767C95.1125 2.13767 94.9299 2.2133 94.7952 2.34793C94.6606 2.48256 94.585 2.66516 94.585 2.85555C94.585 3.04595 94.6606 3.22855 94.7952 3.36318C94.9299 3.49781 95.1125 3.57344 95.3029 3.57344C95.4933 3.57344 95.6759 3.49781 95.8105 3.36318C95.9451 3.22855 96.0207 3.04595 96.0207 2.85555C96.0207 2.66516 95.9451 2.48256 95.8105 2.34793C95.6759 2.2133 95.4933 2.13767 95.3029 2.13767Z" fill="white"/>
</g>
<defs>
<clipPath id="clip0_11476_524">
<rect width="95.3496" height="35.5569" fill="white" transform="translate(0.814453 0.351562)"/>
</clipPath>
</defs>
</svg>
