<svg width="140" height="25" viewBox="0 0 140 25" fill="none" xmlns="http://www.w3.org/2000/svg">
<path fill-rule="evenodd" clip-rule="evenodd" d="M139.252 3.88672L138.335 6.30496H138.319L137.387 3.88672H136.641V7.16028H137.045V4.22886H137.06L138.188 7.16028H138.452L139.579 4.22886H139.595V7.16028H139.999V3.88672H139.252ZM133.547 3.88672V4.19778H134.589V7.16032H134.993V4.19778H136.034V3.88676H133.547V3.88672Z" fill="#999999"/>
<path fill-rule="evenodd" clip-rule="evenodd" d="M88.4053 0.644531V5.31987C88.4053 5.85332 88.471 6.58038 88.6025 7.50069H88.4634C87.582 6.2555 86.2983 5.63304 84.6128 5.63304C83.0048 5.63304 81.7464 6.21883 80.8378 7.39034C79.9294 8.56231 79.4753 10.1997 79.4753 12.3034C79.4753 14.3996 79.9235 16.0273 80.8205 17.1877C81.7172 18.3477 82.9661 18.9276 84.5666 18.9276C86.2521 18.9276 87.5317 18.2898 88.4053 17.0135H88.5329L89.0086 18.6957H91.1424V0.644531H88.4053ZM83.0357 15.604C82.533 14.8577 82.2819 13.773 82.2819 12.3499C82.2819 10.9114 82.5408 9.80359 83.0588 9.02621C83.5768 8.2491 84.3153 7.86031 85.274 7.86031C86.3949 7.86031 87.2183 8.20076 87.7444 8.88129C88.2702 9.56169 88.533 10.7103 88.533 12.3268V12.7095C88.5172 14.1249 88.2546 15.1478 87.7444 15.7781C87.2341 16.4083 86.4181 16.7235 85.2971 16.7235C84.2921 16.7235 83.5383 16.3505 83.0357 15.604V15.604ZM48.049 18.6957H50.7744V0.644531H48.0491V18.6957H48.049ZM37.5585 2.54718C36.3368 3.25091 35.4034 4.2641 34.7578 5.58638C34.1121 6.90909 33.7891 8.45191 33.7891 10.2153C33.7891 13.0149 34.4541 15.167 35.784 16.6712C37.1139 18.1756 39.0199 18.9276 41.5017 18.9276C43.187 18.9276 44.695 18.6765 46.0247 18.1736V15.7956C45.2979 16.0195 44.5981 16.2034 43.9255 16.3464C43.2529 16.4898 42.5571 16.5613 41.8381 16.5613C40.1755 16.5613 38.9056 16.0273 38.0281 14.9601C37.1509 13.8927 36.7118 12.319 36.7118 10.2386C36.7118 8.25082 37.1681 6.69246 38.0804 5.56327C38.9927 4.43408 40.2452 3.86967 41.8381 3.86967C42.5416 3.86967 43.2123 3.97211 43.8501 4.17703C44.488 4.38204 45.093 4.61984 45.6652 4.89044L46.6625 2.58196C45.1936 1.85494 43.593 1.49142 41.8612 1.49142C40.2143 1.49142 38.78 1.84328 37.5584 2.54722L37.5585 2.54718ZM98.0959 1.66552L91.752 18.6957H94.6747L96.333 13.9858H102.816L104.509 18.6957H107.455L101.111 1.66548H98.0959L98.0959 1.66552ZM98.6759 7.17586C99.0779 6.04667 99.3833 5.00644 99.592 4.05522C99.6695 4.36452 99.8104 4.85179 100.015 5.51683C100.22 6.18208 100.381 6.66935 100.497 6.97864L102.085 11.5959H97.1449L98.6759 7.17586ZM124.25 7.58191H124.111C123.918 6.67714 123.79 6.10473 123.728 5.86499H121.524V24.4034H124.25V19.1482C124.25 18.916 124.196 18.2587 124.088 17.176H124.25C125.147 18.344 126.407 18.9276 128.031 18.9276C129.631 18.9276 130.886 18.34 131.794 17.1643C132.703 15.9889 133.157 14.3532 133.157 12.2573C133.157 10.1613 132.71 8.53335 131.817 7.37303C130.924 6.21298 129.678 5.63304 128.077 5.63304C126.376 5.63304 125.1 6.28253 124.25 7.58191ZM124.992 15.6502C124.498 14.9504 124.25 13.8195 124.25 12.2573V11.8512C124.25 10.4591 124.5 9.44569 124.998 8.81157C125.497 8.17761 126.287 7.86035 127.37 7.86035C128.352 7.86035 129.096 8.22964 129.602 8.96837C130.109 9.70683 130.362 10.7954 130.362 12.2339C130.362 13.6646 130.107 14.7668 129.596 15.5403C129.086 16.3137 128.359 16.7004 127.416 16.7004C126.295 16.7004 125.487 16.3505 124.992 15.6502ZM110.79 7.58196H110.651C110.458 6.67718 110.33 6.10477 110.268 5.86503H108.065V24.4034H110.79V19.1482C110.79 18.916 110.736 18.2587 110.628 17.176H110.79C111.687 18.344 112.947 18.9276 114.571 18.9276C116.171 18.9276 117.426 18.34 118.335 17.1643C119.243 15.9889 119.697 14.3532 119.697 12.2573C119.697 10.1613 119.251 8.53335 118.358 7.37303C117.465 6.21298 116.218 5.63304 114.617 5.63304C112.916 5.63304 111.641 6.28253 110.79 7.58191V7.58196ZM111.532 15.6503C111.038 14.9504 110.79 13.8195 110.79 12.2573V11.8512C110.79 10.4591 111.04 9.44574 111.538 8.81161C112.037 8.17765 112.828 7.86039 113.91 7.86039C114.892 7.86039 115.636 8.22969 116.143 8.96841C116.649 9.70687 116.902 10.7954 116.902 12.234C116.902 13.6647 116.647 14.7669 116.137 15.5403C115.626 16.3138 114.9 16.7004 113.956 16.7004C112.835 16.7004 112.027 16.3505 111.532 15.6503ZM54.1677 7.3847C53.1008 8.55258 52.5675 10.1766 52.5675 12.2573C52.5675 13.5951 52.8145 14.7707 53.3096 15.7839C53.8043 16.7969 54.5119 17.5742 55.4317 18.1158C56.352 18.6572 57.4111 18.9276 58.6095 18.9276C60.5272 18.9276 62.0231 18.34 63.0979 17.1643C64.1726 15.9889 64.7098 14.3532 64.7098 12.2573C64.7098 10.2308 64.169 8.62016 63.0863 7.42533C62.0039 6.23045 60.5349 5.63304 58.6791 5.63304C56.7386 5.63304 55.2348 6.21685 54.1678 7.3847H54.1677ZM55.3738 12.2573C55.3738 10.8418 55.631 9.75521 56.1452 8.99729C56.6593 8.23937 57.4884 7.86031 58.6328 7.86031C60.813 7.86031 61.9032 9.32604 61.9032 12.2573C61.9032 15.2191 60.8208 16.7004 58.6559 16.7004C56.4678 16.7004 55.3738 15.2191 55.3738 12.2572V12.2573ZM74.9572 5.86499V12.2573C74.9572 13.8659 74.6882 15.0124 74.1512 15.6967C73.6138 16.3814 72.773 16.7235 71.6287 16.7235C70.7704 16.7235 70.1404 16.4781 69.7383 15.9867C69.3363 15.4958 69.1353 14.7593 69.1353 13.777V5.86495H66.3865V14.2525C66.3865 15.8225 66.7691 16.9941 67.5348 17.7675C68.3003 18.541 69.46 18.9276 71.014 18.9276C71.911 18.9276 72.7092 18.7574 73.4089 18.4172C74.1086 18.077 74.6478 17.609 75.0268 17.0135H75.166L75.5489 18.6957H77.6943V5.86499H74.9572Z" fill="black"/>
<path fill-rule="evenodd" clip-rule="evenodd" d="M13.7778 0C17.2535 0 20.2811 2.0972 21.5699 5.13821L21.6747 5.16958C25.1259 6.22638 27.635 9.41971 27.635 13.1981C27.635 17.8449 23.843 21.5978 19.1823 21.5978H8.89111C8.72801 21.6094 8.57946 21.6106 8.40427 21.5977C3.76589 21.5719 0 17.8288 0 13.1981C0 9.45565 2.46322 6.28242 5.87067 5.19752L5.97424 5.16528L6.01621 5.06706C7.32177 2.06457 10.3291 0 13.7778 0ZM13.7778 1.45661C10.6776 1.45661 8.01036 3.4682 7.10663 6.29542L7.07753 6.38895L6.98145 6.40862C3.81935 7.07963 1.45445 9.86786 1.45445 13.1981C1.45445 16.9982 4.52904 20.0791 8.33703 20.1403L8.4576 20.1405L8.50017 20.1442L8.56715 20.1483C8.65453 20.1521 8.73602 20.1495 8.83429 20.1412H19.1823C23.0435 20.1412 26.1805 17.0365 26.1805 13.1981C26.1805 9.80166 23.7224 6.97384 20.4731 6.37276C19.5936 3.50491 16.9061 1.45661 13.7778 1.45661ZM13.7778 2.91322C10.9506 2.91322 8.61781 5.00762 8.27694 7.71419C5.29654 7.80605 2.90895 10.2261 2.90895 13.1981C2.90895 16.1979 5.34156 18.6354 8.36096 18.6839L8.49311 18.6849L8.55152 18.687C8.62879 18.6915 8.62113 18.6995 8.76684 18.6846H19.1823L19.274 18.6839C22.2934 18.6354 24.726 16.1979 24.726 13.1981C24.726 10.1996 22.2958 7.763 19.2783 7.7123C18.9366 5.00667 16.6042 2.91322 13.7778 2.91322Z" fill="black"/>
</svg>
