<svg width="20" height="21" viewBox="0 0 20 21" fill="none" xmlns="http://www.w3.org/2000/svg">
<circle cx="10" cy="10.0039" r="10" fill="#214FF1"/>
<path d="M9.80469 9.50391C11.3235 9.50391 12.5547 8.27269 12.5547 6.75391C12.5547 5.23512 11.3235 4.00391 9.80469 4.00391C8.2859 4.00391 7.05469 5.23512 7.05469 6.75391C7.05469 8.27269 8.2859 9.50391 9.80469 9.50391Z" stroke="white"/>
<path d="M12.5539 10.6016H12.7475C13.1496 10.6017 13.5378 10.7486 13.8392 11.0148C14.1406 11.2809 14.3345 11.648 14.3843 12.047L14.5994 13.7652C14.6187 13.9199 14.6049 14.0771 14.5589 14.2261C14.5129 14.3752 14.4357 14.5127 14.3324 14.6297C14.2292 14.7466 14.1022 14.8402 13.96 14.9043C13.8178 14.9685 13.6636 15.0016 13.5076 15.0016H6.10024C5.94425 15.0016 5.79004 14.9685 5.64783 14.9043C5.50563 14.8402 5.3787 14.7466 5.27545 14.6297C5.1722 14.5127 5.095 14.3752 5.04897 14.2261C5.00295 14.0771 4.98915 13.9199 5.00849 13.7652L5.22299 12.047C5.27287 11.6478 5.46687 11.2806 5.7685 11.0144C6.07013 10.7482 6.45861 10.6014 6.86089 10.6016H7.05394" stroke="white" stroke-linecap="round" stroke-linejoin="round"/>
</svg>
