<svg width="20" height="21" viewBox="0 0 20 21" fill="none" xmlns="http://www.w3.org/2000/svg">
<circle cx="10" cy="10.0039" r="10" fill="#2CC7D1"/>
<path d="M16.125 5.00391H3.875C3.64294 5.00391 3.42038 5.0917 3.25628 5.24798C3.09219 5.40426 3 5.61623 3 5.83724V14.1706C3 14.3916 3.09219 14.6035 3.25628 14.7598C3.42038 14.9161 3.64294 15.0039 3.875 15.0039H16.125C16.3571 15.0039 16.5796 14.9161 16.7437 14.7598C16.9078 14.6035 17 14.3916 17 14.1706V5.83724C17 5.61623 16.9078 5.40426 16.7437 5.24798C16.5796 5.0917 16.3571 5.00391 16.125 5.00391ZM15.4513 14.1706H4.60125L7.66375 11.1539L7.03375 10.5747L3.875 13.6872V6.47057L9.31313 11.6247C9.47707 11.7799 9.69884 11.8671 9.93 11.8671C10.1612 11.8671 10.3829 11.7799 10.5469 11.6247L16.125 6.34141V13.6331L12.905 10.5664L12.2881 11.1539L15.4513 14.1706ZM4.44813 5.83724H15.4162L9.93 11.0331L4.44813 5.83724Z" fill="white"/>
</svg>
