<svg width="121" height="30" viewBox="0 0 121 30" fill="none" xmlns="http://www.w3.org/2000/svg">
<path d="M0.0078125 28.931V22.5428H2.81732C3.40121 22.4983 3.98335 22.6492 4.47362 22.9723C4.65718 23.1153 4.80423 23.3004 4.90251 23.5123C5.00079 23.7243 5.04745 23.9568 5.03861 24.1906C5.04361 24.4839 4.96865 24.773 4.8219 25.0262C4.64042 25.2994 4.36441 25.4943 4.04793 25.5729C4.4542 25.6416 4.82383 25.8516 5.09279 26.1664C5.3108 26.4611 5.42274 26.822 5.41012 27.1895C5.42712 27.4379 5.38221 27.6867 5.27946 27.9132C5.17671 28.1396 5.01941 28.3365 4.8219 28.4859C4.32105 28.833 3.7171 28.9957 3.11143 28.9466H0.0155538L0.0078125 28.931ZM2.70897 23.6127H1.2926V25.1746H2.76315C3.03613 25.2074 3.31153 25.1379 3.53711 24.9794C3.62088 24.9067 3.68632 24.815 3.72804 24.7118C3.76976 24.6086 3.78655 24.4969 3.77704 24.3858C3.74608 23.886 3.40554 23.6127 2.70897 23.6127ZM3.00307 26.2836H1.2926V27.8455H2.97211C3.69965 27.8455 4.04793 27.5722 4.04793 27.0645C4.05588 26.9529 4.03759 26.841 3.99455 26.7378C3.95151 26.6347 3.88494 26.5433 3.80026 26.471C3.5542 26.3133 3.26136 26.247 2.97211 26.2836H3.00307Z" fill="#151515"/>
<path d="M10.874 29.0678C10.3719 29.0823 9.87431 28.9696 9.42664 28.7398C9.03402 28.5285 8.71722 28.1979 8.52111 27.7949C8.29695 27.3615 8.18513 26.8779 8.19604 26.3892V22.5391H9.51178V26.397C9.48846 26.8013 9.62166 27.1988 9.88329 27.5059C10.0139 27.6447 10.1731 27.753 10.3495 27.8231C10.526 27.8933 10.7156 27.9236 10.9049 27.912H11.0365C11.2243 27.9204 11.4118 27.8886 11.5866 27.8186C11.7613 27.7486 11.9194 27.642 12.0504 27.5059C12.3148 27.2 12.4508 26.8023 12.4296 26.397V22.5391H13.7144V26.397C13.7253 26.8857 13.6135 27.3693 13.3894 27.8027C13.1831 28.1984 12.8688 28.5263 12.4838 28.7477C12.0361 28.9774 11.5385 29.0902 11.0365 29.0757L10.874 29.0678Z" fill="#151515"/>
<path d="M19.1713 29.0689C18.6098 29.0804 18.0526 28.9685 17.5383 28.7409C17.0904 28.5422 16.7031 28.2269 16.416 27.8272L17.2442 26.9837C17.473 27.2759 17.7675 27.5088 18.1033 27.6632C18.4416 27.8061 18.8045 27.8804 19.1713 27.8818H19.3107C20.1388 27.8818 20.5413 27.6319 20.5413 27.179C20.5465 27.1033 20.5346 27.0274 20.5064 26.957C20.4783 26.8866 20.4346 26.8237 20.3787 26.7729C20.2675 26.6585 20.1289 26.5751 19.9763 26.5308C19.8196 26.4732 19.6593 26.4262 19.4964 26.3902L18.5289 26.2028C18.3192 26.1737 18.1139 26.1186 17.9175 26.0388C17.6925 25.9559 17.4771 25.8485 17.2751 25.7186C17.0842 25.5697 16.9216 25.3871 16.7953 25.1797C16.6603 24.9425 16.5933 24.6722 16.6018 24.3988C16.5719 24.0147 16.6789 23.6325 16.9036 23.321C17.1327 23.0213 17.4374 22.7894 17.7859 22.6494C18.2006 22.4782 18.646 22.3958 19.0939 22.4073H19.2255C19.7131 22.4042 20.1958 22.5053 20.6419 22.7041C21.0614 22.9028 21.4276 23.2001 21.71 23.571L20.936 24.3519C20.7361 24.0794 20.4694 23.8641 20.162 23.7271C19.8683 23.5939 19.5469 23.535 19.2255 23.5553H19.0862C18.7808 23.5367 18.476 23.6014 18.2039 23.7428C18.1099 23.7919 18.0309 23.8658 17.975 23.9565C17.9192 24.0472 17.8886 24.1514 17.8866 24.2582C17.8794 24.3559 17.9005 24.4536 17.9472 24.5396C17.9939 24.6255 18.0642 24.6959 18.1497 24.7424C18.3611 24.8511 18.5885 24.9249 18.8231 24.9611L19.7828 25.1485C19.9453 25.1485 20.1311 25.2344 20.3787 25.2813C20.6132 25.3484 20.8373 25.4483 21.0443 25.578C21.2675 25.7191 21.4513 25.9153 21.5784 26.1481C21.7279 26.4314 21.8026 26.7488 21.7951 27.0696C21.8083 27.3499 21.754 27.6292 21.6367 27.8835C21.5194 28.1379 21.3427 28.3597 21.1217 28.53C20.5793 28.898 19.9322 29.0763 19.2797 29.0377H19.1404L19.1713 29.0689Z" fill="#151515"/>
<path d="M24.8203 28.9273V22.5391H26.1361V28.9663L24.8203 28.9273Z" fill="#151515"/>
<path d="M29.5352 28.9273V22.5391H30.9515L33.7688 27.1623V22.5391H35.0227V28.9663H33.6063L30.8354 24.3118V28.9273H29.5352Z" fill="#151515"/>
<path d="M38.4746 28.9273V22.5391H43.219V23.7027H39.7594V25.1631H42.5457V26.3189H39.7594V27.7793H43.2964V28.9429H38.4746V28.9273Z" fill="#151515"/>
<path d="M48.6361 29.0689C48.0744 29.0829 47.5166 28.9709 47.003 28.7409C46.5516 28.5447 46.1611 28.229 45.873 27.8271L46.7089 26.9837C46.934 27.2764 47.2262 27.5095 47.5603 27.6631C47.9012 27.8067 48.2667 27.881 48.6361 27.8818H48.7677C49.5958 27.8818 49.9983 27.6319 49.9983 27.179C50.0035 27.1033 49.9916 27.0273 49.9635 26.957C49.9353 26.8866 49.8916 26.8237 49.8358 26.7729C49.7245 26.6585 49.5859 26.5751 49.4333 26.5307C49.277 26.4721 49.1166 26.4251 48.9534 26.3902L47.9937 26.2028C47.7813 26.1747 47.5732 26.1196 47.3745 26.0388C47.1502 25.9543 46.935 25.847 46.7322 25.7186C46.5412 25.5697 46.3787 25.3871 46.2523 25.1797C46.124 24.9402 46.0599 24.671 46.0665 24.3988C46.0515 24.0285 46.1636 23.6644 46.3839 23.3679C46.6129 23.0682 46.9177 22.8362 47.2662 22.6963C47.6836 22.5251 48.1315 22.4427 48.5819 22.4542H48.7135C49.2011 22.4511 49.6838 22.5522 50.1299 22.7509C50.5517 22.9494 50.9205 23.2466 51.2057 23.6178L50.4317 24.3988C50.2319 24.1262 49.9651 23.9109 49.6577 23.774C49.3823 23.6425 49.08 23.5783 48.7754 23.5866H48.6361C48.3305 23.5659 48.0252 23.6308 47.7538 23.774C47.6584 23.8221 47.5777 23.8955 47.5205 23.9863C47.4632 24.077 47.4315 24.1818 47.4287 24.2894C47.4213 24.3881 47.4431 24.4868 47.4913 24.573C47.5395 24.6592 47.612 24.729 47.6996 24.7736C47.9083 24.8824 48.1331 24.9563 48.3652 24.9923L49.3327 25.1797L49.9209 25.3125C50.1559 25.3782 50.3801 25.4782 50.5865 25.6092C50.8097 25.7503 50.9935 25.9466 51.1205 26.1793C51.2735 26.4613 51.3484 26.7796 51.3373 27.1009C51.3501 27.3802 51.2963 27.6587 51.1805 27.9128C51.0647 28.1669 50.8902 28.3892 50.6716 28.5612C50.1256 28.9277 49.4766 29.1058 48.8219 29.0689H48.6361Z" fill="#151515"/>
<path d="M56.4917 29.069C55.9302 29.0805 55.3729 28.9686 54.8586 28.741C54.4081 28.5467 54.0197 28.2305 53.7363 27.8273L54.5645 26.9838C54.7908 27.2784 55.086 27.5119 55.4236 27.6633C55.7615 27.8076 56.1247 27.882 56.4917 27.8819H56.6232C57.4591 27.8819 57.8616 27.632 57.8616 27.1791C57.8668 27.1034 57.8549 27.0275 57.8267 26.9571C57.7986 26.8867 57.7549 26.8238 57.699 26.773C57.5878 26.6586 57.4492 26.5752 57.2966 26.5309C57.1396 26.4743 56.9793 26.4274 56.8167 26.3903L55.8493 26.2029C55.6394 26.1747 55.4339 26.1196 55.2378 26.0389C55.0128 25.956 54.7974 25.8487 54.5954 25.7187C54.4021 25.5701 54.2369 25.3876 54.1078 25.1798C53.9795 24.9403 53.9155 24.6711 53.9221 24.3989C53.9099 24.0278 54.0247 23.6638 54.2471 23.368C54.4728 23.0648 54.7786 22.8321 55.1295 22.6964C55.544 22.5245 55.9895 22.4421 56.4375 22.4543H56.5768C57.0643 22.4521 57.5468 22.5532 57.9932 22.7511C58.4127 22.9498 58.7789 23.2471 59.0612 23.6179L58.2873 24.3989C58.0879 24.1259 57.821 23.9104 57.5133 23.7741C57.2374 23.644 56.9354 23.5799 56.631 23.5867H56.4917C56.1862 23.568 55.8814 23.6328 55.6093 23.7741C55.5143 23.8219 55.4343 23.8954 55.3782 23.9864C55.3222 24.0775 55.2923 24.1824 55.292 24.2895C55.2849 24.3873 55.3059 24.485 55.3526 24.5709C55.3993 24.6568 55.4697 24.7273 55.5552 24.7737C55.7661 24.8836 55.9936 24.9575 56.2285 24.9924L57.1882 25.1798L57.7764 25.3126C58.0139 25.3781 58.2407 25.4781 58.4498 25.6094C58.6707 25.7532 58.8539 25.9488 58.9838 26.1795C59.1334 26.4627 59.208 26.7801 59.2005 27.101C59.2138 27.3812 59.1594 27.6605 59.0421 27.9149C58.9249 28.1692 58.7482 28.3911 58.5272 28.5614C57.9816 28.9289 57.3323 29.1071 56.6774 29.069H56.5458H56.4917Z" fill="#151515"/>
<path d="M65.8652 28.9296V22.5414H68.6438C68.9757 22.5113 69.3103 22.5483 69.6279 22.6502C69.9455 22.7521 70.2398 22.9169 70.4935 23.1349C70.7007 23.349 70.8624 23.6035 70.9689 23.8828C71.0754 24.1621 71.1243 24.4603 71.1127 24.7593C71.1237 25.057 71.0744 25.3539 70.968 25.6319C70.8615 25.9098 70.7001 26.1629 70.4935 26.3759C70.2398 26.5939 69.9455 26.7586 69.6279 26.8605C69.3103 26.9624 68.9757 26.9995 68.6438 26.9694H67.15V28.9999H65.8652V28.9296ZM68.5122 23.6894H67.2119V25.7745H68.5509C68.8954 25.8029 69.2386 25.706 69.5183 25.5012C69.6229 25.4021 69.7038 25.2803 69.7548 25.145C69.8057 25.0097 69.8254 24.8644 69.8125 24.7203C69.8197 24.5766 69.7973 24.4331 69.7466 24.2986C69.696 24.1642 69.6183 24.0418 69.5183 23.9393C69.223 23.7382 68.8663 23.6496 68.5122 23.6894Z" fill="#151515"/>
<path d="M73.0625 28.9273C73.2483 28.2244 73.465 27.4981 73.7359 26.7719C74.0067 26.0456 74.2389 25.3115 74.5098 24.5852C74.7807 23.8589 75.0748 23.1794 75.3689 22.5312H76.9168C77.211 23.1794 77.5051 23.8823 77.7759 24.5852C78.0468 25.288 78.31 26.0378 78.5499 26.7719C78.7898 27.506 78.9988 28.2244 79.2155 28.9273H77.8224C77.7682 28.6852 77.6908 28.4431 77.6366 28.1463C77.5825 27.8496 77.5051 27.6309 77.4199 27.3654H74.773C74.6956 27.6309 74.6104 27.873 74.5563 28.1463C74.5021 28.4197 74.4247 28.6539 74.3705 28.9273H73.0625ZM75.1754 26.2798H77.1026C76.9478 25.8269 76.8085 25.3661 76.6227 24.9054C76.437 24.4446 76.3054 24.0151 76.1197 23.5855C75.9571 24.0151 75.7714 24.4446 75.6088 24.9054C75.4936 25.3724 75.3488 25.8315 75.1754 26.2798Z" fill="#151515"/>
<path d="M82.1406 28.9284V22.5402H85.012C85.6877 22.4847 86.3593 22.6883 86.8928 23.1103C87.1016 23.2998 87.265 23.5346 87.3709 23.797C87.4769 24.0594 87.5224 24.3427 87.5042 24.6254C87.514 25.0437 87.4038 25.4559 87.1869 25.8124C86.9425 26.1556 86.5951 26.4102 86.1962 26.5387C86.4594 26.9214 86.7302 27.3197 86.9702 27.7258C87.2101 28.1319 87.481 28.5692 87.69 28.9987H86.2581C86.0492 28.5926 85.8324 28.2178 85.5925 27.8117C85.3526 27.4056 85.1359 27.0307 84.9192 26.7261H83.4641V28.9987H82.1406V28.9284ZM84.8418 23.6336H83.4641V25.5547H84.8805C85.2279 25.5833 85.5752 25.4984 85.8711 25.3126C85.9799 25.2275 86.0664 25.1168 86.1231 24.9902C86.1798 24.8636 86.2049 24.725 86.1962 24.5863C86.2055 24.4465 86.1807 24.3065 86.124 24.1786C86.0674 24.0506 85.9806 23.9386 85.8711 23.8522C85.5553 23.6828 85.1985 23.607 84.8418 23.6336Z" fill="#151515"/>
<path d="M92.0939 28.9273V23.6871H90.0352V22.5391H95.4529V23.7261H93.3864V28.9663L92.0939 28.9273Z" fill="#151515"/>
<path d="M98.2324 28.9273V22.5391H99.6488L102.458 27.1623V22.5391H103.72V28.9663H102.296L99.4863 24.3509V28.9663L98.2324 28.9273Z" fill="#151515"/>
<path d="M107.172 28.9273V22.5391H111.909V23.7027H108.457V25.1631H111.243V26.3189H108.457V27.7793H111.986V28.9429H107.172V28.9273Z" fill="#151515"/>
<path d="M115.15 28.9285V22.5403H117.983C118.656 22.4844 119.326 22.6882 119.856 23.1104C120.068 23.2981 120.234 23.5323 120.341 23.795C120.448 24.0578 120.494 24.3419 120.475 24.6255C120.486 25.0449 120.373 25.4581 120.15 25.8125C119.909 26.1589 119.561 26.4145 119.16 26.5388C119.43 26.9215 119.701 27.3198 119.934 27.7259C120.166 28.132 120.437 28.5693 120.653 28.9988H119.214C119.005 28.5927 118.788 28.2179 118.548 27.8118C118.308 27.4057 118.091 27.0308 117.875 26.7262H116.381V28.9988H115.15V28.9285ZM117.852 23.6337H116.435V25.5548H117.852C118.199 25.5834 118.546 25.4985 118.842 25.3127C118.942 25.2198 119.022 25.107 119.077 24.9813C119.132 24.8556 119.16 24.7198 119.16 24.5825C119.16 24.4452 119.132 24.3095 119.077 24.1838C119.022 24.0581 118.942 23.9452 118.842 23.8523C118.538 23.69 118.195 23.6144 117.852 23.6337Z" fill="#151515"/>
<path d="M9.58941 0.43369V2.13617C9.59051 2.16107 9.58645 2.18595 9.5775 2.20919C9.56856 2.23243 9.55492 2.25354 9.53744 2.27117C9.51997 2.2888 9.49905 2.30256 9.47602 2.31159C9.45298 2.32061 9.42834 2.32471 9.40365 2.3236H2.19805V5.78322H8.16531C8.19035 5.78217 8.21534 5.78624 8.23877 5.79519C8.26221 5.80413 8.28361 5.81778 8.30169 5.83529C8.31977 5.8528 8.33415 5.87382 8.34396 5.89709C8.35378 5.92035 8.35882 5.94537 8.3588 5.97066V7.70438C8.35882 7.72966 8.35378 7.75469 8.34396 7.77795C8.33415 7.80121 8.31977 7.82224 8.30169 7.83975C8.28361 7.85726 8.26221 7.8709 8.23877 7.87985C8.21534 7.88879 8.19035 7.89286 8.16531 7.89181H2.19805V13.0305C2.19805 13.0802 2.17848 13.1279 2.14365 13.163C2.10881 13.1982 2.06157 13.2179 2.0123 13.2179H0.193491C0.143487 13.218 0.0954043 13.1985 0.0593322 13.1635C0.0232602 13.1286 0.0020002 13.0809 7.00957e-08 13.0305V0.43369C-2.16918e-05 0.408405 0.00502391 0.38337 0.014839 0.360106C0.0246541 0.336842 0.0390352 0.31583 0.057112 0.298319C0.0751888 0.280809 0.0965851 0.267167 0.120023 0.258221C0.14346 0.249274 0.168454 0.245203 0.193491 0.246256H9.39592C9.51201 0.246256 9.58941 0.324356 9.58941 0.43369Z" fill="#4267B2"/>
<path d="M24.3187 13.1688H22.3218C22.2731 13.1739 22.2241 13.1608 22.1842 13.132C22.1443 13.1033 22.1162 13.0608 22.1051 13.0126C21.8342 11.9583 21.5169 10.8181 21.1377 9.71697H15.0388C14.6595 10.8494 14.3422 11.9583 14.1023 13.0126C14.0898 13.06 14.0613 13.1015 14.0218 13.13C13.9822 13.1585 13.9341 13.1722 13.8856 13.1688H11.9584C11.8268 13.1688 11.7417 13.0907 11.7959 12.9579C13.0407 8.67807 14.6087 4.50075 16.4861 0.462653C16.5105 0.391327 16.5565 0.329566 16.6176 0.286111C16.6788 0.242657 16.7519 0.219717 16.8267 0.220559H19.4272C19.5043 0.212353 19.5818 0.232241 19.6457 0.276638C19.7096 0.321034 19.7556 0.387011 19.7755 0.462653C21.646 4.49831 23.1988 8.67631 24.4193 12.9579C24.5044 13.0751 24.4503 13.1688 24.3187 13.1688ZM20.4488 7.70211C19.7755 5.83562 19.0325 3.96914 18.2817 2.23542H17.8483C17.0743 3.9379 16.3545 5.80439 15.6812 7.70211H20.4488Z" fill="#4267B2"/>
<path d="M27.5762 6.81296C27.5762 2.81447 30.1999 0.00302708 33.9227 0.00302708H34.1936C35.2379 -0.0312036 36.2713 0.225434 37.1806 0.744789C38.0899 1.26414 38.8398 2.02616 39.3482 2.94723C39.3946 3.05657 39.3946 3.16589 39.294 3.22056L37.6842 4.00151C37.6585 4.01832 37.6297 4.02965 37.5996 4.03482C37.5694 4.03999 37.5385 4.03888 37.5088 4.03157C37.4791 4.02425 37.4512 4.01089 37.4267 3.99229C37.4023 3.9737 37.3819 3.95026 37.3668 3.92343C37.0636 3.34461 36.6017 2.86602 36.0363 2.54477C35.4709 2.22351 34.8258 2.07315 34.1781 2.1116H33.9072C31.5853 2.1116 29.9445 4.00151 29.9445 6.73486C29.9445 9.4682 31.4924 11.2956 33.9072 11.2956H34.1781C34.7607 11.3379 35.345 11.2403 35.8831 11.0109C36.4212 10.7815 36.8978 10.4268 37.274 9.97583C37.2895 9.95249 37.3095 9.93251 37.3328 9.91708C37.3561 9.90165 37.3822 9.89109 37.4096 9.88599C37.437 9.8809 37.4651 9.88138 37.4924 9.88742C37.5196 9.89346 37.5453 9.90493 37.5681 9.92116L39.2321 10.7021C39.2564 10.7142 39.2767 10.7333 39.2904 10.7568C39.3042 10.7804 39.3108 10.8075 39.3095 10.8349C39.3095 10.8895 39.3095 10.913 39.2553 10.9676C38.6698 11.7544 37.9025 12.3849 37.0203 12.8041C36.1381 13.2234 35.1677 13.4186 34.1936 13.373H33.9304C30.0993 13.4042 27.5762 10.7802 27.5762 6.81296Z" fill="#4267B2"/>
<path d="M53.8673 11.2656V12.968C53.8684 12.993 53.8643 13.0178 53.8554 13.0411C53.8464 13.0643 53.8328 13.0854 53.8153 13.103C53.7978 13.1207 53.7769 13.1344 53.7539 13.1435C53.7308 13.1525 53.7062 13.1566 53.6815 13.1555H44.0997C44.0747 13.1565 44.0497 13.1524 44.0263 13.1435C44.0028 13.1346 43.9814 13.1209 43.9634 13.1034C43.9453 13.0859 43.9309 13.0649 43.9211 13.0416C43.9113 13.0183 43.9062 12.9933 43.9063 12.968V0.433705C43.9062 0.40842 43.9113 0.383385 43.9211 0.360121C43.9309 0.336856 43.9453 0.315845 43.9634 0.298334C43.9814 0.280824 44.0028 0.267182 44.0263 0.258235C44.0497 0.249289 44.0747 0.245218 44.0997 0.246271H53.519C53.5437 0.245163 53.5683 0.249256 53.5913 0.258283C53.6144 0.26731 53.6353 0.281073 53.6528 0.298704C53.6702 0.316334 53.6839 0.337439 53.6928 0.360681C53.7018 0.383923 53.7058 0.408796 53.7047 0.433705V2.13618C53.7058 2.16109 53.7018 2.18596 53.6928 2.20921C53.6839 2.23245 53.6702 2.25355 53.6528 2.27118C53.6353 2.28881 53.6144 2.30258 53.5913 2.3116C53.5683 2.32063 53.5437 2.32472 53.519 2.32362H46.0811V5.67391H52.1258C52.1758 5.67387 52.2239 5.69337 52.26 5.72831C52.2961 5.76325 52.3173 5.81093 52.3193 5.86134V7.54039C52.3193 7.56568 52.3143 7.59071 52.3045 7.61398C52.2947 7.63724 52.2803 7.65826 52.2622 7.67577C52.2441 7.69328 52.2227 7.70691 52.1993 7.71586C52.1759 7.72481 52.1509 7.72888 52.1258 7.72783H46.0811V11.0781H53.6815C53.7062 11.077 53.7308 11.0811 53.7539 11.0901C53.7769 11.0992 53.7978 11.1129 53.8153 11.1306C53.8328 11.1482 53.8464 11.1693 53.8554 11.1925C53.8643 11.2158 53.8684 11.2406 53.8673 11.2656Z" fill="#4267B2"/>
<path d="M70.3847 9.61774C70.3847 11.8903 68.6742 13.1555 65.6248 13.1555H59.3324C59.3077 13.1566 59.2831 13.1525 59.26 13.1435C59.237 13.1344 59.2161 13.1207 59.1986 13.103C59.1811 13.0854 59.1675 13.0643 59.1586 13.0411C59.1496 13.0178 59.1456 12.993 59.1467 12.968V0.433705C59.1456 0.408796 59.1496 0.383923 59.1586 0.360681C59.1675 0.337439 59.1811 0.316334 59.1986 0.298704C59.2161 0.281073 59.237 0.26731 59.26 0.258283C59.2831 0.249256 59.3077 0.245163 59.3324 0.246271H65.0598C68.0009 0.246271 69.6107 1.43333 69.6107 3.59658C69.6426 4.24581 69.4409 4.88481 69.0426 5.39574C68.6443 5.90668 68.0764 6.2551 67.4436 6.37678C69.5333 6.81411 70.3847 8.02459 70.3847 9.61774ZM65.0366 2.23771H61.337V5.69734H65.0366C66.6929 5.69734 67.4436 5.15849 67.4436 3.96363C67.4436 2.76876 66.6929 2.23771 65.0366 2.23771ZM68.1324 9.4225C68.1324 8.23545 67.3585 7.66535 65.617 7.66535H61.306V11.125H65.6635C67.3894 11.1562 68.1634 10.6174 68.1634 9.43031L68.1324 9.4225Z" fill="#4267B2"/>
<path d="M74.2148 6.7045C74.2148 2.79973 76.7844 0.00390625 80.8013 0.00390625H81.0645C85.0813 0.00390625 87.6509 2.81535 87.6509 6.7045C87.6509 10.5937 85.0813 13.4051 81.0645 13.4051H80.8013C76.7844 13.4051 74.2148 10.5937 74.2148 6.7045ZM81.0645 11.2965C83.6882 11.2965 85.3522 9.4847 85.3522 6.7045C85.3522 3.9243 83.6882 2.11248 81.0645 2.11248H80.8013C78.1776 2.11248 76.5135 3.91649 76.5135 6.7045C76.5135 9.49251 78.1776 11.2965 80.8013 11.2965H81.0645Z" fill="#4267B2"/>
<path d="M91.3516 6.7045C91.3516 2.79973 93.9211 0.00390625 97.938 0.00390625H98.1702C102.187 0.00390625 104.757 2.81535 104.757 6.7045C104.757 10.5937 102.218 13.4051 98.1702 13.4051H97.938C93.9211 13.4051 91.3516 10.5937 91.3516 6.7045ZM98.2321 11.2965C100.856 11.2965 102.512 9.4847 102.512 6.7045C102.512 3.9243 100.856 2.11248 98.2321 2.11248H97.9613C95.3375 2.11248 93.6812 3.91649 93.6812 6.7045C93.6812 9.49251 95.3375 11.2965 97.9613 11.2965H98.2321Z" fill="#4267B2"/>
<path d="M120.553 13.1678H118.231C118.168 13.1759 118.103 13.1655 118.046 13.1378C117.988 13.1102 117.94 13.0663 117.906 13.0116C116.287 11.0949 114.525 9.30647 112.635 7.66202H111.536V12.9803C111.536 13.007 111.531 13.0335 111.52 13.0579C111.509 13.0823 111.494 13.1041 111.474 13.1219C111.454 13.1396 111.431 13.1529 111.405 13.1608C111.38 13.1687 111.353 13.1711 111.327 13.1678H109.555C109.53 13.1688 109.505 13.1647 109.481 13.1558C109.458 13.1468 109.437 13.1332 109.418 13.1157C109.4 13.0982 109.386 13.0772 109.376 13.0539C109.366 13.0306 109.361 13.0056 109.361 12.9803V0.430369C109.361 0.405085 109.366 0.38005 109.376 0.356785C109.386 0.333521 109.4 0.312509 109.418 0.294999C109.437 0.277488 109.458 0.263846 109.481 0.2549C109.505 0.245953 109.53 0.241882 109.555 0.242936H111.374C111.398 0.241827 111.423 0.245921 111.446 0.254948C111.469 0.263974 111.49 0.277738 111.507 0.295368C111.525 0.312999 111.539 0.334104 111.548 0.357346C111.556 0.380587 111.561 0.405461 111.559 0.430369V5.51439H112.627C114.368 3.95108 115.964 2.23108 117.395 0.375697C117.425 0.331576 117.465 0.296097 117.513 0.272798C117.561 0.2495 117.613 0.2392 117.666 0.242936H119.887C119.996 0.242936 120.05 0.297601 120.05 0.375697C120.038 0.424825 120.02 0.472126 119.996 0.516275C118.275 2.68288 116.366 4.6901 114.292 6.51401C116.587 8.47507 118.718 10.6249 120.661 12.9413C120.77 13.0506 120.715 13.1678 120.553 13.1678Z" fill="#4267B2"/>
<path d="M0.78125 18.5195H120.174" stroke="#151515"/>
</svg>
