<svg width="122" height="30" viewBox="0 0 122 30" fill="none" xmlns="http://www.w3.org/2000/svg">
<path d="M0.328125 28.931V22.5428H3.13764C3.72152 22.4983 4.30366 22.6492 4.79393 22.9723C4.9775 23.1153 5.12455 23.3004 5.22283 23.5123C5.32111 23.7243 5.36777 23.9568 5.35892 24.1906C5.36392 24.4839 5.28896 24.773 5.14221 25.0262C4.96073 25.2994 4.68472 25.4943 4.36824 25.5729C4.77451 25.6416 5.14415 25.8516 5.4131 26.1664C5.63111 26.4611 5.74305 26.822 5.73043 27.1895C5.74744 27.4379 5.70252 27.6867 5.59977 27.9132C5.49703 28.1396 5.33972 28.3365 5.14221 28.4859C4.64137 28.833 4.03741 28.9957 3.43174 28.9466H0.335866L0.328125 28.931ZM3.02928 23.6127H1.61292V25.1746H3.08346C3.35644 25.2074 3.63184 25.1379 3.85743 24.9794C3.94119 24.9067 4.00663 24.815 4.04835 24.7118C4.09007 24.6086 4.10686 24.4969 4.09736 24.3858C4.0664 23.886 3.72585 23.6127 3.02928 23.6127ZM3.32339 26.2836H1.61292V27.8455H3.29243C4.01996 27.8455 4.36824 27.5722 4.36824 27.0645C4.37619 26.9529 4.3579 26.841 4.31486 26.7378C4.27182 26.6347 4.20525 26.5433 4.12057 26.471C3.87451 26.3133 3.58168 26.247 3.29243 26.2836H3.32339Z" fill="#FCFCFC"/>
<path d="M11.1943 29.0717C10.6922 29.0862 10.1946 28.9735 9.74696 28.7438C9.35433 28.5324 9.03753 28.2019 8.84142 27.7988C8.61727 27.3654 8.50544 26.8818 8.51635 26.3931V22.543H9.83209V26.4009C9.80877 26.8052 9.94198 27.2028 10.2036 27.5098C10.3342 27.6486 10.4934 27.7569 10.6699 27.827C10.8463 27.8972 11.0359 27.9275 11.2252 27.9159H11.3568C11.5446 27.9243 11.7321 27.8925 11.9069 27.8225C12.0816 27.7525 12.2397 27.6459 12.3707 27.5098C12.6351 27.2039 12.7711 26.8062 12.75 26.4009V22.543H14.0347V26.4009C14.0456 26.8896 13.9338 27.3732 13.7097 27.8066C13.5034 28.2023 13.1892 28.5302 12.8041 28.7516C12.3565 28.9813 11.8588 29.0941 11.3568 29.0796L11.1943 29.0717Z" fill="#FCFCFC"/>
<path d="M19.4917 29.0689C18.9302 29.0804 18.3729 28.9685 17.8586 28.7409C17.4107 28.5422 17.0234 28.2269 16.7363 27.8272L17.5645 26.9837C17.7933 27.2759 18.0878 27.5088 18.4236 27.6632C18.7619 27.8061 19.1249 27.8804 19.4917 27.8818H19.631C20.4591 27.8818 20.8616 27.6319 20.8616 27.179C20.8668 27.1033 20.8549 27.0274 20.8267 26.957C20.7986 26.8866 20.7549 26.8237 20.699 26.7729C20.5878 26.6585 20.4492 26.5751 20.2966 26.5308C20.1399 26.4732 19.9796 26.4262 19.8167 26.3902L18.8493 26.2028C18.6395 26.1737 18.4342 26.1186 18.2378 26.0388C18.0128 25.9559 17.7974 25.8485 17.5954 25.7186C17.4045 25.5697 17.2419 25.3871 17.1156 25.1797C16.9806 24.9425 16.9136 24.6722 16.9221 24.3988C16.8922 24.0147 16.9993 23.6325 17.2239 23.321C17.453 23.0213 17.7577 22.7894 18.1063 22.6494C18.5209 22.4782 18.9663 22.3958 19.4143 22.4073H19.5458C20.0334 22.4042 20.5161 22.5053 20.9622 22.7041C21.3817 22.9028 21.7479 23.2001 22.0303 23.571L21.2563 24.3519C21.0564 24.0794 20.7897 23.8641 20.4823 23.7271C20.1886 23.5939 19.8672 23.535 19.5458 23.5553H19.4065C19.1011 23.5367 18.7963 23.6014 18.5242 23.7428C18.4302 23.7919 18.3512 23.8658 18.2953 23.9565C18.2395 24.0472 18.2089 24.1514 18.2069 24.2582C18.1997 24.3559 18.2208 24.4536 18.2675 24.5396C18.3142 24.6255 18.3845 24.6959 18.47 24.7424C18.6815 24.8511 18.9088 24.9249 19.1434 24.9611L20.1031 25.1485C20.2656 25.1485 20.4514 25.2344 20.699 25.2813C20.9335 25.3484 21.1576 25.4483 21.3647 25.578C21.5878 25.7191 21.7717 25.9153 21.8987 26.1481C22.0483 26.4314 22.1229 26.7488 22.1154 27.0696C22.1287 27.3499 22.0743 27.6292 21.957 27.8835C21.8397 28.1379 21.663 28.3597 21.4421 28.53C20.8996 28.898 20.2525 29.0763 19.6 29.0377H19.4607L19.4917 29.0689Z" fill="#FCFCFC"/>
<path d="M25.1406 28.9312V22.543H26.4564V28.9702L25.1406 28.9312Z" fill="#FCFCFC"/>
<path d="M29.8555 28.9312V22.543H31.2719L34.0891 27.1662V22.543H35.343V28.9702H33.9266L31.1558 24.3157V28.9312H29.8555Z" fill="#FCFCFC"/>
<path d="M38.7949 28.9312V22.543H43.5393V23.7066H40.0797V25.167H42.866V26.3228H40.0797V27.7832H43.6167V28.9468H38.7949V28.9312Z" fill="#FCFCFC"/>
<path d="M48.9564 29.0689C48.3947 29.0829 47.8369 28.9709 47.3234 28.7409C46.8719 28.5447 46.4814 28.229 46.1934 27.8271L47.0292 26.9837C47.2543 27.2764 47.5465 27.5095 47.8806 27.6631C48.2215 27.8067 48.5871 27.881 48.9564 27.8818H49.088C49.9161 27.8818 50.3186 27.6319 50.3186 27.179C50.3238 27.1033 50.3119 27.0273 50.2838 26.957C50.2556 26.8866 50.2119 26.8237 50.1561 26.7729C50.0448 26.6585 49.9062 26.5751 49.7536 26.5307C49.5973 26.4721 49.4369 26.4251 49.2737 26.3902L48.314 26.2028C48.1016 26.1747 47.8936 26.1196 47.6949 26.0388C47.4705 25.9543 47.2553 25.847 47.0525 25.7186C46.8616 25.5697 46.699 25.3871 46.5726 25.1797C46.4443 24.9402 46.3802 24.671 46.3869 24.3988C46.3718 24.0285 46.4839 23.6644 46.7042 23.3679C46.9332 23.0682 47.238 22.8362 47.5865 22.6963C48.0039 22.5251 48.4518 22.4427 48.9022 22.4542H49.0338C49.5214 22.4511 50.0041 22.5522 50.4502 22.7509C50.872 22.9494 51.2408 23.2466 51.526 23.6178L50.752 24.3988C50.5522 24.1262 50.2854 23.9109 49.9781 23.774C49.7026 23.6425 49.4003 23.5783 49.0957 23.5866H48.9564C48.6508 23.5659 48.3455 23.6308 48.0741 23.774C47.9787 23.8221 47.8981 23.8955 47.8408 23.9863C47.7835 24.077 47.7518 24.1818 47.749 24.2894C47.7416 24.3881 47.7634 24.4868 47.8116 24.573C47.8598 24.6592 47.9323 24.729 48.0199 24.7736C48.2286 24.8824 48.4534 24.9563 48.6855 24.9923L49.653 25.1797L50.2412 25.3125C50.4762 25.3782 50.7004 25.4782 50.9068 25.6092C51.13 25.7503 51.3138 25.9466 51.4409 26.1793C51.5939 26.4613 51.6687 26.7796 51.6576 27.1009C51.6704 27.3802 51.6167 27.6587 51.5008 27.9128C51.385 28.1669 51.2105 28.3892 50.992 28.5612C50.4459 28.9277 49.7969 29.1058 49.1422 29.0689H48.9564Z" fill="#FCFCFC"/>
<path d="M56.812 29.069C56.2505 29.0805 55.6932 28.9686 55.1789 28.741C54.7284 28.5467 54.34 28.2305 54.0566 27.8273L54.8848 26.9838C55.1112 27.2784 55.4063 27.5119 55.7439 27.6633C56.0818 27.8076 56.445 27.882 56.812 27.8819H56.9435C57.7794 27.8819 58.1819 27.632 58.1819 27.1791C58.1871 27.1034 58.1752 27.0275 58.1471 26.9571C58.1189 26.8867 58.0752 26.8238 58.0194 26.773C57.9081 26.6586 57.7695 26.5752 57.6169 26.5309C57.4599 26.4743 57.2996 26.4274 57.137 26.3903L56.1696 26.2029C55.9597 26.1747 55.7542 26.1196 55.5581 26.0389C55.3331 25.956 55.1177 25.8487 54.9157 25.7187C54.7224 25.5701 54.5572 25.3876 54.4281 25.1798C54.2998 24.9403 54.2358 24.6711 54.2424 24.3989C54.2302 24.0278 54.345 23.6638 54.5675 23.368C54.7931 23.0648 55.0989 22.8321 55.4498 22.6964C55.8643 22.5245 56.3098 22.4421 56.7578 22.4543H56.8971C57.3846 22.4521 57.8671 22.5532 58.3135 22.7511C58.733 22.9498 59.0992 23.2471 59.3815 23.6179L58.6076 24.3989C58.4082 24.1259 58.1414 23.9104 57.8336 23.7741C57.5577 23.644 57.2558 23.5799 56.9513 23.5867H56.812C56.5065 23.568 56.2017 23.6328 55.9296 23.7741C55.8346 23.8219 55.7546 23.8954 55.6985 23.9864C55.6425 24.0775 55.6127 24.1824 55.6123 24.2895C55.6052 24.3873 55.6262 24.485 55.6729 24.5709C55.7196 24.6568 55.79 24.7273 55.8755 24.7737C56.0864 24.8836 56.3139 24.9575 56.5488 24.9924L57.5085 25.1798L58.0968 25.3126C58.3342 25.3781 58.5611 25.4781 58.7701 25.6094C58.991 25.7532 59.1742 25.9488 59.3041 26.1795C59.4537 26.4627 59.5283 26.7801 59.5209 27.101C59.5341 27.3812 59.4797 27.6605 59.3625 27.9149C59.2452 28.1692 59.0685 28.3911 58.8475 28.5614C58.3019 28.9289 57.6526 29.1071 56.9977 29.069H56.8661H56.812Z" fill="#FCFCFC"/>
<path d="M66.1855 28.9296V22.5414H68.9641C69.296 22.5113 69.6306 22.5483 69.9482 22.6502C70.2658 22.7521 70.5601 22.9169 70.8139 23.1349C71.021 23.349 71.1828 23.6035 71.2892 23.8828C71.3957 24.1621 71.4446 24.4603 71.433 24.7593C71.444 25.057 71.3947 25.3539 71.2883 25.6319C71.1818 25.9098 71.0204 26.1629 70.8139 26.3759C70.5601 26.5939 70.2658 26.7586 69.9482 26.8605C69.6306 26.9624 69.296 26.9995 68.9641 26.9694H67.4703V28.9999H66.1855V28.9296ZM68.8325 23.6894H67.5322V25.7745H68.8712C69.2157 25.8029 69.5589 25.706 69.8387 25.5012C69.9433 25.4021 70.0241 25.2803 70.0751 25.145C70.126 25.0097 70.1458 24.8644 70.1328 24.7203C70.14 24.5766 70.1176 24.4331 70.067 24.2986C70.0163 24.1642 69.9386 24.0418 69.8387 23.9393C69.5433 23.7382 69.1867 23.6496 68.8325 23.6894Z" fill="#FCFCFC"/>
<path d="M73.3828 28.9312C73.5686 28.2283 73.7853 27.5021 74.0562 26.7758C74.3271 26.0495 74.5592 25.3154 74.8301 24.5891C75.101 23.8628 75.3951 23.1833 75.6892 22.5352H77.2372C77.5313 23.1833 77.8254 23.8862 78.0963 24.5891C78.3672 25.2919 78.6303 26.0417 78.8702 26.7758C79.1102 27.5099 79.3191 28.2283 79.5358 28.9312H78.1427C78.0885 28.6891 78.0111 28.447 77.9569 28.1502C77.9028 27.8535 77.8254 27.6348 77.7402 27.3693H75.0933C75.0159 27.6348 74.9307 27.8769 74.8766 28.1502C74.8224 28.4236 74.745 28.6578 74.6908 28.9312H73.3828ZM75.4957 26.2838H77.4229C77.2681 25.8308 77.1288 25.37 76.9431 24.9093C76.7573 24.4485 76.6257 24.019 76.44 23.5895C76.2774 24.019 76.0917 24.4485 75.9292 24.9093C75.8139 25.3763 75.6691 25.8354 75.4957 26.2838Z" fill="#FCFCFC"/>
<path d="M82.4609 28.9284V22.5402H85.3324C86.008 22.4847 86.6796 22.6883 87.2131 23.1103C87.4219 23.2998 87.5854 23.5346 87.6913 23.797C87.7972 24.0594 87.8427 24.3427 87.8245 24.6254C87.8343 25.0437 87.7241 25.4559 87.5072 25.8124C87.2628 26.1556 86.9155 26.4102 86.5165 26.5387C86.7797 26.9214 87.0506 27.3197 87.2905 27.7258C87.5304 28.1319 87.8013 28.5692 88.0103 28.9987H86.5784C86.3695 28.5926 86.1528 28.2178 85.9128 27.8117C85.6729 27.4056 85.4562 27.0307 85.2395 26.7261H83.7844V28.9987H82.4609V28.9284ZM85.1621 23.6336H83.7844V25.5547H85.2008C85.5482 25.5833 85.8955 25.4984 86.1915 25.3126C86.3003 25.2275 86.3868 25.1168 86.4434 24.9902C86.5001 24.8636 86.5252 24.725 86.5165 24.5863C86.5258 24.4465 86.501 24.3065 86.4444 24.1786C86.3877 24.0506 86.3009 23.9386 86.1915 23.8522C85.8756 23.6828 85.5188 23.607 85.1621 23.6336Z" fill="#FCFCFC"/>
<path d="M92.4142 28.9312V23.691H90.3555V22.543H95.7732V23.73H93.7067V28.9702L92.4142 28.9312Z" fill="#FCFCFC"/>
<path d="M98.5527 28.9312V22.543H99.9691L102.779 27.1662V22.543H104.04V28.9702H102.616L99.8066 24.3548V28.9702L98.5527 28.9312Z" fill="#FCFCFC"/>
<path d="M107.492 28.9312V22.543H112.229V23.7066H108.777V25.167H111.563V26.3228H108.777V27.7832H112.306V28.9468H107.492V28.9312Z" fill="#FCFCFC"/>
<path d="M115.471 28.9285V22.5403H118.303C118.977 22.4844 119.646 22.6882 120.176 23.1104C120.388 23.2981 120.554 23.5323 120.661 23.795C120.769 24.0578 120.815 24.3419 120.796 24.6255C120.806 25.0449 120.693 25.4581 120.471 25.8125C120.229 26.1589 119.881 26.4145 119.48 26.5388C119.751 26.9215 120.022 27.3198 120.254 27.7259C120.486 28.132 120.757 28.5693 120.974 28.9988H119.534C119.325 28.5927 119.108 28.2179 118.868 27.8118C118.629 27.4057 118.412 27.0308 118.195 26.7262H116.701V28.9988H115.471V28.9285ZM118.172 23.6337H116.756V25.5548H118.172C118.519 25.5834 118.867 25.4985 119.163 25.3127C119.263 25.2198 119.343 25.107 119.397 24.9813C119.452 24.8556 119.48 24.7198 119.48 24.5825C119.48 24.4452 119.452 24.3095 119.397 24.1838C119.343 24.0581 119.263 23.9452 119.163 23.8523C118.858 23.69 118.516 23.6144 118.172 23.6337Z" fill="#FCFCFC"/>
<path d="M9.90972 0.43369V2.13617C9.91082 2.16107 9.90676 2.18595 9.89781 2.20919C9.88887 2.23243 9.87523 2.25354 9.85776 2.27117C9.84028 2.2888 9.81936 2.30256 9.79633 2.31159C9.77329 2.32061 9.74865 2.32471 9.72396 2.3236H2.51837V5.78322H8.48562C8.51066 5.78217 8.53565 5.78624 8.55909 5.79519C8.58252 5.80413 8.60393 5.81778 8.622 5.83529C8.64008 5.8528 8.65446 5.87382 8.66428 5.89709C8.67409 5.92035 8.67914 5.94537 8.67911 5.97066V7.70438C8.67914 7.72966 8.67409 7.75469 8.66428 7.77795C8.65446 7.80121 8.64008 7.82224 8.622 7.83975C8.60393 7.85726 8.58252 7.8709 8.55909 7.87985C8.53565 7.88879 8.51066 7.89286 8.48562 7.89181H2.51837V13.0305C2.51837 13.0802 2.49879 13.1279 2.46396 13.163C2.42912 13.1982 2.38188 13.2179 2.33262 13.2179H0.513803C0.4638 13.218 0.415717 13.1985 0.379645 13.1635C0.343573 13.1286 0.322313 13.0809 0.320313 13.0305V0.43369C0.320291 0.408405 0.325336 0.38337 0.335152 0.360106C0.344967 0.336842 0.359348 0.31583 0.377424 0.298319C0.395501 0.280809 0.416898 0.267167 0.440335 0.258221C0.463772 0.249274 0.488767 0.245203 0.513803 0.246256H9.71623C9.83232 0.246256 9.90972 0.324356 9.90972 0.43369Z" fill="white"/>
<path d="M24.639 13.1688H22.6421C22.5934 13.1739 22.5444 13.1608 22.5045 13.132C22.4646 13.1033 22.4365 13.0608 22.4254 13.0126C22.1545 11.9583 21.8372 10.8181 21.458 9.71697H15.3591C14.9799 10.8494 14.6625 11.9583 14.4226 13.0126C14.4101 13.06 14.3816 13.1015 14.3421 13.13C14.3025 13.1585 14.2544 13.1722 14.2059 13.1688H12.2787C12.1471 13.1688 12.062 13.0907 12.1162 12.9579C13.361 8.67807 14.929 4.50075 16.8064 0.462653C16.8308 0.391327 16.8768 0.329566 16.9379 0.286111C16.9991 0.242657 17.0722 0.219717 17.147 0.220559H19.7475C19.8246 0.212353 19.9021 0.232241 19.966 0.276638C20.0299 0.321034 20.0759 0.387011 20.0958 0.462653C21.9663 4.49831 23.5191 8.67631 24.7396 12.9579C24.8247 13.0751 24.7706 13.1688 24.639 13.1688ZM20.7691 7.70211C20.0958 5.83562 19.3528 3.96914 18.602 2.23542H18.1686C17.3946 3.9379 16.6748 5.80439 16.0015 7.70211H20.7691Z" fill="white"/>
<path d="M27.8965 6.81296C27.8965 2.81447 30.5202 0.00302708 34.243 0.00302708H34.5139C35.5582 -0.0312036 36.5916 0.225434 37.5009 0.744789C38.4102 1.26414 39.1601 2.02616 39.6685 2.94723C39.7149 3.05657 39.7149 3.16589 39.6143 3.22056L38.0045 4.00151C37.9788 4.01832 37.95 4.02965 37.9199 4.03482C37.8897 4.03999 37.8588 4.03888 37.8291 4.03157C37.7994 4.02425 37.7715 4.01089 37.7471 3.99229C37.7226 3.9737 37.7023 3.95026 37.6871 3.92343C37.3839 3.34461 36.922 2.86602 36.3566 2.54477C35.7912 2.22351 35.1462 2.07315 34.4984 2.1116H34.2275C31.9056 2.1116 30.2648 4.00151 30.2648 6.73486C30.2648 9.4682 31.8128 11.2956 34.2275 11.2956H34.4984C35.0811 11.3379 35.6653 11.2403 36.2034 11.0109C36.7415 10.7815 37.2182 10.4268 37.5943 9.97583C37.6098 9.95249 37.6298 9.93251 37.6531 9.91708C37.6764 9.90165 37.7025 9.89109 37.7299 9.88599C37.7573 9.8809 37.7855 9.88138 37.8127 9.88742C37.8399 9.89346 37.8656 9.90493 37.8884 9.92116L39.5524 10.7021C39.5767 10.7142 39.597 10.7333 39.6107 10.7568C39.6245 10.7804 39.6311 10.8075 39.6298 10.8349C39.6298 10.8895 39.6298 10.913 39.5756 10.9676C38.9901 11.7544 38.2228 12.3849 37.3406 12.8041C36.4584 13.2234 35.488 13.4186 34.5139 13.373H34.2507C30.4196 13.4042 27.8965 10.7802 27.8965 6.81296Z" fill="white"/>
<path d="M54.1876 11.2656V12.968C54.1887 12.993 54.1846 13.0178 54.1757 13.0411C54.1667 13.0643 54.1531 13.0854 54.1356 13.103C54.1181 13.1207 54.0972 13.1344 54.0742 13.1435C54.0511 13.1525 54.0265 13.1566 54.0018 13.1555H44.4201C44.395 13.1565 44.37 13.1524 44.3466 13.1435C44.3232 13.1346 44.3018 13.1209 44.2837 13.1034C44.2656 13.0859 44.2512 13.0649 44.2414 13.0416C44.2316 13.0183 44.2265 12.9933 44.2266 12.968V0.433705C44.2265 0.40842 44.2316 0.383385 44.2414 0.360121C44.2512 0.336856 44.2656 0.315845 44.2837 0.298334C44.3018 0.280824 44.3232 0.267182 44.3466 0.258235C44.37 0.249289 44.395 0.245218 44.4201 0.246271H53.8393C53.864 0.245163 53.8886 0.249256 53.9116 0.258283C53.9347 0.26731 53.9556 0.281073 53.9731 0.298704C53.9905 0.316334 54.0042 0.337439 54.0131 0.360681C54.0221 0.383923 54.0261 0.408796 54.025 0.433705V2.13618C54.0261 2.16109 54.0221 2.18596 54.0131 2.20921C54.0042 2.23245 53.9905 2.25355 53.9731 2.27118C53.9556 2.28881 53.9347 2.30258 53.9116 2.3116C53.8886 2.32063 53.864 2.32472 53.8393 2.32362H46.4014V5.67391H52.4461C52.4961 5.67387 52.5442 5.69337 52.5803 5.72831C52.6164 5.76325 52.6376 5.81093 52.6396 5.86134V7.54039C52.6396 7.56568 52.6346 7.59071 52.6248 7.61398C52.615 7.63724 52.6006 7.65826 52.5825 7.67577C52.5644 7.69328 52.543 7.70691 52.5196 7.71586C52.4962 7.72481 52.4712 7.72888 52.4461 7.72783H46.4014V11.0781H54.0018C54.0265 11.077 54.0511 11.0811 54.0742 11.0901C54.0972 11.0992 54.1181 11.1129 54.1356 11.1306C54.1531 11.1482 54.1667 11.1693 54.1757 11.1925C54.1846 11.2158 54.1887 11.2406 54.1876 11.2656Z" fill="white"/>
<path d="M70.705 9.61774C70.705 11.8903 68.9945 13.1555 65.9451 13.1555H59.6527C59.628 13.1566 59.6034 13.1525 59.5804 13.1435C59.5573 13.1344 59.5364 13.1207 59.5189 13.103C59.5015 13.0854 59.4878 13.0643 59.4789 13.0411C59.4699 13.0178 59.4659 12.993 59.467 12.968V0.433705C59.4659 0.408796 59.4699 0.383923 59.4789 0.360681C59.4878 0.337439 59.5015 0.316334 59.5189 0.298704C59.5364 0.281073 59.5573 0.26731 59.5804 0.258283C59.6034 0.249256 59.628 0.245163 59.6527 0.246271H65.3801C68.3212 0.246271 69.931 1.43333 69.931 3.59658C69.963 4.24581 69.7612 4.88481 69.3629 5.39574C68.9647 5.90668 68.3967 6.2551 67.7639 6.37678C69.8536 6.81411 70.705 8.02459 70.705 9.61774ZM65.3569 2.23771H61.6573V5.69734H65.3569C67.0132 5.69734 67.7639 5.15849 67.7639 3.96363C67.7639 2.76876 67.0132 2.23771 65.3569 2.23771ZM68.4527 9.4225C68.4527 8.23545 67.6788 7.66535 65.9373 7.66535H61.6263V11.125H65.9838C67.7097 11.1562 68.4837 10.6174 68.4837 9.43031L68.4527 9.4225Z" fill="white"/>
<path d="M74.5352 6.7045C74.5352 2.79973 77.1047 0.00390625 81.1216 0.00390625H81.3848C85.4017 0.00390625 87.9712 2.81535 87.9712 6.7045C87.9712 10.5937 85.4017 13.4051 81.3848 13.4051H81.1216C77.1047 13.4051 74.5352 10.5937 74.5352 6.7045ZM81.3848 11.2965C84.0085 11.2965 85.6725 9.4847 85.6725 6.7045C85.6725 3.9243 84.0085 2.11248 81.3848 2.11248H81.1216C78.4979 2.11248 76.8338 3.91649 76.8338 6.7045C76.8338 9.49251 78.4979 11.2965 81.1216 11.2965H81.3848Z" fill="white"/>
<path d="M91.6719 6.7045C91.6719 2.79973 94.2414 0.00390625 98.2583 0.00390625H98.4905C102.507 0.00390625 105.077 2.81535 105.077 6.7045C105.077 10.5937 102.538 13.4051 98.4905 13.4051H98.2583C94.2414 13.4051 91.6719 10.5937 91.6719 6.7045ZM98.5525 11.2965C101.176 11.2965 102.832 9.4847 102.832 6.7045C102.832 3.9243 101.176 2.11248 98.5525 2.11248H98.2816C95.6578 2.11248 94.0015 3.91649 94.0015 6.7045C94.0015 9.49251 95.6578 11.2965 98.2816 11.2965H98.5525Z" fill="white"/>
<path d="M120.873 13.1717H118.551C118.488 13.1798 118.424 13.1694 118.366 13.1418C118.308 13.1141 118.26 13.0702 118.226 13.0155C116.608 11.0988 114.846 9.31038 112.956 7.66592H111.857V12.9842C111.857 13.0109 111.851 13.0374 111.841 13.0618C111.83 13.0862 111.814 13.108 111.794 13.1258C111.774 13.1435 111.751 13.1568 111.726 13.1647C111.7 13.1726 111.674 13.175 111.648 13.1717H109.875C109.85 13.1727 109.825 13.1686 109.802 13.1597C109.778 13.1508 109.757 13.1371 109.739 13.1196C109.721 13.1021 109.706 13.0811 109.696 13.0578C109.687 13.0346 109.682 13.0095 109.682 12.9842V0.434276C109.682 0.408991 109.687 0.383956 109.696 0.360692C109.706 0.337427 109.721 0.316415 109.739 0.298905C109.757 0.281394 109.778 0.267752 109.802 0.258806C109.825 0.24986 109.85 0.245788 109.875 0.246842H111.694C111.719 0.245733 111.743 0.249827 111.766 0.258854C111.789 0.267881 111.81 0.281644 111.828 0.299274C111.845 0.316905 111.859 0.33801 111.868 0.361252C111.877 0.384494 111.881 0.409367 111.88 0.434276V5.51829H112.948C114.688 3.95498 116.284 2.23498 117.715 0.379603C117.745 0.335482 117.786 0.300003 117.833 0.276705C117.881 0.253406 117.934 0.243106 117.986 0.246842H120.208C120.316 0.246842 120.37 0.301507 120.37 0.379603C120.359 0.428732 120.34 0.476033 120.316 0.520181C118.595 2.68679 116.686 4.694 114.612 6.51792C116.908 8.47897 119.038 10.6288 120.982 12.9452C121.09 13.0545 121.036 13.1717 120.873 13.1717Z" fill="white"/>
<path d="M1.10156 18.5195H120.494" stroke="white"/>
</svg>
