<svg width="152" height="28" viewBox="0 0 152 28" fill="none" xmlns="http://www.w3.org/2000/svg">
<path d="M15.9452 4.71927C18.1037 6.91357 19.3391 9.85172 19.3971 12.9292C19.3971 17.5939 18.1376 20.7192 17.1114 22.4918C16.663 23.2631 16.1312 23.9826 15.5254 24.6376L15.8519 24.9641C16.7849 24.5909 17.6712 24.1711 18.5108 23.7979C18.5468 23.7143 18.5939 23.6358 18.6507 23.5647C19.8169 21.5589 21.263 18.107 21.263 12.9758C21.2101 9.38996 19.7726 5.96348 17.2513 3.41315L17.0647 3.22656C16.5146 3.54605 15.9988 3.9212 15.5254 4.34609C15.6766 4.45716 15.8172 4.5821 15.9452 4.71927Z" fill="#63A8B2"/>
<path d="M15.712 25.5715L15.4788 25.3382L15.1522 25.0117L14.8257 24.6385L15.1522 24.2653C15.7272 23.641 16.2281 22.9522 16.645 22.2129C17.6712 20.4869 18.884 17.4549 18.884 12.9301C18.8435 9.98607 17.6551 7.17419 15.5721 5.09339C15.444 4.95621 15.3035 4.83128 15.1522 4.72021L14.7324 4.34703L15.1522 3.97386C15.654 3.52883 16.2012 3.13795 16.7849 2.80768L17.1114 2.62109L17.3913 2.90098C17.4846 2.94762 17.5312 3.04092 17.6245 3.08756C20.2305 5.72617 21.7177 9.26866 21.7761 12.9767C21.7761 18.2479 20.3301 21.793 19.0706 23.8455L18.9307 24.1254L18.8374 24.2653L18.6974 24.312C17.8578 24.7318 16.9248 25.1516 15.9919 25.5248L15.712 25.5715ZM16.3184 4.34703C18.5705 6.64264 19.8561 9.71472 19.9102 12.9301C19.9102 17.6881 18.6041 20.9067 17.5312 22.7726C17.2514 23.2391 16.9715 23.6589 16.6916 24.0787C17.2047 23.8455 17.6712 23.6589 18.1377 23.4257L18.1843 23.3324C19.3505 21.3732 20.7032 18.0146 20.7032 12.9767C20.6497 9.57382 19.2981 6.31994 16.9248 3.88056C16.7012 4.00583 16.4969 4.16297 16.3184 4.34703Z" fill="#63A8B2"/>
<path d="M12.524 23.7886C8.2325 21.6428 5.15379 18.984 3.56779 15.9519C2.71895 14.4473 2.31455 12.7327 2.40161 11.0073V10.8674C2.40161 9.75248 2.62121 8.6485 3.04786 7.61848C3.47451 6.58845 4.09986 5.65255 4.88821 4.8642C5.67656 4.07585 6.61246 3.4505 7.64249 3.02385C8.67251 2.5972 9.77649 2.3776 10.8914 2.3776C11.9599 2.37424 13.0088 2.6647 13.9234 3.21725C14.3937 2.74765 14.9094 2.32577 15.4628 1.95778C14.1071 1.01568 12.4956 0.511061 10.8447 0.511719C8.11571 0.516105 5.49834 1.59578 3.55991 3.51675C1.62148 5.43771 0.518167 8.0452 0.489085 10.7741C0.357502 12.8175 0.810541 14.8562 1.7952 16.6516C2.8654 18.6603 4.32417 20.4362 6.08673 21.8761C8.75864 24.0349 11.7691 25.7372 14.9963 26.914L15.4628 27.1005L15.043 26.8207C14.0436 25.9541 13.1927 24.9299 12.524 23.7886Z" fill="#63A8B2"/>
<path d="M15.6039 27.7084L14.8576 27.4285C11.5828 26.2201 8.52637 24.4871 5.80805 22.2973C3.98741 20.8046 2.48115 18.9654 1.37658 16.8862C0.354345 15.0192 -0.114886 12.8995 0.0238161 10.7755C0.0618103 7.91332 1.22203 5.18051 3.25476 3.16522C5.28749 1.14994 8.03021 0.0133195 10.8926 0C12.6418 0.0158439 14.3467 0.551685 15.7905 1.53935L16.4436 1.95918L15.7905 2.379C15.2731 2.74167 14.7749 3.13091 14.2978 3.54518L14.0179 3.82506L13.6914 3.63847C12.836 3.15847 11.8734 2.90178 10.8926 2.89212C9.84494 2.89163 8.80746 3.09761 7.83947 3.4983C6.87148 3.89899 5.99195 4.48653 5.25115 5.22733C4.51035 5.96813 3.92281 6.84766 3.52212 7.81566C3.12143 8.78365 2.91544 9.82112 2.91593 10.8688V11.102C2.83604 12.7171 3.22483 14.3209 4.03546 15.7201C5.57482 18.6122 8.56023 21.2711 12.7585 23.3702L12.8984 23.4168L12.9917 23.5568C13.6419 24.6433 14.4606 25.6195 15.4174 26.4489L16.3969 27.1486L15.6039 27.7084ZM10.8926 1.02623C8.29927 1.0294 5.81171 2.05462 3.96925 3.87962C2.12678 5.70462 1.07791 8.1823 1.05005 10.7755V10.8221C0.932466 12.7491 1.35234 14.6708 2.26288 16.3731C3.28522 18.3335 4.69809 20.0639 6.41446 21.4577C8.43801 23.1146 10.6832 24.4806 13.085 25.5159C12.7063 25.0883 12.3777 24.6187 12.1054 24.1165C7.76723 21.9708 4.64188 19.1719 3.05588 16.0932C2.16387 14.4852 1.74351 12.6583 1.84305 10.8221V10.7288C1.83985 9.54565 2.07053 8.37351 2.52184 7.27979C2.97314 6.18606 3.63616 5.19232 4.4728 4.35569C5.30943 3.51905 6.30317 2.85603 7.3969 2.40472C8.49062 1.95342 9.66276 1.72274 10.8459 1.72594C11.8819 1.72456 12.9039 1.96411 13.8313 2.42565L14.5311 1.86588C13.3953 1.32018 12.1526 1.0334 10.8926 1.02623Z" fill="#63A8B2"/>
<path d="M11.6374 12.9133C11.6954 9.83586 12.9308 6.89771 15.0892 4.70342L15.5091 4.28359C15.0356 3.8587 14.5198 3.48355 13.9697 3.16406L13.7831 3.35065C11.2801 5.9131 9.84581 9.33197 9.77148 12.9133C9.77148 18.0445 11.2175 21.4964 12.3837 23.5022C12.4197 23.5858 12.4668 23.6643 12.5237 23.7354C13.3633 24.1552 14.2496 24.5284 15.1825 24.9016L15.5091 24.5751C14.914 23.9113 14.383 23.1929 13.9231 22.4293C12.8968 20.7034 11.6374 17.578 11.6374 12.9133Z" fill="#D44C5D"/>
<path d="M15.2762 25.3699L15.0896 25.2766C14.1567 24.9035 13.2704 24.4836 12.3841 24.0638L12.2908 24.0172L12.2441 23.9239C12.2081 23.8402 12.161 23.7618 12.1042 23.6906C10.8914 21.6382 9.44531 18.093 9.44531 12.9152C9.49992 9.24283 10.9705 5.73345 13.5503 3.11927L13.7368 2.93268L13.9234 2.74609L14.1567 2.88604C14.7404 3.2163 15.2876 3.60719 15.7893 4.05221L16.0692 4.3321L15.7893 4.61198C15.6613 4.74915 15.5207 4.87408 15.3695 4.98515C13.2694 7.1156 12.0672 9.97084 12.0109 12.9618C12.0109 17.5332 13.2237 20.6119 14.25 22.3379C14.6784 23.0959 15.1951 23.8005 15.7893 24.437L16.0225 24.6702L15.7893 24.9035L15.4628 25.23L15.2762 25.3699ZM12.7573 23.504C13.457 23.8306 14.1567 24.1571 14.903 24.4836C14.4306 23.9153 14.0092 23.3066 13.6435 22.6644C12.5707 20.8452 11.3112 17.6732 11.3112 12.9152C11.3495 9.74675 12.6212 6.71803 14.8564 4.47204L14.9963 4.3321L14.0167 3.63239C11.5864 6.11756 10.2008 9.4396 10.145 12.9152C10.145 17.953 11.5444 21.3583 12.7106 23.3641C12.7106 23.4107 12.7573 23.4574 12.7573 23.504Z" fill="#D44C5D"/>
<path d="M30.4422 10.778C30.421 8.04663 29.3202 5.43455 27.3801 3.51188C25.44 1.58922 22.818 0.512102 20.0866 0.515634C18.4368 0.521949 16.8273 1.02593 15.4685 1.96169C16.0219 2.32968 16.5376 2.75157 17.0079 3.22117C17.94 2.71044 18.9779 2.42301 20.0399 2.38152C21.1548 2.38152 22.2588 2.60111 23.2888 3.02776C24.3189 3.45441 25.2548 4.07976 26.0431 4.86811C26.8315 5.65646 27.4568 6.59236 27.8835 7.62239C28.3101 8.65242 28.5297 9.75639 28.5297 10.8713V11.0112C28.6168 12.7366 28.2124 14.4512 27.3635 15.9558C25.7775 18.9879 22.6988 21.6934 18.4073 23.7925C17.7488 24.9545 16.8786 25.9829 15.8417 26.8246L15.4219 27.1045L15.8883 26.9179C19.1156 25.7411 22.126 24.0389 24.7979 21.88C26.5605 20.4401 28.0193 18.6642 29.0895 16.6555C30.1312 14.8809 30.6033 12.8294 30.4422 10.778Z" fill="#D44C5D"/>
<path d="M15.468 27.48L14.9549 27.0602L15.7479 26.5004C16.7307 25.6662 17.5664 24.6728 18.2201 23.5617L18.2668 23.4684L18.3601 23.4217C22.5583 21.3226 25.637 18.6637 27.1764 15.725C28.0094 14.2836 28.3989 12.6285 28.2959 10.967V10.7804C28.2943 8.6282 27.4387 6.56465 25.9168 5.04284C24.395 3.52104 22.3315 2.66538 20.1793 2.66377C19.162 2.66704 18.1639 2.94072 17.2872 3.45677L17.054 3.59671L16.8207 3.45677C16.3561 3.01362 15.8569 2.60807 15.328 2.24395L14.9082 1.96407L15.328 1.68418C16.7385 0.705457 18.4159 0.184321 20.1327 0.191479C22.949 0.193685 25.6506 1.30706 27.6508 3.28973C29.6509 5.2724 30.7879 7.9642 30.8149 10.7804C30.9468 12.8835 30.4947 14.9821 29.5087 16.8445C28.4229 18.9094 26.9315 20.7339 25.1239 22.2089C22.4319 24.4004 19.3878 26.1196 16.121 27.2934L15.468 27.48ZM18.7333 24.0281C18.2928 24.7374 17.7935 25.4084 17.2406 26.034C19.9187 24.9324 22.4183 23.4389 24.6574 21.6025C26.3892 20.1934 27.8174 18.4478 28.8557 16.4713C29.8028 14.7476 30.2396 12.7899 30.1151 10.827V10.7804C30.0945 8.14352 29.0347 5.62123 27.1658 3.76101C25.2968 1.9008 22.7696 0.852811 20.1327 0.844539C18.7324 0.84038 17.359 1.22818 16.1677 1.96407C16.4942 2.1973 16.8207 2.47719 17.1473 2.75707C18.0714 2.28113 19.0933 2.02567 20.1327 2.01072C22.469 2.01675 24.708 2.94754 26.3601 4.59961C28.0121 6.25168 28.9429 8.49064 28.949 10.827V10.9203C29.0431 12.7263 28.6225 14.5218 27.7361 16.0981C26.1501 19.1302 23.0248 21.8824 18.7333 24.0281Z" fill="#D44C5D"/>
<path d="M15.5159 4.28134C15.9894 3.85645 16.5052 3.48131 17.0553 3.16182C16.585 2.69222 16.0693 2.27033 15.5159 1.90234C14.9625 2.27033 14.4469 2.69222 13.9766 3.16182C14.5267 3.48131 15.0425 3.85645 15.5159 4.28134Z" fill="#D44C5D"/>
<path d="M15.5169 4.74967L15.2836 4.56308C14.8255 4.15361 14.3251 3.79396 13.7909 3.4902L13.3711 3.25697L13.6976 2.93044C14.2107 2.46397 14.7239 2.04414 15.2836 1.62432L15.4702 1.48438L15.6568 1.62432C16.2367 1.99348 16.7693 2.4321 17.2428 2.93044L17.5693 3.25697L17.2428 3.4902C16.7058 3.78944 16.2049 4.14943 15.7501 4.56308L15.5169 4.74967ZM14.5373 3.11702L15.5169 3.81673C15.8206 3.55309 16.1486 3.31881 16.4964 3.11702C16.1699 2.83714 15.8434 2.60391 15.5169 2.37067C15.1903 2.60391 14.8638 2.83714 14.5373 3.11702Z" fill="#D44C5D"/>
<path d="M18.4845 23.7695C17.6448 24.1894 16.7586 24.5625 15.8256 24.9357L15.4991 24.6092L15.1726 24.9357C14.2396 24.5625 13.3533 24.1427 12.5137 23.7695C13.1721 24.9315 14.0423 25.9599 15.0793 26.8016L15.4991 27.0815L15.9189 26.8016C16.9559 25.9599 17.826 24.9315 18.4845 23.7695Z" fill="#63A8B2"/>
<path d="M15.4981 27.7323L14.7984 27.2192C13.7151 26.3311 12.7989 25.257 12.0929 24.0472L11.1133 22.5078L12.7459 23.3008C13.4923 23.674 14.2386 24.0005 15.0316 24.327L15.0783 24.2338L15.4515 23.8139L15.8246 24.2338L15.8713 24.327C16.6643 24.0005 17.4573 23.6273 18.157 23.3008L19.7896 22.5078L18.81 24.0472C18.104 25.257 17.1878 26.3311 16.1045 27.2192L15.4981 27.7323ZM14.0987 25.0734C14.4862 25.5542 14.924 25.992 15.4048 26.3795L15.4981 26.4728L15.5914 26.3795C16.0831 26.0044 16.5224 25.5651 16.8975 25.0734C16.6176 25.2133 16.2911 25.3066 16.0112 25.4466L15.6847 25.5865L15.4981 25.3999L15.3115 25.5865L14.985 25.4466C14.6815 25.3421 14.3854 25.2175 14.0987 25.0734Z" fill="#63A8B2"/>
<path d="M49.237 19.0619C48.3713 19.5749 47.425 19.9376 46.4382 20.1347C45.471 20.3355 44.4871 20.4448 43.4994 20.4613C42.3964 20.4811 41.301 20.2747 40.2808 19.8549C39.3321 19.479 38.4737 18.9067 37.7618 18.1756C37.044 17.4441 36.4878 16.57 36.1292 15.61C35.7272 14.5683 35.5216 13.4612 35.5228 12.3447C35.503 11.2416 35.7094 10.1462 36.1292 9.12603C36.4991 8.17163 37.0539 7.29973 37.7618 6.56045C38.486 5.84433 39.3412 5.27421 40.2808 4.88115C41.301 4.46132 42.3964 4.25494 43.4994 4.27474C45.7851 4.27474 47.651 4.97444 49.0504 6.4205L48.0242 7.49339C47.7668 7.20618 47.486 6.94093 47.1846 6.70038C46.8327 6.46115 46.4576 6.25798 46.065 6.09398C45.6612 5.92077 45.2385 5.79552 44.8055 5.7208C44.3921 5.62821 43.9698 5.58128 43.5461 5.58085C42.6195 5.57542 41.7008 5.74968 40.8405 6.09398C40.0599 6.42189 39.3596 6.91525 38.7881 7.54003C38.2197 8.16537 37.7764 8.89373 37.482 9.6858C37.1615 10.5351 37.0033 11.437 37.0155 12.3447C36.9992 13.2527 37.1575 14.1554 37.482 15.0036C37.7764 15.7956 38.2197 16.524 38.7881 17.1493C39.3722 17.7597 40.0692 18.2508 40.8405 18.5954C41.7008 18.9397 42.6195 19.1139 43.5461 19.1085C44.3277 19.1197 45.1086 19.0573 45.8784 18.9219C46.5668 18.8029 47.2296 18.5662 47.8376 18.2222V13.0444H44.1525V11.7383H49.2837V19.0619H49.237Z" fill="black"/>
<path d="M61.9716 18.1778C61.5169 18.8878 60.8698 19.454 60.1057 19.8104C58.6563 20.4422 57.0195 20.4923 55.5343 19.9503C54.9266 19.7039 54.3839 19.3208 53.9483 18.8308C53.4841 18.3555 53.1333 17.7814 52.922 17.1515C52.6734 16.4635 52.5471 15.7373 52.5488 15.0058C52.5512 14.2898 52.6774 13.5796 52.922 12.9066C53.1513 12.2853 53.5 11.7148 53.9483 11.2273C54.4054 10.762 54.9427 10.3827 55.5343 10.1078C56.1636 9.82137 56.8487 9.67799 57.5401 9.68799C58.2465 9.6781 58.9467 9.82133 59.5925 10.1078C60.1605 10.3556 60.6693 10.7213 61.0853 11.1807C61.4935 11.602 61.7971 12.1133 61.9716 12.6734C62.174 13.227 62.2843 13.81 62.2981 14.3993V15.3323H53.8083C53.8203 15.6936 53.8672 16.0529 53.9483 16.4052C54.0729 16.8581 54.2783 17.2848 54.5547 17.6646C54.8632 18.0883 55.2614 18.4387 55.7208 18.6909C56.295 18.9926 56.9387 19.1374 57.5867 19.1107C58.2532 19.1171 58.9106 18.9568 59.4993 18.6442C60.0929 18.3511 60.5935 17.899 60.9453 17.3381L61.9716 18.1778ZM60.9453 14.2128C60.9522 13.7768 60.8563 13.3453 60.6654 12.9533C60.4871 12.5652 60.2334 12.2163 59.9191 11.9271C59.582 11.6405 59.2048 11.4048 58.7995 11.2273C58.373 11.041 57.9123 10.9456 57.4468 10.9475C56.8289 10.9255 56.2166 11.0705 55.6742 11.3673C55.2409 11.6179 54.8606 11.9507 54.5547 12.3469C54.2994 12.6887 54.0951 13.0658 53.9483 13.4664C53.8686 13.7105 53.8063 13.9599 53.7617 14.2128H60.9453Z" fill="black"/>
<path d="M70.0881 11.1794H67.2427V17.71C67.2315 17.8975 67.2588 18.0852 67.323 18.2617C67.3872 18.4382 67.4868 18.5997 67.6158 18.7362C67.8963 18.9894 68.2645 19.1233 68.6421 19.1094C68.8932 19.1013 69.143 19.0701 69.3884 19.0161C69.6434 18.9597 69.8931 18.8817 70.1348 18.7829L70.2281 19.949C69.9586 20.0603 69.6767 20.1386 69.3884 20.1823C69.1147 20.2545 68.8317 20.2859 68.5488 20.2756C68.1364 20.2895 67.7251 20.2262 67.336 20.089C67.0302 19.9694 66.7581 19.7773 66.543 19.5292C66.3437 19.2932 66.186 19.025 66.0765 18.7362C65.9811 18.4026 65.934 18.057 65.9366 17.71V11.1794H63.7441V10.0132H65.9366V7.12109H67.2427V10.0132H70.0881V11.1794Z" fill="black"/>
<path d="M82.9631 11.1794H80.1177V17.71C80.1065 17.8975 80.1338 18.0852 80.198 18.2617C80.2622 18.4382 80.3618 18.5997 80.4908 18.7362C80.7713 18.9894 81.1395 19.1233 81.5171 19.1094C81.7682 19.1013 82.0181 19.0701 82.2634 19.0161C82.5184 18.9597 82.7681 18.8817 83.0098 18.7829L83.1031 19.949C82.8336 20.0603 82.5517 20.1386 82.2634 20.1823C81.9897 20.2545 81.7067 20.2859 81.4238 20.2756C81.0114 20.2895 80.6001 20.2262 80.211 20.089C79.9052 19.9694 79.6331 19.7773 79.418 19.5292C79.2187 19.2932 79.061 19.025 78.9515 18.7362C78.8561 18.4026 78.809 18.057 78.8116 17.71V11.1794H76.6191V10.0132H78.8116V7.12109H80.1177V10.0132H82.9631V11.1794Z" fill="black"/>
<path d="M85.2949 3.625H86.601V11.7882H86.6477C86.9401 11.2064 87.3935 10.7207 87.9538 10.3888C88.5877 9.96649 89.3384 9.75433 90.0996 9.78241C90.7567 9.76558 91.4095 9.89296 92.0121 10.1556C92.487 10.3631 92.8919 10.7032 93.1783 11.1352C93.4633 11.5612 93.6688 12.0353 93.7847 12.5346C93.8775 13.0582 93.9244 13.5889 93.9246 14.1206V20.0914H92.6185V14.1672C92.6125 13.7769 92.5813 13.3874 92.5252 13.0011C92.4579 12.6408 92.3319 12.2941 92.152 11.9748C91.9782 11.661 91.7196 11.4023 91.4057 11.2285C91.0173 11.0274 90.5832 10.931 90.1462 10.9486C89.6858 10.954 89.2291 11.0327 88.7935 11.1818C88.3769 11.3585 87.9972 11.6116 87.6739 11.9282C87.3353 12.2878 87.0804 12.7179 86.9276 13.1876C86.7294 13.7732 86.6347 14.3888 86.6477 15.0069V20.0448H85.3416V3.625H85.2949Z" fill="black"/>
<path d="M106.239 18.1778C105.784 18.8878 105.137 19.454 104.373 19.8104C102.924 20.4422 101.287 20.4923 99.8018 19.9503C99.1942 19.7039 98.6515 19.3208 98.2158 18.8308C97.7517 18.3555 97.4009 17.7814 97.1896 17.1515C96.941 16.4635 96.8147 15.7373 96.8164 15.0058C96.8188 14.2898 96.945 13.5796 97.1896 12.9066C97.4189 12.2853 97.7675 11.7148 98.2158 11.2273C98.673 10.762 99.2102 10.3827 99.8018 10.1078C100.431 9.82137 101.116 9.67799 101.808 9.68799C102.514 9.6781 103.214 9.82133 103.86 10.1078C104.428 10.3556 104.937 10.7213 105.353 11.1807C105.761 11.602 106.065 12.1133 106.239 12.6734C106.442 13.227 106.552 13.81 106.566 14.3993V15.3323H98.1225C98.1345 15.6936 98.1814 16.0529 98.2625 16.4052C98.3871 16.8581 98.5925 17.2848 98.8689 17.6646C99.1774 18.0883 99.5756 18.4387 100.035 18.6909C100.609 18.9926 101.253 19.1374 101.901 19.1107C102.567 19.1171 103.225 18.9568 103.813 18.6442C104.407 18.3511 104.908 17.899 105.26 17.3381L106.239 18.1778ZM105.213 14.2128C105.22 13.7768 105.124 13.3453 104.933 12.9533C104.755 12.5652 104.501 12.2163 104.187 11.9271C103.85 11.6405 103.472 11.4048 103.067 11.2273C102.641 11.041 102.18 10.9456 101.714 10.9475C101.097 10.9255 100.484 11.0705 99.9418 11.3673C99.5085 11.6179 99.1282 11.9507 98.8222 12.3469C98.567 12.6887 98.3627 13.0658 98.2158 13.4664C98.1362 13.7105 98.0739 13.9599 98.0293 14.2128H105.213Z" fill="black"/>
<path d="M128.165 19.0619C127.299 19.5749 126.353 19.9376 125.366 20.1347C124.399 20.3355 123.415 20.4448 122.427 20.4613C121.324 20.4811 120.229 20.2747 119.209 19.8549C118.26 19.479 117.401 18.9067 116.69 18.1756C115.972 17.4441 115.416 16.5701 115.057 15.61C114.655 14.5683 114.449 13.4612 114.451 12.3447C114.431 11.2416 114.637 10.1462 115.057 9.12603C115.427 8.17162 115.982 7.29972 116.69 6.56045C117.414 5.84433 118.269 5.27421 119.209 4.88115C120.229 4.46132 121.324 4.25494 122.427 4.27474C124.713 4.27474 126.579 4.97444 127.978 6.4205L126.952 7.49339C126.695 7.20618 126.414 6.94093 126.112 6.70038C125.76 6.46115 125.385 6.25799 124.993 6.09398C124.589 5.92077 124.166 5.79552 123.733 5.7208C123.32 5.62821 122.898 5.58128 122.474 5.58085C121.547 5.57542 120.628 5.74968 119.768 6.09398C118.988 6.42187 118.287 6.91524 117.716 7.54003C117.147 8.16536 116.704 8.89373 116.41 9.6858C116.089 10.5351 115.931 11.437 115.943 12.3447C115.927 13.2527 116.085 14.1554 116.41 15.0036C116.704 15.7956 117.147 16.524 117.716 17.1493C118.3 17.7597 118.997 18.2508 119.768 18.5954C120.628 18.9397 121.547 19.1139 122.474 19.1085C123.255 19.1197 124.036 19.0573 124.806 18.9219C125.495 18.8029 126.157 18.5662 126.765 18.2222V13.0444H123.08V11.7383H128.211V19.0619H128.165Z" fill="black"/>
<path d="M140.478 17.2461V17.9459C140.478 18.2257 140.524 18.5056 140.524 18.7389C140.518 19.004 140.533 19.2693 140.571 19.5319V20.0916H139.265C139.265 19.7184 139.218 19.3453 139.218 19.0187C139.218 18.6922 139.171 18.459 139.171 18.3657H139.125C138.832 18.9475 138.379 19.4332 137.819 19.7651C137.185 20.1874 136.434 20.3996 135.673 20.3715C135.016 20.3883 134.363 20.261 133.76 19.9983C133.286 19.7908 132.881 19.4507 132.594 19.0187C132.305 18.6 132.114 18.1218 132.034 17.6193C131.942 17.0958 131.895 16.5651 131.895 16.0333V10.0625H133.201V15.9867C133.207 16.377 133.238 16.7665 133.294 17.1529C133.361 17.5131 133.487 17.8598 133.667 18.1791C133.841 18.493 134.1 18.7516 134.413 18.9254C134.802 19.1265 135.236 19.223 135.673 19.2053C136.133 19.1999 136.59 19.1212 137.026 18.9721C137.442 18.7955 137.822 18.5423 138.145 18.2257C138.484 17.8661 138.739 17.436 138.892 16.9663C139.09 16.3807 139.184 15.7651 139.171 15.147V10.1091H140.478V17.2461Z" fill="black"/>
<path d="M146.868 23.1703C146.661 23.7616 146.308 24.2911 145.842 24.7097C145.354 25.1007 144.74 25.2998 144.116 25.2694C143.897 25.2771 143.678 25.2615 143.463 25.2228C143.229 25.1762 143.043 25.1295 142.856 25.0829L142.996 23.87L143.556 24.01C143.753 24.0673 143.957 24.0987 144.162 24.1033C144.373 24.1068 144.581 24.0587 144.769 23.9633C144.944 23.8654 145.101 23.7393 145.235 23.5902C145.371 23.4375 145.481 23.2643 145.562 23.077C145.667 22.8867 145.746 22.6826 145.795 22.4706L146.728 20.1383L142.623 10.0625H144.069L147.381 18.5056L150.6 10.0625H151.999L146.868 23.1703Z" fill="black"/>
</svg>
