<svg width="75" height="50" viewBox="0 0 75 50" fill="none" xmlns="http://www.w3.org/2000/svg">
<g clip-path="url(#clip0_9879_18429)">
<path d="M29.5696 18.4688C29.7213 18.9026 29.9026 19.3254 30.1122 19.7343C31.0566 21.6268 32.614 23.1417 34.5292 24.0306C35.3275 24.4063 36.1789 24.656 37.0532 24.771C37.8059 24.8562 38.5658 24.8562 39.3185 24.771C40.3794 24.6752 41.4164 24.3991 42.3851 23.9547C42.7386 23.7849 43.082 23.5948 43.4136 23.3852L43.5083 23.322L44.0888 23.7839L46.4361 25.6125L48.4742 27.1944C48.1925 27.4645 47.8954 27.718 47.5845 27.9537C46.0662 29.1286 44.3217 29.9753 42.4608 30.4404C41.6635 30.6472 40.8512 30.7911 40.0315 30.8707C39.6718 30.9086 39.3058 30.9339 38.9399 30.9466C38.7696 30.9371 38.599 30.9371 38.4288 30.9466H38.0943C37.9388 30.9371 37.7829 30.9371 37.6274 30.9466C37.0588 30.9266 36.4919 30.8717 35.93 30.7821C33.5176 30.4367 31.2236 29.5144 29.2415 28.0929C27.2218 26.6377 25.583 24.7143 24.4648 22.4867L24.9255 22.1324L28.2761 19.5254L29.5696 18.4688Z" fill="#34A853"/>
<path d="M24.4453 8.55523C24.6359 8.14851 24.8465 7.7515 25.0763 7.36566C26.2147 5.51148 27.7305 3.91904 29.5246 2.69241C31.3186 1.46578 33.3506 0.632561 35.4877 0.24721C36.6565 0.0291055 37.8463 -0.0536945 39.0339 0.000436932C40.4122 0.0690443 41.7749 0.324465 43.0849 0.759738C45.1125 1.43169 46.9704 2.53704 48.5304 3.99942C48.5682 4.03739 48.5745 4.05637 48.5304 4.09434L44.2207 8.41603C44.1765 8.46665 44.1513 8.41603 44.1134 8.41603C43.3954 7.73425 42.5593 7.1896 41.6462 6.80884C40.919 6.50184 40.1521 6.29947 39.3683 6.20773C38.7529 6.13184 38.1313 6.11912 37.5132 6.16976C36.4411 6.24925 35.394 6.53271 34.4276 7.00499C33.2869 7.54768 32.268 8.31716 31.4328 9.26673C30.5975 10.2163 29.9635 11.3261 29.569 12.5289L27.676 11.0483L24.4453 8.55523Z" fill="#EA4335"/>
<path d="M48.4604 27.2474L46.4223 25.6655L44.075 23.8368L43.4945 23.3749C43.6964 23.2294 43.9046 23.0839 44.0939 22.9193C45.3645 21.8842 46.2385 20.4399 46.5674 18.8318C46.5674 18.7685 46.5674 18.7495 46.498 18.7495H38.3392C38.232 18.7495 38.2446 18.7495 38.2446 18.6546V13.0105C38.2446 12.9409 38.2446 12.9219 38.3329 12.9219H52.7259C52.789 12.9219 52.808 12.9219 52.8206 12.9978C52.9026 13.561 52.972 14.1304 53.0099 14.6999C53.0446 15.3195 53.0446 15.9406 53.0099 16.5602C53.0099 17.0664 52.9594 17.5663 52.8963 18.0661C52.7674 19.1599 52.5328 20.2386 52.1959 21.2868C51.6506 22.9715 50.7944 24.5384 49.6719 25.9059C49.3129 26.3685 48.9206 26.8042 48.4983 27.2094L48.4604 27.2474Z" fill="#4284F4"/>
<path d="M24.4452 8.55469L27.6443 11.0414L29.5373 12.522C29.1706 13.5981 29.0059 14.733 29.0514 15.8693C29.0876 16.7422 29.2491 17.6053 29.531 18.4319L28.2185 19.457L24.8679 22.0639L24.4073 22.4183C24.1451 21.9052 23.9133 21.3769 23.7132 20.8364C22.9745 18.8533 22.6531 16.7384 22.7693 14.6247C22.8855 12.511 23.4367 10.4443 24.3884 8.55469H24.4452Z" fill="#FBBC04"/>
<path d="M41.071 47.0583H40.0488V39.1173H42.7495C43.395 39.1113 44.0182 39.3536 44.491 39.7943C44.7239 40.0094 44.9098 40.2706 45.037 40.5614C45.1641 40.8522 45.2298 41.1663 45.2298 41.4838C45.2298 41.8013 45.1641 42.1154 45.037 42.4061C44.9098 42.6969 44.7239 42.9581 44.491 43.1732C44.0172 43.6116 43.3941 43.8516 42.7495 43.844H41.071V47.0583ZM41.071 42.8695H42.7747C42.9661 42.8769 43.1568 42.8422 43.3334 42.7679C43.5099 42.6936 43.6682 42.5814 43.7969 42.4392C44.0436 42.1852 44.1817 41.8447 44.1817 41.4901C44.1817 41.1356 44.0436 40.795 43.7969 40.541C43.6682 40.3988 43.5099 40.2866 43.3334 40.2123C43.1568 40.138 42.9661 40.1033 42.7747 40.1107H41.071V42.8695Z" fill="#5F6368"/>
<path d="M47.6018 47.2357C47.0781 47.2534 46.5662 47.0778 46.1631 46.7421C45.9724 46.568 45.8219 46.3542 45.7221 46.1158C45.6223 45.8773 45.5756 45.6198 45.5852 45.3614C45.5948 45.103 45.6605 44.8497 45.7778 44.6194C45.895 44.389 46.061 44.1871 46.2641 44.0276C46.7604 43.6793 47.356 43.5017 47.9614 43.5214C48.4723 43.5026 48.9792 43.6182 49.4317 43.8568V43.6986C49.4381 43.5188 49.4046 43.3399 49.3337 43.1746C49.2628 43.0094 49.1562 42.862 49.0215 42.7432C48.7419 42.5004 48.3816 42.3717 48.0119 42.3825C47.7311 42.3796 47.4545 42.4517 47.2106 42.5913C46.9833 42.7183 46.8088 42.9225 46.7184 43.1671L45.7908 42.7685C45.9492 42.4045 46.2046 42.0914 46.5291 41.8636C46.9592 41.5701 47.4733 41.4257 47.993 41.4524C48.626 41.4391 49.2409 41.665 49.7156 42.0851C49.9499 42.3032 50.1331 42.5707 50.252 42.8683C50.3709 43.1659 50.4226 43.4862 50.4034 43.8062V47.0838H49.4317V46.3056H49.3875C49.1979 46.6045 48.9329 46.848 48.6193 47.0113C48.3057 47.1746 47.9547 47.252 47.6018 47.2357ZM47.7721 46.3056C48.1984 46.3012 48.607 46.1337 48.9142 45.8373C49.0749 45.6996 49.2043 45.529 49.2936 45.3368C49.3828 45.1447 49.4299 44.9356 49.4317 44.7237C49.063 44.4659 48.6182 44.341 48.1697 44.3693C47.7715 44.3366 47.375 44.4489 47.0528 44.6857C46.9363 44.7751 46.8417 44.89 46.7761 45.0215C46.7105 45.1531 46.6756 45.2979 46.6742 45.445C46.6702 45.5713 46.6996 45.6963 46.7595 45.8075C46.8193 45.9186 46.9075 46.0119 47.0149 46.0778C47.239 46.2277 47.5027 46.3071 47.7721 46.3056Z" fill="#5F6368"/>
<path d="M52.5245 41.629V42.5148H52.5686C52.685 42.1977 52.9082 41.9314 53.1996 41.7619C53.5257 41.5811 53.8935 41.4895 54.266 41.4961H54.632V42.4959C54.4954 42.4866 54.3584 42.4866 54.2218 42.4959C53.7821 42.4805 53.3531 42.6344 53.023 42.9261C52.8632 43.0744 52.738 43.2562 52.6562 43.4585C52.5744 43.6608 52.5381 43.8787 52.5497 44.0967V47.0643H51.5527V41.629H52.5245ZM58.1025 47.1466C57.8648 47.1643 57.626 47.1337 57.4004 47.0565C57.1749 46.9793 56.9672 46.8571 56.79 46.6973C56.6354 46.5267 56.5162 46.3269 56.4393 46.1097C56.3624 45.8924 56.3293 45.662 56.342 45.4318V42.5844H55.4018V41.629H56.3546V39.9648H57.3705V41.629H58.683V42.5591H57.3579V45.3306C57.3579 45.919 57.604 46.2164 58.0898 46.2164C58.2482 46.2233 58.4059 46.193 58.5505 46.1278L58.9038 47.0074C58.6485 47.1065 58.3761 47.1538 58.1025 47.1466Z" fill="#5F6368"/>
<path d="M60.7007 41.6266V42.3923H60.7449C60.9144 42.1219 61.1544 41.9031 61.439 41.7595C61.7471 41.5638 62.1028 41.4565 62.4675 41.4495C62.7552 41.4304 63.0435 41.4774 63.3103 41.5871C63.5772 41.6968 63.8155 41.8661 64.0071 42.0822C64.3802 42.5536 64.5687 43.1454 64.5372 43.7463V47.0683H63.5212V43.9045C63.5212 42.8985 63.0732 42.3986 62.1835 42.3986C61.9844 42.3956 61.7875 42.4399 61.6087 42.5279C61.4299 42.6159 61.2745 42.745 61.155 42.9048C60.8914 43.2346 60.7508 43.6464 60.7575 44.069V47.0746H59.7227V41.6266H60.7007Z" fill="#5F6368"/>
<path d="M68.1481 47.2346C67.777 47.2481 67.4073 47.1823 67.0636 47.0416C66.7198 46.9009 66.4098 46.6884 66.1541 46.4184C65.6361 45.8546 65.3596 45.1092 65.3843 44.343C65.3711 43.5927 65.6365 42.8642 66.1289 42.2992C66.3631 42.0272 66.6541 41.8103 66.9812 41.6638C67.3084 41.5172 67.6637 41.4447 68.0219 41.4513C68.3809 41.4367 68.7388 41.4992 69.0718 41.6345C69.4048 41.7698 69.7051 41.9748 69.9527 42.2359C70.4533 42.8196 70.7109 43.5741 70.6721 44.343V44.5328H66.3876C66.3939 45.0206 66.5911 45.4865 66.9366 45.8299C67.2523 46.1377 67.6763 46.3083 68.1165 46.3045C68.4308 46.3312 68.7452 46.2549 69.0125 46.0872C69.2799 45.9195 69.4858 45.6694 69.5994 45.3743L70.5017 45.754C70.3298 46.1818 70.0411 46.5524 69.6688 46.8233C69.2186 47.1196 68.6858 47.2637 68.1481 47.2346ZM69.612 43.6912C69.5759 43.3531 69.4243 43.0379 69.1829 42.799C69.0285 42.6511 68.8447 42.5375 68.6436 42.4656C68.4425 42.3936 68.2285 42.3649 68.0156 42.3814C67.657 42.3737 67.3084 42.5 67.0375 42.7358C66.7516 42.9854 66.5526 43.3202 66.4696 43.6912H69.612Z" fill="#5F6368"/>
<path d="M72.6643 47.0549H71.6484V41.6258H72.6202V42.5117H72.6643C72.7802 42.1991 73.0041 41.9387 73.2953 41.7777C73.5753 41.6 73.898 41.5017 74.2292 41.493C74.49 41.4856 74.7496 41.5308 74.9927 41.6258L74.6015 42.575C74.4286 42.5181 74.247 42.4924 74.0651 42.499C73.8799 42.4995 73.6967 42.5385 73.5272 42.6137C73.3578 42.6888 73.2058 42.7985 73.0808 42.9356C72.9371 43.0895 72.8256 43.2707 72.753 43.4685C72.6804 43.6663 72.6481 43.8767 72.658 44.0872L72.6643 47.0549Z" fill="#5F6368"/>
<path d="M4.55518 47.3973C3.96519 47.3973 3.38098 47.2808 2.83591 47.0544C2.29083 46.828 1.79556 46.4961 1.37838 46.0778C0.961192 45.6594 0.630263 45.1628 0.404485 44.6162C0.178707 44.0696 0.0625 43.4838 0.0625 42.8921C0.0625 42.3005 0.178707 41.7147 0.404485 41.1681C0.630263 40.6215 0.961192 40.1248 1.37838 39.7065C1.79556 39.2881 2.29083 38.9563 2.83591 38.7299C3.38098 38.5035 3.96519 38.387 4.55518 38.387C5.12672 38.3809 5.69367 38.4898 6.22254 38.7072C6.75142 38.9245 7.2315 39.2459 7.63443 39.6525L6.76997 40.494C6.17468 39.9219 5.37969 39.6062 4.55518 39.6145C4.1247 39.6145 3.69844 39.6995 3.30074 39.8647C2.90303 40.0299 2.54166 40.272 2.23727 40.5773C1.62253 41.1937 1.27716 42.0298 1.27716 42.9016C1.27716 43.7734 1.62253 44.6095 2.23727 45.226C2.85202 45.8425 3.6858 46.1888 4.55518 46.1888C4.97522 46.2049 5.39403 46.1334 5.78506 45.9787C6.17609 45.824 6.53081 45.5896 6.82676 45.2903C7.21469 44.862 7.44994 44.3168 7.49561 43.74H4.54887V42.4745H8.68819C8.73354 42.7399 8.75466 43.0089 8.75129 43.2781C8.78492 44.3395 8.40465 45.3723 7.69122 46.1571C7.28523 46.5739 6.79594 46.8998 6.25547 47.1136C5.71499 47.3273 5.13555 47.424 4.55518 47.3973Z" fill="#5F6368"/>
<path d="M15.3071 44.496C15.3096 45.0722 15.1415 45.6362 14.824 46.1165C14.5066 46.5968 14.0542 46.9719 13.524 47.1941C12.9939 47.4163 12.4099 47.4758 11.846 47.3649C11.2821 47.254 10.7638 46.9778 10.3566 46.5713C9.94938 46.1647 9.67168 45.6461 9.55866 45.0812C9.44563 44.5162 9.50237 43.9303 9.72169 43.3977C9.941 42.8651 10.313 42.4098 10.7906 42.0894C11.2682 41.769 11.8299 41.598 12.4045 41.598C12.7862 41.5921 13.1653 41.6629 13.5193 41.8062C13.8733 41.9496 14.1951 42.1627 14.4656 42.4328C14.7362 42.7029 14.95 43.0246 15.0946 43.379C15.2391 43.7334 15.3113 44.1132 15.3071 44.496ZM14.0451 44.496C14.0218 44.178 13.9065 43.8738 13.7133 43.6206C13.5201 43.3673 13.2575 43.1761 12.9576 43.0703C12.6577 42.9645 12.3335 42.9487 12.0248 43.0249C11.7161 43.101 11.4362 43.2658 11.2195 43.4991C11.0027 43.7324 10.8586 44.024 10.8046 44.3382C10.7507 44.6524 10.7893 44.9755 10.9158 45.268C11.0422 45.5605 11.251 45.8097 11.5165 45.985C11.7821 46.1604 12.0929 46.2542 12.4108 46.255C12.634 46.2503 12.854 46.2006 13.0576 46.1089C13.2613 46.0172 13.4445 45.8854 13.5963 45.7213C13.7482 45.5572 13.8656 45.3642 13.9416 45.1537C14.0176 44.9432 14.0507 44.7195 14.0388 44.496H14.0451Z" fill="#5F6368"/>
<path d="M21.8832 44.496C21.8857 45.0722 21.7176 45.6362 21.4002 46.1165C21.0828 46.5968 20.6304 46.9719 20.1002 47.1941C19.5701 47.4163 18.9861 47.4758 18.4222 47.3649C17.8583 47.254 17.3399 46.9778 16.9327 46.5713C16.5256 46.1647 16.2479 45.6461 16.1348 45.0812C16.0218 44.5162 16.0785 43.9303 16.2979 43.3977C16.5172 42.8651 16.8892 42.4098 17.3668 42.0894C17.8444 41.769 18.4061 41.598 18.9807 41.598C19.3624 41.5921 19.7415 41.6629 20.0955 41.8062C20.4495 41.9496 20.7713 42.1627 21.0418 42.4328C21.3124 42.7029 21.5262 43.0246 21.6707 43.379C21.8152 43.7334 21.8875 44.1132 21.8832 44.496ZM20.6213 44.496C20.5991 44.1761 20.4843 43.8697 20.2908 43.6145C20.0973 43.3592 19.8337 43.1662 19.5323 43.0591C19.2309 42.9521 18.9049 42.9357 18.5943 43.012C18.2838 43.0883 18.0022 43.2539 17.7842 43.4885C17.5663 43.7231 17.4214 44.0164 17.3675 44.3324C17.3136 44.6485 17.3529 44.9734 17.4807 45.2673C17.6085 45.5613 17.8191 45.8113 18.0867 45.9868C18.3543 46.1623 18.6672 46.2555 18.987 46.255C19.2102 46.2503 19.4301 46.2006 19.6338 46.1089C19.8374 46.0172 20.0206 45.8854 20.1725 45.7213C20.3244 45.5572 20.4418 45.3642 20.5178 45.1537C20.5938 44.9432 20.6268 44.7195 20.6149 44.496H20.6213Z" fill="#5F6368"/>
<path d="M28.1685 41.7597V46.9672C28.1685 49.1059 26.9065 49.9855 25.4174 49.9855C24.8685 49.9885 24.3312 49.8269 23.8747 49.5213C23.4182 49.2157 23.0632 48.7802 22.8555 48.2707L23.9787 47.8214C24.0914 48.12 24.2902 48.3782 24.5498 48.563C24.8094 48.7478 25.118 48.8509 25.4363 48.8592C26.3891 48.8592 26.9822 48.2644 26.9822 47.1507V46.7331H26.9381C26.7454 46.9427 26.5097 47.1079 26.2471 47.2171C25.9845 47.3264 25.7014 47.3771 25.4174 47.3659C24.6734 47.331 23.9715 47.0101 23.4573 46.4699C22.9431 45.9296 22.6562 45.2115 22.6562 44.4647C22.6562 43.7179 22.9431 42.9998 23.4573 42.4595C23.9715 41.9193 24.6734 41.5984 25.4174 41.5635C25.7012 41.5544 25.9836 41.6061 26.2459 41.7152C26.5081 41.8243 26.7441 41.9883 26.9381 42.1963H26.9822V41.7597H28.1685ZM27.0516 44.4932C27.0697 44.2743 27.0437 44.0541 26.9752 43.8455C26.9067 43.6369 26.797 43.4443 26.6528 43.279C26.5086 43.1138 26.3328 42.9792 26.1357 42.8835C25.9387 42.7877 25.7244 42.7326 25.5057 42.7215C25.0662 42.7589 24.6566 42.9604 24.3582 43.2862C24.0598 43.6119 23.8941 44.0382 23.8941 44.4805C23.8941 44.9229 24.0598 45.3491 24.3582 45.6749C24.6566 46.0006 25.0662 46.2022 25.5057 46.2396C25.7218 46.2308 25.934 46.1786 26.1296 46.086C26.3253 45.9935 26.5004 45.8625 26.6446 45.7008C26.7887 45.5391 26.8991 45.35 26.969 45.1447C27.0389 44.9395 27.067 44.7222 27.0516 44.5058V44.4932Z" fill="#5F6368"/>
<path d="M30.6663 38.6953V47.2248H29.4043V38.6953H30.6663Z" fill="#5F6368"/>
<path d="M35.8475 45.4511L36.8318 46.0839C36.5657 46.4782 36.2062 46.8003 35.7856 47.0211C35.3649 47.242 34.8962 47.3548 34.4214 47.3494C34.0451 47.3544 33.6716 47.2842 33.3226 47.1429C32.9737 47.0016 32.6563 46.792 32.389 46.5263C32.1218 46.2607 31.9099 45.9443 31.7659 45.5956C31.622 45.247 31.5487 44.873 31.5504 44.4957C31.5316 44.1234 31.5883 43.7512 31.7169 43.4016C31.8456 43.0519 32.0435 42.732 32.2989 42.4611C32.5542 42.1903 32.8616 41.9741 33.2026 41.8257C33.5435 41.6773 33.9109 41.5997 34.2826 41.5977C34.8341 41.6138 35.3674 41.7998 35.8099 42.1303C36.2524 42.4609 36.5827 42.92 36.7561 43.4453L36.8886 43.7743L33.0206 45.3752C33.1393 45.6457 33.3363 45.8742 33.5861 46.031C33.8359 46.1878 34.1269 46.2658 34.4214 46.2547C34.7084 46.2576 34.9912 46.1849 35.2414 46.0438C35.4917 45.9028 35.7006 45.6985 35.8475 45.4511ZM32.8124 44.4071L35.3994 43.3314C35.3017 43.1311 35.1471 42.9643 34.9552 42.8517C34.7632 42.7391 34.5424 42.6859 34.3204 42.6986C34.1084 42.7082 33.9005 42.7604 33.709 42.8521C33.5174 42.9438 33.3463 43.0732 33.2056 43.2326C33.0649 43.3919 32.9576 43.578 32.8901 43.7798C32.8225 43.9816 32.7961 44.1949 32.8124 44.4071Z" fill="#5F6368"/>
</g>
<defs>
<clipPath id="clip0_9879_18429">
<rect width="75" height="50" fill="white"/>
</clipPath>
</defs>
</svg>
