<svg width="20" height="19" viewBox="0 0 20 19" fill="none" xmlns="http://www.w3.org/2000/svg">
<path d="M0.459355 13.5817L7.10438 1.71094C7.94846 2.22948 12.2048 4.68743 12.8922 5.1549L6.24717 17.0264C5.52045 18.0282 -0.461342 15.102 0.459355 13.5811V13.5817Z" fill="#FBBC04"/>
<path d="M19.5523 13.5795L12.9072 1.70948C11.9783 0.0962537 9.97752 -0.490005 8.33417 0.462808C6.69082 1.41562 6.19044 3.4681 7.11942 5.15337L13.7645 17.0249C14.6934 18.6374 16.6942 19.2236 18.3376 18.2708C19.9091 17.3179 20.4813 15.1927 19.5523 13.5809V13.5795Z" fill="#4285F4"/>
<path d="M3.33565 18.7298C5.17788 18.7298 6.6713 17.2102 6.6713 15.3356C6.6713 13.461 5.17788 11.9414 3.33565 11.9414C1.49342 11.9414 0 13.461 0 15.3356C0 17.2102 1.49342 18.7298 3.33565 18.7298Z" fill="#34A853"/>
</svg>
