<svg width="64" height="42" viewBox="0 0 64 42" fill="none" xmlns="http://www.w3.org/2000/svg">
<g clip-path="url(#clip0_11476_505)">
<path d="M25.2953 15.5742C25.4217 15.9346 25.5727 16.2858 25.7474 16.6255C26.534 18.1977 27.8314 19.4561 29.4268 20.1945C30.0918 20.5065 30.801 20.714 31.5293 20.8095C32.1563 20.8803 32.7893 20.8803 33.4163 20.8095C34.3001 20.7299 35.1639 20.5006 35.9709 20.1314C36.2654 19.9904 36.5514 19.8325 36.8277 19.6584L36.9065 19.6058L37.3901 19.9895L39.3454 21.5086L41.0432 22.8227C40.8085 23.047 40.5611 23.2576 40.3021 23.4534C39.0373 24.4294 37.5841 25.1328 36.0339 25.5191C35.3698 25.6909 34.6931 25.8104 34.0103 25.8766C33.7107 25.9081 33.4058 25.9291 33.1009 25.9396C32.9591 25.9318 32.817 25.9318 32.6752 25.9396H32.3966C32.267 25.9318 32.1372 25.9318 32.0076 25.9396C31.534 25.923 31.0618 25.8774 30.5937 25.803C28.5841 25.5161 26.6731 24.7499 25.022 23.5691C23.3395 22.3602 21.9744 20.7625 21.043 18.912L21.4267 18.6176L24.2178 16.452L25.2953 15.5742Z" fill="white"/>
<path d="M21.0273 7.33862C21.1861 7.00074 21.3616 6.67095 21.553 6.35043C22.5013 4.81015 23.764 3.4873 25.2584 2.46833C26.7529 1.44936 28.4456 0.757202 30.2259 0.437089C31.1995 0.255908 32.1906 0.187125 33.1799 0.232093C34.3281 0.289085 35.4632 0.501265 36.5545 0.862849C38.2435 1.42105 39.7912 2.33927 41.0907 3.55408C41.1222 3.58561 41.1275 3.60138 41.0907 3.63292L37.5006 7.22298C37.4638 7.26503 37.4428 7.22298 37.4112 7.22298C36.8131 6.65662 36.1166 6.20417 35.356 5.88788C34.7502 5.63285 34.1114 5.46474 33.4585 5.38853C32.9458 5.32549 32.428 5.31492 31.9132 5.35699C31.0201 5.42302 30.1478 5.65849 29.3428 6.05082C28.3925 6.50164 27.5438 7.14085 26.848 7.92966C26.1523 8.71847 25.6241 9.64043 25.2955 10.6396L23.7186 9.4096L21.0273 7.33862Z" fill="white"/>
<path d="M41.0318 22.8651L39.334 21.551L37.3787 20.032L36.8951 19.6483C37.0633 19.5274 37.2368 19.4065 37.3945 19.2698C38.4529 18.4099 39.181 17.2101 39.4549 15.8742C39.4549 15.8217 39.4549 15.8059 39.3971 15.8059H32.6007C32.5114 15.8059 32.5219 15.8059 32.5219 15.7271V11.0384C32.5219 10.9806 32.5219 10.9648 32.5955 10.9648H44.5851C44.6376 10.9648 44.6534 10.9648 44.6639 11.0279C44.7323 11.4957 44.7901 11.9688 44.8216 12.4419C44.8505 12.9566 44.8505 13.4725 44.8216 13.9872C44.8216 14.4077 44.7796 14.823 44.727 15.2382C44.6196 16.1468 44.4242 17.0429 44.1436 17.9137C43.6893 19.3131 42.9761 20.6148 42.041 21.7508C41.742 22.1351 41.4152 22.497 41.0634 22.8336L41.0318 22.8651Z" fill="#FBFBFB"/>
<path d="M21.0267 7.33984L23.6916 9.40557L25.2685 10.6355C24.9631 11.5295 24.8258 12.4722 24.8638 13.4161C24.8939 14.1412 25.0285 14.8582 25.2633 15.5449L24.17 16.3965L21.3789 18.5621L20.9952 18.8564C20.7767 18.4302 20.5836 17.9914 20.417 17.5423C19.8016 15.895 19.5339 14.1381 19.6306 12.3822C19.7274 10.6264 20.1867 8.90956 20.9794 7.33984H21.0267Z" fill="#FBFBFB"/>
<path d="M34.8769 39.3233H34.0254V32.7267H36.2751C36.8128 32.7217 37.332 32.923 37.7258 33.2891C37.9198 33.4678 38.0747 33.6847 38.1806 33.9263C38.2865 34.1679 38.3412 34.4288 38.3412 34.6925C38.3412 34.9563 38.2865 35.2172 38.1806 35.4587C38.0747 35.7003 37.9198 35.9173 37.7258 36.0959C37.3311 36.4601 36.8121 36.6595 36.2751 36.6531H34.8769V39.3233ZM34.8769 35.8436H36.2961C36.4555 35.8498 36.6144 35.821 36.7615 35.7592C36.9086 35.6975 37.0404 35.6043 37.1476 35.4862C37.3531 35.2752 37.4681 34.9923 37.4681 34.6978C37.4681 34.4032 37.3531 34.1203 37.1476 33.9093C37.0404 33.7912 36.9086 33.698 36.7615 33.6363C36.6144 33.5745 36.4555 33.5457 36.2961 33.5519H34.8769V35.8436Z" fill="white"/>
<path d="M40.3176 39.467C39.8814 39.4817 39.4549 39.3359 39.1191 39.057C38.9603 38.9124 38.8349 38.7348 38.7518 38.5367C38.6687 38.3386 38.6297 38.1247 38.6377 37.91C38.6458 37.6953 38.7005 37.485 38.7982 37.2936C38.8958 37.1023 39.0341 36.9345 39.2032 36.8021C39.6167 36.5127 40.1128 36.3652 40.6172 36.3816C41.0427 36.3659 41.465 36.462 41.8419 36.6602V36.5287C41.8473 36.3794 41.8194 36.2307 41.7603 36.0935C41.7012 35.9562 41.6124 35.8338 41.5002 35.735C41.2673 35.5334 40.9672 35.4264 40.6592 35.4354C40.4253 35.433 40.1949 35.4929 39.9917 35.6089C39.8024 35.7144 39.657 35.884 39.5817 36.0872L38.809 35.7561C38.9409 35.4537 39.1537 35.1936 39.424 35.0044C39.7823 34.7606 40.2106 34.6406 40.6435 34.6628C41.1708 34.6518 41.683 34.8394 42.0784 35.1884C42.2736 35.3696 42.4262 35.5918 42.5253 35.839C42.6243 36.0862 42.6674 36.3523 42.6514 36.6181V39.3409H41.8419V38.6943H41.8051C41.6471 38.9427 41.4264 39.1449 41.1652 39.2806C40.904 39.4163 40.6116 39.4806 40.3176 39.467ZM40.4595 38.6943C40.8146 38.6907 41.1549 38.5516 41.4109 38.3054C41.5448 38.191 41.6525 38.0492 41.7269 37.8896C41.8012 37.73 41.8405 37.5563 41.8419 37.3803C41.5348 37.1661 41.1643 37.0624 40.7906 37.0859C40.459 37.0587 40.1287 37.152 39.8603 37.3487C39.7632 37.423 39.6844 37.5184 39.6298 37.6277C39.5751 37.737 39.5461 37.8573 39.5449 37.9795C39.5416 38.0844 39.5661 38.1883 39.6159 38.2806C39.6658 38.3729 39.7392 38.4504 39.8287 38.5051C40.0154 38.6297 40.2351 38.6956 40.4595 38.6943Z" fill="white"/>
<path d="M44.4169 34.8121V35.548H44.4537C44.5506 35.2846 44.7365 35.0633 44.9793 34.9225C45.251 34.7723 45.5573 34.6962 45.8676 34.7017H46.1725V35.5322C46.0587 35.5245 45.9446 35.5245 45.8308 35.5322C45.4645 35.5194 45.1072 35.6473 44.8321 35.8896C44.6991 36.0128 44.5948 36.1638 44.5266 36.3319C44.4585 36.5 44.4282 36.681 44.4379 36.8621V39.3273H43.6074V34.8121H44.4169ZM49.0635 39.3956C48.8655 39.4103 48.6665 39.3849 48.4787 39.3208C48.2908 39.2566 48.1178 39.1551 47.9702 39.0224C47.8414 38.8806 47.7421 38.7147 47.6781 38.5342C47.614 38.3537 47.5864 38.1623 47.597 37.9711V35.6058H46.8138V34.8121H47.6075V33.4297H48.4537V34.8121H49.547V35.5848H48.4432V37.887C48.4432 38.3759 48.6482 38.6229 49.0529 38.6229C49.1848 38.6287 49.3162 38.6035 49.4367 38.5493L49.731 39.28C49.5183 39.3623 49.2914 39.4016 49.0635 39.3956Z" fill="white"/>
<path d="M51.2288 34.8108V35.4468H51.2656C51.4068 35.2222 51.6068 35.0404 51.8438 34.9212C52.1004 34.7586 52.3968 34.6695 52.7006 34.6636C52.9402 34.6477 53.1804 34.6868 53.4027 34.7779C53.6249 34.869 53.8235 35.0097 53.9831 35.1892C54.2939 35.5808 54.4509 36.0724 54.4246 36.5716V39.3312H53.5784V36.703C53.5784 35.8673 53.2052 35.452 52.464 35.452C52.2982 35.4496 52.1341 35.4864 51.9852 35.5595C51.8363 35.6325 51.7068 35.7398 51.6072 35.8725C51.3877 36.1466 51.2706 36.4886 51.2761 36.8397V39.3364H50.4141V34.8108H51.2288Z" fill="white"/>
<path d="M57.4324 39.47C57.1233 39.4812 56.8154 39.4266 56.529 39.3097C56.2426 39.1928 55.9844 39.0163 55.7714 38.792C55.3399 38.3236 55.1096 37.7045 55.1302 37.0679C55.1191 36.4446 55.3402 35.8395 55.7504 35.3701C55.9455 35.1442 56.1879 34.964 56.4604 34.8423C56.7329 34.7206 57.0289 34.6603 57.3273 34.6658C57.6264 34.6537 57.9245 34.7056 58.2019 34.818C58.4793 34.9304 58.7295 35.1007 58.9357 35.3176C59.3527 35.8025 59.5673 36.4292 59.535 37.0679V37.2256H55.9659C55.9712 37.6308 56.1354 38.0178 56.4232 38.3031C56.6862 38.5588 57.0394 38.7005 57.4062 38.6974C57.6679 38.7195 57.9298 38.6562 58.1525 38.5169C58.3753 38.3776 58.5468 38.1698 58.6414 37.9247L59.393 38.2401C59.2498 38.5955 59.0093 38.9033 58.6992 39.1284C58.3242 39.3745 57.8803 39.4942 57.4324 39.47ZM58.6519 36.5265C58.6218 36.2456 58.4955 35.9838 58.2945 35.7854C58.1658 35.6625 58.0128 35.5681 57.8452 35.5084C57.6777 35.4486 57.4994 35.4248 57.3221 35.4385C57.0234 35.4321 56.733 35.537 56.5073 35.7328C56.2691 35.9402 56.1034 36.2183 56.0343 36.5265H58.6519Z" fill="white"/>
<path d="M61.1959 39.3202H60.3496V34.8102H61.1591V35.5461H61.1959C61.2924 35.2865 61.4789 35.0701 61.7215 34.9364C61.9547 34.7888 62.2235 34.7071 62.4994 34.6999C62.7167 34.6937 62.933 34.7313 63.1354 34.8102L62.8096 35.5987C62.6655 35.5514 62.5143 35.5301 62.3628 35.5356C62.2084 35.536 62.0558 35.5684 61.9147 35.6309C61.7735 35.6933 61.6469 35.7844 61.5428 35.8983C61.4231 36.0261 61.3302 36.1766 61.2697 36.3409C61.2092 36.5053 61.1823 36.68 61.1906 36.855L61.1959 39.3202Z" fill="white"/>
<path d="M4.45929 39.6063C3.96781 39.6063 3.48116 39.5095 3.0271 39.3214C2.57304 39.1333 2.16047 38.8576 1.81295 38.5101C1.46542 38.1626 1.18975 37.75 1.00168 37.296C0.813599 36.8419 0.716797 36.3553 0.716797 35.8638C0.716797 35.3723 0.813599 34.8857 1.00168 34.4316C1.18975 33.9775 1.46542 33.565 1.81295 33.2174C2.16047 32.8699 2.57304 32.5942 3.0271 32.4062C3.48116 32.2181 3.96781 32.1213 4.45929 32.1213C4.93539 32.1163 5.40767 32.2067 5.84823 32.3873C6.28879 32.5678 6.68871 32.8349 7.02436 33.1726L6.30425 33.8716C5.80836 33.3964 5.14612 33.1341 4.45929 33.141C4.10069 33.141 3.74561 33.2116 3.41431 33.3489C3.08301 33.4861 2.78199 33.6872 2.52842 33.9408C2.01633 34.4529 1.72864 35.1475 1.72864 35.8717C1.72864 36.5959 2.01633 37.2904 2.52842 37.8025C3.04052 38.3146 3.73507 38.6023 4.45929 38.6023C4.80919 38.6157 5.15806 38.5563 5.4838 38.4278C5.80953 38.2993 6.10503 38.1046 6.35155 37.8559C6.67471 37.5002 6.87068 37.0472 6.90872 36.5681H4.45403V35.5169H7.90217C7.93994 35.7373 7.95753 35.9608 7.95473 36.1844C7.98274 37.0661 7.66597 37.9241 7.07167 38.576C6.73347 38.9222 6.32588 39.193 5.87566 39.3705C5.42543 39.5481 4.94275 39.6284 4.45929 39.6063Z" fill="white"/>
<path d="M13.4159 37.1928C13.4179 37.6715 13.2779 38.14 13.0135 38.539C12.7491 38.938 12.3722 39.2495 11.9306 39.4342C11.4889 39.6188 11.0024 39.6682 10.5327 39.5761C10.063 39.484 9.6312 39.2545 9.29199 38.9168C8.95279 38.5791 8.72146 38.1482 8.62731 37.6789C8.53316 37.2096 8.58043 36.7229 8.76312 36.2805C8.94581 35.8381 9.25571 35.4598 9.65356 35.1937C10.0514 34.9275 10.5193 34.7854 10.998 34.7854C11.316 34.7805 11.6317 34.8393 11.9266 34.9584C12.2215 35.0775 12.4895 35.2545 12.7149 35.4789C12.9403 35.7033 13.1184 35.9706 13.2388 36.2649C13.3592 36.5593 13.4194 36.8748 13.4159 37.1928ZM12.3646 37.1928C12.3452 36.9287 12.2491 36.676 12.0882 36.4656C11.9273 36.2552 11.7085 36.0964 11.4587 36.0085C11.2089 35.9206 10.9388 35.9075 10.6816 35.9707C10.4245 36.034 10.1913 36.1709 10.0108 36.3647C9.83027 36.5585 9.71017 36.8007 9.66524 37.0617C9.6203 37.3227 9.65247 37.5912 9.75781 37.8342C9.86314 38.0772 10.0371 38.2842 10.2583 38.4298C10.4795 38.5754 10.7384 38.6534 11.0032 38.6541C11.1891 38.6501 11.3724 38.6088 11.542 38.5327C11.7117 38.4565 11.8643 38.347 11.9908 38.2107C12.1173 38.0744 12.2151 37.914 12.2784 37.7392C12.3417 37.5643 12.3692 37.3785 12.3593 37.1928H12.3646Z" fill="white"/>
<path d="M18.8924 37.1928C18.8945 37.6715 18.7545 38.14 18.4901 38.539C18.2256 38.938 17.8487 39.2495 17.4071 39.4342C16.9655 39.6188 16.479 39.6682 16.0093 39.5761C15.5396 39.484 15.1078 39.2545 14.7686 38.9168C14.4294 38.5791 14.198 38.1482 14.1039 37.6789C14.0097 37.2096 14.057 36.7229 14.2397 36.2805C14.4224 35.8381 14.7323 35.4598 15.1301 35.1937C15.528 34.9275 15.9959 34.7854 16.4745 34.7854C16.7925 34.7805 17.1083 34.8393 17.4032 34.9584C17.6981 35.0775 17.9661 35.2545 18.1915 35.4789C18.4169 35.7033 18.595 35.9706 18.7154 36.2649C18.8358 36.5593 18.896 36.8748 18.8924 37.1928ZM17.8412 37.1928C17.8227 36.9271 17.727 36.6726 17.5659 36.4605C17.4047 36.2485 17.1851 36.0881 16.934 35.9992C16.683 35.9103 16.4114 35.8967 16.1527 35.96C15.894 36.0234 15.6594 36.161 15.4779 36.3559C15.2963 36.5507 15.1757 36.7944 15.1307 37.057C15.0858 37.3195 15.1186 37.5894 15.225 37.8336C15.3315 38.0777 15.5069 38.2855 15.7299 38.4312C15.9528 38.577 16.2134 38.6545 16.4798 38.6541C16.6657 38.6501 16.8489 38.6088 17.0186 38.5327C17.1882 38.4565 17.3408 38.347 17.4673 38.2107C17.5938 38.0744 17.6917 37.914 17.755 37.7392C17.8183 37.5643 17.8458 37.3785 17.8359 37.1928H17.8412Z" fill="white"/>
<path d="M24.1289 34.9216V39.2476C24.1289 41.0242 23.0777 41.7548 21.8372 41.7548C21.3799 41.7574 20.9324 41.6231 20.5521 41.3692C20.1718 41.1154 19.8761 40.7536 19.7031 40.3304L20.6387 39.9572C20.7326 40.2052 20.8982 40.4197 21.1145 40.5732C21.3307 40.7267 21.5878 40.8124 21.8529 40.8192C22.6466 40.8192 23.1407 40.3251 23.1407 39.4V39.0531H23.1039C22.9435 39.2272 22.7471 39.3644 22.5283 39.4552C22.3096 39.5459 22.0738 39.5881 21.8372 39.5787C21.2175 39.5498 20.6327 39.2832 20.2044 38.8344C19.7761 38.3856 19.5371 37.7891 19.5371 37.1687C19.5371 36.5483 19.7761 35.9518 20.2044 35.503C20.6327 35.0542 21.2175 34.7876 21.8372 34.7587C22.0736 34.751 22.3089 34.794 22.5273 34.8846C22.7458 34.9753 22.9424 35.1116 23.1039 35.2843H23.1407V34.9216H24.1289ZM23.1986 37.1923C23.2136 37.0105 23.1919 36.8276 23.1348 36.6543C23.0778 36.4811 22.9865 36.321 22.8663 36.1837C22.7462 36.0465 22.5997 35.9347 22.4356 35.8551C22.2714 35.7756 22.0929 35.7298 21.9108 35.7206C21.5446 35.7517 21.2035 35.9191 20.9549 36.1897C20.7063 36.4603 20.5683 36.8144 20.5683 37.1818C20.5683 37.5493 20.7063 37.9034 20.9549 38.174C21.2035 38.4446 21.5446 38.612 21.9108 38.6431C22.0908 38.6358 22.2675 38.5924 22.4305 38.5155C22.5935 38.4387 22.7393 38.3298 22.8594 38.1955C22.9795 38.0612 23.0715 37.9041 23.1297 37.7336C23.188 37.5631 23.2114 37.3826 23.1986 37.2029V37.1923Z" fill="white"/>
<path d="M26.2095 32.3711V39.4566H25.1582V32.3711H26.2095Z" fill="white"/>
<path d="M30.5258 37.9862L31.3458 38.5119C31.1242 38.8395 30.8247 39.107 30.4743 39.2905C30.1239 39.4739 29.7334 39.5676 29.3379 39.5631C29.0244 39.5673 28.7133 39.509 28.4226 39.3916C28.1319 39.2743 27.8675 39.1001 27.6449 38.8794C27.4222 38.6588 27.2458 38.3959 27.1258 38.1063C27.0059 37.8167 26.9449 37.506 26.9463 37.1925C26.9307 36.8833 26.9778 36.5741 27.085 36.2837C27.1922 35.9932 27.3571 35.7274 27.5698 35.5024C27.7825 35.2775 28.0386 35.0979 28.3226 34.9746C28.6066 34.8513 28.9126 34.7869 29.2223 34.7852C29.6817 34.7986 30.1259 34.9531 30.4945 35.2277C30.8632 35.5022 31.1383 35.8836 31.2827 36.32L31.3931 36.5933L28.171 37.9232C28.2699 38.1479 28.434 38.3377 28.6421 38.468C28.8501 38.5983 29.0926 38.663 29.3379 38.6538C29.577 38.6562 29.8125 38.5958 30.021 38.4786C30.2294 38.3615 30.4035 38.1917 30.5258 37.9862ZM27.9975 37.119L30.1526 36.2254C30.0712 36.059 29.9424 35.9204 29.7825 35.8269C29.6227 35.7334 29.4387 35.6892 29.2538 35.6998C29.0772 35.7077 28.904 35.751 28.7444 35.8272C28.5849 35.9034 28.4423 36.0109 28.3251 36.1433C28.2079 36.2757 28.1185 36.4303 28.0623 36.5979C28.006 36.7655 27.984 36.9427 27.9975 37.119Z" fill="white"/>
</g>
<defs>
<clipPath id="clip0_11476_505">
<rect width="62.4764" height="41.5353" fill="white" transform="translate(0.664062 0.230469)"/>
</clipPath>
</defs>
</svg>
