<svg width="138" height="24" viewBox="0 0 138 24" fill="none" xmlns="http://www.w3.org/2000/svg">
<path d="M34.9378 3.67871H36.3929C36.5477 3.67871 36.6483 3.67871 36.6638 3.87395C36.7727 4.60179 36.6097 5.34451 36.2063 5.95786C35.803 6.57122 35.1881 7.01143 34.4812 7.19301C31.9426 7.97397 29.3962 6.25586 29.4581 3.82709C29.5046 2.0387 31.3698 0.50803 33.3667 0.601745C34.1588 0.629583 34.9234 0.902187 35.557 1.3827C35.7195 1.49984 35.7272 1.58575 35.557 1.7107C35.3867 1.83565 35.2551 2.06213 35.0539 2.13242C34.8527 2.2027 34.7056 1.94499 34.5199 1.85127C33.8846 1.51612 33.1461 1.43944 32.4565 1.63701C31.7669 1.83459 31.1785 2.29137 30.8126 2.91337C30.6564 3.22624 30.5696 3.56966 30.5582 3.91979C30.5468 4.26991 30.6111 4.61834 30.7466 4.94086C30.8821 5.26338 31.0856 5.55227 31.3429 5.78745C31.6002 6.02263 31.9052 6.19845 32.2367 6.30272C32.7353 6.48045 33.2728 6.51618 33.7903 6.40597C34.3077 6.29576 34.7851 6.04388 35.17 5.67796C35.2348 5.61674 35.2897 5.54557 35.3325 5.4671C35.4873 5.21719 35.6808 4.91262 35.5647 4.68614C35.4486 4.45966 35.1003 4.63928 34.8527 4.63928C34.4038 4.63928 33.9549 4.63928 33.506 4.63928C33.2893 4.63928 33.2119 4.63928 33.2041 4.38938C33.2041 3.70995 33.2041 3.70995 33.9394 3.70995L34.9378 3.67871Z" fill="#5F6368"/>
<path d="M64.4874 4.72634L66.6622 1.28233C66.798 1.17424 66.9565 1.09902 67.1255 1.06247C67.2946 1.02591 67.4697 1.02899 67.6374 1.07147C67.7303 1.13395 67.6993 1.23547 67.6993 1.32138V6.83492C67.6993 7.00673 67.6994 7.08482 67.4439 7.08482C66.8248 7.08482 66.8248 7.08482 66.8248 6.54597V2.64119C66.67 2.69586 66.639 2.82081 66.5771 2.91452L64.9363 5.52291C64.8913 5.60069 64.8269 5.66522 64.7495 5.71006C64.6721 5.75491 64.5844 5.77851 64.4951 5.77851C64.4059 5.77851 64.3182 5.75491 64.2408 5.71006C64.1634 5.66522 64.099 5.60069 64.054 5.52291L62.2197 2.59433C62.0959 2.65681 62.1578 2.75052 62.1578 2.82862C62.1578 4.14062 62.1578 5.44482 62.1965 6.73339C62.1965 6.9833 62.1268 7.07701 61.8559 7.03797C61.7585 7.02234 61.6592 7.02234 61.5618 7.03797C61.3374 7.03797 61.2832 6.97549 61.2832 6.78025C61.2832 4.9372 61.2832 3.10195 61.2832 1.2589C61.2832 1.03242 61.3761 0.993377 61.5928 0.969949C61.763 0.933715 61.9403 0.956388 62.0962 1.03432C62.2521 1.11224 62.3773 1.24088 62.4519 1.39947C63.0865 2.55528 63.7754 3.60957 64.4874 4.72634Z" fill="#5F6368"/>
<path d="M51.0066 3.48241C50.9215 3.15441 51.0917 3.13098 51.3317 3.13098C51.9663 3.13098 51.9663 3.13098 51.9663 3.72451C51.9663 4.79441 51.9663 5.86432 51.9663 6.93423C51.9793 7.22021 51.9533 7.50664 51.8889 7.78547C51.791 8.22059 51.5522 8.61037 51.2102 8.89323C50.8682 9.17609 50.4425 9.33588 50.0004 9.34737C49.5597 9.41099 49.1102 9.34543 48.7054 9.15851C48.3006 8.97159 47.9576 8.67118 47.7172 8.29309C47.6166 8.12909 47.6166 8.03537 47.8256 7.98071C47.8966 7.96644 47.9646 7.94003 48.0268 7.90261C48.3364 7.71518 48.5377 7.72299 48.7621 8.05099C48.9202 8.25157 49.1367 8.39711 49.381 8.46715C49.6253 8.53718 49.8853 8.52821 50.1243 8.44147C50.3397 8.40029 50.5361 8.28974 50.684 8.12641C50.832 7.96308 50.9234 7.75577 50.9447 7.53556C50.9447 7.34813 50.9834 7.1607 51.0066 6.89518C50.7681 7.10978 50.4813 7.26248 50.1711 7.34004C49.861 7.41761 49.5367 7.41771 49.2265 7.34032C48.9325 7.28414 48.6525 7.16961 48.4027 7.00337C48.1529 6.83714 47.9383 6.62251 47.7714 6.37194C47.4726 5.93255 47.3525 5.3941 47.4361 4.86792C47.5196 4.34174 47.8004 3.86808 48.2203 3.54489C48.6086 3.21654 49.0961 3.03144 49.6026 3.02009C50.1091 3.00873 50.6043 3.1718 51.0066 3.48241ZM49.7683 6.5047C49.9388 6.51007 50.1086 6.48027 50.2673 6.41712C50.426 6.35397 50.5703 6.25881 50.6913 6.13745C50.8123 6.01609 50.9075 5.87109 50.971 5.71133C51.0345 5.55157 51.0651 5.38041 51.0608 5.20832C51.0649 5.03472 51.0348 4.86203 50.9723 4.70025C50.9097 4.53847 50.816 4.39082 50.6965 4.26588C50.577 4.14093 50.4341 4.04116 50.2761 3.97236C50.118 3.90356 49.9481 3.8671 49.776 3.86508C49.427 3.86508 49.0924 4.00495 48.8456 4.25393C48.5989 4.50291 48.4602 4.84059 48.4602 5.1927C48.4571 5.36654 48.4888 5.53923 48.5535 5.70038C48.6182 5.86153 48.7145 6.00779 48.8367 6.13037C48.9589 6.25295 49.1045 6.34931 49.2646 6.41364C49.4247 6.47798 49.596 6.50895 49.7683 6.5047Z" fill="#5F6368"/>
<path d="M119.261 5.41798C119.261 4.92598 119.261 4.42617 119.261 3.93417C119.261 3.76236 119.2 3.70769 119.014 3.69988C118.472 3.69988 117.923 3.69988 117.381 3.69988C117.234 3.69988 117.195 3.77017 117.203 3.88731C117.203 4.57455 117.203 5.2696 117.203 5.96465C117.203 6.29265 117.481 6.45665 117.892 6.43322C118 6.43322 118.139 6.3317 118.209 6.48789C118.295 6.66788 118.37 6.85306 118.433 7.04237C118.433 7.08922 118.371 7.09704 118.325 7.10485C118.06 7.18213 117.781 7.2019 117.508 7.16287C117.234 7.12383 116.972 7.02688 116.738 6.87837C116.596 6.77454 116.482 6.63657 116.407 6.47701C116.331 6.31744 116.296 6.14132 116.305 5.96465C116.305 5.31645 116.305 4.66826 116.305 4.02007C116.305 3.76236 116.204 3.69988 115.957 3.69207C115.709 3.68426 115.57 3.73893 115.523 3.61398C115.469 3.4226 115.469 3.21964 115.523 3.02826C115.523 2.86426 115.755 2.93455 115.864 2.94236C116.235 2.98921 116.367 2.85645 116.313 2.52845C116.313 2.36445 116.313 2.20045 116.313 2.03645C116.313 1.87245 116.398 1.67721 116.7 1.69283C117.288 1.69283 117.195 1.64597 117.195 2.15359C117.195 2.93455 117.195 2.93455 118.062 2.93455C118.395 2.93455 118.72 2.93455 119.045 2.93455C119.215 2.93455 119.292 2.88769 119.277 2.72369C119.269 2.61449 119.269 2.50489 119.277 2.39569C119.316 1.14616 120.539 0.833778 121.405 1.06025C121.545 1.06025 121.599 1.13054 121.545 1.2633C121.421 1.53664 121.39 1.82559 120.879 1.77093C120.747 1.76075 120.615 1.78487 120.495 1.84096C120.375 1.89706 120.271 1.98327 120.193 2.09136C120.116 2.19946 120.067 2.32582 120.051 2.4584C120.036 2.59097 120.054 2.72533 120.105 2.84864C120.144 2.92674 120.213 2.92673 120.275 2.92673C120.507 2.94622 120.74 2.94622 120.972 2.92673C121.405 2.86426 121.282 3.15321 121.313 3.34845C121.343 3.54369 121.313 3.66865 120.995 3.66865C120.097 3.66865 120.09 3.66864 120.097 4.4496C120.105 5.23055 120.097 5.96465 120.097 6.72217C120.097 6.99551 120.004 7.08142 119.726 7.04237H119.509C119.238 7.04237 119.184 6.96427 119.192 6.7456C119.192 6.28484 119.192 5.81627 119.192 5.3555L119.261 5.41798Z" fill="#5F6368"/>
<path d="M131.197 3.47782C131.405 3.24297 131.666 3.06268 131.959 2.95249C132.252 2.84229 132.566 2.80549 132.876 2.84525C133.06 2.8559 133.24 2.90517 133.404 2.98989C133.567 3.07461 133.712 3.19292 133.828 3.33725C134.006 3.57935 134.099 3.50125 134.269 3.33725C134.461 3.15375 134.689 3.0141 134.939 2.92784C135.189 2.84158 135.454 2.81075 135.717 2.83744C135.905 2.82692 136.094 2.8542 136.272 2.91772C136.451 2.98123 136.615 3.07971 136.755 3.20749C136.895 3.33527 137.009 3.48981 137.09 3.6622C137.171 3.83459 137.217 4.02142 137.226 4.21192C137.334 5.11002 137.264 6.01593 137.288 6.91403C137.288 7.0546 137.234 7.10146 137.079 7.10927C136.398 7.15613 136.367 7.10927 136.382 6.49231C136.41 5.7552 136.392 5.01701 136.328 4.28221C136.251 3.55592 135.275 3.35287 134.741 3.77459C134.573 3.90585 134.439 4.07559 134.348 4.26978C134.258 4.46398 134.215 4.67704 134.223 4.89135C134.223 5.53174 134.223 6.17212 134.223 6.8125C134.223 7.04679 134.138 7.10927 133.89 7.10146C133.348 7.10146 133.356 7.10146 133.348 6.61726C133.374 5.88039 133.361 5.14265 133.309 4.40716C133.24 3.89173 133.054 3.68087 132.613 3.6262C132.399 3.57231 132.175 3.58529 131.969 3.66341C131.763 3.74153 131.585 3.8811 131.46 4.06354C131.273 4.33025 131.178 4.65105 131.189 4.97726C131.189 5.60202 131.189 6.2346 131.189 6.85936C131.189 7.08584 131.135 7.15613 130.871 7.15613C130.291 7.15613 130.291 7.15613 130.291 6.60946C130.291 5.53174 130.291 4.44621 130.291 3.36849C130.291 3.00925 130.469 2.99363 130.786 2.97801C131.104 2.96239 131.181 3.12639 131.158 3.36849C131.166 3.36068 131.181 3.39192 131.197 3.47782Z" fill="#5F6368"/>
<path d="M100.007 6.62357C98.6521 7.45919 97.6305 7.40452 96.8178 6.55328C96.4294 6.11869 96.2262 5.54719 96.2522 4.96253C96.2783 4.37787 96.5315 3.8271 96.9571 3.42947C97.8085 2.64851 98.8301 2.64851 99.9292 3.42947C99.9608 3.40926 99.9852 3.37952 99.9991 3.34447C100.013 3.30942 100.016 3.27085 100.007 3.23423C100.007 3.00775 100.076 2.95309 100.316 2.95309C100.827 2.95309 100.827 2.95309 100.827 3.41385C100.827 4.67119 100.827 5.92071 100.827 7.17805C100.8 7.64606 100.608 8.08887 100.286 8.42675C99.9635 8.76464 99.5325 8.9754 99.0701 9.0211C98.6092 9.14382 98.1221 9.12047 97.6749 8.95421C97.2276 8.78795 96.8419 8.48684 96.5702 8.09176C96.4541 7.90433 96.4695 7.83405 96.7017 7.74034C96.9339 7.64662 97.259 7.58415 97.5144 7.91215C97.688 8.11515 97.9184 8.26036 98.1754 8.32867C98.4323 8.39697 98.7038 8.38517 98.954 8.29481C99.2052 8.25157 99.437 8.13066 99.6172 7.9488C99.7974 7.76694 99.9173 7.5331 99.9601 7.27957C99.9833 7.06871 99.9911 6.87348 100.007 6.62357ZM98.567 3.57785C98.3747 3.57461 98.1838 3.6107 98.0057 3.68393C97.8277 3.75716 97.6661 3.86602 97.5309 4.00394C97.3957 4.14187 97.2895 4.306 97.2188 4.48644C97.1481 4.66688 97.1144 4.8599 97.1197 5.05385C97.1155 5.2451 97.1496 5.43525 97.2199 5.61288C97.2903 5.79051 97.3955 5.95198 97.5292 6.08761C97.6629 6.22325 97.8224 6.33025 97.998 6.40222C98.1737 6.47418 98.3619 6.50963 98.5515 6.50643C98.7436 6.51516 98.9354 6.48369 99.1148 6.41399C99.2942 6.34429 99.4574 6.23787 99.594 6.10143C99.7307 5.96499 99.8379 5.80148 99.9089 5.62119C99.9799 5.4409 100.013 5.24774 100.007 5.05385C100.016 4.85941 99.986 4.66505 99.9174 4.48307C99.8488 4.3011 99.7435 4.13548 99.6081 3.99672C99.4728 3.85795 99.3104 3.74907 99.1311 3.67696C98.9519 3.60486 98.7598 3.57111 98.567 3.57785Z" fill="#5F6368"/>
<path d="M104.107 4.07785C104.107 3.16413 104.107 2.25042 104.107 1.3367C104.107 1.14146 104.107 1.05555 104.401 1.06336C105.175 1.06336 105.88 1.00869 106.615 1.06336C107.097 1.06796 107.559 1.25524 107.91 1.588C108.262 1.92076 108.476 2.37466 108.511 2.85956C108.476 3.35185 108.254 3.81165 107.893 4.14433C107.532 4.47701 107.058 4.65725 106.568 4.64795C106.166 4.64795 105.794 4.64795 105.369 4.64795C105.098 4.64795 105.005 4.71043 105.013 4.96033C105.013 5.56167 105.013 6.17081 105.013 6.77215C105.013 7.01425 104.951 7.13138 104.672 7.08453C104.6 7.07286 104.527 7.07286 104.455 7.08453C104.177 7.08453 104.084 7.03767 104.084 6.76434C104.123 5.88967 104.107 4.98376 104.107 4.07785ZM105.818 3.92947C106.107 3.9412 106.398 3.9255 106.685 3.88261C106.934 3.84608 107.164 3.72201 107.332 3.53212C107.5 3.34222 107.597 3.09861 107.606 2.84394C107.578 2.58984 107.464 2.35312 107.284 2.17382C107.103 1.99451 106.867 1.88363 106.615 1.85994C106.166 1.80527 105.717 1.85994 105.268 1.85994C105.051 1.85994 105.013 1.94584 105.013 2.11765C105.013 2.4847 105.013 2.85956 105.013 3.23441C105.02 3.94508 105.02 3.94509 105.818 3.94509V3.92947Z" fill="#5F6368"/>
<path d="M44.5895 7.37176C44.289 7.38441 43.9892 7.33558 43.7079 7.22822C43.4267 7.12087 43.1698 6.9572 42.9529 6.74707C42.736 6.53695 42.5635 6.28471 42.4457 6.00554C42.3279 5.72637 42.2673 5.42603 42.2676 5.12261C42.2842 4.82324 42.3599 4.53021 42.49 4.26065C42.6202 3.99109 42.8022 3.75041 43.0256 3.55265C43.249 3.35489 43.5092 3.20402 43.791 3.10886C44.0728 3.0137 44.3705 2.97616 44.6669 2.99842C44.9697 2.98048 45.2729 3.02444 45.5584 3.12766C45.844 3.23087 46.1059 3.39121 46.3285 3.59906C46.5511 3.80691 46.7298 4.05799 46.8539 4.33724C46.978 4.61649 47.045 4.91815 47.0507 5.22414C47.0332 5.52978 46.9551 5.82878 46.821 6.10342C46.6869 6.37806 46.4996 6.62276 46.2701 6.82302C46.0406 7.02329 45.7736 7.17504 45.4849 7.26929C45.1962 7.36355 44.8917 7.3984 44.5895 7.37176ZM45.9517 5.20071C45.9562 5.02075 45.9238 4.8418 45.8564 4.67511C45.789 4.50841 45.6882 4.3576 45.5602 4.23215C45.4323 4.10671 45.28 4.00935 45.1129 3.94621C44.9458 3.88307 44.7676 3.85552 44.5895 3.86528C44.2403 3.85892 43.9027 3.99125 43.6493 4.23376C43.3959 4.47626 43.2472 4.8095 43.235 5.16166C43.235 5.34139 43.2706 5.51931 43.3399 5.68488C43.4092 5.85045 43.5108 6.0003 43.6385 6.12556C43.7663 6.25081 43.9176 6.34892 44.0836 6.41408C44.2496 6.47924 44.4269 6.51013 44.605 6.5049C44.7769 6.50909 44.948 6.47839 45.108 6.41462C45.2679 6.35086 45.4136 6.25533 45.5363 6.1337C45.659 6.01207 45.7563 5.86682 45.8223 5.70655C45.8883 5.54628 45.9218 5.37427 45.9207 5.20071H45.9517Z" fill="#5F6368"/>
<path d="M37.0117 5.16266C37.0196 4.86554 37.0863 4.57303 37.208 4.30236C37.3298 4.0317 37.504 3.78838 37.7204 3.58675C37.9368 3.38512 38.191 3.22927 38.4681 3.1284C38.7452 3.02752 39.0395 2.98366 39.3336 2.99941C39.6365 2.97486 39.9411 3.01304 40.2287 3.11159C40.5164 3.21014 40.7811 3.36698 41.0065 3.5725C41.2319 3.77801 41.4133 4.02785 41.5396 4.30668C41.6658 4.5855 41.7343 4.88742 41.7407 5.1939C41.7317 5.49135 41.6644 5.78406 41.5425 6.05505C41.4206 6.32605 41.2466 6.56994 41.0307 6.7726C40.8147 6.97526 40.561 7.13267 40.2843 7.23569C40.0076 7.33871 39.7134 7.3853 39.4188 7.37277C39.1144 7.39855 38.8081 7.36074 38.5189 7.26168C38.2297 7.16261 37.9638 7.00443 37.7379 6.79702C37.512 6.58961 37.3309 6.33742 37.206 6.05621C37.081 5.77501 37.0149 5.47082 37.0117 5.16266ZM38.0488 5.16266C38.0458 5.33897 38.0775 5.51413 38.1423 5.67792C38.207 5.84171 38.3034 5.99084 38.4259 6.11662C38.5484 6.24239 38.6945 6.34228 38.8557 6.41046C39.0168 6.47864 39.1898 6.51374 39.3646 6.51372C39.537 6.5221 39.7094 6.49596 39.8718 6.4368C40.0342 6.37764 40.1833 6.28663 40.3107 6.16902C40.438 6.05141 40.541 5.90952 40.6138 5.75155C40.6865 5.59357 40.7276 5.42262 40.7345 5.24856C40.7407 5.07227 40.712 4.8965 40.6501 4.73152C40.5882 4.56653 40.4944 4.41565 40.374 4.28769C40.2537 4.15972 40.1093 4.05724 39.9493 3.98622C39.7892 3.91521 39.6168 3.87709 39.442 3.87409C39.2669 3.86463 39.0917 3.89039 38.9265 3.94985C38.7614 4.00931 38.6096 4.1013 38.4799 4.22046C38.3503 4.33963 38.2455 4.4836 38.1715 4.644C38.0975 4.80441 38.0558 4.97806 38.0488 5.15485V5.16266Z" fill="#5F6368"/>
<path d="M71.7165 6.70737C71.6785 6.70321 71.64 6.70891 71.6048 6.72395C71.5696 6.73898 71.5388 6.76285 71.5153 6.79328C71.2372 7.02882 70.901 7.18374 70.5425 7.24151C70.1839 7.29928 69.8166 7.25772 69.4797 7.12128C69.2203 7.06172 68.9875 6.91792 68.8169 6.71195C68.6463 6.50598 68.5475 6.24922 68.5354 5.98108C68.5063 5.72618 68.5561 5.46843 68.6781 5.24328C68.8001 5.01813 68.9882 4.83663 69.2166 4.72374C69.8489 4.40409 70.5738 4.32373 71.2598 4.49726C71.4146 4.49726 71.5617 4.56755 71.7165 4.59879C71.7421 4.40089 71.6981 4.20019 71.592 4.03174C71.4859 3.8633 71.3245 3.73783 71.136 3.67726C70.9008 3.57043 70.6398 3.53567 70.3852 3.57733C70.1306 3.61898 69.8938 3.7352 69.7042 3.91155C69.6414 4.00325 69.5457 4.06674 69.4374 4.0886C69.3291 4.11046 69.2166 4.08898 69.1237 4.02869C68.6283 3.79441 68.5742 3.89593 68.9766 3.44297C69.2626 3.16418 69.6166 2.96674 70.0026 2.87072C70.3887 2.77471 70.7931 2.78354 71.1747 2.89631C71.4865 2.93773 71.7799 3.06869 72.0201 3.27361C72.2602 3.47852 72.4369 3.74875 72.5292 4.05212C72.605 4.36353 72.6312 4.68517 72.6066 5.00489C72.6066 5.56718 72.6066 6.12946 72.6066 6.69175C72.6066 7.25404 72.6685 7.06661 72.1344 7.11347C71.7475 7.14471 71.7165 6.95728 71.7165 6.70737ZM70.3543 6.51213C70.6573 6.5205 70.955 6.4311 71.2042 6.25693C71.4534 6.08276 71.641 5.83292 71.7397 5.54375C71.7784 5.39537 71.7397 5.30165 71.5849 5.23137C71.1204 5.05256 70.6131 5.01988 70.1298 5.13765C69.9325 5.17041 69.7554 5.27897 69.6357 5.44057C69.5159 5.60217 69.4628 5.80427 69.4875 6.00451C69.5339 6.28566 69.8899 6.50432 70.3543 6.51213Z" fill="#5F6368"/>
<path d="M77.8696 4.72519L79.3789 3.36633C79.8897 2.90557 80.0135 2.87433 80.8649 3.0149C80.4766 3.45636 80.052 3.86392 79.5956 4.23319C79.1389 4.63929 79.1389 4.63929 79.5027 5.11567C79.998 5.76386 80.4856 6.41205 81.0506 7.13834H80.1141C79.9361 7.13834 79.8897 7.02901 79.82 6.92749C79.4408 6.42767 79.0461 5.93567 78.6978 5.42805C78.5894 5.27186 78.5198 5.26405 78.3417 5.38119C78.1404 5.53103 77.9885 5.73855 77.9057 5.97673C77.8228 6.2149 77.813 6.47272 77.8774 6.71663C77.8774 6.84939 77.9703 7.06025 77.8077 7.0993C77.5513 7.14048 77.2901 7.14048 77.0337 7.0993C76.9486 7.0993 76.9873 6.94311 76.9873 6.8572C76.9873 5.02196 76.9873 3.18671 76.9873 1.34365C76.9873 1.14061 77.057 1.09375 77.2737 1.08594C77.9161 1.08594 77.9161 1.08594 77.9161 1.63261V4.75643L77.8696 4.72519Z" fill="#5F6368"/>
<path d="M54.2023 5.45937C54.1614 5.07661 54.2185 4.68965 54.3682 4.33553C54.5178 3.98141 54.7551 3.67198 55.0572 3.43687C55.3594 3.20176 55.7163 3.04884 56.0937 2.99275C56.4712 2.93666 56.8566 2.97927 57.2131 3.11651C57.5049 3.23962 57.7687 3.42157 57.9883 3.6512C58.2079 3.88084 58.3787 4.15332 58.4902 4.45194C58.5753 4.63156 58.4128 4.65499 58.2967 4.69403C57.4298 5.03765 56.5707 5.38127 55.6961 5.70146C55.3943 5.8108 55.3943 5.91232 55.58 6.11537C55.836 6.35412 56.1718 6.48673 56.5204 6.48673C56.869 6.48673 57.2048 6.35412 57.4608 6.11537C57.693 5.88889 57.8246 5.92013 58.0723 6.11537C58.5676 6.44337 58.5908 6.44337 58.1187 6.81823C57.7761 7.10577 57.3621 7.29339 56.9215 7.36083C56.4809 7.42827 56.0304 7.37297 55.6187 7.20089C55.2354 7.08981 54.8947 6.86375 54.6417 6.55271C54.3887 6.24166 54.2355 5.86035 54.2023 5.45937ZM56.5243 3.89746C56.2206 3.8745 55.9187 3.96183 55.6731 4.1437C55.4276 4.32557 55.2546 4.59 55.1853 4.88927C55.1853 5.10013 55.1853 5.1548 55.4252 5.06108C55.8974 4.87365 56.385 4.69403 56.8571 4.49879C56.9964 4.44413 57.2286 4.43632 57.2286 4.29575C57.2286 4.15517 57.0119 4.02241 56.8339 3.95994C56.7448 3.91631 56.6514 3.88228 56.5552 3.85841L56.5243 3.89746Z" fill="#5F6368"/>
<path d="M114.053 6.6017C113.848 6.82559 113.595 6.99905 113.313 7.10872C113.031 7.21839 112.728 7.26134 112.427 7.23427C112.075 7.25643 111.726 7.15168 111.442 6.93863C111.159 6.72558 110.959 6.41803 110.88 6.07065C110.858 5.87172 110.878 5.67046 110.937 5.47951C110.996 5.28855 111.094 5.11202 111.224 4.96097C111.354 4.80992 111.514 4.68763 111.693 4.60174C111.872 4.51586 112.067 4.46824 112.265 4.46188C112.864 4.36684 113.476 4.41499 114.053 4.60245C114.079 4.39619 114.031 4.18728 113.917 4.01381C113.804 3.84034 113.632 3.71388 113.434 3.6575C113.204 3.5687 112.955 3.54216 112.712 3.58052C112.469 3.61889 112.24 3.72082 112.048 3.87617C111.94 3.96988 111.901 4.17293 111.63 4.08702C110.972 3.88398 110.926 3.77464 111.437 3.30607C111.757 3.04328 112.141 2.87146 112.549 2.80832C112.958 2.74517 113.375 2.79299 113.759 2.94683C114.116 3.03816 114.432 3.2512 114.652 3.54999C114.872 3.84878 114.983 4.215 114.966 4.58683C114.966 5.36779 114.966 6.10189 114.966 6.85941C114.966 7.03122 114.912 7.10931 114.718 7.08589H114.61C114.091 7.10931 114.091 7.10932 114.053 6.6017ZM112.621 6.50798C112.932 6.53259 113.242 6.45132 113.501 6.27717C113.761 6.10303 113.955 5.84608 114.053 5.54741C114.053 5.44589 114.13 5.34436 113.983 5.25846C113.692 5.13166 113.379 5.06626 113.062 5.06626C112.745 5.06626 112.432 5.13166 112.141 5.25846C112.019 5.31942 111.918 5.41622 111.852 5.53611C111.786 5.65601 111.757 5.79336 111.77 5.93008C111.803 6.0673 111.878 6.19091 111.983 6.28439C112.088 6.37788 112.219 6.43681 112.358 6.45332L112.621 6.50798Z" fill="#5F6368"/>
<path d="M81.9251 5.18435C81.9401 5.40871 82.0067 5.62644 82.1198 5.82023C82.2328 6.01401 82.3892 6.1785 82.5763 6.30059C82.7634 6.42268 82.9762 6.49901 83.1977 6.52351C83.4193 6.54801 83.6434 6.51999 83.8523 6.44169C84.1004 6.37228 84.3184 6.22108 84.4715 6.01217C84.6031 5.84817 85.0133 5.86379 85.2454 6.01217C85.4776 6.16055 85.2454 6.2777 85.1526 6.37141C84.8765 6.72066 84.5051 6.98071 84.0842 7.11949C83.6634 7.25827 83.2115 7.2697 82.7842 7.15237C82.3728 7.08332 81.9909 6.89297 81.6865 6.60529C81.3821 6.31762 81.1689 5.9455 81.0738 5.53579C80.9412 4.96726 81.0298 4.36906 81.3214 3.86454C81.5925 3.43187 81.9965 3.10066 82.4717 2.92155C82.9469 2.74245 83.4671 2.72529 83.9529 2.87272C84.408 2.98712 84.8103 3.25603 85.0922 3.63429C85.374 4.01255 85.5183 4.47714 85.5008 4.95007C85.5008 5.18436 85.3461 5.15312 85.1913 5.15312H81.9019L81.9251 5.18435ZM84.5566 4.51274C84.501 4.22967 84.3458 3.97647 84.1196 3.79991C83.8934 3.62334 83.6115 3.53534 83.326 3.55216C83.0319 3.53256 82.7405 3.61809 82.5027 3.79375C82.2649 3.96941 82.096 4.22397 82.0257 4.51274H84.5566Z" fill="#5F6368"/>
<path d="M123.86 7.23965C123.558 7.26036 123.255 7.21737 122.971 7.11342C122.687 7.00948 122.427 6.84685 122.209 6.63594C121.99 6.42502 121.818 6.17045 121.702 5.88848C121.587 5.60651 121.531 5.30333 121.538 4.99831C121.544 4.69232 121.612 4.3909 121.739 4.113C121.867 3.8351 122.049 3.58675 122.276 3.38356C122.503 3.18037 122.769 3.02675 123.057 2.93235C123.346 2.83796 123.651 2.80483 123.952 2.83507C124.255 2.81549 124.557 2.85953 124.842 2.96438C125.126 3.06923 125.386 3.2326 125.604 3.44412C125.822 3.65564 125.995 3.91068 126.11 4.19303C126.225 4.47538 126.281 4.77887 126.274 5.08421C126.27 5.39028 126.202 5.69199 126.075 5.97009C125.948 6.24819 125.765 6.49658 125.538 6.69939C125.311 6.90221 125.044 7.055 124.755 7.14802C124.466 7.24104 124.161 7.27225 123.86 7.23965ZM122.428 5.04517C122.421 5.23906 122.454 5.43222 122.525 5.61276C122.595 5.7933 122.701 5.95739 122.837 6.09493C122.973 6.23248 123.135 6.34056 123.313 6.41252C123.492 6.48448 123.683 6.5188 123.875 6.51336C124.071 6.52086 124.267 6.4878 124.45 6.41619C124.633 6.34458 124.8 6.23594 124.94 6.09697C125.079 5.95799 125.19 5.7916 125.264 5.60803C125.337 5.42447 125.373 5.2276 125.369 5.02955C125.363 4.63666 125.203 4.26208 124.925 3.98718C124.647 3.71227 124.272 3.55925 123.883 3.56136C123.69 3.56134 123.5 3.59983 123.322 3.67459C123.145 3.74935 122.984 3.85889 122.848 3.99688C122.713 4.13488 122.606 4.29858 122.534 4.47851C122.462 4.65845 122.426 4.85105 122.428 5.04517Z" fill="#5F6368"/>
<path d="M92.4359 3.46188C92.6223 3.26385 92.8468 3.1063 93.0957 2.99888C93.3446 2.89145 93.6126 2.83641 93.8832 2.83712C94.2707 2.795 94.6596 2.90186 94.9723 3.13638C95.2851 3.3709 95.4987 3.71581 95.5705 4.10226C95.6557 5.04462 95.6789 5.99165 95.6402 6.93712C95.6402 7.06988 95.5628 7.0855 95.4389 7.10112C94.8198 7.17922 94.7578 7.14798 94.7423 6.5935C94.7269 6.03902 94.7423 5.29712 94.7423 4.64893C94.7587 4.49996 94.7414 4.3492 94.6917 4.20796C94.642 4.06672 94.5612 3.93868 94.4555 3.83345C94.3497 3.72823 94.2217 3.64856 94.081 3.60044C93.9403 3.55231 93.7907 3.53698 93.6433 3.55559C93.3364 3.56331 93.0438 3.68874 92.8253 3.90636C92.6067 4.12397 92.4786 4.41743 92.4668 4.72702C92.4668 5.39864 92.4668 6.07026 92.4668 6.74188C92.4668 7.06207 92.3585 7.15579 92.0412 7.10893C91.7006 7.1636 91.5923 7.05426 91.6 6.72626C91.6 5.58607 91.6 4.43807 91.6 3.29007C91.6 3.04017 91.6697 2.94645 91.9638 2.96207C92.3895 2.97768 92.3895 2.96207 92.4359 3.46188Z" fill="#5F6368"/>
<path d="M86.678 4.98347C86.678 4.66328 86.678 4.34309 86.678 4.0229C86.678 3.70271 86.5929 3.71052 86.3298 3.70271C85.8267 3.70271 85.8499 3.70271 85.8654 3.21851C85.8654 2.96861 85.997 2.94518 86.1982 2.96861C86.5697 3.01547 86.74 2.89832 86.678 2.54689C86.678 2.40632 86.678 2.25794 86.678 2.11737C86.6239 1.78156 86.7632 1.70347 87.1269 1.69566C87.4907 1.68785 87.5991 1.8128 87.5758 2.12518C87.5526 2.43756 87.483 2.71089 87.6223 2.90613C87.7616 3.10137 88.1408 2.9608 88.3962 2.96861C88.6516 2.97642 88.6439 3.0389 88.6516 3.2029C88.6516 3.71833 88.6516 3.71833 88.1253 3.71833C88.0533 3.72614 87.9807 3.72614 87.9086 3.71833C87.63 3.71833 87.5371 3.7808 87.5449 4.04632C87.5449 4.61642 87.5449 5.18652 87.5449 5.76443C87.5449 6.34234 87.6765 6.42824 88.3188 6.44386C88.5433 6.44386 88.8993 6.88119 88.8296 7.06862C88.8296 7.13891 88.7135 7.13891 88.6516 7.14672C87.6842 7.31853 86.6393 7.0452 86.6935 5.82691C86.6858 5.50672 86.678 5.25681 86.678 4.98347Z" fill="#5F6368"/>
<path d="M52.6777 4.03784C52.6777 3.05384 52.6777 2.07764 52.6777 1.10145C52.6777 0.867162 52.7551 0.804688 53.0028 0.804688C53.7226 0.804688 53.7226 0.804685 53.7226 1.46069C53.7226 3.2725 53.7226 5.09212 53.7226 6.92737C53.7226 7.16165 53.7226 7.2788 53.3743 7.27099C52.6777 7.27099 52.6777 7.27099 52.6777 6.63061V4.03784Z" fill="#5F6368"/>
<path d="M127.767 3.47489C127.938 3.43584 127.992 3.31869 128.092 3.2406C128.293 3.07605 128.529 2.96078 128.782 2.90386C129.034 2.84695 129.296 2.84994 129.547 2.9126C129.718 2.9126 129.772 2.9985 129.687 3.15469C129.632 3.26312 129.586 3.37535 129.547 3.4905C129.509 3.64669 129.408 3.69355 129.238 3.68574C128.286 3.68574 127.821 4.07622 127.814 4.93527C127.814 5.56003 127.814 6.1848 127.814 6.81737C127.814 7.06728 127.744 7.16099 127.473 7.12194H127.14C126.97 7.12194 126.908 7.06728 126.908 6.91109C126.908 5.66677 126.908 4.42505 126.908 3.18593C126.908 2.9985 126.993 2.94383 127.171 2.95945C127.243 2.97112 127.316 2.97112 127.388 2.95945C127.705 2.9126 127.806 3.04536 127.752 3.31089C127.753 3.36583 127.759 3.42062 127.767 3.47489Z" fill="#5F6368"/>
<path d="M74.3867 3.51474C74.5727 3.2778 74.8173 3.09456 75.0958 2.98349C75.3744 2.87243 75.6771 2.83748 75.9733 2.88217C76.2287 2.88217 76.3603 2.93683 76.2287 3.2336C76.1903 3.38149 76.098 3.50937 75.9704 3.59183C75.8428 3.6743 75.6891 3.70533 75.5399 3.67875C75.3928 3.66922 75.2453 3.68988 75.1063 3.73947C74.9673 3.78906 74.8397 3.86654 74.7312 3.96726C74.6227 4.06798 74.5356 4.18984 74.475 4.32548C74.4145 4.46112 74.3818 4.60773 74.379 4.75646C74.379 5.43329 74.379 6.11272 74.379 6.79476C74.379 7.04466 74.3248 7.14619 74.0462 7.10714C73.9355 7.09543 73.824 7.09543 73.7134 7.10714C73.5431 7.10714 73.4889 7.06028 73.4889 6.90409C73.4889 5.66237 73.4347 4.42065 73.4889 3.17893C73.4889 3.03055 73.5354 2.95246 73.7134 2.95246C73.8914 2.95246 74.1391 2.87436 74.2706 2.99931C74.4022 3.12427 74.3403 3.30388 74.3867 3.51474Z" fill="#5F6368"/>
<path d="M110.076 4.06155C110.076 4.97527 110.076 5.88899 110.076 6.80271C110.076 7.06043 109.99 7.14633 109.727 7.10728H109.549C109.271 7.10728 109.186 7.05261 109.186 6.78709C109.186 4.98048 109.186 3.17647 109.186 1.37506C109.186 0.968961 109.456 1.07829 109.681 1.06267C109.905 1.04706 110.083 1.06268 110.076 1.35944C110.052 2.25754 110.076 3.16345 110.076 4.06155Z" fill="#5F6368"/>
<path d="M89.5638 4.99986C89.5638 4.40633 89.5638 3.81281 89.5638 3.21928C89.5638 3.00061 89.6413 2.93814 89.8735 2.94595C90.4153 2.94595 90.4152 2.94595 90.4152 3.45357C90.4152 4.57034 90.4152 5.69491 90.4152 6.81948C90.4152 7.13186 90.2604 7.12406 90.0282 7.10844C89.796 7.09282 89.5329 7.20996 89.5561 6.81948C89.5871 6.21034 89.5638 5.609 89.5638 4.99986Z" fill="#5F6368"/>
<path d="M89.9828 2.08526C89.5958 2.08526 89.3714 1.8744 89.3791 1.53078C89.3818 1.4554 89.3999 1.38141 89.4324 1.31345C89.4648 1.24549 89.5108 1.18504 89.5675 1.13589C89.6242 1.08675 89.6904 1.04997 89.7619 1.02788C89.8333 1.00579 89.9086 0.998859 89.9828 1.00753C90.0599 1.00004 90.1377 1.00841 90.2115 1.03213C90.2853 1.05585 90.3536 1.09443 90.4122 1.14553C90.4708 1.19663 90.5185 1.25919 90.5525 1.32944C90.5864 1.39968 90.6059 1.47615 90.6097 1.55421C90.6072 1.6321 90.5885 1.70859 90.5548 1.77868C90.521 1.84878 90.473 1.91091 90.4138 1.96102C90.3547 2.01113 90.2857 2.04809 90.2114 2.0695C90.1372 2.0909 90.0593 2.09628 89.9828 2.08526Z" fill="#5F6368"/>
<path d="M21.741 4.32031C22.6291 5.14321 23.2949 6.18059 23.676 7.33479C25.4406 12.0205 24.4499 16.1283 20.9671 19.7676C20.7256 19.9702 20.4665 20.1505 20.1931 20.3065C20.115 20.3676 20.0321 20.4225 19.9454 20.4705C19.7883 20.4588 19.6305 20.4588 19.4733 20.4705C19.0819 20.5765 18.6733 20.6022 18.2718 20.5459C17.8703 20.4896 17.4842 20.3525 17.1362 20.1427C16.7883 19.9329 16.4856 19.6547 16.2463 19.3247C16.0069 18.9946 15.8357 18.6194 15.7428 18.2213C15.6464 17.4738 15.7844 16.7146 16.1375 16.0503C17.0215 15.3548 17.6835 14.4127 18.0413 13.3408C18.3991 12.2689 18.4368 11.1146 18.1498 10.0213C17.8732 9.30803 17.55 8.61407 17.1824 7.94394C17.2494 7.93954 17.3166 7.93954 17.3836 7.94394C17.93 8.20619 18.5398 8.30368 19.1398 8.22472C19.7398 8.14575 20.3044 7.89369 20.7658 7.4988C21.2264 7.16354 21.5602 6.68002 21.7121 6.12784C21.864 5.57567 21.8251 4.98776 21.6017 4.46088C21.594 4.42965 21.6559 4.36717 21.741 4.32031Z" fill="#EA4335"/>
<path d="M16.1698 16.0703C15.8176 16.7377 15.6796 17.4991 15.7751 18.2491C15.868 18.6472 16.0392 19.0224 16.2786 19.3525C16.518 19.6825 16.8206 19.9607 17.1685 20.1705C17.5165 20.3803 17.9027 20.5174 18.3041 20.5737C18.7056 20.63 19.1142 20.6043 19.5056 20.4983C19.6628 20.4866 19.8206 20.4866 19.9778 20.4983C19.4968 21.0223 18.9112 21.4376 18.2596 21.7166C16.154 22.8205 13.7886 23.3205 11.4209 23.1621C9.05325 23.0037 6.77399 22.1931 4.8312 20.8185C4.72285 20.7326 4.42099 20.467 4.11914 20.2327C4.25072 20.2327 4.8931 19.9516 5.0092 19.975C6.88994 20.3889 7.58652 19.6861 7.91933 17.9055C7.97375 17.2428 7.97375 16.5767 7.91933 15.9141C7.95803 15.9141 8.6933 16.3202 8.6933 16.3358C9.81646 17.0695 11.1358 17.4374 12.473 17.3899C13.8101 17.3424 15.1006 16.8818 16.1698 16.0703Z" fill="#FBBC04"/>
<path d="M21.6335 4.52229C21.6335 4.42858 21.6336 4.36611 21.7419 4.31925C21.509 3.98173 21.2502 3.66316 20.9679 3.36648C19.5046 2.00909 17.7448 1.01886 15.8312 0.476112C13.9177 -0.0666368 11.9043 -0.146615 9.95438 0.242663C8.09763 0.52075 6.34056 1.26753 4.84619 2.41372C4.15471 2.82077 3.54128 3.3498 3.03511 3.97563C2.86357 4.11643 2.70073 4.2677 2.54751 4.42858C0.674732 6.716 -0.224086 9.65867 0.0476111 12.613C0.254199 15.0413 1.28161 17.3243 2.95771 19.0793C2.74248 18.5424 2.66787 17.9585 2.74107 17.3841C2.81427 16.8096 3.03282 16.2638 3.37566 15.7993C3.90378 15.4005 4.49167 15.0894 5.11709 14.8778C5.96128 14.8199 6.8049 14.9983 7.55508 15.3932C6.00714 13.4252 5.62016 11.2619 6.78111 9.00498C7.47351 7.71417 8.5942 6.71053 9.94664 6.17011C11.5343 5.61382 13.269 5.66383 14.8226 6.31068C15.7653 6.7675 16.6116 7.40394 17.3148 8.18498C17.4154 8.18498 19.6909 8.66136 20.6893 7.80231C21.1698 7.42625 21.52 6.90634 21.6896 6.31711C21.8592 5.72788 21.8396 5.09958 21.6335 4.52229Z" fill="#4284F4"/>
<path d="M2.92762 18.9862C2.75499 18.6516 2.65224 18.2848 2.62577 17.9085C2.58827 17.4733 2.65121 17.0353 2.80967 16.6288C2.96812 16.2223 3.21778 15.8584 3.53904 15.5656C4.31018 15.0147 5.25445 14.7675 6.19377 14.8706C6.67871 14.9165 7.14472 15.0833 7.54999 15.356C7.95526 15.6286 8.28709 15.9985 8.51568 16.4325C8.74254 16.975 8.79925 17.5746 8.6782 18.1506C8.57597 18.736 8.30704 19.2787 7.90423 19.7125C7.44402 20.128 6.8739 20.3993 6.26342 20.4934C5.42478 20.644 4.56078 20.4652 3.84862 19.9936C3.46311 19.7406 3.1465 19.3943 2.92762 18.9862Z" fill="#34A853"/>
<path d="M40.332 12.5813C39.9128 12.0848 39.3821 11.6966 38.784 11.449C38.1598 11.1922 37.4923 11.0596 36.8182 11.0585C36.0521 11.0469 35.2916 11.1903 34.5814 11.4802C33.9356 11.7414 33.3506 12.135 32.8632 12.636C32.3855 13.1294 32.0093 13.7133 31.7564 14.3541C31.496 15.0286 31.3647 15.7467 31.3694 16.4705C31.367 17.1521 31.493 17.8279 31.7409 18.4619C31.9839 19.0779 32.3471 19.6383 32.809 20.1098C33.3017 20.5985 33.8857 20.9834 34.5272 21.2421C35.2672 21.531 36.0559 21.6716 36.8491 21.656C37.6138 21.6743 38.3719 21.5112 39.0626 21.1797C39.6902 20.8701 40.2405 20.4216 40.6725 19.8677L42.3443 21.0157C42.1636 21.2259 41.9697 21.4241 41.7638 21.6092C41.4291 21.9085 41.0632 22.1704 40.6725 22.3901C40.1509 22.6745 39.6009 22.9022 39.0317 23.0696C38.3091 23.2741 37.5608 23.3714 36.8104 23.3585C35.7361 23.3733 34.6699 23.1687 33.6759 22.7572C32.7955 22.3926 31.9918 21.8625 31.3075 21.1953C30.6669 20.5662 30.1565 19.8149 29.806 18.9852C29.4703 18.2007 29.294 17.3562 29.2875 16.5017C29.2776 15.5231 29.4673 14.5528 29.8447 13.6513C30.2024 12.8001 30.7292 12.032 31.3927 11.3943C32.0868 10.7436 32.9061 10.2439 33.7997 9.9261C34.7918 9.56339 35.8404 9.38352 36.8956 9.39505C37.8644 9.39689 38.8255 9.56864 39.736 9.90267C40.6207 10.2102 41.4085 10.7492 42.0192 11.4646L40.332 12.5813Z" fill="#5F6368"/>
<path d="M46.0363 19.1727C46.0319 19.5457 46.1282 19.9128 46.3149 20.2348C46.5044 20.5432 46.7546 20.809 47.0502 21.0157C47.3705 21.2468 47.726 21.4236 48.1028 21.539C48.5038 21.6644 48.9213 21.7276 49.3411 21.7264C49.8672 21.7375 50.3871 21.611 50.8504 21.3593C51.2925 21.1038 51.6899 20.7767 52.0268 20.3909L53.4277 21.3671C52.8875 21.9804 52.2173 22.4631 51.467 22.7795C50.7167 23.0958 49.9055 23.2377 49.0935 23.1946C48.3787 23.2021 47.6683 23.0804 46.996 22.8353C46.4055 22.6214 45.8652 22.2864 45.4094 21.8513C44.9724 21.4353 44.6292 20.9292 44.4032 20.3675C44.1676 19.7797 44.0492 19.1507 44.0549 18.5167C44.0481 17.8794 44.1775 17.2481 44.4342 16.6658C44.6807 16.1037 45.039 15.5987 45.4868 15.182C45.953 14.7509 46.4969 14.4142 47.0889 14.1902C47.7357 13.9511 48.4201 13.832 49.1089 13.8387C49.8652 13.8139 50.6179 13.9551 51.3147 14.2526C51.877 14.4993 52.3789 14.8672 52.7853 15.3304C53.1658 15.7662 53.453 16.2767 53.6289 16.8298C53.7979 17.3812 53.884 17.9551 53.8843 18.5323V19.1336L46.0363 19.1727ZM51.903 17.8216C51.8898 17.4669 51.8219 17.1165 51.7017 16.7829C51.5857 16.4866 51.4059 16.2198 51.1754 16.002C50.9259 15.7589 50.6277 15.5725 50.3009 15.4553C49.9056 15.3161 49.4887 15.25 49.0702 15.2601C48.6437 15.2549 48.2203 15.3345 47.8242 15.4944C47.4686 15.6337 47.1429 15.8405 46.8644 16.1035C46.6118 16.342 46.4045 16.6252 46.253 16.9391C46.112 17.2228 46.0379 17.5355 46.0363 17.8528L51.903 17.8216Z" fill="#5F6368"/>
<path d="M56.5234 14.0982H58.3887V15.4726H58.4274C58.5552 15.23 58.7227 15.0109 58.9227 14.8244C59.1307 14.6294 59.3621 14.4615 59.6116 14.3246C59.8786 14.1873 60.1586 14.0774 60.4474 13.9966C60.7459 13.9198 61.0527 13.8804 61.3607 13.8795C61.6406 13.8737 61.9198 13.9106 62.1888 13.9888L62.1037 15.8084L61.6471 15.7147C61.4977 15.7031 61.3476 15.7031 61.1982 15.7147C60.438 15.659 59.6868 15.9088 59.1085 16.4098C58.8483 16.7 58.6501 17.0411 58.5263 17.4119C58.4024 17.7828 58.3556 18.1753 58.3887 18.5652V23.0401H56.5234V14.0982Z" fill="#5F6368"/>
<path d="M69.8279 15.5649H67.1655V19.6025C67.1655 19.8524 67.1655 20.1023 67.1655 20.3444C67.1776 20.5732 67.23 20.7979 67.3203 21.0082C67.4161 21.1989 67.5603 21.3605 67.7382 21.4767C67.9878 21.6103 68.2688 21.6724 68.5509 21.6564C68.7792 21.6546 69.0071 21.6337 69.232 21.5939C69.4562 21.5643 69.6735 21.4956 69.8744 21.3908V22.9528C69.6048 23.0837 69.3135 23.1631 69.0153 23.187C68.7461 23.2274 68.4747 23.2509 68.2026 23.2573C67.6352 23.2825 67.0687 23.1895 66.5386 22.984C66.1895 22.8373 65.8889 22.5935 65.6717 22.2811C65.4871 21.9891 65.3731 21.6574 65.3389 21.3128C65.3389 20.9535 65.2925 20.5943 65.2925 20.2272V15.5883H63.1641V14.0967H65.3157V11.5977H67.1732V14.0967H69.8357L69.8279 15.5649Z" fill="#5F6368"/>
<path d="M72.3438 10.9024C72.3444 10.7363 72.3816 10.5724 72.4525 10.4225C72.5234 10.2726 72.6264 10.1405 72.754 10.0355C73.0138 9.79084 73.3585 9.65902 73.7137 9.66844C74.0688 9.65985 74.4132 9.79156 74.6734 10.0355C74.7988 10.1419 74.8997 10.2746 74.9692 10.4242C75.0387 10.5739 75.0751 10.7371 75.0759 10.9024C75.0757 11.0689 75.0396 11.2334 74.9701 11.3844C74.9006 11.5354 74.7994 11.6694 74.6734 11.777C74.4132 12.0209 74.0688 12.1527 73.7137 12.1441C73.3585 12.1535 73.0138 12.0217 72.754 11.777C72.6258 11.6709 72.5225 11.5374 72.4516 11.3861C72.3807 11.2349 72.3438 11.0697 72.3438 10.9024ZM72.7849 14.0965H74.6425V23.0072H72.7849V14.0965Z" fill="#5F6368"/>
<path d="M78.7302 15.5628H76.625V14.0946H78.7302V12.1032C78.6632 11.153 78.938 10.2103 79.5041 9.44796C79.8489 9.12311 80.2589 8.87687 80.7062 8.72595C81.1536 8.57504 81.6279 8.52297 82.0969 8.57329H82.7471C83.0081 8.58246 83.2675 8.6191 83.521 8.68262L83.2889 10.1899C83.123 10.1317 82.9519 10.0898 82.778 10.0649C82.5978 10.0486 82.4165 10.0486 82.2363 10.0649C81.9561 10.0533 81.6766 10.1012 81.4158 10.2055C81.2172 10.2893 81.0475 10.4306 80.9283 10.6116C80.8056 10.799 80.7286 11.0131 80.7038 11.2363C80.6642 11.513 80.646 11.7924 80.6496 12.072V14.0946H82.8554V15.5628H80.6264V23.0053H78.7689L78.7302 15.5628Z" fill="#5F6368"/>
<path d="M85.0059 10.9024C85.0067 10.7371 85.0431 10.5739 85.1126 10.4242C85.1821 10.2746 85.283 10.1419 85.4083 10.0355C85.6686 9.79156 86.013 9.65985 86.368 9.66844C86.7233 9.65902 87.068 9.79084 87.3278 10.0355C87.4543 10.1408 87.5561 10.2733 87.6257 10.4232C87.6953 10.5731 87.731 10.7368 87.7302 10.9024C87.7322 11.0692 87.697 11.2344 87.6274 11.3858C87.5577 11.5371 87.4553 11.6708 87.3278 11.777C87.068 12.0217 86.7233 12.1535 86.368 12.1441C86.013 12.1527 85.6686 12.0209 85.4083 11.777C85.2824 11.6694 85.1811 11.5354 85.1117 11.3844C85.0422 11.2334 85.0061 11.0689 85.0059 10.9024ZM85.4393 14.0965H87.2968V23.0072H85.4393V14.0965Z" fill="#5F6368"/>
<path d="M92.0718 19.1725C92.0674 19.5455 92.1637 19.9127 92.3504 20.2346C92.5512 20.5469 92.8149 20.813 93.1244 21.0156C93.4447 21.2467 93.8003 21.4234 94.177 21.5388C94.578 21.6642 94.9956 21.7275 95.4154 21.7262C95.9412 21.7352 96.4606 21.6089 96.9246 21.3592C97.3667 21.1037 97.7642 20.7765 98.1011 20.3908L99.5019 21.367C98.9617 21.9803 98.2916 22.463 97.5413 22.7793C96.791 23.0957 95.9798 23.2375 95.1677 23.1944C94.4529 23.2019 93.7426 23.0802 93.0703 22.8352C92.4782 22.6196 91.9357 22.2848 91.4759 21.8512C91.0436 21.4327 90.7035 20.9271 90.4775 20.3674C90.2418 19.7795 90.1234 19.1506 90.1292 18.5165C90.1223 17.8792 90.2517 17.2479 90.5084 16.6656C90.7549 16.1036 91.1132 15.5985 91.561 15.1818C92.0272 14.7508 92.5711 14.4141 93.1631 14.19C93.81 13.9509 94.4943 13.8318 95.1832 13.8386C95.9394 13.8145 96.6919 13.9557 97.389 14.2525C97.9512 14.4992 98.4531 14.867 98.8595 15.3302C99.2405 15.7645 99.5255 16.2756 99.6954 16.8296C99.8707 17.3798 99.9594 17.9542 99.9586 18.5321V19.1334L92.0718 19.1725ZM97.9385 17.8214C97.9254 17.4668 97.8575 17.1163 97.7373 16.7828C97.6212 16.4864 97.4415 16.2197 97.211 16.0018C96.9614 15.7587 96.6632 15.5723 96.3364 15.4552C95.941 15.3166 95.5242 15.2505 95.1058 15.2599C94.6792 15.2547 94.2558 15.3344 93.8597 15.4942C93.5042 15.6336 93.1784 15.8403 92.9 16.1033C92.6473 16.3419 92.4401 16.6251 92.2885 16.939C92.1476 17.2227 92.0734 17.5353 92.0718 17.8527L97.9385 17.8214Z" fill="#5F6368"/>
<path d="M112.372 23.0064H110.515V21.7256H110.469C110.086 22.2219 109.578 22.6049 108.998 22.8346C108.386 23.0972 107.728 23.2327 107.063 23.2328C106.363 23.2405 105.668 23.1188 105.012 22.8736C104.433 22.6515 103.906 22.3112 103.464 21.874C103.032 21.4537 102.69 20.9488 102.458 20.3902C102.221 19.8082 102.102 19.1841 102.11 18.5549C102.104 17.9209 102.222 17.2919 102.458 16.704C102.688 16.1444 103.03 15.639 103.464 15.2202C103.911 14.7906 104.437 14.4536 105.012 14.2284C105.669 13.9859 106.364 13.8668 107.063 13.877C107.744 13.8723 108.418 14.0079 109.044 14.2753C109.61 14.5046 110.102 14.8853 110.469 15.3764H110.515V8.80078H112.372V23.0064ZM107.295 21.6553C107.753 21.663 108.208 21.5808 108.634 21.4132C109.01 21.2719 109.355 21.0569 109.648 20.7806C109.925 20.5039 110.142 20.1713 110.283 19.8044C110.44 19.4071 110.519 18.9827 110.515 18.5549C110.519 18.1271 110.441 17.7025 110.283 17.3054C110.144 16.9376 109.927 16.6045 109.648 16.3292C109.357 16.0477 109.012 15.8297 108.634 15.6888C108.206 15.5276 107.752 15.4482 107.295 15.4545C106.836 15.4474 106.379 15.5268 105.949 15.6888C105.571 15.8297 105.225 16.0477 104.935 16.3292C104.656 16.6045 104.439 16.9376 104.3 17.3054C104.142 17.7025 104.063 18.1271 104.068 18.5549C104.064 18.9827 104.143 19.4071 104.3 19.8044C104.441 20.1713 104.657 20.5039 104.935 20.7806C105.228 21.0569 105.573 21.2719 105.949 21.4132C106.373 21.5796 106.825 21.6618 107.28 21.6553H107.295Z" fill="#5F6368"/>
</svg>
