<svg width="138" height="24" viewBox="0 0 138 24" fill="none" xmlns="http://www.w3.org/2000/svg">
<path d="M35.0667 4.06152H36.5218C36.6766 4.06152 36.7772 4.06152 36.7927 4.25676C36.9016 4.9846 36.7386 5.72732 36.3352 6.34067C35.9319 6.95403 35.317 7.39424 34.6101 7.57583C32.0715 8.35678 29.5251 6.63867 29.587 4.2099C29.6335 2.42151 31.4987 0.890842 33.4956 0.984557C34.2877 1.0124 35.0523 1.285 35.6859 1.76551C35.8484 1.88266 35.8561 1.96856 35.6859 2.09351C35.5156 2.21847 35.384 2.44494 35.1828 2.51523C34.9816 2.58552 34.8345 2.3278 34.6488 2.23409C34.0135 1.89893 33.275 1.82226 32.5854 2.01983C31.8958 2.2174 31.3075 2.67418 30.9415 3.29619C30.7853 3.60905 30.6985 3.95248 30.6871 4.3026C30.6757 4.65272 30.74 5.00115 30.8755 5.32367C31.0111 5.6462 31.2145 5.93509 31.4718 6.17026C31.7291 6.40544 32.0341 6.58127 32.3656 6.68553C32.8642 6.86327 33.4017 6.89899 33.9192 6.78878C34.4366 6.67857 34.914 6.42669 35.2989 6.06077C35.3637 5.99955 35.4186 5.92839 35.4614 5.84991C35.6162 5.6 35.8097 5.29543 35.6936 5.06895C35.5775 4.84248 35.2293 5.0221 34.9816 5.0221C34.5327 5.0221 34.0838 5.0221 33.6349 5.0221C33.4182 5.0221 33.3408 5.0221 33.333 4.77219C33.333 4.09276 33.333 4.09276 34.0683 4.09276L35.0667 4.06152Z" fill="white"/>
<path d="M64.6163 5.10915L66.7911 1.66514C66.9269 1.55705 67.0854 1.48184 67.2544 1.44528C67.4235 1.40872 67.5986 1.4118 67.7663 1.45428C67.8592 1.51676 67.8283 1.61828 67.8283 1.70419V7.21773C67.8283 7.38954 67.8283 7.46763 67.5729 7.46763C66.9537 7.46763 66.9537 7.46764 66.9537 6.92878V3.024C66.7989 3.07867 66.7679 3.20362 66.706 3.29734L65.0652 5.90572C65.0202 5.9835 64.9558 6.04803 64.8784 6.09288C64.801 6.13772 64.7133 6.16132 64.6241 6.16132C64.5348 6.16132 64.4471 6.13772 64.3697 6.09288C64.2923 6.04803 64.2279 5.9835 64.1829 5.90572L62.3486 2.97714C62.2248 3.03962 62.2867 3.13334 62.2867 3.21143C62.2867 4.52344 62.2867 5.82763 62.3254 7.11621C62.3254 7.36611 62.2557 7.45983 61.9848 7.42078C61.8874 7.40515 61.7881 7.40515 61.6907 7.42078C61.4663 7.42078 61.4121 7.3583 61.4121 7.16306C61.4121 5.32001 61.4121 3.48476 61.4121 1.64171C61.4121 1.41523 61.505 1.37619 61.7217 1.35276C61.8919 1.31653 62.0692 1.3392 62.2251 1.41713C62.381 1.49506 62.5062 1.62369 62.5808 1.78228C63.2154 2.9381 63.9043 3.99239 64.6163 5.10915Z" fill="white"/>
<path d="M51.1355 3.86523C51.0504 3.53723 51.2206 3.51379 51.4606 3.51379C52.0952 3.51379 52.0952 3.5138 52.0952 4.10732C52.0952 5.17723 52.0952 6.24714 52.0952 7.31704C52.1082 7.60303 52.0822 7.88945 52.0178 8.16828C51.9199 8.6034 51.6811 8.99318 51.3391 9.27604C50.9971 9.5589 50.5714 9.7187 50.1293 9.73019C49.6887 9.7938 49.2391 9.72825 48.8343 9.54132C48.4295 9.3544 48.0865 9.054 47.8461 8.6759C47.7455 8.5119 47.7455 8.41818 47.9545 8.36352C48.0255 8.34926 48.0936 8.32285 48.1557 8.28542C48.4653 8.09799 48.6666 8.10581 48.891 8.43381C49.0491 8.63438 49.2656 8.77992 49.5099 8.84996C49.7542 8.92 50.0142 8.91102 50.2532 8.82428C50.4686 8.7831 50.665 8.67256 50.8129 8.50923C50.9609 8.3459 51.0523 8.13858 51.0736 7.91837C51.0736 7.73095 51.1123 7.54352 51.1355 7.27799C50.897 7.49259 50.6102 7.64529 50.3 7.72286C49.9899 7.80042 49.6656 7.80052 49.3554 7.72314C49.0614 7.66695 48.7814 7.55242 48.5316 7.38619C48.2818 7.21995 48.0672 7.00532 47.9003 6.75475C47.6015 6.31537 47.4814 5.77691 47.565 5.25073C47.6485 4.72455 47.9293 4.25089 48.3492 3.9277C48.7375 3.59935 49.225 3.41426 49.7315 3.4029C50.238 3.39154 50.7332 3.55461 51.1355 3.86523ZM49.8972 6.88752C50.0677 6.89288 50.2375 6.86308 50.3962 6.79994C50.5549 6.73679 50.6992 6.64162 50.8202 6.52026C50.9412 6.39891 51.0364 6.2539 51.0999 6.09414C51.1634 5.93438 51.194 5.76322 51.1897 5.59113C51.1938 5.41754 51.1637 5.24484 51.1012 5.08306C51.0386 4.92128 50.9449 4.77364 50.8254 4.64869C50.7059 4.52374 50.563 4.42398 50.405 4.35518C50.247 4.28637 50.077 4.24991 49.9049 4.24789C49.556 4.24789 49.2213 4.38777 48.9745 4.63674C48.7278 4.88572 48.5891 5.2234 48.5891 5.57551C48.586 5.74935 48.6177 5.92205 48.6824 6.08319C48.7471 6.24434 48.8434 6.39061 48.9656 6.51318C49.0879 6.63576 49.2334 6.73212 49.3935 6.79646C49.5536 6.86079 49.7249 6.89176 49.8972 6.88752Z" fill="white"/>
<path d="M119.39 5.8047C119.39 5.3127 119.39 4.81289 119.39 4.32089C119.39 4.14908 119.328 4.09441 119.143 4.0866C118.601 4.0866 118.051 4.0866 117.51 4.0866C117.363 4.0866 117.324 4.15689 117.332 4.27403C117.332 4.96127 117.332 5.65632 117.332 6.35137C117.332 6.67937 117.61 6.84337 118.02 6.81994C118.129 6.81994 118.268 6.71842 118.338 6.87461C118.424 7.0546 118.499 7.23978 118.562 7.42909C118.562 7.47594 118.5 7.48375 118.454 7.49156C118.189 7.56885 117.91 7.58862 117.637 7.54958C117.363 7.51055 117.101 7.4136 116.867 7.26509C116.725 7.16125 116.611 7.02329 116.536 6.86372C116.46 6.70416 116.425 6.52804 116.434 6.35137C116.434 5.70317 116.434 5.05498 116.434 4.40679C116.434 4.14908 116.333 4.0866 116.086 4.07879C115.838 4.07098 115.699 4.12565 115.652 4.0007C115.598 3.80932 115.598 3.60636 115.652 3.41498C115.652 3.25098 115.884 3.32127 115.993 3.32908C116.364 3.37593 116.496 3.24317 116.442 2.91517C116.442 2.75117 116.442 2.58717 116.442 2.42317C116.442 2.25917 116.527 2.06393 116.829 2.07955C117.417 2.07955 117.324 2.03269 117.324 2.54031C117.324 3.32126 117.324 3.32126 118.191 3.32126C118.524 3.32126 118.849 3.32126 119.174 3.32126C119.344 3.32126 119.421 3.27441 119.406 3.11041C119.398 3.00121 119.398 2.8916 119.406 2.7824C119.445 1.53288 120.667 1.2205 121.534 1.44697C121.674 1.44697 121.728 1.51726 121.674 1.65002C121.55 1.92336 121.519 2.21231 121.008 2.15764C120.876 2.14747 120.744 2.17159 120.624 2.22768C120.504 2.28378 120.4 2.36999 120.322 2.47808C120.245 2.58618 120.196 2.71254 120.18 2.84511C120.165 2.97769 120.183 3.11204 120.234 3.23536C120.273 3.31345 120.342 3.31345 120.404 3.31345C120.636 3.33294 120.869 3.33294 121.101 3.31345C121.534 3.25098 121.41 3.53993 121.441 3.73517C121.472 3.93041 121.441 4.05536 121.124 4.05536C120.226 4.05536 120.219 4.05536 120.226 4.83632C120.234 5.61727 120.226 6.35137 120.226 7.10889C120.226 7.38223 120.133 7.46813 119.855 7.42909H119.638C119.367 7.42909 119.313 7.35099 119.321 7.13232C119.321 6.67156 119.321 6.20298 119.321 5.74222L119.39 5.8047Z" fill="white"/>
<path d="M131.325 3.85673C131.534 3.62187 131.795 3.44159 132.088 3.33139C132.38 3.2212 132.695 3.1844 133.005 3.22415C133.189 3.23481 133.368 3.28407 133.532 3.36879C133.696 3.45351 133.841 3.57183 133.957 3.71616C134.135 3.95825 134.228 3.88016 134.398 3.71616C134.59 3.53266 134.818 3.39301 135.068 3.30675C135.317 3.22049 135.583 3.18965 135.845 3.21635C136.034 3.20583 136.223 3.23311 136.401 3.29662C136.579 3.36013 136.743 3.45862 136.884 3.58639C137.024 3.71417 137.138 3.86871 137.219 4.04111C137.3 4.2135 137.346 4.40033 137.355 4.59082C137.463 5.48892 137.393 6.39484 137.417 7.29294C137.417 7.43351 137.362 7.48037 137.208 7.48818C136.527 7.53503 136.496 7.48818 136.511 6.87122C136.539 6.1341 136.521 5.39592 136.457 4.66111C136.379 3.93482 135.404 3.73178 134.87 4.15349C134.702 4.28475 134.567 4.4545 134.477 4.64869C134.387 4.84288 134.344 5.05594 134.352 5.27026C134.352 5.91064 134.352 6.55103 134.352 7.19141C134.352 7.4257 134.267 7.48817 134.019 7.48037C133.477 7.48037 133.485 7.48036 133.477 6.99617C133.503 6.2593 133.49 5.52156 133.438 4.78606C133.369 4.27063 133.183 4.05977 132.742 4.00511C132.528 3.95121 132.304 3.96419 132.098 4.04232C131.892 4.12044 131.714 4.26001 131.589 4.44245C131.402 4.70915 131.307 5.02996 131.318 5.35616C131.318 5.98093 131.318 6.61351 131.318 7.23827C131.318 7.46475 131.264 7.53503 131 7.53503C130.42 7.53503 130.42 7.53503 130.42 6.98836C130.42 5.91065 130.42 4.82512 130.42 3.7474C130.42 3.38816 130.598 3.37254 130.915 3.35692C131.233 3.3413 131.31 3.5053 131.287 3.7474C131.295 3.73959 131.31 3.77082 131.325 3.85673Z" fill="white"/>
<path d="M100.135 7.00638C98.781 7.842 97.7594 7.78733 96.9467 6.93609C96.5583 6.5015 96.3551 5.93 96.3811 5.34534C96.4072 4.76068 96.6605 4.20991 97.086 3.81228C97.9374 3.03132 98.959 3.03132 100.058 3.81228C100.09 3.79207 100.114 3.76233 100.128 3.72728C100.142 3.69224 100.145 3.65366 100.135 3.61704C100.135 3.39056 100.205 3.3359 100.445 3.3359C100.956 3.3359 100.956 3.3359 100.956 3.79666C100.956 5.054 100.956 6.30352 100.956 7.56086C100.929 8.02887 100.737 8.47168 100.415 8.80956C100.092 9.14745 99.6614 9.35821 99.199 9.40391C98.7381 9.52664 98.251 9.50328 97.8038 9.33702C97.3565 9.17076 96.9708 8.86965 96.6991 8.47457C96.583 8.28715 96.5984 8.21686 96.8306 8.12315C97.0628 8.02943 97.3879 7.96696 97.6433 8.29496C97.8169 8.49796 98.0473 8.64317 98.3043 8.71148C98.5612 8.77978 98.8327 8.76798 99.0829 8.67762C99.3341 8.63438 99.5659 8.51347 99.7461 8.33161C99.9264 8.14975 100.046 7.91591 100.089 7.66238C100.112 7.45152 100.12 7.25629 100.135 7.00638ZM98.6959 3.96066C98.5036 3.95743 98.3127 3.99351 98.1346 4.06674C97.9566 4.13997 97.795 4.24883 97.6598 4.38676C97.5246 4.52468 97.4184 4.68881 97.3477 4.86925C97.277 5.04969 97.2433 5.24271 97.2486 5.43666C97.2444 5.62792 97.2785 5.81806 97.3489 5.99569C97.4192 6.17333 97.5244 6.33479 97.6581 6.47042C97.7918 6.60606 97.9513 6.71306 98.1269 6.78503C98.3026 6.857 98.4908 6.89244 98.6804 6.88924C98.8725 6.89798 99.0643 6.8665 99.2437 6.7968C99.4231 6.7271 99.5863 6.62068 99.7229 6.48424C99.8596 6.3478 99.9668 6.18429 100.038 6.004C100.109 5.82372 100.142 5.63055 100.135 5.43666C100.145 5.24222 100.115 5.04786 100.046 4.86589C99.9777 4.68391 99.8724 4.51829 99.737 4.37953C99.6017 4.24077 99.4393 4.13188 99.2601 4.05978C99.0808 3.98767 98.8887 3.95392 98.6959 3.96066Z" fill="white"/>
<path d="M104.236 4.46066C104.236 3.54694 104.236 2.63323 104.236 1.71951C104.236 1.52427 104.236 1.43836 104.53 1.44617C105.304 1.44617 106.009 1.3915 106.744 1.44617C107.226 1.45077 107.688 1.63805 108.039 1.97081C108.391 2.30357 108.605 2.75747 108.64 3.24237C108.604 3.73466 108.383 4.19446 108.022 4.52714C107.66 4.85982 107.186 5.04006 106.697 5.03076C106.295 5.03076 105.923 5.03076 105.498 5.03076C105.227 5.03076 105.134 5.09324 105.142 5.34314C105.142 5.94448 105.142 6.55363 105.142 7.15496C105.142 7.39706 105.08 7.5142 104.801 7.46734C104.729 7.45567 104.656 7.45567 104.584 7.46734C104.306 7.46734 104.213 7.42048 104.213 7.14715C104.252 6.27248 104.236 5.36657 104.236 4.46066ZM105.947 4.31228C106.236 4.32401 106.527 4.30832 106.813 4.26542C107.063 4.2289 107.293 4.10482 107.461 3.91493C107.629 3.72504 107.726 3.48142 107.734 3.22675C107.707 2.97266 107.593 2.73593 107.413 2.55663C107.232 2.37732 106.996 2.26644 106.744 2.24275C106.295 2.18808 105.846 2.24275 105.397 2.24275C105.18 2.24275 105.142 2.32866 105.142 2.50047C105.142 2.86752 105.142 3.24237 105.142 3.61723C105.149 4.3279 105.149 4.3279 105.947 4.3279V4.31228Z" fill="white"/>
<path d="M44.7184 7.75458C44.4179 7.76722 44.1181 7.71839 43.8368 7.61104C43.5556 7.50368 43.2988 7.34001 43.0818 7.12989C42.8649 6.91976 42.6924 6.66752 42.5746 6.38835C42.4568 6.10918 42.3962 5.80884 42.3965 5.50543C42.4131 5.20605 42.4888 4.91302 42.6189 4.64346C42.7491 4.37391 42.9311 4.13322 43.1545 3.93546C43.3779 3.7377 43.6381 3.58684 43.9199 3.49168C44.2017 3.39652 44.4994 3.35897 44.7958 3.38123C45.0986 3.36329 45.4018 3.40725 45.6873 3.51047C45.9729 3.61368 46.2348 3.77402 46.4574 3.98187C46.68 4.18972 46.8587 4.4408 46.9828 4.72005C47.1069 4.9993 47.1739 5.30097 47.1796 5.60695C47.1621 5.9126 47.084 6.21159 46.9499 6.48623C46.8158 6.76087 46.6285 7.00558 46.399 7.20584C46.1695 7.4061 45.9025 7.55785 45.6138 7.65211C45.3252 7.74636 45.0207 7.78121 44.7184 7.75458ZM46.0806 5.58352C46.0851 5.40356 46.0527 5.22461 45.9853 5.05792C45.9179 4.89123 45.8171 4.74041 45.6892 4.61497C45.5612 4.48952 45.4089 4.39217 45.2418 4.32903C45.0748 4.26588 44.8965 4.23833 44.7184 4.24809C44.3692 4.24173 44.0316 4.37407 43.7782 4.61657C43.5248 4.85907 43.3761 5.19231 43.3639 5.54447C43.3639 5.7242 43.3995 5.90212 43.4688 6.06769C43.5381 6.23326 43.6397 6.38311 43.7674 6.50837C43.8952 6.63362 44.0465 6.73173 44.2125 6.79689C44.3785 6.86206 44.5558 6.89294 44.7339 6.88772C44.9058 6.8919 45.0769 6.8612 45.2369 6.79744C45.3968 6.73367 45.5425 6.63814 45.6652 6.51651C45.7879 6.39488 45.8852 6.24963 45.9512 6.08936C46.0172 5.9291 46.0507 5.75708 46.0496 5.58352H46.0806Z" fill="white"/>
<path d="M37.1406 5.54547C37.1485 5.24836 37.2152 4.95584 37.337 4.68517C37.4587 4.41451 37.6329 4.17119 37.8493 3.96956C38.0657 3.76793 38.3199 3.61208 38.597 3.51121C38.8741 3.41033 39.1684 3.36648 39.4625 3.38222C39.7654 3.35767 40.07 3.39585 40.3576 3.4944C40.6453 3.59295 40.91 3.7498 41.1354 3.95531C41.3608 4.16082 41.5422 4.41066 41.6685 4.68949C41.7947 4.96831 41.8632 5.27023 41.8696 5.57671C41.8606 5.87416 41.7933 6.16687 41.6714 6.43786C41.5495 6.70886 41.3756 6.95275 41.1596 7.15541C40.9436 7.35808 40.6899 7.51548 40.4132 7.61851C40.1366 7.72153 39.8423 7.76812 39.5477 7.75558C39.2433 7.78137 38.937 7.74355 38.6478 7.64449C38.3586 7.54543 38.0927 7.38724 37.8668 7.17983C37.6409 6.97242 37.4598 6.72023 37.3349 6.43903C37.21 6.15782 37.1438 5.85363 37.1406 5.54547ZM38.1777 5.54547C38.1747 5.72178 38.2064 5.89694 38.2712 6.06073C38.3359 6.22452 38.4323 6.37366 38.5548 6.49943C38.6773 6.6252 38.8234 6.72509 38.9846 6.79327C39.1457 6.86145 39.3187 6.89656 39.4935 6.89653C39.6659 6.90492 39.8383 6.87877 40.0007 6.81961C40.1631 6.76045 40.3122 6.66944 40.4396 6.55183C40.5669 6.43422 40.67 6.29234 40.7427 6.13436C40.8154 5.97638 40.8565 5.80543 40.8634 5.63138C40.8696 5.45508 40.8409 5.27931 40.779 5.11433C40.7172 4.94935 40.6233 4.79847 40.503 4.6705C40.3826 4.54253 40.2382 4.44005 40.0782 4.36904C39.9181 4.29802 39.7457 4.2599 39.5709 4.2569C39.3958 4.24745 39.2206 4.2732 39.0554 4.33266C38.8903 4.39213 38.7385 4.48411 38.6088 4.60327C38.4792 4.72244 38.3744 4.86641 38.3004 5.02681C38.2264 5.18722 38.1847 5.36087 38.1777 5.53767V5.54547Z" fill="white"/>
<path d="M71.8454 7.09019C71.8074 7.08602 71.7689 7.09173 71.7337 7.10676C71.6985 7.1218 71.6677 7.14566 71.6442 7.17609C71.3661 7.41163 71.0299 7.56655 70.6714 7.62432C70.3129 7.68209 69.9455 7.64054 69.6086 7.50409C69.3492 7.44453 69.1164 7.30073 68.9458 7.09476C68.7752 6.88879 68.6764 6.63203 68.6644 6.3639C68.6352 6.109 68.6851 5.85125 68.807 5.62609C68.929 5.40094 69.1171 5.21944 69.3455 5.10656C69.9778 4.7869 70.7027 4.70655 71.3888 4.88008C71.5435 4.88008 71.6906 4.95036 71.8454 4.9816C71.8711 4.7837 71.827 4.583 71.7209 4.41456C71.6148 4.24611 71.4534 4.12065 71.2649 4.06008C71.0298 3.95324 70.7687 3.91849 70.5141 3.96014C70.2595 4.00179 70.0227 4.11802 69.8331 4.29436C69.7703 4.38606 69.6746 4.44956 69.5663 4.47141C69.458 4.49327 69.3455 4.47179 69.2526 4.4115C68.7572 4.17722 68.7031 4.27874 69.1055 3.82579C69.3915 3.54699 69.7455 3.34955 70.1316 3.25354C70.5176 3.15752 70.922 3.16635 71.3036 3.27912C71.6154 3.32054 71.9089 3.45151 72.149 3.65642C72.3891 3.86133 72.5658 4.13156 72.6581 4.43493C72.7339 4.74635 72.7601 5.06798 72.7355 5.3877C72.7355 5.94999 72.7355 6.51227 72.7355 7.07456C72.7355 7.63685 72.7974 7.44942 72.2634 7.49628C71.8764 7.52752 71.8454 7.34009 71.8454 7.09019ZM70.4832 6.89495C70.7862 6.90331 71.084 6.81391 71.3331 6.63974C71.5823 6.46558 71.7699 6.21574 71.8686 5.92656C71.9073 5.77818 71.8686 5.68446 71.7138 5.61418C71.2493 5.43537 70.742 5.4027 70.2587 5.52046C70.0614 5.55323 69.8843 5.66178 69.7646 5.82338C69.6448 5.98498 69.5917 6.18708 69.6164 6.38732C69.6628 6.66847 70.0188 6.88714 70.4832 6.89495Z" fill="white"/>
<path d="M77.9985 5.108L79.5078 3.74914C80.0186 3.28838 80.1424 3.25714 80.9938 3.39771C80.6055 3.83918 80.1809 4.24673 79.7245 4.61601C79.2679 5.0221 79.2678 5.0221 79.6316 5.49848C80.1269 6.14668 80.6146 6.79487 81.1796 7.52115H80.2431C80.065 7.52115 80.0186 7.41182 79.9489 7.3103C79.5697 6.81049 79.175 6.31849 78.8267 5.81087C78.7183 5.65468 78.6487 5.64686 78.4706 5.764C78.2693 5.91385 78.1174 6.12136 78.0346 6.35954C77.9517 6.59772 77.9419 6.85553 78.0063 7.09944C78.0063 7.23221 78.0992 7.44306 77.9366 7.48211C77.6802 7.5233 77.419 7.5233 77.1626 7.48211C77.0775 7.48211 77.1162 7.32592 77.1162 7.24002C77.1162 5.40477 77.1162 3.56952 77.1162 1.72647C77.1162 1.52342 77.1859 1.47656 77.4026 1.46875C78.045 1.46875 78.045 1.46875 78.045 2.01542V5.13924L77.9985 5.108Z" fill="white"/>
<path d="M54.3312 5.84218C54.2903 5.45942 54.3474 5.07246 54.4971 4.71834C54.6467 4.36422 54.884 4.05479 55.1862 3.81968C55.4883 3.58458 55.8452 3.43166 56.2226 3.37556C56.6001 3.31947 56.9855 3.36209 57.342 3.49932C57.6338 3.62243 57.8976 3.80438 58.1172 4.03402C58.3368 4.26365 58.5076 4.53614 58.6191 4.83475C58.7042 5.01437 58.5417 5.0378 58.4256 5.07685C57.5587 5.42047 56.6996 5.76409 55.825 6.08428C55.5232 6.19361 55.5232 6.29513 55.7089 6.49818C55.9649 6.73693 56.3007 6.86954 56.6493 6.86954C56.9979 6.86954 57.3337 6.73693 57.5897 6.49818C57.8219 6.2717 57.9535 6.30294 58.2012 6.49818C58.6965 6.82618 58.7197 6.82618 58.2476 7.20104C57.905 7.48858 57.491 7.6762 57.0504 7.74364C56.6098 7.81108 56.1593 7.75578 55.7476 7.58371C55.3643 7.47263 55.0236 7.24656 54.7706 6.93552C54.5177 6.62447 54.3644 6.24316 54.3312 5.84218ZM56.6532 4.28028C56.3495 4.25732 56.0476 4.34465 55.802 4.52652C55.5565 4.70839 55.3835 4.97281 55.3142 5.27208C55.3142 5.48294 55.3142 5.53761 55.5541 5.44389C56.0263 5.25647 56.5139 5.07685 56.986 4.88161C57.1253 4.82694 57.3575 4.81913 57.3575 4.67856C57.3575 4.53799 57.1408 4.40522 56.9628 4.34275C56.8737 4.29912 56.7803 4.26509 56.6841 4.24123L56.6532 4.28028Z" fill="white"/>
<path d="M114.182 6.9806C113.977 7.2045 113.724 7.37795 113.442 7.48762C113.16 7.59729 112.857 7.64025 112.556 7.61318C112.204 7.63534 111.855 7.53059 111.571 7.31754C111.288 7.10448 111.088 6.79694 111.008 6.44956C110.987 6.25062 111.007 6.04937 111.066 5.85841C111.125 5.66746 111.223 5.49092 111.353 5.33987C111.483 5.18883 111.643 5.06653 111.822 4.98065C112.001 4.89476 112.196 4.84715 112.394 4.84079C112.992 4.74575 113.605 4.7939 114.182 4.98136C114.208 4.7751 114.16 4.56619 114.046 4.39272C113.933 4.21925 113.761 4.09278 113.563 4.0364C113.333 3.9476 113.084 3.92107 112.841 3.95943C112.598 3.99779 112.369 4.09973 112.177 4.25508C112.069 4.34879 112.03 4.55184 111.759 4.46593C111.101 4.26288 111.055 4.15355 111.566 3.68498C111.886 3.42219 112.27 3.25037 112.678 3.18722C113.086 3.12408 113.504 3.17189 113.888 3.32574C114.245 3.41706 114.561 3.63011 114.781 3.92889C115.001 4.22768 115.112 4.59391 115.095 4.96574C115.095 5.7467 115.095 6.4808 115.095 7.23832C115.095 7.41013 115.041 7.48822 114.847 7.46479H114.739C114.22 7.48822 114.22 7.48822 114.182 6.9806ZM112.75 6.88689C113.061 6.91149 113.371 6.83022 113.63 6.65608C113.89 6.48194 114.084 6.22498 114.182 5.92632C114.182 5.82479 114.259 5.72327 114.112 5.63736C113.821 5.51057 113.508 5.44516 113.191 5.44516C112.874 5.44516 112.561 5.51057 112.27 5.63736C112.148 5.69832 112.047 5.79513 111.981 5.91502C111.915 6.03491 111.886 6.17227 111.898 6.30898C111.932 6.44621 112.007 6.56981 112.112 6.6633C112.217 6.75679 112.348 6.81572 112.487 6.83222L112.75 6.88689Z" fill="white"/>
<path d="M82.054 5.56717C82.069 5.79152 82.1357 6.00926 82.2487 6.20304C82.3617 6.39682 82.5181 6.56131 82.7052 6.6834C82.8923 6.8055 83.1051 6.88183 83.3266 6.90632C83.5482 6.93082 83.7723 6.9028 83.9812 6.82451C84.2293 6.75509 84.4473 6.60389 84.6004 6.39498C84.732 6.23098 85.1422 6.2466 85.3743 6.39498C85.6065 6.54337 85.3744 6.66051 85.2815 6.75422C85.0054 7.10347 84.634 7.36352 84.2131 7.5023C83.7923 7.64108 83.3404 7.65251 82.9131 7.53518C82.5017 7.46613 82.1198 7.27578 81.8154 6.98811C81.511 6.70043 81.2979 6.32831 81.2027 5.9186C81.0701 5.35007 81.1587 4.75188 81.4503 4.24735C81.7214 3.81468 82.1254 3.48347 82.6006 3.30436C83.0758 3.12526 83.596 3.10811 84.0818 3.25554C84.5369 3.36994 84.9392 3.63884 85.2211 4.01711C85.5029 4.39537 85.6472 4.85996 85.6297 5.33288C85.6297 5.56717 85.475 5.53593 85.3202 5.53593H82.0308L82.054 5.56717ZM84.6855 4.89555C84.6299 4.61249 84.4747 4.35929 84.2485 4.18272C84.0223 4.00615 83.7404 3.91815 83.4549 3.93497C83.1609 3.91537 82.8694 4.00091 82.6316 4.17657C82.3938 4.35222 82.225 4.60678 82.1546 4.89555H84.6855Z" fill="white"/>
<path d="M123.989 7.62246C123.687 7.64318 123.384 7.60018 123.1 7.49624C122.816 7.39229 122.556 7.22967 122.337 7.01875C122.119 6.80784 121.946 6.55327 121.831 6.27129C121.715 5.98932 121.659 5.68614 121.667 5.38112C121.673 5.07513 121.741 4.77371 121.868 4.49581C121.995 4.21792 122.178 3.96956 122.405 3.76637C122.632 3.56319 122.898 3.40956 123.186 3.31517C123.475 3.22077 123.78 3.18765 124.081 3.21788C124.383 3.1983 124.686 3.24234 124.971 3.34719C125.255 3.45204 125.514 3.61541 125.733 3.82693C125.951 4.03845 126.124 4.29349 126.239 4.57584C126.354 4.85819 126.41 5.16168 126.403 5.46703C126.399 5.77309 126.331 6.0748 126.204 6.3529C126.077 6.631 125.894 6.87939 125.667 7.08221C125.44 7.28502 125.173 7.43781 124.884 7.53084C124.595 7.62386 124.29 7.65506 123.989 7.62246ZM122.557 5.42798C122.55 5.62187 122.583 5.81503 122.654 5.99557C122.724 6.17611 122.83 6.3402 122.966 6.47775C123.101 6.61529 123.263 6.72337 123.442 6.79533C123.621 6.86729 123.812 6.90161 124.004 6.89617C124.2 6.90368 124.396 6.87061 124.579 6.799C124.762 6.72739 124.929 6.61876 125.068 6.47978C125.208 6.3408 125.319 6.17441 125.392 5.99085C125.466 5.80728 125.502 5.61042 125.498 5.41236C125.492 5.01947 125.332 4.64489 125.054 4.36999C124.776 4.09508 124.401 3.94206 124.012 3.94417C123.819 3.94416 123.629 3.98264 123.451 4.0574C123.274 4.13216 123.113 4.2417 122.977 4.37969C122.842 4.51769 122.735 4.68139 122.663 4.86133C122.591 5.04126 122.555 5.23387 122.557 5.42798Z" fill="white"/>
<path d="M92.5648 3.84469C92.7512 3.64666 92.9757 3.48911 93.2246 3.38169C93.4735 3.27426 93.7415 3.21922 94.0121 3.21993C94.3996 3.17781 94.7885 3.28467 95.1013 3.51919C95.414 3.75371 95.6276 4.09862 95.6994 4.48507C95.7846 5.42744 95.8079 6.37446 95.7691 7.31993C95.7691 7.4527 95.6917 7.46831 95.5678 7.48393C94.9487 7.56203 94.8867 7.53079 94.8712 6.97631C94.8558 6.42184 94.8712 5.67993 94.8712 5.03174C94.8876 4.88278 94.8703 4.73201 94.8206 4.59077C94.7709 4.44953 94.6902 4.32149 94.5844 4.21627C94.4786 4.11104 94.3506 4.03138 94.2099 3.98325C94.0692 3.93513 93.9196 3.91979 93.7722 3.9384C93.4653 3.94612 93.1728 4.07155 92.9542 4.28917C92.7357 4.50679 92.6075 4.80024 92.5957 5.10983C92.5957 5.78145 92.5957 6.45308 92.5957 7.1247C92.5957 7.44489 92.4874 7.5386 92.1701 7.49174C91.8295 7.54641 91.7212 7.43707 91.7289 7.10907C91.7289 5.96888 91.7289 4.82088 91.7289 3.67288C91.7289 3.42298 91.7986 3.32926 92.0927 3.34488C92.5184 3.3605 92.5184 3.34488 92.5648 3.84469Z" fill="white"/>
<path d="M86.807 5.36629C86.807 5.0461 86.807 4.7259 86.807 4.40571C86.807 4.08552 86.7218 4.09333 86.4587 4.08552C85.9556 4.08552 85.9788 4.08552 85.9943 3.60133C85.9943 3.35142 86.1259 3.32799 86.3271 3.35142C86.6986 3.39828 86.8689 3.28114 86.807 2.92971C86.807 2.78913 86.807 2.64076 86.807 2.50018C86.7528 2.16437 86.8921 2.08628 87.2558 2.07847C87.6196 2.07066 87.728 2.19561 87.7047 2.50799C87.6815 2.82037 87.6119 3.09371 87.7512 3.28894C87.8905 3.48418 88.2697 3.34361 88.5251 3.35142C88.7805 3.35923 88.7728 3.42171 88.7805 3.58571C88.7805 4.10114 88.7805 4.10114 88.2543 4.10114C88.1822 4.10895 88.1096 4.10895 88.0375 4.10114C87.7589 4.10114 87.666 4.16361 87.6738 4.42914C87.6738 4.99923 87.6738 5.56933 87.6738 6.14724C87.6738 6.72515 87.8054 6.81105 88.4477 6.82667C88.6722 6.82667 89.0282 7.264 88.9586 7.45143C88.9586 7.52172 88.8425 7.52172 88.7805 7.52953C87.8131 7.70134 86.7682 7.42801 86.8224 6.20972C86.8147 5.88953 86.807 5.63962 86.807 5.36629Z" fill="white"/>
<path d="M52.8066 4.42065C52.8066 3.43665 52.8066 2.46045 52.8066 1.48426C52.8066 1.24997 52.884 1.1875 53.1317 1.1875C53.8515 1.1875 53.8515 1.1875 53.8515 1.8435C53.8515 3.65531 53.8515 5.47494 53.8515 7.31018C53.8515 7.54446 53.8515 7.66161 53.5032 7.6538C52.8066 7.6538 52.8066 7.6538 52.8066 7.01342V4.42065Z" fill="white"/>
<path d="M127.896 3.8577C128.066 3.81865 128.121 3.70151 128.221 3.62341C128.422 3.45886 128.658 3.34359 128.911 3.28668C129.163 3.22976 129.425 3.23275 129.676 3.29541C129.847 3.29541 129.901 3.38131 129.816 3.5375C129.761 3.64593 129.715 3.75816 129.676 3.87332C129.638 4.02951 129.537 4.07636 129.367 4.06855C128.415 4.06855 127.95 4.45903 127.943 5.31808C127.943 5.94284 127.943 6.56761 127.943 7.20018C127.943 7.45009 127.873 7.5438 127.602 7.50476H127.269C127.099 7.50476 127.037 7.45009 127.037 7.2939C127.037 6.04958 127.037 4.80786 127.037 3.56874C127.037 3.38131 127.122 3.32665 127.3 3.34227C127.372 3.35394 127.445 3.35394 127.517 3.34227C127.834 3.29541 127.935 3.42817 127.881 3.6937C127.882 3.74865 127.888 3.80343 127.896 3.8577Z" fill="white"/>
<path d="M74.5156 3.89755C74.7016 3.66062 74.9462 3.47737 75.2247 3.36631C75.5033 3.25524 75.806 3.22029 76.1022 3.26498C76.3576 3.26498 76.4892 3.31965 76.3576 3.61641C76.3192 3.7643 76.227 3.89218 76.0993 3.97465C75.9717 4.05711 75.818 4.08814 75.6688 4.06156C75.5217 4.05204 75.3742 4.07269 75.2352 4.12228C75.0962 4.17187 74.9686 4.24936 74.8601 4.35007C74.7516 4.45079 74.6645 4.57265 74.6039 4.70829C74.5434 4.84393 74.5107 4.99054 74.5079 5.13928C74.5079 5.8161 74.5079 6.49554 74.5079 7.17757C74.5079 7.42748 74.4537 7.529 74.1751 7.48995C74.0644 7.47824 73.9529 7.47824 73.8423 7.48995C73.672 7.48995 73.6178 7.4431 73.6178 7.2869C73.6178 6.04518 73.5637 4.80346 73.6178 3.56174C73.6178 3.41336 73.6643 3.33527 73.8423 3.33527C74.0203 3.33527 74.268 3.25717 74.3995 3.38213C74.5311 3.50708 74.4692 3.6867 74.5156 3.89755Z" fill="white"/>
<path d="M110.205 4.44436C110.205 5.35808 110.205 6.2718 110.205 7.18552C110.205 7.44324 110.119 7.52914 109.856 7.4901H109.678C109.4 7.4901 109.314 7.43543 109.314 7.1699C109.314 5.36329 109.314 3.55928 109.314 1.75787C109.314 1.35177 109.585 1.46111 109.81 1.44549C110.034 1.42987 110.212 1.44549 110.205 1.74225C110.181 2.64035 110.205 3.54626 110.205 4.44436Z" fill="white"/>
<path d="M89.6928 5.38267C89.6928 4.78914 89.6928 4.19562 89.6928 3.60209C89.6928 3.38343 89.7702 3.32095 90.0024 3.32876C90.5442 3.32876 90.5442 3.32876 90.5442 3.83638C90.5442 4.95315 90.5442 6.07772 90.5442 7.20229C90.5442 7.51468 90.3894 7.50687 90.1572 7.49125C89.925 7.47563 89.6618 7.59277 89.685 7.20229C89.716 6.59315 89.6928 5.99181 89.6928 5.38267Z" fill="white"/>
<path d="M90.1117 2.46807C89.7247 2.46807 89.5003 2.25721 89.508 1.91359C89.5107 1.83822 89.5288 1.76422 89.5613 1.69626C89.5937 1.6283 89.6397 1.56785 89.6964 1.51871C89.7531 1.46956 89.8193 1.43279 89.8908 1.41069C89.9622 1.3886 90.0375 1.38167 90.1117 1.39034C90.1888 1.38285 90.2666 1.39122 90.3404 1.41494C90.4142 1.43866 90.4825 1.47724 90.5411 1.52834C90.5997 1.57944 90.6474 1.642 90.6814 1.71225C90.7153 1.78249 90.7348 1.85896 90.7386 1.93702C90.7361 2.01491 90.7174 2.0914 90.6837 2.1615C90.6499 2.23159 90.6019 2.29372 90.5427 2.34383C90.4836 2.39394 90.4146 2.4309 90.3404 2.45231C90.2661 2.47372 90.1882 2.47909 90.1117 2.46807Z" fill="white"/>
<path d="M21.87 4.70312C22.758 5.52602 23.4238 6.5634 23.8049 7.71761C25.5695 12.4033 24.5788 16.5112 21.096 20.1504C20.8545 20.353 20.5954 20.5333 20.322 20.6893C20.2439 20.7504 20.161 20.8053 20.0743 20.8533C19.9172 20.8416 19.7594 20.8416 19.6022 20.8533C19.2108 20.9593 18.8022 20.985 18.4007 20.9287C17.9992 20.8724 17.6131 20.7353 17.2651 20.5255C16.9172 20.3157 16.6146 20.0375 16.3752 19.7075C16.1358 19.3774 15.9646 19.0022 15.8717 18.6041C15.7753 17.8566 15.9133 17.0974 16.2664 16.4331C17.1504 15.7377 17.8124 14.7955 18.1702 13.7236C18.528 12.6517 18.5657 11.4974 18.2787 10.4041C18.0021 9.69084 17.6789 8.99688 17.3113 8.32676C17.3783 8.32235 17.4455 8.32235 17.5125 8.32676C18.0589 8.589 18.6687 8.68649 19.2687 8.60753C19.8687 8.52857 20.4333 8.2765 20.8947 7.88161C21.3553 7.54635 21.6891 7.06283 21.841 6.51066C21.993 5.95848 21.954 5.37057 21.7306 4.8437C21.7229 4.81246 21.7848 4.74998 21.87 4.70312Z" fill="#F2F2F2"/>
<path d="M16.2987 16.457C15.9465 17.1244 15.8085 17.8858 15.904 18.6358C15.9969 19.0339 16.1681 19.4091 16.4075 19.7392C16.6469 20.0692 16.9495 20.3474 17.2974 20.5572C17.6454 20.767 18.0316 20.9041 18.433 20.9604C18.8345 21.0167 19.2431 20.9911 19.6345 20.885C19.7917 20.8734 19.9495 20.8734 20.1067 20.885C19.6257 21.4091 19.0401 21.8243 18.3885 22.1033C16.2829 23.2072 13.9175 23.7072 11.5498 23.5488C9.18215 23.3905 6.9029 22.5798 4.96011 21.2052C4.85175 21.1193 4.54989 20.8537 4.24805 20.6195C4.37962 20.6195 5.02201 20.3383 5.13811 20.3617C7.01885 20.7757 7.71543 20.0728 8.04823 18.2922C8.10265 17.6295 8.10265 16.9635 8.04823 16.3008C8.08693 16.3008 8.8222 16.7069 8.8222 16.7225C9.94537 17.4562 11.2647 17.8241 12.6019 17.7766C13.939 17.7292 15.2295 17.2685 16.2987 16.457Z" fill="white"/>
<path d="M21.7625 4.90511C21.7625 4.81139 21.7625 4.74892 21.8708 4.70206C21.6379 4.36454 21.3791 4.04598 21.0968 3.7493C19.6335 2.39191 17.8737 1.40167 15.9602 0.858924C14.0466 0.316176 12.0332 0.236198 10.0833 0.625475C8.22654 0.903562 6.46947 1.65034 4.9751 2.79653C4.28362 3.20358 3.67019 3.73261 3.16402 4.35844C2.99248 4.49924 2.82964 4.65051 2.67642 4.8114C0.803638 7.09881 -0.0951798 10.0415 0.176517 12.9958C0.383106 15.4242 1.41051 17.7071 3.08662 19.4621C2.87139 18.9252 2.79678 18.3414 2.86998 17.7669C2.94318 17.1924 3.16173 16.6466 3.50457 16.1821C4.03269 15.7833 4.62057 15.4722 5.24599 15.2606C6.09018 15.2027 6.93381 15.3811 7.68399 15.776C6.13605 13.808 5.74907 11.6448 6.91002 9.38779C7.60242 8.09698 8.72311 7.09335 10.0755 6.55292C11.6632 5.99663 13.3979 6.04664 14.9515 6.69349C15.8943 7.15031 16.7405 7.78676 17.4437 8.56779C17.5443 8.56779 19.8198 9.04417 20.8182 8.18512C21.2987 7.80907 21.6489 7.28916 21.8185 6.69992C21.9881 6.11069 21.9685 5.48239 21.7625 4.90511Z" fill="white"/>
<path d="M3.05653 19.369C2.8839 19.0344 2.78115 18.6676 2.75467 18.2913C2.71718 17.8561 2.78012 17.4181 2.93857 17.0116C3.09703 16.6051 3.34669 16.2412 3.66795 15.9484C4.43909 15.3975 5.38335 15.1503 6.32268 15.2534C6.80761 15.2994 7.27362 15.4662 7.67889 15.7388C8.08416 16.0114 8.416 16.3813 8.64458 16.8153C8.87144 17.3578 8.92816 17.9574 8.80711 18.5334C8.70487 19.1188 8.43594 19.6615 8.03314 20.0953C7.57293 20.5108 7.0028 20.7822 6.39233 20.8762C5.55368 21.0269 4.68969 20.848 3.97753 20.3764C3.59201 20.1234 3.27541 19.7771 3.05653 19.369Z" fill="#F2F2F2"/>
<path d="M40.4609 12.9642C40.0417 12.4676 39.511 12.0794 38.9129 11.8318C38.2887 11.575 37.6212 11.4425 36.9471 11.4413C36.181 11.4297 35.4205 11.5731 34.7103 11.863C34.0645 12.1243 33.4795 12.5178 32.9921 13.0188C32.5144 13.5122 32.1382 14.0961 31.8853 14.7369C31.6249 15.4114 31.4936 16.1295 31.4984 16.8533C31.4959 17.5349 31.6219 18.2107 31.8698 18.8448C32.1128 19.4607 32.476 20.0211 32.9379 20.4926C33.4306 20.9813 34.0146 21.3662 34.6561 21.625C35.3961 21.9138 36.1848 22.0544 36.978 22.0389C37.7427 22.0572 38.5009 21.894 39.1916 21.5625C39.8191 21.2529 40.3694 20.8044 40.8014 20.2505L42.4732 21.3985C42.2925 21.6087 42.0986 21.8069 41.8927 21.992C41.558 22.2913 41.1921 22.5532 40.8014 22.773C40.2798 23.0573 39.7298 23.2851 39.1606 23.4524C38.438 23.6569 37.6897 23.7542 36.9393 23.7413C35.865 23.7561 34.7988 23.5515 33.8048 23.14C32.9244 22.7754 32.1207 22.2453 31.4364 21.5781C30.7958 20.949 30.2854 20.1978 29.9349 19.368C29.5992 18.5835 29.4229 17.739 29.4164 16.8846C29.4065 15.9059 29.5962 14.9356 29.9736 14.0341C30.3313 13.1829 30.8581 12.4148 31.5216 11.7771C32.2157 11.1264 33.035 10.6267 33.9286 10.3089C34.9207 9.9462 35.9693 9.76633 37.0245 9.77787C37.9933 9.7797 38.9544 9.95146 39.8649 10.2855C40.7496 10.593 41.5375 11.132 42.1481 11.8474L40.4609 12.9642Z" fill="white"/>
<path d="M46.1652 19.5555C46.1608 19.9285 46.2571 20.2956 46.4438 20.6176C46.6333 20.926 46.8836 21.1918 47.1791 21.3985C47.4994 21.6296 47.8549 21.8064 48.2317 21.9218C48.6327 22.0472 49.0502 22.1104 49.47 22.1092C49.9961 22.1203 50.516 21.9938 50.9793 21.7422C51.4214 21.4867 51.8188 21.1595 52.1557 20.7738L53.5566 21.75C53.0164 22.3632 52.3462 22.846 51.5959 23.1623C50.8456 23.4787 50.0344 23.6205 49.2224 23.5774C48.5076 23.5849 47.7972 23.4632 47.1249 23.2182C46.5344 23.0042 45.9942 22.6692 45.5383 22.2341C45.1013 21.8181 44.7581 21.312 44.5321 20.7503C44.2965 20.1625 44.1781 19.5335 44.1839 18.8995C44.177 18.2622 44.3064 17.6309 44.5631 17.0486C44.8096 16.4865 45.1679 15.9815 45.6157 15.5648C46.0819 15.1337 46.6258 14.797 47.2178 14.573C47.8646 14.3339 48.549 14.2148 49.2378 14.2215C49.9941 14.1967 50.7468 14.3379 51.4437 14.6354C52.0059 14.8822 52.5078 15.25 52.9142 15.7132C53.2947 16.149 53.5819 16.6595 53.7578 17.2126C53.9268 17.764 54.0129 18.3379 54.0132 18.9151V19.5164L46.1652 19.5555ZM52.0319 18.2044C52.0187 17.8497 51.9508 17.4993 51.8306 17.1657C51.7146 16.8694 51.5348 16.6027 51.3043 16.3848C51.0548 16.1417 50.7566 15.9553 50.4298 15.8381C50.0345 15.6989 49.6177 15.6328 49.1992 15.6429C48.7726 15.6377 48.3492 15.7173 47.9531 15.8772C47.5976 16.0165 47.2718 16.2233 46.9933 16.4863C46.7407 16.7248 46.5334 17.0081 46.3819 17.3219C46.2409 17.6056 46.1668 17.9183 46.1652 18.2357L52.0319 18.2044Z" fill="white"/>
<path d="M56.6523 14.481H58.5176V15.8555H58.5563C58.6841 15.6128 58.8516 15.3937 59.0516 15.2073C59.2596 15.0122 59.491 14.8443 59.7405 14.7074C60.0075 14.5701 60.2875 14.4602 60.5763 14.3794C60.8748 14.3026 61.1816 14.2632 61.4896 14.2623C61.7695 14.2566 62.0487 14.2934 62.3177 14.3716L62.2326 16.1913L61.776 16.0975C61.6266 16.0859 61.4765 16.0859 61.3271 16.0975C60.5669 16.0418 59.8157 16.2916 59.2374 16.7926C58.9772 17.0828 58.779 17.4239 58.6552 17.7947C58.5314 18.1656 58.4845 18.5581 58.5176 18.948V23.4229H56.6523V14.481Z" fill="white"/>
<path d="M69.9568 15.9477H67.2944V19.9853C67.2944 20.2352 67.2944 20.4851 67.2944 20.7272C67.3065 20.956 67.3589 21.1808 67.4492 21.391C67.545 21.5817 67.6893 21.7434 67.8671 21.8596C68.1167 21.9931 68.3977 22.0553 68.6798 22.0392C68.9082 22.0374 69.136 22.0165 69.3609 21.9767C69.5851 21.9471 69.8025 21.8784 70.0033 21.7737V23.3356C69.7337 23.4665 69.4424 23.546 69.1442 23.5699C68.875 23.6102 68.6036 23.6337 68.3315 23.6401C67.7641 23.6654 67.1976 23.5723 66.6675 23.3668C66.3184 23.2201 66.0178 22.9763 65.8006 22.6639C65.616 22.3719 65.502 22.0402 65.4678 21.6956C65.4678 21.3363 65.4214 20.9771 65.4214 20.61V15.9712H63.293V14.4795H65.4446V11.9805H67.3021V14.4795H69.9646L69.9568 15.9477Z" fill="white"/>
<path d="M72.4727 11.2852C72.4733 11.1191 72.5105 10.9552 72.5814 10.8053C72.6524 10.6554 72.7553 10.5233 72.8829 10.4183C73.1427 10.1737 73.4874 10.0418 73.8426 10.0513C74.1977 10.0427 74.5421 10.1744 74.8023 10.4183C74.9277 10.5247 75.0286 10.6574 75.0981 10.807C75.1676 10.9567 75.204 11.1199 75.2048 11.2852C75.2046 11.4517 75.1685 11.6162 75.099 11.7672C75.0295 11.9182 74.9283 12.0522 74.8023 12.1598C74.5421 12.4038 74.1977 12.5355 73.8426 12.5269C73.4874 12.5363 73.1427 12.4045 72.8829 12.1598C72.7547 12.0537 72.6514 11.9202 72.5805 11.7689C72.5096 11.6177 72.4727 11.4525 72.4727 11.2852ZM72.9138 14.4793H74.7714V23.39H72.9138V14.4793Z" fill="white"/>
<path d="M78.8591 15.9496H76.7539V14.4814H78.8591V12.4899C78.7921 11.5397 79.0669 10.597 79.633 9.83468C79.9778 9.50982 80.3878 9.26359 80.8351 9.11267C81.2825 8.96176 81.7568 8.90969 82.2258 8.96H82.876C83.137 8.96918 83.3964 9.00582 83.6499 9.06934L83.4178 10.5766C83.2519 10.5184 83.0808 10.4765 82.9069 10.4516C82.7267 10.4353 82.5454 10.4353 82.3652 10.4516C82.085 10.4401 81.8055 10.488 81.5448 10.5922C81.3461 10.6761 81.1764 10.8174 81.0572 10.9983C80.9345 11.1857 80.8576 11.3998 80.8327 11.6231C80.7931 11.8997 80.775 12.1791 80.7785 12.4587V14.4814H82.9843V15.9496H80.7553V23.3921H78.8978L78.8591 15.9496Z" fill="white"/>
<path d="M85.1348 11.2852C85.1356 11.1199 85.172 10.9567 85.2415 10.807C85.311 10.6574 85.4119 10.5247 85.5372 10.4183C85.7975 10.1744 86.1419 10.0427 86.497 10.0513C86.8522 10.0418 87.1969 10.1737 87.4567 10.4183C87.5832 10.5237 87.685 10.6561 87.7546 10.806C87.8242 10.9559 87.8599 11.1196 87.8591 11.2852C87.8611 11.452 87.8259 11.6172 87.7563 11.7686C87.6866 11.92 87.5843 12.0536 87.4567 12.1598C87.1969 12.4045 86.8522 12.5363 86.497 12.5269C86.1419 12.5355 85.7975 12.4038 85.5372 12.1598C85.4113 12.0522 85.3101 11.9182 85.2406 11.7672C85.1711 11.6162 85.135 11.4517 85.1348 11.2852ZM85.5682 14.4793H87.4257V23.39H85.5682V14.4793Z" fill="white"/>
<path d="M92.2007 19.5553C92.1963 19.9283 92.2926 20.2955 92.4794 20.6174C92.6801 20.9297 92.9438 21.1958 93.2533 21.3984C93.5736 21.6295 93.9292 21.8062 94.3059 21.9216C94.7069 22.0471 95.1245 22.1103 95.5443 22.109C96.0701 22.118 96.5895 21.9917 97.0535 21.742C97.4957 21.4865 97.8931 21.1593 98.23 20.7736L99.6308 21.7498C99.0906 22.3631 98.4205 22.8458 97.6702 23.1621C96.9199 23.4785 96.1087 23.6204 95.2966 23.5772C94.5818 23.5847 93.8715 23.463 93.1992 23.218C92.6071 23.0024 92.0646 22.6676 91.6048 22.234C91.1725 21.8155 90.8324 21.3099 90.6064 20.7502C90.3707 20.1624 90.2523 19.5334 90.2581 18.8993C90.2512 18.262 90.3806 17.6307 90.6373 17.0484C90.8838 16.4864 91.2421 15.9813 91.6899 15.5646C92.1561 15.1336 92.7 14.7969 93.292 14.5728C93.9389 14.3337 94.6232 14.2147 95.3121 14.2214C96.0683 14.1973 96.8208 14.3385 97.5179 14.6353C98.0801 14.882 98.582 15.2498 98.9884 15.713C99.3694 16.1473 99.6544 16.6584 99.8243 17.2124C99.9996 17.7626 100.088 18.3371 100.087 18.9149V19.5163L92.2007 19.5553ZM98.0674 18.2043C98.0543 17.8496 97.9864 17.4992 97.8662 17.1656C97.7501 16.8692 97.5704 16.6025 97.3399 16.3846C97.0904 16.1415 96.7921 15.9551 96.4653 15.838C96.0699 15.6995 95.6531 15.6333 95.2347 15.6427C94.8081 15.6376 94.3847 15.7172 93.9886 15.877C93.6331 16.0164 93.3073 16.2232 93.0289 16.4862C92.7762 16.7247 92.569 17.0079 92.4174 17.3218C92.2765 17.6055 92.2023 17.9182 92.2007 18.2355L98.0674 18.2043Z" fill="white"/>
<path d="M112.503 23.3892H110.646V22.1084H110.599C110.217 22.6047 109.709 22.9877 109.129 23.2174C108.517 23.48 107.859 23.6155 107.194 23.6156C106.494 23.6233 105.799 23.5016 105.143 23.2564C104.564 23.0343 104.037 22.694 103.595 22.2568C103.163 21.8365 102.82 21.3316 102.589 20.773C102.352 20.191 102.233 19.5669 102.241 18.9377C102.235 18.3037 102.353 17.6747 102.589 17.0869C102.819 16.5272 103.161 16.0219 103.595 15.603C104.042 15.1734 104.568 14.8364 105.143 14.6112C105.8 14.3687 106.495 14.2496 107.194 14.2598C107.874 14.2551 108.549 14.3907 109.175 14.6581C109.741 14.8874 110.233 15.2681 110.599 15.7592H110.646V9.18359H112.503V23.3892ZM107.426 22.0381C107.884 22.0458 108.339 21.9636 108.765 21.796C109.141 21.6547 109.486 21.4397 109.779 21.1634C110.056 20.8867 110.273 20.5541 110.414 20.1873C110.571 19.7899 110.65 19.3655 110.646 18.9377C110.65 18.5099 110.571 18.0853 110.414 17.6882C110.274 17.3204 110.058 16.9873 109.779 16.712C109.488 16.4305 109.143 16.2125 108.765 16.0716C108.337 15.9104 107.883 15.831 107.426 15.8373C106.967 15.8302 106.51 15.9096 106.079 16.0716C105.701 16.2125 105.356 16.4305 105.066 16.712C104.787 16.9873 104.57 17.3204 104.431 17.6882C104.273 18.0853 104.194 18.5099 104.199 18.9377C104.195 19.3655 104.274 19.7899 104.431 20.1873C104.572 20.5541 104.788 20.8867 105.066 21.1634C105.359 21.4397 105.703 21.6547 106.079 21.796C106.504 21.9624 106.956 22.0446 107.411 22.0381H107.426Z" fill="white"/>
</svg>
