<svg width="139" height="34" viewBox="0 0 139 34" fill="none" xmlns="http://www.w3.org/2000/svg">
<path d="M11.1126 17.876C10.8419 18.1036 10.9543 18.415 10.9527 18.69C10.9448 21.3217 10.9527 23.9517 10.9448 26.5834C10.9432 27.214 10.9749 27.8368 11.1015 28.4595C11.6049 30.9157 13.9194 32.3161 15.9616 32.0522C18.5483 31.7171 20.1156 29.7872 20.1203 27.1445C20.1251 24.2773 20.1235 21.4086 20.1172 18.5414C20.1172 18.2648 20.2201 17.9566 19.9731 17.718C20.0459 17.0431 20.1061 16.3824 19.9921 15.6917C19.7103 14.0084 18.4217 12.521 16.6233 12.1227C14.8534 11.7307 13.2782 12.1701 12.0688 13.5879C10.997 14.8429 10.8023 16.3081 11.1126 17.8776V17.876ZM22.0422 6.66026C21.7541 6.91474 21.8823 7.25298 21.8823 7.55171C21.8744 13.7618 21.8807 19.9703 21.8712 26.1803C21.8712 26.9438 21.914 27.6993 22.0279 28.4532C22.3382 30.5016 24.7667 32.343 26.8199 32.0806C29.3275 31.7598 31.0388 29.8283 31.0404 27.2978C31.0436 20.6942 31.0436 14.0905 31.0373 7.48532C31.0373 7.20714 31.137 6.90209 30.9027 6.6571C30.9312 6.45005 30.9613 6.24299 30.9898 6.03594C31.2969 3.7773 29.8025 1.52498 27.64 0.989165C25.3698 0.42648 23.087 1.58346 22.2432 3.7204C21.8633 4.68138 21.8839 5.6645 22.0422 6.66026ZM4.56022 23.0682C2.19672 22.858 -0.052883 25.1324 0.000947008 27.497C0.059517 30.0607 2.00192 32.0854 4.53332 32.0838C7.00612 32.0838 9.04192 30.0449 9.04822 27.5618C9.05462 25.0155 7.11372 23.0729 4.55862 23.0682H4.56022Z" fill="white"/>
<path d="M98.8181 15.5188C98.8181 14.8534 98.8171 14.2354 98.8181 13.6174C98.8201 12.9978 99.1161 12.5726 99.7481 12.5742C100.378 12.5758 100.672 12.9931 100.672 13.619C100.671 15.7512 100.668 17.8834 100.675 20.0171C100.677 20.5609 100.694 21.1188 100.064 21.3306C99.4151 21.5487 99.0151 21.1868 98.7761 20.6067C97.3911 21.7226 96.0241 21.7337 94.9071 20.6731C93.7301 19.554 93.5781 17.3017 94.5881 15.9408C95.5341 14.6669 96.9271 14.5073 98.8181 15.5188ZM98.8341 18.1568C98.8441 17.1263 98.2341 16.4119 97.3371 16.4071C96.4331 16.4008 95.7851 17.1073 95.7761 18.111C95.7661 19.0925 96.4281 19.8717 97.2881 19.8907C98.1551 19.9097 98.8231 19.1605 98.8331 18.1584L98.8341 18.1568Z" fill="white"/>
<path d="M55.2607 4.061C56.5018 4.04941 57.1224 4.6495 57.1224 5.86127C57.1224 7.85596 56.2786 8.68734 54.0829 8.85646C52.0439 9.01294 50.3626 8.07566 49.6439 6.38128C48.8809 4.58417 49.3416 2.51046 50.7806 1.26813C52.1753 0.0621492 54.504 -0.111715 56.1108 0.868241C56.5762 1.15116 56.9641 1.51312 56.6174 2.07738C56.2612 2.65587 55.791 2.42195 55.324 2.13902C54.0718 1.38193 52.742 1.46096 51.808 2.31447C50.8661 3.1743 50.5906 4.73116 51.1621 5.95453C51.8618 7.45291 54.0512 8.02824 55.3715 7.05461C55.8828 6.67843 55.6216 6.12681 55.6106 5.66686C55.5995 5.1516 55.1246 5.43768 54.8602 5.39026C54.5784 5.33968 54.2776 5.40133 53.9942 5.36023C53.6175 5.30491 53.3594 5.08521 53.3816 4.6711C53.4006 4.29809 53.6491 4.09577 53.999 4.07206C54.4185 4.04203 54.8412 4.06574 55.2623 4.06574L55.2607 4.061Z" fill="white"/>
<path d="M49.5801 29.214C49.5801 28.2167 49.5706 27.2178 49.5817 26.2204C49.5912 25.3558 49.9094 25.0255 50.7801 25.0318C51.7505 25.0397 52.7289 24.9307 53.693 25.0966C55.3409 25.3811 56.2306 26.4227 56.2069 28.0065C56.1847 29.5207 55.1573 30.6144 53.5521 30.8183C53.2149 30.861 52.8698 30.8594 52.5278 30.8657C51.2898 30.8879 51.4782 30.7156 51.4592 31.9721C51.4561 32.1302 51.4592 32.2867 51.4576 32.4447C51.4513 33.0374 51.1426 33.4184 50.5632 33.4389C49.9347 33.461 49.5959 33.058 49.5849 32.4431C49.5643 31.3668 49.5801 30.2904 49.5785 29.214H49.5801ZM51.4592 27.9622C51.4592 28.8083 51.7532 29.2319 52.341 29.233C53.7056 29.233 54.3056 28.8537 54.3167 27.9796C54.3294 27.0882 53.761 26.7215 52.3727 26.723C51.7637 26.723 51.4592 27.1366 51.4592 27.9638V27.9622Z" fill="white"/>
<path d="M49.2261 17.1154C49.2752 15.4669 49.9496 14.1502 51.4361 13.3758C52.997 12.5633 54.5849 12.644 56.1125 13.5259C56.665 13.8452 56.9262 14.3288 56.5558 14.9089C56.1822 15.4953 55.6677 15.4194 55.1152 15.0812C53.9785 14.3857 52.9369 14.4015 52.101 15.0749C51.2825 15.734 50.9549 16.9289 51.2952 18.0132C51.7638 19.5068 53.282 20.1612 54.7194 19.4815C54.9315 19.3804 55.1326 19.2492 55.3241 19.1132C55.7832 18.7876 56.2344 18.7908 56.5811 19.2349C56.9674 19.7281 56.7632 20.158 56.3278 20.5326C54.5199 22.0847 51.4044 21.6848 50.0098 19.7107C49.4604 18.9331 49.1929 18.0701 49.223 17.1122L49.2261 17.1154Z" fill="white"/>
<path d="M75.2868 4.57428C74.8673 5.82294 74.5 6.88824 74.1533 7.95829C74.0077 8.41034 73.8241 8.82129 73.2811 8.83709C72.6985 8.8529 72.4943 8.42614 72.3296 7.94881C71.8231 6.4852 71.3006 5.02633 70.7766 3.56746C70.5993 3.07432 70.5408 2.59698 71.155 2.40889C71.7534 2.22397 72.0114 2.6365 72.1697 3.1328C72.5117 4.20759 72.852 5.28396 73.2146 6.42672C73.6167 6.00944 73.6373 5.49892 73.7987 5.05636C74.0156 4.46522 74.2087 3.8646 74.3908 3.26082C74.5349 2.78033 74.7011 2.35515 75.3169 2.3678C75.8868 2.38044 76.0435 2.78033 76.186 3.23079C76.5264 4.30242 76.8889 5.36773 77.3084 6.63219C77.7042 5.41673 78.0366 4.39252 78.3691 3.3683C78.4261 3.19286 78.4704 3.01267 78.5448 2.84513C78.7379 2.41838 79.0862 2.25084 79.5136 2.43102C79.9094 2.59698 80.0139 2.94155 79.8683 3.3525C79.2984 4.96152 78.7332 6.57213 78.1554 8.17957C78.0113 8.58104 77.7359 8.86554 77.2768 8.83867C76.8272 8.81338 76.5897 8.52098 76.4551 8.10529C76.0942 6.98624 75.7158 5.87193 75.2852 4.57586L75.2868 4.57428Z" fill="white"/>
<path d="M88.5085 18.7932C88.9186 19.8569 89.6911 20.2078 90.6853 19.8632C90.8325 19.8126 90.975 19.7368 91.1077 19.6546C91.5577 19.3764 92.0147 19.2515 92.3297 19.7968C92.6467 20.3469 92.2717 20.6883 91.8397 20.9443C90.5966 21.6777 89.327 21.684 88.1017 20.9427C86.9508 20.2457 86.5344 19.1346 86.6358 17.8385C86.7719 16.0967 88.0431 14.867 89.6974 14.818C91.3347 14.7706 92.5427 15.779 92.8317 17.4323C92.9967 18.3696 92.6707 18.7821 91.7317 18.7916C90.6805 18.8026 89.6294 18.7947 88.5054 18.7947L88.5085 18.7932ZM89.7465 17.603C89.8779 17.603 90.0141 17.6267 90.1375 17.5982C90.4399 17.5271 90.9433 17.8258 91.0114 17.3912C91.0827 16.9439 90.7201 16.5788 90.2705 16.3923C89.851 16.2168 89.4441 16.2642 89.0785 16.5203C88.7697 16.7368 88.4595 17.0608 88.5418 17.4133C88.6304 17.7911 89.0737 17.5398 89.3539 17.5982C89.479 17.6235 89.6151 17.603 89.7449 17.603H89.7465Z" fill="white"/>
<path d="M61.5418 18.7972C61.0416 18.7972 60.5413 18.8067 60.0411 18.7956C59.62 18.7861 59.6121 18.9774 59.7735 19.2808C60.0949 19.8846 60.9972 20.1486 61.8046 19.8562C62.0009 19.785 62.1798 19.6681 62.365 19.5701C62.7576 19.363 63.1534 19.3377 63.4099 19.7424C63.6806 20.1675 63.5096 20.5358 63.1312 20.8361C61.9455 21.7766 59.9033 21.6738 58.7461 20.6101C57.7187 19.6649 57.4353 17.9595 58.0812 16.6049C58.6939 15.3199 59.9223 14.6703 61.3898 14.8552C62.8162 15.0354 63.9259 16.2604 63.9703 17.7018C63.994 18.4495 63.7091 18.7671 62.9618 18.794C62.4885 18.8114 62.0136 18.7972 61.5402 18.7972H61.5418ZM60.8912 17.607C61.0226 17.607 61.1603 17.6339 61.2822 17.6023C61.5782 17.5264 62.0769 17.8409 62.1402 17.3952C62.1972 16.9953 61.8648 16.6223 61.4516 16.4295C60.9497 16.1971 60.4812 16.2619 60.0648 16.6239C59.8226 16.8357 59.5756 17.1218 59.6659 17.4268C59.7719 17.7825 60.1614 17.5517 60.421 17.6023C60.573 17.6323 60.7345 17.607 60.8912 17.607Z" fill="white"/>
<path d="M62.7205 30.9118C62.7205 31.4381 62.7157 31.9644 62.7205 32.4892C62.7252 32.897 62.5732 33.202 62.1886 33.3711C61.8055 33.5403 61.4018 33.4913 61.1849 33.1704C60.9015 32.7516 60.7163 32.9776 60.444 33.1325C59.5527 33.6398 58.6282 33.6651 57.7338 33.1641C57.0451 32.7784 56.7966 32.1351 56.8409 31.3607C56.8931 30.4629 57.4314 29.8322 58.3717 29.592C59.1015 29.4055 59.8393 29.4118 60.5611 29.6062C61.0218 29.7295 60.9981 29.5145 60.8936 29.2142C60.7226 28.7243 60.3126 28.5599 59.8488 28.4982C59.3437 28.4318 58.8514 28.5472 58.3654 28.6674C57.8699 28.7906 57.5042 28.6215 57.3696 28.1521C57.2303 27.6684 57.5026 27.3476 57.9665 27.1974C58.9907 26.8655 60.0308 26.7722 61.0756 27.071C62.0397 27.3476 62.6176 28.0968 62.6936 29.1747C62.7331 29.75 62.7015 30.3317 62.7015 30.9102H62.7205V30.9118ZM59.9643 30.5719C59.1522 30.5561 58.6013 30.9039 58.6124 31.4239C58.625 32.0324 59.0667 32.2015 59.5733 32.23C60.3379 32.2726 60.9933 31.7763 60.9743 31.1678C60.9506 30.3981 60.2572 30.7774 59.9643 30.5719Z" fill="white"/>
<path d="M85.0213 30.8294C84.521 30.8294 84.0208 30.842 83.5205 30.8262C83.1152 30.812 83.0725 30.9574 83.2482 31.2877C83.5997 31.9532 84.5511 32.225 85.4076 31.8741C85.5769 31.8046 85.7305 31.6987 85.8904 31.607C86.2941 31.3747 86.6598 31.4094 86.921 31.8077C87.1869 32.214 87.0207 32.5506 86.6819 32.8414C85.2065 34.1091 82.52 33.5906 81.6208 31.8299C81.0129 30.6397 81.0762 29.429 81.7807 28.2989C82.4361 27.2462 83.4366 26.81 84.6698 26.8779C86.2165 26.9649 87.4893 28.2957 87.483 29.8463C87.4798 30.4706 87.1869 30.8357 86.5205 30.8294C86.0202 30.8246 85.5199 30.8294 85.0197 30.8294H85.0213ZM84.3785 29.6882C84.5099 29.6882 84.6477 29.7166 84.7696 29.6819C85.064 29.6013 85.5516 29.9316 85.6323 29.4606C85.7068 29.0354 85.3743 28.6798 84.9738 28.4791C84.4783 28.2293 83.9954 28.3036 83.5775 28.6498C83.3131 28.8695 83.0408 29.1856 83.139 29.5175C83.2403 29.8605 83.6408 29.6345 83.9052 29.6819C84.0572 29.7103 84.2187 29.6866 84.377 29.6866L84.3785 29.6882Z" fill="white"/>
<path d="M76.0734 27.6984C76.6148 27.1452 77.2163 26.8244 77.9904 26.8718C79.0336 26.9366 79.8094 27.5515 79.9424 28.5899C80.1134 29.9223 80.0216 31.269 79.9931 32.6093C79.982 33.1325 79.61 33.4375 79.1097 33.4423C78.5715 33.447 78.2058 33.1356 78.19 32.5682C78.1646 31.6752 78.1931 30.779 78.1741 29.886C78.1535 28.9629 77.8005 28.552 77.077 28.5583C76.3567 28.5646 76.0021 28.9898 75.9895 29.897C75.9784 30.6857 75.9926 31.476 75.9847 32.2647C75.9768 33.0266 75.6111 33.5039 75.0349 33.4502C74.3541 33.3869 74.1167 32.9333 74.1198 32.2963C74.1278 30.9813 74.1278 29.6663 74.1198 28.3512C74.1167 27.7822 74.1024 27.2085 74.7626 26.9714C75.4338 26.7296 75.7582 27.21 76.0717 27.7L76.0734 27.6984Z" fill="white"/>
<path d="M87.5882 3.18908C88.3544 2.56317 89.0446 2.17909 89.9201 2.32609C90.9997 2.50785 91.6978 3.19224 91.7688 4.36345C91.8418 5.56943 91.8008 6.78173 91.7978 7.99245C91.7978 8.45714 91.5398 8.75903 91.0808 8.77325C90.5691 8.78906 90.3143 8.4524 90.3048 7.96558C90.2858 7.07097 90.3032 6.17637 90.2937 5.28176C90.2826 4.17536 89.8758 3.66167 89.0193 3.65219C88.147 3.64113 87.6262 4.21487 87.5961 5.2786C87.5708 6.14634 87.5803 7.01407 87.593 7.88339C87.6009 8.41604 87.3872 8.78748 86.8347 8.77325C86.3344 8.76061 86.1255 8.40498 86.127 7.9071C86.1334 5.56627 86.1318 3.22385 86.127 0.883023C86.127 0.359852 86.3123 -0.00842251 86.8901 0.00422209C87.4299 0.0152861 87.5898 0.386722 87.5882 0.865636C87.5866 1.59112 87.5882 2.3166 87.5882 3.1875V3.18908Z" fill="white"/>
<path d="M66.5475 8.86375C64.6462 8.87482 63.1914 7.49023 63.174 5.6536C63.1566 3.77114 64.5956 2.31859 66.5048 2.2933C68.3697 2.26801 69.8578 3.68737 69.8878 5.51768C69.9179 7.38433 68.452 8.85269 66.5475 8.86375ZM66.5459 3.62889C65.4267 3.6115 64.6257 4.42234 64.6241 5.57458C64.6241 6.67466 65.4916 7.58032 66.5428 7.57874C67.5939 7.57874 68.3934 6.74578 68.4077 5.6378C68.4235 4.47924 67.6509 3.64627 66.5459 3.62889Z" fill="white"/>
<path d="M100.48 4.58381C100.48 5.71392 100.48 6.84561 100.48 7.97572C100.48 8.36296 100.461 8.78498 99.9533 8.76601C99.5213 8.7502 99.4593 8.3677 99.4603 7.99943C99.4643 7.21072 99.4413 6.42044 99.4683 5.63331C99.4843 5.18285 99.3883 4.96631 98.8673 4.98211C97.6833 5.01847 96.4953 5.0074 95.3113 4.98686C94.8633 4.97895 94.7103 5.14491 94.7223 5.58589C94.7463 6.42676 94.7273 7.2692 94.7293 8.11007C94.7293 8.46096 94.6433 8.77707 94.2313 8.76759C93.8313 8.75811 93.7383 8.44515 93.7383 8.09426C93.7393 5.72814 93.7383 3.36044 93.7393 0.994325C93.7393 0.646599 93.8453 0.338386 94.2573 0.347869C94.6843 0.357353 94.7273 0.694016 94.7273 1.0291C94.7273 1.84467 94.7443 2.66025 94.7223 3.47425C94.7113 3.90732 94.8543 4.08593 95.3083 4.07803C96.5193 4.0559 97.7323 4.05432 98.9443 4.07803C99.3843 4.08593 99.4753 3.8931 99.4653 3.5106C99.4463 2.74876 99.4563 1.98534 99.4623 1.22351C99.4653 0.826784 99.4373 0.346289 100.002 0.355773C100.523 0.365256 100.477 0.826784 100.478 1.1919C100.483 2.32201 100.48 3.4537 100.48 4.58381Z" fill="#FBFBFB"/>
<path d="M79.1301 18.6791C79.1301 18.2334 79.1301 17.7861 79.1301 17.3403C79.1301 16.931 79.1886 16.5674 78.6472 16.3383C78.147 16.1265 78.177 15.3788 78.6805 15.1228C79.0145 14.9537 79.1206 14.7909 79.1443 14.4321C79.2425 12.9448 80.425 12.1671 81.8625 12.6065C82.2646 12.7298 82.5068 12.9716 82.4688 13.4031C82.4355 13.7888 82.2012 14.018 81.815 14.078C81.6598 14.1017 81.4952 14.0923 81.348 14.1381C81.0598 14.2282 80.9395 14.4653 80.9427 14.7482C80.9474 15.1481 81.2736 15.0074 81.4714 15.0074C81.9305 15.0043 82.3532 15.0833 82.4419 15.6001C82.5448 16.2007 82.1791 16.5105 81.6218 16.4853C80.9933 16.4552 80.9569 16.784 80.968 17.2645C80.9902 18.2349 80.9759 19.207 80.9728 20.1791C80.9728 20.8176 80.8129 21.3487 80.0403 21.3771C79.4419 21.3977 79.1411 20.9883 79.1332 20.1759C79.1285 19.6764 79.1332 19.1785 79.1332 18.6791H79.1301Z" fill="white"/>
<path d="M70.6014 18.4182C70.6014 18.0246 70.5966 17.6311 70.6014 17.2375C70.6061 16.874 70.6346 16.5784 70.1581 16.3792C69.6183 16.1548 69.5993 15.3772 70.1138 15.1006C70.5016 14.8919 70.6362 14.6785 70.6093 14.2597C70.5713 13.6717 70.861 13.2971 71.4737 13.2671C72.0926 13.2386 72.4267 13.6259 72.4298 14.1838C72.4346 14.7449 72.5644 14.982 73.1771 14.9425C73.6488 14.9125 73.9829 15.2191 73.986 15.7201C73.9876 16.2212 73.6741 16.5357 73.185 16.4883C72.471 16.4188 72.4203 16.7997 72.4552 17.3387C72.4837 17.7828 72.4837 18.2317 72.4552 18.6758C72.414 19.3428 72.4441 19.8865 73.3654 19.8328C73.6868 19.8138 73.918 20.1078 73.9528 20.4698C73.986 20.8238 73.8372 21.0688 73.5238 21.2379C72.1259 21.9887 70.6457 21.1605 70.6045 19.5973C70.5935 19.2037 70.6045 18.8102 70.603 18.4166L70.6014 18.4182Z" fill="white"/>
<path d="M69.511 30.463C69.511 30.0425 69.5031 29.6221 69.5126 29.2017C69.5205 28.8761 69.4873 28.6485 69.1264 28.4525C68.5058 28.1158 68.5026 27.3998 69.1295 27.0948C69.5221 26.9035 69.5142 26.6633 69.511 26.3519C69.5047 25.7307 69.7786 25.3166 70.4245 25.3087C71.0799 25.3008 71.3759 25.737 71.349 26.3392C71.3252 26.8656 71.5152 27.0347 72.025 26.9968C72.5569 26.9572 72.9115 27.2544 72.9131 27.7776C72.9131 28.3007 72.5379 28.6105 72.0265 28.5742C71.4345 28.5315 71.3078 28.7796 71.3553 29.2997C71.3949 29.7422 71.3775 30.1927 71.3601 30.6384C71.3332 31.3054 71.3142 31.9202 72.2846 31.8807C72.6154 31.8681 72.8387 32.1589 72.8751 32.5177C72.9115 32.8702 72.7579 33.1215 72.4461 33.289C71.026 34.0477 69.5395 33.1768 69.5142 31.5662C69.5079 31.1979 69.5142 30.8312 69.5142 30.463H69.511Z" fill="white"/>
<path d="M117.277 5.80361C118.347 4.7794 119.338 3.83579 120.321 2.88429C120.575 2.6393 120.858 2.31528 121.186 2.62191C121.574 2.98228 121.202 3.27627 120.94 3.53548C120.511 3.96224 120.105 4.41587 119.638 4.79994C119.202 5.15715 119.254 5.42427 119.598 5.81467C120.171 6.46587 120.689 7.16448 121.227 7.84571C121.431 8.10493 121.621 8.40524 121.295 8.67235C120.967 8.94263 120.714 8.70555 120.504 8.44159C119.93 7.72085 119.349 7.00643 118.791 6.27462C118.588 6.01066 118.45 5.95851 118.178 6.2114C117.629 6.72034 117.09 7.19768 117.265 8.07015C117.329 8.39575 117.211 8.74506 116.805 8.76561C116.331 8.78932 116.289 8.41946 116.289 8.05435C116.289 5.6092 116.289 3.16405 116.289 0.718899C116.289 0.36327 116.305 -0.0255516 116.794 0.00131819C117.258 0.0250268 117.274 0.412267 117.274 0.766316C117.276 2.18567 117.274 3.60661 117.274 5.02597C117.274 5.27728 117.274 5.52859 117.274 5.80677L117.277 5.80361Z" fill="#FBFBFB"/>
<path d="M125.7 6.00537C125.146 6.00537 124.59 6.04014 124.039 5.99746C123.341 5.94372 123.369 6.26142 123.574 6.74666C124.096 7.98899 125.609 8.39994 126.852 7.64916C127.166 7.45949 127.528 6.86204 127.883 7.45001C128.18 7.94157 127.591 8.17708 127.262 8.37465C126.099 9.07326 124.903 9.07484 123.754 8.34304C122.693 7.66655 122.196 6.26774 122.486 4.929C122.768 3.62344 123.525 2.76045 124.858 2.47911C126.624 2.10609 128.337 3.6108 128.245 5.41265C128.222 5.8647 128.009 6.01169 127.599 6.00853C126.966 6.00221 126.333 6.00695 125.7 6.00853V6.00537ZM125.306 5.26724C125.804 5.26724 126.303 5.25459 126.8 5.27198C127.178 5.28463 127.314 5.19453 127.2 4.77884C126.957 3.88108 126.301 3.27888 125.44 3.23462C124.595 3.19194 123.772 3.81943 123.502 4.68243C123.361 5.13289 123.488 5.30675 123.968 5.27514C124.411 5.24511 124.859 5.26882 125.306 5.26882V5.26724Z" fill="#FBFBFB"/>
<path d="M106.628 7.97812C105.711 8.79054 104.695 9.07662 103.538 8.6957C102.705 8.42226 102.182 7.75368 102.154 6.96181C102.124 6.13359 102.63 5.41601 103.49 5.11412C104.334 4.81855 105.209 4.83278 106.063 5.02719C106.753 5.18367 106.775 4.91813 106.607 4.39022C106.384 3.6916 105.869 3.40236 105.189 3.33123C104.546 3.26327 103.935 3.3992 103.336 3.62838C103.099 3.71847 102.847 3.69793 102.748 3.41026C102.656 3.14473 102.779 2.94874 103.036 2.84758C104.174 2.39553 105.33 2.22957 106.477 2.78436C107.342 3.20163 107.592 4.00772 107.619 4.88652C107.647 5.88386 107.63 6.88436 107.627 7.88328C107.627 8.24208 107.711 8.69096 107.199 8.76208C106.658 8.83795 106.748 8.32743 106.629 7.97812H106.628ZM105.114 5.62465C104.661 5.63255 104.156 5.62939 103.712 5.89808C102.987 6.3359 102.958 7.32534 103.65 7.80268C104.492 8.38275 106.001 8.04609 106.506 7.16571C106.997 6.30903 106.746 5.79377 105.787 5.69103C105.578 5.6689 105.369 5.64993 105.114 5.62623V5.62465Z" fill="#FBFBFB"/>
<path d="M81.5413 5.68704C81.5413 5.23974 81.5381 4.79243 81.5413 4.34513C81.5444 4.00214 81.5777 3.73661 81.0837 3.61016C80.5629 3.4774 80.5423 2.7203 81.0553 2.53221C81.508 2.36625 81.5729 2.126 81.5428 1.73086C81.5017 1.18398 81.6046 0.673456 82.2837 0.671875C82.917 0.671875 83.0626 1.16501 83.0009 1.67396C82.9201 2.34728 83.2367 2.48321 83.813 2.42315C84.2293 2.38048 84.652 2.45002 84.7312 2.94948C84.8198 3.50585 84.4526 3.74767 83.965 3.67181C83.099 3.53904 82.9344 3.94208 83.0024 4.68969C83.0594 5.3156 83.023 5.95257 83.0119 6.58322C83.0024 7.18858 83.2241 7.54895 83.8937 7.48731C84.3037 7.44938 84.6568 7.55053 84.7153 8.0168C84.7739 8.48149 84.443 8.63797 84.0504 8.74545C82.5323 9.15956 81.5523 8.43249 81.5381 6.86773C81.5349 6.47258 81.5381 6.07744 81.5381 5.68388L81.5413 5.68704Z" fill="white"/>
<path d="M67.2127 15.7359C67.4264 15.5036 67.6053 15.2744 67.819 15.0847C68.1008 14.835 68.4412 14.805 68.7816 14.952C69.1409 15.1069 69.2612 15.4182 69.2565 15.7881C69.2517 16.1722 69.0697 16.482 68.7072 16.5721C67.4106 16.8945 67.1589 17.8555 67.1589 18.9904C67.1589 19.4645 67.1652 19.9387 67.1557 20.4113C67.1447 20.9993 66.8613 21.3723 66.2502 21.3818C65.6803 21.3912 65.3447 21.0498 65.3352 20.503C65.3083 18.924 65.313 17.345 65.332 15.7644C65.3384 15.295 65.6075 14.9646 66.0919 14.8903C66.7251 14.7939 67.0307 15.1827 67.2111 15.7359H67.2127Z" fill="white"/>
<path d="M90.7683 27.7726C91.0117 27.5039 91.1847 27.2241 91.4347 27.0613C91.9097 26.7531 92.3717 26.8685 92.6477 27.3569C92.9167 27.8342 92.8307 28.4096 92.3097 28.555C90.7809 28.9833 90.6274 30.1071 90.678 31.3953C90.6939 31.7888 90.7065 32.1871 90.6654 32.5775C90.6084 33.1213 90.2712 33.4658 89.7235 33.4453C89.19 33.4263 88.8369 33.1023 88.8322 32.5333C88.8211 30.9812 88.829 29.429 88.8274 27.8769C88.8274 27.3933 89.0633 27.0613 89.5208 26.9412C90.162 26.7737 90.4754 27.2147 90.7699 27.7694L90.7683 27.7726Z" fill="white"/>
<path d="M66.1761 27.773C66.4041 27.5185 66.5624 27.2625 66.7888 27.106C67.2764 26.7694 67.764 26.8215 68.0679 27.3573C68.3608 27.8742 68.2357 28.4242 67.6642 28.5886C66.3091 28.9774 66.0669 29.9605 66.0922 31.1523C66.1017 31.6249 66.1033 32.0991 66.0732 32.5701C66.0368 33.1312 65.6901 33.4583 65.1487 33.4441C64.6121 33.4315 64.2654 33.1011 64.2606 32.5337C64.2495 30.9832 64.2559 29.4326 64.2543 27.8821C64.2543 27.3968 64.4949 27.0633 64.9461 26.9464C65.5714 26.7836 65.8912 27.2072 66.1761 27.773Z" fill="white"/>
<path d="M136.585 8.86379C135.889 8.83059 135.138 8.61405 134.459 8.17782C134.228 8.03082 134.029 7.83325 134.219 7.53136C134.402 7.24054 134.648 7.28479 134.898 7.45075C135.46 7.82061 136.079 8.05137 136.752 8.03873C137.298 8.02924 137.834 7.87751 137.955 7.23737C138.075 6.58776 137.568 6.37912 137.09 6.20368C136.549 6.00453 135.982 5.86702 135.45 5.64732C134.79 5.37388 134.374 4.88864 134.426 4.1268C134.477 3.36181 134.909 2.8576 135.61 2.60471C136.595 2.24908 137.527 2.49249 138.43 2.92557C138.672 3.04253 138.799 3.25117 138.686 3.5088C138.555 3.81069 138.314 3.83282 138.034 3.68424C137.515 3.40922 136.967 3.22746 136.372 3.27645C135.9 3.31597 135.469 3.47403 135.374 4.0051C135.279 4.54091 135.694 4.74165 136.091 4.90128C136.505 5.06725 136.938 5.18421 137.359 5.33278C138.583 5.76428 139.009 6.33012 138.86 7.30534C138.716 8.24894 137.876 8.8543 136.589 8.86379H136.585Z" fill="#FBFBFB"/>
<path d="M112.282 8.86439C110.915 8.85333 109.717 7.98559 109.288 6.69584C108.842 5.35552 109.309 3.86346 110.434 3.03208C111.542 2.21334 113.075 2.20386 114.199 3.02891C114.48 3.23597 114.919 3.44461 114.618 3.89349C114.305 4.36134 113.991 4.01203 113.694 3.80023C112.652 3.06053 111.463 3.1443 110.705 4.00255C109.931 4.87661 109.934 6.3987 110.711 7.26959C111.498 8.15313 112.731 8.2369 113.778 7.48455C114.037 7.29804 114.303 6.90448 114.632 7.32807C114.981 7.77538 114.52 7.98243 114.259 8.19897C113.69 8.67156 113.019 8.87704 112.282 8.86597V8.86439Z" fill="#FBFBFB"/>
<path d="M60.3756 3.36586C60.7729 2.88852 61.0737 2.47441 61.6072 2.37326C62.0363 2.29107 62.4209 2.35903 62.5365 2.85533C62.6394 3.29631 62.4732 3.60927 62.0236 3.78313C60.64 4.32052 60.3218 4.78521 60.3107 6.2425C60.3059 6.82099 60.3202 7.40107 60.3028 7.97956C60.2869 8.47428 60.0115 8.78881 59.5128 8.77617C59.049 8.76352 58.8052 8.44425 58.8036 7.98588C58.7957 6.38001 58.7925 4.77573 58.8067 3.16986C58.8115 2.73521 59.0078 2.39538 59.5033 2.37167C60.1381 2.34164 60.2584 2.81898 60.3756 3.36586Z" fill="white"/>
<path d="M83.4389 18.168C83.4389 17.4046 83.4357 16.6427 83.4389 15.8793C83.4421 15.2961 83.7096 14.9088 84.3175 14.8804C84.9333 14.8519 85.2674 15.2376 85.28 15.8019C85.3117 17.354 85.3133 18.9061 85.28 20.4582C85.2674 21.0225 84.9317 21.4082 84.3159 21.3765C83.7112 21.3449 83.4373 20.9703 83.4389 20.3792C83.4389 19.6427 83.4389 18.9061 83.4389 18.1696V18.168Z" fill="white"/>
<path d="M77.1432 18.1902C77.1432 18.9252 77.1463 19.6618 77.1432 20.3967C77.14 20.9831 76.8708 21.3672 76.2581 21.3814C75.6471 21.3956 75.3336 21.029 75.3273 20.4426C75.313 18.8936 75.3115 17.3431 75.3305 15.7941C75.3369 15.2488 75.6424 14.8932 76.2123 14.8868C76.8202 14.8789 77.1274 15.2377 77.1384 15.8273C77.1527 16.6144 77.1416 17.4031 77.1432 18.1918V18.1902Z" fill="white"/>
<path d="M130.765 3.94807C131.33 3.15304 131.818 2.65042 132.57 2.49394C132.918 2.42124 133.22 2.4402 133.309 2.84799C133.387 3.20836 133.149 3.35378 132.84 3.45493C131.343 3.94491 130.811 4.65143 130.77 6.20829C130.752 6.86581 130.762 7.52333 130.767 8.18085C130.77 8.51435 130.659 8.77515 130.29 8.76408C129.932 8.75302 129.822 8.49223 129.822 8.15872C129.826 6.52757 129.823 4.89642 129.822 3.26526C129.822 2.91121 129.815 2.52555 130.306 2.52872C130.813 2.53188 130.76 2.93808 130.763 3.27949C130.763 3.42648 130.763 3.57506 130.763 3.94491L130.765 3.94807Z" fill="#FBFBFB"/>
<path d="M76.1809 14.3583C75.6838 14.2714 75.2231 14.1023 75.2073 13.459C75.1946 12.92 75.6569 12.5359 76.2869 12.5865C76.841 12.6292 77.259 12.8663 77.2526 13.5001C77.2479 13.9885 76.7634 14.3694 76.1809 14.3583Z" fill="white"/>
<path d="M85.3769 13.5454C85.331 14.1096 84.8956 14.3135 84.3606 14.3436C83.7717 14.3767 83.2841 13.9121 83.3427 13.3984C83.4139 12.7804 83.8619 12.5891 84.4049 12.586C84.9985 12.5828 85.3927 12.9653 85.3769 13.5469V13.5454Z" fill="white"/>
<path d="M30.9024 6.66016C31.1366 6.90515 31.0369 7.2102 31.0369 7.48838C31.0432 14.092 31.0432 20.6957 31.0401 27.3009C31.0401 29.8298 29.3272 31.7628 26.8196 32.0837C24.7663 32.3461 22.3379 30.5031 22.0276 28.4563C21.9136 27.7024 21.8709 26.9468 21.8709 26.1834C21.8804 19.9733 21.874 13.7648 21.8819 7.55476C21.8819 7.25603 21.7537 6.91779 22.0418 6.66332C22.1226 6.82454 22.2096 6.98101 22.2825 7.14539C23.5014 9.89085 26.8006 10.7617 29.2243 8.98834C30.0412 8.39089 30.4559 7.51841 30.9024 6.66174V6.66016Z" fill="white"/>
<path d="M19.9725 17.7164C20.2195 17.9551 20.1166 18.2633 20.1166 18.5399C20.1245 21.4071 20.1245 24.2758 20.1197 27.143C20.115 29.7857 18.5477 31.7156 15.961 32.0506C13.9188 32.3146 11.6044 30.9142 11.1009 28.458C10.9727 27.8353 10.9426 27.2141 10.9442 26.5819C10.9521 23.9502 10.9442 21.3201 10.9521 18.6885C10.9521 18.4135 10.8413 18.1021 11.112 17.8745C11.2323 18.0736 11.3653 18.2665 11.4698 18.4719C12.9278 21.3502 16.4897 21.9002 18.7915 19.6289C19.3551 19.0726 19.5831 18.355 19.9725 17.7148V17.7164Z" fill="white"/>
<path d="M30.9019 6.65802C30.4555 7.51469 30.0407 8.38558 29.2239 8.98462C26.8002 10.758 23.501 9.88713 22.282 7.14167C22.2092 6.97729 22.1221 6.82081 22.0414 6.6596C21.8815 5.66383 21.8625 4.68072 22.2425 3.71973C23.0878 1.58437 25.369 0.427393 27.6392 0.988497C29.8017 1.52431 31.2977 3.77663 30.989 6.03527C30.9605 6.24232 30.9304 6.44938 30.9019 6.65643V6.65802Z" fill="#EFEFEF"/>
<path d="M19.9714 17.7124C19.582 18.3526 19.354 19.0717 18.7905 19.6265C16.4887 21.8978 12.9267 21.3478 11.4687 18.4695C11.3642 18.2625 11.2312 18.0712 11.1109 17.8721C10.7991 16.3026 10.9954 14.8374 12.0671 13.5824C13.2766 12.1646 14.8518 11.7252 16.6216 12.1172C18.4184 12.5155 19.7087 14.0028 19.9904 15.6861C20.106 16.3769 20.0443 17.0375 19.9714 17.7124Z" fill="#EFEFEF"/>
<path d="M4.55862 23.0682C7.11212 23.073 9.05302 25.0155 9.04822 27.5618C9.04192 30.0449 7.00612 32.0838 4.53332 32.0838C2.00192 32.0838 0.059517 30.0591 0.000947008 27.497C-0.052883 25.1324 2.19672 22.858 4.56022 23.0682H4.55862Z" fill="#EFEFEF"/>
</svg>
