<svg width="148" height="34" viewBox="0 0 148 34" fill="none" xmlns="http://www.w3.org/2000/svg">
<path d="M20.1009 17.876C19.8302 18.1036 19.9426 18.415 19.941 18.69C19.9331 21.3217 19.941 23.9517 19.9331 26.5834C19.9315 27.214 19.9632 27.8368 20.0898 28.4595C20.5932 30.9157 22.9077 32.3161 24.9499 32.0522C27.5366 31.7171 29.1039 29.7872 29.1086 27.1445C29.1134 24.2773 29.1118 21.4086 29.1055 18.5414C29.1055 18.2648 29.2084 17.9566 28.9614 17.718C29.0342 17.0431 29.0944 16.3824 28.9804 15.6917C28.6986 14.0084 27.41 12.521 25.6116 12.1227C23.8417 11.7307 22.2665 12.1701 21.0571 13.5879C19.9853 14.8429 19.7906 16.3081 20.1009 17.8776V17.876ZM31.0305 6.66026C30.7424 6.91474 30.8706 7.25298 30.8706 7.55171C30.8627 13.7618 30.869 19.9703 30.8595 26.1803C30.8595 26.9438 30.9023 27.6993 31.0162 28.4532C31.3265 30.5016 33.755 32.343 35.8082 32.0806C38.3158 31.7598 40.0271 29.8283 40.0287 27.2978C40.0319 20.6942 40.0319 14.0905 40.0256 7.48532C40.0256 7.20714 40.1253 6.90209 39.891 6.6571C39.9195 6.45005 39.9496 6.24299 39.9781 6.03594C40.2852 3.7773 38.7908 1.52498 36.6283 0.989165C34.3581 0.42648 32.0753 1.58346 31.2315 3.7204C30.8516 4.68138 30.8722 5.6645 31.0305 6.66026ZM13.5485 23.0682C11.185 22.858 8.9354 25.1324 8.98923 27.497C9.0478 30.0607 10.9902 32.0854 13.5216 32.0838C15.9944 32.0838 18.0302 30.0449 18.0365 27.5618C18.0429 25.0155 16.102 23.0729 13.5469 23.0682H13.5485Z" fill="#14A283"/>
<path d="M107.806 15.5188C107.806 14.8534 107.805 14.2354 107.806 13.6174C107.808 12.9978 108.104 12.5726 108.736 12.5742C109.366 12.5758 109.66 12.9931 109.66 13.619C109.659 15.7512 109.656 17.8834 109.663 20.0171C109.665 20.5609 109.682 21.1188 109.052 21.3306C108.403 21.5487 108.003 21.1868 107.764 20.6067C106.379 21.7226 105.012 21.7337 103.895 20.6731C102.718 19.554 102.566 17.3017 103.576 15.9408C104.522 14.6669 105.915 14.5073 107.806 15.5188ZM107.822 18.1568C107.832 17.1263 107.222 16.4119 106.325 16.4071C105.421 16.4008 104.773 17.1073 104.764 18.111C104.754 19.0925 105.416 19.8717 106.276 19.8907C107.143 19.9097 107.811 19.1605 107.821 18.1584L107.822 18.1568Z" fill="#4B5754"/>
<path d="M64.249 4.061C65.4901 4.04941 66.1107 4.6495 66.1107 5.86127C66.1107 7.85596 65.2669 8.68734 63.0712 8.85646C61.0322 9.01294 59.3509 8.07566 58.6322 6.38128C57.8692 4.58417 58.3299 2.51046 59.7689 1.26813C61.1636 0.0621494 63.4923 -0.111715 65.0991 0.868241C65.5645 1.15116 65.9524 1.51312 65.6057 2.07738C65.2495 2.65587 64.7793 2.42195 64.3123 2.13902C63.0601 1.38193 61.7303 1.46096 60.7963 2.31447C59.8544 3.1743 59.5789 4.73116 60.1504 5.95453C60.8501 7.45291 63.0395 8.02824 64.3598 7.05461C64.8711 6.67843 64.6099 6.12681 64.5989 5.66686C64.5878 5.1516 64.1129 5.43768 63.8485 5.39026C63.5667 5.33968 63.2659 5.40133 62.9825 5.36023C62.6058 5.30491 62.3477 5.08521 62.3699 4.6711C62.3889 4.29809 62.6374 4.09577 62.9873 4.07206C63.4068 4.04203 63.8295 4.06574 64.2506 4.06574L64.249 4.061Z" fill="#4B5754"/>
<path d="M58.5684 29.214C58.5684 28.2167 58.5589 27.2178 58.57 26.2204C58.5795 25.3558 58.8977 25.0255 59.7684 25.0318C60.7388 25.0397 61.7172 24.9307 62.6813 25.0966C64.3292 25.3811 65.2189 26.4227 65.1952 28.0065C65.173 29.5207 64.1456 30.6144 62.5404 30.8183C62.2032 30.861 61.8581 30.8594 61.5161 30.8657C60.2781 30.8879 60.4665 30.7156 60.4475 31.9721C60.4444 32.1302 60.4475 32.2867 60.4459 32.4447C60.4396 33.0374 60.1309 33.4184 59.5515 33.4389C58.923 33.461 58.5842 33.058 58.5732 32.4431C58.5526 31.3668 58.5684 30.2904 58.5668 29.214H58.5684ZM60.4475 27.9622C60.4475 28.8083 60.7415 29.2319 61.3293 29.233C62.6939 29.233 63.2939 28.8537 63.305 27.9796C63.3177 27.0882 62.7493 26.7215 61.361 26.723C60.752 26.723 60.4475 27.1366 60.4475 27.9638V27.9622Z" fill="#4B5754"/>
<path d="M58.2144 17.1154C58.2635 15.4669 58.9379 14.1502 60.4244 13.3758C61.9853 12.5633 63.5732 12.644 65.1008 13.5259C65.6533 13.8452 65.9145 14.3288 65.5441 14.9089C65.1705 15.4953 64.656 15.4194 64.1035 15.0812C62.9668 14.3857 61.9252 14.4015 61.0893 15.0749C60.2708 15.734 59.9432 16.9289 60.2835 18.0132C60.7521 19.5068 62.2703 20.1612 63.7077 19.4815C63.9198 19.3804 64.1209 19.2492 64.3124 19.1132C64.7715 18.7876 65.2227 18.7908 65.5694 19.2349C65.9557 19.7281 65.7515 20.158 65.3161 20.5326C63.5082 22.0847 60.3927 21.6848 58.9981 19.7107C58.4487 18.9331 58.1812 18.0701 58.2113 17.1122L58.2144 17.1154Z" fill="#4B5754"/>
<path d="M84.2751 4.57428C83.8556 5.82294 83.4883 6.88824 83.1416 7.95829C82.996 8.41034 82.8124 8.82129 82.2694 8.83709C81.6868 8.8529 81.4826 8.42614 81.3179 7.94881C80.8114 6.4852 80.2889 5.02633 79.7649 3.56746C79.5876 3.07432 79.5291 2.59698 80.1433 2.40889C80.7417 2.22397 80.9997 2.6365 81.158 3.1328C81.5 4.20759 81.8403 5.28396 82.2029 6.42672C82.605 6.00944 82.6256 5.49892 82.787 5.05636C83.0039 4.46522 83.197 3.8646 83.3791 3.26082C83.5232 2.78033 83.6894 2.35515 84.3052 2.3678C84.8751 2.38044 85.0318 2.78033 85.1743 3.23079C85.5147 4.30242 85.8772 5.36773 86.2967 6.63219C86.6925 5.41673 87.0249 4.39252 87.3574 3.3683C87.4144 3.19286 87.4587 3.01267 87.5331 2.84513C87.7262 2.41838 88.0745 2.25084 88.5019 2.43102C88.8977 2.59698 89.0022 2.94155 88.8566 3.3525C88.2867 4.96152 87.7215 6.57213 87.1437 8.17957C86.9996 8.58104 86.7242 8.86554 86.2651 8.83867C85.8155 8.81338 85.578 8.52098 85.4434 8.10529C85.0825 6.98624 84.7041 5.87193 84.2735 4.57586L84.2751 4.57428Z" fill="#4B5754"/>
<path d="M97.4968 18.7932C97.9069 19.8569 98.6794 20.2078 99.6736 19.8632C99.8208 19.8126 99.9633 19.7368 100.096 19.6546C100.546 19.3764 101.003 19.2515 101.318 19.7968C101.635 20.3469 101.26 20.6883 100.828 20.9443C99.5849 21.6777 98.3153 21.684 97.09 20.9427C95.9391 20.2457 95.5227 19.1346 95.6241 17.8385C95.7602 16.0967 97.0314 14.867 98.6857 14.818C100.323 14.7706 101.531 15.779 101.82 17.4323C101.985 18.3696 101.659 18.7821 100.72 18.7916C99.6688 18.8026 98.6177 18.7947 97.4937 18.7947L97.4968 18.7932ZM98.7348 17.603C98.8662 17.603 99.0024 17.6267 99.1258 17.5982C99.4282 17.5271 99.9316 17.8258 99.9997 17.3912C100.071 16.9439 99.7084 16.5788 99.2588 16.3923C98.8393 16.2168 98.4324 16.2642 98.0668 16.5203C97.758 16.7368 97.4478 17.0608 97.5301 17.4133C97.6187 17.7911 98.062 17.5398 98.3422 17.5982C98.4673 17.6235 98.6034 17.603 98.7332 17.603H98.7348Z" fill="#4B5754"/>
<path d="M70.5301 18.7972C70.0299 18.7972 69.5296 18.8067 69.0294 18.7956C68.6083 18.7861 68.6004 18.9774 68.7618 19.2808C69.0832 19.8846 69.9855 20.1486 70.7929 19.8562C70.9892 19.785 71.1681 19.6681 71.3533 19.5701C71.7459 19.363 72.1417 19.3377 72.3982 19.7424C72.6689 20.1675 72.4979 20.5358 72.1195 20.8361C70.9338 21.7766 68.8916 21.6738 67.7344 20.6101C66.707 19.6649 66.4236 17.9595 67.0695 16.6049C67.6822 15.3199 68.9106 14.6703 70.3781 14.8552C71.8045 15.0354 72.9142 16.2604 72.9586 17.7018C72.9823 18.4495 72.6974 18.7671 71.9501 18.794C71.4768 18.8114 71.0019 18.7972 70.5285 18.7972H70.5301ZM69.8795 17.607C70.0109 17.607 70.1486 17.6339 70.2705 17.6023C70.5665 17.5264 71.0652 17.8409 71.1285 17.3952C71.1855 16.9953 70.8531 16.6223 70.4399 16.4295C69.938 16.1971 69.4695 16.2619 69.0531 16.6239C68.8109 16.8357 68.5639 17.1218 68.6542 17.4268C68.7602 17.7825 69.1497 17.5517 69.4093 17.6023C69.5613 17.6323 69.7228 17.607 69.8795 17.607Z" fill="#4B5754"/>
<path d="M71.7088 30.9118C71.7088 31.4381 71.704 31.9644 71.7088 32.4892C71.7135 32.897 71.5615 33.202 71.1769 33.3711C70.7938 33.5403 70.3901 33.4913 70.1732 33.1704C69.8898 32.7516 69.7046 32.9776 69.4323 33.1325C68.541 33.6398 67.6165 33.6651 66.7221 33.1641C66.0334 32.7784 65.7849 32.1351 65.8292 31.3607C65.8814 30.4629 66.4197 29.8322 67.36 29.592C68.0898 29.4055 68.8276 29.4118 69.5494 29.6062C70.0101 29.7295 69.9864 29.5145 69.8819 29.2142C69.7109 28.7243 69.3009 28.5599 68.8371 28.4982C68.332 28.4318 67.8397 28.5472 67.3537 28.6674C66.8582 28.7906 66.4925 28.6215 66.3579 28.1521C66.2186 27.6684 66.4909 27.3476 66.9548 27.1974C67.979 26.8655 69.0191 26.7722 70.0639 27.071C71.028 27.3476 71.6059 28.0968 71.6819 29.1747C71.7214 29.75 71.6898 30.3317 71.6898 30.9102H71.7088V30.9118ZM68.9526 30.5719C68.1405 30.5561 67.5896 30.9039 67.6007 31.4239C67.6133 32.0324 68.055 32.2015 68.5616 32.23C69.3262 32.2726 69.9816 31.7763 69.9626 31.1678C69.9389 30.3981 69.2455 30.7774 68.9526 30.5719Z" fill="#4B5754"/>
<path d="M94.0096 30.8294C93.5093 30.8294 93.0091 30.842 92.5088 30.8262C92.1035 30.812 92.0608 30.9574 92.2365 31.2877C92.588 31.9532 93.5394 32.225 94.3959 31.8741C94.5652 31.8046 94.7188 31.6987 94.8787 31.607C95.2824 31.3747 95.6481 31.4094 95.9093 31.8077C96.1752 32.214 96.009 32.5506 95.6702 32.8414C94.1948 34.1091 91.5083 33.5906 90.6091 31.8299C90.0012 30.6397 90.0645 29.429 90.769 28.2989C91.4244 27.2462 92.4249 26.81 93.6581 26.8779C95.2048 26.9649 96.4776 28.2957 96.4713 29.8463C96.4681 30.4706 96.1752 30.8357 95.5088 30.8294C95.0085 30.8246 94.5082 30.8294 94.008 30.8294H94.0096ZM93.3668 29.6882C93.4982 29.6882 93.636 29.7166 93.7579 29.6819C94.0523 29.6013 94.5399 29.9316 94.6206 29.4606C94.6951 29.0354 94.3626 28.6798 93.9621 28.4791C93.4666 28.2293 92.9837 28.3036 92.5658 28.6498C92.3014 28.8695 92.0291 29.1856 92.1273 29.5175C92.2286 29.8605 92.6291 29.6345 92.8935 29.6819C93.0455 29.7103 93.207 29.6866 93.3653 29.6866L93.3668 29.6882Z" fill="#4B5754"/>
<path d="M85.0616 27.6984C85.603 27.1452 86.2046 26.8244 86.9787 26.8718C88.0219 26.9366 88.7976 27.5515 88.9306 28.5899C89.1016 29.9223 89.0098 31.269 88.9813 32.6093C88.9702 33.1325 88.5982 33.4375 88.0979 33.4423C87.5597 33.447 87.194 33.1356 87.1782 32.5682C87.1528 31.6752 87.1813 30.779 87.1623 29.886C87.1417 28.9629 86.7887 28.552 86.0652 28.5583C85.3449 28.5646 84.9903 28.9898 84.9777 29.897C84.9666 30.6857 84.9808 31.476 84.9729 32.2647C84.965 33.0266 84.5993 33.5039 84.0231 33.4502C83.3423 33.3869 83.1049 32.9333 83.108 32.2963C83.116 30.9813 83.116 29.6663 83.108 28.3512C83.1049 27.7822 83.0906 27.2085 83.7508 26.9714C84.422 26.7296 84.7465 27.21 85.06 27.7L85.0616 27.6984Z" fill="#4B5754"/>
<path d="M96.5764 3.18908C97.3426 2.56317 98.0328 2.17909 98.9083 2.32609C99.9879 2.50785 100.686 3.19224 100.757 4.36345C100.83 5.56943 100.789 6.78173 100.786 7.99245C100.786 8.45714 100.528 8.75903 100.069 8.77325C99.5573 8.78906 99.3025 8.4524 99.293 7.96558C99.274 7.07097 99.2914 6.17637 99.2819 5.28176C99.2708 4.17536 98.864 3.66167 98.0075 3.65219C97.1352 3.64113 96.6144 4.21487 96.5843 5.2786C96.559 6.14634 96.5685 7.01407 96.5812 7.88339C96.5891 8.41604 96.3754 8.78748 95.8229 8.77325C95.3226 8.76061 95.1137 8.40498 95.1152 7.9071C95.1216 5.56627 95.12 3.22385 95.1152 0.883023C95.1152 0.359852 95.3005 -0.00842251 95.8783 0.00422209C96.4181 0.0152861 96.578 0.386722 96.5764 0.865636C96.5748 1.59112 96.5764 2.3166 96.5764 3.1875V3.18908Z" fill="#4B5754"/>
<path d="M75.5358 8.86375C73.6345 8.87482 72.1797 7.49023 72.1623 5.6536C72.1449 3.77114 73.5839 2.31859 75.4931 2.2933C77.358 2.26801 78.8461 3.68737 78.8761 5.51767C78.9062 7.38433 77.4403 8.85269 75.5358 8.86375ZM75.5342 3.62889C74.415 3.6115 73.614 4.42234 73.6124 5.57458C73.6124 6.67466 74.4799 7.58032 75.5311 7.57874C76.5822 7.57874 77.3817 6.74578 77.3959 5.6378C77.4118 4.47924 76.6392 3.64627 75.5342 3.62889Z" fill="#4B5754"/>
<path d="M109.469 4.58381C109.469 5.71392 109.469 6.84561 109.469 7.97572C109.469 8.36296 109.45 8.78498 108.942 8.76601C108.51 8.7502 108.448 8.3677 108.449 7.99943C108.453 7.21072 108.43 6.42044 108.457 5.63331C108.473 5.18285 108.377 4.96631 107.856 4.98211C106.672 5.01847 105.484 5.0074 104.3 4.98686C103.852 4.97895 103.699 5.14491 103.711 5.58589C103.735 6.42676 103.716 7.2692 103.718 8.11007C103.718 8.46096 103.632 8.77707 103.22 8.76759C102.82 8.75811 102.727 8.44515 102.727 8.09426C102.728 5.72814 102.727 3.36044 102.728 0.994325C102.728 0.646599 102.834 0.338386 103.246 0.347869C103.673 0.357353 103.716 0.694016 103.716 1.0291C103.716 1.84467 103.733 2.66025 103.711 3.47425C103.7 3.90732 103.843 4.08593 104.297 4.07803C105.508 4.0559 106.721 4.05432 107.933 4.07803C108.373 4.08593 108.464 3.8931 108.454 3.5106C108.435 2.74876 108.445 1.98534 108.451 1.22351C108.454 0.826784 108.426 0.346289 108.991 0.355773C109.512 0.365256 109.466 0.826784 109.467 1.1919C109.472 2.32201 109.469 3.4537 109.469 4.58381Z" fill="#535E5B"/>
<path d="M88.1184 18.6791C88.1184 18.2334 88.1184 17.7861 88.1184 17.3403C88.1184 16.931 88.1769 16.5674 87.6355 16.3383C87.1353 16.1265 87.1653 15.3788 87.6688 15.1228C88.0028 14.9537 88.1089 14.7909 88.1326 14.4321C88.2308 12.9448 89.4133 12.1671 90.8508 12.6065C91.2529 12.7298 91.4951 12.9716 91.4571 13.4031C91.4238 13.7888 91.1895 14.018 90.8033 14.078C90.6481 14.1017 90.4835 14.0923 90.3363 14.1381C90.0481 14.2282 89.9278 14.4653 89.931 14.7482C89.9357 15.1481 90.2619 15.0074 90.4597 15.0074C90.9188 15.0043 91.3415 15.0833 91.4302 15.6001C91.5331 16.2007 91.1674 16.5105 90.6101 16.4853C89.9816 16.4552 89.9452 16.784 89.9563 17.2645C89.9785 18.2349 89.9642 19.207 89.9611 20.1791C89.9611 20.8176 89.8012 21.3487 89.0286 21.3771C88.4302 21.3977 88.1294 20.9883 88.1215 20.1759C88.1168 19.6764 88.1215 19.1785 88.1215 18.6791H88.1184Z" fill="#4B5754"/>
<path d="M79.5897 18.4182C79.5897 18.0246 79.5849 17.6311 79.5897 17.2375C79.5944 16.874 79.6229 16.5784 79.1464 16.3792C78.6066 16.1548 78.5876 15.3772 79.1021 15.1006C79.4899 14.8919 79.6245 14.6785 79.5976 14.2597C79.5596 13.6717 79.8493 13.2971 80.462 13.2671C81.0809 13.2386 81.415 13.6259 81.4181 14.1838C81.4229 14.7449 81.5527 14.982 82.1654 14.9425C82.6371 14.9125 82.9712 15.2191 82.9743 15.7201C82.9759 16.2212 82.6624 16.5357 82.1733 16.4883C81.4593 16.4188 81.4086 16.7997 81.4435 17.3387C81.472 17.7828 81.472 18.2317 81.4435 18.6758C81.4023 19.3428 81.4324 19.8865 82.3537 19.8328C82.6751 19.8138 82.9063 20.1078 82.9411 20.4698C82.9743 20.8238 82.8255 21.0688 82.5121 21.2379C81.1142 21.9887 79.634 21.1605 79.5928 19.5973C79.5818 19.2037 79.5928 18.8102 79.5913 18.4166L79.5897 18.4182Z" fill="#4B5754"/>
<path d="M78.4993 30.463C78.4993 30.0425 78.4914 29.6221 78.5009 29.2017C78.5088 28.8761 78.4756 28.6485 78.1147 28.4525C77.4941 28.1158 77.4909 27.3998 78.1178 27.0948C78.5104 26.9035 78.5025 26.6633 78.4993 26.3519C78.493 25.7307 78.7669 25.3166 79.4128 25.3087C80.0682 25.3008 80.3642 25.737 80.3373 26.3392C80.3135 26.8656 80.5035 27.0347 81.0133 26.9968C81.5452 26.9572 81.8998 27.2544 81.9014 27.7776C81.9014 28.3007 81.5262 28.6105 81.0148 28.5742C80.4228 28.5315 80.2961 28.7796 80.3436 29.2997C80.3832 29.7422 80.3658 30.1927 80.3484 30.6384C80.3215 31.3054 80.3025 31.9202 81.2729 31.8807C81.6037 31.8681 81.827 32.1589 81.8634 32.5177C81.8998 32.8702 81.7462 33.1215 81.4344 33.289C80.0143 34.0477 78.5278 33.1768 78.5025 31.5662C78.4962 31.1979 78.5025 30.8312 78.5025 30.463H78.4993Z" fill="#4B5754"/>
<path d="M126.265 5.80361C127.335 4.7794 128.326 3.83579 129.309 2.88429C129.563 2.6393 129.846 2.31528 130.174 2.62191C130.562 2.98228 130.19 3.27627 129.928 3.53548C129.499 3.96224 129.093 4.41586 128.626 4.79994C128.19 5.15716 128.242 5.42427 128.586 5.81467C129.159 6.46587 129.677 7.16448 130.215 7.84571C130.419 8.10493 130.609 8.40524 130.283 8.67235C129.955 8.94263 129.702 8.70555 129.492 8.44159C128.918 7.72085 128.337 7.00643 127.779 6.27462C127.576 6.01066 127.438 5.95851 127.166 6.2114C126.617 6.72034 126.078 7.19768 126.253 8.07015C126.317 8.39575 126.199 8.74506 125.793 8.76561C125.319 8.78932 125.277 8.41946 125.277 8.05435C125.277 5.6092 125.277 3.16405 125.277 0.718899C125.277 0.36327 125.293 -0.0255516 125.782 0.00131819C126.246 0.0250268 126.262 0.412267 126.262 0.766316C126.264 2.18567 126.262 3.60661 126.262 5.02597C126.262 5.27728 126.262 5.52859 126.262 5.80677L126.265 5.80361Z" fill="#535E5B"/>
<path d="M134.688 6.00537C134.134 6.00537 133.578 6.04014 133.027 5.99746C132.329 5.94372 132.357 6.26142 132.562 6.74666C133.084 7.98899 134.597 8.39994 135.84 7.64916C136.154 7.45949 136.516 6.86204 136.871 7.45001C137.168 7.94157 136.579 8.17708 136.25 8.37465C135.087 9.07326 133.891 9.07484 132.742 8.34304C131.681 7.66655 131.184 6.26774 131.474 4.929C131.756 3.62344 132.513 2.76045 133.846 2.47911C135.612 2.10609 137.325 3.6108 137.233 5.41265C137.21 5.8647 136.997 6.01169 136.587 6.00853C135.954 6.00221 135.321 6.00695 134.688 6.00853V6.00537ZM134.294 5.26724C134.792 5.26724 135.291 5.25459 135.788 5.27198C136.166 5.28463 136.302 5.19453 136.188 4.77884C135.945 3.88108 135.289 3.27888 134.428 3.23462C133.583 3.19194 132.76 3.81943 132.49 4.68243C132.349 5.13289 132.476 5.30675 132.956 5.27514C133.399 5.24511 133.847 5.26882 134.294 5.26882V5.26724Z" fill="#535E5B"/>
<path d="M115.616 7.97812C114.699 8.79053 113.683 9.07662 112.526 8.6957C111.693 8.42226 111.17 7.75368 111.142 6.96181C111.112 6.13359 111.618 5.41601 112.478 5.11412C113.322 4.81855 114.197 4.83278 115.051 5.02719C115.741 5.18367 115.763 4.91813 115.595 4.39022C115.372 3.6916 114.857 3.40236 114.177 3.33123C113.534 3.26327 112.923 3.3992 112.324 3.62838C112.087 3.71847 111.835 3.69793 111.736 3.41026C111.644 3.14473 111.767 2.94874 112.024 2.84758C113.162 2.39553 114.318 2.22957 115.465 2.78436C116.33 3.20163 116.58 4.00772 116.607 4.88652C116.635 5.88386 116.618 6.88436 116.615 7.88329C116.615 8.24207 116.699 8.69096 116.187 8.76208C115.646 8.83795 115.736 8.32743 115.617 7.97812H115.616ZM114.102 5.62465C113.649 5.63255 113.144 5.62939 112.7 5.89808C111.975 6.3359 111.946 7.32534 112.638 7.80268C113.48 8.38275 114.989 8.04608 115.494 7.16571C115.985 6.30903 115.734 5.79377 114.775 5.69103C114.566 5.6689 114.357 5.64993 114.102 5.62623V5.62465Z" fill="#535E5B"/>
<path d="M90.5296 5.68704C90.5296 5.23974 90.5264 4.79243 90.5296 4.34513C90.5327 4.00214 90.566 3.73661 90.072 3.61016C89.5512 3.4774 89.5306 2.7203 90.0436 2.53221C90.4963 2.36625 90.5612 2.126 90.5311 1.73086C90.49 1.18398 90.5929 0.673456 91.272 0.671875C91.9053 0.671875 92.0509 1.16501 91.9892 1.67396C91.9084 2.34728 92.225 2.48321 92.8013 2.42315C93.2176 2.38048 93.6403 2.45002 93.7195 2.94948C93.8081 3.50585 93.4409 3.74767 92.9533 3.67181C92.0873 3.53904 91.9227 3.94208 91.9907 4.68969C92.0477 5.3156 92.0113 5.95257 92.0002 6.58322C91.9907 7.18858 92.2124 7.54895 92.882 7.48731C93.292 7.44938 93.6451 7.55053 93.7036 8.0168C93.7622 8.48149 93.4313 8.63797 93.0387 8.74545C91.5206 9.15956 90.5406 8.43249 90.5264 6.86773C90.5232 6.47258 90.5264 6.07744 90.5264 5.68388L90.5296 5.68704Z" fill="#4B5754"/>
<path d="M76.201 15.7359C76.4147 15.5036 76.5936 15.2744 76.8073 15.0847C77.0891 14.835 77.4295 14.805 77.7699 14.952C78.1292 15.1069 78.2495 15.4182 78.2448 15.7881C78.24 16.1722 78.058 16.482 77.6955 16.5721C76.3989 16.8945 76.1472 17.8555 76.1472 18.9904C76.1472 19.4645 76.1535 19.9387 76.144 20.4113C76.133 20.9993 75.8496 21.3723 75.2385 21.3818C74.6686 21.3912 74.333 21.0498 74.3235 20.503C74.2966 18.924 74.3013 17.345 74.3203 15.7644C74.3267 15.295 74.5958 14.9646 75.0802 14.8903C75.7134 14.7939 76.019 15.1827 76.1994 15.7359H76.201Z" fill="#4B5754"/>
<path d="M99.7566 27.7726C100 27.5039 100.173 27.2241 100.423 27.0613C100.898 26.7531 101.36 26.8685 101.636 27.3569C101.905 27.8342 101.819 28.4096 101.298 28.555C99.7692 28.9833 99.6157 30.1071 99.6663 31.3953C99.6822 31.7888 99.6948 32.1871 99.6537 32.5775C99.5967 33.1213 99.2595 33.4658 98.7118 33.4453C98.1783 33.4263 97.8252 33.1023 97.8205 32.5333C97.8094 30.9812 97.8173 29.429 97.8157 27.8769C97.8157 27.3933 98.0516 27.0613 98.5091 26.9412C99.1503 26.7737 99.4637 27.2147 99.7582 27.7694L99.7566 27.7726Z" fill="#4B5754"/>
<path d="M75.1644 27.773C75.3924 27.5185 75.5507 27.2625 75.7771 27.106C76.2647 26.7694 76.7523 26.8215 77.0562 27.3573C77.3491 27.8742 77.224 28.4242 76.6525 28.5886C75.2974 28.9774 75.0552 29.9605 75.0805 31.1523C75.09 31.6249 75.0916 32.0991 75.0615 32.5701C75.0251 33.1312 74.6784 33.4583 74.137 33.4441C73.6004 33.4315 73.2537 33.1011 73.2489 32.5337C73.2378 30.9832 73.2442 29.4326 73.2426 27.8821C73.2426 27.3968 73.4832 27.0633 73.9344 26.9464C74.5597 26.7836 74.8795 27.2072 75.1644 27.773Z" fill="#4B5754"/>
<path d="M145.573 8.86379C144.877 8.83059 144.126 8.61406 143.447 8.17782C143.216 8.03082 143.017 7.83325 143.207 7.53136C143.39 7.24054 143.636 7.28479 143.886 7.45075C144.448 7.82061 145.067 8.05137 145.74 8.03872C146.286 8.02924 146.822 7.87751 146.943 7.23737C147.063 6.58776 146.556 6.37912 146.078 6.20368C145.537 6.00453 144.97 5.86702 144.438 5.64732C143.778 5.37388 143.362 4.88864 143.414 4.1268C143.465 3.36181 143.897 2.8576 144.598 2.60471C145.583 2.24908 146.515 2.49249 147.418 2.92557C147.66 3.04253 147.787 3.25117 147.674 3.5088C147.543 3.81069 147.302 3.83282 147.022 3.68424C146.503 3.40922 145.955 3.22746 145.36 3.27645C144.888 3.31597 144.457 3.47403 144.362 4.0051C144.267 4.54091 144.682 4.74165 145.079 4.90128C145.493 5.06725 145.926 5.18421 146.347 5.33278C147.571 5.76428 147.997 6.33012 147.848 7.30534C147.704 8.24894 146.864 8.8543 145.577 8.86379H145.573Z" fill="#535E5B"/>
<path d="M121.271 8.86439C119.904 8.85333 118.706 7.98559 118.277 6.69585C117.831 5.35552 118.298 3.86346 119.423 3.03208C120.531 2.21334 122.064 2.20386 123.188 3.02891C123.469 3.23597 123.908 3.44461 123.607 3.89349C123.294 4.36134 122.98 4.01203 122.683 3.80023C121.641 3.06053 120.452 3.1443 119.694 4.00255C118.92 4.87661 118.923 6.3987 119.7 7.26959C120.487 8.15313 121.72 8.2369 122.767 7.48455C123.026 7.29804 123.292 6.90448 123.621 7.32807C123.97 7.77538 123.509 7.98243 123.248 8.19897C122.679 8.67156 122.008 8.87704 121.271 8.86597V8.86439Z" fill="#535E5B"/>
<path d="M69.3639 3.36586C69.7612 2.88852 70.062 2.47441 70.5955 2.37326C71.0246 2.29107 71.4092 2.35903 71.5248 2.85533C71.6277 3.29631 71.4615 3.60927 71.0119 3.78313C69.6283 4.32052 69.3101 4.78521 69.299 6.2425C69.2942 6.82099 69.3085 7.40107 69.2911 7.97956C69.2752 8.47428 68.9998 8.78881 68.5011 8.77617C68.0373 8.76352 67.7935 8.44425 67.7919 7.98588C67.784 6.38001 67.7808 4.77573 67.795 3.16986C67.7998 2.73521 67.9961 2.39538 68.4916 2.37167C69.1264 2.34164 69.2467 2.81898 69.3639 3.36586Z" fill="#4B5754"/>
<path d="M92.4272 18.168C92.4272 17.4046 92.424 16.6427 92.4272 15.8793C92.4304 15.2961 92.6979 14.9088 93.3058 14.8804C93.9216 14.8519 94.2557 15.2376 94.2683 15.8019C94.3 17.354 94.3016 18.9061 94.2683 20.4582C94.2557 21.0225 93.92 21.4082 93.3042 21.3765C92.6995 21.3449 92.4256 20.9703 92.4272 20.3792C92.4272 19.6427 92.4272 18.9061 92.4272 18.1696V18.168Z" fill="#4B5754"/>
<path d="M86.1314 18.1902C86.1314 18.9252 86.1345 19.6618 86.1314 20.3967C86.1282 20.9831 85.8591 21.3672 85.2464 21.3814C84.6354 21.3956 84.3219 21.029 84.3156 20.4426C84.3013 18.8936 84.2997 17.3431 84.3187 15.7941C84.3251 15.2488 84.6306 14.8932 85.2005 14.8868C85.8084 14.8789 86.1156 15.2377 86.1266 15.8273C86.1409 16.6144 86.1298 17.4031 86.1314 18.1918V18.1902Z" fill="#4B5754"/>
<path d="M139.754 3.94807C140.319 3.15304 140.807 2.65042 141.559 2.49394C141.907 2.42124 142.209 2.4402 142.298 2.84799C142.376 3.20836 142.138 3.35378 141.829 3.45493C140.332 3.94491 139.8 4.65143 139.759 6.20829C139.741 6.86581 139.751 7.52333 139.756 8.18085C139.759 8.51435 139.648 8.77515 139.279 8.76408C138.921 8.75302 138.811 8.49223 138.811 8.15872C138.815 6.52757 138.812 4.89642 138.811 3.26526C138.811 2.91121 138.804 2.52555 139.295 2.52872C139.802 2.53188 139.749 2.93808 139.752 3.27949C139.752 3.42648 139.752 3.57506 139.752 3.94491L139.754 3.94807Z" fill="#535E5B"/>
<path d="M85.1692 14.3583C84.6721 14.2714 84.2114 14.1023 84.1956 13.459C84.1829 12.92 84.6452 12.5359 85.2752 12.5865C85.8293 12.6292 86.2473 12.8663 86.2409 13.5001C86.2362 13.9885 85.7517 14.3694 85.1692 14.3583Z" fill="#4B5754"/>
<path d="M94.3652 13.5454C94.3193 14.1096 93.8839 14.3135 93.3489 14.3436C92.76 14.3767 92.2724 13.9121 92.331 13.3984C92.4022 12.7804 92.8502 12.5891 93.3932 12.586C93.9868 12.5828 94.381 12.9653 94.3652 13.5469V13.5454Z" fill="#4B5754"/>
<path d="M0.0103213 15.1289C0.0388168 15.2506 0.0657293 15.3723 0.0942248 15.4956C-0.0118417 15.3913 -0.00867567 15.2617 0.0103213 15.1289Z" fill="#FBFBFB"/>
<path d="M39.8907 6.66016C40.1249 6.90515 40.0252 7.2102 40.0252 7.48838C40.0315 14.092 40.0315 20.6957 40.0284 27.3009C40.0284 29.8298 38.3155 31.7628 35.8079 32.0837C33.7546 32.3461 31.3262 30.5031 31.0159 28.4563C30.9019 27.7024 30.8592 26.9468 30.8592 26.1834C30.8687 19.9733 30.8623 13.7648 30.8702 7.55476C30.8702 7.25603 30.742 6.91779 31.0301 6.66332C31.1109 6.82454 31.1979 6.98101 31.2708 7.14539C32.4897 9.89085 35.7889 10.7617 38.2126 8.98834C39.0295 8.39089 39.4442 7.51841 39.8907 6.66174V6.66016Z" fill="#50C36B"/>
<path d="M28.9608 17.7164C29.2078 17.9551 29.1049 18.2633 29.1049 18.5399C29.1128 21.4071 29.1128 24.2758 29.108 27.143C29.1033 29.7857 27.536 31.7156 24.9493 32.0506C22.9071 32.3146 20.5927 30.9142 20.0892 28.458C19.961 27.8353 19.9309 27.2141 19.9325 26.5819C19.9404 23.9502 19.9325 21.3201 19.9404 18.6885C19.9404 18.4135 19.8296 18.1021 20.1003 17.8745C20.2206 18.0736 20.3536 18.2665 20.4581 18.4719C21.9161 21.3502 25.478 21.9002 27.7798 19.6289C28.3434 19.0726 28.5714 18.355 28.9608 17.7148V17.7164Z" fill="#31C379"/>
<path d="M39.8902 6.65802C39.4438 7.51469 39.029 8.38558 38.2122 8.98462C35.7885 10.758 32.4893 9.88713 31.2703 7.14167C31.1975 6.97729 31.1104 6.82081 31.0297 6.6596C30.8698 5.66383 30.8508 4.68072 31.2308 3.71973C32.0761 1.58437 34.3573 0.427393 36.6275 0.988497C38.79 1.52431 40.286 3.77663 39.9773 6.03527C39.9488 6.24232 39.9187 6.44938 39.8902 6.65644V6.65802Z" fill="#BCFD41"/>
<path d="M28.9597 17.7124C28.5703 18.3526 28.3423 19.0717 27.7788 19.6265C25.477 21.8978 21.915 21.3478 20.457 18.4695C20.3525 18.2625 20.2195 18.0712 20.0992 17.8721C19.7874 16.3026 19.9837 14.8374 21.0554 13.5824C22.2649 12.1646 23.8401 11.7252 25.6099 12.1172C27.4067 12.5155 28.697 14.0028 28.9787 15.6861C29.0943 16.3769 29.0326 17.0375 28.9597 17.7124Z" fill="#65FD66"/>
<path d="M13.5469 23.0682C16.1004 23.073 18.0413 25.0155 18.0365 27.5618C18.0302 30.0449 15.9944 32.0838 13.5216 32.0838C10.9902 32.0838 9.0478 30.0591 8.98923 27.497C8.9354 25.1324 11.185 22.858 13.5485 23.0682H13.5469Z" fill="#46DBD4"/>
</svg>
