<svg width="26" height="26" viewBox="0 0 26 26" fill="none" xmlns="http://www.w3.org/2000/svg">
<rect width="26" height="26" rx="13" fill="#A871FF"/>
<path d="M13.0022 6.6052C15.0864 6.6052 15.3311 6.61449 16.1548 6.65165C16.9167 6.68572 17.3285 6.81269 17.6042 6.92108C17.9696 7.06354 18.2297 7.23077 18.5023 7.50329C18.7748 7.77582 18.9451 8.03596 19.0845 8.40139C19.1898 8.67701 19.3198 9.08889 19.3539 9.85073C19.3911 10.6745 19.4004 10.9191 19.4004 13.0033C19.4004 15.0875 19.3911 15.3322 19.3539 16.156C19.3198 16.9178 19.1929 17.3297 19.0845 17.6053C18.942 17.9707 18.7748 18.2309 18.5023 18.5034C18.2297 18.7759 17.9696 18.9463 17.6042 19.0856C17.3285 19.1909 16.9167 19.321 16.1548 19.355C15.3311 19.3922 15.0864 19.4015 13.0022 19.4015C10.918 19.4015 10.6734 19.3922 9.84959 19.355C9.08775 19.321 8.67587 19.194 8.40025 19.0856C8.03482 18.9432 7.77468 18.7759 7.50215 18.5034C7.22963 18.2309 7.0593 17.9707 6.91994 17.6053C6.81465 17.3297 6.68458 16.9178 6.65051 16.156C6.61335 15.3322 6.60406 15.0875 6.60406 13.0033C6.60406 10.9191 6.61335 10.6745 6.65051 9.85073C6.68458 9.08889 6.81155 8.67701 6.91994 8.40139C7.0624 8.03596 7.22963 7.77582 7.50215 7.50329C7.77468 7.23077 8.03482 7.06044 8.40025 6.92108C8.67587 6.81579 9.08775 6.68572 9.84959 6.65165C10.6734 6.61139 10.9211 6.6052 13.0022 6.6052ZM13.0022 5.19922C10.8839 5.19922 10.6176 5.20851 9.78455 5.24567C8.95459 5.28283 8.38786 5.416 7.89236 5.60801C7.37828 5.80621 6.94471 6.07563 6.51115 6.5092C6.07759 6.94276 5.81126 7.37942 5.60996 7.8904C5.41795 8.3859 5.28479 8.95263 5.24763 9.78569C5.21046 10.6157 5.20117 10.882 5.20117 13.0002C5.20117 15.1185 5.21046 15.3848 5.24763 16.2179C5.28479 17.0479 5.41795 17.6146 5.60996 18.1132C5.80816 18.6273 6.07759 19.0608 6.51115 19.4944C6.94471 19.928 7.38137 20.1943 7.89236 20.3956C8.38786 20.5876 8.95459 20.7208 9.78765 20.7579C10.6207 20.7951 10.8839 20.8044 13.0053 20.8044C15.1267 20.8044 15.3899 20.7951 16.223 20.7579C17.0529 20.7208 17.6197 20.5876 18.1183 20.3956C18.6323 20.1974 19.0659 19.928 19.4995 19.4944C19.933 19.0608 20.1994 18.6242 20.4007 18.1132C20.5927 17.6177 20.7258 17.051 20.763 16.2179C20.8001 15.3848 20.8094 15.1216 20.8094 13.0002C20.8094 10.8789 20.8001 10.6157 20.763 9.7826C20.7258 8.95263 20.5927 8.3859 20.4007 7.88731C20.2025 7.37323 19.933 6.93966 19.4995 6.5061C19.0659 6.07254 18.6292 5.80621 18.1183 5.60491C17.6228 5.4129 17.056 5.27974 16.223 5.24258C15.3868 5.20851 15.1205 5.19922 13.0022 5.19922Z" fill="#0E054D"/>
<path d="M13.0022 6.6052C15.0864 6.6052 15.3311 6.61449 16.1548 6.65165C16.9167 6.68572 17.3285 6.81269 17.6042 6.92108C17.9696 7.06354 18.2297 7.23077 18.5023 7.50329C18.7748 7.77582 18.9451 8.03596 19.0845 8.40139C19.1898 8.67701 19.3198 9.08889 19.3539 9.85073C19.3911 10.6745 19.4004 10.9191 19.4004 13.0033C19.4004 15.0875 19.3911 15.3322 19.3539 16.156C19.3198 16.9178 19.1929 17.3297 19.0845 17.6053C18.942 17.9707 18.7748 18.2309 18.5023 18.5034C18.2297 18.7759 17.9696 18.9463 17.6042 19.0856C17.3285 19.1909 16.9167 19.321 16.1548 19.355C15.3311 19.3922 15.0864 19.4015 13.0022 19.4015C10.918 19.4015 10.6734 19.3922 9.84959 19.355C9.08775 19.321 8.67587 19.194 8.40025 19.0856C8.03482 18.9432 7.77468 18.7759 7.50215 18.5034C7.22963 18.2309 7.0593 17.9707 6.91994 17.6053C6.81465 17.3297 6.68458 16.9178 6.65051 16.156C6.61335 15.3322 6.60406 15.0875 6.60406 13.0033C6.60406 10.9191 6.61335 10.6745 6.65051 9.85073C6.68458 9.08889 6.81155 8.67701 6.91994 8.40139C7.0624 8.03596 7.22963 7.77582 7.50215 7.50329C7.77468 7.23077 8.03482 7.06044 8.40025 6.92108C8.67587 6.81579 9.08775 6.68572 9.84959 6.65165C10.6734 6.61139 10.9211 6.6052 13.0022 6.6052Z" fill="#0E054D"/>
<path d="M13.0015 8.99609C10.7903 8.99609 8.99414 10.7892 8.99414 13.0035C8.99414 15.2177 10.7872 17.0108 13.0015 17.0108C15.2158 17.0108 17.0089 15.2177 17.0089 13.0035C17.0089 10.7892 15.2158 8.99609 13.0015 8.99609ZM13.0015 15.6017C11.5645 15.6017 10.4001 14.4373 10.4001 13.0004C10.4001 11.5634 11.5645 10.399 13.0015 10.399C14.4384 10.399 15.6029 11.5634 15.6029 13.0004C15.6029 14.4373 14.4384 15.6017 13.0015 15.6017Z" fill="#A871FF"/>
<path d="M17.1677 9.77286C17.6842 9.77286 18.1029 9.35413 18.1029 8.8376C18.1029 8.32107 17.6842 7.90234 17.1677 7.90234C16.6512 7.90234 16.2324 8.32107 16.2324 8.8376C16.2324 9.35413 16.6512 9.77286 17.1677 9.77286Z" fill="#A871FF"/>
</svg>
