<svg width="175" height="18" viewBox="0 0 175 18" fill="none" xmlns="http://www.w3.org/2000/svg">
<path d="M69.0314 16.7853C68.0982 16.7948 67.1724 16.6177 66.3074 16.2642C65.4424 15.9107 64.6554 15.3878 63.9917 14.7257C63.3281 14.0636 62.801 13.2754 62.4409 12.4067C62.0808 11.5379 61.8948 10.6058 61.8937 9.66409C61.8771 8.72172 62.046 7.7854 62.3903 6.90927C62.7347 6.03313 63.2478 5.23459 63.8999 4.55981C64.5521 3.88503 65.3304 3.3474 66.1897 2.97804C67.0491 2.60867 67.9725 2.41489 68.9066 2.40789C69.8541 2.38739 70.796 2.55893 71.6767 2.91237C72.5573 3.2658 73.3587 3.79394 74.0334 4.46551C74.7081 5.13708 75.2424 5.93842 75.6047 6.8221C75.967 7.70577 76.1498 8.65381 76.1425 9.61008C76.146 10.5533 75.9645 11.488 75.6084 12.3601C75.2522 13.2323 74.7286 14.0247 74.0676 14.6917C73.4066 15.3586 72.6212 15.887 71.7569 16.2463C70.8926 16.6057 69.9663 16.7888 69.0314 16.7853ZM69.0314 5.17173C68.4461 5.15082 67.8626 5.25054 67.3167 5.4648C66.7708 5.67906 66.274 6.00337 65.8565 6.4179C65.4389 6.83244 65.1095 7.32851 64.8884 7.87581C64.6673 8.42311 64.5591 9.01015 64.5703 9.60107C64.5584 10.7647 65.0046 11.8856 65.8109 12.7177C66.6171 13.5498 67.7176 14.0252 68.8709 14.0394C70.054 14.0394 71.1887 13.5652 72.0253 12.721C72.8619 11.8768 73.3319 10.7319 73.3319 9.53805C73.3186 8.39659 72.8681 7.30461 72.0748 6.49073C71.2815 5.67685 70.207 5.2042 69.0761 5.17173H69.0314Z" fill="black"/>
<path d="M145.701 10.062C145.701 11.9615 145.567 13.8701 145.647 15.7607C145.701 17.1111 144.862 16.805 144.13 16.841C143.399 16.877 142.774 16.913 142.792 15.7607C142.863 11.7275 142.792 7.65822 142.792 3.66101C142.792 3.30991 142.578 2.82376 143.095 2.6527C143.613 2.48165 143.791 2.90478 144.041 3.20187C146.066 5.56959 148.092 7.95531 150.438 10.7191C150.438 8.41445 150.438 6.51487 150.438 4.6153C150.438 3.634 150.287 2.81475 151.812 2.81475C153.195 2.81475 153.302 3.36392 153.285 4.48926C153.222 8.18038 153.284 11.8805 153.24 15.5716C153.24 16.0668 153.624 16.805 152.901 17.0301C152.178 17.2551 152.009 16.5169 151.625 16.1298C149.716 14.0141 147.833 11.8805 145.933 9.74686C145.799 9.65683 145.647 9.5578 145.54 9.74686C145.549 9.85489 145.656 9.96292 145.701 10.062Z" fill="black"/>
<path d="M130.007 16.7063C126.973 17.0034 126.973 17.0034 125.733 14.6267C125.296 13.7894 124.841 12.9612 124.43 12.1059C124.343 11.8986 124.182 11.7318 123.979 11.6385C123.776 11.5451 123.545 11.532 123.333 11.6018C122.753 11.6918 122.896 12.1689 122.896 12.502C122.824 13.5091 122.824 14.5199 122.896 15.527C123.056 16.8324 122.343 16.8324 121.415 16.8234C120.487 16.8144 119.978 16.8234 120.005 15.626C120.094 11.7548 120.067 7.88364 120.005 4.01246C120.005 3.11219 120.264 2.8421 121.138 2.87811C122.583 2.94113 124.038 2.87811 125.492 2.87811C126.334 2.84951 127.162 3.09735 127.852 3.58439C128.542 4.07142 129.057 4.77133 129.32 5.57894C129.663 6.44776 129.707 7.40816 129.443 8.30498C129.179 9.20181 128.623 9.98268 127.865 10.5214C126.884 11.1156 127.053 11.5207 127.526 12.322C128.41 13.7264 129.168 15.1668 130.007 16.7063ZM124.457 5.786C123.565 5.69597 122.673 5.63296 122.86 7.07339C122.985 7.97367 122.628 9.00898 124.216 8.87394C125.385 8.7569 126.616 8.87394 126.616 7.27145C126.616 5.89404 125.599 5.67797 124.457 5.786Z" fill="black"/>
<path d="M174.778 16.6619C172.503 17.2651 171.137 16.6619 170.477 14.5463C170.13 13.7257 169.724 12.9314 169.264 12.1696C169.166 11.9344 168.984 11.7451 168.754 11.6399C168.524 11.5346 168.263 11.5212 168.024 11.6024C167.435 11.7194 167.667 12.2146 167.658 12.5567C167.586 13.5637 167.586 14.5746 167.658 15.5816C167.818 16.896 167.069 16.815 166.168 16.86C165.267 16.905 164.821 16.6529 164.838 15.5726C164.91 11.7735 164.892 7.9653 164.838 4.15714C164.838 3.25687 164.981 2.83374 166.007 2.89675C167.444 2.98678 168.898 2.89675 170.343 2.89675C171.214 2.87379 172.066 3.14605 172.765 3.66998C173.464 4.19391 173.968 4.93921 174.198 5.78663C174.491 6.64357 174.499 7.57338 174.223 8.43573C173.946 9.29808 173.398 10.0462 172.663 10.5671C171.833 11.0892 171.771 11.4674 172.28 12.2146C173.163 13.655 173.921 15.1315 174.778 16.6619ZM169.157 5.79564C168.265 5.64259 167.453 5.62458 167.613 7.12804C167.72 8.09133 167.479 9.00961 169.005 8.83856C170.129 8.71252 171.369 8.89257 171.387 7.28108C171.414 5.90366 170.433 5.69661 169.157 5.79564Z" fill="black"/>
<path d="M3.36445 7.7939C4.25667 6.36247 5.0418 4.90403 5.96078 3.50861C6.87977 2.11319 8.20919 3.18451 9.65459 2.73438C8.22704 4.98506 6.97794 6.96565 5.70206 8.87423C5.48253 9.11106 5.3604 9.42322 5.3604 9.7475C5.3604 10.0718 5.48253 10.3839 5.70206 10.6208C7.09392 12.5563 8.37871 14.5369 9.81518 16.5716C7.6917 17.0667 6.04108 16.8686 5.06856 14.708C4.52979 13.6771 3.79984 12.7602 2.91834 12.0072C2.91834 13.2315 2.83804 14.4649 2.91834 15.6893C2.99864 16.9137 2.19565 16.7786 1.42834 16.7966C0.661033 16.8146 -0.0260096 16.8867 0.000757005 15.6353C0.0959272 11.7701 0.0959272 7.90194 0.000757005 4.03077C0.000757005 2.73438 0.68778 2.91443 1.46401 2.89642C2.24024 2.87842 2.95404 2.79739 2.9362 4.04877C2.91835 5.30015 2.55254 6.74959 3.15925 7.98296H3.29305L3.36445 7.7939Z" fill="black"/>
<path d="M101.625 2.92433C102.232 2.92433 102.847 2.92433 103.463 2.92433C104.038 2.88115 104.616 2.96385 105.157 3.16677C105.697 3.3697 106.188 3.68807 106.596 4.1001C107.003 4.51213 107.318 5.00811 107.518 5.55411C107.718 6.10011 107.798 6.68325 107.754 7.26365C107.795 7.84017 107.713 8.41883 107.513 8.96059C107.314 9.50235 107.001 9.99461 106.597 10.4042C106.193 10.8137 105.706 11.1311 105.17 11.3347C104.634 11.5384 104.061 11.6238 103.49 11.585C103.1 11.612 102.71 11.612 102.321 11.585C101.429 11.4769 100.991 11.765 101.09 12.7643C101.188 13.7636 101.036 14.5649 101.09 15.4651C101.197 16.5275 100.911 16.9326 99.7512 16.9146C98.5913 16.8966 98.2344 16.6625 98.2611 15.4381C98.3504 11.837 98.3504 8.23595 98.2611 4.69787C98.2611 3.34746 98.5288 2.71727 99.9653 2.89732C100.517 2.94649 101.072 2.95551 101.625 2.92433ZM102.517 8.79411C103.748 8.90214 104.819 8.71309 104.828 7.28165C104.837 5.85022 103.713 5.82321 102.597 5.74218C101.482 5.66116 100.991 6.01227 101.027 7.29066C101.063 8.56905 101.286 9.06419 102.508 8.79411H102.517Z" fill="black"/>
<path d="M21.0117 16.8487C23.0103 11.8702 24.9107 7.15279 27.0074 1.94922L32.9853 16.7677C31.6023 16.4796 30.0766 17.668 29.2736 15.5703C28.9881 14.8231 24.9553 15.3723 24.4824 16.1015C23.5902 17.4879 22.3144 16.4616 21.0117 16.8487ZM28.2565 12.5724L27.0342 9.24142L25.8565 12.5724H28.2565Z" fill="black"/>
<path d="M155.764 9.7897C155.764 7.98915 155.844 6.08958 155.764 4.25303C155.701 3.09168 156.13 2.82159 157.182 2.89361C158.449 2.98364 159.734 2.89361 161.019 2.89361C162.616 2.89361 163.187 3.72186 162.705 5.27033C162.571 5.69346 162.322 5.75648 161.965 5.74748C161.358 5.74748 160.742 5.74748 160.127 5.74748C159.154 5.67546 158.547 5.74748 158.503 7.07088C158.458 8.58334 159.199 8.43929 160.198 8.53832C160.912 8.60134 162.125 7.71908 162.259 9.51962C162.384 11.1221 161.768 11.4102 160.394 11.3202C159.609 11.2571 158.485 10.771 158.521 12.4995C158.521 13.7689 158.86 14.219 160.1 14.021C160.486 13.9894 160.874 13.9894 161.26 14.021C162.83 14.021 163.437 14.9213 162.946 16.3977C162.768 16.9469 162.375 16.8298 162.054 16.8388C160.269 16.8388 158.485 16.8388 156.701 16.8388C155.898 16.8388 155.808 16.4877 155.808 15.8215C155.782 13.8139 155.764 11.8063 155.764 9.7897Z" fill="black"/>
<path d="M112.892 2.4375L118.709 16.8419C117.335 16.4818 115.935 17.6251 114.953 15.6535C114.525 14.7532 113.106 15.4194 112.134 15.3384C111.161 15.2574 110.349 15.0863 110.055 16.3737C109.975 16.7338 107.378 17.0129 107.084 16.7518C106.789 16.4908 106.977 16.2567 107.084 15.9956L112.491 2.64457C112.517 2.59955 112.669 2.56354 112.892 2.4375ZM112.749 9.22556L111.518 12.6466H113.758C113.695 11.5213 113.106 10.594 112.749 9.22556Z" fill="black"/>
<path d="M30.9336 3.03798C31.0207 2.99948 31.1101 2.96641 31.2012 2.93895C33.985 2.74989 33.985 2.74989 34.9307 5.35168C35.5196 6.97217 36.1263 8.57466 36.8401 10.4922L38.6245 5.4147C39.5792 2.7679 39.5792 2.7679 42.702 2.98396L36.8133 17.6764C34.7523 12.5269 32.8073 7.78242 30.9336 3.03798Z" fill="black"/>
<path d="M49.7598 3.10897C53.8907 1.61452 54.0781 5.47669 55.809 7.52932C56.2903 6.83653 56.714 6.10482 57.076 5.34165C57.8879 3.16299 59.3779 2.37975 61.8582 3.08196C61.2249 4.20096 60.5339 5.28577 59.7883 6.33195C58.7203 7.54594 57.9275 8.98036 57.4652 10.5352C57.0029 12.0901 56.8822 13.728 57.1116 15.3347C57.2901 16.487 56.8708 16.8201 55.6841 16.8381C54.4975 16.8561 54.1584 16.37 54.319 15.2897C54.5598 13.6868 54.4498 12.0502 53.9966 10.4949C53.5434 8.93953 52.7581 7.50323 51.6959 6.28693C50.9843 5.27013 50.3377 4.20866 49.7598 3.10897Z" fill="black"/>
<path d="M137.394 11.3031C137.394 12.8155 137.322 14.337 137.394 15.8044C137.465 17.0648 136.644 16.7947 135.975 16.7857C135.306 16.7767 134.494 17.1098 134.521 15.8314C134.592 13.0316 134.459 10.2227 134.583 7.43189C134.646 5.98245 134.173 5.47829 132.799 5.74838C131.193 6.06347 130.952 5.25323 131.015 3.88481C131.068 3.03855 131.354 2.8585 132.112 2.8675C134.619 2.8675 137.135 2.94853 139.633 2.8675C140.945 2.8675 140.677 3.61473 140.731 4.37096C140.784 5.12719 140.731 5.8204 139.544 5.79339C137.314 5.79339 137.314 5.79339 137.314 8.08909L137.394 11.3031Z" fill="black"/>
<path d="M87.3849 16.8311C85.9217 17.1192 85.6005 16.669 86.0288 15.1476C87.3671 10.4842 88.6252 5.78474 89.7494 1.06731C90.0973 -0.39113 90.7932 -0.0130204 91.6409 0.239056C92.4885 0.491133 93.5056 0.419113 93.0506 1.98559C91.7479 6.48695 90.5791 10.9883 89.4817 15.5797C89.1427 16.8311 88.4467 17.0111 87.3849 16.8311Z" fill="#00AF1C"/>
<path d="M11.8762 9.76355C11.8762 7.85497 11.9654 5.94639 11.8762 4.05582C11.8048 2.80444 12.4918 2.86746 13.3216 2.88546C14.1513 2.90347 14.8294 2.72342 14.7759 4.01981C14.6688 6.86467 14.7759 9.72754 14.6867 12.5814C14.6867 13.6167 14.8562 14.1749 16.034 13.9948C16.5158 13.9138 17.0422 14.0488 17.5329 13.9948C18.9694 13.7338 19.1567 14.472 19.121 15.6873C19.121 16.5876 18.8623 16.8577 17.9969 16.8217C16.3284 16.7677 14.651 16.7677 12.9826 16.8217C12.0904 16.8217 11.8584 16.5066 11.8851 15.6513C11.9208 13.6797 11.8762 11.7622 11.8762 9.76355Z" fill="black"/>
<path d="M82.4599 16.823C80.961 17.1201 80.5952 16.697 81.0502 15.1575C82.1744 11.3583 83.1737 7.51417 84.1016 3.652C84.4228 2.31959 85.0563 2.46364 86.0288 2.75172C87.0013 3.03981 87.8132 3.07582 87.4117 4.55227C86.3589 8.09334 85.4072 11.6584 84.5566 15.2475C84.2532 16.5259 83.7804 17.1651 82.4599 16.823Z" fill="#00AF1C"/>
<path d="M47.6183 9.88152C47.6183 11.8441 47.5469 13.8157 47.6183 15.7693C47.6718 16.8586 47.1008 16.8676 46.3959 16.7686C45.6911 16.6696 44.7275 17.2908 44.7364 15.8683C44.7364 11.8351 44.7364 7.76587 44.7364 3.75065C44.7364 2.42725 45.7 2.99442 46.2978 2.9314C46.8956 2.86838 47.6451 2.69733 47.6005 3.83168C47.5648 5.83929 47.6183 7.86491 47.6183 9.88152Z" fill="black"/>
<path d="M3.36434 7.79297V7.92803H3.23047C3.2343 7.89354 3.24966 7.86139 3.27398 7.83685C3.2983 7.81231 3.33016 7.79684 3.36434 7.79297Z" fill="black"/>
</svg>
