<svg width="176" height="19" viewBox="0 0 176 19" fill="none" xmlns="http://www.w3.org/2000/svg">
<path d="M69.5451 17.2501C68.6119 17.2596 67.6861 17.0825 66.8211 16.729C65.9561 16.3755 65.169 15.8526 64.5054 15.1905C63.8418 14.5284 63.3147 13.7403 62.9546 12.8715C62.5945 12.0027 62.4085 11.0706 62.4074 10.1289C62.3908 9.18657 62.5596 8.25024 62.904 7.37411C63.2484 6.49798 63.7614 5.69943 64.4136 5.02465C65.0657 4.34987 65.844 3.81225 66.7034 3.44288C67.5628 3.07351 68.4862 2.87973 69.4202 2.87274C70.3678 2.85223 71.3097 3.02378 72.1904 3.37721C73.071 3.73064 73.8724 4.25878 74.5471 4.93035C75.2218 5.60192 75.7561 6.40326 76.1184 7.28694C76.4806 8.17062 76.6635 9.11866 76.6561 10.0749C76.6597 11.0182 76.4781 11.9528 76.122 12.825C75.7659 13.6971 75.2423 14.4895 74.5813 15.1565C73.9203 15.8235 73.1349 16.3519 72.2706 16.7112C71.4062 17.0705 70.4799 17.2537 69.5451 17.2501ZM69.5451 5.63657C68.9597 5.61566 68.3763 5.71538 67.8304 5.92964C67.2845 6.1439 66.7876 6.46821 66.3701 6.88275C65.9526 7.29729 65.6232 7.79336 65.4021 8.34066C65.181 8.88796 65.0727 9.47499 65.084 10.0659C65.0721 11.2296 65.5183 12.3505 66.3245 13.1826C67.1308 14.0147 68.2313 14.49 69.3845 14.5043C70.5677 14.5043 71.7024 14.03 72.539 13.1858C73.3756 12.3417 73.8456 11.1967 73.8456 10.0029C73.8323 8.86144 73.3818 7.76945 72.5885 6.95557C71.7952 6.1417 70.7206 5.66904 69.5898 5.63657H69.5451Z" fill="white"/>
<path d="M146.214 10.5268C146.214 12.4264 146.08 14.335 146.161 16.2255C146.214 17.5759 145.376 17.2698 144.644 17.3058C143.912 17.3419 143.288 17.3779 143.306 16.2255C143.377 12.1923 143.306 8.12307 143.306 4.12586C143.306 3.77475 143.091 3.2886 143.609 3.11755C144.126 2.9465 144.305 3.36962 144.555 3.66671C146.58 6.03443 148.605 8.42015 150.952 11.184C150.952 8.87929 150.952 6.97972 150.952 5.08014C150.952 4.09884 150.8 3.2796 152.326 3.2796C153.709 3.2796 153.816 3.82876 153.798 4.9541C153.736 8.64522 153.798 12.3453 153.754 16.0365C153.754 16.5316 154.137 17.2698 153.414 17.4949C152.692 17.72 152.522 16.9817 152.139 16.5946C150.229 14.479 148.347 12.3453 146.446 10.2117C146.312 10.1217 146.161 10.0226 146.054 10.2117C146.063 10.3197 146.17 10.4278 146.214 10.5268Z" fill="white"/>
<path d="M130.52 17.1712C127.487 17.4683 127.487 17.4683 126.247 15.0915C125.809 14.2543 125.354 13.426 124.944 12.5708C124.857 12.3634 124.696 12.1967 124.492 12.1033C124.289 12.01 124.059 11.9969 123.847 12.0666C123.267 12.1566 123.409 12.6338 123.409 12.9669C123.338 13.9739 123.338 14.9848 123.409 15.9918C123.57 17.2972 122.856 17.2972 121.928 17.2882C121 17.2792 120.492 17.2882 120.519 16.0908C120.608 12.2197 120.581 8.34848 120.519 4.4773C120.519 3.57703 120.777 3.30695 121.652 3.34296C123.097 3.40598 124.551 3.34296 126.006 3.34296C126.847 3.31436 127.676 3.5622 128.366 4.04923C129.056 4.53626 129.571 5.23617 129.833 6.04378C130.177 6.91261 130.221 7.87301 129.957 8.76983C129.693 9.66665 129.137 10.4475 128.379 10.9863C127.398 11.5805 127.567 11.9856 128.04 12.7868C128.923 14.1913 129.682 15.6317 130.52 17.1712ZM124.971 6.25084C124.079 6.16082 123.186 6.0978 123.374 7.53824C123.499 8.43851 123.142 9.47382 124.73 9.33878C125.899 9.22175 127.13 9.33878 127.13 7.7363C127.13 6.35888 126.113 6.14281 124.971 6.25084Z" fill="white"/>
<path d="M175.291 17.1268C173.016 17.73 171.651 17.1268 170.991 15.0111C170.644 14.1905 170.238 13.3962 169.778 12.6344C169.68 12.3992 169.498 12.2099 169.268 12.1047C169.038 11.9995 168.777 11.9861 168.537 12.0672C167.948 12.1843 168.18 12.6794 168.172 13.0215C168.1 14.0286 168.1 15.0394 168.172 16.0465C168.332 17.3609 167.583 17.2798 166.681 17.3248C165.78 17.3699 165.334 17.1178 165.352 16.0375C165.423 12.2383 165.406 8.43014 165.352 4.62198C165.352 3.72171 165.495 3.29858 166.521 3.3616C167.957 3.45163 169.412 3.3616 170.857 3.3616C171.727 3.33863 172.58 3.6109 173.279 4.13482C173.978 4.65875 174.482 5.40406 174.711 6.25148C175.004 7.10841 175.013 8.03822 174.736 8.90057C174.459 9.76292 173.912 10.511 173.177 11.0319C172.347 11.5541 172.285 11.9322 172.793 12.6794C173.677 14.1199 174.435 15.5963 175.291 17.1268ZM169.67 6.26048C168.778 6.10743 167.966 6.08943 168.127 7.59288C168.234 8.55618 167.993 9.47446 169.519 9.3034C170.643 9.17737 171.883 9.35742 171.901 7.74593C171.928 6.36851 170.946 6.16145 169.67 6.26048Z" fill="white"/>
<path d="M3.87812 8.25875C4.77034 6.82731 5.55547 5.36888 6.47446 3.97345C7.39344 2.57803 8.72287 3.64935 10.1683 3.19922C8.74071 5.4499 7.49161 7.4305 6.21573 9.33908C5.9962 9.5759 5.87407 9.88806 5.87407 10.2123C5.87407 10.5366 5.9962 10.8488 6.21573 11.0856C7.6076 13.0212 8.89238 15.0018 10.3289 17.0364C8.20537 17.5316 6.55476 17.3335 5.58224 15.1728C5.04346 14.142 4.31352 13.2251 3.43201 12.472C3.43201 13.6964 3.35171 14.9298 3.43201 16.1541C3.51231 17.3785 2.70932 17.2435 1.94201 17.2615C1.1747 17.2795 0.487662 17.3515 0.514429 16.1001C0.609599 12.235 0.609599 8.36678 0.514429 4.49561C0.514429 3.19922 1.20145 3.37927 1.97768 3.36127C2.75392 3.34326 3.46771 3.26224 3.44987 4.51362C3.43203 5.76499 3.06622 7.21444 3.67292 8.44781H3.80673L3.87812 8.25875Z" fill="white"/>
<path d="M102.139 3.38527C102.745 3.38527 103.361 3.38527 103.976 3.38527C104.552 3.34209 105.13 3.42478 105.67 3.62771C106.211 3.83064 106.702 4.14901 107.109 4.56104C107.517 4.97307 107.831 5.46905 108.031 6.01505C108.231 6.56105 108.312 7.14419 108.268 7.72459C108.309 8.30111 108.227 8.87977 108.027 9.42153C107.827 9.96329 107.515 10.4555 107.111 10.8651C106.707 11.2747 106.22 11.592 105.684 11.7957C105.148 11.9994 104.575 12.0847 104.003 12.0459C103.614 12.073 103.224 12.073 102.834 12.0459C101.942 11.9379 101.505 12.226 101.603 13.2253C101.701 14.2246 101.55 15.0258 101.603 15.9261C101.71 16.9884 101.425 17.3935 100.265 17.3755C99.105 17.3575 98.7481 17.1234 98.7748 15.8991C98.864 12.298 98.864 8.69688 98.7748 5.15881C98.7748 3.8084 99.0425 3.1782 100.479 3.35826C101.031 3.40742 101.585 3.41645 102.139 3.38527ZM103.031 9.25505C104.262 9.36308 105.333 9.17402 105.342 7.74259C105.35 6.31115 104.226 6.28415 103.111 6.20312C101.996 6.1221 101.505 6.4732 101.541 7.75159C101.576 9.02998 101.799 9.52513 103.022 9.25505H103.031Z" fill="white"/>
<path d="M21.5254 17.3136C23.524 12.3351 25.4244 7.61763 27.5211 2.41406L33.499 17.2325C32.116 16.9445 30.5903 18.1328 29.7873 16.0352C29.5018 15.288 25.469 15.8371 24.9961 16.5663C24.1039 17.9528 22.828 16.9264 21.5254 17.3136ZM28.7702 13.0373L27.5479 9.70626L26.3701 13.0373H28.7702Z" fill="white"/>
<path d="M156.277 10.2545C156.277 8.454 156.358 6.55443 156.277 4.71787C156.215 3.55652 156.643 3.28644 157.696 3.35846C158.963 3.44848 160.248 3.35846 161.533 3.35846C163.13 3.35846 163.701 4.18671 163.219 5.73518C163.085 6.15831 162.835 6.22132 162.478 6.21232C161.872 6.21232 161.256 6.21232 160.64 6.21232C159.668 6.1403 159.061 6.21232 159.017 7.53572C158.972 9.04818 159.712 8.90414 160.712 9.00317C161.426 9.06618 162.639 8.18392 162.773 9.98447C162.898 11.587 162.282 11.875 160.908 11.785C160.123 11.722 158.999 11.2358 159.034 12.9644C159.034 14.2338 159.373 14.6839 160.614 14.4858C161 14.4543 161.387 14.4543 161.773 14.4858C163.344 14.4858 163.95 15.3861 163.46 16.8626C163.281 17.4117 162.889 17.2947 162.568 17.3037C160.783 17.3037 158.999 17.3037 157.214 17.3037C156.411 17.3037 156.322 16.9526 156.322 16.2864C156.295 14.2788 156.277 12.2712 156.277 10.2545Z" fill="white"/>
<path d="M113.408 2.90234L119.225 17.3067C117.851 16.9466 116.45 18.09 115.469 16.1184C115.041 15.2181 113.622 15.8843 112.649 15.8033C111.677 15.7222 110.865 15.5512 110.571 16.8386C110.49 17.1987 107.894 17.4778 107.599 17.2167C107.305 16.9556 107.492 16.7215 107.599 16.4605L113.006 3.10941C113.033 3.0644 113.185 3.02838 113.408 2.90234ZM113.265 9.6904L112.034 13.1114H114.273C114.211 11.9861 113.622 11.0588 113.265 9.6904Z" fill="white"/>
<path d="M31.4473 3.50282C31.5344 3.46433 31.6238 3.43126 31.7149 3.40379C34.4986 3.21473 34.4986 3.21473 35.4444 5.81653C36.0332 7.43702 36.64 9.0395 37.3537 10.9571L39.1382 5.87954C40.0929 3.23274 40.0929 3.23274 43.2156 3.44881L37.327 18.1413C35.2659 12.9917 33.3209 8.24726 31.4473 3.50282Z" fill="white"/>
<path d="M50.2734 3.57382C54.4044 2.07936 54.5918 5.94154 56.3227 7.99416C56.804 7.30137 57.2277 6.56966 57.5896 5.8065C58.4016 3.62783 59.8915 2.8446 62.3719 3.54681C61.7385 4.6658 61.0476 5.75061 60.302 6.79679C59.2339 8.01079 58.4412 9.4452 57.9789 11.0001C57.5166 12.5549 57.3959 14.1928 57.6253 15.7995C57.8037 16.9519 57.3844 17.285 56.1978 17.303C55.0111 17.321 54.6721 16.8348 54.8327 15.7545C55.0735 14.1517 54.9635 12.515 54.5103 10.9597C54.0571 9.40437 53.2718 7.96807 52.2095 6.75178C51.498 5.73497 50.8513 4.6735 50.2734 3.57382Z" fill="white"/>
<path d="M137.908 11.7679C137.908 13.2804 137.836 14.8018 137.908 16.2693C137.979 17.5297 137.158 17.2596 136.489 17.2506C135.82 17.2416 135.008 17.5747 135.035 16.2963C135.106 13.4964 134.972 10.6876 135.097 7.89674C135.16 6.44729 134.687 5.94314 133.313 6.21322C131.707 6.52832 131.466 5.71807 131.528 4.34965C131.582 3.5034 131.867 3.32334 132.626 3.33235C135.133 3.33235 137.649 3.41337 140.147 3.33235C141.459 3.33235 141.191 4.07957 141.244 4.8358C141.298 5.59203 141.244 6.28525 140.058 6.25824C137.827 6.25824 137.827 6.25823 137.827 8.55393L137.908 11.7679Z" fill="white"/>
<path d="M87.8986 17.2959C86.4354 17.584 86.1142 17.1339 86.5425 15.6124C87.8808 10.949 89.1388 6.24959 90.263 1.53216C90.611 0.0737138 91.3069 0.451823 92.1545 0.7039C93.0021 0.955976 94.0193 0.883957 93.5643 2.45043C92.2616 6.9518 91.0928 11.4532 89.9954 16.0446C89.6563 17.2959 88.9604 17.476 87.8986 17.2959Z" fill="#F2F2F2"/>
<path d="M12.3899 10.2284C12.3899 8.31981 12.4791 6.41124 12.3899 4.52066C12.3185 3.26928 13.0055 3.3323 13.8353 3.35031C14.665 3.36831 15.3431 3.18826 15.2896 4.48465C15.1825 7.32951 15.2896 10.1924 15.2004 13.0462C15.2004 14.0816 15.3699 14.6397 16.5476 14.4597C17.0294 14.3787 17.5558 14.5137 18.0466 14.4597C19.483 14.1986 19.6704 14.9368 19.6347 16.1522C19.6347 17.0525 19.376 17.3225 18.5105 17.2865C16.8421 17.2325 15.1647 17.2325 13.4963 17.2865C12.604 17.2865 12.372 16.9714 12.3988 16.1162C12.4345 14.1446 12.3899 12.227 12.3899 10.2284Z" fill="white"/>
<path d="M82.9736 17.2878C81.4747 17.5849 81.1088 17.1618 81.5639 15.6223C82.6881 11.8232 83.6873 7.97901 84.6152 4.11684C84.9364 2.78444 85.5699 2.92848 86.5424 3.21657C87.515 3.50465 88.3269 3.54066 87.9254 5.01711C86.8726 8.55819 85.9208 12.1233 85.0703 15.7124C84.7669 16.9907 84.2941 17.6299 82.9736 17.2878Z" fill="#F2F2F2"/>
<path d="M48.1319 10.3464C48.1319 12.309 48.0606 14.2806 48.1319 16.2342C48.1855 17.3235 47.6145 17.3325 46.9096 17.2335C46.2047 17.1344 45.2411 17.7556 45.2501 16.3332C45.2501 12.3 45.2501 8.23072 45.2501 4.21549C45.2501 2.89209 46.2137 3.45927 46.8115 3.39625C47.4093 3.33323 48.1587 3.16218 48.1141 4.29652C48.0784 6.30413 48.1319 8.32975 48.1319 10.3464Z" fill="white"/>
<path d="M3.87801 8.25781V8.39287H3.74414C3.74797 8.35838 3.76334 8.32623 3.78766 8.30169C3.81198 8.27715 3.84383 8.26168 3.87801 8.25781Z" fill="white"/>
</svg>
