<svg width="26" height="26" viewBox="0 0 26 26" fill="none" xmlns="http://www.w3.org/2000/svg">
<rect width="26" height="26" rx="13" fill="#A871FF"/>
<path d="M19.094 5.85156H6.90523C6.62526 5.85156 6.35676 5.96278 6.15879 6.16075C5.96083 6.35871 5.84961 6.62721 5.84961 6.90718V19.0959C5.84961 19.3759 5.96083 19.6444 6.15879 19.8424C6.35676 20.0403 6.62526 20.1516 6.90523 20.1516H19.094C19.374 20.1516 19.6425 20.0403 19.8404 19.8424C20.0384 19.6444 20.1496 19.3759 20.1496 19.0959V6.90718C20.1496 6.62721 20.0384 6.35871 19.8404 6.16075C19.6425 5.96278 19.374 5.85156 19.094 5.85156ZM10.1118 18.0334H7.96184V11.2041H10.1118V18.0334ZM9.03533 10.2578C8.79146 10.2564 8.55345 10.1828 8.35136 10.0463C8.14926 9.90977 7.99213 9.71645 7.8998 9.49073C7.80747 9.265 7.78407 9.01698 7.83256 8.77797C7.88105 8.53896 7.99926 8.31967 8.17226 8.14777C8.34526 7.97588 8.56531 7.85908 8.80462 7.81213C9.04394 7.76517 9.29181 7.79016 9.51693 7.88394C9.74206 7.97772 9.93437 8.13609 10.0696 8.33905C10.2048 8.54202 10.2768 8.78049 10.2767 9.02438C10.279 9.18765 10.2484 9.34972 10.1867 9.50093C10.125 9.65213 10.0335 9.78937 9.9177 9.90446C9.80187 10.0196 9.66404 10.1102 9.51245 10.1708C9.36085 10.2315 9.19859 10.2611 9.03533 10.2578ZM18.0364 18.0393H15.8874V14.3084C15.8874 13.2081 15.4197 12.8685 14.8159 12.8685C14.1784 12.8685 13.5527 13.3491 13.5527 14.3362V18.0393H11.4028V11.2091H13.4703V12.1555H13.4981C13.7057 11.7354 14.4326 11.0174 15.5418 11.0174C16.7414 11.0174 18.0374 11.7295 18.0374 13.8149L18.0364 18.0393Z" fill="#0E054D"/>
</svg>
