<svg width="236" height="26" viewBox="0 0 236 26" fill="none" xmlns="http://www.w3.org/2000/svg">
<path d="M17.3629 19.7926C17.2731 19.688 17.1693 19.5975 17.0575 19.5171C15.2773 18.2242 14.3593 15.9299 14.9181 13.6517C15.0658 13.0485 15.3072 12.4935 15.6186 11.9969C15.6286 11.9808 15.6126 11.9627 15.5966 11.9707L9.60935 14.3173C9.56345 14.3354 9.52154 14.3535 9.47963 14.3716C9.47165 14.3756 9.46366 14.3776 9.45568 14.3816C9.38782 14.4118 9.32596 14.444 9.26808 14.4761C9.02859 14.6028 8.79708 14.7536 8.58553 14.9426C7.14459 16.2114 6.9969 18.4172 8.25623 19.869L12.1939 24.4415C13.4532 25.8932 15.6425 26.042 17.0835 24.7732C18.5244 23.5044 18.6721 21.2986 17.4128 19.8469C17.4108 19.8489 17.3908 19.8247 17.3629 19.7926Z" fill="#A871FF"/>
<path d="M20.4981 13.2975C19.5701 13.0662 18.6321 13.6373 18.4026 14.5723C18.173 15.5073 18.7398 16.4524 19.6679 16.6836C20.5959 16.9148 21.5339 16.3438 21.7634 15.4088C21.9929 14.4738 21.4261 13.5287 20.4981 13.2975Z" fill="#A871FF"/>
<path d="M21.0521 2.48236C20.4673 0.481658 18.2939 -0.501603 16.362 0.254443L2.2041 5.80012C2.18015 5.81017 2.1582 5.82224 2.13425 5.83229C2.08037 5.85441 2.02648 5.87854 1.97459 5.90468C1.91871 5.93082 1.86283 5.95897 1.80894 5.98913C1.76903 6.01125 1.72911 6.03538 1.6892 6.0595C1.62334 6.09771 1.55947 6.13993 1.4976 6.18216C1.46966 6.20026 1.44372 6.22037 1.41777 6.24047C1.34593 6.29275 1.27807 6.34704 1.21021 6.40535C1.20024 6.4134 1.19026 6.41943 1.18028 6.42747C1.1703 6.43753 1.16032 6.44758 1.15034 6.45764C1.08448 6.51796 1.02062 6.58029 0.958748 6.64464C0.936794 6.66675 0.916837 6.68887 0.896879 6.71099C0.842994 6.77131 0.791104 6.83365 0.74121 6.89598C0.717261 6.92614 0.693312 6.9563 0.671358 6.98848C0.629447 7.04679 0.589533 7.1051 0.551613 7.16542C0.527664 7.20363 0.503715 7.24183 0.479766 7.28004C0.445838 7.33634 0.415901 7.39465 0.385965 7.45296C0.364011 7.49519 0.342058 7.53741 0.3221 7.58165C0.29416 7.64197 0.270211 7.7023 0.244266 7.76262C0.2283 7.80484 0.210338 7.84506 0.196367 7.8893C0.172418 7.95565 0.152461 8.02402 0.132503 8.09238C0.122524 8.12858 0.11055 8.16678 0.102567 8.20297C0.0826095 8.27938 0.0686389 8.35579 0.0546685 8.4322C0.0486813 8.46236 0.0426944 8.49453 0.0387029 8.5247C0.0267283 8.60714 0.0167489 8.68958 0.0107616 8.77403C0.00876582 8.80017 0.0067703 8.82832 0.00477454 8.85446C0.000783022 8.93891 -0.00121283 9.02337 0.00078293 9.10782C0.00078293 9.13597 0.000783356 9.16613 0.00277912 9.19428C0.00677064 9.27471 0.0127579 9.35313 0.020741 9.43356C0.0247325 9.46975 0.0287235 9.50595 0.0327151 9.54214C0.0426939 9.61252 0.0546685 9.68289 0.0686388 9.75327C0.0786176 9.80153 0.0885964 9.84778 0.100571 9.89402C0.114541 9.95234 0.130508 10.0127 0.14847 10.071C0.164436 10.1273 0.184393 10.1836 0.204351 10.2399C0.214329 10.268 0.222312 10.2962 0.232291 10.3243C0.24227 10.3485 0.254244 10.3706 0.264223 10.3947C0.286177 10.451 0.312122 10.5053 0.338067 10.5596C0.364012 10.6139 0.389956 10.6682 0.417897 10.7204C0.441846 10.7647 0.467791 10.8089 0.49174 10.8511C0.527663 10.9135 0.565584 10.9718 0.605499 11.0321C0.627452 11.0643 0.651401 11.0965 0.673354 11.1286C0.721252 11.195 0.771146 11.2573 0.823036 11.3197C0.833015 11.3317 0.842994 11.3458 0.852973 11.3579L4.40742 15.5C4.4174 15.5101 4.43536 15.5081 4.43935 15.494C4.9363 13.5415 6.30539 11.6977 8.29516 10.9195L18.9845 6.72708C20.6729 6.0575 21.557 4.20357 21.0521 2.48236Z" fill="white"/>
<path d="M57.5784 7.01172C51.5584 7.01172 47.0293 11.6087 47.0293 17.7079C47.0293 22.1355 50.0113 24.8801 54.8206 24.8801C57.5448 24.8801 59.5739 24.1799 60.9976 22.7341C61.7151 22.0451 61.973 21.5143 61.973 20.7236C61.973 19.7184 61.1994 19.1311 60.4707 18.9052C60.2914 18.8487 59.8205 18.7019 59.6075 19.0294C58.4192 20.622 56.917 21.3561 54.8767 21.3561C52.3991 21.3561 50.9754 19.9895 50.9754 17.595V17.4933C52.3655 17.5837 53.3745 17.6288 54.3162 17.6288C61.0649 17.6288 64.0693 15.8669 64.0693 11.925C64.0581 8.95442 61.5133 7.01172 57.5784 7.01172ZM60.112 12.0492C60.112 13.9919 56.7937 14.3985 54.0135 14.3985C53.4754 14.3985 52.6906 14.3872 51.7265 14.2969C52.8812 11.925 55.0561 10.4228 57.4103 10.4228C59.2712 10.4228 60.112 11.236 60.112 12.0492Z" fill="white"/>
<path d="M86.557 10.7616C88.8103 10.7616 90.3126 11.9476 90.6601 14.0032C90.6601 14.0258 90.6713 14.0484 90.6825 14.071C90.8395 14.5341 91.4897 14.5002 91.8596 14.4324C92.8013 14.2743 93.8103 13.6192 93.8103 12.2073C93.8103 11.1795 93.2833 10.0726 92.3865 9.20292C91.03 7.79107 88.9224 7.01172 86.4561 7.01172C81.2544 7.01172 76.8711 11.5748 76.8711 16.9738C76.8711 21.7063 80.1782 24.8915 85.0884 24.8915C87.3193 24.8915 89.4942 24.0669 90.9067 22.6777C91.6802 21.8983 92.1062 21.0738 92.1062 20.3735C92.1062 19.3457 91.3103 18.7358 90.5592 18.4986C90.0659 18.3517 89.752 18.3856 89.5839 18.6454C88.5525 20.3058 87.14 21.1416 85.3799 21.1416C82.6894 21.1416 81.0078 19.4586 81.0078 16.7366C81.019 13.8677 83.1378 10.7616 86.557 10.7616Z" fill="white"/>
<path d="M220.143 7.01172C214.123 7.01172 209.594 11.6087 209.594 17.7079C209.594 22.1355 212.576 24.8801 217.385 24.8801C220.109 24.8801 222.138 24.1799 223.562 22.7341C224.28 22.0451 224.537 21.5143 224.537 20.7236C224.537 19.7184 223.764 19.1311 223.035 18.9052C222.856 18.8487 222.385 18.7132 222.172 19.0294C220.984 20.622 219.481 21.3561 217.441 21.3561C214.964 21.3561 213.54 19.9895 213.54 17.595V17.4933C214.93 17.5837 215.939 17.6288 216.881 17.6288C223.629 17.6288 226.634 15.8669 226.634 11.925C226.623 8.95442 224.078 7.01172 220.143 7.01172ZM222.676 12.0492C222.676 13.9919 219.358 14.3985 216.578 14.3985C216.04 14.3985 215.255 14.3872 214.291 14.2969C215.446 11.925 217.621 10.4228 219.975 10.4228C221.836 10.4228 222.676 11.236 222.676 12.0492Z" fill="white"/>
<path d="M111.231 12.8191C111.231 9.35165 108.877 7.01363 105.38 7.01363C103.72 7.01363 102.151 7.65743 100.929 8.79821L102.229 2.64255C102.241 2.59737 102.241 2.55219 102.241 2.5183L102.521 1.06126C102.543 0.925726 102.51 0.778898 102.42 0.677245C102.33 0.575592 102.207 0.507812 102.061 0.507812H99.9312C98.5299 0.507812 98.1488 1.626 97.9806 2.45052L93.7542 22.4649C93.6309 23.1087 93.7318 23.6396 94.0457 24.0236C94.3708 24.4189 94.9089 24.6335 95.604 24.6335H97.1846C97.3976 24.6335 97.5882 24.4867 97.6331 24.2721L99.864 13.7792C101.075 11.7235 102.308 10.8877 104.124 10.8877C105.873 10.8877 106.826 11.8817 106.826 13.6775C106.826 14.3665 106.545 15.6993 106.041 17.45C105.548 19.3475 105.189 20.7594 105.189 21.7307C105.189 23.6622 106.344 24.8142 108.283 24.8142C109.382 24.8142 109.998 24.3624 110.323 23.9784C110.671 23.5718 110.828 23.0635 110.828 22.7473C110.828 22.3745 110.581 22.2277 110.391 22.2051C109.572 22.1148 109.438 21.855 109.438 21.3241C109.438 20.6577 109.886 19.0087 110.223 17.8227C110.738 16.0607 111.231 14.1068 111.231 12.8191Z" fill="white"/>
<path d="M45.6055 11.8131H43.9799C43.9687 11.8131 43.9239 11.8131 43.9127 11.8131H37.0855L38.3186 5.86079H48.1054C48.8341 5.86079 49.3722 5.77044 49.7422 5.34123C50.0449 5.00239 50.2242 4.47152 50.3139 4.14397C50.3251 4.11009 50.3363 4.07621 50.3475 4.04232L50.3812 3.85031C50.3924 3.80514 50.4036 3.74867 50.4036 3.71478L50.6614 2.39329C50.6839 2.25776 50.6502 2.11091 50.5605 2.00926C50.4709 1.90761 50.3475 1.83984 50.2018 1.83984H37.0182C35.516 1.83984 34.5631 2.67566 34.3389 4.15528L30.4712 22.3399C30.2919 23.2209 30.5161 23.7404 30.7515 24.0228C30.9645 24.2939 31.3793 24.6101 32.164 24.6101H34.081C34.294 24.6101 34.4846 24.4633 34.5295 24.2487L34.9218 22.4302C34.9218 22.4076 34.933 22.3851 34.933 22.3738L36.3344 15.6872H43.5203C44.2042 15.6872 44.7423 15.5969 45.1122 15.179C45.3925 14.9079 45.5718 14.5013 45.6727 14.1625C45.7064 14.1173 45.7288 14.0608 45.74 14.0043L46.0651 12.3553C46.0875 12.2198 46.0539 12.0729 45.9642 11.9713C45.8633 11.8809 45.74 11.8131 45.6055 11.8131Z" fill="white"/>
<path d="M152.689 11.8131H151.063C151.052 11.8131 151.007 11.8131 150.996 11.8131H144.169L145.402 5.86079H155.189C155.918 5.86079 156.456 5.77044 156.826 5.34123C157.128 5.00239 157.308 4.47152 157.397 4.14397C157.409 4.11009 157.42 4.07621 157.431 4.04232L157.476 3.82772C157.487 3.78254 157.498 3.73737 157.498 3.71478L157.756 2.39329C157.779 2.25776 157.745 2.11091 157.655 2.00926C157.566 1.90761 157.442 1.83984 157.297 1.83984H144.09C142.588 1.83984 141.635 2.67566 141.411 4.15528L137.544 22.3399C137.364 23.2209 137.588 23.7404 137.824 24.0228C138.037 24.2939 138.452 24.6101 139.236 24.6101H141.153C141.366 24.6101 141.557 24.4633 141.602 24.2487L141.994 22.4302C141.994 22.4076 142.005 22.3851 142.005 22.3738L143.407 15.6872H150.593C151.276 15.6872 151.803 15.5969 152.185 15.179C152.465 14.9079 152.644 14.5013 152.745 14.1625C152.779 14.1173 152.801 14.0608 152.812 14.0043L153.137 12.3553C153.16 12.2198 153.126 12.0729 153.037 11.9713C152.958 11.8809 152.824 11.8131 152.689 11.8131Z" fill="white"/>
<path d="M171.724 7.28516H169.616C168.518 7.28516 167.923 7.87249 167.666 9.22786L165.782 18.1395C164.527 20.1951 163.271 21.0422 161.489 21.0422C160.547 21.0422 159.852 20.7599 159.403 20.1951C158.854 19.5061 158.72 18.3993 159.011 17.0778L160.614 9.43118C160.625 9.3973 160.625 9.3634 160.625 9.35211L160.917 7.8499C160.939 7.71436 160.906 7.56753 160.816 7.46588C160.726 7.36422 160.603 7.29646 160.457 7.29646H158.361C157.262 7.29646 156.679 7.8612 156.377 9.23917L154.773 16.9196C154.235 19.4384 154.572 21.5392 155.726 22.985C156.735 24.2387 158.305 24.9051 160.278 24.9051C162.262 24.9051 164.011 24.0918 165.323 22.6009C165.39 22.9511 165.502 23.2447 165.648 23.4819C166.186 24.3516 167.139 24.8034 168.405 24.8034C169.493 24.8034 170.098 24.3629 170.412 24.0015C170.76 23.5949 170.883 23.1205 170.883 22.8381C170.883 22.4541 170.603 22.3073 170.457 22.3073C169.975 22.2621 169.683 22.1491 169.549 21.9797C169.381 21.7538 169.381 21.2455 169.56 20.4549L171.825 9.6006C171.836 9.56671 171.847 9.54412 171.858 9.51024L172.172 7.8612C172.195 7.72566 172.161 7.57884 172.071 7.47718C171.982 7.35294 171.858 7.28516 171.724 7.28516Z" fill="white"/>
<path d="M235.893 0.677245C235.804 0.575592 235.68 0.507812 235.534 0.507812H233.427C232.037 0.507812 231.656 1.54694 231.476 2.45052L227.71 20.206C227.373 21.7646 227.53 22.9506 228.169 23.7412C228.73 24.4415 229.627 24.7917 230.826 24.7917C231.958 24.7917 232.586 24.3512 232.911 23.9897C233.27 23.5831 233.404 23.0974 233.404 22.8151C233.404 22.431 233.124 22.2842 232.967 22.2842C232.429 22.2503 232.093 22.1374 231.958 21.9454C231.79 21.7195 231.79 21.2225 231.958 20.4206L235.68 2.65384C235.68 2.63125 235.691 2.63124 235.691 2.60865L235.994 1.06126C236.017 0.925727 235.983 0.778898 235.893 0.677245Z" fill="white"/>
<path d="M189.818 12.8173C189.818 9.34975 187.453 7.01172 183.933 7.01172C182.05 7.01172 180.357 7.76847 179.045 9.15773C179.023 9.05608 179 8.95443 178.978 8.86407C178.698 7.85883 177.879 7.28278 176.736 7.28278C176.265 7.28278 175.659 7.36185 175.491 7.71199C175.469 7.74588 175.458 7.77977 175.458 7.82495L172.364 22.463C172.24 23.1069 172.341 23.6377 172.655 24.0217C172.98 24.4171 173.507 24.6204 174.225 24.6317C174.236 24.6317 174.247 24.6317 174.258 24.6317H175.805C176.018 24.6317 176.209 24.4848 176.254 24.2702L176.556 22.8471L176.568 22.7906C176.579 22.7454 176.59 22.7002 176.601 22.6551L178.485 13.766C179.695 11.7104 180.928 10.8746 182.745 10.8746C184.493 10.8746 185.446 11.8685 185.446 13.6644C185.446 14.3534 185.166 15.6861 184.662 17.4368C184.168 19.3344 183.81 20.7462 183.81 21.7176C183.81 23.649 184.964 24.8011 186.904 24.8011C188.002 24.8011 188.619 24.3493 188.944 23.9653C189.292 23.5586 189.448 23.0504 189.448 22.7341C189.448 22.3614 189.202 22.2146 189.011 22.192C188.193 22.1016 188.058 21.8418 188.058 21.311C188.058 20.6446 188.507 18.9955 188.843 17.8096C189.325 16.0589 189.818 14.1049 189.818 12.8173Z" fill="white"/>
<path d="M208.406 12.8173C208.406 9.34975 206.04 7.01172 202.52 7.01172C200.637 7.01172 198.944 7.76847 197.632 9.15773C197.61 9.05608 197.588 8.95443 197.565 8.86407C197.285 7.85883 196.467 7.28278 195.323 7.28278C194.852 7.28278 194.247 7.36185 194.079 7.71199C194.056 7.74588 194.045 7.77977 194.045 7.82495L190.94 22.463C190.816 23.1069 190.917 23.6377 191.231 24.0217C191.556 24.4171 192.083 24.6204 192.801 24.6317C192.812 24.6317 192.823 24.6317 192.834 24.6317H194.381C194.594 24.6317 194.785 24.4848 194.83 24.2702L195.155 22.7341C195.166 22.7115 195.166 22.6776 195.177 22.6551L197.061 13.766C198.271 11.7104 199.505 10.8746 201.321 10.8746C203.092 10.8746 204.022 11.8346 204.022 13.6644C204.022 14.3534 203.742 15.6861 203.238 17.4368C202.722 19.3909 202.386 20.7462 202.386 21.7176C202.386 23.649 203.54 24.8011 205.48 24.8011C206.578 24.8011 207.195 24.3493 207.52 23.9653C207.868 23.5586 208.025 23.0504 208.025 22.7341C208.025 22.3614 207.778 22.2146 207.587 22.192C206.769 22.1016 206.635 21.8418 206.635 21.311C206.635 20.6559 207.083 18.9955 207.419 17.8096C207.913 16.0589 208.406 14.1049 208.406 12.8173Z" fill="white"/>
<path d="M76.9497 9.30825L77.2075 7.97546C77.2299 7.83992 77.1963 7.69309 77.1066 7.59144C77.0169 7.48978 76.8936 7.42202 76.7479 7.42202H75.2793C75.2681 7.42202 75.2345 7.42202 75.2232 7.42202H72.3982L73.0484 4.32724C73.0708 4.1917 73.0372 4.02228 72.9587 3.92062C72.7345 3.61566 72.0282 3.36719 71.3332 3.36719C69.6852 3.36719 68.7884 4.30465 68.3512 6.48455L68.1606 7.42202H67.275C66.6584 7.42202 66.1763 7.50108 65.7952 7.87381C65.2795 8.34819 65.1113 9.33084 65.1113 9.72616C65.1113 10.3926 65.571 11.0928 66.8714 11.0928H67.3983L65.8849 18.3554C65.4364 20.4675 65.6831 22.1956 66.6135 23.3477C67.4431 24.3755 68.7884 24.9177 70.5036 24.9177C71.8937 24.9177 73.0932 24.5111 73.7995 23.8108C74.3264 23.2799 74.5618 22.7152 74.5618 22.0375C74.5618 21.2243 74.1022 20.6144 73.7659 20.4337C73.4968 20.2868 73.2838 20.3885 73.2053 20.4449C73.1717 20.4675 73.1493 20.4901 73.1269 20.5127C72.7681 20.908 72.0843 21.3033 71.3668 21.3033C70.8063 21.3033 70.4251 21.1678 70.1897 20.8741C69.8422 20.4449 69.7861 19.6091 70.0216 18.4796L71.6022 11.0928H74.8645C75.5596 11.0928 76.008 10.946 76.3667 10.5733C76.6918 10.2118 76.86 9.65839 76.9272 9.37602C76.9385 9.36473 76.9497 9.33084 76.9497 9.30825Z" fill="white"/>
<path d="M135.178 12.23C135.1 12.0719 134.943 11.9702 134.763 11.9702H132.689C131.882 11.9702 131.109 12.3656 130.638 13.032L128.485 16.0703L125.784 12.5463C126.176 12.3317 126.568 12.0832 126.972 11.8347C127.555 11.462 128.093 11.0328 128.564 10.5584C129.046 10.0727 129.472 9.53057 129.808 8.93194C130.156 8.32202 130.38 7.65563 130.481 6.92147C130.604 6.04048 130.559 5.24984 130.335 4.58344C130.111 3.90576 129.763 3.32973 129.281 2.87794C128.811 2.42614 128.228 2.08731 127.555 1.86141C126.221 1.42091 124.607 1.42091 123.183 1.89529C122.454 2.13249 121.782 2.48262 121.199 2.9457C120.604 3.40879 120.089 3.98483 119.674 4.65123C119.259 5.32891 118.99 6.11953 118.867 7.00053C118.811 7.56527 118.811 8.09613 118.889 8.58181C118.956 9.06748 119.091 9.53057 119.259 9.95977C119.427 10.389 119.651 10.8069 119.909 11.2022C120.055 11.4281 120.201 11.6427 120.358 11.8686C119.864 12.1284 119.371 12.4107 118.9 12.727C118.261 13.1449 117.678 13.6306 117.174 14.1614C116.658 14.6923 116.221 15.3022 115.862 15.9573C115.504 16.6237 115.268 17.3692 115.167 18.1711C115.044 19.0182 115.066 19.8427 115.246 20.6333C115.425 21.4466 115.773 22.1807 116.288 22.8132C116.804 23.457 117.499 23.9766 118.351 24.3606C119.203 24.7446 120.246 24.9367 121.456 24.9367C122.903 24.9367 124.203 24.6204 125.302 23.9992C126.243 23.4683 127.185 22.7229 128.104 21.7854L129.27 23.3554C129.752 24.0105 130.526 24.3945 131.322 24.3945H133.967C134.147 24.3945 134.304 24.2929 134.382 24.1347C134.461 23.9766 134.438 23.7846 134.326 23.649L130.582 18.9052L135.133 12.7383C135.245 12.5689 135.257 12.3881 135.178 12.23ZM124.562 9.59833C124.281 9.76775 124.012 9.92588 123.755 10.0727C123.642 9.92588 123.53 9.77905 123.418 9.63221C123.228 9.39502 123.06 9.12395 122.914 8.84158C122.768 8.57051 122.667 8.29944 122.6 8.00578C122.533 7.7347 122.521 7.44103 122.555 7.14736C122.656 6.45838 122.936 5.95011 123.429 5.58868C123.945 5.20466 124.506 5.02394 125.133 5.02394C125.739 5.02394 126.187 5.18207 126.501 5.50962C126.804 5.82588 126.905 6.24378 126.837 6.80852C126.837 6.80852 126.837 6.80853 126.837 6.81982C126.793 7.22644 126.658 7.59916 126.456 7.91542C126.232 8.25426 125.963 8.57051 125.649 8.84158C125.302 9.11266 124.943 9.37244 124.562 9.59833ZM126.131 19.1424C125.907 19.3796 125.672 19.6055 125.425 19.8201C125.077 20.1251 124.719 20.4074 124.338 20.6446C123.968 20.8818 123.564 21.0738 123.149 21.2207C122.353 21.503 121.434 21.5256 120.683 21.1868C120.313 21.0174 119.999 20.7915 119.73 20.4978C119.472 20.2041 119.27 19.854 119.136 19.4587C119.001 19.0634 118.968 18.6455 119.012 18.1937C119.08 17.708 119.225 17.2675 119.45 16.8948C119.685 16.4995 119.977 16.138 120.313 15.8218C120.66 15.4942 121.053 15.2005 121.468 14.9295C121.781 14.7262 122.107 14.5342 122.42 14.3421L126.131 19.1424Z" fill="#A871FF"/>
</svg>
