<svg width="242" height="27" viewBox="0 0 242 27" fill="none" xmlns="http://www.w3.org/2000/svg">
<path d="M17.8056 20.3001C17.7135 20.1929 17.6071 20.1001 17.4925 20.0176C15.667 18.6918 14.7256 16.3392 15.2987 14.0031C15.4501 13.3845 15.6977 12.8155 16.017 12.3062C16.0272 12.2897 16.0108 12.2711 15.9945 12.2794L9.85497 14.6856C9.8079 14.7041 9.76492 14.7227 9.72194 14.7413C9.71376 14.7454 9.70557 14.7474 9.69739 14.7516C9.62781 14.7825 9.56436 14.8155 9.50501 14.8485C9.25943 14.9784 9.02204 15.133 8.80511 15.3268C7.32754 16.6279 7.1761 18.8898 8.46744 20.3784L12.5052 25.0671C13.7965 26.5558 16.0415 26.7084 17.5191 25.4074C18.9967 24.1063 19.1481 21.8444 17.8568 20.3558C17.8547 20.3578 17.8343 20.3331 17.8056 20.3001Z" fill="#A871FF"/>
<path d="M21.0195 13.6386C20.0679 13.4015 19.106 13.9871 18.8707 14.9459C18.6353 15.9046 19.2165 16.8737 20.1681 17.1108C21.1198 17.3479 22.0816 16.7624 22.317 15.8036C22.5523 14.8448 21.9711 13.8757 21.0195 13.6386Z" fill="#A871FF"/>
<path d="M21.5873 2.54938C20.9877 0.49781 18.759 -0.510449 16.778 0.264818L2.26014 5.95148C2.23558 5.96179 2.21307 5.97416 2.18851 5.98447C2.13326 6.00715 2.078 6.0319 2.02479 6.0587C1.96749 6.08551 1.91019 6.11437 1.85493 6.1453C1.814 6.16798 1.77307 6.19272 1.73214 6.21746C1.66461 6.25664 1.59912 6.29994 1.53568 6.34324C1.50703 6.3618 1.48042 6.38242 1.45382 6.40303C1.38014 6.45664 1.31056 6.51231 1.24098 6.57211C1.23075 6.58036 1.22052 6.58654 1.21028 6.59479C1.20005 6.6051 1.18982 6.61541 1.17959 6.62572C1.11205 6.68757 1.04656 6.75149 0.983122 6.81747C0.960611 6.84015 0.940146 6.86283 0.919681 6.88552C0.864426 6.94737 0.811216 7.01129 0.760054 7.07521C0.735496 7.10614 0.710938 7.13706 0.688427 7.17005C0.64545 7.22985 0.604521 7.28964 0.565637 7.3515C0.541079 7.39068 0.516521 7.42985 0.491963 7.46903C0.457173 7.52676 0.426475 7.58655 0.395777 7.64635C0.373266 7.68965 0.350754 7.73295 0.330289 7.77831C0.301638 7.84017 0.277081 7.90202 0.250476 7.96388C0.234104 8.00718 0.215685 8.04842 0.20136 8.09378C0.176802 8.16182 0.156337 8.23192 0.135872 8.30203C0.125639 8.33914 0.113361 8.37832 0.105175 8.41543C0.0847097 8.49378 0.0703839 8.57213 0.0560584 8.65049C0.0499189 8.68141 0.0437798 8.7144 0.0396868 8.74533C0.0274078 8.82987 0.0171747 8.9144 0.0110352 9.001C0.00898868 9.02781 0.00694243 9.05667 0.00489593 9.08348C0.000802929 9.17008 -0.00124366 9.25668 0.000802835 9.34328C0.000802835 9.37214 0.000803272 9.40307 0.00284977 9.43194C0.00694277 9.51441 0.0130823 9.59483 0.0212683 9.6773C0.0253613 9.71442 0.0294538 9.75153 0.0335468 9.78864C0.0437793 9.86081 0.0560584 9.93297 0.0703839 10.0051C0.0806163 10.0546 0.0908488 10.102 0.103128 10.1495C0.117453 10.2093 0.133826 10.2711 0.152244 10.3309C0.168616 10.3886 0.189081 10.4464 0.209546 10.5041C0.219778 10.533 0.227964 10.5618 0.238197 10.5907C0.248429 10.6155 0.260708 10.6381 0.270941 10.6629C0.293452 10.7206 0.320057 10.7763 0.346662 10.832C0.373266 10.8876 0.39987 10.9433 0.428521 10.9969C0.453079 11.0423 0.479684 11.0876 0.504242 11.1309C0.541079 11.1948 0.579963 11.2546 0.620893 11.3165C0.643404 11.3495 0.667961 11.3825 0.690473 11.4155C0.739589 11.4835 0.790751 11.5474 0.84396 11.6113C0.854193 11.6237 0.864426 11.6382 0.874658 11.6505L4.51947 15.898C4.52971 15.9083 4.54813 15.9062 4.55222 15.8918C5.0618 13.8897 6.46569 11.999 8.50605 11.201L19.4671 6.90201C21.1984 6.2154 22.105 4.31435 21.5873 2.54938Z" fill="#0E054D"/>
<path d="M59.04 7.19531C52.8669 7.19531 48.2227 11.9092 48.2227 18.1635C48.2227 22.7036 51.2805 25.518 56.2121 25.518C59.0055 25.518 61.0862 24.7999 62.5461 23.3174C63.2818 22.6109 63.5462 22.0666 63.5462 21.2558C63.5462 20.225 62.753 19.6228 62.0058 19.3911C61.8219 19.3332 61.3391 19.1827 61.1207 19.5185C59.9021 21.1516 58.3617 21.9044 56.2695 21.9044C53.729 21.9044 52.2691 20.503 52.2691 18.0476V17.9434C53.6945 18.036 54.7291 18.0824 55.6948 18.0824C62.6151 18.0824 65.6959 16.2756 65.6959 12.2335C65.6844 9.1874 63.0749 7.19531 59.04 7.19531ZM61.638 12.3609C61.638 14.353 58.2353 14.7699 55.3844 14.7699C54.8326 14.7699 54.0279 14.7583 53.0393 14.6657C54.2233 12.2335 56.4535 10.6931 58.8675 10.6931C60.7758 10.6931 61.638 11.527 61.638 12.3609Z" fill="#0E054D"/>
<path d="M88.7564 11.0405C91.067 11.0405 92.6074 12.2566 92.9638 14.3646C92.9638 14.3877 92.9753 14.4109 92.9868 14.4341C93.1477 14.9089 93.8144 14.8742 94.1938 14.8047C95.1594 14.6425 96.194 13.9708 96.194 12.523C96.194 11.4691 95.6537 10.334 94.7341 9.44222C93.3431 7.99447 91.182 7.19531 88.6529 7.19531C83.319 7.19531 78.8242 11.8744 78.8242 17.4106C78.8242 22.2635 82.2154 25.5296 87.2505 25.5296C89.5381 25.5296 91.7682 24.6841 93.2167 23.2595C94.0099 22.4604 94.4467 21.6149 94.4467 20.8968C94.4467 19.8429 93.6305 19.2174 92.8603 18.9742C92.3545 18.8236 92.0326 18.8584 91.8602 19.1248C90.8026 20.8273 89.3542 21.6844 87.5494 21.6844C84.7904 21.6844 83.0661 19.9587 83.0661 17.1674C83.0776 14.2256 85.2502 11.0405 88.7564 11.0405Z" fill="#0E054D"/>
<path d="M225.737 7.19531C219.564 7.19531 214.92 11.9092 214.92 18.1635C214.92 22.7036 217.978 25.518 222.909 25.518C225.703 25.518 227.783 24.7999 229.243 23.3174C229.979 22.6109 230.244 22.0666 230.244 21.2558C230.244 20.225 229.45 19.6228 228.703 19.3911C228.519 19.3332 228.036 19.1942 227.818 19.5185C226.599 21.1516 225.059 21.9044 222.967 21.9044C220.426 21.9044 218.966 20.503 218.966 18.0476V17.9434C220.392 18.036 221.426 18.0824 222.392 18.0824C229.312 18.0824 232.393 16.2756 232.393 12.2335C232.382 9.1874 229.772 7.19531 225.737 7.19531ZM228.335 12.3609C228.335 14.353 224.933 14.7699 222.082 14.7699C221.53 14.7699 220.725 14.7583 219.737 14.6657C220.921 12.2335 223.151 10.6931 225.565 10.6931C227.473 10.6931 228.335 11.527 228.335 12.3609Z" fill="#0E054D"/>
<path d="M114.058 13.1478C114.058 9.59212 111.644 7.19465 108.057 7.19465C106.356 7.19465 104.747 7.85483 103.494 9.0246L104.827 2.71244C104.839 2.66612 104.839 2.61979 104.839 2.58504L105.126 1.09096C105.149 0.951976 105.114 0.801415 105.022 0.697177C104.93 0.59294 104.804 0.523438 104.655 0.523438H102.47C101.033 0.523438 100.643 1.67005 100.47 2.51553L96.1364 23.0388C96.0099 23.6989 96.1134 24.2433 96.4353 24.6371C96.7686 25.0424 97.3204 25.2625 98.0332 25.2625H99.654C99.8724 25.2625 100.068 25.1119 100.114 24.8919L102.401 14.1322C103.643 12.0243 104.907 11.1673 106.77 11.1673C108.563 11.1673 109.54 12.1865 109.54 14.028C109.54 14.7345 109.253 16.1012 108.736 17.8964C108.23 19.8421 107.862 21.2899 107.862 22.2859C107.862 24.2664 109.046 25.4478 111.035 25.4478C112.161 25.4478 112.793 24.9845 113.127 24.5907C113.483 24.1738 113.644 23.6526 113.644 23.3283C113.644 22.9461 113.391 22.7955 113.196 22.7724C112.357 22.6797 112.219 22.4133 112.219 21.869C112.219 21.1856 112.678 19.4947 113.023 18.2786C113.552 16.4718 114.058 14.4681 114.058 13.1478Z" fill="#0E054D"/>
<path d="M46.7634 12.1175H45.0965C45.085 12.1175 45.0391 12.1175 45.0276 12.1175H38.0268L39.2913 6.01379H49.3269C50.0741 6.01379 50.6259 5.92115 51.0052 5.48103C51.3156 5.13358 51.4995 4.58921 51.5915 4.25333C51.603 4.21859 51.6145 4.18385 51.626 4.1491L51.6605 3.95221C51.672 3.90588 51.6835 3.84798 51.6835 3.81323L51.9479 2.45815C51.9709 2.31916 51.9364 2.16858 51.8444 2.06435C51.7525 1.96011 51.626 1.89062 51.4766 1.89062H37.9578C36.4174 1.89062 35.4403 2.74769 35.2104 4.26493L31.2444 22.9118C31.0605 23.8152 31.2904 24.348 31.5318 24.6376C31.7502 24.9155 32.1755 25.2398 32.9802 25.2398H34.946C35.1644 25.2398 35.3598 25.0892 35.4058 24.8692L35.8081 23.0045C35.8081 22.9813 35.8196 22.9582 35.8196 22.9466L37.2566 16.0901H44.6252C45.3264 16.0901 45.8782 15.9974 46.2576 15.5689C46.545 15.2909 46.7289 14.874 46.8324 14.5265C46.8668 14.4802 46.8898 14.4223 46.9013 14.3644L47.2347 12.6734C47.2577 12.5344 47.2232 12.3839 47.1312 12.2796C47.0278 12.187 46.9013 12.1175 46.7634 12.1175Z" fill="#0E054D"/>
<path d="M156.57 12.1175H154.903C154.891 12.1175 154.845 12.1175 154.834 12.1175H147.833L149.098 6.01379H159.133C159.881 6.01379 160.432 5.92115 160.812 5.48103C161.122 5.13358 161.306 4.58921 161.398 4.25333C161.409 4.21859 161.421 4.18385 161.432 4.1491L161.478 3.92904C161.49 3.88271 161.501 3.8364 161.501 3.81323L161.766 2.45815C161.789 2.31916 161.754 2.16858 161.662 2.06435C161.57 1.96011 161.444 1.89062 161.295 1.89062H147.753C146.212 1.89062 145.235 2.74769 145.005 4.26493L141.039 22.9118C140.855 23.8152 141.085 24.348 141.327 24.6376C141.545 24.9155 141.97 25.2398 142.775 25.2398H144.741C144.959 25.2398 145.155 25.0892 145.201 24.8692L145.603 23.0045C145.603 22.9813 145.615 22.9582 145.615 22.9466L147.051 16.0901H154.42C155.121 16.0901 155.662 15.9974 156.053 15.5689C156.34 15.2909 156.524 14.874 156.627 14.5265C156.662 14.4802 156.685 14.4223 156.696 14.3644L157.03 12.6734C157.053 12.5344 157.018 12.3839 156.926 12.2796C156.846 12.187 156.708 12.1175 156.57 12.1175Z" fill="#0E054D"/>
<path d="M176.089 7.47266H173.928C172.801 7.47266 172.192 8.07492 171.927 9.46476L169.996 18.6029C168.709 20.7108 167.421 21.5795 165.593 21.5795C164.628 21.5795 163.915 21.2899 163.455 20.7109C162.892 20.0044 162.754 18.8693 163.053 17.5142L164.697 9.67324C164.708 9.63849 164.708 9.60374 164.708 9.59216L165.007 8.05175C165.03 7.91277 164.996 7.76221 164.904 7.65797C164.812 7.55373 164.685 7.48425 164.536 7.48425H162.386C161.26 7.48425 160.662 8.06335 160.351 9.47635L158.708 17.3521C158.156 19.9349 158.501 22.0891 159.685 23.5716C160.719 24.8572 162.329 25.5405 164.352 25.5405C166.387 25.5405 168.18 24.7066 169.525 23.1778C169.594 23.5369 169.709 23.838 169.858 24.0812C170.41 24.973 171.387 25.4363 172.686 25.4363C173.801 25.4363 174.422 24.9846 174.744 24.614C175.1 24.197 175.227 23.7106 175.227 23.421C175.227 23.0272 174.939 22.8767 174.79 22.8767C174.296 22.8303 173.997 22.7145 173.859 22.5408C173.686 22.3092 173.686 21.788 173.87 20.9772L176.192 9.84696C176.204 9.81222 176.215 9.78905 176.227 9.7543L176.549 8.06335C176.572 7.92436 176.537 7.7738 176.445 7.66957C176.353 7.54216 176.227 7.47266 176.089 7.47266Z" fill="#0E054D"/>
<path d="M241.889 0.697178C241.797 0.59294 241.67 0.523438 241.521 0.523438H239.36C237.934 0.523438 237.544 1.58898 237.36 2.51554L233.497 20.7224C233.152 22.3207 233.313 23.5368 233.968 24.3475C234.543 25.0656 235.463 25.4247 236.693 25.4247C237.854 25.4247 238.498 24.973 238.831 24.6024C239.199 24.1854 239.337 23.6874 239.337 23.3978C239.337 23.004 239.049 22.8535 238.889 22.8535C238.337 22.8187 237.992 22.7029 237.854 22.506C237.682 22.2744 237.682 21.7648 237.854 20.9424L241.67 2.72402C241.67 2.70086 241.682 2.70085 241.682 2.67768L241.992 1.09096C242.015 0.951977 241.981 0.801415 241.889 0.697178Z" fill="#0E054D"/>
<path d="M194.642 13.1485C194.642 9.59278 192.217 7.19531 188.607 7.19531C186.676 7.19531 184.94 7.9713 183.595 9.39588C183.572 9.29165 183.549 9.18741 183.526 9.09476C183.239 8.06396 182.4 7.47327 181.227 7.47327C180.744 7.47327 180.123 7.55435 179.951 7.91339C179.928 7.94814 179.917 7.98289 179.917 8.02922L176.744 23.0395C176.617 23.6996 176.721 24.244 177.043 24.6378C177.376 25.0432 177.916 25.2516 178.652 25.2632C178.664 25.2632 178.675 25.2632 178.687 25.2632H180.273C180.491 25.2632 180.687 25.1127 180.733 24.8926L181.043 23.4333L181.055 23.3754C181.066 23.329 181.078 23.2827 181.089 23.2364L183.02 14.1213C184.262 12.0134 185.526 11.1564 187.389 11.1564C189.182 11.1564 190.159 12.1756 190.159 14.0171C190.159 14.7236 189.872 16.0903 189.354 17.8855C188.849 19.8313 188.481 21.279 188.481 22.2751C188.481 24.2556 189.665 25.437 191.654 25.437C192.78 25.437 193.412 24.9737 193.746 24.5799C194.102 24.1629 194.263 23.6417 194.263 23.3174C194.263 22.9352 194.01 22.7847 193.815 22.7615C192.976 22.6689 192.838 22.4025 192.838 21.8581C192.838 21.1748 193.297 19.4838 193.642 18.2677C194.137 16.4725 194.642 14.4688 194.642 13.1485Z" fill="#0E054D"/>
<path d="M213.703 13.1485C213.703 9.59278 211.277 7.19531 207.668 7.19531C205.736 7.19531 204 7.9713 202.655 9.39588C202.632 9.29165 202.61 9.18741 202.587 9.09476C202.299 8.06396 201.46 7.47327 200.287 7.47327C199.805 7.47327 199.184 7.55435 199.011 7.91339C198.988 7.94814 198.977 7.98289 198.977 8.02922L195.793 23.0395C195.666 23.6996 195.77 24.244 196.092 24.6378C196.425 25.0432 196.965 25.2516 197.701 25.2632C197.712 25.2632 197.724 25.2632 197.735 25.2632H199.322C199.54 25.2632 199.736 25.1127 199.782 24.8926L200.115 23.3174C200.126 23.2943 200.126 23.2595 200.138 23.2364L202.069 14.1213C203.311 12.0134 204.575 11.1564 206.438 11.1564C208.254 11.1564 209.208 12.1408 209.208 14.0171C209.208 14.7236 208.921 16.0903 208.403 17.8855C207.874 19.8892 207.53 21.279 207.53 22.2751C207.53 24.2556 208.714 25.437 210.702 25.437C211.829 25.437 212.461 24.9737 212.795 24.5799C213.151 24.1629 213.312 23.6417 213.312 23.3174C213.312 22.9352 213.059 22.7847 212.864 22.7615C212.024 22.6689 211.886 22.4025 211.886 21.8581C211.886 21.1864 212.346 19.4838 212.691 18.2677C213.197 16.4725 213.703 14.4688 213.703 13.1485Z" fill="#0E054D"/>
<path d="M78.9049 9.54524L79.1693 8.17855C79.1923 8.03957 79.1578 7.88901 79.0659 7.78477C78.9739 7.68053 78.8475 7.61105 78.698 7.61105H77.1921C77.1806 7.61105 77.1461 7.61105 77.1346 7.61105H74.2377L74.9045 4.43758C74.9275 4.2986 74.893 4.12487 74.8125 4.02063C74.5826 3.70792 73.8584 3.45312 73.1457 3.45312C71.4558 3.45312 70.5362 4.41442 70.0878 6.64974L69.8924 7.61105H68.9843C68.352 7.61105 67.8577 7.69211 67.4669 8.07432C66.9381 8.56076 66.7656 9.56839 66.7656 9.97376C66.7656 10.6571 67.2369 11.3752 68.5704 11.3752H69.1107L67.5588 18.8224C67.099 20.9882 67.3519 22.7603 68.306 23.9416C69.1567 24.9956 70.5362 25.5515 72.295 25.5515C73.7204 25.5515 74.9505 25.1346 75.6747 24.4165C76.215 23.8721 76.4564 23.293 76.4564 22.5981C76.4564 21.7642 75.9851 21.1388 75.6402 20.9535C75.3643 20.8029 75.1459 20.9071 75.0654 20.9651C75.0309 20.9882 75.0079 21.0114 74.985 21.0345C74.6171 21.4399 73.9159 21.8453 73.1801 21.8453C72.6054 21.8453 72.2145 21.7063 71.9731 21.4052C71.6168 20.9651 71.5593 20.108 71.8007 18.9498L73.4216 11.3752H76.7668C77.4795 11.3752 77.9393 11.2246 78.3072 10.8424C78.6405 10.4718 78.813 9.90427 78.882 9.61472C78.8934 9.60314 78.9049 9.5684 78.9049 9.54524Z" fill="#0E054D"/>
<path d="M138.613 12.5449C138.532 12.3827 138.371 12.2785 138.187 12.2785H136.061C135.233 12.2785 134.44 12.6839 133.957 13.3672L131.75 16.4828L128.979 12.8692C129.382 12.6491 129.784 12.3943 130.198 12.1395C130.796 11.7573 131.347 11.3172 131.83 10.8308C132.325 10.3327 132.761 9.77681 133.106 9.16297C133.463 8.53754 133.693 7.85421 133.796 7.10138C133.922 6.19799 133.876 5.38724 133.647 4.70391C133.417 4.00899 133.06 3.41832 132.566 2.95504C132.083 2.49177 131.485 2.14431 130.796 1.91267C129.428 1.46098 127.772 1.46098 126.312 1.94742C125.565 2.19064 124.875 2.54967 124.278 3.02453C123.668 3.49939 123.14 4.09008 122.714 4.77342C122.289 5.46833 122.013 6.27905 121.887 7.18245C121.829 7.76154 121.829 8.3059 121.91 8.80393C121.979 9.30195 122.117 9.77681 122.289 10.2169C122.461 10.657 122.691 11.0856 122.956 11.4909C123.105 11.7226 123.255 11.9426 123.416 12.1743C122.91 12.4407 122.404 12.7302 121.921 13.0545C121.266 13.483 120.668 13.9811 120.151 14.5254C119.622 15.0698 119.174 15.6952 118.806 16.3669C118.438 17.0503 118.197 17.8147 118.093 18.637C117.967 19.5057 117.99 20.3511 118.174 21.1619C118.357 21.9958 118.714 22.7486 119.243 23.3972C119.771 24.0573 120.484 24.5901 121.358 24.9839C122.231 25.3777 123.301 25.5746 124.542 25.5746C126.025 25.5746 127.358 25.2503 128.485 24.6133C129.451 24.0689 130.416 23.3045 131.359 22.3432L132.554 23.9531C133.049 24.6249 133.842 25.0187 134.658 25.0187H137.371C137.555 25.0187 137.716 24.9144 137.796 24.7523C137.877 24.5901 137.854 24.3932 137.739 24.2542L133.899 19.3898L138.567 13.0661C138.682 12.8923 138.693 12.707 138.613 12.5449ZM127.726 9.8463C127.439 10.02 127.163 10.1822 126.899 10.3327C126.784 10.1822 126.669 10.0316 126.554 9.88104C126.358 9.63782 126.186 9.35986 126.037 9.07031C125.887 8.79234 125.784 8.51439 125.715 8.21326C125.646 7.93529 125.634 7.63415 125.669 7.33302C125.772 6.62652 126.059 6.10532 126.565 5.7347C127.094 5.34092 127.669 5.15561 128.313 5.15561C128.933 5.15561 129.393 5.31776 129.715 5.65364C130.025 5.97793 130.129 6.40646 130.06 6.98555C130.06 6.98555 130.06 6.98557 130.06 6.99715C130.014 7.4141 129.876 7.7963 129.669 8.1206C129.439 8.46806 129.163 8.79234 128.841 9.07031C128.485 9.34827 128.117 9.61466 127.726 9.8463ZM129.336 19.633C129.106 19.8763 128.864 20.1079 128.612 20.328C128.255 20.6407 127.887 20.9302 127.496 21.1734C127.117 21.4167 126.703 21.6136 126.278 21.7641C125.462 22.0537 124.519 22.0768 123.749 21.7294C123.37 21.5557 123.048 21.324 122.772 21.0229C122.507 20.7218 122.3 20.3627 122.162 19.9573C122.025 19.552 121.99 19.1234 122.036 18.6602C122.105 18.1621 122.254 17.7104 122.484 17.3282C122.726 16.9229 123.025 16.5523 123.37 16.228C123.726 15.8921 124.128 15.5909 124.554 15.313C124.875 15.1045 125.209 14.9076 125.531 14.7107L129.336 19.633Z" fill="#A871FF"/>
</svg>
