<svg width="20" height="21" viewBox="0 0 20 21" fill="none" xmlns="http://www.w3.org/2000/svg">
<circle cx="10" cy="10.0039" r="10" fill="#214FF1"/>
<path d="M2.98 15.0039H17.02C18.3032 13.4753 19.0018 11.5731 19 9.61267C19 4.86709 14.9725 1.00391 10 1.00391C5.0275 1.00391 1 4.86709 1 9.61267C1 11.6573 1.7425 13.5189 2.98 15.0039ZM8.875 3.1561C8.875 2.56424 9.38125 2.08 10 2.08C10.6187 2.08 11.125 2.56424 11.125 3.1561C11.125 3.75871 10.6187 4.23219 10 4.23219C9.38125 4.23219 8.875 3.75871 8.875 3.1561ZM3.25 5.30829C3.25 4.71644 3.75625 4.23219 4.375 4.23219C4.99375 4.23219 5.5 4.71644 5.5 5.30829C5.5 5.9109 4.99375 6.38438 4.375 6.38438C3.75625 6.38438 3.25 5.9109 3.25 5.30829ZM8.335 8.96701C9.28 8.07385 15.6587 5.20068 15.6587 5.20068C15.6587 5.20068 12.6662 11.3129 11.7325 12.2061C10.7875 13.11 9.28 13.11 8.335 12.2061C7.8864 11.7763 7.63443 11.1938 7.63443 10.5865C7.63443 9.97924 7.8864 9.39676 8.335 8.96701ZM2.125 10.6888C2.125 10.0969 2.63125 9.61267 3.25 9.61267C3.86875 9.61267 4.375 10.0969 4.375 10.6888C4.375 11.2914 3.86875 11.7649 3.25 11.7649C2.63125 11.7649 2.125 11.2914 2.125 10.6888ZM8.875 10.6888C8.875 10.0969 9.38125 9.61267 10 9.61267C10.6187 9.61267 11.125 10.0969 11.125 10.6888C11.125 11.2914 10.6187 11.7649 10 11.7649C9.38125 11.7649 8.875 11.2914 8.875 10.6888ZM15.625 10.6888C15.625 10.0969 16.1312 9.61267 16.75 9.61267C17.3687 9.61267 17.875 10.0969 17.875 10.6888C17.875 11.2914 17.3687 11.7649 16.75 11.7649C16.1312 11.7649 15.625 11.2914 15.625 10.6888Z" fill="white"/>
</svg>
