<svg width="156" height="29" viewBox="0 0 156 29" fill="none" xmlns="http://www.w3.org/2000/svg">
<path d="M48.6226 1.20312H60.0294C62.9113 1.20312 63.6544 1.28771 64.5788 1.75896C66.059 2.49605 66.5846 3.87356 66.5121 6.71317C66.4396 9.55277 65.908 11.0692 64.6392 11.8365C63.7511 12.3803 62.7421 12.5374 60.1502 12.5434H52.8579L52.7612 16.241H48.248L48.6226 1.20312ZM59.5461 8.84589C61.4009 8.84589 61.9627 8.43506 61.9627 7.03338C62.005 5.22086 61.57 4.82815 59.6246 4.82815H53.021L52.9243 8.86402L59.5461 8.84589Z" fill="#47B75A"/>
<path d="M86.2209 1.20578C88.5107 1.6287 89.5983 2.81892 89.846 5.23561C89.9343 6.44194 89.9484 7.65257 89.8883 8.86063C89.7976 12.4857 89.3808 13.9598 88.0757 15.0232C87.1634 15.7905 85.9007 16.153 83.7257 16.2315C82.9222 16.2799 80.9284 16.304 79.4965 16.3101C75.9379 16.3101 74.1254 16.2497 73.2373 16.0684C71.5879 15.7784 70.6454 15.1501 70.1137 14.0444C69.5821 12.9388 69.4491 11.8392 69.5096 8.54647C69.57 6.02103 69.6304 5.38665 69.9264 4.37164C70.1003 3.64391 70.4761 2.98004 71.0105 2.45633C71.5449 1.93263 72.2162 1.57037 72.9473 1.4112C74.2523 1.08495 75.6238 0.988281 79.5569 0.988281C83.8526 0.988281 85.1878 1.02453 86.2209 1.20578ZM74.9773 5.21748C74.3731 5.69478 74.1677 6.42582 74.1133 8.60084C74.059 10.7759 74.216 11.6217 74.7658 12.099C75.3156 12.5763 76.089 12.7032 79.5146 12.673C83.4297 12.673 84.2393 12.534 84.7709 11.809C85.2059 11.2652 85.3388 10.4979 85.3751 8.49209C85.4718 4.70394 85.3751 4.66164 79.8107 4.66769C76.4938 4.66769 75.5694 4.78248 74.9773 5.21748Z" fill="#47B75A"/>
<path d="M93.6473 1.12005H98.1846L98.0457 6.7328H100.414L106.752 1.10193L112.981 1.08984L104.244 8.54532L113.446 16.1277H106.848L100.257 10.3639H97.9792L97.8342 16.1398H93.2969L93.6473 1.12005Z" fill="#47B75A"/>
<path d="M133.014 1.0625L132.917 4.46398H120.834V7.08005H132.198L132.096 10.0526H120.731L120.665 12.717H132.881L132.797 16.0943H116.109L116.484 1.08667L133.014 1.0625Z" fill="#47B75A"/>
<path d="M136.543 1.05859H149.406C152.04 1.05859 153.2 1.28214 154.034 2.0011C154.868 2.72007 155.242 3.98278 155.206 6.0128C155.14 8.81011 154.439 9.91575 152.529 10.3447C154.378 10.6589 154.916 11.4443 154.813 13.722L154.753 16.0904H150.149L150.191 14.2235C150.191 12.5983 149.774 12.2599 147.738 12.3083H140.778L140.67 16.0964H136.15L136.543 1.05859ZM147.962 8.61678C150.155 8.61678 150.584 8.33886 150.62 6.8526C150.62 5.87988 150.566 5.47509 150.282 5.16092C149.998 4.84675 149.581 4.73196 148.216 4.738H140.966L140.869 8.61678H147.962Z" fill="#47B75A"/>
<path d="M60.4459 25.2353C60.3915 26.643 60.3371 27.1142 60.1196 27.5492C59.7269 28.3769 58.9113 28.7576 57.4371 28.8663C56.8329 28.9267 55.6971 28.9388 53.8121 28.9388C51.045 28.9388 50.1871 28.8119 49.3956 28.3347C48.4591 27.7305 48.1873 26.7155 48.29 23.8517C48.3564 21.3081 48.6645 20.3958 49.6916 19.8219C50.5677 19.3144 51.5042 19.1875 54.1867 19.1875C57.7694 19.1875 58.5427 19.254 59.3523 19.6588C60.1619 20.0635 60.4157 20.8731 60.4157 22.2929V22.6071H57.5882C57.5882 21.5559 57.3465 21.4652 54.815 21.4652C52.3983 21.4652 51.9875 21.5256 51.6189 21.8398C51.2504 22.154 51.1839 22.5527 51.1416 24.1115C51.0812 26.4255 51.2927 26.6007 54.1021 26.6007C56.2771 26.6007 56.5913 26.6007 57.0021 26.4073C57.4129 26.214 57.6063 25.9301 57.6063 25.2413L60.4459 25.2353Z" fill="#317049"/>
<path d="M73.3106 19.2619C74.7909 19.5398 75.4857 20.3071 75.6488 21.8538C75.695 22.6325 75.695 23.4132 75.6488 24.1919C75.5884 26.518 75.3165 27.4605 74.4767 28.1372C73.8725 28.6326 73.081 28.8622 71.6794 28.9166C71.1598 28.9468 69.8669 28.9649 68.9425 28.9649C67.599 29.0166 66.2536 28.962 64.9187 28.8018C64.4994 28.7787 64.0933 28.6468 63.7405 28.419C63.3877 28.1912 63.1004 27.8755 62.9068 27.5028C62.5503 26.7959 62.4839 26.089 62.5383 23.9744C62.4989 23.0758 62.5905 22.1762 62.8101 21.304C62.925 20.8337 63.1712 20.4057 63.5198 20.0698C63.8685 19.734 64.3055 19.5041 64.7797 19.4069C65.5893 19.1773 66.4714 19.1229 69.0089 19.1229C70.4443 19.0631 71.8821 19.1095 73.3106 19.2619ZM66.0606 21.8236C65.6618 22.1257 65.535 22.603 65.4987 23.9926C65.4624 25.3822 65.5591 25.9259 65.9095 26.234C66.26 26.5422 66.7675 26.6086 68.9666 26.6086C71.486 26.6086 71.9875 26.518 72.35 26.0588C72.634 25.7084 72.7185 25.219 72.7548 23.9321C72.8213 21.5155 72.7548 21.4732 69.1781 21.4732C67.0635 21.4732 66.4593 21.5275 66.0787 21.8236H66.0606Z" fill="#317049"/>
<path d="M82.239 19.2227H86.1541L91.1506 28.8894H87.9545L87.0543 27.1675H80.8615L79.8948 28.8894H76.584L82.239 19.2227ZM86.0816 25.1556L84.112 21.3131L81.9671 25.1556H86.0816Z" fill="#317049"/>
<path d="M104.523 25.2335C104.474 26.6352 104.414 27.1125 104.202 27.5475C103.81 28.3691 102.994 28.7558 101.52 28.8585C100.916 28.9189 99.7739 28.931 97.8587 28.931C95.0976 28.931 94.2337 28.8041 93.4422 28.3268C92.5118 27.7227 92.2339 26.7077 92.3366 23.8499C92.403 21.3064 92.7172 20.3941 93.7382 19.8141C94.6203 19.3126 95.5508 19.1797 98.2333 19.1797C101.822 19.1797 102.595 19.2522 103.405 19.657C104.215 20.0618 104.511 20.8653 104.474 22.3153V22.6355H101.683C101.653 21.5782 101.441 21.4937 98.9039 21.4937C96.5174 21.4937 96.0824 21.548 95.7139 21.8683C95.3453 22.1885 95.2789 22.5751 95.2366 24.1339C95.1762 26.4479 95.3876 26.6231 98.191 26.6231C100.366 26.6231 100.686 26.6231 101.091 26.4358C101.496 26.2485 101.695 25.9585 101.695 25.2637L104.523 25.2335Z" fill="#317049"/>
<path d="M106.938 19.2227H109.862L109.771 22.7933H116.417L116.514 19.2287H119.438L119.184 28.8954H116.242L116.339 25.21H109.693L109.596 28.8954H106.672L106.938 19.2227Z" fill="#317049"/>
<path d="M121.91 19.2227H124.828L124.575 28.8894H121.65L121.91 19.2227Z" fill="#317049"/>
<path d="M127.336 19.2227H131.982L137.607 26.5513L137.728 19.2227H140.495L140.241 28.8894H135.547L130.006 21.6393L129.886 28.8894H127.076L127.336 19.2227Z" fill="#317049"/>
<path d="M152.323 22.4875C152.323 21.7323 152.021 21.4483 151.115 21.4181H150.438H149.399H148.336C147.753 21.362 147.165 21.3905 146.59 21.5027C146.35 21.5428 146.132 21.6668 145.975 21.8527C145.817 22.0386 145.731 22.2743 145.732 22.5177C145.661 23.1032 145.62 23.6921 145.611 24.2819C145.575 25.5808 145.696 26.0944 146.088 26.3723C146.543 26.6253 147.062 26.7368 147.581 26.6925C147.895 26.6925 147.895 26.6925 149.695 26.6925C151.61 26.6925 151.973 26.6079 152.233 25.9735C152.273 25.7972 152.291 25.6166 152.287 25.4358V25.2183H148.565L148.614 23.4058H155.163L155.127 24.735C155.175 25.6385 155.069 26.5437 154.813 27.4115C154.456 28.3056 153.767 28.7406 152.559 28.8736C152.257 28.8736 151.351 28.9159 148.541 28.9159C147.32 28.9746 146.096 28.916 144.886 28.7406C144.457 28.6928 144.048 28.5308 143.703 28.2715C143.358 28.0122 143.088 27.6652 142.922 27.2665C142.657 26.614 142.602 25.9373 142.651 24.1429C142.705 22.0766 142.838 21.255 143.255 20.5783C143.672 19.9016 144.397 19.4545 145.605 19.2793C146.822 19.168 148.044 19.1237 149.266 19.1464C151.888 19.1464 152.722 19.1887 153.32 19.3337C154.794 19.7083 155.254 20.4635 155.181 22.4875H152.323Z" fill="#317049"/>
<path d="M28.2813 28.9614C27.1938 25.8016 25.5142 17.4822 33.4832 8.36521C33.4832 8.36521 11.2195 9.96023 0.0725006 28.9493H0C5.33483 6.64937 44.5395 0.988281 44.5395 0.988281C30.7402 15.8388 38.238 28.9675 38.238 28.9675L28.2813 28.9614Z" fill="url(#paint0_linear_10191_23877)"/>
<defs>
<linearGradient id="paint0_linear_10191_23877" x1="8.36777" y1="37.3111" x2="44.6181" y2="1.06078" gradientUnits="userSpaceOnUse">
<stop stop-color="#1C492B"/>
<stop offset="0.4" stop-color="#336B34"/>
<stop offset="0.44" stop-color="#367539"/>
<stop offset="0.58" stop-color="#3D9247"/>
<stop offset="0.73" stop-color="#43A652"/>
<stop offset="0.87" stop-color="#46B358"/>
<stop offset="1" stop-color="#47B75A"/>
</linearGradient>
</defs>
</svg>
