<svg width="16" height="16" viewBox="0 0 16 16" fill="none" xmlns="http://www.w3.org/2000/svg">
<path d="M9.4 1.89221C9.4 1.40151 9.0024 1.00391 8.5117 1.00391H7.489C6.9976 1.00391 6.6 1.40151 6.6 1.89221C6.6 2.29681 6.3228 2.64401 5.9455 2.79241C5.886 2.81621 5.8265 2.84141 5.7684 2.86661C5.3967 3.02761 4.955 2.97861 4.668 2.69231C4.50143 2.52585 4.27558 2.43235 4.0401 2.43235C3.80462 2.43235 3.57877 2.52585 3.4122 2.69231L2.6884 3.41611C2.52195 3.58268 2.42845 3.80852 2.42845 4.04401C2.42845 4.27949 2.52195 4.50534 2.6884 4.67191C2.9754 4.95891 3.0244 5.39991 2.862 5.77231C2.83648 5.83091 2.81198 5.88995 2.7885 5.94941C2.6401 6.32671 2.2929 6.60391 1.8883 6.60391C1.3976 6.60391 1 7.00151 1 7.49221V8.51561C1 9.00631 1.3976 9.40391 1.8883 9.40391C2.2929 9.40391 2.6401 9.68111 2.7885 10.0584C2.8123 10.1179 2.8375 10.1774 2.862 10.2355C3.0237 10.6072 2.9747 11.0489 2.6884 11.3359C2.52195 11.5025 2.42845 11.7283 2.42845 11.9638C2.42845 12.1993 2.52195 12.4251 2.6884 12.5917L3.4122 13.3155C3.57877 13.482 3.80462 13.5755 4.0401 13.5755C4.27558 13.5755 4.50143 13.482 4.668 13.3155C4.955 13.0285 5.396 12.9795 5.7684 13.1412C5.8265 13.1671 5.886 13.1916 5.9455 13.2154C6.3228 13.3638 6.6 13.711 6.6 14.1156C6.6 14.6063 6.9976 15.0039 7.4883 15.0039H8.5117C9.0024 15.0039 9.4 14.6063 9.4 14.1156C9.4 13.711 9.6772 13.3638 10.0545 13.2147C10.114 13.1916 10.1735 13.1671 10.2316 13.1419C10.6033 12.9795 11.045 13.0292 11.3313 13.3155C11.4138 13.398 11.5117 13.4635 11.6195 13.5082C11.7273 13.5528 11.8429 13.5758 11.9595 13.5758C12.0762 13.5758 12.1918 13.5528 12.2996 13.5082C12.4074 13.4635 12.5053 13.398 12.5878 13.3155L13.3116 12.5917C13.4781 12.4251 13.5716 12.1993 13.5716 11.9638C13.5716 11.7283 13.4781 11.5025 13.3116 11.3359C13.0246 11.0489 12.9756 10.6079 13.1373 10.2355C13.1632 10.1774 13.1877 10.1179 13.2115 10.0584C13.3599 9.68111 13.7071 9.40391 14.1117 9.40391C14.6024 9.40391 15 9.00631 15 8.51561V7.49291C15 7.00221 14.6024 6.60461 14.1117 6.60461C13.7071 6.60461 13.3599 6.32741 13.2108 5.95011C13.1873 5.89064 13.1628 5.8316 13.1373 5.77301C12.9763 5.40131 13.0253 4.95961 13.3116 4.67261C13.4781 4.50604 13.5716 4.28019 13.5716 4.04471C13.5716 3.80922 13.4781 3.58338 13.3116 3.41681L12.5878 2.69301C12.4212 2.52655 12.1954 2.43305 11.9599 2.43305C11.7244 2.43305 11.4986 2.52655 11.332 2.69301C11.045 2.98001 10.604 3.02901 10.2316 2.86731C10.173 2.84155 10.114 2.81681 10.0545 2.79311C9.6772 2.64401 9.4 2.29681 9.4 1.89291V1.89221Z" fill="#2CC7D1" stroke="white"/>
<path d="M10.7992 8.00312C10.7992 8.74573 10.5042 9.45792 9.97912 9.98302C9.45402 10.5081 8.74182 10.8031 7.99922 10.8031C7.25661 10.8031 6.54442 10.5081 6.01932 9.98302C5.49422 9.45792 5.19922 8.74573 5.19922 8.00312C5.19922 7.26052 5.49422 6.54833 6.01932 6.02323C6.54442 5.49812 7.25661 5.20313 7.99922 5.20312C8.74182 5.20313 9.45402 5.49812 9.97912 6.02323C10.5042 6.54833 10.7992 7.26052 10.7992 8.00312Z" fill="#2CC7D1" stroke="white"/>
</svg>
