<svg width="126" height="39" viewBox="0 0 126 39" fill="none" xmlns="http://www.w3.org/2000/svg">
<path d="M54.6789 38.9019C54.7373 38.6485 54.5085 38.5628 54.3797 38.4343C51.4535 35.5195 48.4951 32.6237 45.8299 29.4519C45.7525 29.3528 45.6516 29.2746 45.5363 29.2243C45.421 29.174 45.2949 29.1533 45.1695 29.164C44.0181 29.1771 42.8667 29.1925 41.7129 29.158C41.2695 29.1437 41.2015 29.2984 41.2111 29.691C41.2385 30.7963 41.2111 31.9039 41.2278 33.0092C41.2278 33.3328 41.1586 33.4577 40.8082 33.4446C40.0346 33.4184 39.2587 33.4244 38.4863 33.4446C38.199 33.4446 38.118 33.3613 38.1192 33.0782C38.1299 30.8463 38.137 28.6131 38.1192 26.3812C38.1192 25.9053 38.4064 26.01 38.6639 26.0112C41.8964 26.0263 45.129 26.0429 48.3616 26.0612C49.7335 26.0683 49.8623 25.9303 49.8265 24.5335C49.8003 23.5223 49.5523 23.3438 48.6405 23.3593C46.0182 23.3926 43.3959 23.3807 40.7832 23.3676C39.1621 23.3593 38.1215 22.2754 38.1203 20.6681C38.1203 20.3469 38.2217 20.2814 38.522 20.2826C42.173 20.2922 45.8239 20.2731 49.4737 20.2981C50.7383 20.3064 51.6192 21.0215 52.2581 22.0506C53.3678 23.8352 53.1985 26.2955 51.8683 27.9171C51.3593 28.5382 50.9267 28.8094 49.842 29.1723C50.2484 29.6303 50.6311 30.0717 51.022 30.506C52.7444 32.4096 54.4787 34.3131 56.1867 36.231C56.2725 36.336 56.3821 36.4191 56.5065 36.4733C56.6309 36.5275 56.7664 36.5513 56.9019 36.5427C77.5576 36.5379 98.2129 36.5347 118.868 36.5332C121.469 36.5332 123.564 34.3916 123.55 31.8813C123.501 23.6436 123.481 15.4047 123.562 7.16825C123.587 4.61271 121.614 2.30582 118.64 2.30582C108.74 2.30582 98.8391 2.30582 88.938 2.30582C88.8027 2.29701 88.6672 2.31936 88.542 2.37114C88.4167 2.42292 88.3051 2.50274 88.2156 2.60444C85.3335 5.65015 82.4422 8.68674 79.5418 11.7142C79.276 11.9914 79.3344 12.1318 79.5776 12.3697C81.5324 14.2781 83.4792 16.1943 85.4181 18.1185C85.554 18.253 85.6816 18.3969 85.8949 18.6253C84.4646 18.6253 83.1534 18.6253 81.8316 18.6253C81.617 18.6253 81.5133 18.4921 81.3905 18.3707C79.7719 16.7706 78.1449 15.1787 76.5405 13.563C75.5094 12.5256 75.4963 11.5405 76.4559 10.4983C79.4842 7.21464 82.5122 3.9294 85.5397 0.642577C85.7187 0.429127 85.945 0.260173 86.2007 0.149082C86.4564 0.0379899 86.7345 -0.0121925 87.013 0.00250202C97.6285 0.0247103 108.244 0.0302623 118.858 0.0191582C122.154 0.0191582 125.011 2.17852 125.826 5.24088C125.878 5.43481 125.768 5.68703 126 5.82742V33.2126C125.836 33.2483 125.887 33.3923 125.859 33.4958C125.121 36.1667 123.364 37.8181 120.733 38.6116C120.273 38.7496 119.78 38.6866 119.337 38.9031L54.6789 38.9019Z" fill="#525252"/>
<path d="M6.45582 38.9063C5.80025 38.6684 5.10296 38.5994 4.44262 38.3495C2.06945 37.4501 -0.0248088 34.9196 0.000222111 31.9036C0.0693552 23.5676 0.0693552 15.2307 0.000222111 6.89309C-0.0248088 3.70224 2.46398 0.768365 5.75853 0.138998C6.22527 0.0544041 6.69904 0.014565 7.17338 0.0200249H19.8557H81.6548H82.4426C81.6905 0.806436 81.0123 1.53217 80.315 2.23411C80.1184 2.43161 79.8204 2.33286 79.5677 2.33286C68.2974 2.33286 57.0271 2.33286 45.7568 2.33286C32.9982 2.33286 20.2395 2.33286 7.4809 2.33286C5.66675 2.33286 4.21258 2.99078 3.18988 4.49936C2.72881 5.19274 2.49322 6.0112 2.51524 6.84312C2.52716 15.2188 2.54742 23.5957 2.50332 31.9714C2.49378 33.8 3.80374 35.8809 6.20671 36.4055C6.6132 36.4897 7.02764 36.5296 7.44276 36.5245C20.9563 36.5197 34.469 36.5146 47.981 36.509C48.5114 36.509 48.8606 36.6566 49.1729 37.0742C49.5532 37.5762 50.0073 38.0259 50.4293 38.4947C50.5306 38.6137 50.6855 38.6981 50.6295 38.8921L6.45582 38.9063Z" fill="#F27C22"/>
<path d="M13.2366 5.46098C15.1021 5.46098 16.9675 5.46098 18.8317 5.46098C19.1893 5.46098 19.3704 5.4467 19.343 5.95234C19.2393 7.84877 17.9329 8.58045 16.5431 8.56974C13.8016 8.54595 11.0661 8.5626 8.32819 8.56379C7.57369 8.56379 7.40205 8.74225 7.39966 9.51558C7.39728 10.2889 7.56415 10.4602 8.32462 10.4602C10.8849 10.4602 13.45 10.5316 16.0032 10.4412C18.3871 10.3567 20.1821 12.3388 19.9724 14.9074C19.8115 16.8741 18.6982 18.1732 16.9484 18.5694C16.7362 18.6158 16.5195 18.6385 16.3023 18.6372C12.6526 18.6372 9.00165 18.6372 5.3507 18.6491C4.91921 18.6491 4.75472 18.5885 4.84054 18.0971C5.16714 16.2637 6.11713 15.4916 8.1649 15.4856C10.724 15.4785 13.2903 15.4856 15.8434 15.4856C16.1653 15.4856 16.5443 15.582 16.7112 15.1608C16.8018 14.9532 16.8449 14.7279 16.8373 14.5015C16.8296 14.2751 16.7715 14.0533 16.6671 13.8521C16.5062 13.5452 16.1903 13.6273 15.9197 13.6273C13.3606 13.6273 10.8003 13.6273 8.24118 13.6273C6.30426 13.6273 4.89418 12.6089 4.36376 10.8481C3.8107 9.01589 4.51157 6.96004 6.02534 5.98922C6.50027 5.66195 7.06452 5.48834 7.64163 5.49191C7.80016 5.49191 7.95869 5.48001 8.11841 5.48001L13.2366 5.46098Z" fill="#F27C22"/>
<path d="M10.907 33.4507C9.08217 33.4507 7.2561 33.4305 5.43122 33.4626C4.89961 33.4709 4.75062 33.371 4.85789 32.813C5.16065 31.22 5.98548 30.4597 7.61726 30.3645C10.3516 30.2039 13.0883 30.3324 15.8238 30.2943C16.7309 30.2813 17.135 29.546 16.7023 28.7299C16.5045 28.3622 16.1755 28.4312 15.8679 28.4312C13.2874 28.4241 10.708 28.4312 8.12861 28.4312C6.04388 28.4312 4.44071 27.0036 4.19517 24.9287C3.94367 22.78 5.14873 20.8836 7.07612 20.3601C7.28752 20.3094 7.50488 20.2878 7.72215 20.2959C11.4172 20.2959 15.1039 20.2959 18.7954 20.2852C19.2495 20.2852 19.3771 20.3613 19.327 20.861C19.1613 22.5004 18.2411 23.3796 16.5772 23.3808C13.8381 23.3808 11.0993 23.3808 8.36104 23.3808C8.01895 23.3808 7.64587 23.3511 7.49211 23.7318C7.40715 23.9306 7.36396 24.1446 7.36519 24.3607C7.36642 24.5768 7.41205 24.7904 7.49926 24.9882C7.63872 25.3082 7.93432 25.2761 8.21443 25.2761C10.7938 25.2761 13.3756 25.3356 15.9526 25.2582C18.4676 25.1821 20.1745 27.2534 19.9635 29.7554C19.8026 31.6828 18.7072 32.9677 17.0253 33.3936C16.7734 33.4456 16.5159 33.466 16.2589 33.4543C14.4773 33.4543 12.6934 33.4531 10.907 33.4507Z" fill="#F27C22"/>
<path d="M115.142 20.2923C117.007 20.2923 118.873 20.3018 120.738 20.2852C121.133 20.2852 121.245 20.3708 121.181 20.7837C120.895 22.6801 120.109 23.3749 118.171 23.3749C115.492 23.3749 112.813 23.3749 110.134 23.3749C109.409 23.3749 109.2 23.595 109.2 24.3445C109.2 25.094 109.379 25.2784 110.144 25.2784C112.684 25.2784 115.225 25.3296 117.763 25.2654C120.481 25.1975 122.022 27.4438 121.791 29.8066C121.605 31.7137 120.466 33.0224 118.779 33.3793C118.565 33.4204 118.348 33.4395 118.13 33.4364C114.499 33.4364 110.868 33.4293 107.237 33.4519C106.768 33.4519 106.675 33.3198 106.703 32.8915C106.793 31.4638 107.829 30.4097 109.349 30.3812C112.09 30.3288 114.825 30.3431 117.562 30.3324C118.535 30.3324 118.753 30.0481 118.647 29.0749C118.582 28.4955 118.24 28.3824 117.749 28.3836C115.126 28.3836 112.504 28.3289 109.891 28.4039C107.718 28.4657 105.877 26.5693 106.044 24.1006C106.176 22.1328 107.302 20.7694 108.958 20.3601C109.269 20.2987 109.587 20.2756 109.903 20.2911C111.65 20.2919 113.396 20.2923 115.142 20.2923Z" fill="#525252"/>
<path d="M45.9974 5.47255C47.3086 5.47255 48.6197 5.44281 49.9237 5.47969C50.9708 5.51679 51.9631 5.9562 52.6934 6.70618C53.4237 7.45616 53.8355 8.45872 53.8428 9.50454C53.8428 11.144 53.782 12.7858 53.8595 14.4217C53.9537 16.4109 52.3314 18.5453 49.7628 18.6083C47.2442 18.6702 44.7232 18.6595 42.2034 18.6083C39.8624 18.5643 38.1281 16.731 38.127 14.405C38.127 12.7656 38.127 11.1261 38.127 9.4867C38.1353 7.37017 39.8958 5.5368 42.0115 5.47731C43.3394 5.44281 44.6696 5.47374 45.9974 5.47255ZM45.9867 8.55514C44.8174 8.55514 43.6481 8.55514 42.48 8.55514C41.5884 8.55514 41.226 8.92039 41.2236 9.81268C41.2236 11.2721 41.2236 12.7315 41.2236 14.1909C41.2236 15.1427 41.5335 15.477 42.4895 15.5079C43.2047 15.5317 43.9198 15.5139 44.629 15.5139C46.2334 15.5139 47.8378 15.5246 49.4421 15.5139C50.4338 15.5043 50.7533 15.1665 50.7533 14.1861C50.7533 12.7275 50.7533 11.2677 50.7533 9.80793C50.7533 8.90492 50.4112 8.56466 49.4994 8.5599C48.3241 8.55157 47.1607 8.55514 45.9867 8.55514Z" fill="#525252"/>
<path d="M61.4437 20.2926H66.6823C68.6753 20.2926 69.9185 21.1659 70.5061 23.0849C71.0115 24.7327 70.8566 26.315 69.8005 27.7474C69.0937 28.7076 68.1461 29.1751 66.9505 29.1751C64.209 29.1751 61.4747 29.1823 58.7368 29.1644C58.3315 29.1644 58.1944 29.2441 58.2076 29.6736C58.2409 30.7586 58.198 31.8472 58.229 32.9323C58.2409 33.3618 58.0955 33.4665 57.6902 33.4498C56.9751 33.4189 56.2599 33.4165 55.5447 33.4498C55.1359 33.4688 55.0513 33.3201 55.0548 32.9454C55.0703 30.8122 55.0775 28.6778 55.0548 26.5446C55.0489 26.0687 55.2146 25.9985 55.6365 26.0021C59.2457 26.0354 62.8562 26.0473 66.4654 26.064C67.3808 26.064 67.5775 25.8903 67.6502 24.9932C67.6654 24.6976 67.6454 24.4013 67.5906 24.1104C67.5 23.562 67.214 23.3621 66.6537 23.3657C63.7573 23.3859 60.8608 23.3764 57.9632 23.3752C56.1419 23.3752 55.1192 22.3734 55.0656 20.5841C55.0548 20.1986 55.304 20.2962 55.4923 20.2962C57.4757 20.2938 59.4595 20.2926 61.4437 20.2926Z" fill="#525252"/>
<path d="M70.848 15.4332C70.5726 17.1357 69.3461 18.5039 67.6452 18.542C64.6987 18.6098 61.7391 18.7799 58.7985 18.5206C56.6721 18.3361 55.2489 16.8918 55.1035 14.7824C54.9724 12.8396 54.9235 10.8718 55.1464 8.92896C55.3776 6.90642 57.1465 5.45852 59.2205 5.45257C61.4455 5.44623 63.6669 5.44266 65.8847 5.44187C67.3723 5.44187 68.8646 5.45971 70.3474 5.42997C70.8098 5.42164 70.8373 5.59891 70.7145 5.94155C70.2472 7.25025 69.0171 8.62082 67.1672 8.57323C64.6093 8.50898 62.0502 8.55063 59.4911 8.54944C58.5077 8.54944 58.2157 8.83735 58.2145 9.81174C58.2145 11.2727 58.2145 12.7341 58.2145 14.1959C58.2145 15.1727 58.5006 15.463 59.4899 15.4618C63.0594 15.457 66.6297 15.4475 70.2008 15.4332H70.848Z" fill="#525252"/>
<path d="M21.1849 11.117C21.1849 9.41925 21.1956 7.72032 21.1777 6.02139C21.1777 5.61331 21.2361 5.44436 21.7153 5.46221C23.3995 5.52408 24.3066 6.41994 24.3066 8.09865C24.3066 8.74943 24.3173 9.40141 24.3066 10.0534C24.2995 10.3318 24.3328 10.4734 24.6785 10.4722C27.6147 10.4579 30.5508 10.4579 33.487 10.4722C33.8315 10.4722 33.8613 10.333 33.8601 10.0546C33.8482 8.6721 33.8696 7.28844 33.8446 5.90717C33.8387 5.53359 33.9412 5.45864 34.3047 5.46578C36.0843 5.49909 37.0259 6.41756 37.0283 8.17718C37.0283 11.4751 37.0176 14.7742 37.0426 18.0722C37.0426 18.5754 36.8757 18.6611 36.43 18.6147C34.6098 18.4243 33.8541 17.6153 33.8541 15.8129C33.8541 15.2002 33.841 14.5874 33.8541 13.9759C33.8637 13.6797 33.7886 13.5631 33.462 13.5643C30.5465 13.5762 27.6302 13.5762 24.7131 13.5643C24.3495 13.5643 24.2971 13.7047 24.2995 14.0152C24.3126 15.3976 24.2899 16.7801 24.315 18.1626C24.3233 18.5754 24.1862 18.6504 23.8036 18.6182C22.0026 18.4683 21.2004 17.645 21.1813 15.8593C21.1765 14.2781 21.1849 12.6981 21.1849 11.117Z" fill="#525252"/>
<path d="M21.1837 25.3155C21.1837 23.814 21.198 22.3126 21.1741 20.8111C21.1682 20.4138 21.2433 20.2698 21.6843 20.2877C23.4055 20.359 24.3066 21.2585 24.3066 22.9717C24.3066 25.0466 24.3066 27.1203 24.3066 29.1952C24.3066 30.1707 24.4258 30.2826 25.3972 30.2826H32.7194C33.7671 30.2826 33.8482 30.2017 33.8482 29.1214C33.8482 26.3553 33.8613 23.5904 33.8363 20.8242C33.8363 20.3626 33.9614 20.2674 34.3965 20.2877C35.971 20.3614 36.9687 21.1681 36.9961 22.6992C37.0414 25.1441 37.1606 27.5985 36.9306 30.0399C36.741 32.0553 35.1426 33.4199 33.1163 33.4234C30.5763 33.4234 28.0338 33.364 25.4974 33.4639C22.6057 33.5781 21.1312 31.4782 21.1753 29.1678C21.2051 27.8841 21.1837 26.6004 21.1837 25.3155Z" fill="#525252"/>
<path d="M89.0513 25.2549C89.0513 23.7737 89.0656 22.2913 89.043 20.8101C89.043 20.4139 89.1085 20.2688 89.5507 20.2866C91.2695 20.3568 92.173 21.2491 92.1802 22.9671C92.1885 25.0408 92.1802 27.1145 92.1802 29.1893C92.1802 30.1209 92.3077 30.3124 93.1993 30.322C95.8383 30.3505 98.4773 30.3386 101.115 30.3315C101.748 30.3315 101.821 29.8627 101.822 29.3797C101.827 26.9693 101.827 24.5593 101.822 22.1497C101.822 21.6952 101.854 21.2372 101.812 20.7875C101.771 20.3378 101.964 20.2604 102.352 20.2973C103.886 20.4401 105.008 21.1301 104.964 22.9968C104.914 25.13 104.954 27.2644 104.952 29.3975C104.952 31.846 103.352 33.4426 100.914 33.4426C98.3144 33.4426 95.7151 33.4426 93.1159 33.4426C90.7463 33.4426 89.2253 32.0042 89.0787 29.6355C89.0704 29.4987 89.0489 29.3607 89.0489 29.2227C89.0497 27.9013 89.0505 26.5787 89.0513 25.2549Z" fill="#525252"/>
<path d="M117.824 10.8236C118.53 9.591 119.579 9.0699 120.697 9.35306C121.854 9.64692 122.631 10.5904 122.652 11.7325C122.654 12.2783 122.476 12.8096 122.146 13.2445C121.815 13.6793 121.35 13.9933 120.823 14.1381C119.618 14.4725 118.603 14.0061 117.831 12.7331C117.402 13.968 116.626 14.8377 115.376 15.2315C115.038 15.343 114.684 15.402 114.328 15.4064C111.889 15.4151 109.451 15.4219 107.012 15.4266C106.774 15.4266 106.535 15.4932 106.438 15.1113C106.343 14.7651 105.977 14.8805 105.722 14.9793C104.788 15.3362 104.751 15.3207 104.361 14.3249C103.629 12.4594 102.931 10.582 102.192 8.71893C102.039 8.33346 102.089 8.21092 102.518 8.21211C106.564 8.21211 110.609 8.17403 114.655 8.22876C116.06 8.2478 117.02 9.11273 117.635 10.3465C117.704 10.4833 117.75 10.6344 117.824 10.8236ZM113.772 9.4994C113.176 9.4994 112.58 9.4994 111.984 9.4994C111.354 9.50772 110.941 9.83133 110.746 10.4167C110.411 11.4208 111.016 12.3012 112.095 12.3417C112.946 12.375 113.799 12.3512 114.651 12.3488C114.89 12.3488 115.142 12.3191 115.151 12.6784C115.159 13.0376 114.919 13.0662 114.637 13.0638C113.745 13.0555 112.849 13.0567 111.961 13.0638C111.471 13.0638 111.068 13.209 110.919 13.7503C110.844 14.0204 110.862 14.1393 111.196 14.1346C112.388 14.1179 113.58 14.1429 114.763 14.1239C114.952 14.1276 115.14 14.0932 115.315 14.0228C115.49 13.9523 115.649 13.8473 115.783 13.714C115.917 13.5807 116.022 13.4218 116.092 13.2469C116.163 13.072 116.197 12.8847 116.194 12.6962C116.194 11.8634 115.598 11.2899 114.707 11.284C113.855 11.284 113.003 11.2709 112.151 11.284C111.818 11.2899 111.682 11.184 111.701 10.8438C111.72 10.5035 111.94 10.5333 112.159 10.5333C113.03 10.5333 113.903 10.5416 114.775 10.5333C115.219 10.5261 115.658 10.4619 115.861 9.97647C115.98 9.68023 116.02 9.45894 115.55 9.4875C114.96 9.52676 114.364 9.4994 113.769 9.4994H113.772ZM110.134 9.4994C108.783 9.4994 107.436 9.4994 106.092 9.4994C105.923 9.50236 105.757 9.54276 105.606 9.61766C105.455 9.69256 105.322 9.80009 105.218 9.93245C104.815 10.3941 104.77 10.939 104.967 11.4791C105.176 12.0573 105.653 12.3298 106.261 12.3393C107.134 12.3536 108.006 12.35 108.883 12.3393C109.148 12.3393 109.347 12.3524 109.341 12.7045C109.335 13.0567 109.119 13.0614 108.864 13.0555C107.952 13.0555 107.041 13.0448 106.123 13.0555C105.632 13.0626 105.241 13.2232 105.114 13.7765C105.054 14.0477 105.114 14.1239 105.387 14.1215C106.616 14.112 107.846 14.1429 109.074 14.1048C109.258 14.0954 109.438 14.0499 109.603 13.971C109.769 13.892 109.918 13.7812 110.041 13.6448C110.164 13.5084 110.259 13.3492 110.32 13.1762C110.381 13.0032 110.407 12.8199 110.397 12.6367C110.366 11.8432 109.79 11.284 108.974 11.2757C108.158 11.2673 107.305 11.2757 106.471 11.2757C106.203 11.2757 105.883 11.353 105.875 10.9187C105.867 10.4845 106.178 10.5345 106.455 10.5345C107.308 10.5345 108.16 10.5511 109.012 10.5285C109.795 10.5142 110.041 10.2715 110.131 9.50296L110.134 9.4994ZM120.146 12.8152C120.685 12.8152 121.205 12.2881 121.194 11.7444C121.185 11.4775 121.075 11.2238 120.886 11.0343C120.698 10.8448 120.444 10.7334 120.177 10.7224C119.898 10.7181 119.629 10.8222 119.426 11.0128C119.223 11.2033 119.102 11.4653 119.089 11.7432C119.097 12.0228 119.211 12.2888 119.408 12.4882C119.604 12.6876 119.869 12.8057 120.149 12.8187L120.146 12.8152Z" fill="#525252"/>
<path d="M81.7337 33.4409C79.9279 33.4409 78.1221 33.4183 76.3175 33.4409C74.0349 33.4766 71.9716 31.5789 72.0408 29.1769C72.1218 26.3941 72.0705 23.6065 72.0491 20.8214C72.0491 20.3848 72.1385 20.2563 72.595 20.2801C74.2745 20.3693 75.1827 21.2687 75.1887 22.9391C75.197 24.9545 75.1887 26.9687 75.1887 28.9841C75.1887 30.0311 75.4819 30.3226 76.5308 30.3273C79.4463 30.3404 82.3619 30.3273 85.2774 30.3749C86.8269 30.4011 87.7805 31.4219 87.9092 32.9519C87.9438 33.3683 87.8317 33.4468 87.4455 33.4433C85.542 33.4314 83.6349 33.4409 81.7337 33.4409Z" fill="#525252"/>
<path d="M90.457 8.17799C91.1364 7.04656 91.7574 5.9651 93.2438 5.9532C94.2689 5.94606 95.0198 6.45884 95.3893 7.40586C96.2773 9.70798 97.1534 12.0161 98.0533 14.3146C98.5063 15.4746 98.635 15.8839 99.9605 15.3247C100.05 15.3125 100.14 15.3153 100.229 15.333C99.784 16.4621 99.2191 17.3996 97.9449 17.6958C96.6456 17.998 95.5157 17.4579 95.0448 16.2015C94.1497 13.8221 93.2843 11.4271 92.3975 9.04292C92.0304 8.05664 91.9207 8.00786 90.8694 8.17561C90.7322 8.18599 90.5944 8.18679 90.457 8.17799Z" fill="#F27C22"/>
<path d="M84.7715 8.15457C85.4068 7.24561 85.8824 6.26052 87.1137 6.02971C88.2019 5.82389 89.2651 6.32833 89.6656 7.3515C90.587 9.70478 91.4917 12.064 92.4071 14.4209C92.4703 14.5851 92.5263 14.7504 92.6026 14.911C92.9113 15.5892 93.1533 15.6998 93.8565 15.4869L94.4811 15.2929C93.9411 17.6343 91.7325 18.3042 90.3307 17.4547C89.8087 17.1382 89.5119 16.6849 89.3092 16.1317C88.4415 13.7602 87.5674 11.3922 86.6869 9.02783C86.3496 8.12006 86.2924 8.09746 85.29 8.1855C85.1913 8.19422 85.0922 8.197 84.9932 8.19382C84.9184 8.18602 84.8444 8.1729 84.7715 8.15457Z" fill="#F27C22"/>
<path d="M96.3301 8.18868C96.721 7.58311 97.0536 7.05844 97.4898 6.59563C98.4684 5.557 100.738 5.71167 101.343 7.42845C102.155 9.7389 103.087 12.0065 103.966 14.2932C104.016 14.4205 104.056 14.5526 104.11 14.6787C104.487 15.565 104.706 15.6649 105.642 15.3735C105.754 15.3378 105.867 15.3056 105.982 15.2795C106.011 15.2723 106.047 15.2985 106.08 15.3092C105.682 16.9879 104.264 17.9873 102.693 17.6887C101.851 17.5269 101.273 17.051 100.974 16.2372C100.098 13.8577 99.211 11.4783 98.3314 9.09883C97.944 8.04949 97.7652 7.94955 96.6626 8.1756C96.5521 8.18576 96.4411 8.19013 96.3301 8.18868Z" fill="#F27C22"/>
<path d="M72.0612 12.8763C72.0612 11.1215 72.023 9.36662 72.0731 7.61296C72.1112 6.24834 73.7097 5.12524 75.0041 5.45717C75.2294 5.51547 75.1519 5.65824 75.1519 5.76769C75.1519 9.29762 75.1746 12.8287 75.1352 16.3563C75.1198 17.7506 73.6918 18.8178 72.2745 18.6263C71.8991 18.5751 72.0361 18.3181 72.0361 18.1409C72.0266 16.3848 72.0361 14.63 72.0361 12.8739L72.0612 12.8763Z" fill="#525252"/>
<path d="M96.2559 8.60111C97.6516 8.35365 97.6624 8.35008 98.1475 9.64451C98.7403 11.2221 99.3204 12.804 99.8878 14.3903C99.9593 14.5914 100.273 14.9079 99.7686 15.0185C99.38 15.103 98.927 15.4849 98.6684 14.8484C98.2417 13.7943 97.834 12.7319 97.4264 11.6706C97.0294 10.6558 96.6456 9.62666 96.2559 8.60111Z" fill="#525252"/>
<path d="M90.5488 8.60473C90.8099 8.54882 91.0018 8.50718 91.1949 8.46792C91.5858 8.38701 91.8087 8.52026 91.9517 8.91644C92.6264 10.7974 93.3332 12.6665 94.0138 14.5451C94.0746 14.7116 94.363 14.9781 93.9184 15.0864C93.5918 15.1673 93.2319 15.4326 93.0114 14.9389C92.8278 14.5272 92.6621 14.106 92.5 13.6873C91.86 12.0026 91.2104 10.3156 90.5488 8.60473Z" fill="#525252"/>
</svg>
