<svg width="163" height="28" viewBox="0 0 163 28" fill="none" xmlns="http://www.w3.org/2000/svg">
<path d="M15.0254 26.6037C10.2152 25.9736 5.48936 24.8495 0.679129 24.0491C-0.0213083 23.9299 -0.0465903 23.5212 0.0293607 22.9592C0.645408 18.2077 1.27831 13.4562 1.85216 8.69626C1.84312 8.48083 1.87644 8.26572 1.95013 8.06332C2.02382 7.86091 2.13647 7.67522 2.28158 7.51693C2.42669 7.35864 2.60138 7.23088 2.79563 7.141C2.98987 7.05112 3.19984 7.0009 3.41341 6.99323C4.00963 6.95433 4.57297 6.70393 5.00386 6.2863C5.43474 5.86867 5.70539 5.31072 5.76787 4.71117C6.03094 3.78851 6.46004 2.92257 7.03372 2.15661C9.26162 -1.24946 12.73 -0.202094 14.6288 2.40355C14.786 2.66965 15.0141 2.8858 15.2872 3.02734C15.5603 3.16887 15.8673 3.23008 16.1732 3.20398C16.1732 4.46422 15.9706 5.75853 15.9284 6.96768C15.7849 13.5329 15.4052 20.0725 15.0254 26.6037ZM4.18978 18.7867C4.18978 19.7149 3.1349 20.4898 3.91973 21.4605C5.14338 22.9592 8.59495 23.1039 10.0043 21.7926C10.4073 21.416 10.7325 20.9627 10.9614 20.4588C11.1902 19.955 11.3181 19.4105 11.3377 18.8565C11.3573 18.3026 11.2683 17.7503 11.0756 17.2312C10.883 16.7122 10.5906 16.2367 10.2152 15.832C9.65658 15.3257 9.07057 14.8509 8.45991 14.41C8.03796 14.0523 7.61599 13.6691 7.85228 13.0049C7.95744 12.7432 8.14729 12.525 8.39089 12.3859C8.6345 12.2467 8.91756 12.1948 9.1941 12.2386C9.64365 12.1995 10.0965 12.2487 10.5275 12.3833C11.2617 12.6899 11.5148 12.3322 11.6921 11.7277C11.7944 11.2817 11.9356 10.8457 12.114 10.4248C12.4685 9.64996 12.2068 9.35193 11.4136 9.2242C10.0216 8.95583 8.58062 9.17515 7.32907 9.84582C6.6715 10.1632 6.10441 10.6435 5.68072 11.242C5.25703 11.8404 4.99059 12.5375 4.9063 13.268C4.82202 13.9986 4.92265 14.7388 5.19876 15.4195C5.47487 16.1001 5.91743 16.6991 6.48517 17.1603C6.78192 17.3672 7.06391 17.5948 7.32907 17.8416C7.75102 18.3184 8.03798 18.8719 7.58228 19.4765C7.41358 19.7043 7.16498 19.8585 6.88734 19.9076C6.60969 19.9567 6.32396 19.8969 6.08856 19.7404C5.48939 19.4339 4.9071 19.1018 4.18978 18.7867ZM10.5697 1.13478C8.50211 1.33063 7.64131 2.93149 6.90712 4.64304C6.74677 5.0092 6.26578 5.49456 6.78056 5.82665C7.06749 5.98844 7.62446 5.69041 8.04641 5.56268C8.46836 5.43496 8.50212 5.03474 8.57807 4.71117C8.90141 3.35615 9.59081 2.11814 10.5697 1.13478ZM9.67513 5.07731L11.5317 4.46422C12.3334 4.22579 11.979 3.61271 11.9959 3.08477C11.9959 2.74416 11.9959 2.23324 11.6414 2.17364C11.152 2.05442 10.8735 2.52276 10.6034 2.87189C10.0688 3.48832 9.74354 4.26109 9.67513 5.07731ZM12.7469 1.67124C13.0592 2.5994 12.6203 3.37428 13.3714 3.86816C13.498 3.9448 13.979 3.74895 13.9959 3.62974C14.0972 2.78673 13.633 2.28433 12.7469 1.65421V1.67124Z" fill="#87BC25"/>
<path d="M15.0254 26.6025C15.4051 20.0714 15.7765 13.5317 15.979 7.01761C15.979 5.7744 16.2322 4.51415 16.2238 3.25391C17.3968 4.01176 18.3588 5.19537 19.996 5.01655C20.553 4.95695 20.4855 5.57003 20.5361 5.93618C21.4419 12.016 22.3392 18.1015 23.2282 24.1927C23.2788 24.5929 23.4223 24.9846 22.8062 25.1038C20.207 25.5466 17.6752 26.3811 15.0254 26.6025Z" fill="#4C791A"/>
<path d="M63.9793 11.5732C65.2789 10.3896 66.7558 9.87015 68.3929 10.7217C70.0301 11.5732 70.1904 13.0208 70.1988 14.5961C70.2472 15.8124 70.0305 17.0247 69.5638 18.1473C69.0972 19.2699 68.3922 20.2755 67.4984 21.0931C66.8692 21.6838 66.1014 22.1031 65.2672 22.3117C64.4331 22.5203 63.56 22.5112 62.7303 22.2853C62.1059 22.1405 61.9624 22.2853 61.8864 22.8132C61.7599 23.5115 61.6164 24.2012 61.4898 24.8909C61.1269 26.7728 60.1396 27.3688 58.3336 26.8749C57.5319 26.6536 57.9877 26.1767 58.0552 25.8106C58.8062 21.6381 59.5826 17.4657 60.3421 13.3018C60.418 12.9015 60.4687 12.5013 60.5193 12.1011C60.5712 11.7755 60.7016 11.4677 60.8993 11.2049C61.0969 10.9422 61.3556 10.7326 61.6524 10.5946C61.9493 10.4565 62.2753 10.3944 62.6016 10.4136C62.928 10.4328 63.2446 10.5327 63.5236 10.7046C63.6418 10.7813 63.6164 11.0793 63.6502 11.2837C63.5405 11.4965 63.4476 11.7264 63.6502 11.8968C63.7008 11.8712 63.8865 11.6668 63.9793 11.5732ZM66.7979 15.0389C66.7473 14.2725 66.7557 13.438 65.8443 13.1825C64.9329 12.9271 64.4182 13.4806 63.9625 14.1107C63.2611 15.2787 62.858 16.6041 62.7894 17.9681C62.6966 18.5471 62.1649 19.2539 63.0257 19.6711C63.3881 19.862 63.8068 19.9138 64.2042 19.8167C64.6015 19.7196 64.9504 19.4803 65.1861 19.1432C66.1639 17.9959 66.7316 16.5505 66.7979 15.0389Z" fill="#070607"/>
<path d="M41.1016 11.4395C42.1817 11.0478 43.0088 10.3326 44.1058 10.2815C45.7936 10.2048 46.9666 11.133 47.0173 12.7934C47.1101 15.8078 46.2746 18.703 45.6164 21.5811C45.3294 22.8073 43.7682 22.092 42.8231 22.0835C41.8779 22.075 42.4602 21.232 42.5277 20.7722C42.8231 18.9329 43.2535 17.1106 43.5489 15.2714C43.6755 14.522 44.013 13.5683 43.0088 13.1511C42.0045 12.7338 41.4222 13.5513 40.9834 14.3091C39.9285 16.1484 39.8948 18.2687 39.4644 20.2698C39.4237 20.6378 39.2968 20.9907 39.0942 21.2995C38.8915 21.6082 38.6189 21.8638 38.299 22.0452C37.9791 22.2265 37.6209 22.3285 37.2542 22.3426C36.8875 22.3566 36.5227 22.2824 36.1901 22.1261C35.6584 21.9217 35.8779 21.5726 35.9369 21.2746C36.854 16.3698 37.7822 11.4622 38.7218 6.55182C39.1015 4.56778 40.629 5.61516 41.5826 5.58961C42.7556 5.54703 41.9792 6.50925 41.9033 7.01164C41.6585 8.47625 41.3632 9.88125 41.1016 11.4395Z" fill="#070607"/>
<path d="M88.9681 17.4418C89.6179 15.7387 90.369 14.0357 90.9006 12.2645C91.3057 10.8851 91.9808 10.2379 93.4323 10.5104C93.8675 10.5486 94.3052 10.5486 94.7404 10.5104C95.002 11.0213 94.6982 11.3619 94.5294 11.7025C92.8416 15.2363 91.4154 18.9149 89.3985 22.2954C88.2845 24.1687 87.0271 25.9569 84.9596 26.8936C84.487 27.1065 83.6684 27.9324 83.4659 26.7488C83.3224 25.8973 81.8878 24.8925 83.6178 24.1943C84.302 23.8809 84.9206 23.4388 85.4406 22.8915C85.7982 22.5847 86.0619 22.1816 86.2009 21.7293C86.3399 21.2769 86.3484 20.794 86.2254 20.3369C85.6009 17.578 85.1959 14.7765 84.6473 12.0006C84.4532 10.9787 84.4785 10.4423 85.795 10.5189C87.8626 10.6381 87.8795 10.5189 88.1242 12.6562C88.2155 14.2516 88.4128 15.839 88.7149 17.4077C88.7149 17.4077 88.7993 17.3992 88.9681 17.4418Z" fill="#070607"/>
<path d="M47.7932 17.6727C47.8354 13.7302 50.325 10.6477 53.7765 10.3326C54.8583 10.1472 55.9688 10.4014 56.8654 11.0396C57.762 11.6778 58.3718 12.6482 58.5614 13.7387C59.5404 17.8601 56.4854 22.2539 52.5781 22.4072C49.5401 22.5093 47.7679 20.7126 47.7932 17.6727ZM55.3377 15.1182C55.3377 14.1815 55.1858 13.2959 54.1816 13.0064C53.1773 12.7169 52.6457 13.3726 52.2237 14.0708C51.4474 15.317 51.0976 16.7857 51.2279 18.2518C51.2267 18.6099 51.3427 18.9584 51.5578 19.2433C51.773 19.5281 52.0752 19.7333 52.4178 19.8271C52.7458 19.8887 53.0847 19.8455 53.3873 19.7035C53.6898 19.5616 53.9409 19.3279 54.1056 19.0351C54.8666 17.8534 55.2927 16.4842 55.3377 15.0756V15.1182Z" fill="#070607"/>
<path d="M78.1408 22.1773C76.2083 22.1773 76.2168 22.1773 76.5712 20.3466C76.9763 18.2178 77.3644 16.089 77.7611 13.9431C77.8201 13.6366 78.0986 13.2449 77.5164 13.0916C77.0607 12.9809 76.2167 13.2534 76.6134 12.2401C76.875 11.5674 76.3939 10.3242 77.8623 10.4775C78.6556 10.5626 78.4868 9.8814 78.6134 9.43861C79.4573 6.4583 81.1451 5.08736 84.0228 5.27469C84.5376 5.27469 85.4827 5.07885 85.1874 6.07512C84.9848 6.76485 85.5081 8.11877 83.9806 8.00807C83.5805 7.9526 83.1738 8.03734 82.8282 8.24812C82.4826 8.45889 82.2191 8.78294 82.0818 9.16613C81.6768 10.0176 81.6092 10.5967 82.8582 10.5115C83.1789 10.5115 83.9722 10.1624 83.7865 10.9799C83.6009 11.7973 84.1072 13.0661 82.8329 12.9724C81.2211 12.8617 81.086 13.7303 80.9088 14.9139C80.6134 16.8042 80.0649 18.6691 79.8624 20.5679C79.7189 21.8963 79.2801 22.5094 78.1408 22.1773Z" fill="#070607"/>
<path d="M29.9623 22.373C29.5009 22.3439 29.0415 22.287 28.5868 22.2027C26.9834 21.8451 26.6543 20.8573 27.6416 19.546C27.7851 19.3587 27.9117 19.265 28.1142 19.3161C28.3167 19.3672 28.4771 19.5034 28.6628 19.546C29.7092 19.8015 31.0004 20.4997 31.6248 19.2054C32.2493 17.9111 30.7809 17.6045 30.0468 17.0596C27.6332 15.3565 27.802 12.2911 30.4349 10.9457C31.9084 10.2749 33.5673 10.1425 35.127 10.571C35.7346 10.6987 36.0637 11.0819 35.6671 11.6439C35.2705 12.2059 35.7768 13.3469 34.4772 13.0574C34.1409 12.9614 33.796 12.8987 33.4476 12.8701C32.7894 12.8701 32.0636 12.7935 31.7598 13.5428C31.456 14.2921 32.1565 14.6838 32.6797 15.0415C34.9414 16.5572 35.5743 17.6812 35.0848 19.3927C34.5447 21.3086 32.7894 22.3901 29.9623 22.373Z" fill="#070607"/>
<path d="M107.255 14.3749C107.213 16.538 106.408 18.6152 104.985 20.2334C103.651 21.7831 102.006 22.6091 99.9214 22.0641C99.1619 21.8598 98.7484 21.9449 98.6724 22.9157C98.5965 23.8864 98.2927 25.0019 98.1323 26.0492C98.1322 26.1517 98.1079 26.2526 98.0616 26.3438C98.0152 26.4349 97.9481 26.5136 97.8657 26.5735C97.7833 26.6333 97.6881 26.6726 97.5877 26.6881C97.4873 26.7035 97.3848 26.6947 97.2884 26.6623C96.6977 26.5772 96.9509 26.1259 97.0015 25.8108C97.8454 20.889 98.7822 15.9758 99.6514 11.054C99.7273 10.6027 99.913 10.4494 100.335 10.475C100.757 10.5005 100.765 10.7475 100.715 11.0966C100.546 12.3228 101.035 12.0247 101.626 11.4798L101.736 11.3861C102.909 10.4324 104.217 9.93852 105.643 10.6368C107.069 11.335 107.263 12.6889 107.255 14.3749ZM106.124 14.162C106.065 13.0806 105.981 11.9651 104.85 11.4542C103.719 10.9433 102.715 11.5223 101.888 12.3057C101.327 12.8813 100.867 13.5494 100.529 14.2813C99.9426 15.7282 99.5564 17.2496 99.3813 18.8028C99.0184 20.6506 99.9552 21.4851 101.829 21.0083C102.655 20.7816 103.394 20.3064 103.947 19.6458C105.264 18.1175 106.031 16.1852 106.124 14.162ZM100.639 12.1014L100.732 12.2887C100.732 12.2887 100.824 12.2121 100.816 12.195C100.799 12.1255 100.77 12.0594 100.732 11.9992L100.639 12.1014Z" fill="#070607"/>
<path d="M71.8961 22.1329C70.2927 22.5927 70.2083 21.7412 70.5121 20.4809C71.1197 17.5262 71.6767 14.5203 72.1999 11.5911C72.5712 9.56447 74.1072 10.6374 75.0608 10.5863C76.1663 10.5352 75.5249 11.5826 75.4405 12.0594C74.9426 14.929 74.2591 17.7731 73.8371 20.6598C73.6599 21.9796 73.1704 22.4309 71.8961 22.1329Z" fill="#070607"/>
<path d="M114.52 20.2362C113.677 20.9515 113.027 21.8371 111.879 22.0925C110.107 22.4927 108.908 21.9052 108.326 20.2277C106.638 15.3485 111.491 9.52413 116.52 10.3671C117.322 10.5034 117.508 10.7844 117.364 11.5337C116.757 14.8035 115.82 18.0308 115.879 21.3943C115.879 21.8115 115.803 22.0755 115.322 22.084C114.841 22.0925 114.723 21.8711 114.723 21.4369C114.723 21.0026 114.875 20.6449 114.52 20.2362ZM109.238 18.4821C109.238 19.3336 109.238 20.5002 110.461 20.9685C111.685 21.4368 112.461 20.662 113.246 19.9297C113.523 19.6363 113.772 19.3169 113.989 18.976C115.297 17.1452 115.542 14.9653 115.921 12.8365C116.217 11.2101 116.073 11.0739 114.385 11.3123C111.626 11.7125 109.305 14.8461 109.254 18.4821H109.238Z" fill="#070607"/>
<path d="M133.93 12.2896C134.968 11.387 135.787 10.5866 136.993 10.3822C138.732 10.1268 140.048 11.0379 140.065 12.8005C140.065 15.7979 139.154 18.6675 138.723 21.6052C138.656 22.0821 138.31 22.1417 137.938 22.0736C137.373 21.9714 137.626 21.5116 137.677 21.222C137.998 19.3828 138.369 17.552 138.698 15.7212C138.842 14.9766 138.932 14.2225 138.968 13.4647C138.968 11.5233 137.626 10.7399 135.947 11.7617C135.201 12.2339 134.566 12.8637 134.086 13.6075C133.605 14.3514 133.29 15.1917 133.162 16.0704C132.824 17.7734 132.537 19.4764 132.259 21.1795C132.175 21.7074 132.149 22.295 131.415 22.1246C130.681 21.9543 131.111 21.3327 131.179 20.924C131.71 17.7819 132.267 14.6568 132.808 11.5147C132.892 11.0294 132.808 10.3993 133.575 10.5525C134.343 10.7058 133.786 11.2763 133.846 11.651C133.846 11.7276 133.854 11.8724 133.93 12.2896Z" fill="#070607"/>
<path d="M141.525 16.7674C141.614 15.6114 141.954 14.4893 142.521 13.4811C143.089 12.4729 143.869 11.6034 144.808 10.9345C145.32 10.5167 145.944 10.2634 146.6 10.2072C147.256 10.151 147.913 10.2946 148.487 10.6194C148.907 10.8578 149.242 11.2221 149.446 11.6617C149.65 12.1013 149.713 12.5942 149.627 13.0718C149.492 14.579 148.487 15.3624 147.205 15.8477C146.121 16.2322 144.978 16.4224 143.829 16.4097C142.985 16.4097 142.639 16.6822 142.656 17.6359C142.707 20.5481 144.158 21.638 146.951 20.7184C147.365 20.5907 147.795 20.1649 148.04 20.8632C148.285 21.5614 147.627 21.5103 147.323 21.621C144.124 22.7961 141.407 21.6551 141.525 16.7674ZM144.15 15.3879C145.282 15.4293 146.405 15.1709 147.407 14.6386C147.638 14.5368 147.845 14.3881 148.016 14.2019C148.187 14.0156 148.319 13.7958 148.402 13.5561C148.485 13.3164 148.518 13.0619 148.5 12.8086C148.481 12.5554 148.411 12.3087 148.293 12.084C147.77 11.0366 146.698 11.1048 145.762 11.522C144.454 12.1181 143.804 13.3272 143.23 14.5875C142.859 15.422 143.213 15.5412 144.167 15.3879H144.15Z" fill="#070607"/>
<path d="M129.01 7.91406C128.85 8.89331 128.748 9.6171 128.605 10.4686C129.255 10.4686 129.871 10.4686 130.495 10.4686C130.765 10.4686 131.153 10.375 131.069 10.8859C131.027 11.2009 130.934 11.5415 130.537 11.4479C128.107 10.8688 128.107 12.623 127.854 14.2068C127.601 15.7906 127.238 17.6129 126.959 19.2733C126.799 20.244 126.799 21.1722 128.2 21.07C128.478 21.07 128.723 21.07 128.74 21.4191C128.757 21.7683 128.579 21.9386 128.225 22.0322C127.94 22.1355 127.634 22.1651 127.334 22.1184C127.035 22.0716 126.752 21.95 126.511 21.7646C126.271 21.5792 126.08 21.3359 125.956 21.0569C125.832 20.7779 125.78 20.4721 125.803 20.1674C125.803 17.7236 126.588 15.3904 126.959 13.0061C127.06 12.2994 127.609 11.3031 126.115 11.4393C125.82 11.4393 125.702 11.252 125.761 10.937C125.82 10.6219 125.93 10.4175 126.233 10.4771C127.44 10.707 127.668 9.99176 127.71 9.01252C127.727 8.35685 128.318 8.32279 129.01 7.91406Z" fill="#070607"/>
<path d="M157.907 22.0289C157.279 22.0651 156.653 21.9236 156.101 21.6202C155.814 21.4925 155.637 21.2966 155.856 20.9135C156.075 20.5303 156.143 20.4111 156.523 20.6325C156.79 20.7745 157.073 20.8832 157.367 20.956C157.893 21.1467 158.47 21.1378 158.99 20.931C159.51 20.7242 159.938 20.3336 160.194 19.832C160.484 19.3489 160.588 18.7752 160.487 18.2197C160.386 17.6641 160.086 17.1653 159.645 16.8177C159.173 16.3664 158.59 16.0343 158.152 15.5659C157.62 15.0522 157.299 14.3558 157.252 13.6146C157.205 12.8735 157.436 12.1415 157.898 11.5638C158.403 10.9636 159.081 10.537 159.837 10.3432C160.593 10.1494 161.39 10.198 162.118 10.4824C162.388 10.6271 162.65 10.7548 162.481 11.1551C162.312 11.5553 162.135 11.6745 161.688 11.4872C161.322 11.3151 160.92 11.236 160.517 11.2568C160.114 11.2776 159.722 11.3976 159.375 11.6064C157.991 12.4579 158.092 14.1609 159.654 15.319C160.911 16.2897 161.907 17.3541 161.595 19.1168C161.282 20.8794 159.991 22.0289 157.907 22.0289Z" fill="#070607"/>
<path d="M156.446 10.8592C156.353 11.1146 156.336 11.3701 156.024 11.4467C153.492 12.0598 152.927 14.2226 152.404 16.3259C151.999 17.9353 151.762 19.5872 151.492 21.2306C151.408 21.7245 151.349 22.1503 150.716 22.0821C149.872 21.98 150.345 21.4179 150.404 21.0518C150.952 17.7735 151.543 14.5036 152.092 11.2168C152.167 10.774 152.176 10.3653 152.75 10.476C153.324 10.5867 152.868 11.0124 152.986 11.2679C153.104 11.5233 152.859 11.7958 153.172 11.9235C153.484 12.0513 153.712 11.7362 153.897 11.5233C154.139 11.2012 154.446 10.9355 154.799 10.7445C155.151 10.5534 155.54 10.4415 155.94 10.4164C156.243 10.4078 156.573 10.3993 156.446 10.8592Z" fill="#070607"/>
<path d="M120.833 12.407C121.753 11.8195 122.158 10.8147 123.095 10.5592C123.5 10.4486 124.133 10.0143 124.344 10.7551C124.555 11.4959 123.922 11.3512 123.5 11.5129C121.66 12.2197 120.968 13.8716 120.487 15.5832C120.006 17.2947 119.863 18.9893 119.5 20.6327C119.373 21.1777 119.618 22.208 118.656 22.0377C117.694 21.8674 118.377 21.0074 118.445 20.5561C118.917 17.5161 119.474 14.4847 120.031 11.4619C120.107 11.0446 119.913 10.2442 120.749 10.4996C121.407 10.6955 121.044 11.1468 120.816 11.5555C120.698 11.7258 120.808 12.0068 120.833 12.407Z" fill="#070607"/>
<path d="M74.477 9.2682C74.2653 9.27685 74.0541 9.24072 73.8571 9.16214C73.6601 9.08355 73.4815 8.96423 73.3329 8.81187C73.1843 8.6595 73.0689 8.47745 72.9941 8.27741C72.9194 8.07737 72.887 7.86376 72.8989 7.65032C72.8815 7.39714 72.916 7.14306 73.0002 6.90392C73.0844 6.66477 73.2166 6.4457 73.3884 6.26035C73.5602 6.07501 73.768 5.92736 73.9988 5.82662C74.2297 5.72587 74.4786 5.67418 74.7301 5.67479C74.9583 5.64741 75.1897 5.67261 75.4068 5.74851C75.624 5.82442 75.8212 5.94905 75.9837 6.113C76.1462 6.27695 76.2697 6.47596 76.3449 6.69505C76.4201 6.91414 76.4451 7.14759 76.4179 7.37783C76.4255 7.634 76.38 7.88894 76.2842 8.12631C76.1885 8.36368 76.0446 8.57823 75.8619 8.75622C75.6791 8.9342 75.4616 9.07169 75.2231 9.15986C74.9846 9.24803 74.7304 9.28492 74.477 9.2682Z" fill="#070607"/>
</svg>
