<svg width="164" height="29" viewBox="0 0 164 29" fill="none" xmlns="http://www.w3.org/2000/svg">
<path d="M15.9629 27.3849C11.1527 26.7548 6.42686 25.6308 1.61663 24.8304C0.916192 24.7112 0.89091 24.3024 0.966861 23.7404C1.58291 18.989 2.21581 14.2375 2.78966 9.47751C2.78062 9.26208 2.81394 9.04697 2.88763 8.84457C2.96132 8.64216 3.07397 8.45647 3.21908 8.29818C3.36419 8.13989 3.53888 8.01213 3.73313 7.92225C3.92737 7.83237 4.13734 7.78215 4.35091 7.77448C4.94713 7.73558 5.51047 7.48518 5.94136 7.06755C6.37224 6.64992 6.64289 6.09197 6.70537 5.49242C6.96844 4.56976 7.39754 3.70382 7.97122 2.93786C10.1991 -0.468205 13.6675 0.579156 15.5663 3.1848C15.7235 3.4509 15.9516 3.66705 16.2247 3.80859C16.4978 3.95012 16.8048 4.01133 17.1107 3.98523C17.1107 5.24547 16.9081 6.53978 16.8659 7.74893C16.7224 14.3141 16.3427 20.8538 15.9629 27.3849ZM5.12728 19.568C5.12728 20.4962 4.0724 21.271 4.85723 22.2418C6.08088 23.7404 9.53245 23.8852 10.9418 22.5739C11.3448 22.1972 11.67 21.744 11.8989 21.2401C12.1277 20.7362 12.2556 20.1917 12.2752 19.6378C12.2948 19.0839 12.2058 18.5315 12.0131 18.0125C11.8205 17.4934 11.5281 17.0179 11.1527 16.6132C10.5941 16.1069 10.0081 15.6322 9.39741 15.1912C8.97546 14.8336 8.55349 14.4504 8.78978 13.7862C8.89494 13.5244 9.08479 13.3063 9.32839 13.1671C9.572 13.028 9.85506 12.9761 10.1316 13.0198C10.5812 12.9807 11.034 13.0299 11.465 13.1646C12.1992 13.4711 12.4523 13.1135 12.6296 12.5089C12.7319 12.0629 12.8731 11.627 13.0515 11.2061C13.406 10.4312 13.1443 10.1332 12.3511 10.0054C10.9591 9.73708 9.51812 9.9564 8.26657 10.6271C7.609 10.9444 7.04191 11.4247 6.61822 12.0232C6.19453 12.6217 5.92809 13.3188 5.8438 14.0493C5.75952 14.7798 5.86015 15.52 6.13626 16.2007C6.41237 16.8814 6.85493 17.4803 7.42267 17.9416C7.71942 18.1485 8.00141 18.3761 8.26657 18.6228C8.68852 19.0997 8.97548 19.6531 8.51978 20.2577C8.35108 20.4856 8.10248 20.6398 7.82484 20.6889C7.54719 20.7379 7.26146 20.6781 7.02606 20.5217C6.42689 20.2151 5.8446 19.8831 5.12728 19.568ZM11.5072 1.91603C9.43961 2.11188 8.57881 3.71274 7.84462 5.42429C7.68427 5.79045 7.20328 6.27581 7.71806 6.6079C8.00499 6.76969 8.56196 6.47166 8.98391 6.34393C9.40586 6.21621 9.43962 5.81599 9.51557 5.49242C9.83891 4.1374 10.5283 2.89939 11.5072 1.91603ZM10.6126 5.85856L12.4692 5.24547C13.2709 5.00704 12.9165 4.39396 12.9334 3.86602C12.9334 3.52541 12.9334 3.01449 12.5789 2.95489C12.0895 2.83567 11.811 3.30401 11.5409 3.65314C11.0063 4.26957 10.681 5.04234 10.6126 5.85856ZM13.6844 2.45249C13.9967 3.38065 13.5578 4.15553 14.3089 4.64941C14.4355 4.72605 14.9165 4.5302 14.9334 4.41099C15.0347 3.56798 14.5705 3.06558 13.6844 2.43546V2.45249Z" fill="#F2F2F2"/>
<path d="M15.9629 27.3838C16.3426 20.8526 16.714 14.313 16.9165 7.79886C16.9165 6.55565 17.1697 5.2954 17.1613 4.03516C18.3343 4.79301 19.2963 5.97662 20.9335 5.7978C21.4905 5.7382 21.423 6.35128 21.4736 6.71743C22.3794 12.7973 23.2767 18.8828 24.1657 24.974C24.2163 25.3742 24.3598 25.7659 23.7437 25.8851C21.1445 26.3279 18.6127 27.1624 15.9629 27.3838Z" fill="white"/>
<path d="M64.9168 12.3544C66.2164 11.1708 67.6933 10.6514 69.3304 11.5029C70.9676 12.3544 71.1279 13.802 71.1363 15.3773C71.1847 16.5937 70.968 17.8059 70.5013 18.9285C70.0347 20.0511 69.3297 21.0567 68.4359 21.8744C67.8067 22.465 67.0389 22.8844 66.2047 23.0929C65.3706 23.3015 64.4975 23.2924 63.6678 23.0665C63.0434 22.9218 62.8999 23.0665 62.8239 23.5945C62.6974 24.2927 62.5539 24.9824 62.4273 25.6722C62.0644 27.554 61.0771 28.1501 59.2711 27.6562C58.4694 27.4348 58.9252 26.958 58.9927 26.5918C59.7437 22.4194 60.5201 18.2469 61.2796 14.083C61.3555 13.6828 61.4062 13.2826 61.4568 12.8824C61.5087 12.5567 61.6391 12.2489 61.8368 11.9862C62.0344 11.7234 62.2931 11.5138 62.5899 11.3758C62.8868 11.2378 63.2128 11.1757 63.5391 11.1948C63.8655 11.214 64.1821 11.314 64.4611 11.4859C64.5793 11.5625 64.5539 11.8606 64.5877 12.0649C64.478 12.2778 64.3851 12.5077 64.5877 12.678C64.6383 12.6525 64.824 12.4481 64.9168 12.3544ZM67.7354 15.8201C67.6848 15.0537 67.6932 14.2193 66.7818 13.9638C65.8704 13.7083 65.3557 14.2618 64.9 14.892C64.1986 16.06 63.7955 17.3854 63.7269 18.7493C63.6341 19.3284 63.1024 20.0351 63.9632 20.4524C64.3256 20.6433 64.7443 20.695 65.1417 20.5979C65.539 20.5008 65.8879 20.2615 66.1236 19.9244C67.1014 18.7772 67.6691 17.3318 67.7354 15.8201Z" fill="white"/>
<path d="M42.0391 12.2208C43.1192 11.8291 43.9463 11.1138 45.0433 11.0627C46.7311 10.9861 47.9041 11.9142 47.9548 13.5747C48.0476 16.5891 47.2121 19.4842 46.5539 22.3624C46.2669 23.5885 44.7057 22.8733 43.7606 22.8647C42.8154 22.8562 43.3977 22.0132 43.4652 21.5534C43.7606 19.7141 44.191 17.8919 44.4864 16.0526C44.613 15.3033 44.9505 14.3496 43.9463 13.9323C42.942 13.5151 42.3597 14.3325 41.9209 15.0904C40.866 16.9297 40.8323 19.0499 40.4019 21.051C40.3612 21.419 40.2343 21.772 40.0317 22.0807C39.829 22.3894 39.5564 22.645 39.2365 22.8264C38.9166 23.0078 38.5584 23.1097 38.1917 23.1238C37.825 23.1379 37.4602 23.0637 37.1276 22.9073C36.5959 22.703 36.8154 22.3538 36.8744 22.0558C37.7915 17.1511 38.7197 12.2435 39.6593 7.33307C40.039 5.34903 41.5665 6.39641 42.5201 6.37086C43.6931 6.32828 42.9167 7.2905 42.8408 7.79289C42.596 9.2575 42.3007 10.6625 42.0391 12.2208Z" fill="white"/>
<path d="M89.9056 18.223C90.5554 16.52 91.3065 14.8169 91.8381 13.0458C92.2432 11.6663 92.9183 11.0192 94.3698 11.2916C94.805 11.3299 95.2427 11.3299 95.6779 11.2916C95.9395 11.8026 95.6357 12.1432 95.4669 12.4838C93.7791 16.0176 92.3529 19.6961 90.336 23.0767C89.222 24.95 87.9646 26.7382 85.8971 27.6748C85.4245 27.8877 84.6059 28.7137 84.4034 27.5301C84.2599 26.6786 82.8253 25.6738 84.5553 24.9755C85.2395 24.6622 85.8581 24.22 86.3781 23.6727C86.7357 23.366 86.9994 22.9629 87.1384 22.5105C87.2774 22.0582 87.2859 21.5752 87.1629 21.1182C86.5384 18.3592 86.1334 15.5578 85.5848 12.7818C85.3907 11.76 85.416 11.2235 86.7325 11.3002C88.8001 11.4194 88.817 11.3002 89.0617 13.4375C89.153 15.0328 89.3503 16.6202 89.6524 18.1889C89.6524 18.1889 89.7368 18.1804 89.9056 18.223Z" fill="white"/>
<path d="M48.7307 18.454C48.7729 14.5115 51.2625 11.429 54.714 11.1139C55.7958 10.9284 56.9063 11.1826 57.8029 11.8208C58.6995 12.4591 59.3093 13.4295 59.4989 14.52C60.4779 18.6413 57.4229 23.0351 53.5156 23.1884C50.4776 23.2906 48.7054 21.4939 48.7307 18.454ZM56.2752 15.8994C56.2752 14.9628 56.1233 14.0772 55.1191 13.7877C54.1148 13.4981 53.5832 14.1538 53.1612 14.8521C52.3849 16.0982 52.0351 17.567 52.1654 19.033C52.1642 19.3911 52.2802 19.7397 52.4953 20.0245C52.7105 20.3093 53.0127 20.5146 53.3553 20.6083C53.6833 20.6699 54.0222 20.6267 54.3248 20.4848C54.6273 20.3428 54.8784 20.1092 55.0431 19.8164C55.8041 18.6347 56.2302 17.2654 56.2752 15.8568V15.8994Z" fill="white"/>
<path d="M79.0783 22.9586C77.1458 22.9586 77.1543 22.9586 77.5087 21.1278C77.9138 18.999 78.3019 16.8702 78.6986 14.7244C78.7576 14.4178 79.0361 14.0262 78.4539 13.8729C77.9982 13.7622 77.1542 14.0347 77.5509 13.0214C77.8125 12.3487 77.3314 11.1054 78.7998 11.2587C79.5931 11.3439 79.4243 10.6627 79.5509 10.2199C80.3948 7.23955 82.0826 5.86861 84.9603 6.05594C85.4751 6.05594 86.4202 5.8601 86.1249 6.85637C85.9223 7.5461 86.4456 8.90002 84.9181 8.78932C84.518 8.73385 84.1113 8.81859 83.7657 9.02937C83.4201 9.24014 83.1566 9.56419 83.0193 9.94738C82.6143 10.7989 82.5467 11.3779 83.7957 11.2928C84.1164 11.2928 84.9097 10.9437 84.724 11.7611C84.5384 12.5786 85.0447 13.8473 83.7704 13.7537C82.1586 13.643 82.0235 14.5115 81.8463 15.6951C81.5509 17.5855 81.0024 19.4503 80.7999 21.3492C80.6564 22.6776 80.2176 23.2907 79.0783 22.9586Z" fill="white"/>
<path d="M30.8998 23.1543C30.4384 23.1251 29.979 23.0682 29.5243 22.984C27.9209 22.6263 27.5918 21.6386 28.5791 20.3273C28.7226 20.1399 28.8492 20.0463 29.0517 20.0973C29.2542 20.1484 29.4146 20.2847 29.6003 20.3273C30.6467 20.5827 31.9379 21.2809 32.5623 19.9866C33.1868 18.6923 31.7184 18.3858 30.9843 17.8408C28.5707 16.1378 28.7395 13.0723 31.3724 11.7269C32.8459 11.0562 34.5048 10.9237 36.0645 11.3523C36.6721 11.48 37.0012 11.8632 36.6046 12.4252C36.208 12.9872 36.7143 14.1282 35.4147 13.8387C35.0784 13.7427 34.7335 13.6799 34.3851 13.6513C33.7269 13.6513 33.0011 13.5747 32.6973 14.3241C32.3935 15.0734 33.094 15.4651 33.6172 15.8227C35.8789 17.3384 36.5118 18.4624 36.0223 20.174C35.4822 22.0899 33.7269 23.1713 30.8998 23.1543Z" fill="white"/>
<path d="M108.192 15.1562C108.15 17.3193 107.346 19.3964 105.922 21.0146C104.589 22.5644 102.943 23.3904 100.859 22.8454C100.099 22.641 99.6859 22.7262 99.6099 23.6969C99.534 24.6676 99.2302 25.7831 99.0698 26.8305C99.0697 26.9329 99.0454 27.0339 98.9991 27.125C98.9527 27.2161 98.8856 27.2949 98.8032 27.3547C98.7208 27.4146 98.6256 27.4539 98.5252 27.4693C98.4248 27.4847 98.3223 27.4759 98.2259 27.4436C97.6352 27.3584 97.8884 26.9071 97.939 26.5921C98.7829 21.6703 99.7197 16.757 100.589 11.8353C100.665 11.384 100.85 11.2307 101.272 11.2562C101.694 11.2818 101.703 11.5287 101.652 11.8778C101.483 13.104 101.973 12.806 102.564 12.261L102.673 12.1674C103.846 11.2137 105.154 10.7198 106.581 11.418C108.007 12.1163 108.201 13.4702 108.192 15.1562ZM107.062 14.9433C107.002 13.8619 106.918 12.7464 105.787 12.2355C104.656 11.7246 103.652 12.3036 102.825 13.087C102.264 13.6626 101.805 14.3307 101.467 15.0625C100.88 16.5094 100.494 18.0309 100.319 19.5841C99.9559 21.4319 100.893 22.2664 102.766 21.7895C103.593 21.5629 104.332 21.0877 104.884 20.4271C106.201 18.8987 106.969 16.9665 107.062 14.9433ZM101.576 12.8826L101.669 13.07C101.669 13.07 101.762 12.9933 101.753 12.9763C101.736 12.9068 101.708 12.8406 101.669 12.7804L101.576 12.8826Z" fill="white"/>
<path d="M72.8336 22.9141C71.2302 23.374 71.1458 22.5224 71.4496 21.2622C72.0572 18.3074 72.6142 15.3016 73.1374 12.3723C73.5087 10.3457 75.0447 11.4186 75.9983 11.3676C77.1038 11.3165 76.4624 12.3638 76.378 12.8407C75.8801 15.7103 75.1966 18.5544 74.7746 21.441C74.5974 22.7609 74.1079 23.2122 72.8336 22.9141Z" fill="white"/>
<path d="M115.458 21.0175C114.614 21.7327 113.964 22.6183 112.817 22.8738C111.044 23.274 109.846 22.6864 109.264 21.0089C107.576 16.1298 112.428 10.3054 117.458 11.1484C118.26 11.2846 118.445 11.5656 118.302 12.315C117.694 15.5848 116.758 18.812 116.817 22.1755C116.817 22.5928 116.741 22.8567 116.26 22.8652C115.779 22.8738 115.66 22.6524 115.66 22.2181C115.66 21.7838 115.812 21.4262 115.458 21.0175ZM110.175 19.2633C110.175 20.1149 110.175 21.2814 111.399 21.7498C112.622 22.2181 113.399 21.4432 114.184 20.7109C114.461 20.4175 114.709 20.0982 114.926 19.7572C116.234 17.9265 116.479 15.7466 116.859 13.6178C117.154 11.9914 117.011 11.8551 115.323 12.0936C112.563 12.4938 110.243 15.6274 110.192 19.2633H110.175Z" fill="white"/>
<path d="M134.867 13.0709C135.905 12.1683 136.724 11.3678 137.931 11.1635C139.669 10.908 140.986 11.8191 141.003 13.5818C141.003 16.5791 140.091 19.4487 139.661 22.3865C139.593 22.8633 139.247 22.9229 138.876 22.8548C138.311 22.7526 138.564 22.2928 138.614 22.0033C138.935 20.164 139.306 18.3332 139.635 16.5025C139.779 15.7579 139.87 15.0037 139.906 14.246C139.906 12.3045 138.564 11.5211 136.884 12.5429C136.139 13.0151 135.504 13.6449 135.023 14.3888C134.542 15.1326 134.227 15.9729 134.099 16.8516C133.762 18.5546 133.475 20.2577 133.196 21.9607C133.112 22.4887 133.087 23.0762 132.353 22.9059C131.618 22.7356 132.049 22.114 132.116 21.7053C132.648 18.5632 133.205 15.4381 133.745 12.296C133.829 11.8106 133.745 11.1805 134.513 11.3338C135.281 11.4871 134.724 12.0576 134.783 12.4322C134.783 12.5089 134.791 12.6536 134.867 13.0709Z" fill="white"/>
<path d="M142.463 17.5486C142.551 16.3926 142.891 15.2706 143.459 14.2624C144.026 13.2542 144.807 12.3846 145.745 11.7157C146.257 11.298 146.881 11.0446 147.537 10.9885C148.193 10.9323 148.851 11.0759 149.425 11.4007C149.844 11.639 150.179 12.0034 150.383 12.443C150.588 12.8825 150.651 13.3755 150.564 13.853C150.429 15.3602 149.425 16.1436 148.142 16.629C147.058 17.0134 145.916 17.2036 144.767 17.191C143.923 17.191 143.577 17.4635 143.594 18.4172C143.644 21.3293 145.096 22.4193 147.889 21.4996C148.303 21.3719 148.733 20.9462 148.978 21.6444C149.222 22.3427 148.564 22.2916 148.26 22.4023C145.062 23.5774 142.345 22.4363 142.463 17.5486ZM145.087 16.1692C146.219 16.2105 147.342 15.9522 148.345 15.4198C148.575 15.318 148.783 15.1694 148.954 14.9831C149.125 14.7969 149.256 14.577 149.339 14.3373C149.422 14.0976 149.456 13.8432 149.437 13.5899C149.418 13.3366 149.348 13.0899 149.231 12.8653C148.708 11.8179 147.636 11.886 146.699 12.3033C145.391 12.8993 144.741 14.1085 144.167 15.3687C143.796 16.2032 144.151 16.3224 145.104 16.1692H145.087Z" fill="white"/>
<path d="M129.949 8.69531C129.789 9.67456 129.688 10.3983 129.544 11.2499C130.194 11.2499 130.81 11.2499 131.435 11.2499C131.705 11.2499 132.093 11.1562 132.008 11.6671C131.966 11.9822 131.873 12.3228 131.477 12.2291C129.046 11.6501 129.046 13.4042 128.793 14.988C128.54 16.5719 128.177 18.3941 127.899 20.0546C127.738 21.0253 127.738 21.9534 129.139 21.8513C129.418 21.8513 129.662 21.8513 129.679 22.2004C129.696 22.5495 129.519 22.7198 129.164 22.8135C128.879 22.9168 128.573 22.9464 128.274 22.8996C127.975 22.8528 127.692 22.7312 127.451 22.5458C127.21 22.3604 127.019 22.1171 126.895 21.8382C126.772 21.5592 126.719 21.2534 126.743 20.9487C126.743 18.5048 127.527 16.1716 127.899 13.7874C128 13.0806 128.548 12.0844 127.055 12.2206C126.759 12.2206 126.641 12.0333 126.7 11.7182C126.759 11.4031 126.869 11.1988 127.173 11.2584C128.38 11.4883 128.608 10.773 128.65 9.79377C128.667 9.1381 129.257 9.10404 129.949 8.69531Z" fill="white"/>
<path d="M158.844 22.8141C158.216 22.8503 157.591 22.7087 157.038 22.4054C156.751 22.2776 156.574 22.0818 156.794 21.6986C157.013 21.3154 157.08 21.1962 157.46 21.4176C157.727 21.5597 158.011 21.6684 158.304 21.7412C158.83 21.9318 159.407 21.9229 159.927 21.7161C160.448 21.5093 160.875 21.1187 161.131 20.6172C161.421 20.1341 161.526 19.5604 161.425 19.0048C161.323 18.4493 161.024 17.9505 160.583 17.6028C160.11 17.1515 159.528 16.8194 159.089 16.3511C158.557 15.8374 158.236 15.141 158.19 14.3998C158.143 13.6586 158.373 12.9267 158.836 12.3489C159.341 11.7488 160.018 11.3221 160.774 11.1283C161.531 10.9345 162.328 10.9832 163.055 11.2675C163.325 11.4123 163.587 11.54 163.418 11.9402C163.249 12.3404 163.072 12.4596 162.625 12.2723C162.259 12.1003 161.857 12.0212 161.454 12.042C161.051 12.0627 160.659 12.1827 160.313 12.3915C158.929 13.243 159.03 14.9461 160.591 16.1041C161.849 17.0749 162.844 18.1393 162.532 19.9019C162.22 21.6646 160.929 22.8141 158.844 22.8141Z" fill="white"/>
<path d="M157.384 11.6404C157.291 11.8959 157.274 12.1513 156.962 12.2279C154.43 12.841 153.865 15.0039 153.341 17.1071C152.936 18.7165 152.7 20.3684 152.43 22.0119C152.345 22.5057 152.286 22.9315 151.654 22.8634C150.81 22.7612 151.282 22.1992 151.341 21.833C151.89 18.5547 152.481 15.2849 153.029 11.998C153.105 11.5552 153.113 11.1465 153.687 11.2572C154.261 11.3679 153.805 11.7937 153.924 12.0491C154.042 12.3046 153.797 12.5771 154.109 12.7048C154.421 12.8325 154.649 12.5175 154.835 12.3046C155.076 11.9825 155.384 11.7168 155.736 11.5257C156.089 11.3347 156.478 11.2227 156.877 11.1976C157.181 11.1891 157.51 11.1806 157.384 11.6404Z" fill="white"/>
<path d="M121.771 13.1883C122.69 12.6007 123.096 11.596 124.032 11.3405C124.437 11.2298 125.07 10.7955 125.281 11.5363C125.492 12.2772 124.859 12.1324 124.437 12.2942C122.598 13.001 121.906 14.6529 121.425 16.3644C120.944 18.076 120.8 19.7705 120.437 21.4139C120.311 21.9589 120.555 22.9893 119.593 22.8189C118.631 22.6486 119.315 21.7886 119.382 21.3373C119.855 18.2974 120.412 15.266 120.969 12.2431C121.045 11.8259 120.851 11.0254 121.686 11.2809C122.344 11.4767 121.982 11.928 121.754 12.3368C121.636 12.5071 121.745 12.7881 121.771 13.1883Z" fill="white"/>
<path d="M75.4164 10.0494C75.2047 10.0581 74.9936 10.022 74.7966 9.94339C74.5995 9.8648 74.421 9.74548 74.2724 9.59312C74.1237 9.44075 74.0083 9.2587 73.9336 9.05866C73.8589 8.85862 73.8264 8.64501 73.8384 8.43157C73.821 8.17839 73.8555 7.92431 73.9397 7.68517C74.0239 7.44602 74.156 7.22695 74.3278 7.0416C74.4996 6.85626 74.7074 6.70861 74.9383 6.60787C75.1691 6.50712 75.4181 6.45543 75.6696 6.45604C75.8978 6.42866 76.1292 6.45386 76.3463 6.52976C76.5634 6.60567 76.7606 6.7303 76.9231 6.89425C77.0856 7.0582 77.2091 7.25721 77.2843 7.4763C77.3596 7.69539 77.3845 7.92884 77.3574 8.15908C77.365 8.41525 77.3194 8.67019 77.2237 8.90756C77.1279 9.14493 76.9841 9.35948 76.8013 9.53747C76.6186 9.71545 76.401 9.85294 76.1625 9.94111C75.924 10.0293 75.6699 10.0662 75.4164 10.0494Z" fill="white"/>
</svg>
