<svg width="61" height="61" viewBox="0 0 61 61" fill="none" xmlns="http://www.w3.org/2000/svg">
<g clip-path="url(#clip0_9879_18585)">
<path d="M48.4208 43.0586C48.2908 43.2786 47.5208 43.3886 47.3408 43.4986V43.5286C46.9608 43.6986 46.6508 43.9886 46.4408 44.3486C46.3208 44.1086 45.6808 43.8786 45.5508 43.6186C45.9708 43.6086 46.3808 43.5786 46.8008 43.5186C47.1508 43.3586 48.0508 43.1986 48.4208 43.0586Z" fill="#FFFC00"/>
<path d="M41.9605 37.6299C42.5305 38.4899 42.8805 39.1299 42.5505 39.9999C42.2305 39.7799 41.9605 39.4799 41.7805 39.1399C41.5905 38.7899 41.4905 38.4099 41.4805 38.0199H41.4905C41.4905 37.6399 41.4505 37.6199 41.5905 37.4599C41.7305 37.2999 41.9105 37.5399 41.9605 37.6299Z" fill="#FFFC00"/>
<path d="M47.9191 32.4805C48.1091 32.7105 48.2091 32.9905 48.1991 33.2805C48.1791 33.4305 48.1391 33.5805 48.0691 33.7105C47.9991 33.8405 47.8991 33.9605 47.7891 34.0505C47.9191 33.5405 47.9591 33.0105 47.9191 32.4805Z" fill="#FFFC00"/>
<path d="M49.9302 31.2015C49.9402 31.8515 49.4202 32.7115 49.0002 32.7115V32.7315C48.4702 32.7315 48.1602 32.3415 48.1702 31.6815C48.1902 31.0215 48.6802 30.2715 49.3002 30.3315C49.5002 30.3715 49.6702 30.4815 49.7802 30.6415C49.9002 30.8115 49.9502 31.0015 49.9302 31.2015Z" fill="white"/>
<path d="M45.1896 32.1697C45.2496 32.4097 45.0996 32.4197 44.9196 32.5997C44.7796 32.7597 44.5996 32.8897 44.4096 32.9897C44.0996 33.4697 44.5896 33.7797 44.6696 34.1697C44.6696 34.2897 44.7796 34.4197 44.6696 34.5297C44.6396 34.5597 44.6096 34.5897 44.5796 34.5997C44.5396 34.6197 44.4996 34.6297 44.4696 34.6297C44.4296 34.6297 44.3896 34.6197 44.3596 34.5997C44.3196 34.5897 44.2896 34.5597 44.2696 34.5297C44.1496 34.3997 44.0096 34.3097 43.8496 34.2397C43.6896 34.1797 43.5196 34.1597 43.3496 34.1697C43.1796 34.1897 43.0196 34.2497 42.8796 34.3497C42.7396 34.4397 42.6196 34.5697 42.5296 34.7197C42.4396 34.8397 42.2696 34.9797 42.1596 34.8197C42.0496 34.6597 42.0896 34.3397 42.2296 34.1097C42.5296 33.2197 41.6596 33.1497 41.2796 32.7397C40.8996 32.3297 41.3896 32.3697 41.5596 32.3697C42.3096 32.3697 42.8196 32.1397 42.8196 31.2597C42.8196 31.1297 42.8196 30.9197 43.0096 30.8897C43.1996 30.8597 43.3096 31.0597 43.3496 31.2197C43.3596 31.3797 43.4096 31.5397 43.4996 31.6697C43.5796 31.8097 43.6996 31.9197 43.8296 31.9997C43.9696 32.0797 44.1296 32.1297 44.2896 32.1397C44.4496 32.1397 44.5996 32.1097 44.7496 32.0397C44.9096 31.9897 45.1296 31.9397 45.1896 32.1697Z" fill="white"/>
<path d="M48.8495 29.3924C49.0395 29.4324 49.2295 29.5324 49.3795 29.6724C49.1995 29.8024 47.2195 30.1224 47.2195 30.2424C47.1295 30.2524 47.0495 30.2924 46.9995 30.3524C46.9595 30.4424 46.9595 30.5324 46.9995 30.6224C47.0895 31.3124 47.2895 31.9824 47.3795 32.6824C47.5195 33.3724 47.4495 34.0924 47.1795 34.7424C46.9895 35.1224 46.7295 35.4624 46.4195 35.7524C46.1595 36.0224 45.8795 36.2824 45.6495 36.5624C45.3295 36.9124 45.0995 37.3224 44.9495 37.7724C44.7995 38.2124 44.7395 38.6824 44.7795 39.1524C44.8295 39.6124 45.0395 40.0524 45.3495 40.3924C45.6695 40.7324 46.0795 40.9624 46.5295 41.0424C46.7495 41.0424 46.9595 41.1024 47.1595 41.1924C47.3495 41.3124 47.4195 41.6424 47.2195 41.7424C47.1695 41.7624 47.1095 41.7824 47.0495 41.7824L41.4195 42.3524C41.3495 42.3724 41.2695 42.3724 41.1895 42.3524C40.9995 42.2724 40.9995 41.9824 41.1295 41.8324C41.2695 41.6924 41.4495 41.5824 41.6395 41.5224C41.9595 41.3624 42.2395 41.1524 42.4695 40.8824C42.6995 40.6124 42.8695 40.2924 42.9695 39.9524C43.0595 39.6124 43.0795 39.2424 43.0295 38.8924C42.9795 38.5324 42.8495 38.1924 42.6495 37.8924C41.8995 36.7324 40.3095 36.3424 39.5895 35.1624C39.0495 34.2624 39.1495 33.1324 39.1995 32.0724C39.2195 31.9224 39.2195 31.7724 39.1795 31.6324C39.1395 31.4924 39.0595 31.3624 38.9595 31.2524C38.8595 31.1824 38.7495 31.1324 38.6295 31.1124C38.2595 31.0324 37.8895 31.0124 37.5195 31.0724C37.4295 31.0724 37.3395 31.1124 37.2695 31.1824C37.2195 31.2524 37.1895 31.3324 37.1895 31.4224C37.1095 32.1524 37.2195 32.8824 37.4895 33.5624C37.7595 34.2424 38.1895 34.8424 38.7495 35.3224C39.2395 35.6424 39.6795 36.0324 40.0495 36.4924C39.5095 36.4124 38.9995 36.2224 38.5395 35.9224C38.0795 35.6124 37.6995 35.2224 37.4095 34.7524C36.8395 33.8024 36.5295 32.7124 36.5195 31.5924C36.4895 31.3624 36.5295 31.1324 36.6295 30.9124C36.7695 30.7324 36.9495 30.5924 37.1695 30.5124C37.3795 30.4324 37.6095 30.4124 37.8295 30.4524C38.2795 30.5224 38.7395 30.4324 39.1295 30.1924C39.2295 30.0724 39.3495 29.9624 39.4795 29.8624C39.5895 29.8024 39.7095 29.7724 39.8395 29.7724L45.9295 29.1724C46.0395 29.1424 46.1495 29.1424 46.2595 29.1624C46.3695 29.1824 46.4695 29.2324 46.5495 29.3024C46.6295 29.3924 46.6595 29.5124 46.7495 29.5824C46.8295 29.6124 46.9095 29.6324 46.9895 29.6224C47.4095 29.5724 47.8295 29.4924 48.2395 29.3924C48.4395 29.3424 48.6495 29.3424 48.8495 29.3924ZM45.6095 32.4324C45.6495 32.2924 45.6295 32.1424 45.5595 32.0124C45.5095 31.8824 45.4095 31.7624 45.2795 31.7024C45.1495 31.6324 44.9995 31.6224 44.8695 31.6624C44.7395 31.7224 44.5995 31.7424 44.4595 31.7424C44.3195 31.7324 44.1795 31.6924 44.0595 31.6224C43.9395 31.5524 43.8295 31.4524 43.7595 31.3324C43.6795 31.2124 43.6295 31.0824 43.6195 30.9424C43.5795 30.8024 43.4995 30.6824 43.3895 30.6024C43.2695 30.5224 43.1295 30.4924 42.9895 30.5124C42.9195 30.5124 42.8495 30.5224 42.7795 30.5524C42.7095 30.5724 42.6495 30.6124 42.5995 30.6624C42.5495 30.7124 42.5095 30.7724 42.4795 30.8424C42.4495 30.9024 42.4395 30.9724 42.4295 31.0524C42.3895 31.7224 42.1095 32.0624 41.3995 32.0024C41.2595 31.9924 41.1195 32.0424 41.0095 32.1224C40.8995 32.2024 40.8095 32.3224 40.7795 32.4624C40.7395 32.5824 40.7495 32.7124 40.7895 32.8224C40.8395 32.9424 40.9295 33.0324 41.0495 33.0924C41.7195 33.4024 42.0795 33.8124 41.6695 34.4824C41.6295 34.6224 41.6495 34.7724 41.7095 34.9124C41.7695 35.0424 41.8695 35.1424 41.9995 35.2124C42.1295 35.2824 42.2695 35.3024 42.4095 35.2824C42.5495 35.2524 42.6795 35.1724 42.7695 35.0524C42.8295 34.9424 42.9195 34.8424 43.0295 34.7624C43.1395 34.6924 43.2695 34.6524 43.3995 34.6324C43.5295 34.6224 43.6595 34.6324 43.7895 34.6824C43.9095 34.7324 44.0195 34.8024 44.1095 34.9024C44.2195 35.0024 44.3695 35.0624 44.5295 35.0624C44.6795 35.0624 44.8295 35.0024 44.9495 34.9024C45.0595 34.8124 45.1295 34.6824 45.1395 34.5324C45.1595 34.3924 45.1195 34.2424 45.0295 34.1324C44.6295 33.5424 44.7995 33.1324 45.3495 32.7524C45.4795 32.6824 45.5695 32.5624 45.6095 32.4324Z" fill="white"/>
<path d="M46.3891 45.5398C46.3091 45.8798 46.1091 46.1798 45.8191 46.3798C45.5391 46.5798 45.1791 46.6598 44.8391 46.6098C44.4391 46.5798 44.0491 46.6998 43.7491 46.9598C43.4391 47.2098 43.2391 47.5698 43.1891 47.9698C42.8791 49.1198 42.5691 49.3598 41.3691 49.2298C40.9891 49.1398 40.5891 49.1898 40.2391 49.3698C39.8891 49.5598 39.6291 49.8698 39.4991 50.2398C38.9991 51.2898 38.6291 51.4298 37.5591 51.0898C37.1691 50.9098 36.7391 50.8798 36.3391 50.9998C35.9391 51.1298 35.5891 51.3898 35.3691 51.7498C34.7091 52.6698 34.3891 52.7098 33.4391 52.1598C33.0791 51.9098 32.6491 51.7898 32.2191 51.8298C31.7791 51.8598 31.3791 52.0598 31.0691 52.3698C30.1991 53.1498 29.9291 53.1498 29.0491 52.3698C28.7491 52.0698 28.3591 51.8798 27.9391 51.8398C27.5191 51.7998 27.0991 51.9098 26.7491 52.1598C25.7191 52.7198 25.4591 52.6898 24.7691 51.7498C24.5491 51.4098 24.2091 51.1598 23.8191 51.0398C23.4291 50.9298 23.0091 50.9498 22.6391 51.1198C21.5091 51.4798 21.1991 51.3798 20.6791 50.3198C20.5491 49.9298 20.2691 49.6098 19.9091 49.4198C19.5491 49.2198 19.1291 49.1798 18.7291 49.2798C17.6291 49.4498 17.2691 49.2098 16.9691 48.0798C16.9091 47.6598 16.6891 47.2898 16.3591 47.0198C16.0291 46.7598 15.6091 46.6298 15.1991 46.6598C14.1291 46.6198 13.8091 46.1998 13.7891 45.1598C16.1391 43.5898 17.9591 41.3098 18.9691 38.6498C19.2191 38.1198 19.2491 37.4998 19.0591 36.9498C18.8591 36.3898 18.4591 35.9298 17.9291 35.6698C17.4091 35.3598 16.8391 35.1198 16.2491 34.9498C15.6791 34.7998 15.1391 34.5698 14.6391 34.2598C14.3191 34.0498 13.8191 33.8398 14.0091 33.3398C14.1091 33.1298 14.2791 32.9598 14.4891 32.8498C14.6991 32.7498 14.9391 32.7198 15.1691 32.7698C15.4691 32.8398 15.7591 32.9398 16.0291 33.0598C16.8791 33.4398 17.8391 33.4998 18.7291 33.2298C18.9591 33.1798 19.1691 33.0398 19.3091 32.8398C19.4491 32.6398 19.4991 32.3998 19.4691 32.1598C19.3191 30.1598 19.2191 28.1498 19.2691 26.1398C19.2891 24.8898 19.5591 23.6498 20.0891 22.5098C20.6091 21.3798 21.3591 20.3598 22.2891 19.5398C25.7491 16.3198 31.7491 15.7498 35.8491 18.2798C36.9891 18.9198 37.9791 19.7998 38.7591 20.8598C39.5391 21.9098 40.0991 23.1198 40.3891 24.3998C40.7491 25.9998 40.5691 27.6398 40.5991 29.2498C40.1791 29.5598 39.5091 29.2098 39.2291 29.5798C38.6991 30.2698 38.0191 30.0498 37.3591 30.1198C36.5591 30.1998 36.0591 30.6598 36.0691 31.3798C36.0991 34.0798 37.0391 36.5198 40.2891 37.2098C40.5091 37.2598 40.7491 37.2798 40.7091 37.6298C40.6091 38.7498 41.2291 39.6298 41.7291 40.5198C41.9691 40.9498 41.9191 41.0598 41.5091 41.2098C41.0991 41.3598 40.5391 41.4998 40.5591 42.1398C40.5691 42.2898 40.5591 42.4398 40.5091 42.5798C40.4591 42.7298 40.3791 42.8598 40.2791 42.9698C40.1891 43.1098 40.1391 43.2698 40.1391 43.4398C40.1391 43.6098 40.1891 43.7698 40.2791 43.9098C40.4291 44.2298 40.7291 44.0298 40.9591 44.0098C41.9091 43.9298 42.8391 43.8398 43.7791 43.7398C43.8891 43.6998 43.9991 43.6998 44.1091 43.7298C44.2191 43.7598 44.3191 43.8198 44.3991 43.9098C45.0191 44.4998 45.6891 45.0498 46.3891 45.5398ZM36.8891 23.8898C36.8991 23.8098 36.8891 23.7398 36.8691 23.6798C36.8391 23.6098 36.8091 23.5498 36.7591 23.4898C36.7091 23.4398 36.6491 23.3998 36.5891 23.3698C36.5191 23.3398 36.4491 23.3298 36.3791 23.3298C34.4191 23.1698 32.3191 24.0598 31.7491 26.4798C31.6691 26.8098 31.6291 27.1798 31.9991 27.3698C32.1391 27.4298 32.2991 27.4398 32.4491 27.3798C32.5891 27.3298 32.7191 27.2198 32.7891 27.0798C33.4891 25.9898 34.5191 25.8198 35.6791 26.0398C35.9791 26.0298 36.2791 26.0898 36.3391 25.7298C36.3991 25.3498 36.1891 25.1798 35.8091 25.1398C34.9791 25.0298 34.1291 25.0798 33.3091 25.2898C34.4191 24.3898 34.8091 24.2498 36.3191 24.2298C36.5891 24.2298 36.8591 24.2298 36.8891 23.8898ZM34.5691 31.2598C34.8491 30.9998 35.2391 30.7398 34.8891 30.3098C34.5291 29.8898 34.2091 30.1798 33.8891 30.4598C32.7891 31.4898 31.3391 32.0698 29.8391 32.0798C28.3391 32.0898 26.8891 31.5298 25.7691 30.5198C25.4191 30.2298 25.0891 29.9298 24.7391 30.3798C24.3791 30.8198 24.8291 31.0798 25.0991 31.3198C25.9191 32.0398 26.8991 32.5598 27.9491 32.8498C28.9891 33.1298 30.0891 33.1798 31.1591 32.9798C31.4391 33.0998 31.5291 33.3898 31.7191 33.6098C31.8591 33.8198 32.0691 33.9798 32.3091 34.0698C32.5591 34.1598 32.8191 34.1798 33.0691 34.1098C33.5791 33.9698 33.7291 33.5398 33.8391 33.0598C33.9391 32.5798 34.1091 32.0798 34.2491 31.5898C34.3591 31.4798 34.4591 31.3698 34.5691 31.2598ZM25.3391 27.8898C26.0591 27.8798 26.7091 26.9898 26.6391 25.9098C26.5991 24.8698 25.9691 24.0498 25.2391 24.0798C24.5191 24.1098 23.9891 24.8898 23.9891 25.9398C23.9891 26.9898 24.6191 27.8998 25.3391 27.8898Z" fill="white"/>
<path d="M59.84 30.31C59.85 34.26 59.08 38.17 57.58 41.82C56.08 45.47 53.89 48.78 51.12 51.57C48.36 54.37 45.07 56.58 41.46 58.09C37.84 59.6 33.97 60.38 30.06 60.38C26.15 60.38 22.27 59.61 18.65 58.09C15.04 56.58 11.75 54.37 8.98 51.58C6.22 48.78 4.02 45.47 2.52 41.82C1.03 38.17 0.25 34.26 0.25 30.31C0.25 26.36 1.03 22.46 2.52 18.81C4.02 15.16 6.22 11.85 8.98 9.05C11.75 6.26 15.04 4.05 18.65 2.54C22.27 1.03 26.14 0.25 30.06 0.25C37.96 0.25 45.53 3.42 51.12 9.06C56.71 14.7 59.84 22.34 59.84 30.31ZM59.22 30.31C59.22 22.51 56.14 15.03 50.67 9.51C45.2 4 37.79 0.89 30.06 0.88C22.32 0.89 14.9 3.99 9.44 9.51C3.97 15.03 0.89 22.51 0.88 30.31C0.89 38.12 3.96 45.6 9.43 51.12C14.9 56.64 22.32 59.74 30.06 59.75C37.79 59.74 45.2 56.64 50.67 51.12C56.14 45.6 59.21 38.12 59.22 30.31Z" fill="black"/>
<path d="M57.6192 28.2505C58.1292 28.2905 58.2392 28.6805 57.8392 28.9405C57.5792 29.1205 57.3892 29.3805 57.2892 29.6805C57.1892 29.9805 57.1892 30.3105 57.2992 30.6005C57.3892 31.1105 57.1192 31.3105 56.6692 31.0305C56.4392 30.8405 56.1392 30.7405 55.8392 30.7405C55.5392 30.7405 55.2392 30.8405 55.0092 31.0305C54.5592 31.3505 54.3092 31.1805 54.3792 30.4705C54.7292 29.8705 54.3492 29.4005 53.8292 28.9405C53.4092 28.5805 53.5892 28.2505 54.0692 28.2505C54.3892 28.2705 54.6992 28.1805 54.9492 27.9905C55.2092 27.8005 55.3892 27.5405 55.4692 27.2305C55.6692 26.7205 56.0392 26.7405 56.2092 27.2305C56.2892 27.5405 56.4692 27.8105 56.7292 28.0005C56.9892 28.1805 57.2992 28.2705 57.6192 28.2505Z" fill="black"/>
<path d="M56.2999 23.562C56.2899 23.702 56.2799 23.892 56.0699 23.892C56.0299 23.892 55.9899 23.892 55.9599 23.872C55.9199 23.872 55.8899 23.842 55.8599 23.812C55.8299 23.782 55.8099 23.752 55.7999 23.712C55.7899 23.672 55.7799 23.632 55.7899 23.602C55.7999 23.422 55.9099 23.192 55.6099 23.172C55.3099 23.162 55.3499 23.482 55.3499 23.652C55.2799 24.092 55.0599 24.322 54.5799 24.282C54.1099 24.232 53.9699 23.882 53.9199 23.482C53.9599 23.252 53.9399 22.952 54.2399 22.962C54.5399 22.982 54.4899 23.202 54.4199 23.422C54.4099 23.462 54.4099 23.502 54.4099 23.532C54.4199 23.572 54.4299 23.612 54.4499 23.642C54.4699 23.682 54.4999 23.712 54.5299 23.732C54.5699 23.752 54.5999 23.762 54.6399 23.772C54.9299 23.772 54.9299 23.492 54.9299 23.312C54.9999 22.792 55.3099 22.572 55.7599 22.672C56.2099 22.782 56.2999 23.152 56.2999 23.562Z" fill="black"/>
<path d="M55.5696 21.149C55.6396 21.429 55.9996 21.739 55.7396 22.059C55.4896 22.379 55.3996 21.989 55.3196 21.819C55.2396 21.649 55.2696 21.339 54.9596 21.439C54.6496 21.549 54.8896 21.799 54.9096 21.949C54.9396 22.089 55.0596 22.259 54.8396 22.349C54.6196 22.429 54.5396 22.279 54.4696 22.089C54.4096 21.909 54.3496 21.599 54.0596 21.729C53.7696 21.869 54.0596 22.059 54.0596 22.249C54.0696 22.429 54.2796 22.659 53.9696 22.759C53.6596 22.859 53.6896 22.569 53.5896 22.419C53.2296 21.479 53.2396 21.469 54.1596 21.149L55.2396 20.809C55.4896 20.799 55.5396 20.969 55.5696 21.149Z" fill="black"/>
<path d="M55.0404 19.7695C55.2704 20.0095 55.4704 20.2295 54.9404 20.3995C54.4904 20.5395 54.0704 20.7595 53.6204 20.9395C53.1704 21.1195 53.0604 20.9395 53.1704 20.5195C53.8204 20.3395 54.4504 20.0895 55.0404 19.7695Z" fill="black"/>
<path d="M54.8496 19.0989C54.8596 19.2489 54.8496 19.3989 54.8096 19.5389C54.4896 19.5789 54.3396 19.4589 54.3396 19.1289C54.3296 18.9989 54.2696 18.8789 54.1796 18.7889C54.0796 18.7089 53.9496 18.6589 53.8196 18.6689C53.6696 18.6589 53.5196 18.6889 53.3896 18.7589C53.2496 18.8289 53.1396 18.9389 53.0596 19.0689C52.9796 19.1689 52.9496 19.2989 52.9596 19.4289C52.9796 19.5589 53.0496 19.6689 53.1496 19.7489C53.4496 19.9689 53.3996 20.1489 53.1496 20.3389C53.0096 20.2789 52.8796 20.1889 52.7796 20.0689C52.6796 19.9589 52.5996 19.8189 52.5596 19.6789C52.5096 19.5289 52.4896 19.3789 52.5096 19.2189C52.5196 19.0689 52.5696 18.9189 52.6396 18.7889C52.7596 18.5289 52.9696 18.3289 53.2196 18.2189C53.4796 18.0989 53.7596 18.0889 54.0296 18.1689C54.1696 18.2089 54.3096 18.2689 54.4196 18.3589C54.5396 18.4489 54.6396 18.5589 54.7096 18.6889C54.7796 18.8189 54.8296 18.9589 54.8496 19.0989Z" fill="black"/>
<path d="M53.8896 17.1725C54.0396 17.4125 53.8596 17.4825 53.7096 17.5825C53.2696 17.8425 52.8396 18.1025 52.3896 18.3525C52.2496 18.4225 52.0896 18.6125 51.9496 18.3525C51.8896 18.2025 51.7496 18.0625 51.8896 17.8625C52.0996 17.5025 52.2996 17.1425 52.6096 16.6025C52.1796 16.8525 51.8496 17.0425 51.6996 17.1325C51.5496 17.2225 51.4096 17.3625 51.2496 17.1325C51.0896 16.9025 51.2496 16.8225 51.4196 16.7825L52.7396 15.9925C52.8796 15.9025 53.0396 15.7625 53.1896 15.9925C53.2496 16.0625 53.2896 16.1525 53.2896 16.2325C53.2996 16.3225 53.2796 16.4225 53.2396 16.4925C53.0596 16.7625 52.8896 17.0925 52.6996 17.3925C53.0596 17.5525 53.2696 17.2625 53.4296 17.1725C53.5896 17.0925 53.7296 16.9425 53.8896 17.1725Z" fill="black"/>
<path d="M47.9206 32.4819C47.9606 33.0119 47.9206 33.5419 47.7906 34.0519C47.9006 33.9619 48.0006 33.8419 48.0706 33.7119C48.1406 33.5819 48.1806 33.4319 48.2006 33.2819C48.2106 32.9919 48.1105 32.7119 47.9206 32.4819ZM52.4106 29.2419C53.2806 30.2719 53.2906 30.7719 52.4506 31.7819C52.1906 32.0219 52.0306 32.3419 51.9906 32.6919C51.9606 33.0419 52.0506 33.3919 52.2506 33.6819C52.9206 34.8719 52.8406 35.3419 51.8206 36.1419C51.5206 36.3319 51.2906 36.6219 51.1806 36.9719C51.0806 37.3219 51.1006 37.7019 51.2506 38.0319C51.6506 39.2119 51.4406 39.7119 50.3006 40.2719C49.9506 40.4119 49.6606 40.6819 49.4806 41.0219C49.3106 41.3619 49.2806 41.7619 49.3906 42.1319C49.5206 43.2419 49.2106 43.7419 48.1406 44.0219C47.7306 44.0619 47.3406 44.2519 47.0706 44.5619C46.7906 44.8719 46.6506 45.2719 46.6506 45.6919C46.5806 46.8519 46.1806 47.2619 45.0206 47.3119C44.6406 47.2819 44.2606 47.4019 43.9706 47.6519C43.6706 47.8919 43.4806 48.2419 43.4306 48.6219C43.1206 49.7919 42.6706 50.0919 41.4606 49.9419C41.1006 49.8519 40.7106 49.9019 40.3806 50.0819C40.0406 50.2619 39.7906 50.5619 39.6606 50.9219C39.1406 52.0019 38.6506 52.2019 37.4806 51.8219C37.1406 51.6619 36.7706 51.6319 36.4106 51.7419C36.0606 51.8419 35.7606 52.0719 35.5606 52.3819C34.7906 53.4019 34.2806 53.5119 33.1906 52.8819C32.8906 52.6519 32.5106 52.5619 32.1306 52.6019C31.7506 52.6419 31.4106 52.8219 31.1606 53.1119C30.2606 53.9319 29.7206 53.9119 28.8006 53.1119C28.5506 52.8319 28.2206 52.6619 27.8506 52.6219C27.4906 52.5819 27.1206 52.6819 26.8206 52.9019C25.7606 53.5419 25.2006 53.4319 24.4506 52.4519C24.2606 52.1419 23.9706 51.9019 23.6206 51.7919C23.2806 51.6819 22.9006 51.7019 22.5706 51.8519C21.3506 52.2619 20.9006 52.0519 20.3306 50.9319C19.9706 50.1619 19.4706 49.7119 18.7206 49.9819C17.3306 50.0819 16.9206 49.8719 16.5706 48.6119C16.5106 48.2419 16.3206 47.9119 16.0406 47.6719C15.7506 47.4419 15.3906 47.3219 15.0306 47.3419C13.8306 47.2819 13.4106 46.8819 13.3306 45.6819C13.3606 45.3019 13.2406 44.9319 13.0106 44.6319C12.7806 44.3419 12.4506 44.1419 12.0806 44.0719C10.8806 43.7419 10.5806 43.2919 10.7406 42.0319C10.8306 41.6719 10.7706 41.2919 10.6006 40.9619C10.4206 40.6419 10.1306 40.3919 9.78055 40.2719C8.70055 39.7219 8.49055 39.2619 8.88055 38.0719C9.03055 37.7219 9.06055 37.3319 8.94055 36.9619C8.82055 36.5919 8.58055 36.2819 8.25055 36.0919C7.31055 35.3719 7.18055 34.7919 7.80055 33.7519C8.02055 33.4619 8.13055 33.0919 8.10055 32.7219C8.07055 32.3519 7.91055 32.0119 7.64055 31.7619C6.82055 30.7919 6.83055 30.2819 7.64055 29.3219C7.91055 29.0819 8.09055 28.7419 8.13055 28.3719C8.17055 28.0019 8.07055 27.6319 7.86055 27.3319C7.21055 26.2119 7.34055 25.6719 8.36055 24.8819C8.65055 24.7119 8.87055 24.4319 8.98055 24.1019C9.08055 23.7719 9.06055 23.4119 8.91055 23.1019C8.48055 21.7819 8.70055 21.3519 9.95055 20.6819C10.2406 20.5619 10.4806 20.3419 10.6206 20.0619C10.7606 19.7719 10.8006 19.4519 10.7306 19.1419C10.5706 17.7019 10.8306 17.3419 12.2306 16.9219C12.5206 16.8619 12.7906 16.7119 12.9906 16.4819C13.1906 16.2519 13.3006 15.9619 13.3106 15.6519C13.4106 14.1619 13.7506 13.8419 15.2206 13.7019C15.5306 13.7119 15.8206 13.6019 16.0606 13.4119C16.3006 13.2119 16.4606 12.9419 16.5106 12.6419C16.9206 11.2019 17.2306 10.9819 18.7006 11.1119C19.0306 11.1719 19.3606 11.1119 19.6506 10.9619C19.9406 10.8119 20.1606 10.5419 20.2806 10.2419C20.9206 9.00187 21.3706 8.82187 22.6206 9.23187C22.9306 9.37187 23.2806 9.40188 23.6106 9.30187C23.9406 9.20187 24.2206 8.99187 24.4006 8.70187C25.2406 7.63187 25.7606 7.52188 26.9106 8.18188C27.1806 8.39188 27.5206 8.49187 27.8606 8.45187C28.2006 8.42187 28.5106 8.27188 28.7406 8.01188C29.7706 7.14188 30.2706 7.14188 31.2906 8.01188C31.5206 8.28188 31.8406 8.44187 32.1906 8.48187C32.5306 8.52187 32.8806 8.43188 33.1606 8.22188C34.3606 7.54188 34.8306 7.64187 35.6606 8.70187C35.8506 8.99187 36.1306 9.22188 36.4606 9.31188C36.8006 9.41188 37.1606 9.38187 37.4706 9.23187C38.7606 8.81187 39.2006 9.00187 39.8306 10.2119C39.9406 10.5219 40.1606 10.7819 40.4506 10.9419C40.7306 11.1019 41.0706 11.1619 41.3906 11.1019C42.8906 10.9719 43.1706 11.1619 43.5906 12.6119C43.6506 12.9219 43.8306 13.2119 44.0806 13.4119C44.3306 13.6119 44.6406 13.7119 44.9706 13.7019C46.2206 13.7919 46.6006 14.1219 46.7206 15.3819C46.7006 15.7719 46.8206 16.1519 47.0706 16.4519C47.3106 16.7419 47.6606 16.9419 48.0406 16.9919C49.2406 17.3019 49.5006 17.7719 49.3406 19.0319C49.2606 19.3719 49.3006 19.7319 49.4506 20.0319C49.6106 20.3419 49.8706 20.5819 50.1906 20.7119C51.4506 21.3619 51.6206 21.7819 51.1906 23.1319C51.0606 23.4319 51.0406 23.7819 51.1406 24.0919C51.2406 24.4119 51.4406 24.6819 51.7206 24.8619C52.8406 25.7819 52.9106 26.1819 52.2206 27.4419C52.0306 27.7219 51.9506 28.0519 51.9806 28.3819C52.0206 28.7119 52.1706 29.0119 52.4106 29.2419ZM52.2306 30.5519C52.2306 30.3919 52.1906 30.2419 52.1206 30.1019C52.0606 29.9619 51.9506 29.8419 51.8306 29.7519C51.6306 29.5919 51.4706 29.3919 51.3506 29.1719C51.2306 28.9519 51.1506 28.7019 51.1206 28.4519C51.1006 28.2019 51.1206 27.9419 51.2006 27.7019C51.2706 27.4619 51.3906 27.2319 51.5506 27.0419C51.6606 26.9219 51.7406 26.7919 51.7806 26.6419C51.8206 26.4919 51.8306 26.3319 51.7906 26.1719C51.7606 26.0219 51.7006 25.8819 51.6006 25.7519C51.5106 25.6319 51.3806 25.5319 51.2406 25.4719C50.8006 25.2219 50.4706 24.8119 50.3206 24.3219C50.1806 23.8319 50.2306 23.3119 50.4706 22.8619C50.5506 22.7319 50.6006 22.5919 50.6106 22.4419C50.6206 22.2919 50.6006 22.1419 50.5406 22.0019C50.4906 21.8619 50.4006 21.7419 50.2906 21.6419C50.1806 21.5519 50.0506 21.4819 49.9006 21.4419C49.6506 21.3619 49.4206 21.2419 49.2106 21.0719C49.0106 20.9019 48.8406 20.6919 48.7206 20.4619C48.6006 20.2219 48.5206 19.9619 48.5006 19.7019C48.4806 19.4319 48.5106 19.1719 48.5906 18.9119C48.6406 18.7919 48.6606 18.6519 48.6406 18.5219C48.6406 18.3819 48.5806 18.2619 48.5106 18.1419C48.4406 18.0319 48.3506 17.9319 48.2306 17.8619C48.1206 17.7919 47.9906 17.7419 47.8606 17.7319C47.5906 17.7119 47.3306 17.6419 47.0806 17.5119C46.8406 17.3919 46.6306 17.2219 46.4506 17.0119C46.2806 16.8019 46.1506 16.5619 46.0706 16.3019C45.9906 16.0419 45.9606 15.7619 45.9806 15.4919C45.9806 14.7619 45.5606 14.4719 44.9306 14.4719C44.6806 14.5119 44.4306 14.4919 44.1906 14.4219C43.9506 14.3519 43.7206 14.2419 43.5206 14.0819C43.3306 13.9219 43.1606 13.7319 43.0406 13.5019C42.9206 13.2819 42.8506 13.0419 42.8206 12.7819C42.8206 12.6219 42.7706 12.4619 42.7006 12.3219C42.6206 12.1819 42.5106 12.0619 42.3806 11.9719C42.2506 11.8819 42.0906 11.8219 41.9406 11.8019C41.7806 11.7819 41.6206 11.8019 41.4606 11.8519C40.9806 11.9919 40.4606 11.9319 40.0206 11.6919C39.5706 11.4419 39.2406 11.0319 39.1006 10.5419C39.0606 10.4019 38.9906 10.2619 38.9006 10.1519C38.8006 10.0419 38.6806 9.95187 38.5406 9.89188C38.4106 9.83188 38.2606 9.81187 38.1106 9.82187C37.9606 9.83187 37.8206 9.88187 37.7006 9.96187C37.2406 10.2019 36.7006 10.2519 36.2106 10.1019C35.7106 9.95187 35.3006 9.60188 35.0506 9.14188C34.9906 9.01188 34.8906 8.89188 34.7806 8.80187C34.6606 8.71187 34.5206 8.64187 34.3806 8.62187C34.2306 8.59187 34.0806 8.60188 33.9406 8.64188C33.8006 8.68188 33.6706 8.76187 33.5606 8.86187C33.3606 9.02187 33.1406 9.15188 32.8906 9.22188C32.6406 9.30188 32.3906 9.32187 32.1306 9.29187C31.8806 9.27187 31.6306 9.19187 31.4006 9.07187C31.1806 8.94187 30.9806 8.78187 30.8206 8.58187C30.7306 8.45187 30.6206 8.36187 30.4906 8.29187C30.3606 8.22187 30.2106 8.18188 30.0606 8.18188C29.9106 8.18188 29.7706 8.22187 29.6406 8.29187C29.5106 8.36187 29.3906 8.45187 29.3106 8.58187C28.9806 8.98187 28.5006 9.24187 27.9906 9.29187C27.4706 9.34187 26.9606 9.19187 26.5506 8.86187C26.4506 8.76187 26.3206 8.68188 26.1806 8.64188C26.0306 8.60188 25.8806 8.59187 25.7406 8.62187C25.5906 8.65187 25.4606 8.71187 25.3406 8.80187C25.2206 8.89188 25.1306 9.01188 25.0706 9.14188C24.8206 9.60188 24.4006 9.95187 23.9106 10.1019C23.4106 10.2519 22.8806 10.2019 22.4206 9.96187C22.2906 9.87187 22.1506 9.82188 22.0006 9.81188C21.8506 9.79188 21.6906 9.82187 21.5506 9.87187C21.4106 9.93187 21.2906 10.0219 21.1906 10.1419C21.1006 10.2619 21.0306 10.4019 21.0006 10.5419C20.9306 10.7919 20.8206 11.0219 20.6606 11.2219C20.5006 11.4119 20.3106 11.5819 20.0906 11.7019C19.8706 11.8219 19.6306 11.9019 19.3806 11.9319C19.1306 11.9519 18.8706 11.9219 18.6306 11.8519C17.8906 11.7019 17.4706 12.0419 17.2706 12.7919C16.9006 14.1119 16.5906 14.3719 15.2306 14.4519C14.4806 14.5019 14.0906 14.8219 14.0906 15.5719C14.1206 15.8319 14.0906 16.0919 14.0206 16.3419C13.9406 16.5819 13.8206 16.8119 13.6506 17.0119C13.4906 17.2119 13.2906 17.3719 13.0606 17.4919C12.8406 17.6119 12.5906 17.6919 12.3306 17.7119C12.1906 17.7219 12.0606 17.7719 11.9306 17.8419C11.8106 17.9219 11.7106 18.0219 11.6306 18.1419C11.5506 18.2519 11.5006 18.3919 11.4806 18.5319C11.4606 18.6719 11.4706 18.8219 11.5106 18.9519C11.6606 19.4419 11.6106 19.9619 11.3706 20.4119C11.1406 20.8619 10.7406 21.2019 10.2606 21.3619C10.1106 21.3919 9.96055 21.4619 9.85055 21.5619C9.73055 21.6619 9.63055 21.7819 9.57055 21.9219C9.51055 22.0719 9.48055 22.2219 9.49055 22.3819C9.50055 22.5419 9.55055 22.6919 9.63055 22.8219C9.75055 23.0419 9.83055 23.2919 9.85055 23.5419C9.88055 23.7919 9.85055 24.0419 9.78055 24.2919C9.71055 24.5319 9.59055 24.7619 9.43055 24.9519C9.27055 25.1519 9.08055 25.3119 8.86055 25.4319C8.72055 25.4919 8.59055 25.5919 8.50055 25.7119C8.40055 25.8319 8.33055 25.9719 8.30055 26.1319C8.27055 26.2819 8.28055 26.4319 8.32055 26.5819C8.36055 26.7319 8.44055 26.8719 8.54055 26.9819C8.86055 27.3619 9.01055 27.8519 8.97055 28.3519C8.93055 28.8419 8.70055 29.3019 8.33055 29.6319C8.19055 29.7219 8.08055 29.8519 8.00055 30.0019C7.93055 30.1519 7.89055 30.3219 7.89055 30.4819C7.89055 30.6519 7.93055 30.8219 8.00055 30.9719C8.08055 31.1219 8.19055 31.2419 8.33055 31.3419C8.68055 31.6519 8.90055 32.0819 8.96055 32.5419C9.01055 33.0119 8.89055 33.4819 8.63055 33.8619C8.06055 34.8519 8.08055 34.9219 8.98055 35.6419C9.35055 35.8919 9.63055 36.2619 9.76055 36.7019C9.89055 37.1319 9.86055 37.6019 9.69055 38.0219C9.33055 39.1119 9.35055 39.1619 10.3906 39.6819C10.8106 39.8519 11.1506 40.1619 11.3606 40.5619C11.5606 40.9619 11.6206 41.4319 11.5206 41.8719V41.9419C11.4706 42.1019 11.4506 42.2619 11.4606 42.4219C11.4806 42.5819 11.5406 42.7419 11.6306 42.8719C11.7106 43.0119 11.8306 43.1219 11.9706 43.2019C12.1106 43.2819 12.2606 43.3319 12.4206 43.3519C12.8806 43.4119 13.3106 43.6319 13.6306 43.9819C14.2306 43.5019 14.7906 43.0419 15.3106 42.5719C16.5506 41.2719 17.5206 39.7319 18.1606 38.0419C18.2706 37.7419 18.2706 37.4219 18.1606 37.1219C18.0506 36.8319 17.8306 36.5919 17.5406 36.4519C16.9906 36.1019 16.3806 35.8519 15.7506 35.6819C15.1406 35.5019 14.5606 35.2419 14.0206 34.8919C13.3906 34.4619 12.9106 33.9519 13.0806 33.1119C13.2106 32.7519 13.4306 32.4219 13.7406 32.1919C14.0406 31.9519 14.4006 31.8019 14.7906 31.7719C15.2106 31.7219 15.6506 31.7819 16.0406 31.9619C16.5606 32.2219 17.1406 32.3719 17.7306 32.4019C18.2906 32.4119 18.6106 32.2819 18.5406 31.5719C18.3506 29.8619 18.3906 28.1419 18.3506 26.4119C18.2406 21.3119 22.1306 16.9819 27.0006 16.0319C30.5206 15.3419 33.9306 15.6719 36.9506 17.7719C38.3706 18.6919 39.5306 19.9519 40.3306 21.4419C41.1306 22.9319 41.5406 24.6119 41.5206 26.3019V29.1519C42.7906 29.0319 44.0806 28.8919 45.3306 28.7819C45.9106 28.7219 46.5006 28.4819 47.0506 29.0419C47.2706 29.2719 47.7306 29.0119 48.0706 28.9519C49.2006 28.7619 49.3506 28.8219 49.8806 29.7819C49.9106 29.8419 49.9506 29.9119 49.9906 29.9719C50.8806 31.0719 50.9306 31.7319 50.1306 32.9119C49.8206 33.3719 49.7206 33.9319 49.4306 34.3919C48.7806 35.4819 47.7306 36.2719 46.5106 36.6019C45.5806 36.8619 45.1206 37.6419 45.1906 38.7519C45.2706 39.9619 45.6406 40.4219 46.7306 40.6019C46.9906 40.6019 47.2506 40.7019 47.4606 40.8719C47.6606 41.0519 47.8006 41.2919 47.8406 41.5619C47.9706 42.0619 48.5506 42.3419 48.4606 42.9719C48.8106 42.6619 48.6606 42.3219 48.6106 41.9619C48.4906 41.5019 48.5406 41.0219 48.7606 40.6019C48.9906 40.1919 49.3506 39.8819 49.8006 39.7219C49.9606 39.6919 50.1206 39.6119 50.2606 39.5019C50.3906 39.3919 50.4906 39.2419 50.5606 39.0819C50.6306 38.9219 50.6506 38.7519 50.6406 38.5719C50.6306 38.4019 50.5706 38.2319 50.4806 38.0819C50.2706 37.6719 50.2306 37.1919 50.3706 36.7519C50.5006 36.3119 50.8006 35.9319 51.2006 35.7019C51.3506 35.6319 51.4906 35.5319 51.5906 35.4019C51.7006 35.2719 51.7706 35.1219 51.8106 34.9619C51.8506 34.7919 51.8406 34.6219 51.8006 34.4619C51.7606 34.3019 51.6806 34.1519 51.5606 34.0219C51.2606 33.6319 51.1106 33.1419 51.1606 32.6519C51.2106 32.1519 51.4506 31.7019 51.8306 31.3819V31.3519C51.9506 31.2619 52.0606 31.1419 52.1306 31.0019C52.2006 30.8619 52.2406 30.7119 52.2406 30.5519H52.2306ZM49.0006 32.7119C49.4206 32.7119 49.9406 31.8519 49.9306 31.2019C49.9506 31.0019 49.9006 30.8119 49.7806 30.6419C49.6706 30.4819 49.5006 30.3719 49.3006 30.3319C48.6806 30.2719 48.1906 31.0219 48.1706 31.6819C48.1606 32.3419 48.4706 32.7319 49.0106 32.7319V32.7119H49.0006ZM49.0906 33.7419V33.7119C49.0906 33.6519 49.0206 33.5919 48.9606 33.5519C48.9006 33.5119 48.8206 33.5019 48.7506 33.5119C48.6906 33.5519 48.6406 33.6019 48.6206 33.6719C48.5106 33.9019 48.3906 34.1019 48.2706 34.3019L48.1806 34.4319L48.0706 34.5119H48.0606C47.6006 34.8319 47.2406 35.3019 47.0406 35.8519C47.4706 35.6919 47.8506 35.4419 48.1706 35.1219C48.2506 35.0219 48.3106 34.9219 48.3906 34.8119C48.4806 34.7019 48.5806 34.5819 48.6806 34.4819L48.8306 34.3019C48.8906 34.2219 48.9306 34.1319 48.9806 34.0519C49.0306 33.9519 49.0706 33.8519 49.0906 33.7419ZM49.3706 29.6719C49.2206 29.5319 49.0306 29.4319 48.8406 29.3919C48.6406 29.3419 48.4306 29.3419 48.2306 29.3919C47.8206 29.4919 47.4006 29.5719 46.9806 29.6219C46.9006 29.6319 46.8206 29.6219 46.7406 29.5819C46.6506 29.5119 46.6206 29.3919 46.5406 29.3019C46.4606 29.2319 46.3606 29.1819 46.2506 29.1619C46.1406 29.1419 46.0306 29.1419 45.9206 29.1719L39.8306 29.7719C39.7006 29.7719 39.5806 29.8019 39.4706 29.8619C39.3406 29.9619 39.2206 30.0719 39.1206 30.1919C38.7306 30.4319 38.2706 30.5219 37.8206 30.4519C37.6006 30.4119 37.3706 30.4319 37.1606 30.5119C36.9406 30.5919 36.7606 30.7319 36.6206 30.9119C36.5206 31.1319 36.4806 31.3619 36.5106 31.5919C36.5206 32.7119 36.8306 33.8019 37.4006 34.7519C37.6906 35.2219 38.0706 35.6119 38.5306 35.9219C38.9906 36.2219 39.5006 36.4119 40.0406 36.4919C39.6706 36.0319 39.2306 35.6419 38.7406 35.3219C38.1806 34.8419 37.7506 34.2419 37.4806 33.5619C37.2106 32.8819 37.1006 32.1519 37.1806 31.4219C37.1806 31.3319 37.2106 31.2519 37.2606 31.1819C37.3306 31.1119 37.4206 31.0819 37.5106 31.0719C37.8806 31.0119 38.2506 31.0319 38.6206 31.1119C38.7406 31.1319 38.8506 31.1819 38.9506 31.2519C39.0506 31.3619 39.1306 31.4919 39.1706 31.6319C39.2106 31.7719 39.2106 31.9219 39.1906 32.0719C39.1406 33.1319 39.0406 34.2619 39.5806 35.1619C40.3006 36.3419 41.8906 36.7319 42.6406 37.8919C42.8406 38.1919 42.9706 38.5319 43.0206 38.8919C43.0706 39.2419 43.0506 39.6119 42.9606 39.9519C42.8606 40.2919 42.6906 40.6119 42.4606 40.8819C42.2306 41.1519 41.9506 41.3619 41.6306 41.5219C41.4406 41.5819 41.2606 41.6919 41.1206 41.8319C40.9906 41.9819 40.9906 42.2719 41.1806 42.3519C41.2606 42.3719 41.3406 42.3719 41.4106 42.3519L47.0406 41.7819C47.1006 41.7819 47.1606 41.7619 47.2106 41.7419C47.4106 41.6419 47.3406 41.3119 47.1506 41.1919C46.9506 41.1019 46.7406 41.0519 46.5206 41.0419C46.0706 40.9619 45.6606 40.7319 45.3406 40.3919C45.0306 40.0519 44.8206 39.6119 44.7706 39.1519C44.7306 38.6819 44.7906 38.2119 44.9406 37.7719C45.0906 37.3219 45.3206 36.9119 45.6406 36.5619C45.8706 36.2819 46.1506 36.0219 46.4106 35.7519C46.7206 35.4619 46.9806 35.1219 47.1706 34.7419C47.4406 34.0919 47.5106 33.3719 47.3706 32.6819C47.2806 31.9819 47.0806 31.3119 46.9906 30.6219C46.9506 30.5319 46.9506 30.4419 46.9906 30.3519C47.0406 30.2919 47.1206 30.2519 47.2106 30.2419C47.2106 30.1219 49.1906 29.8019 49.3706 29.6719ZM47.8406 42.5619V42.5419C47.8206 42.1319 47.3306 42.3319 47.0206 42.3719C46.2006 42.4419 45.3806 42.5619 44.5606 42.6519C44.3306 42.6219 44.1006 42.6419 43.8806 42.7119L43.7606 42.7619L43.0306 42.8019C42.8006 42.7819 42.5706 42.8019 42.3506 42.8719C42.3106 42.8819 42.2706 42.8919 42.2306 42.9219C41.8806 42.8819 41.5205 42.9019 41.1706 42.9719C40.9906 43.0319 40.5306 42.8319 40.6006 43.2819C40.6806 43.7219 41.0206 43.4119 41.2306 43.4119C41.3806 43.4119 41.5306 43.4019 41.6806 43.3619C41.9506 43.3919 42.2206 43.3619 42.4806 43.2619L43.1906 43.2219C43.4206 43.2419 43.6606 43.2219 43.8906 43.1419L43.9906 43.1019L44.7206 43.0619C44.9506 43.0919 45.1806 43.0619 45.4106 42.9919L45.5206 42.9519L46.2506 42.9019C46.5306 42.9419 46.8106 42.9119 47.0606 42.8019C47.3406 42.7319 47.8406 43.0019 47.8406 42.5619ZM47.3306 43.5019C47.5106 43.3919 48.2806 43.2819 48.4106 43.0619C48.0406 43.2019 47.1406 43.3619 46.7906 43.5219C46.3706 43.5819 45.9606 43.6119 45.5406 43.6219C45.6706 43.8819 46.3106 44.1119 46.4306 44.3519C46.6406 43.9919 46.9506 43.7019 47.3206 43.5319V43.5019H47.3306ZM45.8206 46.3819C46.1106 46.1819 46.3106 45.8819 46.3906 45.5419C45.6906 45.0519 45.0206 44.5019 44.4006 43.9119C44.3206 43.8219 44.2206 43.7619 44.1106 43.7319C44.0006 43.7019 43.8906 43.7019 43.7806 43.7419C42.8406 43.8419 41.9106 43.9319 40.9606 44.0119C40.7306 44.0319 40.4306 44.2319 40.2806 43.9119C40.1906 43.7719 40.1406 43.6119 40.1406 43.4419C40.1406 43.2719 40.1906 43.1119 40.2806 42.9719C40.3806 42.8619 40.4606 42.7319 40.5106 42.5819C40.5606 42.4419 40.5706 42.2919 40.5606 42.1419C40.5406 41.5019 41.1006 41.3619 41.5106 41.2119C41.9206 41.0619 41.9706 40.9519 41.7306 40.5219C41.2306 39.6319 40.6106 38.7519 40.7106 37.6319C40.7506 37.2819 40.5106 37.2619 40.2906 37.2119C37.0406 36.5219 36.1006 34.0819 36.0706 31.3819C36.0606 30.6619 36.5606 30.2019 37.3606 30.1219C38.0206 30.0519 38.7006 30.2719 39.2306 29.5819C39.5106 29.2119 40.1806 29.5619 40.6006 29.2519C40.5706 27.6419 40.7506 26.0019 40.3906 24.4019C40.1006 23.1219 39.5406 21.9119 38.7606 20.8619C37.9806 19.8019 36.9906 18.9219 35.8506 18.2819C31.7506 15.7519 25.7506 16.3219 22.2906 19.5419C21.3606 20.3619 20.6106 21.3819 20.0906 22.5119C19.5606 23.6519 19.2906 24.8919 19.2706 26.1419C19.2206 28.1519 19.3206 30.1619 19.4706 32.1619C19.5006 32.4019 19.4506 32.6419 19.3106 32.8419C19.1706 33.0419 18.9606 33.1819 18.7306 33.2319C17.8406 33.5019 16.8806 33.4419 16.0306 33.0619C15.7606 32.9419 15.4706 32.8419 15.1706 32.7719C14.9406 32.7219 14.7006 32.7519 14.4906 32.8519C14.2806 32.9619 14.1106 33.1319 14.0106 33.3419C13.8206 33.8419 14.3206 34.0519 14.6406 34.2619C15.1406 34.5719 15.6806 34.8019 16.2506 34.9519C16.8406 35.1219 17.4106 35.3619 17.9306 35.6719C18.4606 35.9319 18.8606 36.3919 19.0606 36.9519C19.2506 37.5019 19.2206 38.1219 18.9706 38.6519C17.9606 41.3119 16.1406 43.5919 13.7906 45.1619C13.8506 45.0519 13.8006 44.8819 13.7306 44.7019C13.7506 44.8519 13.7906 45.0019 13.7906 45.1619C13.8106 46.2019 14.1306 46.6219 15.2006 46.6619C15.6106 46.6319 16.0306 46.7619 16.3606 47.0219C16.6906 47.2919 16.9106 47.6619 16.9706 48.0819C17.2706 49.2119 17.6306 49.4519 18.7306 49.2819C19.1306 49.1819 19.5506 49.2219 19.9106 49.4219C20.2706 49.6119 20.5506 49.9319 20.6806 50.3219C21.2006 51.3819 21.5106 51.4819 22.6406 51.1219C23.0106 50.9519 23.4306 50.9319 23.8206 51.0419C24.2106 51.1619 24.5506 51.4119 24.7706 51.7519C25.4606 52.6919 25.7206 52.7219 26.7506 52.1619C27.1006 51.9119 27.5206 51.8019 27.9406 51.8419C28.3606 51.8819 28.7506 52.0719 29.0506 52.3719C29.9306 53.1519 30.2006 53.1519 31.0706 52.3719C31.3806 52.0619 31.7806 51.8619 32.2206 51.8319C32.6506 51.7919 33.0806 51.9119 33.4406 52.1619C34.3906 52.7119 34.7106 52.6719 35.3706 51.7519C35.5906 51.3919 35.9406 51.1319 36.3406 51.0019C36.7406 50.8819 37.1706 50.9119 37.5606 51.0919C38.6306 51.4319 39.0006 51.2919 39.5006 50.2419C39.6306 49.8719 39.8906 49.5619 40.2406 49.3719C40.5906 49.1919 40.9906 49.1419 41.3706 49.2319C42.5706 49.3619 42.8806 49.1219 43.1906 47.9719C43.2406 47.5719 43.4406 47.2119 43.7506 46.9619C44.0506 46.7019 44.4406 46.5819 44.8406 46.6119C45.1806 46.6619 45.5406 46.5819 45.8206 46.3819ZM42.5506 40.0019C42.8806 39.1319 42.5306 38.4919 41.9606 37.6319C41.9106 37.5419 41.7306 37.3019 41.5906 37.4619C41.4506 37.6219 41.4906 37.6419 41.4906 38.0319H41.4806C41.4906 38.4119 41.5906 38.7919 41.7806 39.1419C41.9606 39.4819 42.2306 39.7819 42.5506 40.0019ZM41.4506 29.1719C41.4506 29.1719 41.4206 29.1219 41.4006 29.1019V29.1719H41.4506ZM38.8606 34.7019V34.6819C38.7506 34.0819 38.7106 33.4719 38.7206 32.8719C38.7306 32.4619 38.9606 31.7619 38.4806 31.5719C38.3306 31.5219 38.1806 31.5019 38.0306 31.5019C37.9506 31.4819 37.8806 31.4819 37.8006 31.5019C37.7506 31.5319 37.7006 31.5819 37.6706 31.6419C37.6406 31.7019 37.6206 31.7619 37.6106 31.8319C37.5606 32.2619 37.6206 32.6919 37.7906 33.0919C37.9906 33.7119 38.3606 34.2719 38.8606 34.7019Z" fill="black"/>
<path d="M52.6891 15.1987C52.5891 15.4087 52.4791 15.5587 52.2791 15.4087C52.1791 15.3487 52.1391 15.2287 52.0391 15.1187C51.9491 15.0087 51.8491 14.8187 51.6891 14.9587C51.5191 15.1087 51.7191 15.1887 51.7691 15.3487C51.8191 15.5187 52.0991 15.6687 51.8191 15.8687C51.5391 16.0587 51.4891 15.7787 51.3691 15.6187C51.2491 15.4587 51.1691 15.2887 50.9491 15.4587C50.7391 15.6387 50.9191 15.7387 50.9991 15.9187C51.0891 16.0987 51.4991 16.1787 51.1191 16.4787C50.7391 16.7787 50.7391 16.2887 50.5991 16.1487C50.1191 15.7187 50.0691 15.3087 50.7491 14.9987C50.9891 14.8587 51.2191 14.6987 51.4391 14.5287C51.6191 14.4187 51.7991 14.0987 52.0191 14.2987C52.2691 14.5687 52.4891 14.8787 52.6891 15.1987Z" fill="black"/>
<path d="M52.1189 30.0997C52.1889 30.2397 52.2289 30.3897 52.2289 30.5497C52.2289 30.7097 52.1889 30.8597 52.1189 30.9997C52.0489 31.1397 51.9389 31.2597 51.8189 31.3497V31.3797C51.4389 31.6997 51.1989 32.1497 51.1489 32.6497C51.0989 33.1397 51.2489 33.6297 51.5489 34.0197C51.6689 34.1497 51.7489 34.2997 51.7889 34.4597C51.8289 34.6197 51.8389 34.7897 51.7989 34.9597C51.7589 35.1197 51.6889 35.2697 51.5789 35.3997C51.4789 35.5297 51.3389 35.6297 51.1889 35.6997C50.7889 35.9297 50.4889 36.3097 50.3589 36.7497C50.2189 37.1897 50.2589 37.6697 50.4689 38.0797C50.5589 38.2297 50.6189 38.3997 50.6289 38.5697C50.6289 38.7497 50.6189 38.9197 50.5489 39.0797C50.4789 39.2397 50.3789 39.3897 50.2489 39.4997C50.1089 39.6097 49.9489 39.6897 49.7889 39.7197C49.3389 39.8797 48.9789 40.1897 48.7489 40.5997C48.5289 41.0197 48.4789 41.4997 48.5989 41.9597C48.6489 42.3197 48.7989 42.6597 48.4489 42.9697C48.5389 42.3397 47.9589 42.0597 47.8289 41.5597C47.7889 41.2897 47.6489 41.0497 47.4489 40.8697C47.2389 40.6997 46.9789 40.5997 46.7189 40.5997C45.6289 40.4197 45.2589 39.9597 45.1789 38.7497C45.1089 37.6397 45.5689 36.8597 46.4989 36.5997C47.7189 36.2697 48.7689 35.4797 49.4189 34.3897C49.7089 33.9297 49.8089 33.3697 50.1189 32.9097C50.9189 31.7297 50.8689 31.0697 49.9789 29.9697C49.9389 29.9097 49.8989 29.8397 49.8689 29.7797C49.3389 28.8197 49.1889 28.7597 48.0589 28.9497C47.7189 29.0097 47.2589 29.2697 47.0389 29.0397C46.4889 28.4797 45.8989 28.7197 45.3189 28.7797C44.0689 28.8897 42.7789 29.0297 41.5089 29.1497V26.2997C41.5289 24.6097 41.1189 22.9297 40.3189 21.4397C39.5189 19.9497 38.3589 18.6897 36.9389 17.7697C33.9189 15.6697 30.5089 15.3397 26.9889 16.0297C22.1189 16.9797 18.2289 21.3097 18.3389 26.4097C18.3789 28.1397 18.3389 29.8597 18.5289 31.5697C18.5989 32.2797 18.2789 32.4097 17.7189 32.3997C17.1289 32.3697 16.5489 32.2197 16.0289 31.9597C15.6389 31.7797 15.1989 31.7197 14.7789 31.7697C14.3889 31.7997 14.0289 31.9497 13.7289 32.1897C13.4189 32.4197 13.1989 32.7497 13.0689 33.1097C12.8989 33.9497 13.3789 34.4597 14.0089 34.8897C14.5489 35.2397 15.1289 35.4997 15.7389 35.6797C16.3689 35.8497 16.9789 36.0997 17.5289 36.4497C17.8189 36.5897 18.0389 36.8297 18.1489 37.1197C18.2689 37.4197 18.2689 37.7397 18.1489 38.0397C17.5089 39.7297 16.5389 41.2697 15.2989 42.5697C14.7789 43.0397 14.2189 43.4997 13.6189 43.9797C13.2989 43.6297 12.8689 43.4097 12.4089 43.3497C12.2489 43.3297 12.0989 43.2797 11.9589 43.1997C11.8189 43.1197 11.6989 43.0097 11.6189 42.8697C11.5289 42.7397 11.4689 42.5797 11.4489 42.4197C11.4389 42.2597 11.4589 42.0997 11.5089 41.9397V41.8697C11.6089 41.4297 11.5489 40.9597 11.3489 40.5597C11.1389 40.1597 10.7989 39.8497 10.3789 39.6797C9.33891 39.1597 9.31891 39.1097 9.67891 38.0197C9.84891 37.5997 9.87891 37.1297 9.74891 36.6997C9.61891 36.2597 9.33891 35.8897 8.96891 35.6397C8.06891 34.9197 8.04891 34.8497 8.61891 33.8597C8.87891 33.4797 8.99891 33.0097 8.94891 32.5397C8.88891 32.0797 8.66891 31.6497 8.31891 31.3397C8.17891 31.2397 8.06891 31.1197 7.98891 30.9697C7.91891 30.8197 7.87891 30.6497 7.87891 30.4797C7.87891 30.3197 7.91891 30.1497 7.98891 29.9997C8.06891 29.8497 8.17891 29.7197 8.31891 29.6297C8.68891 29.2997 8.91891 28.8397 8.95891 28.3497C8.99891 27.8497 8.84891 27.3597 8.52891 26.9797C8.42891 26.8697 8.34891 26.7297 8.30891 26.5797C8.26891 26.4297 8.25891 26.2797 8.28891 26.1297C8.31891 25.9697 8.38891 25.8297 8.48891 25.7097C8.57891 25.5897 8.70891 25.4897 8.84891 25.4297C9.06891 25.3097 9.25891 25.1497 9.41891 24.9497C9.57891 24.7597 9.69891 24.5297 9.76891 24.2897C9.83891 24.0397 9.86891 23.7897 9.83891 23.5397C9.81891 23.2897 9.73891 23.0397 9.61891 22.8197C9.53891 22.6897 9.48891 22.5397 9.47891 22.3797C9.46891 22.2197 9.49891 22.0697 9.55891 21.9197C9.61891 21.7797 9.71891 21.6597 9.83891 21.5597C9.94891 21.4597 10.0989 21.3897 10.2489 21.3597C10.7289 21.1997 11.1289 20.8597 11.3589 20.4097C11.5989 19.9597 11.6489 19.4397 11.4989 18.9497C11.4589 18.8197 11.4489 18.6697 11.4689 18.5297C11.4889 18.3897 11.5389 18.2497 11.6189 18.1397C11.6989 18.0197 11.7989 17.9197 11.9189 17.8397C12.0489 17.7697 12.1789 17.7197 12.3189 17.7097C12.5789 17.6897 12.8289 17.6097 13.0489 17.4897C13.2789 17.3697 13.4789 17.2097 13.6389 17.0097C13.8089 16.8097 13.9289 16.5797 14.0089 16.3397C14.0789 16.0897 14.1089 15.8297 14.0789 15.5697C14.0789 14.8197 14.4689 14.4997 15.2189 14.4497C16.5789 14.3697 16.8889 14.1097 17.2589 12.7897C17.4589 12.0397 17.8789 11.6997 18.6189 11.8497C18.8589 11.9197 19.1189 11.9497 19.3689 11.9297C19.6189 11.8997 19.8589 11.8197 20.0789 11.6997C20.2989 11.5797 20.4889 11.4097 20.6489 11.2197C20.8089 11.0197 20.9189 10.7897 20.9889 10.5397C21.0189 10.3997 21.0889 10.2597 21.1789 10.1397C21.2789 10.0197 21.3989 9.92969 21.5389 9.86969C21.6789 9.81969 21.8389 9.78969 21.9889 9.80969C22.1389 9.81969 22.2789 9.86969 22.4089 9.95969C22.8689 10.1997 23.3989 10.2497 23.8989 10.0997C24.3889 9.94969 24.8089 9.59969 25.0589 9.13969C25.1189 9.00969 25.2089 8.88969 25.3289 8.79969C25.4489 8.70969 25.5789 8.64969 25.7289 8.61969C25.8689 8.58969 26.0189 8.59969 26.1689 8.63969C26.3089 8.67969 26.4389 8.75969 26.5389 8.85969C26.9489 9.18969 27.4589 9.33969 27.9789 9.28969C28.4889 9.23969 28.9689 8.97969 29.2989 8.57969C29.3789 8.44969 29.4989 8.35969 29.6289 8.28969C29.7589 8.21969 29.8989 8.17969 30.0489 8.17969C30.1989 8.17969 30.3489 8.21969 30.4789 8.28969C30.6089 8.35969 30.7189 8.44969 30.8089 8.57969C30.9689 8.77969 31.1689 8.93969 31.3889 9.06969C31.6189 9.18969 31.8689 9.26969 32.1189 9.28969C32.3789 9.31969 32.6289 9.29969 32.8789 9.21969C33.1289 9.14969 33.3489 9.01969 33.5489 8.85969C33.6589 8.75969 33.7889 8.67969 33.9289 8.63969C34.0689 8.59969 34.2189 8.58969 34.3689 8.61969C34.5089 8.63969 34.6489 8.70969 34.7689 8.79969C34.8789 8.88969 34.9789 9.00969 35.0389 9.13969C35.2889 9.59969 35.6989 9.94969 36.1989 10.0997C36.6889 10.2497 37.2289 10.1997 37.6889 9.95969C37.8089 9.87969 37.9489 9.82969 38.0989 9.81969C38.2489 9.80969 38.3989 9.81969 38.5289 9.88969C38.6689 9.94969 38.7889 10.0397 38.8889 10.1497C38.9789 10.2597 39.0489 10.3997 39.0889 10.5397C39.2289 11.0297 39.5589 11.4397 40.0089 11.6897C40.4489 11.9297 40.9689 11.9897 41.4489 11.8497C41.6089 11.7997 41.7689 11.7797 41.9289 11.7997C42.0789 11.8197 42.2389 11.8797 42.3689 11.9697C42.4989 12.0597 42.6089 12.1797 42.6889 12.3197C42.7589 12.4597 42.8089 12.6197 42.8089 12.7797C42.8389 13.0397 42.9089 13.2797 43.0289 13.4997C43.1489 13.7297 43.3189 13.9197 43.5089 14.0797C43.7089 14.2397 43.9389 14.3497 44.1789 14.4197C44.4189 14.4897 44.6689 14.5097 44.9189 14.4697C45.5489 14.4697 45.9689 14.7597 45.9689 15.4897C45.9489 15.7597 45.9789 16.0397 46.0589 16.2997C46.1389 16.5597 46.2689 16.7997 46.4389 17.0097C46.6189 17.2197 46.8289 17.3897 47.0689 17.5097C47.3189 17.6397 47.5789 17.7097 47.8489 17.7297C47.9789 17.7297 48.1089 17.7897 48.2189 17.8597C48.3389 17.9297 48.4289 18.0297 48.4989 18.1397C48.5689 18.2597 48.6189 18.3797 48.6289 18.5197C48.6489 18.6497 48.6289 18.7897 48.5789 18.9097C48.4989 19.1697 48.4689 19.4297 48.4889 19.6997C48.5089 19.9597 48.5889 20.2197 48.7089 20.4597C48.8289 20.6897 48.9989 20.8997 49.1989 21.0697C49.4089 21.2397 49.6389 21.3597 49.8889 21.4397C50.0389 21.4797 50.1689 21.5497 50.2789 21.6397C50.3889 21.7397 50.4789 21.8597 50.5289 21.9997C50.5889 22.1397 50.6089 22.2897 50.5989 22.4397C50.5889 22.5897 50.5389 22.7297 50.4589 22.8597C50.2189 23.3097 50.1689 23.8297 50.3089 24.3197C50.4589 24.8097 50.7889 25.2197 51.2289 25.4697C51.3689 25.5297 51.4989 25.6297 51.5889 25.7497C51.6889 25.8797 51.7489 26.0197 51.7789 26.1697C51.8189 26.3297 51.8089 26.4897 51.7689 26.6397C51.7289 26.7897 51.6489 26.9197 51.5389 27.0397C51.3789 27.2297 51.2589 27.4597 51.1889 27.6997C51.1089 27.9397 51.0889 28.1997 51.1089 28.4497C51.1389 28.6997 51.2189 28.9497 51.3389 29.1697C51.4589 29.3897 51.6189 29.5897 51.8189 29.7497C51.9389 29.8397 52.0489 29.9597 52.1089 30.0997H52.1189Z" fill="#FFFC00"/>
<path d="M51.7201 13.7597C51.7201 13.9797 51.5501 14.1097 51.4901 14.0697C50.6901 13.4297 50.4801 14.4197 49.9901 14.6097C49.8901 14.6397 49.8301 14.7797 49.7401 14.7797C49.6401 14.7797 49.5501 14.7297 49.4901 14.6597C49.3501 14.5097 49.4501 14.3897 49.5701 14.2797C49.8401 14.0797 50.1501 13.8097 50.3401 13.6497C50.5301 13.4997 50.8201 13.3797 50.5301 13.0197C50.3501 12.8097 50.6801 12.6297 50.7501 12.6697C51.0901 13.0197 51.4201 13.3797 51.7201 13.7597Z" fill="black"/>
<path d="M50.2892 12.0802C50.3992 12.2002 50.5992 12.3202 50.3992 12.5102C50.2092 12.7102 50.0892 12.5402 49.9692 12.4402C49.8392 12.3302 49.7692 12.1502 49.5492 12.1502C49.4892 12.1502 49.4392 12.1802 49.3792 12.2002C49.4392 12.3202 49.4992 12.4002 49.5392 12.4902C49.6192 12.6702 49.9992 12.7602 49.7492 13.0502C49.4892 13.3402 49.3592 13.0002 49.2192 12.8702C49.0692 12.7502 48.9392 12.6402 48.7892 12.8102C48.6392 12.9802 48.7792 13.0002 48.8892 13.1902C48.9892 13.3802 49.4292 13.4802 49.1092 13.7902C48.7892 14.1002 48.6692 13.6202 48.4892 13.4702C48.0392 13.1302 47.9492 12.7702 48.4892 12.4202C48.6492 12.3002 48.7992 12.1602 48.9392 12.0102C49.4192 11.5369 49.8692 11.5602 50.2892 12.0802Z" fill="black"/>
<path d="M49.0106 11.059C49.0106 11.179 48.9806 11.309 48.9206 11.409C48.8606 11.519 48.7706 11.609 48.6706 11.669C48.5606 11.739 48.4506 11.769 48.3206 11.779C48.2006 11.779 48.0806 11.749 47.9706 11.689C47.6506 11.499 47.4406 11.389 47.1806 11.759C47.1206 11.849 47.0006 12.009 46.8206 11.849C46.6306 11.679 46.7206 11.559 46.8706 11.419C47.1506 11.149 47.4006 10.799 47.7006 10.519C47.8606 10.369 47.9806 9.96903 48.2406 10.119C48.4306 10.209 48.6006 10.339 48.7306 10.499C48.8606 10.659 48.9606 10.859 49.0106 11.059ZM48.4906 11.159C48.4906 11.159 48.5106 11.099 48.5106 11.069C48.5006 10.999 48.4606 10.929 48.4106 10.869C48.3606 10.819 48.3006 10.779 48.2306 10.759C48.0506 10.729 47.9506 10.829 47.9506 11.009C47.9506 11.189 48.1006 11.279 48.2506 11.279C48.2806 11.289 48.3206 11.279 48.3506 11.279C48.3806 11.279 48.4006 11.259 48.4306 11.239C48.4506 11.219 48.4706 11.199 48.4906 11.169V11.159Z" fill="black"/>
<path d="M47.5195 9.42056C47.7895 9.60056 47.6495 9.76057 47.5195 9.93056C47.2495 10.3106 46.9295 10.7006 46.6195 11.0806C46.5095 11.2406 46.3695 11.4306 46.1595 11.2406C45.9495 11.0606 46.1495 10.9406 46.2395 10.7906C46.3295 10.6506 46.4395 10.5106 46.6395 10.2406C45.8129 10.5806 45.4429 10.3872 45.5295 9.66056H45.4595C45.1295 9.70056 45.1195 10.5106 44.6995 10.0806C44.3895 9.76056 44.9695 9.52056 45.0795 9.23056C45.2395 8.96056 45.4195 8.72056 45.6295 8.49056C45.7595 8.31056 45.9595 8.22057 46.1195 8.35057C46.2795 8.48057 46.4495 8.54057 46.3495 8.85057C46.2595 9.17057 46.0295 9.43056 46.0995 9.80056C46.4095 9.73056 46.6795 9.57056 46.8895 9.33056C47.1795 9.13056 47.2395 9.23056 47.5195 9.42056Z" fill="black"/>
<path d="M45.5594 32.0099C45.6294 32.1399 45.6494 32.2899 45.6094 32.4299C45.5694 32.5599 45.4794 32.6799 45.3494 32.7499C44.7994 33.1299 44.6294 33.5399 45.0294 34.1299C45.1194 34.2399 45.1594 34.3899 45.1394 34.5299C45.1394 34.6799 45.0594 34.8099 44.9494 34.8999C44.8294 34.9999 44.6794 35.0599 44.5294 35.0599C44.3694 35.0599 44.2194 34.9999 44.1094 34.8999C44.0194 34.7999 43.9094 34.7299 43.7894 34.6799C43.6594 34.6299 43.5294 34.6199 43.3994 34.6299C43.2694 34.6499 43.1394 34.6899 43.0294 34.7599C42.9194 34.8399 42.8294 34.9399 42.7694 35.0499C42.6794 35.1699 42.5494 35.2499 42.4094 35.2799C42.2694 35.2999 42.1294 35.2799 41.9994 35.2099C41.8694 35.1399 41.7694 35.0399 41.7094 34.9099C41.6494 34.7699 41.6294 34.6199 41.6694 34.4799C42.0794 33.8099 41.7194 33.3999 41.0494 33.0899C40.9294 33.0299 40.8394 32.9399 40.7894 32.8199C40.7494 32.7099 40.7394 32.5799 40.7794 32.4599C40.8094 32.3199 40.8994 32.1999 41.0094 32.1199C41.1194 32.0399 41.2594 31.9899 41.3994 31.9999C42.1094 32.0599 42.3894 31.7199 42.4294 31.0499C42.4394 30.9699 42.4494 30.8999 42.4794 30.8399C42.5094 30.7699 42.5494 30.7099 42.5994 30.6599C42.6494 30.6099 42.7094 30.5699 42.7794 30.5499C42.8494 30.5199 42.9194 30.5099 42.9894 30.5099C43.1294 30.4899 43.2694 30.5199 43.3894 30.5999C43.4994 30.6799 43.5794 30.7999 43.6194 30.9399C43.6294 31.0799 43.6794 31.2099 43.7594 31.3299C43.8294 31.4499 43.9394 31.5499 44.0594 31.6199C44.1794 31.6899 44.3194 31.7299 44.4594 31.7399C44.5994 31.7399 44.7394 31.7199 44.8694 31.6599C44.9994 31.6199 45.1494 31.6299 45.2794 31.6999C45.4094 31.7599 45.5094 31.8799 45.5594 32.0099ZM44.9194 32.5999C45.0994 32.4199 45.2494 32.4099 45.1894 32.1699C45.1294 31.9399 44.9094 31.9899 44.7494 32.0399C44.5994 32.1099 44.4494 32.1399 44.2894 32.1399C44.1294 32.1399 43.9694 32.0799 43.8294 31.9999C43.6994 31.9199 43.5794 31.8099 43.4994 31.6699C43.4094 31.5399 43.3594 31.3799 43.3494 31.2199C43.3094 31.0599 43.1994 30.8599 43.0094 30.8899C42.8194 30.9199 42.8194 31.1299 42.8194 31.2599C42.8194 32.1399 42.3094 32.3699 41.5594 32.3699C41.3894 32.3699 40.8994 32.3299 41.2794 32.7399C41.6594 33.1499 42.5294 33.2199 42.2294 34.1099C42.0894 34.3399 42.0494 34.6599 42.1594 34.8199C42.2694 34.9799 42.4394 34.8399 42.5294 34.7199C42.6194 34.5699 42.7394 34.4399 42.8794 34.3499C43.0194 34.2499 43.1794 34.1899 43.3494 34.1699C43.5194 34.1599 43.6894 34.1799 43.8494 34.2399C44.0094 34.3099 44.1494 34.3999 44.2694 34.5299C44.2894 34.5599 44.3194 34.5899 44.3594 34.5999C44.3894 34.6199 44.4294 34.6299 44.4694 34.6299C44.4994 34.6299 44.5394 34.6199 44.5794 34.5999C44.6094 34.5899 44.6394 34.5599 44.6694 34.5299C44.7794 34.4199 44.6694 34.2899 44.6694 34.1699C44.5894 33.7799 44.0994 33.4699 44.4094 32.9899C44.5994 32.8899 44.7794 32.7599 44.9194 32.5999Z" fill="black"/>
<path d="M44.8097 7.39859C45.0097 7.59859 45.1297 7.85859 45.1397 8.14859C45.1397 8.47859 44.9997 8.79859 44.7697 9.03859C44.5297 9.27859 44.2197 9.42859 43.8897 9.44859C43.7497 9.44859 43.6097 9.40859 43.4797 9.34859C43.3497 9.28859 43.2397 9.20859 43.1397 9.09859C43.0497 8.99859 42.9697 8.86859 42.9297 8.73859C42.8797 8.59859 42.8597 8.45859 42.8697 8.31859C42.8897 7.99859 43.0197 7.69859 43.2397 7.45859C43.4597 7.22859 43.7597 7.08859 44.0697 7.05859C44.3497 7.06859 44.6197 7.18859 44.8097 7.39859ZM44.6797 8.10859C44.5997 7.76859 44.4197 7.49859 44.0597 7.54859C43.8697 7.58859 43.6997 7.68859 43.5797 7.83859C43.4597 7.98859 43.3997 8.17859 43.4097 8.36859C43.3997 8.44859 43.4097 8.52859 43.4297 8.59859C43.4597 8.66859 43.4997 8.73859 43.5597 8.78859C43.6197 8.84859 43.6797 8.88859 43.7597 8.90859C43.8397 8.92859 43.9097 8.92859 43.9897 8.91859C44.4597 8.86859 44.5997 8.51859 44.6797 8.10859Z" fill="black"/>
<path d="M42.9497 6.28859C43.1097 6.43859 43.3297 6.64859 43.1797 6.83859C43.0297 7.02859 42.8497 6.86859 42.6697 6.72859C42.2697 6.38859 41.9597 6.55859 41.7497 6.98859C41.5297 7.40859 41.5597 7.81859 42.1197 7.92859C42.3697 7.97859 42.5197 8.08859 42.4397 8.30859C42.3697 8.51859 42.1297 8.45859 41.9797 8.41859C41.8397 8.39859 41.7197 8.34859 41.5997 8.27859C41.4797 8.20859 41.3797 8.11859 41.2997 8.00859C41.2297 7.89859 41.1697 7.77859 41.1397 7.63859C41.1097 7.50859 41.0997 7.36859 41.1397 7.23859C41.1597 6.92859 41.2897 6.63859 41.5097 6.41859C41.7297 6.19859 42.0197 6.06859 42.3297 6.05859C42.5597 6.06859 42.7797 6.14859 42.9597 6.28859H42.9497Z" fill="black"/>
<path d="M40.4799 5.12036C40.6199 5.21036 40.6999 5.35036 40.6199 5.46036C40.5399 5.57036 40.5199 5.62036 40.3199 5.57036C40.1199 5.52036 39.8599 5.14036 39.6999 5.52036C39.5299 5.89036 39.9699 5.84036 40.1499 5.96036C40.1999 5.99036 40.2399 6.04036 40.2599 6.09036C40.2799 6.14036 40.2899 6.20036 40.2699 6.26036C40.1799 6.53036 39.9499 6.41036 39.7999 6.33036C39.6599 6.26036 39.4899 6.02036 39.3499 6.33036C39.1999 6.64036 39.4799 6.63036 39.6499 6.73036C39.8099 6.84036 40.1399 6.87036 39.9799 7.18036C39.8099 7.50036 39.6199 7.22036 39.4599 7.18036C38.7799 7.02036 38.4499 6.69036 38.8999 5.99036C38.9699 5.85036 39.0299 5.71036 39.0799 5.57036C39.4499 4.64036 39.6499 4.58036 40.4799 5.12036Z" fill="black"/>
<path d="M39.2093 54.8093C39.3193 55.0593 39.3393 55.3393 39.2593 55.5993C39.1793 55.8593 39.0193 56.0893 38.7893 56.2393C38.4393 56.4493 38.0593 56.6093 37.6693 56.7093C37.4093 56.8093 37.3693 56.6593 37.3093 56.4793C37.1993 56.1393 37.0793 55.7993 36.9593 55.4593C36.5893 54.3393 36.7993 54.0193 38.0493 54.0193C38.2993 53.9893 38.5593 54.0493 38.7693 54.1893C38.9893 54.3393 39.1393 54.5593 39.2093 54.8093ZM37.9693 56.0493C38.4093 55.8893 38.7593 55.6493 38.7093 55.2393C38.6493 54.8293 38.4193 54.4893 37.9493 54.5493C37.7593 54.5793 37.3193 54.5193 37.4493 54.9193C37.5693 55.3193 37.5393 55.8193 37.9693 56.0493H37.9793C37.9793 56.0493 37.9693 56.0593 37.9693 56.0493Z" fill="black"/>
<path d="M38.8197 4.72109C38.9897 5.11109 38.8297 5.33109 38.4497 5.61109C38.0597 5.90109 38.4497 6.27109 38.3797 6.62109C37.5497 6.68109 38.0197 5.82109 37.6197 5.55109C37.3497 5.74109 37.5297 6.40109 37.0597 6.23109C36.6097 6.07109 37.0897 5.67109 37.0897 5.38109C37.1097 5.20109 37.1697 5.03109 37.2697 4.87109C37.4197 4.61109 37.3197 4.12109 37.7397 4.12109C37.9597 4.12109 38.1697 4.15109 38.3697 4.26109C38.5597 4.36109 38.7197 4.52109 38.8197 4.72109ZM38.0497 5.20109C38.2097 5.21109 38.3397 5.15109 38.3397 4.96109C38.3397 4.77109 38.1997 4.72109 38.0497 4.68109C37.8197 4.62109 37.7997 4.78109 37.7797 4.96109C37.7597 5.14109 37.8797 5.19109 38.0497 5.20109Z" fill="black"/>
<path d="M36.8709 23.6806C36.8909 23.7406 36.9009 23.8106 36.8909 23.8906C36.8609 24.2306 36.5909 24.2306 36.3209 24.2306C34.8109 24.2506 34.4209 24.3906 33.3109 25.2906C34.1309 25.0806 34.9809 25.0306 35.8109 25.1406C36.1909 25.1806 36.4009 25.3506 36.3409 25.7306C36.2809 26.0906 35.9809 26.0306 35.6809 26.0406C34.5209 25.8206 33.4909 25.9906 32.7909 27.0806C32.7209 27.2206 32.5909 27.3306 32.4509 27.3806C32.3009 27.4406 32.1409 27.4306 32.0009 27.3706C31.6309 27.1806 31.6709 26.8106 31.7509 26.4806C32.3209 24.0606 34.4209 23.1706 36.3809 23.3306C36.4509 23.3306 36.5209 23.3406 36.5909 23.3706C36.6509 23.4006 36.7109 23.4406 36.7609 23.4906C36.8109 23.5506 36.8409 23.6106 36.8709 23.6806Z" fill="black"/>
<path d="M36.8095 4.25125C36.8695 4.40125 36.8895 4.55125 36.8795 4.70125C36.8795 5.02125 36.7695 5.33125 36.5495 5.56125C36.3395 5.80125 36.0495 5.94125 35.7295 5.96125C35.4395 5.95125 35.1695 5.83125 34.9595 5.62125C34.7595 5.41125 34.6395 5.13125 34.6295 4.84125C34.6195 4.52125 34.7295 4.20125 34.9395 3.96125C35.1395 3.72125 35.4295 3.56125 35.7495 3.53125C35.8995 3.53125 36.0595 3.55125 36.1995 3.61125C36.3395 3.67125 36.4695 3.75125 36.5695 3.87125C36.6795 3.98125 36.7595 4.11125 36.8095 4.25125ZM36.3395 4.78125C36.3795 4.41125 36.3095 4.10125 35.8795 4.03125C35.4595 3.96125 35.2595 4.27125 35.1895 4.66125C35.1295 5.06125 35.2395 5.42125 35.6695 5.45125C36.0895 5.49125 36.3095 5.15125 36.3395 4.78125Z" fill="black"/>
<path d="M36.4103 56.8006C36.4603 57.1106 36.2103 57.1006 36.0203 57.1506C35.1803 57.3573 34.667 57.0373 34.4803 56.1906C34.4503 56.1006 34.4303 55.9906 34.4303 55.8906C34.4303 55.6006 34.0603 55.1606 34.3803 54.9706C34.7903 54.7906 35.2403 54.6806 35.6903 54.6406C35.7303 54.6406 35.7603 54.6406 35.7903 54.6506C35.8203 54.6606 35.8503 54.6706 35.8703 54.6906C35.9003 54.7106 35.9203 54.7406 35.9303 54.7706C35.9403 54.8006 35.9503 54.8306 35.9403 54.8606C35.9603 55.0106 35.9203 55.1406 35.7603 55.1406C35.6603 55.1406 35.5603 55.1606 35.4603 55.2006C35.2903 55.3106 34.8803 55.0806 34.9603 55.5106C35.0403 55.9406 35.3903 55.6706 35.5803 55.6506C35.7703 55.6306 36.0103 55.5006 36.0903 55.7906C36.2203 56.1806 35.8603 56.0706 35.6903 56.1806C35.5203 56.2806 35.2003 56.1306 35.2003 56.5106C35.2103 56.7906 35.4303 56.7306 35.4303 56.7306C35.7103 56.6806 35.8403 56.6406 35.9603 56.6406C36.1603 56.5706 36.3503 56.4906 36.4103 56.8006Z" fill="black"/>
<path d="M34.8894 30.3088C35.2394 30.7388 34.8494 30.9988 34.5694 31.2588C34.4594 31.3688 34.3594 31.4788 34.2494 31.5888C34.1094 32.0788 33.9394 32.5788 33.8394 33.0588C33.7294 33.5388 33.5794 33.9688 33.0694 34.1088C32.8194 34.1788 32.5594 34.1588 32.3094 34.0688C32.0694 33.9788 31.8594 33.8188 31.7194 33.6088C31.5294 33.3888 31.4394 33.0988 31.1594 32.9788C30.0894 33.1788 28.9894 33.1288 27.9494 32.8488C26.8994 32.5588 25.9194 32.0388 25.0994 31.3188C24.8294 31.0788 24.3794 30.8188 24.7394 30.3788C25.0894 29.9288 25.4194 30.2288 25.7694 30.5188C26.8894 31.5288 28.3394 32.0888 29.8394 32.0788C31.3394 32.0688 32.7894 31.4888 33.8894 30.4588C34.2094 30.1788 34.5294 29.8888 34.8894 30.3088Z" fill="black"/>
<path d="M34.3302 3.28038C34.4702 3.35038 34.7102 3.40038 34.5802 3.66038C34.4902 3.81038 34.3702 3.83038 34.1902 3.75038C33.5902 3.45038 33.3102 3.86038 33.2502 4.34038C33.1902 4.83038 33.4202 5.16038 33.9802 5.05038C34.1902 5.01038 34.3802 5.09038 34.3802 5.28038C34.3802 5.47038 34.1602 5.54038 33.9802 5.54038C33.8302 5.57038 33.6702 5.57038 33.5202 5.54038C33.3702 5.50038 33.2302 5.43038 33.1002 5.34038C32.9802 5.24038 32.8802 5.12038 32.8102 4.98038C32.7402 4.84038 32.7002 4.69038 32.6902 4.53038C32.6602 4.36038 32.6702 4.18038 32.7302 4.01038C32.7802 3.83038 32.8702 3.68038 32.9902 3.55038C33.1102 3.42038 33.2602 3.31038 33.4202 3.25038C33.5802 3.18038 33.7602 3.16038 33.9402 3.17038C34.0702 3.19038 34.2102 3.23038 34.3302 3.28038Z" fill="black"/>
<path d="M33.8406 57.2274C33.8806 57.4374 33.8106 57.5574 33.5806 57.5874C33.3606 57.6074 33.2506 57.5074 33.2506 57.2874C33.1806 56.6574 33.0906 56.0274 32.9906 55.3974C32.9606 55.1574 32.9806 55.1174 33.2806 55.0474C33.5906 54.9774 33.5906 55.1474 33.5906 55.3274C33.6406 55.9574 33.7306 56.5874 33.8406 57.2274Z" fill="black"/>
<path d="M32.3805 55.3816C32.3805 55.3816 32.3805 55.4516 32.3805 55.4816C32.3805 55.5116 32.3705 55.5416 32.3505 55.5716C32.3305 55.5916 32.3105 55.6216 32.2805 55.6416C32.2605 55.6516 32.2305 55.6716 32.1905 55.6716C32.0505 55.7016 31.8905 55.7216 31.7405 55.7216C31.5705 55.7316 31.3805 55.7216 31.3705 55.9816C31.3705 56.2416 31.5105 56.1916 31.7305 56.2416C31.9605 56.2816 32.2805 56.0216 32.3605 56.4416C32.4305 56.8616 32.0205 56.7516 31.8105 56.7516C31.3605 56.7716 31.4205 57.1416 31.4405 57.3416C31.4605 57.5416 31.5405 57.7516 31.2205 57.7816C30.9005 57.8216 30.8205 57.6916 30.8205 57.3616V56.3716H30.7905V56.2916C30.7905 55.9916 30.6905 55.4016 30.7905 55.3616C31.2305 55.2416 31.6705 55.1716 32.1305 55.1716C32.1605 55.1616 32.1905 55.1616 32.2205 55.1716C32.2505 55.1816 32.2805 55.1916 32.3005 55.2116C32.3305 55.2316 32.3505 55.2616 32.3605 55.2916C32.3805 55.3216 32.3805 55.3516 32.3805 55.3816Z" fill="black"/>
<path d="M31.6104 4.02927V4.43927C31.5004 4.65927 31.7204 5.03927 31.3404 5.14927C31.1404 5.23927 30.9204 5.26927 30.7104 5.23927C30.4904 5.20927 30.2904 5.12927 30.1104 4.99927C29.8904 4.81927 29.7504 4.55927 29.7004 4.27927C29.6504 3.98927 29.7004 3.69927 29.8504 3.44927C29.9604 3.21927 30.1604 3.02927 30.3904 2.92927C30.6304 2.82927 30.9004 2.82927 31.1404 2.90927C31.3204 2.93927 31.6004 2.98927 31.5304 3.25927C31.4604 3.52927 31.2604 3.44927 31.0504 3.38927C30.9704 3.34927 30.8904 3.32927 30.8104 3.32927C30.7204 3.32927 30.6404 3.34927 30.5604 3.38927C30.4904 3.42927 30.4204 3.47927 30.3704 3.54927C30.3204 3.60927 30.2804 3.68927 30.2604 3.76927C30.1904 3.91927 30.1704 4.09927 30.2104 4.25927C30.2504 4.42927 30.3504 4.56927 30.4904 4.66927C30.5604 4.73927 30.6604 4.77927 30.7704 4.77927C30.8704 4.77927 30.9704 4.73927 31.0404 4.66927C31.2204 4.48927 31.1804 4.31927 30.8904 4.23927C30.7404 4.20927 30.7104 4.08927 30.7904 3.90927C30.8704 3.73927 31.0304 3.80927 31.2104 3.79927C31.3804 3.79927 31.5804 3.77927 31.6104 4.02927Z" fill="black"/>
<path d="M30.0104 57.41C30.0204 57.61 29.9504 57.75 29.7204 57.75C29.4904 57.76 29.4004 57.67 29.4004 57.44V55.55C29.4004 55.31 29.5104 55.25 29.7204 55.25C29.9704 55.25 30.0204 55.37 30.0104 55.59V57.41Z" fill="black"/>
<path d="M29.3791 4.92109C29.3891 5.06109 29.3391 5.17109 29.1691 5.17109C29.0891 5.19109 28.9991 5.18109 28.9091 5.14109C28.8291 5.11109 28.7591 5.05109 28.7091 4.97109C28.5191 4.66109 28.3091 4.36109 28.0891 4.03109C27.8591 4.29109 27.9891 4.55109 27.9991 4.73109C28.0091 4.90109 28.1291 5.17109 27.8091 5.21109C27.4891 5.26109 27.4891 5.00109 27.4891 4.81109C27.4591 4.32109 27.4291 3.84109 27.3791 3.35109C27.3691 3.20109 27.3191 3.03109 27.5391 2.97109C27.6191 2.94109 27.7091 2.93109 27.7991 2.96109C27.8891 2.98109 27.9591 3.03109 28.0191 3.11109C28.2391 3.45109 28.4391 3.76109 28.6391 4.08109L28.8191 4.30109C28.9591 4.52109 29.0391 4.08109 28.8191 4.30109C28.8091 4.12109 28.7891 3.26109 28.7691 3.10109C28.7591 2.94109 28.8391 2.89109 28.9891 2.87109C29.1491 2.87109 29.2491 2.92109 29.2491 3.08109C29.2991 3.69109 29.3391 4.29109 29.3791 4.92109Z" fill="black"/>
<path d="M28.8203 4.29788C29.0403 4.07788 28.9603 4.51788 28.8203 4.29788V4.29788Z" fill="black"/>
<path d="M28.7095 55.2611C28.8695 55.2711 28.9395 55.3411 28.9295 55.4911C28.9195 55.6411 28.8595 55.7311 28.7095 55.7311C28.0895 55.6211 28.1695 56.1311 28.1495 56.4211C28.1295 56.7011 28.0695 57.0211 28.0495 57.2611C28.0195 57.4911 28.0695 57.7811 27.6795 57.7411C27.2895 57.7011 27.3895 57.4811 27.4195 57.2111C27.4595 56.9511 27.5195 56.6411 27.5295 56.3211C27.5295 55.9911 27.7195 55.5511 27.0895 55.6011C26.9595 55.6211 26.8595 55.5311 26.8795 55.3511C26.9095 55.1711 27.0195 55.1211 27.1995 55.1211L28.7095 55.2611Z" fill="black"/>
<path d="M27.1195 4.79813C27.0995 5.00813 27.2495 5.27813 26.9495 5.32813C26.6495 5.36813 26.6495 5.09813 26.6495 4.90813C26.5895 4.42813 26.5295 3.94813 26.4795 3.46813C26.4595 3.29813 26.3895 3.09813 26.6695 3.04813C26.9495 3.00813 26.9495 3.20813 26.9495 3.38813C27.0095 3.86813 27.0695 4.34813 27.1195 4.79813Z" fill="black"/>
<path d="M26.6402 25.9089C26.7102 26.9889 26.0602 27.8789 25.3402 27.8889C24.6202 27.8989 23.9902 26.9789 23.9902 25.9389C23.9902 24.8989 24.5202 24.1089 25.2402 24.0789C25.9702 24.0489 26.6002 24.8689 26.6402 25.9089Z" fill="black"/>
<path d="M26.419 55.4923C26.439 55.5823 26.449 55.6723 26.439 55.7623C26.419 55.8523 26.389 55.9423 26.339 56.0223C25.989 56.7323 25.969 56.7323 26.179 57.4423C25.9724 57.4423 25.6157 57.1023 25.109 56.4223C24.659 56.5923 25.059 57.3723 24.489 57.2223C23.909 57.0623 24.469 56.5723 24.389 56.2323C24.389 56.0523 24.419 55.8723 24.489 55.7023C24.659 54.7623 25.279 54.5223 26.089 55.0723C26.169 55.1223 26.239 55.1723 26.299 55.2523C26.349 55.3223 26.399 55.4023 26.419 55.4923ZM25.799 55.7023C25.819 55.4223 25.559 55.4323 25.259 55.3223C25.159 55.2923 25.149 55.3623 25.099 55.6023C25.049 55.8323 25.159 55.9123 25.359 55.9223C25.539 55.9223 25.769 55.9923 25.799 55.7023Z" fill="black"/>
<path d="M25.5303 4.13998C25.9203 4.25998 26.2703 4.37998 26.2503 4.88998C26.2503 5.39998 25.8903 5.60998 25.4503 5.60998C25.2603 5.60998 24.9403 5.60998 24.9403 5.30998C24.9303 5.00998 25.2403 5.05998 25.3803 5.07998C25.5203 5.10998 25.7203 5.18998 25.7403 4.89998C25.7403 4.61998 25.5003 4.61998 25.3003 4.57998C25.2103 4.57998 25.1103 4.55998 25.0203 4.51998C24.9303 4.47998 24.8603 4.40998 24.8003 4.32998C24.7403 4.24998 24.7003 4.15998 24.6803 4.05998C24.6603 3.95998 24.6703 3.85998 24.7003 3.76998C24.7403 3.58998 24.8403 3.42998 24.9903 3.32998C25.1403 3.21998 25.3203 3.16998 25.5003 3.19998C25.6803 3.19998 25.9003 3.19998 25.9303 3.41998C25.9503 3.63998 25.8103 3.78998 25.5403 3.69998C25.5003 3.67998 25.4603 3.67998 25.4203 3.67998C25.3903 3.67998 25.3503 3.68998 25.3103 3.70998C25.2803 3.72998 25.2503 3.75998 25.2303 3.78998C25.2103 3.82998 25.2003 3.85998 25.2003 3.89998C25.2003 4.09998 25.3803 4.13998 25.5303 4.13998Z" fill="black"/>
<path d="M24.5905 5.41021C24.6305 5.56021 24.6405 5.72021 24.4605 5.78021C24.2805 5.84021 24.1805 5.78021 24.1405 5.59021C24.0005 5.02021 23.8605 4.45021 23.7305 3.88021C23.6905 3.69021 23.7305 3.57021 23.9505 3.56021C24.1805 3.54021 24.1805 3.71021 24.2105 3.85021C24.3405 4.37021 24.4605 4.89021 24.5905 5.41021Z" fill="black"/>
<path d="M23.4996 54.4006C23.6396 54.4606 23.9296 54.4506 23.8596 54.7206C23.7896 55.0006 23.5596 54.9806 23.3896 54.9206C23.2196 54.8606 23.0796 54.8306 22.8796 54.7706C22.6796 54.7106 22.6996 54.8806 22.6496 55.0206C22.7396 55.2206 22.9496 55.2106 23.1296 55.2906C23.2996 55.3706 23.6196 55.3806 23.4996 55.7006C23.3896 56.0206 23.2296 55.8106 23.0096 55.8006C22.7896 55.8006 22.4896 55.5106 22.3896 55.9206C22.2896 56.3206 22.7496 56.2106 22.9096 56.3206C23.0696 56.4306 23.4496 56.2106 23.3396 56.7006C23.2196 57.1906 22.9196 56.8606 22.7396 56.8106C21.5696 56.5106 21.5796 56.5006 21.8996 55.3606V55.2006C22.2496 53.9106 22.2496 53.9006 23.4996 54.4006Z" fill="black"/>
<path d="M23.3899 3.88139C23.4199 3.97139 23.3899 4.15139 23.3399 4.15139C22.7099 4.33139 23.0899 4.74139 23.1399 5.06139C23.1899 5.29139 23.2499 5.51139 23.3299 5.73139C23.3699 5.87139 23.4799 6.02139 23.2399 6.10139C22.9999 6.19139 22.9199 6.04139 22.8599 5.86139C22.7699 5.56139 22.6899 5.20139 22.6099 4.97139C22.5299 4.74139 22.5499 4.36139 22.0999 4.56139C21.9399 4.63139 21.8999 4.53139 21.8399 4.36139C21.7799 4.19139 21.8499 4.13139 21.9899 4.09139L23.0899 3.74139C23.2199 3.72139 23.3699 3.80139 23.3899 3.88139Z" fill="black"/>
<path d="M22.3497 6.37062C22.0297 6.46396 21.6364 6.33396 21.1697 5.98062C20.8897 6.24062 21.6197 6.76062 21.0197 6.84062C20.6097 6.90062 20.6897 6.31062 20.5297 6.03062C20.4097 5.81062 20.3197 5.58062 20.2697 5.33062C20.2297 5.15062 19.9997 4.89062 20.2297 4.79062C20.5897 4.63062 20.9497 4.37062 21.3797 4.53062C21.6497 4.63062 21.8897 4.92062 21.7797 5.11062C21.4197 5.77062 22.0797 5.95062 22.3497 6.37062ZM21.2997 5.13062C21.2997 5.13062 21.2797 5.07062 21.2597 5.05062C21.2497 5.02062 21.2197 5.00062 21.1897 4.98062C21.1697 4.97062 21.1397 4.96062 21.0997 4.96062H21.0797C20.9497 4.96062 20.7697 4.99062 20.7497 5.15062C20.7497 5.19062 20.7497 5.23062 20.7497 5.26062C20.7497 5.30062 20.7697 5.34062 20.7897 5.37062C20.8097 5.40062 20.8397 5.43062 20.8697 5.45062C20.8997 5.47062 20.9397 5.48062 20.9697 5.49062C21.1197 5.45062 21.2497 5.39062 21.2897 5.23062C21.2997 5.20062 21.2997 5.16062 21.2997 5.13062Z" fill="black"/>
<path d="M21.3802 53.7917C21.4702 53.8917 21.6102 54.0317 21.4702 54.1617C21.3202 54.3017 21.1302 54.4017 20.9402 54.1617C20.8502 54.0417 20.7202 53.9517 20.5702 53.9117C20.4202 53.8817 20.2602 53.9017 20.1202 53.9817C19.9702 54.0517 19.8402 54.1617 19.7602 54.3117C19.6702 54.4617 19.6402 54.6317 19.6702 54.7917C19.6702 54.8817 19.6802 54.9717 19.7202 55.0517C19.7502 55.1317 19.8102 55.2117 19.8702 55.2617C19.9402 55.3217 20.0102 55.3717 20.0902 55.4017C20.1802 55.4217 20.2702 55.4317 20.3502 55.4317C20.6202 55.4217 20.8502 55.4517 20.8202 55.7717C20.8002 56.0917 20.4902 56.0117 20.2802 56.0517C19.9802 56.0317 19.6902 55.9117 19.4602 55.7017C19.2402 55.5017 19.0802 55.2317 19.0302 54.9317C18.9602 54.6417 19.0002 54.3317 19.1302 54.0617C19.2602 53.7917 19.4702 53.5717 19.7402 53.4517C20.0102 53.3117 20.3202 53.2717 20.6202 53.3317C20.9202 53.3917 21.1902 53.5517 21.3802 53.7917Z" fill="black"/>
<path d="M20.499 6.82173C20.609 7.06173 20.399 7.11173 20.249 7.20173C19.399 7.71173 19.369 7.70173 18.959 6.80173L18.719 6.32173C18.329 5.49173 18.359 5.44173 19.249 5.13173C19.419 5.06173 19.589 4.94173 19.699 5.18173C19.819 5.43173 19.599 5.48173 19.449 5.56173C19.329 5.61173 19.219 5.67173 19.119 5.75173C19.119 5.78173 19.099 5.85173 19.119 5.96173C19.129 6.07173 19.209 6.14173 19.399 6.04173C19.469 6.02173 19.539 5.99173 19.609 5.95173C19.769 5.88173 19.959 5.83173 20.039 6.03173C20.119 6.24173 19.989 6.27173 19.829 6.37173C19.679 6.48173 19.329 6.43173 19.479 6.77173C19.619 7.10173 19.879 6.81173 20.049 6.77173C20.209 6.72173 20.399 6.58173 20.499 6.82173Z" fill="black"/>
<path d="M18.431 7.76141C18.461 7.84141 18.461 7.93141 18.421 8.01141C18.381 8.09141 18.311 8.16141 18.231 8.19141C18.051 8.27141 17.951 8.19141 17.831 8.08141C17.401 7.69141 16.971 7.29141 16.551 6.89141C16.451 6.80141 16.351 6.60141 16.491 6.52141C16.631 6.44141 16.771 6.37141 16.901 6.52141C17.151 6.85141 17.381 7.16141 17.621 7.49141L17.881 7.27141C17.811 6.91141 17.731 6.53141 17.651 6.17141C17.641 6.13141 17.631 6.08141 17.641 6.04141C17.641 5.99141 17.651 5.95141 17.671 5.91141C17.701 5.87141 17.731 5.84141 17.761 5.82141C17.801 5.79141 17.841 5.78141 17.881 5.77141C18.201 5.68141 18.161 5.96141 18.161 6.09141C18.271 6.64141 18.341 7.20141 18.431 7.76141Z" fill="black"/>
<path d="M16.9897 8.25891C17.0297 8.78891 16.4097 9.70891 15.9597 9.57891C15.3597 9.40891 15.2097 8.65891 14.8497 8.16891C14.7797 8.02891 14.5097 7.85891 14.7797 7.65891C15.0997 7.35891 15.5097 7.16891 15.9497 7.12891C16.2297 7.16891 16.4797 7.30891 16.6597 7.50891C16.8497 7.71891 16.9697 7.97891 16.9897 8.25891ZM15.9797 9.00891C16.3497 8.85891 16.5297 8.66891 16.4997 8.37891C16.4497 7.96891 16.2597 7.64891 15.7797 7.64891C15.5797 7.64891 15.2697 7.72891 15.3597 7.95891C15.5297 8.32891 15.7397 8.67891 15.9797 9.00891Z" fill="black"/>
<path d="M15.2202 9.50156C15.3602 9.59156 15.6502 9.68156 15.5602 9.88156C15.4802 10.0816 15.2702 10.1616 15.0302 9.97156C14.6902 10.0316 14.3302 10.1016 14.3702 10.5616C14.3902 10.8216 14.4002 11.0016 14.1102 11.0416C13.8302 11.0716 13.9002 10.7516 13.8302 10.5916C13.6502 10.1016 13.5102 9.60156 13.3502 9.17156C13.3102 9.09156 13.3002 9.00156 13.3102 8.91156C13.3302 8.82156 13.3802 8.74156 13.4502 8.68156C13.5202 8.63156 13.6002 8.60156 13.6902 8.60156C13.7802 8.60156 13.8702 8.63156 13.9302 8.68156C14.3602 8.96156 14.8002 9.21156 15.2202 9.50156ZM14.3502 9.66156C14.4002 9.33156 14.1502 9.33156 13.8602 9.21156C13.9702 9.50156 13.8802 9.75156 14.1802 9.81156C14.2302 9.82156 14.3502 9.73156 14.3502 9.68156V9.66156Z" fill="black"/>
<path d="M13.1494 11.8807C12.9994 12.0807 12.8494 12.2507 12.6494 12.0307C12.4494 11.8107 12.1994 11.5207 12.0194 11.3707C11.8394 11.2207 11.6794 10.8607 11.3594 11.2207C11.2494 11.3707 11.1594 11.3207 11.0294 11.1807C10.8994 11.0407 10.8594 10.9907 11.0694 10.8007C11.2794 10.6107 11.5594 10.3407 11.6994 10.2307C11.8294 10.1207 11.9094 9.83065 12.1794 10.0107C12.4394 10.2007 12.1894 10.3307 12.1294 10.5007C12.0294 10.9407 12.4794 11.0507 12.6494 11.3307C12.7994 11.5307 12.9694 11.7207 13.1494 11.8807Z" fill="black"/>
<path d="M12.4994 12.5585C12.4594 12.6385 12.3894 12.7085 12.3194 12.7485C12.2394 12.7885 12.1494 12.8085 12.0594 12.7985C11.5594 12.7785 11.2794 12.9985 11.4294 13.5385C11.4594 13.6085 11.4494 13.6885 11.4194 13.7585C11.3894 13.8285 11.3294 13.8885 11.2594 13.9085C11.0394 14.0485 11.0094 13.8085 10.9494 13.6985C10.6794 13.2085 10.4594 12.6985 10.1894 12.2285C10.1394 12.1685 10.1094 12.0785 10.1094 11.9885C10.1094 11.8985 10.1394 11.8185 10.1894 11.7485C10.3394 11.5485 10.4794 11.6185 10.6594 11.6885C11.1994 11.8885 11.7394 12.0985 12.2794 12.3185C12.3794 12.3685 12.4994 12.3985 12.4994 12.5585ZM11.1094 12.7485C11.1894 12.7285 11.2994 12.5685 11.2994 12.5385C11.1994 12.3385 11.0294 12.2485 10.6094 12.3685C10.8994 12.4585 10.8394 12.7785 11.1094 12.7485Z" fill="black"/>
<path d="M10.7806 14.0009C10.9106 14.0809 11.0606 14.1609 10.9106 14.3609C10.7506 14.5609 10.6906 14.5209 10.4606 14.3609C10.2306 14.2009 10.0606 13.9109 9.74055 14.3609C9.41055 14.8109 9.88055 14.9409 9.99055 15.0509C10.1106 15.1609 10.2606 15.2109 10.1106 15.4209C9.96055 15.6309 9.82055 15.5509 9.66055 15.4209C9.27055 15.1109 8.86055 14.8009 8.46055 14.4709C8.34055 14.3709 8.09055 14.3609 8.26055 14.0809C8.44055 13.8109 8.63055 13.9909 8.76055 14.0809C8.88055 14.1709 8.99055 14.4209 9.19055 14.2509C9.35055 14.0909 9.48055 13.9209 9.60055 13.7409C9.43055 13.6009 9.23055 13.4409 9.13055 13.3509C9.02055 13.2509 8.97055 13.1409 9.06055 13.0109C9.08055 12.9809 9.11055 12.9509 9.14055 12.9309C9.17055 12.9009 9.20055 12.8909 9.24055 12.8909C9.28055 12.8809 9.32055 12.8909 9.35055 12.9009C9.39055 12.9009 9.42055 12.9409 9.44055 12.9709C9.89055 13.3109 10.3406 13.6509 10.7806 14.0009Z" fill="black"/>
<path d="M9.55063 15.6506C9.73063 15.6906 9.66062 15.8906 9.66062 16.0306C9.62062 16.2906 9.49062 16.5306 9.29062 16.7006C9.09062 16.8706 8.84062 16.9506 8.58062 16.9506C8.32062 16.9306 8.06062 16.8306 7.85062 16.6706C7.64062 16.5006 7.47063 16.2806 7.38063 16.0306C7.31063 15.8206 7.31063 15.6006 7.38063 15.3906C7.45063 15.1806 7.58063 15.0006 7.76063 14.8706C7.88063 14.7906 7.99062 14.6406 8.16062 14.7906C8.33062 14.9406 8.28063 15.1006 8.09063 15.2306C8.03063 15.2606 7.97062 15.3006 7.93062 15.3606C7.89062 15.4106 7.85062 15.4706 7.83062 15.5406C7.83062 15.6106 7.81062 15.6806 7.83062 15.7506C7.85062 15.8206 7.87062 15.8906 7.91062 15.9506C7.98062 16.0906 8.09063 16.2106 8.22063 16.2906C8.34063 16.3806 8.49062 16.4206 8.65062 16.4306C8.72062 16.4406 8.79062 16.4306 8.86062 16.4106C8.93062 16.3906 8.99062 16.3506 9.04062 16.3006C9.09062 16.2506 9.13062 16.1906 9.16062 16.1306C9.19062 16.0606 9.20062 15.9906 9.20062 15.9206C9.20062 15.8706 9.20063 15.8306 9.22063 15.7906C9.24063 15.7506 9.27063 15.7106 9.31063 15.6806C9.34063 15.6606 9.38063 15.6406 9.43063 15.6306C9.47063 15.6306 9.52063 15.6306 9.56063 15.6506H9.55063Z" fill="black"/>
<path d="M8.15085 18.3585C8.30085 18.4185 8.21085 18.5585 8.15085 18.6685C8.09085 18.7885 8.02085 18.8485 7.91085 18.7885C7.32085 18.5085 6.76085 18.1785 6.23085 17.7985C5.99085 17.6185 6.35085 17.2685 6.49085 17.0285C6.56085 16.8785 6.69085 16.7585 6.85085 16.6985C7.00085 16.6485 7.18085 16.6485 7.33085 16.7285C7.50085 16.7685 7.64085 16.8885 7.74085 17.0385C7.83085 17.1885 7.86085 17.3785 7.83085 17.5485C7.63085 17.8885 7.67085 18.1985 8.15085 18.3585ZM7.33085 17.4385C7.33085 17.4385 7.33085 17.3685 7.31085 17.3385C7.29085 17.3085 7.28085 17.2885 7.26085 17.2585C7.24085 17.2385 7.22085 17.2185 7.19085 17.2085C7.16085 17.1885 7.13085 17.1885 7.09085 17.1885V17.1585C7.01085 17.1685 6.94085 17.1985 6.88085 17.2585C6.82085 17.3185 6.79085 17.3885 6.78085 17.4785C6.75085 17.6685 6.89085 17.7885 7.08085 17.7585C7.26085 17.7385 7.33085 17.6085 7.33085 17.4385Z" fill="black"/>
<path d="M8.00015 19.0288C7.82015 19.0888 7.65015 19.1888 7.50015 19.3188C7.36015 19.4588 7.25015 19.6188 7.18015 19.7988C7.11015 19.9788 7.08015 20.1788 7.09015 20.3688C7.10015 20.5688 7.16015 20.7588 7.26015 20.9288H6.96015L5.61015 19.4788C5.48015 19.3388 5.38015 19.2388 5.48015 19.0088C5.57015 18.7788 5.74015 18.8288 5.92015 18.8288C6.58015 18.8688 7.23015 18.9188 8.00015 19.0288ZM6.73015 19.5088C6.72015 19.4188 6.63015 19.4188 6.53015 19.4188C6.46015 19.4188 6.33015 19.4488 6.34015 19.5188C6.35015 19.5888 6.44015 19.6488 6.54015 19.6988C6.65015 19.7388 6.73015 19.6088 6.73015 19.5088Z" fill="black"/>
<path d="M7.02068 21.2192C7.01068 21.3292 6.97068 21.4292 6.91068 21.5092C6.84068 21.5792 6.75068 21.6392 6.65068 21.6692C6.22068 21.6892 5.79068 21.7892 5.40068 21.9692C5.72068 22.0792 6.00068 22.1792 6.28068 22.2892C6.41068 22.3392 6.61068 22.3492 6.54068 22.5792C6.48068 22.8092 6.34068 22.8392 6.13068 22.7592C5.66068 22.5892 5.17068 22.4192 4.69068 22.2492C4.52068 22.1992 4.35068 22.0892 4.39068 21.9092C4.42068 21.7192 4.49068 21.5792 4.71068 21.5392C5.08068 21.4792 5.45068 21.3992 5.82068 21.3292L5.86068 21.1892C5.57068 21.0892 5.28068 20.9992 5.00068 20.8892C4.87068 20.8392 4.73068 20.7392 4.82068 20.5592C4.92068 20.3892 5.00068 20.3692 5.18068 20.4292C5.71068 20.6192 6.24068 20.7892 6.77068 20.9692C6.89068 20.9992 7.02068 21.0792 7.02068 21.2192Z" fill="black"/>
<path d="M5.92067 28.2474C6.31067 28.2474 6.71067 28.3874 6.28067 28.8674C6.08067 29.1574 5.71067 29.3674 5.61067 29.6774C5.57067 30.0374 5.59067 30.3974 5.68067 30.7374C5.71067 31.1374 5.45067 31.2774 5.17067 31.0874C4.91067 30.8774 4.58067 30.7574 4.24067 30.7574C3.90067 30.7574 3.57067 30.8774 3.30067 31.0874C2.84067 31.3874 2.61067 31.0474 2.76067 30.5874C2.87067 30.3174 2.88067 30.0074 2.79067 29.7274C2.70067 29.4474 2.52067 29.2074 2.27067 29.0474C2.12067 28.9374 1.92067 28.8074 2.00067 28.5474C2.08067 28.2774 2.34067 28.2374 2.57067 28.2374C2.85067 28.2774 3.14067 28.1974 3.37067 28.0274C3.60067 27.8574 3.76067 27.6074 3.82067 27.3274C3.88067 27.1474 3.93067 26.9274 4.21067 26.9074C4.49067 26.8874 4.61067 27.1274 4.67067 27.3474C4.73067 27.6274 4.89067 27.8774 5.12067 28.0474C5.35067 28.2074 5.64067 28.2874 5.92067 28.2474Z" fill="black"/>
<path d="M6.25969 23.6109C6.26969 23.7609 6.22969 23.9109 6.16969 24.0509C6.10969 24.1909 6.00969 24.3209 5.88969 24.4209C5.80969 24.5009 5.70969 24.5309 5.63969 24.4209C5.57969 24.3009 5.43969 24.1809 5.57969 24.0309C5.71969 23.8909 5.97969 23.7309 5.68969 23.5109C5.40969 23.2909 5.30969 23.6209 5.18969 23.7809C5.13969 23.8709 5.06969 23.9509 4.98969 24.0009C4.89969 24.0609 4.80969 24.1009 4.70969 24.1109C4.60969 24.1209 4.49969 24.1009 4.40969 24.0709C4.31969 24.0309 4.22969 23.9709 4.16969 23.8909C4.08969 23.8209 4.02969 23.7409 3.98969 23.6409C3.94969 23.5509 3.92969 23.4509 3.92969 23.3409C3.92969 23.2409 3.94969 23.1409 3.98969 23.0409C4.02969 22.9509 4.08969 22.8609 4.16969 22.7909C4.24969 22.7109 4.34969 22.5909 4.47969 22.7109C4.53969 22.7709 4.57969 22.8509 4.61969 22.9309C4.55969 23.1909 4.28969 23.4409 4.55969 23.5609C4.81969 23.6909 4.90969 23.3409 5.03969 23.1909C5.12969 23.0709 5.24969 22.9809 5.38969 22.9509C5.51969 22.9109 5.66969 22.9209 5.79969 22.9809C5.93969 23.0109 6.05969 23.1009 6.13969 23.2109C6.21969 23.3309 6.26969 23.4709 6.25969 23.6109Z" fill="black"/>
</g>
<defs>
<clipPath id="clip0_9879_18585">
<rect width="60.09" height="60.63" fill="white"/>
</clipPath>
</defs>
</svg>
