<svg width="60" height="61" viewBox="0 0 60 61" fill="none" xmlns="http://www.w3.org/2000/svg">
<path d="M27.5849 5.19592C27.5849 5.38516 27.5849 5.64378 27.9038 5.59963C28.2226 5.55547 28.0976 5.29054 28.0913 5.11392C28.0851 4.93729 27.9475 4.67236 28.1788 4.41373C28.3977 4.74175 28.6102 5.04453 28.804 5.35992C28.8543 5.43395 28.9247 5.49177 29.0068 5.52645C29.0888 5.56113 29.1791 5.57121 29.2666 5.55547C29.4354 5.55547 29.4854 5.44824 29.4729 5.30315C29.4354 4.67236 29.3917 4.07941 29.3417 3.46124C29.3417 3.30985 29.2416 3.24677 29.0853 3.25938C28.929 3.272 28.854 3.32246 28.8665 3.48647C28.879 3.65047 28.904 4.50835 28.9103 4.68498C29.0541 4.90575 29.1353 4.4642 28.9103 4.68498L28.7352 4.47051C28.5289 4.14249 28.3351 3.83971 28.1101 3.49278C28.0559 3.41983 27.9791 3.36721 27.8919 3.34322C27.8047 3.31923 27.7121 3.32524 27.6287 3.36031C27.4161 3.41077 27.4662 3.58739 27.4724 3.73248C27.5224 4.2245 27.5474 4.71021 27.5849 5.19592Z" fill="white"/>
<path d="M25.397 4.97097C25.5908 5.00882 25.8408 5.00882 25.8283 5.29267C25.8158 5.57653 25.6158 5.49453 25.472 5.46929C25.3282 5.44406 25.0219 5.3936 25.0281 5.69638C25.0344 5.99916 25.3532 6.00546 25.547 5.99916C25.9846 5.99916 26.3285 5.78469 26.3472 5.27375C26.366 4.76281 26.0159 4.64296 25.622 4.52942C25.472 4.52942 25.2782 4.48526 25.2907 4.28972C25.2932 4.25078 25.305 4.21304 25.3252 4.17978C25.3454 4.14652 25.3734 4.11873 25.4067 4.09884C25.4399 4.07895 25.4775 4.06756 25.5161 4.06564C25.5547 4.06373 25.5932 4.07136 25.6283 4.08787C25.9033 4.17618 26.0471 4.0311 26.0221 3.80401C25.9971 3.57693 25.7721 3.58324 25.5908 3.58324C25.4106 3.56173 25.2289 3.60857 25.081 3.71464C24.9331 3.82072 24.8296 3.97847 24.7906 4.15725C24.762 4.25217 24.7561 4.35253 24.7732 4.45019C24.7904 4.54785 24.8301 4.64006 24.8892 4.71933C24.9482 4.7986 25.025 4.8627 25.1132 4.90642C25.2015 4.95015 25.2987 4.97226 25.397 4.97097Z" fill="white"/>
<path d="M16.639 7.27216C17.0641 7.67586 17.4955 8.07326 17.9268 8.47066C18.0394 8.57789 18.1394 8.65989 18.3207 8.57158C18.4038 8.54154 18.472 8.4798 18.5106 8.3996C18.5492 8.31941 18.555 8.22716 18.527 8.14265C18.4332 7.58755 18.3644 7.02615 18.2519 6.47736C18.2519 6.3449 18.2957 6.06104 17.9768 6.15566C17.9336 6.16224 17.8923 6.1785 17.856 6.20324C17.8197 6.22799 17.7894 6.2606 17.7673 6.29869C17.7451 6.33678 17.7316 6.37938 17.7279 6.42339C17.7241 6.4674 17.7301 6.5117 17.7455 6.55306C17.8268 6.91891 17.9018 7.29108 17.9768 7.65694L17.708 7.87141C17.4705 7.5497 17.2392 7.24062 16.9891 6.9063C16.8641 6.75491 16.7203 6.8243 16.5828 6.9063C16.4452 6.9883 16.539 7.19015 16.639 7.27216Z" fill="white"/>
<path d="M20.6221 6.41384C20.7846 6.6977 20.7033 7.28434 21.1159 7.22757C21.7099 7.14556 20.9847 6.62831 21.2597 6.36969C21.9662 6.89325 21.9662 6.89325 22.4413 6.75447C22.1725 6.33815 21.5161 6.15522 21.8786 5.49288C21.9787 5.30365 21.7474 5.01348 21.4785 4.91886C21.0409 4.75486 20.6846 5.01979 20.3282 5.17749C20.0969 5.27841 20.3282 5.53704 20.3595 5.71997C20.4184 5.9613 20.5065 6.19435 20.6221 6.41384ZM21.1972 5.3478C21.2286 5.34819 21.2595 5.35605 21.2874 5.37073C21.3152 5.38542 21.3393 5.40651 21.3575 5.43231C21.3758 5.45812 21.3878 5.4879 21.3925 5.51924C21.3973 5.55059 21.3946 5.58262 21.3848 5.61273C21.3473 5.77674 21.2097 5.83351 21.0659 5.87136C21.0289 5.86538 20.9935 5.85182 20.9618 5.8315C20.9301 5.81119 20.9029 5.78456 20.8818 5.75325C20.8608 5.72193 20.8463 5.6866 20.8392 5.64942C20.8322 5.61223 20.8327 5.57399 20.8409 5.53704C20.8596 5.37303 21.0472 5.34149 21.1785 5.3478H21.1972Z" fill="white"/>
<path d="M26.7407 5.29653C26.7407 5.48577 26.7408 5.75702 27.0408 5.71286C27.3409 5.6687 27.1908 5.39746 27.2158 5.18299C27.1596 4.73513 27.0971 4.25572 27.0408 3.77632C27.0408 3.5997 27.0408 3.39153 26.7595 3.43569C26.4782 3.47984 26.5532 3.68801 26.572 3.85832C26.622 4.33352 26.6782 4.81293 26.7407 5.29653Z" fill="white"/>
<path d="M19.0517 7.19262C19.4581 8.08835 19.4893 8.09466 20.3458 7.59002C20.4958 7.50171 20.7022 7.44494 20.5959 7.20524C20.4896 6.96553 20.302 7.11062 20.1395 7.15477C19.977 7.19893 19.7144 7.48909 19.5706 7.15477C19.4268 6.82045 19.7707 6.8646 19.927 6.76368C20.0832 6.66275 20.2145 6.63121 20.1333 6.42305C20.052 6.21488 19.8644 6.27165 19.7019 6.34104C19.6348 6.37429 19.5659 6.40377 19.4956 6.42935C19.3018 6.52397 19.2268 6.46089 19.208 6.34735C19.1893 6.23381 19.208 6.17073 19.208 6.13919C19.3089 6.06042 19.4205 5.99669 19.5394 5.94995C19.6957 5.86794 19.9082 5.81748 19.7957 5.57147C19.6831 5.32546 19.5144 5.45162 19.3393 5.5147C18.4516 5.83009 18.4266 5.87425 18.8079 6.7069L19.0517 7.19262Z" fill="white"/>
<path d="M22.1907 4.94337C22.6408 4.74151 22.6221 5.1263 22.7033 5.35338C22.7846 5.58047 22.8659 5.94633 22.9534 6.2428C23.0096 6.42573 23.0972 6.57712 23.3347 6.48881C23.5723 6.4005 23.466 6.25541 23.4222 6.11664C23.3474 5.89748 23.2848 5.67425 23.2347 5.448C23.1847 5.1263 22.8034 4.71628 23.4348 4.53335C23.4785 4.53335 23.5098 4.35042 23.4848 4.26842C23.4598 4.18642 23.316 4.10441 23.1784 4.12964L22.0844 4.47658C21.9469 4.51443 21.8719 4.5712 21.9344 4.74151C21.9969 4.91183 22.0344 5.01275 22.1907 4.94337Z" fill="white"/>
<path d="M24.2282 5.97401C24.2719 6.15694 24.3719 6.23263 24.5532 6.16955C24.7345 6.10647 24.722 5.94878 24.6845 5.79739C24.5532 5.28014 24.4282 4.75658 24.3032 4.23933C24.2719 4.09424 24.2719 3.92393 24.0469 3.94285C23.8218 3.96178 23.7781 4.08163 23.8218 4.27087C23.9531 4.83858 24.0906 5.40629 24.2282 5.97401Z" fill="white"/>
<path d="M50.622 13.4107C50.9158 13.7639 50.622 13.8901 50.4344 14.0415C50.2469 14.1928 49.9281 14.4641 49.6655 14.6722C49.5405 14.7795 49.4404 14.8993 49.578 15.0507C49.6423 15.1225 49.7322 15.1656 49.828 15.1706C49.9218 15.1706 49.9843 15.0318 50.0781 15.0003C50.5719 14.811 50.7845 13.8144 51.5847 14.4578C51.6409 14.4956 51.8035 14.3632 51.816 14.1487C51.5099 13.7681 51.1844 13.4038 50.8408 13.0574C50.772 13.0133 50.4469 13.1962 50.622 13.4107Z" fill="white"/>
<path d="M50.8415 15.3901C50.16 15.6992 50.2163 16.1029 50.6914 16.5318C50.8352 16.6769 50.8352 17.1626 51.2166 16.8662C51.5979 16.5697 51.179 16.4814 51.0978 16.3048C51.0165 16.1281 50.8352 16.0209 51.0478 15.8506C51.2603 15.6803 51.3478 15.8506 51.4666 16.0083C51.5854 16.166 51.6292 16.4498 51.9105 16.2543C52.1918 16.0588 51.9105 15.9011 51.8605 15.737C51.8104 15.573 51.6104 15.491 51.7792 15.346C51.948 15.2009 52.0417 15.3964 52.1355 15.5037C52.2293 15.6109 52.2731 15.7307 52.3731 15.8001C52.5731 15.9452 52.6857 15.8001 52.7794 15.5857C52.5876 15.2627 52.3634 14.9605 52.1105 14.6836C51.898 14.4881 51.7167 14.8035 51.5354 14.917C51.3135 15.0883 51.0818 15.2463 50.8415 15.3901Z" fill="white"/>
<path d="M46.9158 12.2387C47.0971 12.4028 47.2097 12.2387 47.2784 12.1441C47.5285 11.7783 47.7473 11.8855 48.0661 12.081C48.1738 12.1388 48.2946 12.1674 48.4165 12.1641C48.5384 12.1607 48.6575 12.1256 48.7619 12.0621C48.8664 11.9986 48.9529 11.9088 49.0128 11.8016C49.0727 11.6944 49.1041 11.5733 49.1038 11.4502C49.0539 11.2444 48.9582 11.0528 48.8238 10.89C48.6895 10.7271 48.5202 10.5973 48.3287 10.5104C48.0724 10.359 47.9536 10.7564 47.791 10.9078C47.4972 11.1916 47.2472 11.5386 46.9659 11.8098C46.8096 11.9486 46.722 12.0684 46.9158 12.2387ZM48.3224 11.1475C48.3929 11.168 48.4564 11.2077 48.506 11.2622C48.5556 11.3167 48.5894 11.384 48.6037 11.4566C48.6014 11.4878 48.5929 11.5183 48.5786 11.5462C48.5643 11.574 48.5446 11.5987 48.5207 11.6187C48.4968 11.6387 48.4691 11.6537 48.4394 11.6627C48.4096 11.6717 48.3783 11.6745 48.3474 11.671C48.1974 11.671 48.0474 11.5764 48.0474 11.3998C48.0474 11.2232 48.1411 11.1159 48.3224 11.1538V11.1475Z" fill="white"/>
<path d="M48.5777 12.8129C48.0463 13.1599 48.1276 13.5194 48.5777 13.86C48.7652 14.0114 48.884 14.4908 49.2028 14.1817C49.5217 13.8726 49.0841 13.7717 48.9778 13.5825C48.8715 13.3932 48.7277 13.368 48.8778 13.1977C49.0278 13.0274 49.1653 13.1346 49.3091 13.2608C49.4529 13.3869 49.5842 13.7276 49.8405 13.4374C50.0968 13.1472 49.7092 13.0589 49.628 12.876C49.5904 12.7877 49.5342 12.7057 49.4717 12.5921C49.5277 12.5667 49.5864 12.5476 49.6467 12.5354C49.8655 12.5354 49.9343 12.7183 50.0593 12.8255C50.1843 12.9328 50.3031 13.0968 50.4969 12.9012C50.6907 12.7057 50.4969 12.5858 50.3781 12.4723C49.753 11.6838 49.753 11.6838 49.034 12.3966C48.8927 12.547 48.7402 12.6862 48.5777 12.8129Z" fill="white"/>
<path d="M55.0225 23.6937C55.0225 23.8767 55.0225 24.1605 54.7349 24.1542C54.6962 24.1497 54.6589 24.1364 54.6258 24.1155C54.5927 24.0946 54.5647 24.0665 54.5437 24.0333C54.5228 24 54.5094 23.9625 54.5046 23.9234C54.4999 23.8843 54.5038 23.8446 54.5161 23.8073C54.5787 23.5865 54.6287 23.3657 54.3286 23.3531C54.0285 23.3405 54.0535 23.637 54.0098 23.864C54.066 24.2677 54.1973 24.621 54.6724 24.6651C55.1475 24.7093 55.3726 24.4822 55.4414 24.0344C55.4414 23.864 55.4038 23.5486 55.7039 23.5613C56.004 23.5739 55.8915 23.8073 55.879 23.9839C55.8753 24.0227 55.88 24.0618 55.8927 24.0985C55.9053 24.1353 55.9257 24.1689 55.9524 24.1971C55.9791 24.2252 56.0115 24.2472 56.0473 24.2616C56.0832 24.2759 56.1217 24.2823 56.1603 24.2804C56.3728 24.2804 56.3853 24.0848 56.3916 23.9524C56.3916 23.536 56.3041 23.1639 55.8539 23.0629C55.4038 22.962 55.0913 23.1828 55.0225 23.6937Z" fill="white"/>
<path d="M52.7356 19.1754C52.6605 19.3093 52.614 19.4575 52.599 19.6106C52.5841 19.7637 52.601 19.9182 52.6486 20.0643C52.6963 20.2104 52.7737 20.3448 52.8759 20.459C52.9781 20.5731 53.1028 20.6645 53.242 20.7272C53.4921 20.5379 53.5421 20.3613 53.242 20.1405C53.1404 20.0608 53.0742 19.9437 53.0579 19.8149C53.0415 19.6861 53.0762 19.556 53.1545 19.453C53.2332 19.3225 53.3461 19.2164 53.4806 19.1463C53.6151 19.0762 53.7661 19.0448 53.9172 19.0556C54.0461 19.0486 54.1727 19.0929 54.2697 19.179C54.3667 19.2651 54.4264 19.3861 54.436 19.516C54.436 19.8441 54.5861 19.9702 54.9049 19.9261C54.9453 19.7844 54.9571 19.6359 54.9395 19.4896C54.9219 19.3432 54.8752 19.202 54.8022 19.0742C54.7293 18.9465 54.6316 18.8348 54.515 18.746C54.3984 18.6572 54.2652 18.593 54.1234 18.5572C53.8572 18.4729 53.5696 18.489 53.3142 18.6028C53.0589 18.7165 52.8533 18.92 52.7356 19.1754Z" fill="white"/>
<path d="M51.3407 17.5174C51.5032 17.7508 51.6407 17.6057 51.7908 17.5174C51.9408 17.4291 52.2721 17.2399 52.7035 16.9876C52.3909 17.53 52.1971 17.8896 51.9783 18.2491C51.8408 18.451 51.9783 18.5898 52.0408 18.7412C52.1846 18.9935 52.3471 18.8106 52.4847 18.7412C52.9285 18.4888 53.3661 18.2239 53.8037 17.9653C53.9538 17.8707 54.1351 17.795 53.9788 17.5616C53.8225 17.3282 53.685 17.4733 53.5224 17.5616C53.3599 17.6499 53.1473 17.9338 52.7973 17.7824C52.9785 17.4733 53.1473 17.1516 53.3286 16.8803C53.375 16.803 53.3952 16.7126 53.3862 16.6227C53.3772 16.5328 53.3394 16.4483 53.2786 16.382C53.1286 16.1486 52.9723 16.2874 52.8285 16.382L51.5094 17.1642C51.3469 17.2083 51.1844 17.284 51.3407 17.5174Z" fill="white"/>
<path d="M42.0702 8.80449C42.2265 8.84865 42.4578 8.90542 42.5328 8.69095C42.6078 8.47648 42.4578 8.36293 42.214 8.31247C41.6513 8.20524 41.6263 7.79522 41.8389 7.37258C42.0514 6.94995 42.3578 6.77963 42.7641 7.11396C42.9392 7.25904 43.1267 7.41674 43.2767 7.2275C43.4268 7.03826 43.2017 6.82379 43.0392 6.67871C42.8606 6.53605 42.6416 6.45433 42.414 6.44531C42.1058 6.45868 41.8134 6.58653 41.593 6.80427C41.3726 7.02202 41.2397 7.31429 41.22 7.6249C41.1969 7.75893 41.2007 7.89628 41.2312 8.0288C41.2617 8.16131 41.3183 8.28629 41.3976 8.39632C41.4769 8.50634 41.5773 8.59917 41.6928 8.66928C41.8084 8.7394 41.9367 8.78538 42.0702 8.80449Z" fill="white"/>
<path d="M35.8259 6.35333C36.1398 6.32791 36.4327 6.18385 36.646 5.94995C36.8592 5.71606 36.9772 5.40956 36.9762 5.09174C36.9849 4.93804 36.9618 4.78418 36.9085 4.63994C36.8551 4.49571 36.7726 4.36424 36.6662 4.2539C36.5598 4.14357 36.4318 4.05677 36.2904 3.99902C36.149 3.94127 35.9972 3.91384 35.8446 3.91847C35.5286 3.95188 35.237 4.10545 35.0292 4.34799C34.8213 4.59053 34.7128 4.90383 34.7256 5.22421C34.7333 5.518 34.8511 5.79793 35.0553 6.0075C35.2595 6.21706 35.5349 6.34065 35.8259 6.35333ZM35.2883 5.04759C35.3508 4.6565 35.5508 4.34741 35.9759 4.4168C36.401 4.48618 36.476 4.79527 36.4385 5.16744C36.401 5.53961 36.1885 5.88024 35.7634 5.84239C35.3383 5.80454 35.2195 5.4513 35.2883 5.04759Z" fill="white"/>
<path d="M37.1564 6.61808C37.6191 6.7884 37.4378 6.13237 37.7128 5.94313C38.1129 6.20807 37.6378 7.07225 38.4755 7.00918C38.5443 6.65593 38.1504 6.28376 38.538 5.9999C38.9256 5.71604 39.0819 5.50157 38.9131 5.10417C38.8088 4.91056 38.6512 4.75155 38.4593 4.64634C38.2673 4.54112 38.0494 4.4942 37.8316 4.51123C37.4128 4.51123 37.5128 4.99694 37.3627 5.26187C37.2661 5.41394 37.2061 5.58679 37.1877 5.76651C37.1815 6.06298 36.7063 6.45408 37.1564 6.61808ZM38.1442 5.06633C38.2942 5.10417 38.4318 5.16095 38.4318 5.35018C38.4318 5.53942 38.3067 5.59619 38.1379 5.58989C37.9691 5.58358 37.8504 5.53311 37.8691 5.35018C37.8879 5.16725 37.9129 5.00955 38.1442 5.06633Z" fill="white"/>
<path d="M34.0753 5.92985C34.2566 5.92985 34.4816 5.85416 34.4754 5.66492C34.4691 5.47568 34.2878 5.39368 34.069 5.43783C33.5126 5.54507 33.2876 5.21706 33.3439 4.73134C33.4001 4.24563 33.6814 3.84192 34.2878 4.1384C34.4629 4.2204 34.5879 4.20148 34.6754 4.05009C34.8067 3.79146 34.5629 3.741 34.4254 3.67161C34.2993 3.61734 34.167 3.5792 34.0315 3.55806C33.8551 3.5446 33.678 3.5715 33.5133 3.63674C33.3486 3.70199 33.2007 3.8039 33.0805 3.93488C32.9603 4.06586 32.871 4.22252 32.8191 4.3932C32.7673 4.56387 32.7543 4.74415 32.7812 4.92058C32.7888 5.07727 32.8299 5.23044 32.9018 5.36954C32.9737 5.50863 33.0746 5.63034 33.1976 5.72628C33.3206 5.82222 33.4628 5.8901 33.6143 5.92524C33.7658 5.96039 33.9231 5.96196 34.0753 5.92985Z" fill="white"/>
<path d="M43.9826 9.8321C44.3141 9.81182 44.6261 9.6673 44.8574 9.4269C45.0887 9.1865 45.2226 8.86757 45.2329 8.53268C45.2195 8.24976 45.103 7.98182 44.9056 7.78037C44.7083 7.57893 44.4441 7.4582 44.1639 7.44141C43.848 7.47376 43.5538 7.61843 43.3339 7.84955C43.1141 8.08068 42.9828 8.38318 42.9637 8.70299C42.9534 8.84546 42.9721 8.98853 43.0184 9.12352C43.0647 9.2585 43.1377 9.38257 43.233 9.48818C43.3283 9.59379 43.4439 9.67875 43.5728 9.73787C43.7017 9.79699 43.8411 9.82906 43.9826 9.8321ZM44.1514 7.93973C44.5078 7.88296 44.689 8.1542 44.7766 8.49483C44.689 8.90484 44.5515 9.25808 44.0827 9.30224C44.0063 9.3181 43.9272 9.31525 43.8522 9.29391C43.7771 9.27258 43.7082 9.23339 43.6512 9.17963C43.5943 9.12587 43.551 9.05911 43.5249 8.98496C43.4988 8.9108 43.4907 8.83141 43.5013 8.75345C43.4925 8.56111 43.5538 8.37217 43.6735 8.22227C43.7933 8.07237 43.9633 7.97188 44.1514 7.93973Z" fill="white"/>
<path d="M31.4368 5.53706C31.8181 5.42983 31.593 5.04504 31.7056 4.82426C31.7056 4.67918 31.7056 4.54671 31.7056 4.42056C31.6743 4.16824 31.4743 4.18085 31.2992 4.18716C31.1242 4.19347 30.9679 4.12408 30.8866 4.30071C30.8054 4.47733 30.8366 4.59087 30.9804 4.62872C31.2742 4.70441 31.3117 4.87473 31.1367 5.05766C31.0613 5.12906 30.9619 5.16881 30.8585 5.16881C30.7551 5.16881 30.6557 5.12906 30.5803 5.05766C30.4449 4.95706 30.3479 4.81243 30.3058 4.64813C30.2636 4.48382 30.2789 4.30989 30.349 4.15562C30.3699 4.07358 30.4082 3.99714 30.4615 3.93166C30.5147 3.86618 30.5815 3.81325 30.6571 3.77658C30.7328 3.73991 30.8155 3.7204 30.8994 3.7194C30.9833 3.71841 31.0665 3.73597 31.1429 3.77084C31.3555 3.84023 31.5555 3.91592 31.6243 3.64468C31.6931 3.37344 31.4118 3.32928 31.2367 3.29774C30.9927 3.21158 30.7257 3.21928 30.4869 3.31938C30.2482 3.41948 30.0544 3.60493 29.9427 3.84023C29.7977 4.08741 29.7446 4.37853 29.7927 4.66161C29.8407 4.94469 29.987 5.20131 30.2052 5.38567C30.3797 5.51685 30.5851 5.59982 30.8011 5.62637C31.0171 5.65292 31.2362 5.62214 31.4368 5.53706Z" fill="white"/>
<path d="M39.5499 7.56811C39.7124 7.60596 39.9062 7.88351 40.0688 7.56811C40.2313 7.25272 39.9 7.22749 39.7375 7.12025C39.5749 7.01302 39.2936 7.02563 39.4374 6.71654C39.5812 6.40745 39.75 6.64085 39.8937 6.71654C40.0375 6.79224 40.2751 6.91209 40.3626 6.64085C40.3782 6.58605 40.3749 6.52755 40.3534 6.47485C40.3318 6.42216 40.2932 6.3784 40.2438 6.35068C40.0625 6.22452 39.6187 6.27499 39.7875 5.90282C39.9563 5.53065 40.2126 5.90282 40.4126 5.95328C40.6127 6.00374 40.6314 5.95328 40.7127 5.84605C40.7939 5.73881 40.7127 5.60004 40.5689 5.50542C39.7437 4.96924 39.5437 5.02601 39.1686 5.95328C39.123 6.09922 39.0645 6.24068 38.9935 6.37591C38.5434 7.07609 38.8747 7.41042 39.5499 7.56811Z" fill="white"/>
<path d="M44.7964 10.4663C45.2153 10.9016 45.2278 10.0879 45.5529 10.05H45.6279C45.4966 11.1413 45.4966 11.1413 46.7344 10.624C46.5343 10.8953 46.4281 11.0341 46.3343 11.1791C46.2405 11.3242 46.0467 11.4441 46.253 11.6333C46.4593 11.8226 46.6031 11.6333 46.7156 11.4693C47.022 11.0908 47.3408 10.6997 47.6096 10.315C47.7409 10.1446 47.8847 9.98694 47.6096 9.80401C47.3345 9.62108 47.272 9.52015 46.9845 9.722C46.7772 9.95743 46.5015 10.1208 46.1968 10.1888C46.1217 9.82293 46.3531 9.558 46.4468 9.2426C46.5406 8.9272 46.3781 8.87043 46.2155 8.73796C46.053 8.60549 45.8529 8.70011 45.7216 8.87673C45.5152 9.10436 45.331 9.35151 45.1715 9.61477C45.0652 9.91124 44.4838 10.1446 44.7964 10.4663Z" fill="white"/>
<path d="M26.7346 26.2989C26.6908 25.2581 26.0594 24.4381 25.3343 24.4696C24.6091 24.5012 24.084 25.277 24.084 26.3242C24.084 27.3713 24.7091 28.2859 25.428 28.2796C26.1469 28.2733 26.8033 27.3776 26.7346 26.2989Z" fill="white"/>
<path d="M38.1378 54.4061C36.8875 54.4061 36.6874 54.7278 37.0562 55.8506C37.175 56.1849 37.2938 56.5256 37.4063 56.8662C37.4626 57.0428 37.5001 57.1942 37.7627 57.0933C38.1565 56.9943 38.5336 56.837 38.8817 56.6265C39.1093 56.4775 39.2771 56.2516 39.3549 55.9893C39.4328 55.727 39.4157 55.4454 39.3068 55.1946C39.237 54.9441 39.0809 54.727 38.8666 54.5825C38.6522 54.4379 38.3938 54.3753 38.1378 54.4061ZM38.069 56.4499C37.6314 56.2165 37.6626 55.7055 37.5376 55.3081C37.4126 54.9107 37.8502 54.9675 38.0377 54.9423C38.5128 54.8729 38.7441 55.2135 38.8004 55.6235C38.8567 56.0335 38.4941 56.2796 38.0565 56.4499H38.069Z" fill="white"/>
<path d="M33.9874 30.8525C32.8819 31.8798 31.4364 32.4543 29.9336 32.4636C28.4307 32.4729 26.9784 31.9165 25.8604 30.903C25.5166 30.6128 25.1853 30.3227 24.8289 30.7642C24.4726 31.2058 24.9227 31.4644 25.1978 31.7041C26.0182 32.4236 26.9892 32.9466 28.0383 33.2339C29.0873 33.5212 30.1871 33.5654 31.2555 33.3631C31.5305 33.4829 31.6243 33.7794 31.8118 33.9939C31.9579 34.2082 32.1661 34.3717 32.4078 34.462C32.6495 34.5524 32.913 34.5651 33.1622 34.4985C33.6748 34.3534 33.8248 33.9308 33.9311 33.4514C34.0374 32.972 34.1999 32.4674 34.3437 31.9754C34.45 31.8681 34.55 31.7546 34.6625 31.6473C34.9438 31.3887 35.3377 31.1238 34.9813 30.7012C34.625 30.2785 34.3062 30.5687 33.9874 30.8525Z" fill="white"/>
<path d="M31.8373 56.1105C31.9887 56.1097 32.1396 56.0927 32.2874 56.06C32.319 56.0541 32.349 56.0417 32.3756 56.0237C32.4023 56.0057 32.4251 55.9825 32.4426 55.9554C32.4602 55.9283 32.4721 55.8978 32.4776 55.866C32.4832 55.8341 32.4823 55.8014 32.475 55.7699C32.4757 55.7376 32.4691 55.7055 32.4558 55.6761C32.4425 55.6468 32.4228 55.6208 32.3981 55.6002C32.3735 55.5795 32.3446 55.5648 32.3135 55.5571C32.2824 55.5493 32.25 55.5487 32.2187 55.5554C31.768 55.5589 31.32 55.6247 30.8871 55.7509C30.7808 55.7888 30.8871 56.3817 30.8871 56.6782C30.8839 56.7033 30.8839 56.7288 30.8871 56.7539H30.9183C30.9183 57.0882 30.9183 57.4225 30.9183 57.7506C30.9183 58.0786 30.9934 58.2047 31.3122 58.1732C31.631 58.1417 31.556 57.9335 31.5372 57.7316C31.5185 57.5298 31.456 57.1576 31.8998 57.1387C32.1124 57.1387 32.525 57.2459 32.45 56.8296C32.3749 56.4133 32.0499 56.6719 31.8248 56.6277C31.5998 56.5836 31.4622 56.6277 31.4685 56.3691C31.4747 56.1105 31.6623 56.1231 31.8373 56.1105Z" fill="white"/>
<path d="M36.0555 57.024C35.9305 57.024 35.8055 57.0682 35.5242 57.1187C35.5242 57.1187 35.3054 57.1817 35.2929 56.8979C35.2929 56.5131 35.6117 56.6645 35.7805 56.5636C35.9493 56.4626 36.3119 56.5636 36.1868 56.1788C36.0993 55.8886 35.8618 56.0211 35.6742 56.04C35.4867 56.0589 35.1303 56.3239 35.0491 55.8949C34.9678 55.466 35.3866 55.6931 35.5554 55.5858C35.6516 55.5501 35.753 55.5309 35.8555 55.5291C36.0118 55.5291 36.0555 55.3966 36.0368 55.2515C36.0382 55.2194 36.0325 55.1873 36.02 55.1576C36.0074 55.128 35.9884 55.1016 35.9644 55.0804C35.9404 55.0592 35.912 55.0437 35.8812 55.0351C35.8504 55.0265 35.8181 55.025 35.7867 55.0307C35.3319 55.0643 34.8859 55.1752 34.4677 55.3588C34.1551 55.548 34.5239 55.9896 34.5177 56.2797C34.5216 56.3824 34.5384 56.4841 34.5677 56.5825C34.849 57.8441 34.849 57.8441 36.1118 57.535C36.2994 57.4908 36.5557 57.4971 36.4994 57.1881C36.4431 56.879 36.2493 56.961 36.0555 57.024Z" fill="white"/>
<path d="M36.4378 26.1151C36.494 25.7366 36.2815 25.5726 35.9064 25.5284C35.0712 25.4181 34.2229 25.4673 33.4058 25.6735C34.5123 24.7778 34.9061 24.639 36.4127 24.6201C36.6878 24.6201 36.9566 24.6201 36.9816 24.2731C36.9887 24.2022 36.9808 24.1306 36.9585 24.063C36.9361 23.9954 36.8998 23.9333 36.852 23.8808C36.8042 23.8284 36.7459 23.7868 36.6809 23.7587C36.616 23.7307 36.5459 23.7168 36.4753 23.718C34.5123 23.554 32.4118 24.4498 31.8429 26.872C31.7617 27.1937 31.7242 27.5722 32.093 27.7614C32.2366 27.8202 32.3967 27.823 32.5422 27.7694C32.6877 27.7158 32.8084 27.6095 32.8807 27.4713C33.5871 26.38 34.6123 26.2097 35.7688 26.4305C36.0689 26.4178 36.3752 26.4746 36.4378 26.1151Z" fill="white"/>
<path d="M33.6803 55.7177C33.6803 55.5347 33.6803 55.3644 33.374 55.4338C33.0676 55.5032 33.0489 55.5473 33.0864 55.7871C33.1802 56.4178 33.2677 57.0486 33.3427 57.6794C33.3427 57.9002 33.449 58.0012 33.6741 57.9759C33.8991 57.9507 33.9741 57.8245 33.9366 57.6164C33.8178 56.9793 33.7303 56.3485 33.6803 55.7177Z" fill="white"/>
<path d="M54.0676 23.1498C54.374 23.0488 54.1614 22.8154 54.1552 22.6325C54.1489 22.4496 53.8676 22.2603 54.1552 22.1216C54.4427 21.9828 54.5053 22.2982 54.5678 22.4811C54.6303 22.6641 54.7178 22.8218 54.9366 22.7334C55.1554 22.6451 55.0304 22.4811 55.0054 22.336C54.9804 22.191 54.7428 21.9323 55.0554 21.8314C55.368 21.7305 55.3305 22.0396 55.4117 22.2099C55.493 22.3802 55.5805 22.7713 55.8368 22.4496C56.0932 22.1279 55.7368 21.8188 55.6681 21.5412C55.6305 21.3583 55.5805 21.1817 55.3305 21.2006L54.2552 21.5412C53.3299 21.8566 53.3237 21.8629 53.6863 22.8028C53.7801 22.9605 53.7551 23.2507 54.0676 23.1498Z" fill="white"/>
<path d="M41.1391 33.4769C41.8143 33.7859 42.1706 34.2023 41.7643 34.8709C41.728 35.0118 41.7413 35.1611 41.8016 35.2933C41.862 35.4255 41.9659 35.5326 42.0956 35.5963C42.2199 35.6685 42.3661 35.6922 42.5065 35.6632C42.647 35.6341 42.7721 35.5543 42.8583 35.4386C42.9238 35.3232 43.0153 35.2251 43.1255 35.1521C43.2356 35.0792 43.3613 35.0335 43.4922 35.0187C43.6232 35.004 43.7558 35.0206 43.8792 35.0672C44.0025 35.1139 44.1133 35.1893 44.2024 35.2872C44.3172 35.3918 44.4665 35.4497 44.6212 35.4497C44.776 35.4497 44.9252 35.3918 45.0401 35.2872C45.1498 35.1949 45.2202 35.0634 45.2365 34.9201C45.2528 34.7768 45.2138 34.6327 45.1276 34.5177C44.7213 33.9247 44.8963 33.5147 45.4464 33.1425C45.5712 33.071 45.6628 32.9526 45.7015 32.8132C45.7401 32.6738 45.7226 32.5246 45.6527 32.3982C45.6007 32.2633 45.501 32.1526 45.3729 32.0874C45.2448 32.0222 45.0973 32.0071 44.9588 32.045C44.8309 32.1037 44.6911 32.1309 44.5507 32.1245C44.4104 32.118 44.2735 32.0781 44.1515 32.0079C44.0294 31.9377 43.9256 31.8392 43.8486 31.7207C43.7716 31.6021 43.7236 31.4668 43.7085 31.3258C43.677 31.188 43.5951 31.0673 43.4792 30.9878C43.3633 30.9083 43.2219 30.8758 43.0833 30.8969C43.0119 30.8952 42.9409 30.9078 42.8742 30.9338C42.8076 30.9599 42.7467 30.9989 42.6951 31.0487C42.6434 31.0985 42.6019 31.158 42.5731 31.224C42.5443 31.29 42.5286 31.361 42.527 31.4331C42.4832 32.108 42.2081 32.4487 41.4954 32.3856C41.3551 32.3803 41.2172 32.4229 41.1037 32.5065C40.9903 32.59 40.9081 32.7096 40.8703 32.8461C40.8323 32.9662 40.8385 33.0962 40.8879 33.2121C40.9373 33.328 41.0265 33.422 41.1391 33.4769ZM41.658 32.7577C42.4019 32.7577 42.9083 32.5244 42.9083 31.6476C42.9083 31.5214 42.9083 31.3069 43.1021 31.2754C43.2959 31.2438 43.4022 31.4457 43.4459 31.6097C43.4563 31.77 43.5057 31.9253 43.5898 32.0618C43.6738 32.1982 43.7898 32.3117 43.9277 32.3922C44.0655 32.4726 44.2208 32.5175 44.38 32.523C44.5391 32.5285 44.6971 32.4943 44.84 32.4234C45.0026 32.373 45.2276 32.3288 45.2839 32.5622C45.3402 32.7956 45.1901 32.8082 45.0151 32.9848C44.8707 33.1472 44.6967 33.28 44.5024 33.3759C44.1899 33.8616 44.6837 34.1644 44.7588 34.5618C44.7588 34.6817 44.8713 34.8078 44.7588 34.9214C44.7341 34.9506 44.7035 34.9741 44.6689 34.9902C44.6344 35.0064 44.5968 35.0147 44.5587 35.0147C44.5207 35.0147 44.4831 35.0064 44.4485 34.9902C44.414 34.9741 44.3833 34.9506 44.3587 34.9214C44.2459 34.7925 44.1042 34.6928 43.9455 34.6304C43.7868 34.568 43.6155 34.5447 43.4461 34.5626C43.2767 34.5805 43.1139 34.639 42.9715 34.7332C42.829 34.8275 42.7109 34.9547 42.627 35.1043C42.5332 35.2241 42.3644 35.3629 42.2519 35.2052C42.1394 35.0475 42.1831 34.7258 42.3207 34.4987C42.627 33.6093 41.758 33.5399 41.3767 33.1299C40.9953 32.7199 41.4829 32.7577 41.658 32.7577Z" fill="white"/>
<path d="M57.7119 28.6378C57.3959 28.6611 57.0818 28.5715 56.8247 28.3847C56.5675 28.1978 56.3837 27.9257 56.3053 27.6159C56.1303 27.1239 55.7614 27.1113 55.5676 27.6159C55.4852 27.9222 55.3012 28.1906 55.0464 28.3765C54.7916 28.5625 54.4813 28.6547 54.1673 28.6378C53.6859 28.6378 53.5046 28.9659 53.9235 29.3317C54.4424 29.7859 54.8237 30.2527 54.4736 30.8582C54.3986 31.5647 54.6487 31.735 55.0988 31.4133C55.3367 31.2246 55.6306 31.1219 55.9333 31.1219C56.236 31.1219 56.5299 31.2246 56.7679 31.4133C57.218 31.6972 57.4868 31.4953 57.393 30.9907C57.2862 30.6927 57.2817 30.3671 57.3804 30.0662C57.479 29.7653 57.675 29.5066 57.9369 29.3317C58.3308 29.0668 58.2245 28.6757 57.7119 28.6378Z" fill="white"/>
<path d="M30.1486 0.636719C26.2354 0.635891 22.3603 1.4129 18.7447 2.92337C15.1291 4.43383 11.8439 6.64817 9.07652 9.43992C6.30917 12.2317 4.11395 15.5461 2.61624 19.194C1.11853 22.8419 0.347656 26.7518 0.347656 30.7003C0.347656 34.6492 1.11849 38.5594 2.61612 42.2076C4.11376 45.8559 6.30888 49.1707 9.07615 51.963C11.8434 54.7552 15.1286 56.9702 18.7443 58.4813C22.3599 59.9925 26.2351 60.7703 30.1486 60.7703C34.0613 60.7694 37.9355 59.991 41.55 58.4794C45.1646 56.9678 48.4486 54.7526 51.2147 51.9604C53.9809 49.1681 56.1748 45.8535 57.6714 42.2057C59.1679 38.5579 59.9378 34.6484 59.937 30.7003C59.937 22.7281 56.7988 15.0822 51.2125 9.44438C45.6263 3.80654 38.0495 0.638392 30.1486 0.636719ZM30.1486 60.1395C22.4132 60.1311 14.997 57.0268 9.52733 51.5077C4.0576 45.9886 0.98108 38.5055 0.972806 30.7003C0.981083 22.8957 4.05781 15.4133 9.52771 9.89518C14.9976 4.37709 22.4138 1.27419 30.1486 1.26751C37.8812 1.27753 45.2941 4.3819 50.7613 9.89964C56.2285 15.4174 59.3036 22.8979 59.3118 30.7003C59.3036 38.5033 56.2287 45.9845 50.7617 51.5033C45.2947 57.022 37.8818 60.1278 30.1486 60.1395Z" fill="white"/>
<path d="M29.8173 55.6406C29.6047 55.6406 29.4922 55.6974 29.4922 55.9371C29.4922 56.5679 29.4922 57.1987 29.4922 57.8295C29.4922 58.0566 29.5797 58.1449 29.811 58.1386C30.0423 58.1323 30.1111 57.9998 30.1048 57.7916V56.9022V55.9749C30.1111 55.7605 30.0673 55.6406 29.8173 55.6406Z" fill="white"/>
<path d="M52.5043 29.6275C52.2644 29.4007 52.1129 29.0947 52.0773 28.7649C52.0418 28.4351 52.1245 28.1033 52.3105 27.8298C52.9982 26.5682 52.9356 26.1645 51.8104 25.2498C51.5339 25.0698 51.3292 24.7972 51.232 24.48C51.1348 24.1628 51.1515 23.8212 51.279 23.5151C51.7166 22.1652 51.5478 21.7426 50.285 21.0992C49.9661 20.9707 49.7041 20.7298 49.5478 20.4213C49.3914 20.1127 49.3513 19.7574 49.4348 19.4213C49.5973 18.1597 49.3285 17.6866 48.1282 17.3775C47.7489 17.3244 47.403 17.1297 47.1588 16.832C46.9146 16.5342 46.7899 16.155 46.8092 15.769C46.6966 14.5074 46.3153 14.1731 45.0587 14.0911C44.7381 14.1007 44.4245 13.9959 44.1729 13.7951C43.9213 13.5944 43.748 13.3105 43.6834 12.9935C43.2583 11.5427 42.9832 11.3598 41.4829 11.4859C41.1603 11.547 40.8267 11.4913 40.5408 11.3286C40.2549 11.1659 40.0351 10.9067 39.92 10.5965C39.2948 9.39168 38.851 9.19613 37.5632 9.61876C37.2496 9.77058 36.8914 9.79979 36.5578 9.70077C36.2241 9.60176 35.9387 9.38152 35.7565 9.08259C34.9188 8.02286 34.4562 7.92824 33.2559 8.60949C32.9728 8.8141 32.6248 8.90601 32.2787 8.86759C31.9326 8.82918 31.6127 8.66313 31.3805 8.40133C30.3677 7.53084 29.8676 7.52453 28.8361 8.40133C28.6044 8.65337 28.2887 8.81016 27.9494 8.8416C27.6102 8.87303 27.2714 8.77689 26.9981 8.57165C25.8541 7.90301 25.3352 8.01655 24.4975 9.0889C24.3133 9.37854 24.0317 9.59151 23.7046 9.68882C23.3774 9.78613 23.0264 9.76126 22.7159 9.61876C21.4656 9.20244 21.0092 9.39168 20.3778 10.6217C20.2558 10.9299 20.031 11.1854 19.7423 11.3443C19.4536 11.5033 19.119 11.5555 18.7962 11.4922C17.3208 11.3661 17.0145 11.5868 16.6081 13.025C16.5498 13.3273 16.3884 13.5993 16.152 13.794C15.9157 13.9887 15.6192 14.0938 15.3141 14.0911C13.845 14.2236 13.5011 14.5516 13.4011 16.0402C13.3938 16.3445 13.2819 16.6366 13.0846 16.8668C12.8873 17.0969 12.6169 17.2507 12.3196 17.3018C10.9255 17.7308 10.663 18.0903 10.8255 19.5285C10.8957 19.8369 10.8558 20.1603 10.7128 20.4418C10.5699 20.7234 10.333 20.945 10.0441 21.0677C8.79376 21.7363 8.57496 22.1652 9.00631 23.4836C9.14954 23.7978 9.17191 24.1545 9.06909 24.4844C8.96627 24.8143 8.74559 25.0938 8.44993 25.2688C7.43093 26.0572 7.29965 26.5934 7.94981 27.7162C8.16603 28.0163 8.26345 28.3869 8.22298 28.7556C8.1825 29.1243 8.00706 29.4645 7.73101 29.7095C6.91831 30.662 6.91206 31.1793 7.73101 32.1444C7.99982 32.3962 8.16556 32.7404 8.19564 33.1092C8.22571 33.4781 8.11795 33.845 7.89354 34.1377C7.26839 35.1722 7.39968 35.7525 8.34365 36.478C8.67224 36.6716 8.91802 36.9812 9.03349 37.3471C9.14896 37.7129 9.12591 38.109 8.9688 38.4586C8.58746 39.6445 8.79376 40.105 9.87527 40.6601C10.2217 40.7814 10.5115 41.0274 10.6892 41.351C10.8669 41.6747 10.9199 42.0531 10.838 42.4137C10.6755 43.6753 10.9693 44.1295 12.1758 44.4575C12.5445 44.5221 12.8763 44.7223 13.1072 45.0194C13.3381 45.3165 13.4518 45.6894 13.4261 46.066C13.5074 47.2645 13.92 47.6682 15.1203 47.7313C15.4864 47.7099 15.8472 47.8276 16.1318 48.061C16.4164 48.2945 16.6041 48.6269 16.6582 48.9929C17.0082 50.2545 17.4208 50.4626 18.8149 50.368C19.5651 50.0968 20.0652 50.551 20.4216 51.3142C20.9904 52.437 21.4468 52.6452 22.6659 52.2352C22.9976 52.0904 23.3699 52.0713 23.7145 52.1814C24.0591 52.2915 24.3527 52.5234 24.5413 52.8344C25.2977 53.8122 25.8541 53.9257 26.9169 53.2823C27.214 53.0648 27.5805 52.9663 27.9455 53.0059C28.3105 53.0455 28.6479 53.2204 28.8923 53.4968C29.8113 54.2979 30.3552 54.3168 31.2492 53.4968C31.5001 53.2105 31.8473 53.0281 32.2237 52.985C32.6001 52.9419 32.979 53.0411 33.2872 53.2634C34.3687 53.8942 34.8813 53.7869 35.6565 52.7714C35.852 52.4578 36.1547 52.2275 36.5073 52.124C36.8598 52.0206 37.2377 52.0511 37.5694 52.2099C38.7385 52.5884 39.2323 52.3866 39.7575 51.3079C39.8819 50.9469 40.1356 50.6459 40.4687 50.4638C40.8018 50.2818 41.1902 50.2319 41.5579 50.3239C42.7644 50.4816 43.2083 50.1725 43.5209 49.0055C43.5722 48.6248 43.7646 48.2779 44.0592 48.0345C44.3538 47.7911 44.7288 47.6692 45.1088 47.6935C46.2778 47.643 46.6716 47.2393 46.7466 46.0723C46.7387 45.657 46.8872 45.2542 47.1622 44.9451C47.4372 44.636 47.8182 44.4437 48.2283 44.407C49.3035 44.1295 49.6161 43.6248 49.4786 42.5146C49.3722 42.1456 49.4078 41.7496 49.5781 41.4058C49.7485 41.062 50.0411 40.7957 50.3975 40.6601C51.529 40.0924 51.7479 39.6004 51.3478 38.4145C51.1966 38.0835 51.1709 37.708 51.2758 37.3592C51.3806 37.0104 51.6087 36.7126 51.9166 36.5221C52.9294 35.7273 53.0107 35.2605 52.348 34.062C52.1437 33.7778 52.0505 33.4276 52.0863 33.0784C52.1221 32.7292 52.2842 32.4056 52.5418 32.1696C53.3795 31.1604 53.3732 30.6557 52.5043 29.6275ZM44.9337 46.9933C44.5381 46.9642 44.1465 47.0893 43.8395 47.3428C43.5325 47.5962 43.3335 47.9588 43.2833 48.3558C42.977 49.5038 42.6582 49.7499 41.4641 49.6174C41.0832 49.522 40.6807 49.5723 40.3344 49.7587C39.988 49.9451 39.7224 50.2543 39.5887 50.6267C39.0948 51.6801 38.726 51.8189 37.6507 51.4719C37.2677 51.2961 36.8345 51.2671 36.4318 51.3901C36.0291 51.5132 35.6847 51.7799 35.4627 52.1406C34.8 53.0552 34.4812 53.0994 33.531 52.5506C33.1775 52.2943 32.7448 52.1744 32.3112 52.2126C31.8776 52.2508 31.472 52.4446 31.1679 52.7587C30.2927 53.5409 30.0239 53.5346 29.1424 52.7587C28.8471 52.4546 28.4544 52.2662 28.0342 52.2269C27.6141 52.1876 27.1938 52.3001 26.8481 52.5443C25.8166 53.1057 25.554 53.0804 24.8601 52.1406C24.639 51.7965 24.3031 51.5436 23.9132 51.4279C23.5232 51.3122 23.1052 51.3412 22.7346 51.5098C21.6031 51.863 21.2968 51.7621 20.7779 50.7024C20.6397 50.3151 20.3629 49.9942 20.0019 49.8027C19.6408 49.6112 19.2219 49.5631 18.8274 49.6678C17.7209 49.8382 17.3646 49.5985 17.0645 48.4693C16.9997 48.0508 16.7809 47.6724 16.4519 47.4093C16.1229 47.1463 15.7077 47.018 15.2891 47.0501C14.2263 47.0059 13.9012 46.5896 13.8825 45.5488C13.8825 45.3911 13.845 45.2397 13.82 45.0883C13.8887 45.2649 13.945 45.4352 13.8825 45.5488C16.2378 43.9742 18.049 41.6991 19.065 39.039C19.3135 38.5036 19.344 37.8912 19.15 37.3333C18.956 36.7754 18.5529 36.3166 18.0272 36.0553C17.4991 35.7449 16.934 35.5033 16.3456 35.3362C15.7781 35.186 15.235 34.9545 14.7327 34.6487C14.4139 34.4342 13.9137 34.226 14.1075 33.7277C14.2081 33.5149 14.3773 33.3428 14.5874 33.2397C14.7975 33.1366 15.0361 33.1085 15.2641 33.16C15.5606 33.2271 15.8496 33.3243 16.1268 33.4501C16.9774 33.8238 17.931 33.8841 18.8212 33.6205C19.0576 33.5701 19.2659 33.4302 19.4031 33.2295C19.5403 33.0288 19.5961 32.7827 19.5589 32.5418C19.4151 30.5422 19.3088 28.5363 19.3588 26.524C19.3784 25.272 19.6578 24.038 20.1789 22.9016C20.7001 21.7651 21.4514 20.7515 22.3845 19.9259C25.8479 16.7089 31.8431 16.1412 35.944 18.6643C37.0813 19.3104 38.0724 20.1889 38.854 21.2435C39.6355 22.2982 40.1902 23.5059 40.4826 24.7893C40.8452 26.3853 40.6639 28.0253 40.6889 29.6402C40.2701 29.9492 39.6012 29.596 39.3261 29.9619C38.7947 30.6557 38.1133 30.4349 37.4507 30.5043C36.6567 30.5863 36.1566 31.0468 36.1628 31.7659C36.1941 34.4657 37.1318 36.9069 40.3826 37.6008C40.6014 37.6512 40.839 37.6702 40.8077 38.0171C40.7014 39.1336 41.3203 40.0167 41.8205 40.9061C42.0643 41.3351 42.0143 41.4423 41.6017 41.5937C41.1891 41.7451 40.6327 41.8902 40.6514 42.5273C40.6667 42.6768 40.65 42.828 40.6026 42.9705C40.5551 43.113 40.478 43.2437 40.3764 43.3536C40.282 43.493 40.2316 43.6579 40.2316 43.8267C40.2316 43.9955 40.282 44.1604 40.3764 44.2998C40.5264 44.6215 40.8265 44.4196 41.0578 44.4007C42.0018 44.3187 42.9332 44.2241 43.871 44.1232C43.9806 44.0913 44.0969 44.0903 44.2071 44.1203C44.3173 44.1503 44.4172 44.2102 44.4961 44.2935C45.1171 44.8877 45.7817 45.4338 46.4841 45.9272C46.4061 46.2692 46.2031 46.5689 45.9157 46.7665C45.6283 46.9641 45.2777 47.0451 44.9337 46.9933ZM46.0215 29.5581C46.1286 29.5281 46.2413 29.5244 46.3501 29.5475C46.4588 29.5705 46.5606 29.6196 46.6466 29.6906C46.7216 29.7726 46.7529 29.8988 46.8467 29.9619C46.9202 29.9988 47.0025 30.0141 47.0842 30.006C47.5052 29.9532 47.9227 29.8753 48.3345 29.7726C48.5327 29.7225 48.7401 29.7222 48.9384 29.7717C49.1368 29.8212 49.3201 29.919 49.4723 30.0565C49.291 30.1826 47.3093 30.5106 47.3093 30.6242C47.2253 30.6346 47.1477 30.6749 47.0905 30.7377C47.0564 30.8227 47.0564 30.9177 47.0905 31.0027C47.1842 31.6965 47.3843 32.3715 47.4781 33.0654C47.6121 33.7563 47.5403 34.4719 47.2718 35.1217C47.0783 35.5026 46.8201 35.8463 46.5091 36.1373C46.2528 36.4086 45.9777 36.6672 45.7402 36.951C45.4279 37.2994 45.1897 37.7086 45.0403 38.1534C44.8908 38.5982 44.8333 39.0692 44.8712 39.5373C44.9279 39.9997 45.1285 40.4321 45.4441 40.7721C45.7598 41.1122 46.1743 41.3424 46.6279 41.4297C46.844 41.4332 47.0571 41.4826 47.253 41.5748C47.4406 41.6946 47.5093 42.0226 47.3155 42.1236C47.2607 42.15 47.2012 42.1651 47.1405 42.1677L41.5141 42.7354C41.4386 42.7577 41.3584 42.7577 41.2828 42.7354C41.0953 42.6597 41.089 42.3696 41.2203 42.2119C41.3666 42.072 41.5416 41.9665 41.7329 41.9028C42.0504 41.7506 42.3325 41.5327 42.5609 41.2631C42.7892 40.9936 42.9587 40.6785 43.0583 40.3384C43.155 39.992 43.1771 39.6287 43.1232 39.2729C43.0693 38.9172 42.9406 38.5771 42.7457 38.2757C41.9955 37.1151 40.4014 36.7303 39.6824 35.5507C39.1386 34.6487 39.2386 33.5132 39.2886 32.4535C39.3158 32.3081 39.3091 32.1582 39.269 32.0159C39.2288 31.8736 39.1563 31.7426 39.0573 31.6335C38.9567 31.5618 38.8413 31.5143 38.7197 31.4947C38.3564 31.4128 37.9812 31.3999 37.6132 31.4568C37.5202 31.4631 37.4321 31.5009 37.3631 31.5641C37.3117 31.6333 37.2832 31.7172 37.2819 31.8038C37.2071 32.5323 37.3099 33.2683 37.5811 33.9477C37.8524 34.6271 38.2841 35.2293 38.8385 35.7021C39.3313 36.023 39.772 36.4187 40.1451 36.8754C39.6054 36.799 39.0891 36.6034 38.6331 36.3024C38.1771 36.0015 37.7925 35.6026 37.5069 35.1344C36.9337 34.1831 36.6249 33.0936 36.613 31.9804C36.585 31.7478 36.6218 31.5119 36.7192 31.2991C36.8599 31.119 37.0465 30.9809 37.2591 30.8998C37.4717 30.8186 37.7022 30.7975 37.9258 30.8387C38.3747 30.9116 38.8346 30.8174 39.2198 30.5737C39.3256 30.453 39.4428 30.3432 39.5699 30.2457C39.6834 30.1912 39.8069 30.1612 39.9325 30.1574L46.0215 29.5581ZM41.4954 29.5581C41.4954 29.5581 41.4954 29.5077 41.4954 29.4825C41.5098 29.5091 41.5266 29.5344 41.5454 29.5581H41.4954ZM48.0157 32.8698C48.2011 33.0941 48.2989 33.379 48.2908 33.6709C48.2768 33.8197 48.233 33.9641 48.1621 34.0953C48.0912 34.2265 47.9946 34.3418 47.8782 34.4342C48.0101 33.9177 48.0545 33.3823 48.0094 32.8509L48.0157 32.8698ZM48.172 34.901L48.2783 34.8127L48.372 34.6865C48.4971 34.491 48.6158 34.2891 48.7221 34.0557C48.7458 33.989 48.7924 33.9331 48.8534 33.898C48.9264 33.8823 49.0027 33.8959 49.066 33.9359C49.1347 33.9737 49.2097 34.0494 49.1972 34.1314C49.1735 34.238 49.1335 34.3401 49.0785 34.4342C49.0366 34.5217 48.9886 34.606 48.9347 34.6865L48.7846 34.8631C48.6846 34.9704 48.5846 35.0839 48.4971 35.1974C48.4095 35.311 48.3533 35.4056 48.272 35.5065C47.9531 35.8273 47.5692 36.0747 47.1467 36.2319C47.3435 35.6884 47.6987 35.2178 48.1657 34.882L48.172 34.901ZM49.1035 33.1158C48.5596 33.1158 48.2533 32.731 48.2658 32.0687C48.2783 31.4064 48.7721 30.6557 49.3973 30.7125C49.5897 30.7562 49.7596 30.8696 49.8748 31.0311C49.99 31.1927 50.0425 31.3913 50.0224 31.5893C50.0287 32.2327 49.5161 33.0969 49.0972 33.0969L49.1035 33.1158ZM47.9469 42.9436C47.9469 43.3851 47.4468 43.1202 47.1655 43.1833C46.9097 43.2944 46.6283 43.3316 46.3528 43.2905L45.6276 43.3347L45.5089 43.3788C45.2869 43.4503 45.0522 43.4718 44.8212 43.4419L44.0898 43.4861L43.9897 43.5302C43.7638 43.6027 43.5256 43.6285 43.2896 43.6059L42.5831 43.6501C42.3279 43.7466 42.0538 43.7811 41.783 43.751C41.6352 43.784 41.4841 43.7988 41.3328 43.7952C41.1265 43.7952 40.7827 44.1042 40.7077 43.6627C40.6327 43.2211 41.0953 43.4167 41.2766 43.3536C41.6241 43.2825 41.9804 43.2655 42.3331 43.3031C42.3692 43.2802 42.4097 43.2652 42.4519 43.259C42.6718 43.1886 42.9038 43.165 43.1333 43.1896L43.8647 43.1454L43.9835 43.1013C44.2033 43.0299 44.4359 43.0084 44.6649 43.0382C45.4838 42.9436 46.3028 42.83 47.128 42.7607C47.4343 42.7165 47.9219 42.5146 47.9407 42.9247L47.9469 42.9436ZM41.5829 38.4208C41.5829 38.0234 41.5454 38.0108 41.6829 37.8468C41.8205 37.6828 42.008 37.9225 42.058 38.0171C42.6207 38.875 42.977 39.5184 42.6394 40.3889C42.3186 40.1666 42.055 39.8704 41.8701 39.5249C41.6853 39.1794 41.5847 38.7944 41.5767 38.4019L41.5829 38.4208ZM38.951 35.0839C38.4546 34.6573 38.0847 34.1007 37.882 33.4754C37.7177 33.0769 37.6574 32.6425 37.707 32.2138C37.7103 32.148 37.729 32.084 37.7616 32.027C37.7942 31.97 37.8398 31.9216 37.8945 31.8858C37.9684 31.8668 38.0457 31.8668 38.1196 31.8858C38.2724 31.8836 38.4245 31.9071 38.5697 31.9552C39.0573 32.1507 38.8197 32.8446 38.8135 33.2546C38.8033 33.8608 38.8472 34.4667 38.9448 35.065L38.951 35.0839ZM47.4218 43.915C47.0486 44.0916 46.7386 44.3802 46.5341 44.7413C46.4091 44.4953 45.7777 44.2619 45.6401 44.0033C46.0584 43.9981 46.476 43.9665 46.8904 43.9087C47.2468 43.7447 48.1407 43.587 48.5158 43.4482C48.3783 43.6627 47.6094 43.7762 47.4343 43.8835L47.4218 43.915ZM51.9166 31.7659C51.5367 32.0825 51.2956 32.5373 51.2453 33.0318C51.195 33.5264 51.3396 34.0211 51.6478 34.409C51.7598 34.5337 51.8405 34.6837 51.8831 34.8464C51.9258 35.0091 51.9292 35.1798 51.8931 35.3441C51.857 35.5084 51.7824 35.6616 51.6756 35.7908C51.5687 35.92 51.4327 36.0216 51.279 36.0869C50.8804 36.3169 50.584 36.6918 50.4504 37.1351C50.3168 37.5783 50.356 38.0563 50.5601 38.4713C50.6525 38.6188 50.7083 38.7867 50.7227 38.9606C50.7371 39.1346 50.7097 39.3094 50.6428 39.4704C50.5759 39.6314 50.4715 39.7737 50.3385 39.8853C50.2055 39.9968 50.0477 40.0744 49.8787 40.1113C49.4368 40.262 49.0683 40.5765 48.8478 40.9912C48.6272 41.4058 48.5711 41.8895 48.6909 42.3443C48.7471 42.7039 48.8909 43.0445 48.5471 43.3599C48.6346 42.7291 48.0532 42.4453 47.9219 41.9469C47.8792 41.6794 47.744 41.4358 47.5403 41.2592C47.3367 41.0826 47.0777 40.9843 46.8092 40.9818C45.7214 40.8115 45.3526 40.351 45.2713 39.1399C45.2025 38.0297 45.6589 37.2475 46.5904 36.9826C47.8113 36.6586 48.86 35.8694 49.5161 34.7811C49.8036 34.3143 49.9037 33.7592 50.2162 33.2924C51.0164 32.1129 50.9664 31.4568 50.0724 30.3529C50.029 30.2936 49.9914 30.2303 49.9599 30.1637C49.4285 29.2049 49.2848 29.1481 48.1532 29.3374C47.8157 29.3941 47.353 29.6528 47.1342 29.4257C46.5841 28.8643 45.9965 29.1103 45.4151 29.1671C44.1648 29.2743 42.877 29.4131 41.6079 29.5392C41.6079 28.5867 41.6079 27.6468 41.6079 26.688C41.6262 24.992 41.2163 23.3192 40.4168 21.8271C39.6173 20.3351 38.4545 19.073 37.0381 18.1597C34.0123 16.0529 30.6053 15.7248 27.0794 16.4187C22.2157 17.3712 18.3273 21.6985 18.4336 26.8016C18.4711 28.5236 18.4336 30.2457 18.6211 31.9552C18.6961 32.668 18.3773 32.8004 17.8084 32.7878C17.2218 32.7585 16.6474 32.6082 16.1205 32.3463C15.7293 32.1672 15.2963 32.1017 14.8702 32.157C14.4873 32.1899 14.122 32.3344 13.819 32.5729C13.516 32.8115 13.2883 33.1338 13.1636 33.5006C12.9948 34.3396 13.4761 34.8505 14.1075 35.2731C14.6406 35.6226 15.2221 35.8904 15.833 36.0679C16.466 36.2319 17.0709 36.4914 17.6271 36.8375C17.9101 36.9748 18.1316 37.2146 18.2474 37.5091C18.3632 37.8036 18.365 38.1313 18.2523 38.4271C17.6158 40.116 16.646 41.6569 15.4016 42.9562C14.8827 43.4293 14.3263 43.8898 13.72 44.3629C13.404 44.0157 12.9767 43.7923 12.5134 43.7321C12.3536 43.7203 12.1987 43.6713 12.0607 43.589C11.9228 43.5067 11.8057 43.3932 11.7185 43.2576C11.6313 43.1219 11.5764 42.9678 11.5581 42.8071C11.5399 42.6465 11.5587 42.4838 11.6132 42.3317C11.6162 42.3066 11.6162 42.2812 11.6132 42.256C11.7155 41.8149 11.6575 41.3514 11.4499 40.9498C11.2422 40.5481 10.8987 40.235 10.4817 40.0672C9.44392 39.5499 9.41891 39.4931 9.7815 38.4019C9.95542 37.9837 9.97941 37.5175 9.84932 37.0834C9.71924 36.6493 9.44323 36.2746 9.06883 36.0238C8.17487 35.3047 8.15611 35.2416 8.71875 34.2513C8.98797 33.8681 9.10636 33.3976 9.0509 32.9313C8.99544 32.4649 8.77009 32.0361 8.41867 31.7281C8.28318 31.6307 8.17274 31.502 8.09653 31.3527C8.02032 31.2035 7.98055 31.0381 7.98055 30.8702C7.98055 30.7023 8.02032 30.5369 8.09653 30.3877C8.17274 30.2384 8.28318 30.1097 8.41867 30.0123C8.79116 29.6886 9.02281 29.2303 9.06373 28.736C9.10465 28.2416 8.95158 27.7509 8.63748 27.3693C8.53252 27.2561 8.45592 27.1193 8.41408 26.9701C8.37224 26.821 8.36637 26.6639 8.39697 26.512C8.42756 26.3602 8.49373 26.2179 8.58995 26.097C8.68617 25.9762 8.80964 25.8804 8.95005 25.8175C9.17124 25.6978 9.36682 25.5352 9.52557 25.339C9.68432 25.1428 9.80311 24.9169 9.87513 24.6742C9.94715 24.4316 9.97099 24.177 9.94527 23.9251C9.91955 23.6731 9.84476 23.4288 9.72523 23.2061C9.64501 23.0727 9.59756 22.922 9.58685 22.7664C9.57614 22.6108 9.60248 22.4548 9.66367 22.3116C9.72485 22.1684 9.81911 22.042 9.93857 21.943C10.058 21.844 10.1992 21.7753 10.3504 21.7426C10.8313 21.5902 11.2329 21.2517 11.4672 20.8014C11.7015 20.351 11.7495 19.8253 11.6007 19.3393C11.5604 19.2023 11.5506 19.0581 11.5719 18.9169C11.5932 18.7757 11.6451 18.641 11.7239 18.5223C11.8027 18.4036 11.9064 18.304 12.0278 18.2304C12.1491 18.1568 12.2851 18.1111 12.4259 18.0966C12.6811 18.0745 12.9294 18.0014 13.1564 17.8816C13.3833 17.7617 13.5844 17.5975 13.7479 17.3985C13.9114 17.1995 14.034 16.9697 14.1086 16.7224C14.1832 16.4752 14.2084 16.2154 14.1826 15.9582C14.1826 15.2076 14.5764 14.8859 15.3266 14.8417C16.6832 14.7534 16.9957 14.5011 17.3583 13.1764C17.5646 12.4258 17.9835 12.0915 18.7274 12.2366C18.9675 12.3116 19.22 12.3371 19.4701 12.3117C19.7201 12.2863 19.9626 12.2105 20.183 12.0887C20.4034 11.9669 20.5973 11.8016 20.7532 11.6027C20.9091 11.4038 21.0238 11.1753 21.0905 10.9308C21.1227 10.7821 21.1901 10.6435 21.2872 10.5269C21.3842 10.4103 21.5078 10.3193 21.6474 10.2616C21.787 10.2039 21.9384 10.1812 22.0886 10.1956C22.2387 10.21 22.3832 10.261 22.5096 10.3442C22.9685 10.5882 23.5044 10.6396 24.0007 10.4872C24.497 10.3349 24.9137 9.99104 25.1602 9.53045C25.2236 9.39603 25.3176 9.27859 25.4344 9.1877C25.5513 9.0968 25.6877 9.03502 25.8327 9.00736C25.9777 8.9797 26.1271 8.98695 26.2688 9.02852C26.4104 9.07009 26.5404 9.14481 26.6481 9.2466C27.0509 9.57499 27.5661 9.72943 28.0813 9.67626C28.5966 9.62309 29.0701 9.36663 29.3987 8.96274C29.485 8.84161 29.5986 8.74294 29.7301 8.67488C29.8616 8.60682 30.0073 8.57132 30.1552 8.57132C30.303 8.57132 30.4487 8.60682 30.5802 8.67488C30.7117 8.74294 30.8253 8.84161 30.9116 8.96274C31.0728 9.16394 31.2719 9.33098 31.4973 9.45424C31.7228 9.5775 31.9702 9.65454 32.2252 9.68092C32.4803 9.7073 32.7381 9.68251 32.9836 9.60797C33.2292 9.53343 33.4577 9.41062 33.656 9.2466C33.7631 9.14348 33.893 9.06759 34.0349 9.02523C34.1768 8.98286 34.3267 8.97524 34.4722 9.00298C34.6176 9.03073 34.7544 9.09305 34.8712 9.18478C34.988 9.27651 35.0815 9.39501 35.1439 9.53045C35.3891 9.9906 35.8047 10.3343 36.3 10.4867C36.7953 10.6391 37.3302 10.5879 37.7882 10.3442C37.9144 10.2665 38.057 10.22 38.2044 10.2084C38.3518 10.1969 38.4998 10.2207 38.6364 10.2779C38.7729 10.3351 38.8941 10.4241 38.99 10.5376C39.086 10.651 39.154 10.7858 39.1886 10.9308C39.3349 11.4185 39.6653 11.8286 40.1085 12.0729C40.5516 12.3171 41.0722 12.3759 41.5579 12.2366C41.7087 12.183 41.8698 12.166 42.0283 12.187C42.1868 12.2079 42.3382 12.2661 42.4703 12.357C42.6023 12.4479 42.7113 12.5689 42.7885 12.7101C42.8657 12.8514 42.9088 13.0089 42.9145 13.1701C42.9391 13.4228 43.0139 13.6679 43.1344 13.8908C43.2548 14.1136 43.4185 14.3098 43.6157 14.4675C43.8128 14.6253 44.0394 14.7414 44.282 14.8089C44.5245 14.8764 44.7781 14.894 45.0275 14.8607C45.6526 14.8607 46.0777 15.1508 46.0777 15.8762C46.0512 16.1483 46.079 16.423 46.1595 16.684C46.24 16.945 46.3715 17.1871 46.5464 17.3959C46.7213 17.6047 46.9359 17.7759 47.1775 17.8996C47.4192 18.0232 47.6829 18.0966 47.9532 18.1156C48.0861 18.1293 48.2142 18.1735 48.3276 18.2449C48.4409 18.3163 48.5366 18.413 48.6072 18.5275C48.6778 18.642 48.7215 18.7712 48.7349 18.9054C48.7483 19.0396 48.7311 19.175 48.6846 19.3014C48.6027 19.554 48.5719 19.8205 48.5939 20.0853C48.6159 20.35 48.6903 20.6077 48.8127 20.8429C48.9351 21.0782 49.103 21.2863 49.3065 21.4549C49.51 21.6235 49.7449 21.7492 49.9974 21.8246C50.1403 21.8619 50.2724 21.9324 50.3834 22.0305C50.4943 22.1287 50.5809 22.2517 50.6362 22.3897C50.6915 22.5277 50.714 22.6768 50.7019 22.8252C50.6897 22.9735 50.6433 23.1169 50.5663 23.2439C50.3261 23.6933 50.2722 24.2204 50.4163 24.7099C50.5604 25.1993 50.8908 25.6112 51.3353 25.8554C51.476 25.9206 51.5994 26.0184 51.6954 26.141C51.7915 26.2635 51.8575 26.4072 51.8879 26.5604C51.9184 26.7136 51.9126 26.8719 51.8708 27.0223C51.8291 27.1728 51.7527 27.3111 51.6478 27.4261C51.4858 27.6202 51.3642 27.8453 51.2901 28.0878C51.2161 28.3304 51.1912 28.5855 51.2168 28.838C51.2425 29.0904 51.3182 29.3351 51.4395 29.5575C51.5608 29.7798 51.7252 29.9752 51.9229 30.1322C52.0475 30.225 52.1485 30.3463 52.2177 30.4861C52.2869 30.6259 52.3223 30.7802 52.3211 30.9365C52.3199 31.0928 52.282 31.2465 52.2107 31.3852C52.1393 31.5239 52.0364 31.6435 51.9104 31.7344L51.9166 31.7659Z" fill="white"/>
<path d="M55.0348 20.7831C55.5599 20.6191 55.3661 20.3984 55.1348 20.1523C54.5398 20.4733 53.9106 20.7251 53.2593 20.903C53.1468 21.3256 53.2593 21.5022 53.7094 21.3256C54.1596 21.149 54.5784 20.9282 55.0348 20.7831Z" fill="white"/>
<path d="M28.8042 55.6403L27.2914 55.5078C27.1164 55.5078 26.9976 55.552 26.9726 55.7349C26.9476 55.9178 27.0476 55.9998 27.1851 55.9872C27.8103 55.9368 27.6352 56.372 27.6227 56.7C27.6102 57.028 27.554 57.3308 27.5165 57.5957C27.479 57.8607 27.3852 58.0814 27.7728 58.1256C28.1604 58.1697 28.1166 57.8733 28.1416 57.6399C28.1666 57.4065 28.2229 57.0848 28.2416 56.8009C28.2604 56.5171 28.1791 55.9998 28.8042 56.1197C28.948 56.1197 29.0168 56.0251 29.023 55.8737C29.0293 55.7223 28.9605 55.6529 28.8042 55.6403Z" fill="white"/>
<path d="M8.67476 17.3352C8.934 17.3425 9.18684 17.2533 9.38512 17.0846C9.5834 16.9159 9.71327 16.6796 9.75 16.4205C9.75 16.2818 9.81876 16.0736 9.64372 16.0358C9.6017 16.0199 9.5564 16.0148 9.51196 16.0212C9.46753 16.0275 9.42536 16.0449 9.38931 16.0719C9.35327 16.0988 9.32449 16.1345 9.30559 16.1755C9.2867 16.2166 9.27829 16.2618 9.28114 16.307C9.28341 16.3785 9.27037 16.4498 9.2429 16.5158C9.21544 16.5818 9.1742 16.641 9.122 16.6895C9.06979 16.738 9.00785 16.7746 8.94038 16.7967C8.87291 16.8189 8.8015 16.8261 8.73102 16.8179C8.57697 16.8113 8.42746 16.7633 8.29782 16.6791C8.16819 16.5948 8.06311 16.4773 7.99336 16.3385C7.95408 16.2794 7.9278 16.2125 7.91631 16.1422C7.90481 16.072 7.90837 16.0001 7.92673 15.9313C7.9451 15.8626 7.97784 15.7986 8.02276 15.7438C8.06768 15.6889 8.12374 15.6443 8.18715 15.6131C8.37469 15.487 8.42471 15.3293 8.25592 15.1779C8.08713 15.0265 7.96836 15.1779 7.85583 15.2599C7.67752 15.3867 7.54424 15.5679 7.47559 15.7768C7.40695 15.9857 7.40657 16.2114 7.4745 16.4205C7.56761 16.6724 7.72999 16.8923 7.9426 17.0543C8.1552 17.2163 8.40919 17.3137 8.67476 17.3352Z" fill="white"/>
<path d="M8.00484 19.1772C8.11112 19.2339 8.18614 19.1772 8.2424 19.0636C8.29866 18.9501 8.39243 18.8113 8.2424 18.7482C7.76104 18.5842 7.71728 18.2814 7.91732 17.9408C7.95239 17.7648 7.92037 17.582 7.82766 17.4288C7.73495 17.2756 7.58837 17.1634 7.41722 17.1145C7.26716 17.0434 7.09528 17.0354 6.93936 17.0921C6.78345 17.1489 6.65626 17.2659 6.58577 17.4172C6.44199 17.6569 6.0794 18.0039 6.31696 18.1931C6.84927 18.5714 7.41416 18.9008 8.00484 19.1772ZM7.18591 17.5749C7.21765 17.5757 7.24893 17.583 7.27786 17.5962C7.3068 17.6094 7.33282 17.6283 7.35438 17.6518C7.37595 17.6753 7.39261 17.703 7.4034 17.7331C7.4142 17.7632 7.4189 17.7953 7.41722 17.8273C7.41722 17.9976 7.3547 18.1237 7.16715 18.149C6.97961 18.1742 6.84208 18.0607 6.87333 17.8651C6.87783 17.7829 6.91221 17.7053 6.96988 17.6471C7.02755 17.5889 7.10447 17.5542 7.18591 17.5497V17.5749Z" fill="white"/>
<path d="M8.55516 14.8629C8.95526 15.1846 9.3616 15.4937 9.75544 15.8091C9.91173 15.9353 10.0493 16.0173 10.1993 15.8091C10.3493 15.601 10.1993 15.5442 10.0868 15.437C9.97425 15.3297 9.50539 15.1973 9.83047 14.7494C10.1555 14.3015 10.3181 14.5854 10.5494 14.7494C10.7807 14.9134 10.8432 14.9512 10.9995 14.7494C11.1558 14.5475 10.9995 14.4718 10.8682 14.3898C10.4306 14.0366 9.9805 13.7023 9.53665 13.3553C9.51204 13.3262 9.48071 13.3037 9.44543 13.2897C9.41015 13.2756 9.372 13.2706 9.33433 13.275C9.29666 13.2793 9.26062 13.293 9.22941 13.3147C9.19819 13.3364 9.17275 13.3655 9.15531 13.3995C9.06154 13.532 9.11154 13.6392 9.21782 13.7338C9.32409 13.8284 9.52415 13.9924 9.69294 14.1312C9.57312 14.3116 9.43709 14.4806 9.28658 14.6358C9.08028 14.8125 8.97401 14.5602 8.84898 14.4718C8.72395 14.3835 8.53016 14.1943 8.35512 14.4718C8.18008 14.7494 8.43013 14.762 8.55516 14.8629Z" fill="white"/>
<path d="M11.4571 11.6046C11.7697 11.245 11.9323 11.6046 12.1135 11.7559C12.2948 11.9073 12.5386 12.1975 12.7387 12.4183C12.9387 12.6391 13.0888 12.4687 13.245 12.2669C13.0593 12.1026 12.8917 11.9186 12.7449 11.7181C12.5761 11.4342 12.1198 11.327 12.2261 10.8855C12.2823 10.7151 12.5324 10.5827 12.2698 10.3997C12.0073 10.2168 11.926 10.5007 11.7885 10.6142C11.6509 10.7278 11.3759 10.9927 11.1633 11.1819C10.9508 11.3712 10.9945 11.4279 11.1258 11.5667C11.2571 11.7055 11.3384 11.7559 11.4571 11.6046Z" fill="white"/>
<path d="M13.9257 10.9757C13.9882 11.1334 13.9257 11.4614 14.207 11.4236C14.4883 11.3857 14.4821 11.2091 14.4633 10.9505C14.4258 10.49 14.7821 10.4143 15.1197 10.3575C15.3635 10.5468 15.5761 10.4711 15.6573 10.2692C15.7386 10.0674 15.4573 9.97904 15.3135 9.88442C14.8947 9.60056 14.4508 9.34825 14.0257 9.0707C13.9577 9.01486 13.8727 8.98438 13.785 8.98438C13.6974 8.98437 13.6124 9.01486 13.5443 9.0707C13.4736 9.12674 13.4247 9.20623 13.4064 9.29512C13.3881 9.384 13.4015 9.47655 13.4443 9.55641C13.6006 9.98535 13.7381 10.4837 13.9257 10.9757ZM14.4446 10.0674C14.4446 10.1178 14.3258 10.2061 14.2758 10.1935C13.9757 10.1367 14.0632 9.89073 13.9507 9.59426C14.2383 9.71411 14.4946 9.71411 14.4446 10.0421V10.0674Z" fill="white"/>
<path d="M11.0431 14.0832C11.1056 14.1904 11.1306 14.4301 11.3494 14.2976C11.4207 14.2706 11.4788 14.2167 11.5115 14.1472C11.5441 14.0778 11.5488 13.9983 11.5244 13.9255C11.3744 13.3893 11.6557 13.1685 12.1496 13.1874C12.2389 13.1975 12.329 13.1792 12.4074 13.1351C12.4859 13.091 12.5487 13.0233 12.5872 12.9414C12.5872 12.7837 12.4747 12.7522 12.3684 12.708C11.8308 12.481 11.2869 12.2728 10.7493 12.0772C10.5742 12.0016 10.4304 11.9385 10.2866 12.134C10.2302 12.2021 10.1992 12.2881 10.1992 12.3769C10.1992 12.4657 10.2302 12.5516 10.2866 12.6197C10.5492 13.0865 10.7742 13.5911 11.0431 14.0832ZM11.3869 12.9225C11.3869 12.954 11.2806 13.1181 11.2056 13.1307C10.9305 13.1685 10.9868 12.8468 10.6992 12.7522C11.1181 12.6387 11.2869 12.727 11.3869 12.9225Z" fill="white"/>
<path d="M7.05513 21.3161H7.34896C7.25337 21.1462 7.19678 20.9568 7.18336 20.7619C7.16994 20.567 7.20004 20.3716 7.27143 20.19C7.34282 20.0084 7.45368 19.8453 7.59585 19.7126C7.73803 19.58 7.90789 19.4813 8.0929 19.4237C7.32396 19.3038 6.66754 19.2597 6.01112 19.2155C5.83607 19.2155 5.66102 19.1651 5.56725 19.3985C5.47348 19.6319 5.56725 19.7328 5.69854 19.8716L7.05513 21.3161ZM6.62377 19.8085C6.71755 19.8085 6.81132 19.8085 6.81757 19.9031C6.82382 19.9977 6.74256 20.1302 6.63628 20.086C6.53 20.0419 6.44248 19.9788 6.42997 19.9094C6.41747 19.84 6.555 19.8085 6.62377 19.8085Z" fill="white"/>
<path d="M6.01068 28.6376C5.728 28.6737 5.44223 28.6009 5.21045 28.4337C4.97867 28.2664 4.81795 28.0171 4.76038 27.7356C4.69787 27.5211 4.58533 27.2751 4.30402 27.294C4.0227 27.3129 3.9727 27.5337 3.91018 27.7166C3.854 27.9998 3.69411 28.2513 3.46237 28.4208C3.23064 28.5903 2.9441 28.6655 2.65989 28.6313C2.42858 28.6313 2.17227 28.6691 2.091 28.9341C2.00973 29.199 2.20978 29.3252 2.36607 29.4387C2.6119 29.5981 2.79464 29.8393 2.88258 30.1204C2.97051 30.4016 2.95807 30.705 2.84742 30.9778C2.70364 31.4383 2.93495 31.779 3.39131 31.4762C3.65836 31.2633 3.98872 31.1476 4.32903 31.1476C4.66933 31.1476 4.9997 31.2633 5.26675 31.4762C5.54181 31.6654 5.80437 31.5266 5.77312 31.1292C5.68634 30.7832 5.66304 30.424 5.70435 30.0695C5.80437 29.7604 6.16696 29.5459 6.37326 29.2558C6.79836 28.7764 6.39827 28.6376 6.01068 28.6376Z" fill="white"/>
<path d="M5.27978 24.1721C5.40481 24.0081 5.50483 23.6801 5.78615 23.9009C6.06746 24.1216 5.8174 24.273 5.67362 24.4181C5.52984 24.5632 5.67362 24.6893 5.73614 24.8029C5.79865 24.9164 5.90492 24.8849 5.98619 24.8029C6.10432 24.7053 6.19892 24.582 6.26282 24.4421C6.32672 24.3022 6.35825 24.1495 6.35502 23.9955C6.35986 23.8531 6.31676 23.7132 6.23276 23.5987C6.14876 23.4841 6.02881 23.4016 5.89242 23.3647C5.76172 23.3071 5.61544 23.2964 5.47785 23.3342C5.34026 23.3721 5.21964 23.4563 5.13599 23.5728C4.99846 23.7305 4.91719 24.0775 4.64838 23.9513C4.37957 23.8252 4.64839 23.5792 4.7109 23.3205C4.67526 23.239 4.62901 23.1626 4.57337 23.0934C4.44209 22.9736 4.34207 23.0934 4.2608 23.1818C4.18538 23.2515 4.12515 23.3363 4.08395 23.4308C4.04276 23.5252 4.02148 23.6273 4.02148 23.7305C4.02148 23.8338 4.04276 23.9359 4.08395 24.0303C4.12515 24.1248 4.18538 24.2096 4.2608 24.2793C4.32667 24.356 4.40989 24.4155 4.5034 24.4528C4.59691 24.49 4.69796 24.504 4.79796 24.4935C4.89797 24.483 4.99399 24.4483 5.07786 24.3923C5.16174 24.3364 5.23101 24.2608 5.27978 24.1721Z" fill="white"/>
<path d="M26.1785 55.4572C25.372 54.9021 24.7531 55.1481 24.5843 56.088C24.5168 56.254 24.4828 56.432 24.4843 56.6115C24.5593 56.9521 24.003 57.4442 24.5781 57.6019C25.1532 57.7596 24.7531 56.9711 25.2032 56.8008C25.9659 57.8226 25.9659 57.8226 26.2722 57.8226C26.0597 57.1098 26.0784 57.1162 26.4348 56.4034C26.483 56.3252 26.5147 56.2378 26.5279 56.1466C26.5411 56.0555 26.5354 55.9626 26.5114 55.8738C26.4873 55.785 26.4453 55.7021 26.388 55.6304C26.3307 55.5587 26.2594 55.4997 26.1785 55.4572ZM25.4783 56.3024C25.2658 56.3024 25.147 56.2267 25.197 55.987C25.247 55.7473 25.2533 55.6779 25.3533 55.7095C25.6533 55.8104 25.9159 55.8041 25.8909 56.088C25.8659 56.3718 25.6346 56.3087 25.4533 56.3024H25.4783Z" fill="white"/>
<path d="M19.833 53.8319C19.565 53.9605 19.3484 54.1774 19.2189 54.4469C19.0894 54.7163 19.0546 55.0222 19.1203 55.3142C19.1763 55.6146 19.3294 55.8877 19.5556 56.0909C19.7819 56.294 20.0685 56.4158 20.3706 56.437C20.5832 56.3929 20.8895 56.4812 20.9145 56.1595C20.9395 55.8378 20.7145 55.8062 20.4456 55.8125C20.3585 55.8214 20.2704 55.8116 20.1872 55.7839C20.104 55.7562 20.0274 55.7111 19.9626 55.6517C19.8978 55.5922 19.846 55.5196 19.8108 55.4387C19.7755 55.3577 19.7575 55.2702 19.758 55.1818C19.735 55.0144 19.7672 54.844 19.8496 54.6969C19.9321 54.5499 20.0603 54.4343 20.2143 54.368C20.349 54.2907 20.5074 54.2665 20.6587 54.3003C20.8101 54.3341 20.9435 54.4235 21.0333 54.551C21.2208 54.7907 21.4146 54.6834 21.5584 54.551C21.7022 54.4185 21.5584 54.2734 21.4771 54.1725C21.2788 53.9406 21.0099 53.7814 20.7125 53.7198C20.4151 53.6582 20.1059 53.6976 19.833 53.8319Z" fill="white"/>
<path d="M23.5964 54.7909C22.3461 54.2926 22.3461 54.2989 21.996 55.5921C21.996 55.6425 21.996 55.693 21.996 55.7434C21.671 56.8852 21.6647 56.8978 22.8337 57.2006C23.015 57.2447 23.3151 57.5727 23.4276 57.087C23.5401 56.6013 23.1588 56.8221 23.0025 56.7086C22.8462 56.595 22.3774 56.7086 22.4774 56.3048C22.5774 55.9011 22.8837 56.185 23.1025 56.1913C23.3213 56.1976 23.4839 56.4121 23.5964 56.0904C23.7089 55.7687 23.3963 55.7624 23.2213 55.6804C23.0463 55.5984 22.8275 55.611 22.74 55.4028C22.7962 55.2703 22.7712 55.1 22.9713 55.1568C23.1713 55.2136 23.3151 55.2451 23.4839 55.3082C23.6527 55.3713 23.884 55.3839 23.9527 55.1126C24.0215 54.8414 23.7339 54.8477 23.5964 54.7909Z" fill="white"/>
<path d="M16.0515 9.96552C16.5017 10.098 17.1268 9.17702 17.0831 8.64715C17.0592 8.36862 16.9443 8.10598 16.7565 7.90046C16.5687 7.69495 16.3185 7.55821 16.0453 7.51172C15.6073 7.55646 15.1952 7.74225 14.87 8.04159C14.6074 8.24344 14.87 8.41376 14.945 8.55884C15.3076 9.04456 15.4514 9.7952 16.0515 9.96552ZM15.8765 8.03528C16.3516 8.03528 16.5392 8.35699 16.5892 8.767C16.6204 9.05086 16.4391 9.24641 16.0765 9.3978C15.8348 9.07016 15.6254 8.71945 15.4514 8.35068C15.3638 8.11098 15.6764 8.04159 15.8765 8.03528Z" fill="white"/>
<path d="M6.86161 21.3504C6.33022 21.1737 5.79883 21.0034 5.2737 20.8142C5.0924 20.7511 5.01113 20.77 4.91736 20.9467C4.82359 21.1233 4.96112 21.2242 5.0924 21.2747C5.37373 21.3882 5.6613 21.4765 5.94887 21.5775L5.91136 21.7099C5.54252 21.7856 5.17367 21.8676 4.80483 21.9244C4.57977 21.9622 4.51725 22.101 4.47974 22.2903C4.44223 22.4795 4.61728 22.5804 4.77982 22.6372C5.2612 22.8075 5.74882 22.9715 6.22394 23.1481C6.43024 23.2238 6.57403 23.1923 6.63655 22.9652C6.69907 22.7381 6.50527 22.7255 6.37398 22.675C6.09266 22.5615 5.81134 22.4669 5.49251 22.3533C5.8868 22.1743 6.31093 22.0715 6.74283 22.0505C6.84258 22.0256 6.93196 21.9694 6.9982 21.8901C7.06444 21.8108 7.10415 21.7124 7.11167 21.609C7.11167 21.4639 6.98664 21.3882 6.86161 21.3504Z" fill="white"/>
</svg>
