<svg width="141" height="29" viewBox="0 0 141 29" fill="none" xmlns="http://www.w3.org/2000/svg">
<path d="M14.5594 23.0679C14.5594 23.6854 14.5594 24.295 14.5594 24.9126C14.59 25.1799 14.5649 25.4507 14.486 25.7076C14.407 25.9645 14.2758 26.2017 14.1009 26.4039C13.926 26.6061 13.7112 26.7688 13.4705 26.8815C13.2298 26.9942 12.9684 27.0544 12.7034 27.0581C12.2216 27.115 11.7337 27.0883 11.2607 26.9789C10.8932 26.9362 10.5527 26.7622 10.2999 26.4882C10.047 26.2141 9.89836 25.8577 9.88042 25.4826C9.70886 24.3784 9.70886 23.2537 9.88042 22.1495C9.974 21.437 10.091 20.7245 10.1534 20.0119C10.1534 19.7032 10.3015 19.6319 10.5823 19.6161C11.3648 19.5984 12.1457 19.5376 12.9218 19.434C13.6548 19.3231 13.8965 19.0144 13.8653 18.3018C13.8727 18.189 13.8576 18.0759 13.8208 17.9692C13.7841 17.8624 13.7265 17.7644 13.6515 17.6808C13.5764 17.5972 13.4856 17.5299 13.3843 17.4829C13.283 17.4359 13.1734 17.4102 13.0621 17.4072C12.3364 17.3372 11.6068 17.3187 10.8786 17.3518C10.5979 17.3518 10.5199 17.3043 10.5823 16.9955C10.7382 16.1563 10.8864 15.3092 10.9956 14.4542C11.0442 14.2355 11.0465 14.009 11.0024 13.7894C10.9583 13.5698 10.8688 13.3622 10.7398 13.1804C10.6108 12.9985 10.4452 12.8465 10.2541 12.7345C10.0629 12.6224 9.8505 12.5528 9.63088 12.5303C9.23907 12.472 8.83962 12.5571 8.5039 12.7703C8.16818 12.9835 7.91807 13.3109 7.79828 13.6941C7.62967 14.2845 7.53021 14.8931 7.50195 15.5071C7.43956 16.0613 7.37717 16.6076 7.33038 17.1618C7.33038 17.3676 7.22901 17.3993 7.04965 17.4072C6.37071 17.3861 5.69114 17.4046 5.01429 17.4626C4.70329 17.4996 4.40463 17.6079 4.14089 17.7793C3.93088 17.9203 3.77366 18.1289 3.69446 18.3716C3.61526 18.6142 3.61868 18.8769 3.70418 19.1173C3.73786 19.2407 3.80849 19.3504 3.90629 19.4312C4.00408 19.5121 4.12422 19.5601 4.25006 19.5686C5.07668 19.6715 5.9111 19.6161 6.73771 19.6398C7.04185 19.6398 7.06524 19.7348 7.04965 20.0119C6.94827 21.3103 6.8235 22.6087 6.8079 23.9071C6.80231 24.8837 6.98511 25.852 7.34598 26.7573C7.39277 26.8839 7.51754 27.066 7.40057 27.1531C7.28359 27.2402 7.13543 27.0819 7.01845 26.9948C6.00626 26.1783 5.09039 25.2458 4.28905 24.2159C2.84343 22.496 1.6868 20.546 0.865609 18.4443C0.314389 17.0929 0.0206616 15.6476 0 14.185C0.0224853 11.8854 0.833145 9.66547 2.29269 7.90675C3.79983 6.11693 5.59238 4.59682 7.59553 3.40986C9.58515 2.106 11.7565 1.11319 14.0369 0.464721C15.376 0.060301 16.7786 -0.0820928 18.17 0.045117C19.1421 0.142853 20.0769 0.476562 20.8953 1.01808C21.7137 1.5596 22.3918 2.29305 22.8724 3.15652C23.804 4.80382 24.4428 6.6047 24.7595 8.47678C25.2436 10.8692 25.4452 13.3117 25.36 15.7525C25.3378 18.3716 24.8899 20.969 24.0343 23.44C23.642 24.5849 23.0386 25.6436 22.2563 26.5593C21.8095 27.0732 21.2826 27.5092 20.6966 27.8498C20.3219 28.0621 19.8833 28.1269 19.4645 28.0319C18.7583 27.9139 18.1182 27.5398 17.6631 26.9789C17.5701 26.9006 17.4944 26.8033 17.4411 26.6932C17.3877 26.5832 17.3578 26.4629 17.3534 26.3404C17.349 26.2178 17.3701 26.0956 17.4154 25.9819C17.4607 25.8682 17.5292 25.7655 17.6163 25.6805C18.8077 24.1394 19.8867 22.5121 20.8448 20.8115C21.6133 19.4968 22.1887 18.0752 22.5526 16.5918C22.7953 15.5274 22.7468 14.4159 22.4123 13.3774C22.304 12.9878 22.1096 12.6285 21.8439 12.3267C21.5782 12.0249 21.2481 11.7886 20.8789 11.6359C20.5096 11.4832 20.1109 11.4181 19.7131 11.4455C19.3153 11.4729 18.9289 11.5921 18.5833 11.794C17.8207 12.1774 17.1427 12.714 16.5904 13.3713C16.0381 14.0286 15.6231 14.793 15.3704 15.618C15.0049 16.8549 14.7774 18.1296 14.692 19.4181C14.5858 20.6316 14.5415 21.8498 14.5594 23.0679Z" fill="#4A8DCB"/>
<path d="M53.2905 19.8433V24.7598C53.2905 25.2665 53.2359 25.3536 52.7447 25.4328C52.1249 25.5356 51.4928 25.5356 50.8731 25.4328C50.8129 25.4278 50.7543 25.4107 50.7007 25.3824C50.6471 25.3541 50.5997 25.3152 50.5611 25.2679C50.5226 25.2207 50.4938 25.1661 50.4764 25.1074C50.459 25.0487 50.4533 24.987 50.4598 24.9261C50.4598 20.0491 50.4598 15.1775 50.4598 10.3111C50.4465 10.1875 50.4816 10.0635 50.5574 9.96578C50.6332 9.86808 50.7438 9.80447 50.8653 9.78861C51.5172 9.63817 52.1941 9.63817 52.846 9.78861C53.2204 9.8757 53.2905 9.98654 53.2905 10.3666V18.9883L54.6786 17.104C55.1855 16.4152 55.6924 15.7264 56.1915 15.0297C56.2774 14.8942 56.392 14.7799 56.5268 14.695C56.6617 14.6101 56.8136 14.5567 56.9713 14.5389C57.6221 14.432 58.2856 14.432 58.9365 14.5389C59.3342 14.618 59.4355 14.816 59.303 15.2039C59.1954 15.4707 59.0363 15.713 58.8351 15.9164C57.9929 16.8744 57.1663 17.8403 56.3163 18.7903C56.2818 18.8243 56.2545 18.8649 56.2358 18.9098C56.2171 18.9546 56.2074 19.0029 56.2074 19.0516C56.2074 19.1003 56.2171 19.1485 56.2358 19.1934C56.2545 19.2383 56.2818 19.2789 56.3163 19.3129C57.369 20.9359 58.4062 22.5747 59.4355 24.2135C59.5692 24.407 59.6718 24.6208 59.7397 24.8469C59.7638 24.8989 59.7751 24.9561 59.7727 25.0136C59.7703 25.071 59.7543 25.1271 59.7259 25.1768C59.6976 25.2266 59.6578 25.2687 59.6099 25.2995C59.5621 25.3303 59.5076 25.3488 59.4511 25.3536C58.6779 25.4991 57.8849 25.4991 57.1117 25.3536C57.0141 25.3262 56.9234 25.2782 56.8455 25.2127C56.7675 25.1472 56.7041 25.0657 56.6594 24.9736C55.6456 23.3321 54.6266 21.6959 53.6025 20.065C53.5479 19.97 53.4855 19.8829 53.4231 19.7879L53.2905 19.8433Z" fill="#616161"/>
<path d="M66.2844 20.7246H63.399C63.1807 20.7246 63.1027 20.7246 63.1105 21.0017C63.0921 21.3295 63.1408 21.6576 63.2535 21.9653C63.3663 22.273 63.5407 22.5536 63.7656 22.7894C63.9906 23.0252 64.2613 23.2112 64.5606 23.3354C64.8599 23.4597 65.1813 23.5196 65.5046 23.5115C66.5695 23.5593 67.6324 23.3785 68.6239 22.981C69.3413 22.7118 69.5051 22.8306 69.5051 23.6144C69.5051 23.844 69.5051 24.0815 69.5051 24.319C69.5111 24.4977 69.4574 24.6733 69.3526 24.817C69.2478 24.9608 69.0981 25.0643 68.928 25.1107C67.9768 25.4633 66.9767 25.661 65.9647 25.6966C65.1469 25.7428 64.3269 25.6654 63.5316 25.467C62.7459 25.2855 62.0306 24.8723 61.4755 24.2792C60.9205 23.6862 60.5506 22.9398 60.4123 22.1339C60.0306 20.5597 60.1202 18.9058 60.6696 17.3836C60.9583 16.5327 61.4915 15.7891 62.2004 15.2486C62.9092 14.7082 63.7613 14.3957 64.6468 14.3514C65.6254 14.2172 66.6216 14.3511 67.5321 14.7393C68.1869 15.0482 68.7489 15.5286 69.1601 16.1311C69.5713 16.7336 69.8169 17.4365 69.8716 18.1674C69.9332 18.6928 69.954 19.2222 69.934 19.7508C69.9523 19.8799 69.9407 20.0115 69.9001 20.1353C69.8595 20.259 69.7911 20.3714 69.7003 20.4636C69.6095 20.5558 69.4987 20.6253 69.3769 20.6665C69.255 20.7077 69.1253 20.7194 68.9982 20.7009L66.2844 20.7246ZM65.1926 18.88H66.6431C67.3294 18.88 67.3294 18.88 67.2592 18.1991C67.239 17.8287 67.1191 17.471 66.9126 17.165C66.706 16.8591 66.4207 16.6165 66.0877 16.4638C65.7547 16.3111 65.3868 16.2541 65.0241 16.299C64.6614 16.344 64.3178 16.4891 64.0307 16.7186C63.7551 16.9542 63.5345 17.249 63.3848 17.5817C63.2351 17.9144 63.1601 18.2767 63.1651 18.6425C63.1651 18.8404 63.1651 18.8879 63.3834 18.8879C63.9449 18.872 64.5766 18.88 65.1926 18.88Z" fill="#616161"/>
<path d="M45.3489 24.2808C44.6206 25.0842 43.6238 25.5837 42.5527 25.6817C41.4815 25.7798 40.4128 25.4694 39.5547 24.8112C38.2134 23.7424 37.9795 20.5756 40.3736 19.5543C41.4453 19.1458 42.5821 18.9418 43.7268 18.9526H44.725C44.8498 18.9526 44.9122 18.9526 44.9122 18.7863C44.9318 18.3969 44.9083 18.0065 44.842 17.6225C44.7772 17.2909 44.5977 16.9937 44.336 16.7847C44.0743 16.5756 43.7476 16.4684 43.4149 16.4824C42.3512 16.4235 41.2924 16.6676 40.358 17.187C40.1942 17.2662 40.0304 17.3612 39.8667 17.4246C39.8097 17.4604 39.7451 17.4817 39.6782 17.4866C39.6114 17.4915 39.5444 17.4798 39.483 17.4525C39.4216 17.4252 39.3676 17.3832 39.3258 17.3301C39.284 17.2769 39.2555 17.2143 39.2428 17.1475C39.0848 16.6996 39.0657 16.2133 39.1882 15.7541C39.2351 15.6173 39.3101 15.4922 39.4083 15.3871C39.5064 15.282 39.6254 15.1993 39.7575 15.1444C40.5522 14.7166 41.4206 14.4478 42.3153 14.3527C43.3401 14.2107 44.3826 14.2808 45.3801 14.5586C45.9715 14.712 46.5008 15.0495 46.8937 15.5237C47.2867 15.9979 47.5237 16.5851 47.5714 17.2029C47.6222 17.5461 47.6457 17.893 47.6416 18.24V24.8904C47.6416 25.2862 47.5558 25.4129 47.1737 25.4604C46.7098 25.5119 46.2417 25.5119 45.7778 25.4604C45.4191 25.4208 45.3255 25.2941 45.3255 24.9141C45.3411 24.7241 45.3489 24.5341 45.3489 24.2808ZM44.9122 21.779C44.9122 21.4306 44.9122 21.1931 44.9122 20.9872C44.9122 20.7814 44.8654 20.7735 44.7094 20.7735C44.3351 20.7735 43.9296 20.7735 43.5865 20.7735C43.0694 20.7726 42.5575 20.8776 42.0814 21.0823C41.7955 21.2167 41.5653 21.4491 41.4312 21.7386C41.2972 22.0282 41.2679 22.3564 41.3483 22.6657C41.3997 22.9336 41.5355 23.1774 41.7353 23.3602C41.935 23.543 42.1878 23.6549 42.4557 23.6791C42.7443 23.7306 43.0404 23.7205 43.325 23.6497C43.6096 23.5788 43.8766 23.4486 44.109 23.2674C44.6392 22.8319 45.1227 22.4361 44.9122 21.779Z" fill="#616161"/>
<path d="M85.9043 22.0843C85.7755 22.7761 85.4911 23.4283 85.0731 23.99C84.6551 24.5517 84.1149 25.0077 83.4946 25.3224C82.7861 25.6952 81.9999 25.8897 81.2019 25.8897C80.404 25.8897 79.6177 25.6952 78.9092 25.3224C78.3383 25.0428 77.8337 24.6413 77.4299 24.1452C77.0261 23.6492 76.7327 23.0704 76.5698 22.4485C76.008 20.6368 76.1646 18.674 77.0065 16.9778C77.3767 16.2571 77.9181 15.6415 78.5818 15.1869C79.2456 14.7323 80.0105 14.4531 80.8074 14.3745C81.6042 14.2958 82.4078 14.4203 83.1453 14.7367C83.8828 15.053 84.5309 15.5512 85.0309 16.1861C85.5446 16.9526 85.8511 17.8426 85.9199 18.7671C85.9727 19.2931 85.9987 19.8217 85.9978 20.3505C85.9978 20.588 85.9277 20.6355 85.7093 20.6355H78.6051C78.2308 20.6355 78.223 20.6355 78.2542 21.0155C78.2909 21.5592 78.412 22.0936 78.6129 22.5989C78.7748 23.051 79.0589 23.4475 79.4327 23.743C79.8066 24.0385 80.2549 24.221 80.7262 24.2695C81.425 24.4003 82.1468 24.2683 82.7567 23.8982C83.3666 23.5281 83.823 22.9453 84.0405 22.2585C84.0405 22.1714 84.0405 22.0606 84.2276 22.0606L85.9043 22.0843ZM81.2253 19.1946H83.5024C84.2276 19.1946 84.2276 19.1946 84.0873 18.4583C84.0376 18.017 83.8865 17.5937 83.6461 17.2226C83.4057 16.8514 83.0828 16.5429 82.7033 16.3218C82.3239 16.1006 81.8986 15.9731 81.4617 15.9496C81.0248 15.926 80.5885 16.007 80.1882 16.1861C79.6752 16.4111 79.2327 16.7741 78.9083 17.236C78.5839 17.6979 78.3901 18.241 78.3478 18.8066C78.301 19.1075 78.3478 19.2104 78.6753 19.2025C79.4941 19.1708 80.3207 19.1946 81.2097 19.1946H81.2253Z" fill="#616161"/>
<path d="M31.9722 19.7836C31.9722 18.7702 31.9722 17.9548 31.9722 17.1472C31.9722 16.9414 31.902 16.8781 31.707 16.886C31.5121 16.8939 31.1611 16.886 30.9272 16.886C30.8739 16.8938 30.8196 16.8907 30.7674 16.8769C30.7153 16.8632 30.6664 16.839 30.6235 16.8058C30.5807 16.7727 30.5448 16.7312 30.5179 16.6838C30.4911 16.6364 30.4738 16.584 30.4671 16.5297C30.3547 16.0081 30.3547 15.4679 30.4671 14.9463C30.4738 14.8951 30.4904 14.8458 30.5161 14.8013C30.5418 14.7568 30.576 14.7179 30.6166 14.6869C30.6573 14.6559 30.7037 14.6335 30.753 14.621C30.8023 14.6084 30.8536 14.606 30.9038 14.6138C31.1923 14.6138 31.4887 14.6138 31.785 14.6138C31.9566 14.6138 32.0112 14.5584 32.0034 14.3842C32.0034 13.7825 32.0034 13.1729 32.0034 12.5712C32.0034 12.1358 32.0891 12.017 32.5102 11.9457C33.1021 11.8171 33.7111 11.7904 34.3117 11.8666C34.7094 11.9378 34.7873 12.0724 34.7873 12.4841C34.7873 13.0858 34.7873 13.6954 34.7873 14.2971C34.7873 14.4871 34.8419 14.5425 35.0291 14.5346C35.6296 14.5346 36.2222 14.5346 36.8227 14.5346C36.8828 14.5257 36.944 14.5292 37.0027 14.5449C37.0614 14.5605 37.1164 14.588 37.1644 14.6257C37.2124 14.6634 37.2525 14.7105 37.2822 14.7642C37.3119 14.8179 37.3307 14.8772 37.3374 14.9384C37.4349 15.4323 37.4349 15.9408 37.3374 16.4347C37.3316 16.4959 37.3138 16.5553 37.285 16.6093C37.2562 16.6634 37.217 16.711 37.1697 16.7494C37.1224 16.7878 37.0681 16.8162 37.0098 16.8328C36.9515 16.8495 36.8906 16.8541 36.8305 16.8464C36.23 16.8464 35.6296 16.8464 35.0369 16.8464C34.8497 16.8464 34.7951 16.9018 34.7951 17.0918C34.7951 18.6752 34.7951 20.2586 34.7951 21.7946C34.7836 21.9289 34.7836 22.064 34.7951 22.1983C34.7971 22.3781 34.8423 22.5548 34.927 22.7127C35.0118 22.8707 35.1333 23.0051 35.281 23.1043C35.4288 23.2035 35.5982 23.2645 35.7745 23.2818C35.9509 23.2992 36.1287 23.2724 36.2924 23.2038C36.4874 23.1563 36.6823 23.085 36.8695 23.0217C37.0566 22.9584 37.236 23.0217 37.2828 23.2355C37.4037 23.7775 37.4037 24.3401 37.2828 24.8822C37.269 24.974 37.2324 25.0606 37.1765 25.1341C37.1205 25.2075 37.0471 25.2652 36.9631 25.3018C36.3493 25.576 35.6802 25.6989 35.0107 25.6604C34.3411 25.6219 33.6901 25.423 33.1107 25.0801C32.8033 24.8617 32.5479 24.5763 32.363 24.2449C32.1782 23.9134 32.0686 23.5442 32.0424 23.1642C31.9494 22.0399 31.926 20.9109 31.9722 19.7836Z" fill="#616161"/>
<path d="M108.092 20.3986C108.038 19.1099 108.327 17.8302 108.927 16.6934C109.284 16.0189 109.805 15.4473 110.439 15.032C111.073 14.6167 111.8 14.3712 112.553 14.3183C113.344 14.2142 114.149 14.3092 114.895 14.595C115.642 14.8808 116.308 15.3486 116.834 15.9571C117.454 16.7085 117.835 17.6334 117.926 18.6093C118.16 20.1065 117.973 21.6403 117.388 23.0349C117.104 23.799 116.613 24.4656 115.971 24.9575C115.329 25.4494 114.563 25.7463 113.762 25.8138C112.606 26.0047 111.42 25.7897 110.401 25.2042C109.832 24.8459 109.345 24.368 108.974 23.8025C108.603 23.2371 108.355 22.5974 108.248 21.9265C108.153 21.4227 108.101 20.9115 108.092 20.3986ZM109.941 20.3431C109.937 20.6534 109.96 20.9634 110.011 21.2694C110.073 21.708 110.191 22.1365 110.362 22.5441C110.97 24.0087 112.069 24.4362 113.481 24.2779C113.947 24.2384 114.392 24.0626 114.761 23.7717C115.131 23.4809 115.409 23.0874 115.563 22.6391C116.14 21.2274 116.255 19.6648 115.891 18.1818C115.798 17.6134 115.528 17.09 115.121 16.6883C114.714 16.2866 114.191 16.0276 113.629 15.9492C112.963 15.7824 112.259 15.8743 111.656 16.2067C111.053 16.5392 110.594 17.0883 110.369 17.7464C110.059 18.5744 109.919 19.458 109.956 20.3431H109.941Z" fill="#616161"/>
<path d="M131.839 22.0945C132.096 22.0425 132.361 22.0425 132.619 22.0945C132.845 22.2133 132.759 22.5695 132.829 22.815C132.956 23.2081 133.193 23.555 133.512 23.8125C133.831 24.07 134.217 24.2269 134.623 24.2638C135.4 24.4411 136.21 24.3945 136.962 24.1292C137.416 23.9901 137.799 23.6779 138.031 23.2583C138.125 23.0857 138.18 22.8936 138.19 22.6965C138.201 22.4994 138.168 22.3024 138.093 22.1203C138.017 21.9382 137.903 21.7757 137.757 21.6451C137.611 21.5145 137.438 21.4191 137.251 21.3661C136.671 21.154 136.077 20.9847 135.473 20.8594C134.677 20.6884 133.895 20.4582 133.133 20.1706C132.688 20.0417 132.287 19.7924 131.971 19.4493C131.655 19.1062 131.437 18.6823 131.34 18.223C131.233 17.6072 131.313 16.973 131.567 16.4037C131.822 15.8344 132.24 15.3564 132.767 15.0324C133.493 14.6171 134.303 14.3774 135.135 14.3321C135.967 14.2868 136.797 14.4371 137.563 14.7712C138.032 14.9544 138.452 15.2502 138.784 15.6335C139.117 16.0168 139.353 16.476 139.473 16.9721C139.684 17.7638 139.684 17.7638 138.881 17.7638C138.839 17.7599 138.797 17.7599 138.756 17.7638C138.218 17.8351 137.805 17.7638 137.672 17.0909C137.607 16.8494 137.477 16.631 137.297 16.4604C137.116 16.2897 136.892 16.1736 136.65 16.125C135.8 15.8399 134.881 15.8399 134.03 16.125C133.717 16.2125 133.45 16.4197 133.284 16.7032C133.118 16.9866 133.067 17.3242 133.141 17.6451C133.211 17.8814 133.338 18.0959 133.511 18.2689C133.684 18.4419 133.898 18.5678 134.132 18.6347C134.69 18.8441 135.264 19.0109 135.847 19.1335C136.566 19.2951 137.277 19.4933 137.976 19.7273C138.384 19.8358 138.761 20.0393 139.078 20.3216C139.395 20.604 139.643 20.9574 139.802 21.3539C139.961 21.7504 140.026 22.179 139.994 22.6058C139.961 23.0325 139.831 23.4457 139.614 23.8125C139.365 24.3206 139.001 24.7618 138.553 25.1003C138.104 25.4387 137.583 25.6648 137.032 25.7601C135.938 25.9938 134.806 25.9775 133.718 25.7126C132.995 25.5469 132.343 25.1497 131.859 24.5796C131.374 24.0095 131.083 23.2965 131.028 22.5458C130.981 22.0945 130.981 22.0945 131.433 22.0945H131.854H131.839Z" fill="#616161"/>
<path d="M88.5265 22.0942C88.7843 22.0462 89.0486 22.0462 89.3064 22.0942C89.5403 22.205 89.4389 22.5534 89.5091 22.7909C89.6 23.1189 89.7738 23.4171 90.0131 23.656C90.2525 23.8948 90.5492 24.0661 90.8738 24.1526C91.7541 24.4537 92.7073 24.4537 93.5876 24.1526C93.8691 24.0836 94.1277 23.9404 94.3371 23.7374C94.5466 23.5345 94.6997 23.279 94.7808 22.9968C94.8321 22.8408 94.8526 22.6761 94.8412 22.5121C94.8298 22.3481 94.7866 22.188 94.7142 22.0409C94.6418 21.8938 94.5415 21.7627 94.4191 21.655C94.2967 21.5473 94.1546 21.4652 94.0009 21.4133C93.3079 21.1524 92.5962 20.9459 91.872 20.7958C91.1023 20.6338 90.3482 20.4033 89.6183 20.107C89.1929 19.9645 88.8136 19.7072 88.5211 19.3628C88.2285 19.0183 88.0336 18.5997 87.9573 18.1515C87.8726 17.5309 87.9711 16.8988 88.2404 16.335C88.5097 15.7713 88.9377 15.3014 89.4701 14.9847C90.1813 14.5886 90.9712 14.3602 91.7812 14.3164C92.5911 14.2725 93.4005 14.4143 94.1491 14.7313C94.6556 14.9158 95.1053 15.2325 95.453 15.6494C95.8007 16.0663 96.0342 16.5688 96.1299 17.1064C96.2858 17.7873 96.2858 17.7873 95.6074 17.7873C95.3033 17.7873 94.9991 17.7873 94.695 17.7873C94.5546 17.7873 94.4922 17.7477 94.461 17.5894C94.4145 17.2304 94.26 16.8948 94.0185 16.6284C93.7771 16.362 93.4604 16.1778 93.1119 16.101C92.4079 15.9038 91.6681 15.8767 90.9518 16.0218C90.757 16.042 90.5689 16.1053 90.4007 16.2072C90.2326 16.3091 90.0884 16.4471 89.9784 16.6116C89.8684 16.7761 89.7952 16.963 89.764 17.1593C89.7328 17.3556 89.7443 17.5564 89.7977 17.7477C89.8859 17.9668 90.0213 18.163 90.194 18.322C90.3668 18.4809 90.5724 18.5985 90.7958 18.6661C91.6566 18.9581 92.5343 19.196 93.4239 19.3786C93.923 19.5211 94.4143 19.6716 94.8978 19.8537C95.4278 20.0289 95.8818 20.3847 96.1831 20.8608C96.4844 21.3369 96.6143 21.9041 96.551 22.4663C96.5266 23.192 96.2743 23.8907 95.8309 24.4604C95.3876 25.0302 94.7764 25.4411 94.0867 25.6331C92.8165 26.0135 91.4678 26.0326 90.1876 25.6886C89.52 25.5194 88.919 25.1476 88.4648 24.6229C88.0106 24.0981 87.7247 23.4452 87.6453 22.7513C87.5206 22.0942 87.5439 22.0863 88.199 22.0863H88.4408L88.5265 22.0942Z" fill="#616161"/>
<path d="M105.642 17.7705H105.58C105.35 17.8066 105.115 17.8066 104.885 17.7705C104.683 17.6834 104.745 17.3746 104.659 17.1767C104.586 16.9676 104.471 16.7763 104.32 16.6154C104.17 16.4544 103.988 16.3274 103.786 16.2425C102.89 15.8666 101.892 15.8273 100.971 16.1317C100.674 16.215 100.418 16.4045 100.249 16.665C100.08 16.9256 100.009 17.2396 100.051 17.5488C100.101 17.8076 100.219 18.0475 100.394 18.2429C100.568 18.4382 100.792 18.5814 101.041 18.6572C101.609 18.8703 102.193 19.0371 102.788 19.156C103.76 19.3447 104.707 19.6476 105.611 20.0585C105.916 20.2105 106.182 20.4328 106.388 20.7077C106.594 20.9826 106.734 21.3025 106.796 21.6419C106.969 22.4647 106.837 23.3233 106.426 24.0536C106.014 24.7839 105.352 25.3346 104.566 25.6004C103.211 26.052 101.753 26.0741 100.386 25.6637C99.7539 25.4797 99.1896 25.1102 98.7636 24.6018C98.3377 24.0933 98.0692 23.4685 97.9918 22.8057C97.8514 22.109 97.867 22.109 98.5689 22.109C98.8757 22.0529 99.19 22.0529 99.4969 22.109C99.7854 22.2357 99.6606 22.6473 99.762 22.9007C99.8686 23.1971 100.043 23.4635 100.271 23.6782C100.498 23.8929 100.773 24.0497 101.072 24.1357C101.97 24.4446 102.943 24.4446 103.841 24.1357C104.129 24.0684 104.393 23.9221 104.605 23.7126C104.817 23.5032 104.968 23.2388 105.041 22.9482C105.132 22.6427 105.101 22.3132 104.956 22.0305C104.81 21.7478 104.561 21.5343 104.262 21.436C103.562 21.1688 102.842 20.9597 102.109 20.8106C101.349 20.6466 100.604 20.4216 99.879 20.1377C99.2711 19.9437 98.7617 19.5168 98.4588 18.9477C98.156 18.3786 98.0835 17.7121 98.2569 17.0896C98.3433 16.5644 98.5658 16.0721 98.9016 15.663C99.2373 15.254 99.6743 14.943 100.168 14.762C100.889 14.444 101.671 14.2899 102.458 14.3104C103.244 14.3309 104.017 14.5256 104.722 14.8808C105.221 15.1155 105.648 15.4845 105.956 15.9478C106.264 16.4111 106.441 16.951 106.469 17.5092C106.469 17.7151 106.422 17.7863 106.219 17.7705C106.016 17.7546 105.845 17.7705 105.642 17.7705Z" fill="#616161"/>
<path d="M121.942 16.1567C122.303 15.714 122.732 15.3343 123.213 15.0325C123.833 14.6472 124.539 14.4258 125.265 14.3885C125.991 14.3511 126.715 14.4991 127.37 14.8188C127.822 15.0497 128.204 15.399 128.479 15.8305C128.753 16.2619 128.908 16.76 128.929 17.273C128.986 17.7219 129.013 18.1743 129.007 18.6268C129.007 20.8198 129.007 23.0129 129.007 25.2059C129.007 25.4671 128.937 25.5463 128.68 25.5304C128.288 25.5067 127.895 25.5067 127.502 25.5304C127.237 25.5304 127.159 25.475 127.159 25.1979C127.159 23.0604 127.159 20.9307 127.159 18.7931C127.171 18.3728 127.132 17.9527 127.042 17.5422C126.97 17.1118 126.746 16.7229 126.411 16.4488C126.077 16.1746 125.655 16.0342 125.225 16.0538C124.565 15.9881 123.903 16.1586 123.353 16.5359C122.804 16.9132 122.401 17.4736 122.215 18.1202C122.094 18.6197 122.041 19.1339 122.059 19.6481V25.1267C122.059 25.578 122.122 25.5225 121.646 25.5225C121.303 25.5225 120.96 25.5225 120.617 25.5225C120.273 25.5225 120.242 25.4592 120.242 25.1584C120.242 21.7699 120.242 18.3893 120.242 15.0009C120.246 14.9508 120.246 14.9005 120.242 14.8504C120.242 14.6921 120.289 14.6288 120.445 14.6367C120.882 14.6367 121.318 14.6367 121.755 14.6367C121.934 14.6367 121.973 14.7 121.973 14.8663C121.942 15.2621 121.942 15.6659 121.942 16.1567Z" fill="#616161"/>
<path d="M74.2001 18.0392C74.2001 20.4143 74.2001 22.7894 74.2001 25.1645C74.2001 25.4179 74.1377 25.5049 73.8803 25.497C73.467 25.497 73.0537 25.497 72.6403 25.497C72.4532 25.497 72.3752 25.4416 72.3986 25.2516C72.4025 25.2121 72.4025 25.1723 72.3986 25.1328C72.3986 20.3826 72.3986 15.6799 72.3986 10.9534C72.3986 10.6605 72.461 10.5497 72.7573 10.5734C73.1313 10.5972 73.5063 10.5972 73.8803 10.5734C74.1377 10.5734 74.2001 10.6368 74.2001 10.8901C74.2001 13.281 74.2001 15.6562 74.2001 18.0392Z" fill="#616161"/>
<path d="M17.0528 19.2579C17.0454 17.9507 17.4111 16.6693 18.1055 15.5685C18.3685 15.1647 18.728 14.8352 19.1504 14.6106C19.6105 14.381 19.8211 14.4522 20.0472 14.9272C20.3331 15.5921 20.3773 16.3383 20.172 17.0332C19.8133 18.3984 19.0709 19.6281 18.0353 20.5721C17.544 21.0392 17.3257 20.96 17.1619 20.295C17.0783 19.9561 17.0415 19.6071 17.0528 19.2579Z" fill="#4A8DCB"/>
</svg>
