<svg width="38" height="34" viewBox="0 0 38 34" fill="none" xmlns="http://www.w3.org/2000/svg">
<path fill-rule="evenodd" clip-rule="evenodd" d="M38 5.21593C32.3085 8.11369 29.4627 11.5185 29.4627 15.4305C31.8886 15.7202 33.8946 16.7465 35.4808 18.5093C37.067 20.2721 37.86 22.3126 37.86 24.6308C37.86 27.0939 37.0903 29.1706 35.5508 30.8609C34.0113 32.5513 32.0752 33.3965 29.7426 33.3965C27.1301 33.3965 24.8675 32.2977 22.9548 30.1003C21.0421 27.9028 20.0857 25.2345 20.0857 22.0953C20.0857 12.6776 25.1707 5.31255 35.3409 0L38 5.21593ZM17.9143 5.21593C12.1761 8.11369 9.30703 11.5185 9.30703 15.4305C11.7796 15.7202 13.8089 16.7465 15.3951 18.5093C16.9813 20.2721 17.7743 22.3126 17.7743 24.6308C17.7743 27.0939 16.9929 29.1706 15.4301 30.8609C13.8672 32.5513 11.9195 33.3965 9.58694 33.3965C6.97443 33.3965 4.7235 32.2977 2.8341 30.1003C0.944689 27.9028 0 25.2345 0 22.0953C0 12.6776 5.06167 5.31255 15.1852 0L17.9143 5.21593Z" fill="#001897" fill-opacity="0.1"/>
<path fill-rule="evenodd" clip-rule="evenodd" d="M38 5.21593C32.3085 8.11369 29.4627 11.5185 29.4627 15.4305C31.8886 15.7202 33.8946 16.7465 35.4808 18.5093C37.067 20.2721 37.86 22.3126 37.86 24.6308C37.86 27.0939 37.0903 29.1706 35.5508 30.8609C34.0113 32.5513 32.0752 33.3965 29.7426 33.3965C27.1301 33.3965 24.8675 32.2977 22.9548 30.1003C21.0421 27.9028 20.0857 25.2345 20.0857 22.0953C20.0857 12.6776 25.1707 5.31255 35.3409 0L38 5.21593ZM17.9143 5.21593C12.1761 8.11369 9.30703 11.5185 9.30703 15.4305C11.7796 15.7202 13.8089 16.7465 15.3951 18.5093C16.9813 20.2721 17.7743 22.3126 17.7743 24.6308C17.7743 27.0939 16.9929 29.1706 15.4301 30.8609C13.8672 32.5513 11.9195 33.3965 9.58694 33.3965C6.97443 33.3965 4.7235 32.2977 2.8341 30.1003C0.944689 27.9028 0 25.2345 0 22.0953C0 12.6776 5.06167 5.31255 15.1852 0L17.9143 5.21593Z" fill="white" fill-opacity="0.2"/>
</svg>
