<svg width="141" height="15" viewBox="0 0 141 15" fill="none" xmlns="http://www.w3.org/2000/svg">
<path d="M0 3.39448H3.81115V13.9942H7.08636V3.39448H10.8975V0.476562H0V3.39448Z" fill="#001897"/>
<path d="M14.9471 0.476562H11.6719V13.9942H14.9471V0.476562Z" fill="#001897"/>
<path d="M23.4036 8.21797L20.1284 0.476562H16.4959L16.0195 13.9942H19.5925V5.65735L22.2127 12.0291H24.5946L27.2743 5.65735V13.9942H30.8473L30.3709 0.476562H26.7384L23.4036 8.21797Z" fill="#001897"/>
<path d="M44.0664 3.39448H47.8776V13.9942H51.1528V3.39448H54.9639V0.476562H44.0664V3.39448Z" fill="#001897"/>
<path d="M64.2538 5.5978H58.8944V0.476562H55.7383V13.9942H58.8944V8.51571H64.2538V13.9942H67.3504V0.476562H64.2538V5.5978Z" fill="#001897"/>
<path d="M77.4721 0.476562L74.3755 5.41915L71.2789 0.476562H67.5273L72.7081 8.45616V13.9942H75.9833V8.45616L81.1641 0.476562H77.4721Z" fill="#001897"/>
<path d="M88.8494 5.41907C87.5988 5.12132 86.4674 4.88312 86.4674 4.22808C86.4674 3.57304 87.0629 3.1562 88.0752 3.1562C89.4449 3.1562 90.7549 3.63259 91.7077 4.52583L91.8864 4.70448L93.7324 2.26296L93.5538 2.14386C92.1841 0.893323 90.4572 0.238281 88.3134 0.238281C85.336 0.238281 83.1326 2.02476 83.1326 4.46628C83.1326 7.56284 86.0506 8.27743 88.1348 8.75383C89.5044 9.05157 90.6359 9.34932 90.6359 10.0639C90.6359 10.7785 89.8617 11.2549 88.6112 11.2549C86.5865 11.2549 85.2764 10.183 84.6214 9.52797L84.4427 9.28977L82.6562 11.8504L82.7753 11.9695C84.2045 13.3987 86.1101 14.1133 88.4921 14.1133C91.8864 14.1133 93.9706 12.4459 93.9706 9.70662C93.9706 6.61005 90.9932 5.95501 88.8494 5.41907Z" fill="#001897"/>
<path d="M99.9224 5.41915L96.8258 0.476562H93.0742L98.255 8.45616V13.9942H101.53V8.45616L106.711 0.476562H103.019L99.9224 5.41915Z" fill="#001897"/>
<path d="M118.326 0.476562H114.277L110.049 5.77645V0.476562H106.773V13.9942H110.049V9.8258L110.763 8.87301L114.634 13.9942H118.683L112.967 6.78878L118.326 0.476562Z" fill="#001897"/>
<path d="M118.68 13.9942H128.386V11.0168H121.955V8.57526H128.267V5.65735H121.955V3.39448H128.386V0.476562H118.68V13.9942Z" fill="#001897"/>
<path d="M134.881 5.41907C133.63 5.12132 132.499 4.88312 132.499 4.22808C132.499 3.57304 133.094 3.1562 134.106 3.1562C135.476 3.1562 136.786 3.63259 137.739 4.52583L137.918 4.70448L139.764 2.26296L139.585 2.14386C138.215 0.893323 136.488 0.238281 134.345 0.238281C131.367 0.238281 129.164 2.02476 129.164 4.46628C129.164 7.56284 132.082 8.27743 134.166 8.75383C135.536 9.05157 136.667 9.34932 136.667 10.0639C136.667 10.7785 135.893 11.2549 134.642 11.2549C132.618 11.2549 131.308 10.183 130.653 9.52797L130.474 9.28977L128.688 11.8504L128.807 11.9695C130.236 13.3987 132.141 14.1133 134.523 14.1133C137.918 14.1133 140.002 12.4459 140.002 9.70662C139.942 6.61005 137.024 5.95501 134.881 5.41907Z" fill="#001897"/>
<path d="M43.6491 4.4662C43.3513 3.57296 42.9345 2.79882 42.4581 2.14377C41.9222 1.48873 41.2671 0.952788 40.493 0.595493C39.7188 0.238197 38.8256 0 37.8728 0C36.92 0 36.0268 0.178648 35.2526 0.595493C34.4785 0.952788 33.8235 1.48873 33.2875 2.14377C32.7516 2.79882 32.3347 3.57296 32.0965 4.4662C31.7988 5.35943 31.6797 6.31222 31.6797 7.32456C31.6797 8.3369 31.7988 9.28969 32.0965 10.1234C32.3943 11.0166 32.8111 11.7908 33.2875 12.3862C33.8235 13.0413 34.4785 13.5772 35.2526 13.9345C36.0268 14.2918 36.92 14.4705 37.8728 14.4705C38.8256 14.4705 39.7188 14.2918 40.493 13.9345C41.2671 13.5772 41.9222 13.0413 42.4581 12.3862C42.994 11.7312 43.4109 10.9571 43.6491 10.1234C43.9468 9.23014 44.0659 8.3369 44.0659 7.32456C44.1255 6.31222 43.9468 5.35943 43.6491 4.4662ZM39.302 11.3144C38.9447 11.5526 38.4683 11.6717 37.8728 11.6717C37.2773 11.6717 36.8009 11.5526 36.4436 11.3144C36.0268 11.0762 35.729 10.7189 35.4908 10.3616C35.2526 9.94473 35.074 9.46833 34.9549 8.99194C34.8358 8.456 34.7762 7.92005 34.7762 7.38411C34.7762 6.78862 34.8358 6.25267 34.9549 5.71673C35.074 5.18079 35.2526 4.70439 35.4908 4.28755C35.729 3.8707 36.0863 3.57296 36.4436 3.33476C36.8009 2.97746 37.2773 2.85836 37.8728 2.85836C38.4683 2.85836 38.9447 2.97746 39.302 3.21566C39.7188 3.45386 40.0166 3.81115 40.2548 4.16845C40.493 4.58529 40.6716 5.06169 40.7907 5.59763C40.9098 6.13357 40.9694 6.72907 40.9694 7.26501C40.9694 7.80096 40.9098 8.3369 40.7907 8.87284C40.6716 9.40878 40.493 9.88518 40.2548 10.2425C40.0761 10.7189 39.7188 11.0762 39.302 11.3144Z" fill="#001897"/>
</svg>
