<svg width="1440" height="403" viewBox="0 0 1440 403" fill="none" xmlns="http://www.w3.org/2000/svg">
<g opacity="0.1">
<path opacity="0.3" d="M0 419C35.5531 371.853 121.169 271.738 179.209 248.454C251.759 219.348 331.889 317.898 341.635 323.514C351.38 329.131 400.649 387.852 498.104 334.748C595.559 281.644 645.911 286.239 698.97 303.09C752.029 319.94 812.277 341.088 903.902 323.514C1052.8 294.955 1326.12 163.835 1439.05 3" stroke="url(#paint0_linear_9879_18941)" stroke-width="10"/>
<path d="M0 419C35.5531 371.853 121.169 271.738 179.209 248.454C251.759 219.348 331.889 317.898 341.635 323.514C351.38 329.131 400.649 387.852 498.104 334.748C595.559 281.644 645.911 286.239 698.97 303.09C752.029 319.94 812.277 341.088 903.902 323.514C1052.8 294.955 1326.12 163.835 1439.05 3" stroke="url(#paint1_linear_9879_18941)" stroke-width="4"/>
<path d="M0 419C35.5531 371.853 121.169 271.738 179.209 248.454C251.759 219.348 331.889 317.898 341.635 323.514C351.38 329.131 400.649 387.852 498.104 334.748C595.559 281.644 645.911 286.239 698.97 303.09C752.029 319.94 812.277 341.088 903.902 323.514C1052.8 294.955 1326.12 163.835 1439.05 3" stroke="white"/>
<path opacity="0.5" d="M0.953125 398.852C36.5062 372.793 122.122 317.459 180.162 304.59C252.712 288.503 332.842 342.972 342.588 346.076C352.333 349.181 401.602 381.636 499.057 352.285C596.513 322.934 646.864 325.474 699.923 334.787C752.982 344.101 813.23 355.789 904.855 346.076C1053.76 330.291 1327.08 257.82 1440 168.926" stroke="url(#paint2_linear_9879_18941)" stroke-width="1.5"/>
<path opacity="0.4" d="M0.953125 389.37C36.5062 376.408 122.122 348.884 180.162 342.482C252.712 334.48 332.842 361.574 342.588 363.119C352.333 364.663 401.602 380.807 499.057 366.207C596.512 351.607 646.864 352.871 699.923 357.503C752.982 362.136 813.23 367.95 904.855 363.119C1053.76 355.267 1327.08 319.218 1440 275" stroke="url(#paint3_linear_9879_18941)" stroke-width="1.25"/>
<path opacity="0.25" d="M0.953125 382.853C36.5062 378.622 122.122 369.637 180.162 367.547C252.712 364.935 332.842 373.78 342.588 374.284C352.333 374.788 401.602 380.058 499.057 375.292C596.513 370.526 646.864 370.938 699.923 372.451C752.982 373.963 813.23 375.861 904.855 374.284C1053.76 371.721 1327.08 359.953 1440 345.52" stroke="url(#paint4_linear_9879_18941)"/>
</g>
<defs>
<linearGradient id="paint0_linear_9879_18941" x1="572.621" y1="157.792" x2="591.448" y2="427.926" gradientUnits="userSpaceOnUse">
<stop stop-color="#2BE3C2"/>
<stop offset="1" stop-color="#219AF1"/>
</linearGradient>
<linearGradient id="paint1_linear_9879_18941" x1="572.621" y1="157.792" x2="591.448" y2="427.926" gradientUnits="userSpaceOnUse">
<stop stop-color="#2BE3C2"/>
<stop offset="1" stop-color="#219AF1"/>
</linearGradient>
<linearGradient id="paint2_linear_9879_18941" x1="573.574" y1="254.48" x2="579.345" y2="404.288" gradientUnits="userSpaceOnUse">
<stop stop-color="#2BE3C2"/>
<stop offset="1" stop-color="#219AF1"/>
</linearGradient>
<linearGradient id="paint3_linear_9879_18941" x1="573.574" y1="317.557" x2="575.004" y2="392.158" gradientUnits="userSpaceOnUse">
<stop stop-color="#2BE3C2"/>
<stop offset="1" stop-color="#219AF1"/>
</linearGradient>
<linearGradient id="paint4_linear_9879_18941" x1="573.574" y1="359.411" x2="573.727" y2="383.771" gradientUnits="userSpaceOnUse">
<stop stop-color="#2BE3C2"/>
<stop offset="1" stop-color="#219AF1"/>
</linearGradient>
</defs>
</svg>
